<svg width="19" height="12" viewBox="0 0 19 12" fill="none" xmlns="http://www.w3.org/2000/svg">
<path d="M5.91349 1.1875C5.8245 1.18763 5.73668 1.20776 5.65651 1.2464C5.57635 1.28504 5.5059 1.34121 5.45037 1.41075L1.82849 5.9375H7.12474C7.28221 5.9375 7.43324 6.00006 7.54459 6.1114C7.65594 6.22275 7.71849 6.37378 7.71849 6.53125C7.71849 7.00367 7.90616 7.45674 8.24021 7.79078C8.57426 8.12483 9.02732 8.3125 9.49974 8.3125C9.97216 8.3125 10.4252 8.12483 10.7593 7.79078C11.0933 7.45674 11.281 7.00367 11.281 6.53125C11.281 6.37378 11.3435 6.22275 11.4549 6.1114C11.5662 6.00006 11.7173 5.9375 11.8747 5.9375H17.171L13.5491 1.41075C13.4936 1.34121 13.4231 1.28504 13.343 1.2464C13.2628 1.20776 13.175 1.18763 13.086 1.1875H5.91349ZM4.52412 0.668562C4.69083 0.46016 4.90223 0.291881 5.14272 0.176161C5.3832 0.0604414 5.64661 0.00023801 5.91349 0H13.086C13.3529 0.00023801 13.6163 0.0604414 13.8568 0.176161C14.0972 0.291881 14.3087 0.46016 14.4754 0.668562L18.8691 6.16075C18.9187 6.22262 18.9554 6.2938 18.977 6.37008C18.9986 6.44636 19.0047 6.52619 18.995 6.60488L18.5319 10.3146C18.478 10.7456 18.2686 11.142 17.943 11.4293C17.6173 11.7167 17.198 11.8752 16.7637 11.875H2.2358C1.80152 11.8752 1.38214 11.7167 1.05652 11.4293C0.730894 11.142 0.521467 10.7456 0.467616 10.3146L0.00449123 6.60488C-0.00524182 6.52619 0.000881733 6.44636 0.0225006 6.37008C0.0441196 6.2938 0.080796 6.22262 0.130366 6.16075L4.52412 0.668562Z" fill="#67BDFF"/>
</svg>
