<svg width="64" height="64" viewBox="0 0 64 64" fill="none" xmlns="http://www.w3.org/2000/svg">
<g filter="url(#filter0_ii_1460_15637)">
<path d="M34.96 37.3577C34.8317 37.5264 34.6664 37.6634 34.4769 37.7581C34.2873 37.8529 34.0786 37.9029 33.8666 37.9044C33.6142 37.9041 33.3667 37.8336 33.152 37.7009C32.9372 37.5682 32.7635 37.3784 32.6503 37.1527L29.6026 31.0574L28.1676 33.1894C28.0443 33.3778 27.8761 33.5326 27.6781 33.64C27.4801 33.7473 27.2585 33.8038 27.0333 33.8044H13.3667C13.0042 33.8044 12.6566 33.9484 12.4003 34.2047C12.144 34.461 12 34.8086 12 35.171C12 35.5335 12.144 35.8811 12.4003 36.1374C12.6566 36.3937 13.0042 36.5377 13.3667 36.5377H21.2139L31.3793 48.414C31.5093 48.562 31.669 48.681 31.8479 48.7634C32.0268 48.8458 32.221 48.8897 32.418 48.8924C32.6132 48.8913 32.8059 48.848 32.9829 48.7654C33.1598 48.6829 33.3168 48.563 33.443 48.414L47.301 32.4377H38.65L34.96 37.3577Z" fill="#F4AD71"/>
</g>
<g filter="url(#filter1_ii_1460_15637)">
<path d="M51.6332 26.9712H49.9877C50.2445 25.2256 50.0342 23.4431 49.3782 21.8052C48.7672 20.2206 47.7232 18.8396 46.3651 17.8199C45.007 16.8001 43.3897 16.1826 41.6976 16.0378C39.9858 15.8975 38.2648 16.1551 36.6692 16.7905C35.0736 17.4259 33.6466 18.4219 32.4999 19.7005C31.354 18.4209 29.9272 17.4242 28.3313 16.7887C26.7355 16.1533 25.0141 15.8962 23.3022 16.0378C21.6043 16.1814 19.9814 16.8014 18.6202 17.8266C17.259 18.8517 16.2149 20.2402 15.6079 21.8325C14.9904 23.3341 14.7594 24.9667 14.9361 26.5807C15.1127 28.1948 15.6915 29.7387 16.6193 31.0712H26.2952L28.6322 27.5862C28.7624 27.3855 28.9434 27.2229 29.1569 27.1148C29.3703 27.0068 29.6085 26.9572 29.8473 26.9711C30.0861 26.985 30.317 27.0618 30.5164 27.1939C30.7159 27.3259 30.8769 27.5084 30.9829 27.7228L34.0989 33.9548L36.8732 30.2512C37.0015 30.0825 37.1668 29.9455 37.3563 29.8507C37.5459 29.756 37.7547 29.7059 37.9666 29.7045H51.6332C51.9957 29.7045 52.3433 29.5605 52.5996 29.3042C52.8559 29.0479 52.9999 28.7003 52.9999 28.3378C52.9999 27.9754 52.8559 27.6278 52.5996 27.3715C52.3433 27.1152 51.9957 26.9712 51.6332 26.9712Z" fill="#97D4DA"/>
</g>
<defs>
<filter id="filter0_ii_1460_15637" x="10" y="30.0574" width="39.301" height="18.835" filterUnits="userSpaceOnUse" color-interpolation-filters="sRGB">
<feFlood flood-opacity="0" result="BackgroundImageFix"/>
<feBlend mode="normal" in="SourceGraphic" in2="BackgroundImageFix" result="shape"/>
<feColorMatrix in="SourceAlpha" type="matrix" values="0 0 0 0 0 0 0 0 0 0 0 0 0 0 0 0 0 0 127 0" result="hardAlpha"/>
<feOffset dx="-2" dy="-1"/>
<feGaussianBlur stdDeviation="1.5"/>
<feComposite in2="hardAlpha" operator="arithmetic" k2="-1" k3="1"/>
<feColorMatrix type="matrix" values="0 0 0 0 0.721569 0 0 0 0 0.329412 0 0 0 0 0 0 0 0 1 0"/>
<feBlend mode="normal" in2="shape" result="effect1_innerShadow_1460_15637"/>
<feColorMatrix in="SourceAlpha" type="matrix" values="0 0 0 0 0 0 0 0 0 0 0 0 0 0 0 0 0 0 127 0" result="hardAlpha"/>
<feOffset dx="2"/>
<feGaussianBlur stdDeviation="2"/>
<feComposite in2="hardAlpha" operator="arithmetic" k2="-1" k3="1"/>
<feColorMatrix type="matrix" values="0 0 0 0 1 0 0 0 0 1 0 0 0 0 1 0 0 0 0.25 0"/>
<feBlend mode="normal" in2="effect1_innerShadow_1460_15637" result="effect2_innerShadow_1460_15637"/>
</filter>
<filter id="filter1_ii_1460_15637" x="12.8784" y="15" width="42.1216" height="18.9548" filterUnits="userSpaceOnUse" color-interpolation-filters="sRGB">
<feFlood flood-opacity="0" result="BackgroundImageFix"/>
<feBlend mode="normal" in="SourceGraphic" in2="BackgroundImageFix" result="shape"/>
<feColorMatrix in="SourceAlpha" type="matrix" values="0 0 0 0 0 0 0 0 0 0 0 0 0 0 0 0 0 0 127 0" result="hardAlpha"/>
<feOffset dx="-2" dy="-1"/>
<feGaussianBlur stdDeviation="1.5"/>
<feComposite in2="hardAlpha" operator="arithmetic" k2="-1" k3="1"/>
<feColorMatrix type="matrix" values="0 0 0 0 0 0 0 0 0 0.47451 0 0 0 0 0.521569 0 0 0 1 0"/>
<feBlend mode="normal" in2="shape" result="effect1_innerShadow_1460_15637"/>
<feColorMatrix in="SourceAlpha" type="matrix" values="0 0 0 0 0 0 0 0 0 0 0 0 0 0 0 0 0 0 127 0" result="hardAlpha"/>
<feOffset dx="2"/>
<feGaussianBlur stdDeviation="2"/>
<feComposite in2="hardAlpha" operator="arithmetic" k2="-1" k3="1"/>
<feColorMatrix type="matrix" values="0 0 0 0 1 0 0 0 0 1 0 0 0 0 1 0 0 0 0.25 0"/>
<feBlend mode="normal" in2="effect1_innerShadow_1460_15637" result="effect2_innerShadow_1460_15637"/>
</filter>
</defs>
</svg>
