<svg width="24" height="24" fill="none" xmlns="http://www.w3.org/2000/svg"><g fill="#333" clip-path="url(#clip0_5512_58157)"><path d="M16.315 1.893c-1.968-.836-4.045-1.079-6.197-.728-.73.124-2.191.59-2.89.93A10.99 10.99 0 001.54 8.587c-.676 2.057-.72 4.41-.123 6.394.142.47.187.557.303.617.283.147.553.065.697-.203.085-.163.081-.217-.024-.594-.587-2.105-.518-4.224.202-6.211.22-.599.765-1.679 1.095-2.162C4.953 4.585 6.71 3.242 8.797 2.54c2.219-.755 4.604-.7 6.834.15.57.216 1.89.95 2.342 1.3 1.297 1 2.212 2.087 2.915 3.46.105.204.187.383.178.4-.01.02-.35-.14-.754-.35-.78-.399-.807-.408-1.048-.279-.233.122-.303.46-.134.696.133.19 2.686 1.51 2.919 1.51.293.004.355-.086 1.096-1.513.74-1.427.777-1.529.605-1.766-.115-.166-.223-.222-.418-.223-.264 0-.326.069-.796.924l-.435.788-.247-.493c-.925-1.89-2.305-3.393-4.144-4.531a7.646 7.646 0 00-1.396-.72zm6.019 8.949c-.152.048-.235.106-.284.201-.076.146-.084 1.25-.014 1.44a.62.62 0 00.2.226c.14.098.18.103.381.04.33-.105.392-.257.375-.926-.014-.636-.082-.861-.294-.971-.116-.06-.2-.062-.364-.01zm-.244 2.965c-.23.076-.269.151-.462.848-.173.65-.178.71-.027.889a.458.458 0 00.53.159c.215-.068.296-.184.422-.642.25-.89.24-1.042-.084-1.21-.158-.083-.227-.092-.38-.044z"/><path d="M16.106 8.059c-.105.043-.76.809-1.901 2.222-.957 1.192-1.766 2.23-1.803 2.31-.093.203-.012.543.173.716.154.148.173.148 1.636.166l1.475.019v.987c0 1.1.043 1.279.377 1.451.265.136.562.068.76-.166.16-.186.16-.204.16-1.235v-1.043h.34c.438 0 .69-.13.808-.414.074-.167.08-.26.025-.42-.105-.327-.272-.426-.735-.463l-.407-.03-.031-1.89c-.031-2.068-.025-2.031-.414-2.198-.228-.092-.235-.092-.463-.012zm-.438 4.112c-.019.012-.309.012-.655.006l-.623-.019.636-.796.63-.79.018.784c.006.432.006.802-.006.815zM9.173 8.403c-.84.11-1.765.765-2.08 1.475-.099.235-.105.309-.05.488.1.29.328.463.63.463.26 0 .364-.087.821-.655.235-.296.587-.456 1.019-.456.673 0 1.111.364 1.111.913 0 .562-.327.926-1.611 1.803-1.328.907-1.821 1.475-1.982 2.247-.05.278-.043.364.043.55.185.395.278.413 2.402.413 2.086 0 2.235-.024 2.407-.364.124-.235.124-.395 0-.63-.166-.32-.364-.364-1.82-.364-1.137 0-1.297-.012-1.23-.093.038-.049.451-.345.914-.66 1.136-.772 1.674-1.29 1.976-1.89.21-.432.228-.506.222-.993 0-.439-.03-.593-.16-.883-.321-.698-.908-1.148-1.698-1.315-.414-.093-.556-.099-.914-.05zm11.975 8.167c-.23.034-.342.16-.684.738l-.327.56.06.189c.104.329.52.465.772.253.146-.12.664-.976.7-1.158a.528.528 0 00-.01-.264c-.058-.162-.345-.343-.511-.318zM19.3 18.972c-.093.015-.224.095-.339.204-.1.101-.31.293-.465.43-.338.294-.405.454-.298.716.063.154.106.192.269.256.11.041.248.06.32.034.156-.046.974-.778 1.062-.949.046-.087.045-.188-.003-.34-.082-.259-.292-.394-.546-.351zm-2.323 1.769c-.07.012-.38.141-.69.292-.597.287-.682.369-.685.658 0 .195.071.301.267.403.216.112.285.1.759-.119.572-.268.735-.368.817-.527.155-.3-.142-.754-.468-.707zm-2.714 1.034c-.139-.008-1.202.19-1.314.243-.226.12-.307.49-.15.694.188.24.339.254 1.144.117.46-.083.59-.148.701-.364.128-.246-.107-.669-.381-.69zm-11.406-4.79c-.253.09-.376.317-.305.576.076.282.61 1.055.796 1.152a.515.515 0 00.627-.15c.167-.23.112-.418-.276-.983-.417-.602-.552-.698-.842-.595zm8.241 4.978a9.86 9.86 0 01-.605-.076c-.2-.03-.377-.027-.465.012-.152.069-.31.32-.31.494.005.124.148.336.282.405.12.063 1.085.188 1.29.168.353-.039.543-.516.314-.788-.146-.176-.167-.187-.506-.215zm-6.27-2.693a.642.642 0 00-.27.145c-.156.157-.185.427-.062.596.086.119.442.44.786.704.332.256.658.209.828-.12.145-.279.06-.44-.463-.868-.528-.438-.626-.494-.819-.457zm3.006 1.82c-.367-.159-.517-.174-.693-.08-.15.075-.27.319-.252.487.031.244.17.353.737.594.617.267.642.27.861.182.279-.119.389-.463.226-.7-.09-.121-.258-.214-.88-.483z"/></g><defs><clipPath id="clip0_5512_58157"><path fill="#fff" d="M0 0h24v24H0z"/></clipPath></defs></svg>