<svg width="24" height="24" viewBox="0 0 24 24" fill="none" xmlns="http://www.w3.org/2000/svg">
<path d="M18.6876 14.9653C18.5822 15.1927 18.3173 15.2958 18.0806 15.1997C18.0173 15.1739 17.2673 14.4356 15.3642 12.5231L12.7322 9.87939L10.1025 12.5231C8.19466 14.438 7.447 15.1739 7.38372 15.1997C7.3345 15.2185 7.25247 15.2349 7.20091 15.2349C6.86341 15.2349 6.63606 14.8927 6.77669 14.5903C6.83997 14.4567 12.4017 8.86923 12.5329 8.81064C12.6525 8.75439 12.8118 8.75439 12.9314 8.81064C13.0626 8.86923 18.6243 14.4567 18.6876 14.5903C18.7439 14.7099 18.7439 14.8458 18.6876 14.9653Z" fill="#333333"/>
</svg>
