<svg width="19" height="19" fill="none" xmlns="http://www.w3.org/2000/svg"><path d="M1.862 3.15A2.78 2.78 0 00.57 5.5v9a4.5 4.5 0 004.5 4.5h9a2.784 2.784 0 002.352-1.293l-.104.005-.105.002H5.07A3.214 3.214 0 011.856 14.5V3.357c0-.07.002-.139.006-.207zm8.624 6.977l-.08.067-6.367 6.25c.439.271.944.414 1.46.413h10.714c.536 0 1.036-.15 1.46-.412l-6.366-6.251-.072-.06a.643.643 0 00-.662-.059l-.087.052zM5.499.57a2.786 2.786 0 00-2.786 2.786V14.07c0 .538.153 1.04.416 1.466l6.376-6.26.11-.1a1.929 1.929 0 012.476-.006l.117.105 6.375 6.26c.273-.44.417-.947.416-1.465V3.357A2.786 2.786 0 0016.213.571H5.5zm1.928 3.643a1.071 1.071 0 11.061 2.142 1.071 1.071 0 01-.06-2.142z" fill="#fff"/></svg>