<svg width="65" height="40" fill="none" xmlns="http://www.w3.org/2000/svg"><path d="M7.446 10c-1.788 0-3.234 1.434-3.234 3.205v13.591c0 1.77 1.446 3.204 3.234 3.204h13.72c1.787 0 3.234-1.435 3.234-3.204v-.139c-.06-.025-5.247-2.168-7.883-3.424-1.778 2.168-4.072 3.484-6.454 3.484-4.028 0-5.395-3.492-3.488-5.79.416-.502 1.123-.98 2.22-1.249 1.718-.418 4.451.261 7.013 1.099.46-.841.848-1.767 1.137-2.753H9.05v-.792h4.07v-1.42H8.19v-.793h4.93v-2.026s0-.342.35-.342h1.99v2.368h4.873v.792H15.46v1.42h3.979a16.036 16.036 0 01-1.685 4.216c1.208.433 2.291.844 3.1 1.111 2.694.894 3.449 1.003 3.546 1.014V13.205c0-1.77-1.447-3.205-3.233-3.205H7.446zM9.66 20.836a6.096 6.096 0 00-.522.029c-.504.05-1.45.27-1.969.724-1.551 1.34-.623 3.791 2.518 3.791 1.825 0 3.65-1.156 5.082-3.007-1.847-.893-3.438-1.556-5.11-1.537z" fill="#00A1E9"/><path d="M59.511 23.903l-.9 1.944-.915-1.944h-.894l1.392 2.688v1.875h.82v-1.875l.004-.01 1.386-2.678h-.893zm-6.598 1.176l.636 1.893h-1.294l.658-1.893zm.831 2.468l.307.919h.859l-1.692-4.563h-.657l-1.685 4.563h.86l.319-.92h1.69zm-6.41-1.463h-.913v-1.56h.912c.459 0 .733.398.733.783 0 .377-.257.777-.733.777m.047-2.181h-1.785v4.563h.826v-1.754h.959c.89 0 1.512-.578 1.512-1.405 0-.827-.622-1.404-1.512-1.404m-5.96 4.563h.826v-4.563h-.827v4.563zm-5.812-4.563v4.563h2.781v-.622h-1.955v-3.941h-.826zm-4.706 1.176l.635 1.893h-1.293l.658-1.893zm.831 2.468l.307.919h.858l-1.691-4.563h-.656l-1.686 4.563h.859l.32-.92h1.69zm5.816-12.565h-3.544V13.72h4.11v-.785h-4.11v-1.6h-1.832a.37.37 0 00-.363.374v1.226h-4.08v.785h4.08v1.262h-3.444v.785h6.86s-.38 1.475-2.262 3.06c-1.686-1.268-2.249-2.278-2.249-2.278h-1.84c.744 1.282 1.802 2.308 2.941 3.123-1.046.675-2.403 1.326-4.158 1.848v.94s2.707-.507 5.324-2.039c2.62 1.52 5.252 2.04 5.252 2.04v-.891c-1.684-.61-3.019-1.28-4.067-1.925 1.518-1.118 2.849-2.634 3.382-4.663zm11.51-3.489h-1.844v1.915h-4.547v.771h4.547v6.885a.318.318 0 01-.298.289h-.938v.798h2.391a.724.724 0 00.69-.714v-7.258h.748v-.77h-.748v-1.916zm-3.89 3.985a.412.412 0 00-.365-.232h-1.537l1.198 3.746h1.818l-1.114-3.514zm-4.539-4.075l-2.116 4.972h1.623v5.916h1.776v-7.848h-.644l1.337-3.04H40.63zM61.212 22.02l-.648-2.176a.337.337 0 00-.32-.24h-1.72l.5 1.672h-2.021v-3.238h3.968v-.77h-3.968v-1.525h3.968v-.77h-9.902v.77h3.967v1.524H51.07v.77h3.967v3.239H51.07v.77h10.143l-.008-.026h.008zm-8.08-8.885h5.779v1.136h2.064v-1.354a.548.548 0 00-.535-.553H57.1v-1.06h-2.16v1.06h-3.872v1.907h2.064v-1.136z" fill="#3F3B3A"/></svg>