<svg width="150" height="100" fill="none" xmlns="http://www.w3.org/2000/svg"><path d="M23.855 29.758c-3.619 0-6.546 2.903-6.546 6.487v27.513c0 3.58 2.927 6.485 6.546 6.485H51.63c3.615 0 6.544-2.904 6.544-6.485v-.282c-.121-.05-10.62-4.389-15.956-6.93-3.6 4.389-8.244 7.051-13.066 7.051-8.152 0-10.921-7.068-7.06-11.722.841-1.014 2.273-1.983 4.495-2.526 3.477-.846 9.01.529 14.195 2.224A27.994 27.994 0 0043.083 46h-15.98v-1.603h8.24V41.52h-9.98v-1.604h9.98v-4.101s0-.691.707-.691h4.028v4.792h9.866v1.605h-9.866v2.875h8.053c-.77 3.127-1.94 6.006-3.41 8.534 2.445.875 4.639 1.706 6.274 2.249 5.454 1.808 6.983 2.029 7.18 2.052V36.245c0-3.584-2.93-6.487-6.545-6.487H23.855zm4.481 21.935c-.352.004-.704.023-1.055.058-1.021.101-2.938.547-3.986 1.466-3.14 2.714-1.26 7.675 5.096 7.675 3.696 0 7.388-2.34 10.288-6.089-3.739-1.807-6.96-3.149-10.343-3.11z" fill="#00A1E9"/><path d="M129.249 57.902l-1.824 3.936-1.851-3.936h-1.809l2.817 5.442v3.796h1.659v-3.796l.01-.021 2.805-5.42h-1.807zm-13.356 2.381l1.287 3.832h-2.619l1.332-3.832zm1.682 4.996l.62 1.86h1.739l-3.424-9.237h-1.329l-3.413 9.237h1.741l.647-1.86h3.419zm-12.978-2.96h-1.847v-3.161h1.847c.929 0 1.483.806 1.483 1.586 0 .763-.519 1.574-1.483 1.574m.094-4.416h-3.613v9.237h1.672v-3.551h1.941c1.803 0 3.063-1.17 3.063-2.844s-1.26-2.842-3.063-2.842M92.625 67.14H94.3v-9.238h-1.673v9.238zm-11.762-9.238v9.238h5.629v-1.26h-3.957v-7.979h-1.672zm-9.526 2.381l1.285 3.832h-2.618l1.333-3.832zm1.682 4.996l.62 1.86h1.737l-3.424-9.237h-1.328l-3.412 9.237h1.739l.647-1.86h3.42zM84.79 39.844h-7.173V37.29h8.317V35.7h-8.317v-3.237h-3.709a.746.746 0 00-.735.755V35.7h-8.26v1.59h8.26v2.555h-6.97v1.59h13.885s-.77 2.985-4.579 6.192c-3.412-2.566-4.553-4.61-4.553-4.61h-3.725c1.507 2.595 3.649 4.673 5.955 6.321-2.119 1.368-4.866 2.686-8.418 3.741v1.904s5.48-1.027 10.777-4.127c5.305 3.076 10.632 4.127 10.632 4.127V53.18c-3.41-1.233-6.11-2.59-8.232-3.898 3.072-2.261 5.765-5.331 6.845-9.438zm23.301-7.063h-3.734v3.877h-9.204v1.56h9.204v13.938a.645.645 0 01-.603.584h-1.898v1.615h4.84a1.467 1.467 0 001.395-1.445V38.219h1.515v-1.561h-1.515V32.78zm-7.875 8.068a.832.832 0 00-.739-.47h-3.11l2.423 7.582h3.68l-2.254-7.112zm-9.189-8.251l-4.283 10.065h3.286V54.64h3.593V38.753h-1.302l2.706-6.155h-4zm41.664 21.493l-1.312-4.405a.682.682 0 00-.649-.485h-3.479l1.01 3.384h-4.091V46.03h8.032v-1.56h-8.032v-3.085h8.032v-1.56H112.16v1.56h8.03v3.085h-8.03v1.56h8.03v6.554h-8.03v1.56h20.533l-.017-.053h.016zm-16.356-17.987h11.697v2.301h4.179V35.68l-.001-.016a1.11 1.11 0 00-1.082-1.119h-6.762v-2.146h-4.373v2.146h-7.836v3.861h4.178v-2.301z" fill="#3F3B3A"/></svg>