<svg width="75" height="50" fill="none" xmlns="http://www.w3.org/2000/svg"><path d="M7.28 12a4.075 4.075 0 00-4.077 4.077v17.294a4.076 4.076 0 004.077 4.077h17.295a4.076 4.076 0 004.076-4.077v-.177c-.076-.032-6.614-2.759-9.937-4.356-2.242 2.758-5.133 4.432-8.136 4.432-5.076 0-6.8-4.443-4.397-7.368.525-.637 1.416-1.247 2.8-1.588 2.165-.531 5.61.333 8.839 1.398.58-1.07 1.07-2.248 1.433-3.503h-9.95v-1.008h5.13v-1.807H8.22v-1.008h6.215v-2.578s0-.434.44-.434h2.508v3.012h6.144v1.008h-6.144v1.807h5.015a20.516 20.516 0 01-2.123 5.364c1.522.551 2.888 1.073 3.906 1.414 3.396 1.137 4.348 1.275 4.47 1.29V16.078A4.076 4.076 0 0024.576 12H7.28zm2.79 13.788a7.19 7.19 0 00-.657.036c-.636.064-1.83.344-2.482.921-1.956 1.706-.785 4.825 3.173 4.825 2.302 0 4.6-1.472 6.407-3.827-2.329-1.137-4.334-1.98-6.44-1.955z" fill="#00A1E9"/><path d="M70.664 29.708l-1.13 2.413-1.146-2.413h-1.12l1.744 3.336v2.326h1.028v-2.326l.006-.013 1.737-3.323h-1.119zm-8.272 1.46l.797 2.348h-1.622l.825-2.348zm1.042 3.061l.384 1.14h1.077l-2.12-5.661h-.824l-2.113 5.662h1.078l.4-1.14h2.118zm-8.037-1.814h-1.144v-1.937h1.144c.575 0 .918.494.918.972 0 .468-.321.965-.918.965m.058-2.707h-2.238v5.662h1.036v-2.177h1.202c1.117 0 1.897-.717 1.897-1.743 0-1.026-.78-1.742-1.897-1.742m-7.473 5.662h1.037v-5.662h-1.037v5.662zm-7.285-5.662v5.662h3.486v-.77h-2.45v-4.89h-1.036zm-5.9 1.46l.797 2.348h-1.621l.825-2.348zm1.042 3.061l.384 1.14H37.3l-2.12-5.661h-.822l-2.114 5.662h1.077l.4-1.14h2.12zm7.291-15.588h-4.443v-1.566h5.152V16.1h-5.151v-1.984H36.39a.46.46 0 00-.455.464v1.52H30.82v.975h5.116v1.566h-4.318v.974h8.6s-.477 1.83-2.836 3.795c-2.113-1.573-2.82-2.826-2.82-2.826h-2.306c.933 1.59 2.26 2.864 3.688 3.875-1.313.838-3.014 1.646-5.214 2.293v1.167s3.394-.63 6.674-2.53c3.286 1.886 6.585 2.53 6.585 2.53v-1.105c-2.111-.756-3.784-1.587-5.098-2.389 1.903-1.386 3.57-3.268 4.239-5.785zm14.43-4.33h-2.312v2.377h-5.7v.957h5.7v8.541a.397.397 0 01-.373.359H53.7v.99h2.997a.903.903 0 00.864-.886v-9.005h.939v-.956h-.939v-2.376zm-4.876 4.945a.516.516 0 00-.458-.288H50.3l1.501 4.648h2.279l-1.396-4.36zM46.993 14.2l-2.652 6.17h2.035v7.34H48.6v-9.737h-.807l1.676-3.773h-2.477zm25.803 13.173l-.812-2.7a.422.422 0 00-.402-.296h-2.154l.625 2.073h-2.534v-4.017h4.975v-.956h-4.975v-1.891h4.975v-.956H60.08v.956h4.974v1.89H60.08v.957h4.974v4.017H60.08v.956h12.717l-.01-.033h.01zm-10.13-11.024h7.245v1.41H72.5v-1.68c0-.376-.3-.68-.67-.686h-4.19v-1.315h-2.708v1.315H60.08v2.367h2.587v-1.41z" fill="#3F3B3A"/></svg>