<svg width="60" height="40" fill="none" xmlns="http://www.w3.org/2000/svg"><path d="M9.542 11.903c-1.447 0-2.618 1.162-2.618 2.595v11.005a2.605 2.605 0 002.618 2.595h11.11c1.447 0 2.618-1.162 2.618-2.595v-.112c-.049-.02-4.248-1.756-6.383-2.773-1.44 1.756-3.297 2.821-5.226 2.821-3.26 0-4.368-2.827-2.824-4.689.337-.405.91-.793 1.798-1.01 1.39-.338 3.604.211 5.678.89a11.15 11.15 0 00.92-2.23h-6.391v-.641h3.296v-1.15h-3.992v-.642h3.992v-1.64s0-.277.282-.277h1.612v1.917h3.946v.642h-3.946v1.15h3.22a12.983 12.983 0 01-1.363 3.413c.978.35 1.855.683 2.51.9 2.181.723 2.792.812 2.871.82v-8.394c0-1.433-1.171-2.595-2.618-2.595H9.542zm1.793 8.774a4.96 4.96 0 00-.422.023c-.409.041-1.175.22-1.595.587-1.256 1.085-.504 3.07 2.039 3.07 1.478 0 2.955-.936 4.115-2.435-1.496-.724-2.784-1.26-4.137-1.245z" fill="#00A1E9"/><path d="M51.7 23.16l-.73 1.575-.74-1.575h-.723l1.126 2.177v1.518h.664v-1.518l.004-.008 1.122-2.169H51.7zm-5.342.953l.514 1.532h-1.047l.533-1.532zm.672 1.998l.248.744h.696l-1.37-3.695h-.531l-1.365 3.695h.696l.259-.744h1.367zm-5.19-1.184h-.74v-1.264h.74c.37 0 .593.322.593.634 0 .305-.208.63-.594.63m.038-1.767h-1.445v3.695h.668v-1.42h.777c.721 0 1.225-.468 1.225-1.138 0-.67-.504-1.137-1.225-1.137m-4.826 3.695h.669V23.16h-.67v3.695zm-4.706-3.695v3.695h2.252v-.503h-1.583V23.16h-.669zm-3.81.953l.514 1.532h-1.047l.533-1.532zm.673 1.998l.248.744h.695l-1.37-3.695h-.53l-1.366 3.695h.696l.259-.744h1.368zm4.709-10.174h-2.87v-1.021h3.327v-.637h-3.327v-1.294h-1.483a.298.298 0 00-.294.302v.992h-3.304v.636h3.304v1.022h-2.788v.636h5.554s-.308 1.194-1.832 2.477c-1.364-1.027-1.82-1.844-1.82-1.844h-1.49c.602 1.038 1.459 1.87 2.381 2.529-.847.547-1.946 1.074-3.367 1.496v.761s2.192-.41 4.31-1.65c2.123 1.23 4.254 1.65 4.254 1.65v-.72c-1.364-.494-2.445-1.036-3.293-1.56 1.229-.904 2.306-2.132 2.738-3.775zm9.32-2.825h-1.494v1.55h-3.68v.625h3.68v5.575a.258.258 0 01-.24.234h-.76v.646h1.936a.586.586 0 00.558-.579v-5.876h.606v-.624h-.606v-1.55zm-3.15 3.227a.333.333 0 00-.295-.188h-1.245l.97 3.033h1.472l-.902-2.845zm-3.675-3.3l-1.713 4.026h1.314v4.79h1.437v-6.354h-.52l1.081-2.462h-1.6zm16.665 8.597l-.525-1.762a.273.273 0 00-.259-.194h-1.392l.404 1.354H49.67v-2.622h3.213v-.624H49.67v-1.235h3.213v-.623h-8.018v.623h3.213v1.235h-3.213v.623h3.213v2.622h-3.213v.624h8.214l-.007-.021h.006zm-6.542-7.195h4.679v.92h1.671v-1.096a.444.444 0 00-.433-.448h-2.705v-.858h-1.749v.858h-3.134v1.545h1.67v-.92z" fill="#3F3B3A"/></svg>