<svg width="60" height="40" fill="none" xmlns="http://www.w3.org/2000/svg"><path d="M16.634 6.667H43.3v14.396l-1.32 2.062 1.32 1.835v8.374H16.634v-13.57l.825-.95-.825-.907V6.667z" fill="#016FD0"/><path d="M21.81 25.249v-4.187h4.433l.476.62.491-.62H43.3v3.898s-.42.285-.907.289h-8.91l-.536-.66v.66H31.19v-1.127s-.24.157-.759.157h-.598v.97h-2.66l-.475-.633-.483.633H21.81zm-5.176-7.342l1-2.33h1.728l.568 1.305v-1.306h2.148l.338.944.328-.944h9.646v.474s.508-.474 1.341-.474l3.13.011.558 1.288v-1.299h1.798l.495.74v-.74h1.815v4.187h-1.815l-.475-.743v.743h-2.642l-.265-.66h-.71l-.262.66h-1.792a1.771 1.771 0 01-1.176-.465v.465h-2.7l-.537-.66v.66H19.107l-.266-.66h-.708l-.263.66h-1.235v-1.856z" fill="#fff"/><path d="M17.987 16.092l-1.348 3.135h.878l.248-.628h1.447l.247.628h.897l-1.347-3.135h-1.022zm.499.73l.44 1.097h-.882l.442-1.097zm1.963 2.405v-3.135l1.247.004.726 2.022.708-2.026h1.238v3.135h-.784v-2.31l-.831 2.31h-.687l-.833-2.31v2.31h-.784zm4.455 0v-3.135h2.557v.701h-1.765v.536h1.724v.66h-1.724v.557h1.765v.68h-2.557zm3.01-3.135v3.135h.784v-1.114h.33l.94 1.114h.958l-1.031-1.155a.955.955 0 00.86-.963c0-.66-.518-1.017-1.096-1.017h-1.744zm.784.702h.896c.215 0 .371.168.371.33 0 .208-.202.33-.36.33h-.907v-.66zm3.177 2.433h-.8v-3.135h.8v3.135zm1.897 0h-.173c-.835 0-1.343-.659-1.343-1.555 0-.918.502-1.58 1.557-1.58h.866v.742h-.898c-.428 0-.73.335-.73.846 0 .607.346.862.845.862h.206l-.33.685zm1.705-3.135l-1.348 3.135h.878l.249-.628h1.446l.247.628h.897L36.5 16.092h-1.022zm.5.73l.44 1.097h-.883l.442-1.097zm1.961 2.405v-3.135h.996l1.273 1.97v-1.97h.783v3.135h-.964l-1.304-2.021v2.02h-.784zm-15.592 5.486v-3.135h2.558v.7h-1.766v.537h1.724v.66h-1.724v.557h1.766v.68h-2.558zm12.531 0v-3.135h2.558v.7h-1.766v.537h1.716v.66H35.67v.557h1.766v.68h-2.558zm-9.874 0l1.245-1.549-1.275-1.586h.988l.759.98.762-.98h.948l-1.258 1.567 1.248 1.568h-.987l-.738-.966-.719.966h-.973zm3.51-3.135v3.135h.804v-.99h.825c.698 0 1.227-.37 1.227-1.09 0-.597-.415-1.055-1.125-1.055h-1.731zm.804.71h.869c.226 0 .387.137.387.36 0 .21-.16.361-.39.361h-.866v-.722zm2.393-.71v3.135h.783v-1.114h.33l.94 1.114h.958l-1.031-1.155a.955.955 0 00.86-.963c0-.66-.519-1.017-1.096-1.017H31.71zm.783.7h.896c.215 0 .371.169.371.33 0 .21-.202.33-.36.33h-.907v-.66zm5.305 2.435v-.681h1.568c.232 0 .333-.125.333-.263 0-.132-.1-.265-.333-.265h-.709c-.616 0-.959-.375-.959-.939 0-.503.314-.987 1.23-.987h1.526l-.33.705h-1.32c-.252 0-.33.133-.33.259 0 .13.096.273.289.273h.742c.687 0 .985.39.985.9 0 .548-.332.998-1.022.998h-1.67zm2.876 0v-.681h1.569c.232 0 .332-.125.332-.263 0-.132-.1-.265-.333-.265h-.708c-.616 0-.96-.375-.96-.939 0-.503.315-.987 1.23-.987h1.526l-.33.705h-1.32c-.252 0-.33.133-.33.259 0 .13.096.273.29.273h.742c.687 0 .985.39.985.9 0 .548-.332.998-1.023.998h-1.67z" fill="#016FD0"/></svg>