<svg width="53" height="35" viewBox="0 0 53 35" fill="none" xmlns="http://www.w3.org/2000/svg">
<path d="M14 5.25H38.5V18.4759L37.2873 20.3706L38.5 22.057V29.75H14V17.2821L14.758 16.4105L14 15.5768V5.25Z" fill="#016FD0"/>
<path d="M18.756 22.3213V18.4748H22.8287L23.2657 19.0444L23.7171 18.4748H38.5V22.0561C38.5 22.0561 38.1134 22.3174 37.6663 22.3213H29.4806L28.988 21.7149V22.3213H27.3736V21.2863C27.3736 21.2863 27.1531 21.4307 26.6764 21.4307H26.1269V22.3213H23.6825L23.2462 21.7394L22.8031 22.3213H18.756ZM14 15.5757L14.9184 13.4346H16.5067L17.0279 14.634V13.4346H19.0023L19.3126 14.3014L19.6134 13.4346H28.4764V13.8704C28.4764 13.8704 28.9423 13.4346 29.7081 13.4346L32.5837 13.4447L33.096 14.6283V13.4346H34.7483L35.203 14.1145V13.4346H36.8705V17.2811H35.203L34.7672 16.5989V17.281H32.3397L32.0955 16.6747H31.4429L31.2027 17.281H29.5564C28.8976 17.281 28.4764 16.8541 28.4764 16.8541V17.281H25.9941L25.5016 16.6747V17.2811H16.2714L16.0275 16.6747H15.3769L15.1347 17.281H14V15.5757Z" fill="white"/>
<path d="M15.2426 13.9097L14.0039 16.7898H14.8104L15.0389 16.2131H16.3677L16.5951 16.7898H17.4193L16.1817 13.9097H15.2426ZM15.701 14.5799L16.1059 15.5878H15.2948L15.701 14.5799ZM17.5046 16.7893V13.9092L18.6506 13.9134L19.3172 15.7703L19.9678 13.9092H21.1047V16.7893H20.3847V14.6671L19.6215 16.7893H18.99L18.2246 14.6671V16.7893H17.5046ZM21.5974 16.7893V13.9092H23.947V14.5535H22.325V15.046H23.909V15.6525H22.325V16.164H23.947V16.7893H21.5974ZM24.3638 13.9097V16.7898H25.0839V15.7666H25.387L26.2503 16.7898H27.1302L26.1829 15.7287C26.5716 15.6959 26.9727 15.3622 26.9727 14.844C26.9727 14.238 26.497 13.9097 25.9661 13.9097H24.3638ZM25.0839 14.554H25.9069C26.1044 14.554 26.248 14.7084 26.248 14.857C26.248 15.0484 26.0619 15.1603 25.9176 15.1603H25.0839V14.554ZM28.0019 16.7893H27.2667V13.9092H28.0019V16.7893ZM29.7451 16.7893H29.5864C28.8186 16.7893 28.3524 16.1844 28.3524 15.3611C28.3524 14.5175 28.8134 13.9092 29.783 13.9092H30.5788V14.5913H29.7539C29.3603 14.5913 29.0819 14.8985 29.0819 15.3682C29.0819 15.9259 29.4003 16.1602 29.8588 16.1602H30.0483L29.7451 16.7893ZM31.3119 13.9097L30.0732 16.7898H30.8796L31.1082 16.2131H32.4369L32.6643 16.7898H33.4885L32.251 13.9097H31.3119ZM31.7702 14.5799L32.1752 15.5878H31.364L31.7702 14.5799ZM33.5726 16.7893V13.9092H34.4881L35.6569 15.7187V13.9092H36.377V16.7893H35.4911L34.2926 14.9324V16.7893H33.5726ZM19.2478 21.8295V18.9494H21.5974V19.5937H19.9754V20.0863H21.5595V20.6927H19.9754V21.2042H21.5974V21.8295H19.2478ZM30.7607 21.8295V18.9494H33.1103V19.5937H31.4884V20.0863H33.0648V20.6927H31.4883V21.2042H33.1103V21.8295H30.7607ZM21.6886 21.8295L22.8326 20.4072L21.6613 18.9494H22.5685L23.266 19.8506L23.966 18.9494H24.8376L23.6818 20.3894L24.8278 21.8295H23.9208L23.2436 20.9425L22.5827 21.8295H21.6886ZM24.9133 18.9499V21.83H25.6523V20.9205H26.4102C27.0516 20.9205 27.5376 20.5802 27.5376 19.9186C27.5376 19.3705 27.1564 18.9499 26.5038 18.9499H24.9133ZM25.6523 19.6012H26.4505C26.6577 19.6012 26.8058 19.7282 26.8058 19.9328C26.8058 20.125 26.6584 20.2644 26.4482 20.2644H25.6523V19.6012ZM27.8503 18.9494V21.8295H28.5703V20.8063H28.8735L29.7368 21.8295H30.6167L29.6693 20.7684C30.0581 20.7356 30.4592 20.4019 30.4592 19.8837C30.4592 19.2777 29.9835 18.9494 29.4526 18.9494H27.8503ZM28.5703 19.5937H29.3934C29.5908 19.5937 29.7344 19.7481 29.7344 19.8968C29.7344 20.0881 29.5484 20.1999 29.404 20.1999H28.5703V19.5937ZM33.4438 21.8295V21.2042H34.8848C35.098 21.2042 35.1903 21.089 35.1903 20.9627C35.1903 20.8416 35.0983 20.7192 34.8848 20.7192H34.2336C33.6676 20.7192 33.3524 20.3743 33.3524 19.8566C33.3524 19.3947 33.641 18.9494 34.4822 18.9494H35.8843L35.5811 19.5974H34.3684C34.1367 19.5974 34.0653 19.719 34.0653 19.8352C34.0653 19.9546 34.1535 20.0863 34.3306 20.0863H35.0127C35.6436 20.0863 35.9175 20.4442 35.9175 20.9129C35.9175 21.4168 35.6123 21.8295 34.9784 21.8295H33.4438ZM36.0865 21.8295V21.2042H37.5275C37.7407 21.2042 37.833 21.089 37.833 20.9627C37.833 20.8416 37.741 20.7192 37.5275 20.7192H36.8763C36.3102 20.7192 35.995 20.3743 35.995 19.8566C35.995 19.3947 36.2837 18.9494 37.1248 18.9494H38.527L38.2238 19.5974H37.0112C36.7793 19.5974 36.708 19.719 36.708 19.8352C36.708 19.9546 36.7961 20.0863 36.9732 20.0863H37.6554C38.2863 20.0863 38.5602 20.4442 38.5602 20.9129C38.5602 21.4168 38.2551 21.8295 37.6211 21.8295H36.0865Z" fill="#016FD0"/>
</svg>
