<svg width="150" height="100" fill="none" xmlns="http://www.w3.org/2000/svg"><path d="M41.586 16.668h66.667v35.989l-3.3 5.156 3.3 4.588v20.934H41.586V49.408l2.062-2.371-2.062-2.269v-28.1z" fill="#016FD0"/><path d="M54.527 63.122V52.655H65.61l1.189 1.55 1.228-1.55h40.226V62.4s-1.052.712-2.269.722H83.71l-1.34-1.65v1.65h-4.393v-2.816s-.6.393-1.898.393h-1.495v2.423h-6.651l-1.187-1.583-1.206 1.583H54.527zM41.586 44.767l2.499-5.827h4.322l1.418 3.264V38.94h5.373l.844 2.36.819-2.36h24.117v1.186s1.267-1.186 3.35-1.186l7.826.028 1.394 3.22V38.94h4.496l1.237 1.85v-1.85h4.537v10.467h-4.537l-1.186-1.856v1.856H91.49l-.665-1.65H89.05l-.654 1.65h-4.48c-1.792 0-2.938-1.162-2.938-1.162v1.162h-6.755l-1.34-1.65v1.65H47.767l-.664-1.65h-1.77l-.66 1.65h-3.087v-4.64z" fill="#fff"/><path d="M44.965 40.23l-3.371 7.838h2.194l.622-1.57h3.616l.618 1.57h2.243L47.52 40.23h-2.556zm1.246 1.825l1.103 2.742h-2.208l1.105-2.742zm4.908 6.012V40.23l3.119.011 1.814 5.053 1.77-5.064h3.094v7.837h-1.96v-5.775l-2.076 5.775h-1.72l-2.082-5.775v5.775h-1.96zm11.137 0V40.23h6.394v1.753h-4.414v1.34h4.31v1.65h-4.31v1.392h4.414v1.702h-6.394zm7.528-7.836v7.837h1.96v-2.784h.824l2.35 2.784h2.394l-2.578-2.887a2.387 2.387 0 002.15-2.408c0-1.649-1.295-2.542-2.74-2.542h-4.36zm1.96 1.753h2.239c.537 0 .928.42.928.825 0 .52-.507.825-.9.825h-2.268v-1.65zm7.94 6.083h-2.001V40.23h2v7.837zm4.743 0h-.432c-2.09 0-3.358-1.647-3.358-3.887 0-2.295 1.255-3.95 3.893-3.95h2.165v1.856h-2.244c-1.071 0-1.829.836-1.829 2.114 0 1.517.867 2.155 2.114 2.155h.516l-.825 1.712zm4.263-7.836l-3.37 7.837h2.194l.622-1.57h3.616l.618 1.57h2.243l-3.367-7.837H88.69zm1.247 1.824l1.102 2.742h-2.207l1.105-2.742zm4.905 6.012V40.23h2.49l3.182 4.924v-4.925h1.959v7.838h-2.411l-3.26-5.053v5.053h-1.96zM55.862 61.78v-7.837h6.394v1.753h-4.413v1.341h4.31v1.65h-4.31v1.392h4.413v1.701h-6.393zm31.329 0v-7.837h6.393v1.753H89.17v1.341h4.29v1.65h-4.29v1.392h4.414v1.701H87.19zm-24.687 0l3.113-3.87-3.187-3.967h2.47l1.898 2.453 1.904-2.453h2.372l-3.145 3.919 3.118 3.918h-2.468l-1.842-2.413-1.799 2.413h-2.433zm8.775-7.835v7.837h2.011v-2.475h2.062c1.745 0 3.068-.926 3.068-2.726 0-1.492-1.037-2.636-2.813-2.636h-4.328zm2.011 1.772h2.172c.564 0 .967.346.967.902 0 .523-.401.903-.973.903H73.29v-1.805zm5.981-1.774v7.837h1.96v-2.784h.824l2.35 2.784h2.394l-2.578-2.887a2.387 2.387 0 002.15-2.407c0-1.65-1.295-2.543-2.74-2.543h-4.36zm1.96 1.753h2.239c.537 0 .928.42.928.825 0 .521-.506.825-.9.825H81.23v-1.65zm13.26 6.084v-1.7h3.921c.58 0 .832-.314.832-.657 0-.33-.25-.663-.832-.663h-1.771c-1.54 0-2.398-.938-2.398-2.347 0-1.257.785-2.469 3.074-2.469h3.815l-.825 1.764h-3.3c-.63 0-.824.33-.824.647 0 .325.24.683.721.683h1.856c1.717 0 2.462.974 2.462 2.25 0 1.37-.83 2.493-2.555 2.493h-4.176zm7.191 0v-1.7h3.921c.581 0 .832-.314.832-.657 0-.33-.251-.663-.832-.663h-1.771c-1.541 0-2.398-.938-2.398-2.347 0-1.257.785-2.469 3.074-2.469h3.815l-.825 1.764h-3.3c-.63 0-.825.33-.825.647 0 .325.24.683.722.683h1.856c1.717 0 2.462.974 2.462 2.25 0 1.37-.83 2.493-2.555 2.493h-4.176z" fill="#016FD0"/></svg>