<svg width="24" height="24" viewBox="0 0 24 24" fill="none" xmlns="http://www.w3.org/2000/svg">
<g id="ant-design:fire-filled">
<path id="Vector" d="M19.278 10.4562C18.8092 9.38176 18.1277 8.41742 17.2761 7.62349L16.5734 6.96695C16.5496 6.94527 16.5208 6.92989 16.4898 6.92214C16.4587 6.9144 16.4263 6.91455 16.3953 6.92256C16.3643 6.93057 16.3357 6.94621 16.312 6.96809C16.2884 6.98998 16.2703 7.01745 16.2595 7.0481L15.9456 7.96528C15.75 8.54067 15.3902 9.12835 14.8807 9.7062C14.8469 9.74308 14.8082 9.75292 14.7817 9.75538C14.7551 9.75784 14.7141 9.75292 14.6778 9.71849C14.644 9.68899 14.6271 9.64472 14.6295 9.60046C14.7189 8.12019 14.2842 6.45058 13.3328 4.63343C12.5456 3.12365 11.4517 1.94582 10.0849 1.12454L9.08764 0.527019C8.95724 0.448333 8.79062 0.551608 8.79786 0.706521L8.85099 1.88681C8.88721 2.69333 8.79545 3.40642 8.57812 3.99903C8.31249 4.72441 7.93096 5.39816 7.44318 6.00305C7.10372 6.42344 6.71897 6.80368 6.29616 7.13662C5.27787 7.93372 4.44986 8.95508 3.87415 10.1242C3.29985 11.3035 3.0007 12.602 3 13.9183C3 15.079 3.22457 16.2027 3.66889 17.2625C4.09791 18.2829 4.71704 19.2089 5.49204 19.9894C6.27443 20.7763 7.18238 21.3959 8.19417 21.8263C9.24218 22.2738 10.353 22.5 11.5 22.5C12.647 22.5 13.7578 22.2738 14.8058 21.8287C15.8151 21.4009 16.7329 20.777 17.5079 19.9919C18.2903 19.205 18.9037 18.2854 19.3311 17.2649C19.7747 16.208 20.0023 15.0702 20 13.9208C20 12.7208 19.7585 11.5553 19.278 10.4562Z" fill="#FF8201"/>
</g>
</svg>
