<svg width="60" height="40" fill="none" xmlns="http://www.w3.org/2000/svg"><path d="M15.356 12.968c-.54.64-1.406 1.145-2.272 1.072-.108-.865.316-1.785.812-2.353.54-.658 1.487-1.127 2.254-1.163.09.902-.262 1.786-.794 2.444zm.785 1.244c-1.253-.072-2.326.712-2.921.712-.604 0-1.515-.676-2.507-.658-1.289.018-2.488.748-3.146 1.911-1.352 2.326-.352 5.77.956 7.663.64.938 1.406 1.966 2.416 1.93.955-.037 1.334-.622 2.488-.622 1.163 0 1.497.622 2.506.604 1.046-.018 1.704-.938 2.344-1.876.73-1.064 1.028-2.1 1.046-2.154-.018-.018-2.02-.785-2.037-3.093-.018-1.929 1.577-2.849 1.65-2.903-.902-1.334-2.308-1.478-2.795-1.514zm7.239-2.615v14.055h2.182v-4.805h3.02c2.759 0 4.697-1.893 4.697-4.634 0-2.74-1.902-4.616-4.625-4.616H23.38zm2.182 1.84h2.515c1.893 0 2.975 1.01 2.975 2.785 0 1.776-1.082 2.795-2.984 2.795h-2.506v-5.58zM37.264 25.76c1.37 0 2.641-.695 3.218-1.794h.046v1.685h2.019v-6.996c0-2.028-1.623-3.335-4.12-3.335-2.317 0-4.03 1.325-4.093 3.146h1.965c.163-.865.965-1.433 2.065-1.433 1.334 0 2.082.622 2.082 1.767v.775l-2.722.162c-2.534.154-3.904 1.19-3.904 2.993 0 1.821 1.415 3.03 3.444 3.03zm.586-1.668c-1.163 0-1.902-.56-1.902-1.416 0-.883.712-1.397 2.073-1.478l2.425-.154v.794c0 1.316-1.118 2.254-2.596 2.254zm7.392 5.382c2.128 0 3.129-.812 4.003-3.273l3.832-10.746h-2.218l-2.57 8.303h-.044l-2.57-8.303h-2.28l3.696 10.232-.199.623c-.333 1.054-.874 1.46-1.839 1.46-.171 0-.505-.018-.64-.036v1.686c.126.036.667.054.83.054z" fill="#000"/></svg>