<svg width="24" height="24" viewBox="0 0 24 24" fill="none" xmlns="http://www.w3.org/2000/svg">
<path d="M6.125 4.25C5.62772 4.25 5.15081 4.44754 4.79917 4.79917C4.44754 5.15081 4.25 5.62772 4.25 6.125V17.875C4.25 18.3723 4.44754 18.8492 4.79917 19.2008C5.15081 19.5525 5.62772 19.75 6.125 19.75H17.875C18.3723 19.75 18.8492 19.5525 19.2008 19.2008C19.5525 18.8492 19.75 18.3723 19.75 17.875V13.625C19.75 13.4592 19.8158 13.3003 19.9331 13.1831C20.0503 13.0658 20.2092 13 20.375 13C20.5408 13 20.6997 13.0658 20.8169 13.1831C20.9342 13.3003 21 13.4592 21 13.625V17.875C21 18.7038 20.6708 19.4987 20.0847 20.0847C19.4987 20.6708 18.7038 21 17.875 21H6.125C5.2962 21 4.50134 20.6708 3.91529 20.0847C3.32924 19.4987 3 18.7038 3 17.875V6.125C3 5.2962 3.32924 4.50134 3.91529 3.91529C4.50134 3.32924 5.2962 3 6.125 3H10.375C10.5408 3 10.6997 3.06585 10.8169 3.18306C10.9342 3.30027 11 3.45924 11 3.625C11 3.79076 10.9342 3.94973 10.8169 4.06694C10.6997 4.18415 10.5408 4.25 10.375 4.25H6.125ZM13.5 3.625C13.5 3.28 13.78 3 14.125 3H20.375C20.72 3 21 3.28 21 3.625V9.875C21 10.0408 20.9342 10.1997 20.8169 10.3169C20.6997 10.4342 20.5408 10.5 20.375 10.5C20.2092 10.5 20.0503 10.4342 19.9331 10.3169C19.8158 10.1997 19.75 10.0408 19.75 9.875V5.134L14.567 10.317C14.4498 10.4342 14.2908 10.5001 14.125 10.5001C13.9592 10.5001 13.8002 10.4342 13.683 10.317C13.5658 10.1998 13.4999 10.0408 13.4999 9.875C13.4999 9.70922 13.5658 9.55023 13.683 9.433L18.866 4.25H14.125C13.78 4.25 13.5 3.97 13.5 3.625Z" fill="#333333"/>
</svg>
