<svg width="60" height="60" fill="none" xmlns="http://www.w3.org/2000/svg"><g clip-path="url(#clip0_1541_19262)"><path d="M30 0a30 30 0 1030 30A30.033 30.033 0 0030 0zM12.261 51.126a20.4 20.4 0 0135.478 0 27.54 27.54 0 01-35.478 0zm37.29-1.665a22.683 22.683 0 00-13.353-10.2 13.2 13.2 0 10-12.396 0 22.683 22.683 0 00-13.353 10.2 27.6 27.6 0 1139.102 0zM30 38.4a10.8 10.8 0 110-21.6 10.8 10.8 0 010 21.6z" fill="#fff"/><path d="M49.551 49.461a22.683 22.683 0 00-13.353-10.2 13.2 13.2 0 10-12.396 0 22.683 22.683 0 00-13.353 10.2 27.6 27.6 0 1139.102 0z" fill="#A3A3A3"/><path d="M12.261 51.126a20.4 20.4 0 0135.478 0 27.54 27.54 0 01-35.478 0z" fill="#A3A3A3"/><path d="M30 38.4a10.8 10.8 0 110-21.6 10.8 10.8 0 010 21.6z" fill="#A3A3A3"/></g><defs><clipPath id="clip0_1541_19262"><path fill="#fff" d="M0 0h60v60H0z"/></clipPath></defs></svg>