<svg width="80" height="81" fill="none" xmlns="http://www.w3.org/2000/svg"><path d="M74.268 21.23l-15-15a2.501 2.501 0 10-3.537 3.538l5.734 5.731-8.966 8.966-10.73-10.734a2.502 2.502 0 10-3.538 3.537l1.984 1.981-26.25 26.25a4.956 4.956 0 00-1.466 3.535v15.431l-6.768 6.766a2.501 2.501 0 103.537 3.537L16.034 68h15.431A4.957 4.957 0 0035 66.534l26.25-26.25 1.982 1.984a2.5 2.5 0 103.537-3.537L56.034 27.999l8.965-8.965 5.732 5.734a2.501 2.501 0 003.537-3.537zM31.465 63H17.5V49.033l5.625-5.625 6.357 6.36a2.5 2.5 0 103.537-3.538l-6.36-6.357 3.966-3.965 6.357 6.36a2.501 2.501 0 003.537-3.538l-6.36-6.357 9.591-9.59 13.966 13.965L31.465 63z" fill="#333"/></svg>