<svg width="80" height="75" fill="none" xmlns="http://www.w3.org/2000/svg"><path d="M13.39 54.47a5 5 0 011.435 4.005 54.848 54.848 0 01-1.99 10c6.975-1.615 11.235-3.485 13.17-4.465a5 5 0 013.55-.37A40.3 40.3 0 0040 65c19.98 0 35-14.035 35-30C75 19.04 59.98 5 40 5S5 19.04 5 35c0 7.34 3.085 14.15 8.39 19.47zm-2.465 19.525c-1.185.235-2.373.45-3.565.645-1 .16-1.76-.88-1.365-1.81.444-1.047.85-2.11 1.22-3.185l.015-.05c1.24-3.6 2.25-7.74 2.62-11.595C3.715 51.85 0 43.8 0 35 0 15.67 17.91 0 40 0s40 15.67 40 35-17.91 35-40 35a45.3 45.3 0 01-11.735-1.53c-2.6 1.315-8.195 3.71-17.34 5.525z" fill="#333"/><path d="M20 22.5a2.5 2.5 0 012.5-2.5h35a2.5 2.5 0 010 5h-35a2.5 2.5 0 01-2.5-2.5zM20 35a2.5 2.5 0 012.5-2.5h35a2.5 2.5 0 010 5h-35A2.5 2.5 0 0120 35zm0 12.5a2.5 2.5 0 012.5-2.5h20a2.5 2.5 0 010 5h-20a2.5 2.5 0 01-2.5-2.5z" fill="#333"/></svg>