<svg width="72" height="73" fill="none" xmlns="http://www.w3.org/2000/svg"><path fill-rule="evenodd" clip-rule="evenodd" d="M46.1 1.4a2.5 2.5 0 010 3.532 35.259 35.259 0 00-3.733 4.4l4.024 4.024a2.5 2.5 0 01-3.533 3.533l-3.16-3.16a32.632 32.632 0 00-1.784 4.22l16.264 16.26c.12.12.227.252.32.393a32.411 32.411 0 004.023-1.673L48.494 22.9a2.502 2.502 0 01-.063-3.597 2.501 2.501 0 013.597.064l10.92 10.916a34.81 34.81 0 004.62-3.886 2.498 2.498 0 014.328 1.748 2.499 2.499 0 01-.795 1.785c-8.74 8.743-20.88 12.847-31.853 10.71 2.5 10.583-1.334 22.48-9.814 30.957a2.5 2.5 0 11-3.533-3.534 32.607 32.607 0 003.86-4.65l-4.514-4.51a2.499 2.499 0 113.537-3.533l3.544 3.54a30.495 30.495 0 001.543-4.093 2.441 2.441 0 01-.16-.147L17.668 38.632a29.72 29.72 0 00-4.34 1.664l9.436 9.433a2.5 2.5 0 01-3.533 3.54L8.858 42.892A33.2 33.2 0 004.43 46.6a2.5 2.5 0 01-3.533-3.533c8.476-8.48 20.373-12.314 30.956-9.814C29.721 22.28 33.821 10.14 42.564 1.4a2.5 2.5 0 013.537 0zm2.734 34.54l-12.27-12.274c-.53 3.9-.243 7.78.904 11.373 3.593 1.147 7.473 1.433 11.373.903l-.007-.003zm-15.067 3.74c.997 2.89 1.377 6 1.177 9.156l-11.28-11.28c3.157-.2 6.267.18 9.157 1.176l.707.24.24.707z" fill="#333"/></svg>