<svg width="80" height="81" fill="none" xmlns="http://www.w3.org/2000/svg"><path d="M43.389 4.125c-.828.86-1.688 1.563-2.39 1.969-1.36.797-2.422 1.937-2.891 3.125-.531 1.312-.5 3.5.031 4.797.5 1.203 1.172 1.703 2.094 1.578 1.265-.156 1.828-1.422 1.25-2.797a2.967 2.967 0 01.062-2.39c.235-.516.516-.782 1.516-1.36.687-.406 1.469-.922 1.734-1.14l.516-.407.156.438c.297.78.36 1.734.156 2.578-.328 1.359-1 2.25-2.359 3.156-.89.594-1.234 1.078-1.234 1.765 0 .907.859 1.782 1.75 1.782.547 0 1.875-.735 2.797-1.532 1.75-1.546 2.703-3.734 2.703-6.203-.016-2.25-.672-3.921-2.22-5.562-.796-.86-.968-.953-1.64-1.031l-.75-.094-1.281 1.328zm-6.593 12.453a2.634 2.634 0 00-1.672 1.25l-.36.563-.046 9.406-.047 9.422h-9.563c-5.265.015-10.03.078-10.609.14-2.86.375-5.234 2.563-5.75 5.313-.094.516-.156 5.422-.156 12.937 0 9.532-.047 12.094-.203 12.157a7.392 7.392 0 01-.75.14c-.781.14-1.922 1.156-2.25 2.016-.203.562-.25 1.156-.203 3.187.046 2.516.046 2.532.515 3.204a3.5 3.5 0 001.313 1.093l.86.438h31.718c22.5 0 31.922-.047 32.36-.172.406-.11.89-.438 1.359-.922.922-.969 1.109-1.781 1.03-4.516-.046-1.625-.108-2.078-.39-2.593-.547-1.032-1.39-1.641-2.578-1.86l-.594-.11v-12.39c0-13.328.016-13.14-.812-14.593-.453-.797-1.64-2-2.438-2.47-1.562-.921-1.234-.906-12.484-.952l-10.36-.063v-8.047c0-5.64-.046-8.156-.171-8.39-.39-.75-1.11-1.282-3.578-2.688-2.594-1.453-3.266-1.703-4.141-1.5zm3.25 5.094l1.047.61v3.093l-.578-.344c-.328-.187-.969-.562-1.407-.812l-.828-.469v-3.125l.36.219c.187.125.812.5 1.406.828zm-.188 5.406l1.391.797v2.016c0 1.515-.047 2.015-.187 2.015-.11-.015-.766-.343-1.453-.75l-1.25-.75-.047-2.062c-.016-1.14 0-2.063.062-2.063.063 0 .734.36 1.484.797zm.813 7.125l.578.36v2.656H38.28v-4.391l.907.5a81.98 81.98 0 011.484.875zm24.172 6.781c.89.203 1.64.766 2.031 1.547.266.532.313.922.313 2.782v2.171l-.703.282c-1.047.39-2.032 1.25-3.485 3.015-1.766 2.14-2.828 2.625-4.375 1.985-.766-.328-1.094-.657-2.516-2.5-1.515-1.938-2.265-2.641-3.593-3.266-.953-.453-1.157-.484-2.594-.469-2.688.016-3.813.672-6.266 3.672-.89 1.094-1.875 2.14-2.187 2.328-1.078.688-2.516.563-3.516-.281-.265-.219-1.11-1.219-1.86-2.219-1.437-1.89-2.265-2.61-3.75-3.187-1.062-.422-2.874-.5-3.983-.172-1.688.484-2.438 1.062-4.266 3.266-2.328 2.796-2.86 3.203-4.156 3.218-1.11 0-1.829-.5-3.438-2.422-1.672-1.984-2.125-2.375-3.422-2.968l-.89-.407v-2.062c0-1.766.046-2.14.328-2.734.36-.735 1.218-1.391 2.047-1.594.812-.188 49.453-.172 50.28.015zm-33.219 9.5c.328.22 1.172 1.157 1.985 2.22 2.265 3 3.562 3.796 6.234 3.796 2.469 0 3.719-.656 5.656-2.984 2.5-2.985 3.11-3.485 4.344-3.485 1.219 0 1.906.485 3.422 2.485.765 1 1.672 2.078 2.015 2.39 1.797 1.625 4.438 2.094 6.782 1.219 1.25-.469 2.109-1.188 3.64-3.047.75-.906 1.375-1.64 1.422-1.64.031 0 .063 3.656.063 8.124v8.126h-55v-8.141c0-7.438.015-8.125.25-7.938.14.11.843.922 1.578 1.797 2.093 2.547 3.343 3.235 5.828 3.25 2.656.032 3.797-.656 6.406-3.765 2.11-2.516 2.625-2.891 3.922-2.813.547.031 1.063.172 1.453.406zM70.78 72.766v1.484H8.75v-2.969h62.03v1.485z" fill="#333"/></svg>