<svg width="80" height="81" fill="none" xmlns="http://www.w3.org/2000/svg"><path d="M42.623 19.858a2.5 2.5 0 011.543 2.31V35.5a2.5 2.5 0 11-5 0v-7.3l-.733.733a2.5 2.5 0 11-3.534-3.533l5-5a2.5 2.5 0 012.724-.543z" fill="#333"/><path fill-rule="evenodd" clip-rule="evenodd" d="M24.993 5.857a90.409 90.409 0 0115.006-1.19c6.094 0 11.13.536 15.007 1.19l.45.076c3.367.564 6.167 1.034 8.353 3.727 1.404 1.73 1.857 3.6 1.96 5.684l1.64.546c1.544.514 2.9.967 3.97 1.467 1.16.54 2.224 1.233 3.037 2.363.813 1.127 1.137 2.357 1.283 3.627.134 1.176.134 2.6.134 4.233v.48c0 1.34 0 2.524-.1 3.514-.107 1.07-.344 2.113-.934 3.12-.596 1.01-1.393 1.723-2.276 2.336-.817.567-1.85 1.143-3.024 1.794l-8.8 4.89c-1.8 3.536-4.266 6.69-7.666 8.966-2.917 1.957-6.407 3.197-10.534 3.55V63h4.767a5.833 5.833 0 015.72 4.69l.73 3.644h6.283a2.5 2.5 0 110 5H20a2.5 2.5 0 110-5h6.284l.73-3.644a5.833 5.833 0 015.72-4.69H37.5v-6.77c-4.126-.353-7.616-1.593-10.533-3.546-3.397-2.28-5.867-5.434-7.667-8.97l-8.8-4.89a37.192 37.192 0 01-3.023-1.794 7.39 7.39 0 01-2.273-2.333 7.373 7.373 0 01-.937-3.124c-.1-.99-.1-2.173-.1-3.513v-.483c0-1.627 0-3.054.133-4.23.147-1.27.467-2.5 1.284-3.627.813-1.13 1.876-1.823 3.033-2.366 1.077-.5 2.43-.95 3.973-1.464l1.64-.546c.104-2.087.557-3.954 1.96-5.684 2.19-2.697 4.987-3.167 8.357-3.727l.447-.076zm6.39 65.477h17.233l-.533-2.664a.834.834 0 00-.817-.67H32.733a.834.834 0 00-.817.67l-.533 2.663zM14.339 20.577c.24 5.066.81 10.666 2.237 15.9l-3.553-1.97c-1.297-.724-2.11-1.177-2.697-1.584-.54-.376-.717-.6-.813-.766-.1-.167-.207-.427-.274-1.08a35.263 35.263 0 01-.073-3.127v-.243c0-1.797.003-2.934.1-3.794.093-.793.24-1.09.373-1.27.13-.183.364-.416 1.087-.753.787-.367 1.867-.73 3.567-1.3l.046-.013zm49.084 15.9l3.553-1.97c1.297-.724 2.11-1.177 2.697-1.584.54-.376.716-.6.813-.766.1-.167.207-.427.273-1.08.07-.714.074-1.644.074-3.127v-.243c0-1.797-.004-2.934-.1-3.794-.094-.793-.24-1.09-.374-1.27-.13-.183-.363-.416-1.086-.753-.787-.367-1.867-.73-3.567-1.3l-.047-.013c-.236 5.066-.813 10.666-2.236 15.9zM39.999 9.667c-5.8 0-10.556.51-14.173 1.12-4.023.68-4.867.933-5.753 2.026-.874 1.074-.957 2.094-.78 6.61.3 7.527 1.293 15.654 4.366 21.834 1.52 3.047 3.507 5.54 6.094 7.273 2.566 1.724 5.883 2.803 10.246 2.803 4.367 0 7.68-1.08 10.25-2.803 2.587-1.733 4.57-4.227 6.087-7.276 3.077-6.177 4.07-14.3 4.367-21.834.183-4.513.1-5.533-.774-6.607-.886-1.093-1.733-1.346-5.756-2.026a85.426 85.426 0 00-14.174-1.12z" fill="#333"/></svg>