<svg width="80" height="81" fill="none" xmlns="http://www.w3.org/2000/svg"><g clip-path="url(#clip0_5892_71436)" fill="#333"><path d="M35.422.719c-.719.265-1.547.89-1.969 1.484-.547.75-1.89 4.063-1.89 4.64 0 .813.703 1.516 1.53 1.516 1.032 0 1.313-.297 2.235-2.406.703-1.61.906-1.937 1.297-2.094.594-.25 1.313-.015 1.5.485.156.39.094.656-2.016 8.625l-1.078 4.11-.734.78c-1.063 1.141-2.688 4.688-4.156 9.094-1.063 3.188-.985 4.266.328 4.656.5.157.687.141 1.203-.109.562-.281.625-.39 1.031-1.703 1.125-3.64 3.063-8.422 3.813-9.422.39-.531.89-.64 1.468-.344.407.235.391.61-.265 5.985-.657 5.406-.657 6.375.093 12.062.97 7.375.438 10.297-2.406 13.14-1.297 1.298-2.484 2.063-4.328 2.813-.531.219-4.61 1.594-9.031 3.047-4.438 1.453-8.344 2.734-8.688 2.875-.718.266-1.171.89-1.171 1.64 0 .657.874 1.563 1.5 1.563.25 0 1.718-.422 3.265-.922 16.563-5.453 16.469-5.422 18.516-6.75 1.312-.843 3.125-2.609 3.86-3.765.327-.5.624-.907.671-.907.047 0 .344.407.672.907 1.172 1.843 3.531 3.781 5.969 4.953 1.375.64 19.062 6.484 19.672 6.484.64 0 1.5-.906 1.5-1.593 0-.5-.329-1.157-.688-1.407-.094-.078-3.828-1.328-8.297-2.797-11.422-3.734-11.984-3.968-14-5.875-1.266-1.203-1.984-2.312-2.594-4.03-.422-1.22-.437-1.329-.422-4.376 0-2.687.063-3.484.438-5.703.688-4.063.703-5.89.031-11.39-.656-5.391-.672-5.72-.265-5.954.578-.297 1.078-.187 1.468.344.75 1 2.641 5.672 3.813 9.422.406 1.312.484 1.422 1.031 1.703.516.25.703.266 1.203.11 1.313-.391 1.39-1.47.328-4.657-1.468-4.406-3.093-7.953-4.156-9.094l-.734-.78-1.078-4.11C41.78 5 41.719 4.734 41.875 4.344c.188-.5.906-.735 1.5-.485.406.172.766.891 3.781 7.704 4.032 9.109 5.328 12.187 6.172 14.64.625 1.86.64 1.906.703 4.531.032 1.453-.047 4.547-.187 6.844-.125 2.36-.172 4.344-.11 4.531.297.766.641.875 6.594 2.157 3.219.687 5.984 1.203 6.172 1.172.594-.157 1.14-.72 1.25-1.297.125-.672-.25-1.547-.75-1.766-.203-.094-2.5-.61-5.094-1.156-2.61-.563-4.781-1.047-4.828-1.094-.047-.047 0-1.547.094-3.328s.172-4.313.172-5.61c0-4.562-.313-5.515-6.719-19.984-1.781-4.047-3.375-7.656-3.547-8.047-.734-1.672-1.953-2.515-3.781-2.625-1.313-.078-2.297.125-2.844.578-.36.297-.375.297-1.062-.109-.578-.328-.938-.422-2.032-.453-.875-.031-1.547.031-1.937.172zM40.75 14.03c.375 1.422.656 2.61.625 2.64-.031.017-.344.188-.703.376l-.656.328-.72-.344c-.468-.234-.702-.437-.655-.593.75-3.016 1.297-5 1.359-5 .047 0 .39 1.171.75 2.593z"/><path d="M29.234 12c-.406.344-.484.516-.484 1.11 0 .89.219 1.265.875 1.546.422.172.688.188 1.14.063.75-.203 1.11-.719 1.11-1.563 0-1.39-1.563-2.062-2.64-1.156zm-2.704 6.313c-.593.453-2.718 5.578-3.437 8.281-.437 1.594-.53 4.954-.28 9.72.093 2.062.14 3.78.109 3.827-.047.047-2.22.532-4.829 1.078-2.609.547-4.89 1.063-5.078 1.157-.187.078-.453.375-.61.64-.468.938.048 2.188 1.017 2.407.234.046 2.812-.422 6.25-1.157 5.953-1.28 6.296-1.39 6.593-2.156.063-.172.016-2.234-.11-4.61-.14-2.343-.218-5.421-.171-6.843.063-2.969.234-3.61 2.063-8.078 1.171-2.86 1.25-3.422.562-4.125-.563-.563-1.484-.625-2.078-.14zM14.922 65.235c-2.625 1.265-3.515 4.5-1.921 6.906.578.875 1.39 1.438 2.984 2.11 1.688.703 2.094 1.5 1.266 2.484-.47.562-1.11.64-2.047.25-1.61-.672-2.985.406-2.485 1.953.141.453.344.64 1.11 1.016.765.375 1.172.484 2.218.53 1.094.048 1.391 0 2.125-.343a4.634 4.634 0 002.297-2.234c.563-1.157.547-2.953-.047-4.157-.578-1.171-1.375-1.828-3.093-2.546-1.078-.438-1.453-.688-1.625-1.016-.328-.64-.297-1 .172-1.547.468-.563 1.109-.64 2.046-.25 1.61.672 2.985-.406 2.485-1.953-.14-.453-.344-.64-1.11-1.016-.78-.39-1.156-.468-2.265-.515-1.14-.032-1.438.015-2.11.328zm10.938 0c-1.062.5-2.14 1.734-2.484 2.828-.234.735-.266 1.406-.219 4.969.047 4 .063 4.125.438 4.875 1.047 2.14 3.64 3.14 5.984 2.344 1-.344 2.172-1.422 2.625-2.438.36-.812.375-.922.375-5.203v-4.375l-.422-.797c-.437-.844-1.343-1.75-2.187-2.187-.344-.188-.985-.297-1.922-.328-1.234-.063-1.5-.016-2.188.312zm3 3.297l.438.375v7.562l-.438.376c-.625.53-1.406.5-2-.079l-.453-.453v-7.25l.453-.453c.594-.578 1.375-.61 2-.078zm6.437-3.188l-.469.453.047 6.969.047 6.984.437.375c.61.516 1.641.516 2.25 0l.438-.375.047-2.75c.031-2.016.11-2.75.234-2.75.11 0 .828 1.266 1.594 2.828.781 1.563 1.578 2.969 1.781 3.125.234.188.625.297 1.047.297.89 0 1.453-.484 1.563-1.328.078-.547-.063-.922-1.094-3.031l-1.203-2.391.718-.625c1.11-.984 1.547-1.969 1.547-3.484 0-.97-.078-1.422-.343-2.032-.47-1.015-1.329-1.89-2.297-2.359-.72-.344-.97-.375-3.328-.375H35.75l-.453.469zm5.11 3.047c.812.53.843 1.703.046 2.296-.25.188-.781.344-1.36.391l-.968.094v-3.219l.938.094c.53.047 1.124.203 1.343.344zm6.609-3.047l-.47.453.048 6.969.047 6.984.437.375c.61.516 1.64.516 2.25 0l.438-.375.047-2.75c.03-2.016.109-2.75.234-2.75.11 0 .828 1.266 1.594 2.828.78 1.563 1.578 2.969 1.78 3.125.235.188.626.297 1.048.297.89 0 1.453-.484 1.562-1.328.078-.547-.062-.922-1.093-3.031l-1.204-2.391.72-.625C55.561 72.141 56 71.156 56 69.641c0-.97-.078-1.422-.344-2.032-.468-1.015-1.328-1.89-2.297-2.359-.718-.344-.968-.375-3.328-.375H47.47l-.453.469zm5.109 3.047c.813.53.844 1.703.047 2.296-.25.188-.781.344-1.36.391l-.968.094v-3.219l.937.094c.532.047 1.125.203 1.344.344zm6.609-3.047l-.468.469.047 3.312c.046 3.14.062 3.375.421 4.031.453.89 1.328 1.813 2.078 2.203l.563.297.063 2.047c.046 2.016.046 2.047.484 2.422.61.516 1.64.516 2.25 0 .437-.375.437-.406.484-2.422l.063-2.047.453-.25c.781-.406 1.703-1.328 2.14-2.156.422-.797.422-.813.422-4.203v-3.422l-.437-.375c-.61-.516-1.64-.516-2.25 0l-.438.375-.078 3.078-.078 3.078-.437.375c-.579.5-1.36.5-1.938 0l-.437-.375-.078-3.078-.079-3.078-.437-.375c-.656-.563-1.703-.531-2.313.094z"/></g><defs><clipPath id="clip0_5892_71436"><path fill="#fff" transform="translate(0 .5)" d="M0 0h80v80H0z"/></clipPath></defs></svg>