<svg width="80" height="80" fill="none" xmlns="http://www.w3.org/2000/svg"><path d="M71.25 55.002l-1.7.225a5.787 5.787 0 00-4.924 6.787l.375 1.65a5.776 5.776 0 01-8.425 6.138l-1.8-.975a5.763 5.763 0 00-7.825 2.3L45 74.489a5.762 5.762 0 01-10.113 0L33.1 71.127a5.763 5.763 0 00-7.825-2.3l-1.8.975A5.775 5.775 0 0115 63.664l.312-1.687a5.786 5.786 0 00-4.925-6.788l-1.637-.187a5.787 5.787 0 01-3.225-10l1.25-1.175a5.8 5.8 0 000-8.4l-1.25-1.175a5.788 5.788 0 013.212-10l1.7-.213a5.788 5.788 0 004.925-6.787L15 15.639a5.775 5.775 0 018.475-6.137l1.987 1.087a5.762 5.762 0 007.713-2.125L35 5.327a5.762 5.762 0 019.912 0l1.863 3.137a5.762 5.762 0 007.712 2.125l1.988-1.087A5.775 5.775 0 0165 15.639l-.313 1.7a5.786 5.786 0 004.925 6.788l1.7.212a5.787 5.787 0 013.213 10l-1.25 1.175a5.8 5.8 0 000 8.4l1.25 1.175a5.788 5.788 0 01-3.275 9.913z" fill="#fff"/><path d="M75 42.038a3.274 3.274 0 010-4.775l1.25-1.175a8.287 8.287 0 00-4.612-14.225l-1.7-.225a3.262 3.262 0 01-2.787-3.85l.312-1.7a8.275 8.275 0 00-12.087-8.75l-1.988 1.088a3.25 3.25 0 01-4.362-1.25L47.1 4.05a8.263 8.263 0 00-14.213 0l-1.862 3.137a3.25 3.25 0 01-4.363 1.25L24.675 7.35a8.275 8.275 0 00-12.088 8.75l.313 1.7a3.263 3.263 0 01-2.788 3.85l-1.7.225A8.288 8.288 0 003.75 36.087L5 37.263a3.301 3.301 0 010 4.775l-1.25 1.175a8.288 8.288 0 004.662 14.288l1.7.225a3.276 3.276 0 012.788 3.85l-.313 1.7a8.275 8.275 0 0012.088 8.75l1.8-.988a3.263 3.263 0 014.425 1.25l1.837 3.363a8.262 8.262 0 0014.513 0l1.837-3.363a3.263 3.263 0 014.425-1.25l1.8.988a8.275 8.275 0 0012.088-8.75l-.313-1.7a3.264 3.264 0 012.788-3.85l1.7-.225a8.287 8.287 0 004.675-14.288L75 42.038zm-1.4 8.213c-.737 2.262-2.712 2.237-4.374 2.5a8.288 8.288 0 00-7.063 9.725c.35 1.85.9 3.587-.987 5-1.888 1.412-3.525.187-5.275-.763a8.275 8.275 0 00-11.25 3.3l-1.838 3.363a3.261 3.261 0 01-5.737 0l-1.838-3.363a8.262 8.262 0 00-7.262-4.3c-2.425 0-3.75.9-5.75 1.988a3.274 3.274 0 01-4.725-3.575c.412-2.238 1.125-5-1.125-8.088-2.25-3.087-4.875-3.237-7.313-3.537a3.3 3.3 0 01-1.825-5.65c1.925-1.85 3.825-3.5 3.825-7.2s-2.037-5.5-3.825-7.15a3.287 3.287 0 011.825-5.638c2.65-.35 5.163-.612 7.313-3.562 2.15-2.95 1.562-5.738 1.125-8.088a3.262 3.262 0 014.775-3.475l1.987 1.075a8.237 8.237 0 0011.063-3.062C37 6.913 37.65 5 40 5a3.175 3.175 0 012.812 1.6l1.85 3.15a8.25 8.25 0 0011.063 3.025l1.987-1.075a3.263 3.263 0 014.788 3.475c-.388 2.137-1.138 5 1.137 8.087 2.275 3.088 4.875 3.238 7.313 3.563a3.276 3.276 0 011.787 5.675c-1.937 1.85-3.75 3.512-3.75 7.187C68.925 46.25 75 46.15 73.6 50.25z" fill="#333"/><path d="M27.588 38.501a2.501 2.501 0 10-4.325 2.5l3.375 5.85-8.763-4.35A2.5 2.5 0 0014.6 45.99l7.5 13a2.499 2.499 0 104.325-2.5l-3.362-5.85 8.75 4.337a2.5 2.5 0 003.275-3.487l-7.5-12.988zm19.238 3.325l-6.487 3.75-1.25-2.163 4.325-2.5a2.5 2.5 0 00-2.5-4.325l-4.325 2.5-1.25-2.162 6.487-3.75a2.503 2.503 0 00-2.5-4.338l-8.65 5a2.501 2.501 0 00-.925 3.413C37.726 51 37.401 51 38.776 51.413c1.375.413 1.25.138 10.55-5.25a2.503 2.503 0 10-2.5-4.337zm11.075-20.825a2.5 2.5 0 10-4.325 2.5l5 8.663-1.25-.15a2.5 2.5 0 00-2.587 1.5l-.5 1.15-5-8.663a2.5 2.5 0 10-4.325 2.5l7.5 13a2.5 2.5 0 004.462-.25l1.713-4.025 4.35.525a2.498 2.498 0 002.5-3.75l-7.538-13z" fill="#333"/></svg>