<svg width="80" height="81" fill="none" xmlns="http://www.w3.org/2000/svg"><path d="M40 15.5A6.25 6.25 0 1040 3a6.25 6.25 0 000 12.5zm-8.86 31.191l-4.75 26.907a3.748 3.748 0 003.047 4.343 3.713 3.713 0 004.313-3.047l3.281-18.734v.031s.813-5.078 2.735-5.078h.484c1.953 0 2.734 5.078 2.734 5.078v-.015l3.282 18.734a3.738 3.738 0 007.359-1.312l-4.75-26.907-.766-4.64c-.453-2.828-.656-7.438.078-9.328.626-1.625 2.208-2.22 3.626-2.22H66.25a3.75 3.75 0 100-7.5h-52.5a3.75 3.75 0 000 7.5h14.453c1.442 0 3 .595 3.625 2.22.735 1.89.531 6.5.078 9.328l-.765 4.64z" stroke="#333" stroke-width="4" stroke-miterlimit="10"/></svg>