<svg width="68" height="68" fill="none" xmlns="http://www.w3.org/2000/svg"><path opacity=".927" fill-rule="evenodd" clip-rule="evenodd" d="M30.945 0h6.11c13.397 1.706 22.893 8.701 28.488 20.984A39.063 39.063 0 0168 30.945v6.11c-1.391 11.811-7.19 20.732-17.398 26.761A36.035 36.035 0 0137.055 68h-6.11c-11.773-1.446-20.694-7.246-26.761-17.398A36.034 36.034 0 010 37.055v-6.11C1.39 19.134 7.19 10.213 17.398 4.184A36.034 36.034 0 0130.945 0zm2.922 1.992c13.226.556 22.9 6.665 29.02 18.328 3.13 6.882 3.839 14.01 2.125 21.383-2.968 10.671-9.586 18.086-19.856 22.246-10.772 3.628-20.821 2.212-30.148-4.25C4.268 51.036.262 39.902 2.988 26.297 5.956 15.626 12.574 8.21 22.844 4.05a36.214 36.214 0 0111.023-2.059z" fill="#FF8201"/><path opacity=".93" fill-rule="evenodd" clip-rule="evenodd" d="M31.347 4.251C39.85 3.7 47.31 6.178 53.726 11.69c.228 1.144-.237 1.653-1.395 1.527-8.718-7.075-18.37-8.67-28.953-4.781a27.94 27.94 0 00-8.101 5.246A2143.43 2143.43 0 0029.42 27.89l.133-3.32c.11-.376.354-.62.73-.73a131.73 131.73 0 018.368 0c.627.323.826.833.597 1.527a.622.622 0 01-.465.465c-2.39.067-4.78.089-7.171.067a67.68 67.68 0 00.066 4.25l2.723 2.722a32.17 32.17 0 013.984.266c.588.723.5 1.342-.266 1.86l-1.46.132 5.511 5.512.133-16.07c.11-.377.354-.62.73-.73a131.73 131.73 0 018.368 0c.606.337.806.846.597 1.526l-.465.465c-2.39.067-4.78.089-7.171.067v7.039c2.17-.023 4.339 0 6.507.066.67.4.824.954.465 1.66a.927.927 0 01-.465.332 159.36 159.36 0 01-6.507.067v7.039c2.346-.022 4.693 0 7.039.066.627.324.826.833.597 1.528-.16.205-.36.36-.597.464l-5.578.133a763.476 763.476 0 008.5 8.434c6.556-7.453 8.703-16.042 6.44-25.766a30.17 30.17 0 00-5.976-11.289c-.126-1.158.383-1.623 1.528-1.394 6.24 7.32 8.565 15.753 6.972 25.3-1.869 8.947-6.716 15.743-14.543 20.387-8.222 4.354-16.722 4.974-25.5 1.86a29.222 29.222 0 01-8.965-5.512c-.227-1.145.237-1.654 1.395-1.528 7.618 6.32 16.251 8.268 25.899 5.844 4.223-1.247 7.942-3.35 11.156-6.309a3914.018 3914.018 0 00-19.125-19.19 15.008 15.008 0 00-1.992-.067v7.039c2.346-.022 4.693 0 7.039.066.627.324.826.833.597 1.528-.16.205-.36.36-.597.464a73.57 73.57 0 01-8.766-.132.936.936 0 01-.332-.598l-.133-12.484-4.98-4.98a100.963 100.963 0 00-5.18-.067v6.906c2.081-.022 4.162 0 6.242.066.564.449.675 1.002.332 1.66a.936.936 0 01-.597.333 134.41 134.41 0 01-5.977.066c.022 2.834 0 5.667-.066 8.5-.323.79-.877.99-1.66.598l-.333-.333a707.323 707.323 0 010-19.39c.162-.206.36-.36.598-.465l4.383-.133a764.343 764.343 0 00-8.5-8.433c-6.8 7.769-8.86 16.667-6.176 26.695a29.676 29.676 0 005.711 10.36c.126 1.157-.383 1.622-1.527 1.394-5.56-6.453-8.016-13.957-7.37-22.511C5.84 19.425 12.015 11.124 22.847 6.31a33.103 33.103 0 018.5-2.059z" fill="#333"/></svg>