<svg width="80" height="80" fill="none" xmlns="http://www.w3.org/2000/svg"><path opacity=".972" fill-rule="evenodd" clip-rule="evenodd" d="M39.338 3.855a3.04 3.04 0 011.454.218L52.5 15.781c.215.466.264.95.145 1.454a.681.681 0 01-.509.51c-1.744.072-3.49.096-5.236.072-.024 5.575 0 11.15.073 16.725a13.055 13.055 0 012.182 5.672.648.648 0 00.218.29 16.981 16.981 0 016.835-1.744v-12.8c-1.746.025-3.49 0-5.235-.072a.681.681 0 01-.51-.51 2.362 2.362 0 010-1.163 690.532 690.532 0 0111.854-11.998 1.854 1.854 0 011.745 0 690.89 690.89 0 0111.853 11.998c.097.388.097.776 0 1.164a.682.682 0 01-.51.509 94.194 94.194 0 01-5.235.072c-.024 5.963 0 11.926.073 17.889 4.898 4.903 6.692 10.769 5.38 17.597-.853 3.698-2.647 6.85-5.38 9.454l-.146 4.508a.682.682 0 01-.509.51c-4.847.096-9.695.096-14.543 0a16.658 16.658 0 01-5.672-1.673c-.12.379-.192.767-.218 1.163a.682.682 0 01-.51.51 1708.3 1708.3 0 01-44.503-.146 1.378 1.378 0 01-.218-.364 2534.017 2534.017 0 010-38.395.681.681 0 01.51-.509 94.228 94.228 0 015.235-.072V25.96c-1.746.025-3.491 0-5.236-.072a.681.681 0 01-.509-.51 2.363 2.363 0 010-1.163 690.57 690.57 0 0111.853-11.998 1.854 1.854 0 011.746 0 690.89 690.89 0 0111.852 11.998c.098.388.098.776 0 1.164a.682.682 0 01-.509.509c-1.744.072-3.49.097-5.235.072-.024 2.764 0 5.527.072 8.29 2.27-3.208 5.348-5.147 9.236-5.817V17.817c-1.746.024-3.491 0-5.236-.073a.682.682 0 01-.51-.509 2.362 2.362 0 010-1.163A484.2 484.2 0 0139.338 3.855zm.436 3.054a238.52 238.52 0 018.726 8.508l-3.345.146a.681.681 0 00-.509.509l-.145 15.561c-2.647-2.28-5.725-3.394-9.235-3.345.024-4.072 0-8.144-.073-12.216a.681.681 0 00-.51-.51l-3.344-.145a697.188 697.188 0 008.435-8.508zm-23.27 8.145c2.97 2.75 5.878 5.586 8.727 8.508l-3.346.145a.681.681 0 00-.509.51 512.892 512.892 0 00-.072 12.216h-9.308c.024-4.073 0-8.145-.073-12.217a.681.681 0 00-.509-.509l-3.345-.145a696.885 696.885 0 008.435-8.508zm46.54 0a239.896 239.896 0 018.726 8.508l-3.345.145a.682.682 0 00-.51.51l-.145 17.597c-2.797-1.846-5.876-2.864-9.235-3.054.025-4.849 0-9.696-.072-14.544a.681.681 0 00-.51-.509l-3.345-.145a697.687 697.687 0 008.436-8.508zM35.266 30.615c5.34.378 9 3.045 10.98 8 1.39 5.379-.089 9.766-4.436 13.161-4.156 2.506-8.374 2.603-12.653.291-4.672-3.352-6.297-7.836-4.872-13.453 1.994-4.96 5.654-7.626 10.98-7.999zM6.179 38.76h15.416a28.71 28.71 0 00-.291 2.327H6.179V38.76zm51.193 2.327c6.132.264 10.81 2.979 14.034 8.144 3.212 6.232 2.824 12.243-1.163 18.034-4.716 5.547-10.606 7.413-17.67 5.6-1.16-.37-2.252-.88-3.273-1.528a447.039 447.039 0 00-.29-15.998 1.375 1.375 0 00-.364-.218l-7.418-.145c4.733-2.41 7.424-6.264 8.072-11.563a16.676 16.676 0 018.072-2.326zM6.179 43.413h15.125a28.9 28.9 0 00.29 2.328H6.18v-2.328zm0 4.655c5.43-.025 10.859 0 16.288.072.363.776.8 1.503 1.31 2.182-5.867.072-11.732.097-17.598.072v-2.326zm0 4.653c6.593-.024 13.186 0 19.779.073a19.213 19.213 0 003.345 2.182c-7.708.072-15.416.097-23.124.072v-2.327zm0 4.654h15.125v2.327H6.179v-2.327zm17.452 0H46.9v2.327H23.63v-2.327zM6.179 62.03h15.125v2.327H6.179V62.03zm17.452 0H46.9v2.327H23.63V62.03zM6.179 66.683h15.125v2.327H6.179v-2.327zm17.452 0H46.9v2.327H23.63v-2.327zM6.179 71.337h15.125v2.327H6.179v-2.327zm17.452 0H46.9a11.659 11.659 0 000 2.327H23.63v-2.327zm44.067 1.6a.998.998 0 01.145.727c-.39.024-.779 0-1.163-.073.348-.221.688-.44 1.018-.654z" fill="#333"/><path opacity=".936" fill-rule="evenodd" clip-rule="evenodd" d="M35.27 33.715a2.24 2.24 0 011.358.26c.179.586.243 1.19.194 1.81 1.34.078 2.31.724 2.91 1.94.286 1.177-.166 1.716-1.358 1.616-.46-.407-.892-.837-1.293-1.294-1.097-.354-2.11-.203-3.039.453-.357.787-.206 1.455.453 2.004l3.362.906c1.986 1.088 2.568 2.704 1.745 4.849-.621 1.073-1.548 1.72-2.78 1.94a9.35 9.35 0 01-.064 1.551c-.198.39-.521.563-.97.517a1.277 1.277 0 01-.84-.258 4.855 4.855 0 01-.195-1.81c-1.34-.079-2.31-.725-2.91-1.94-.286-1.178.167-1.717 1.359-1.617.46.406.891.837 1.293 1.293.878.272 1.74.228 2.586-.129.801-.694.844-1.427.13-2.198a17.977 17.977 0 00-3.234-.905c-2.393-1.234-2.975-3.066-1.745-5.496.643-.828 1.484-1.302 2.521-1.422-.021-.52 0-1.037.065-1.552.09-.24.24-.412.453-.517z" fill="#FF8201"/><path opacity=".933" fill-rule="evenodd" clip-rule="evenodd" d="M50.404 48.197c1.922-.322 3.237.41 3.944 2.198.386 1.924-.326 3.238-2.134 3.944-1.923.386-3.238-.326-3.944-2.134-.369-1.935.342-3.271 2.134-4.008zm.517 2.198a.904.904 0 00-.452.517c-.114 1.163.382 1.529 1.487 1.1.52-1.096.174-1.635-1.035-1.617z" fill="#FF8201"/><path opacity=".903" fill-rule="evenodd" clip-rule="evenodd" d="M60.1 49.231c1.366-.078 1.819.526 1.358 1.81l-10.41 10.41c-1.573.496-2.112-.043-1.616-1.616 3.542-3.564 7.099-7.099 10.668-10.604z" fill="#FF8201"/><path opacity=".933" fill-rule="evenodd" clip-rule="evenodd" d="M58.677 56.474c1.923-.322 3.238.411 3.944 2.198.386 1.924-.325 3.239-2.133 3.944-1.924.386-3.239-.325-3.944-2.133-.37-1.936.342-3.272 2.133-4.009zm.518 2.198a.904.904 0 00-.453.518c-.113 1.162.382 1.528 1.487 1.099.52-1.095.175-1.634-1.034-1.617z" fill="#FF8201"/></svg>