<svg width="70" height="71" fill="none" xmlns="http://www.w3.org/2000/svg"><path opacity=".926" fill-rule="evenodd" clip-rule="evenodd" d="M57.521.848h3.425c5.719 1.476 8.528 5.175 8.427 11.098-.697 4.693-3.323 7.707-7.878 9.043a41.645 41.645 0 00-1.44 2.466c-.628.393-1.222.347-1.78-.137l-1.302-2.33c-4.499-1.323-7.125-4.292-7.878-8.905-.14-5.985 2.669-9.73 8.426-11.235zm1.644 2.055c3.876.26 6.456 2.223 7.742 5.891.8 3.767-.365 6.758-3.494 8.975a18.333 18.333 0 01-3.288 1.37 6.697 6.697 0 00-.891 1.302 6.706 6.706 0 00-.89-1.302c-5.633-1.561-7.848-5.192-6.646-10.893 1.453-3.26 3.942-5.04 7.467-5.343z" fill="#333"/><path opacity=".934" fill-rule="evenodd" clip-rule="evenodd" d="M58.89 4.139c1.235.051 1.692.69 1.37 1.918a6.566 6.566 0 012.192.205c.737.7.692 1.34-.137 1.919-1.416.045-2.832.09-4.248.137-.852.436-.897.938-.137 1.507l3.014.137c1.507.389 2.283 1.371 2.33 2.946-.208 1.806-1.212 2.765-3.015 2.877.023.504 0 1.007-.068 1.507-.64.73-1.279.73-1.918 0a3.817 3.817 0 01-.206-1.507c-.687.023-1.372 0-2.055-.069-.73-.64-.73-1.278 0-1.918l4.247-.137c.572-.118.823-.46.754-1.027a.642.642 0 00-.48-.48l-2.877-.137c-2.085-.588-2.839-1.935-2.26-4.042.499-1.084 1.343-1.724 2.534-1.918.011-.818.33-1.457.96-1.918z" fill="#333"/><path opacity=".932" fill-rule="evenodd" clip-rule="evenodd" d="M1.616 11.124c6.257-.023 12.514 0 18.77.068.472.152.814.449 1.029.89.165 1.18.257 2.367.274 3.563 3.275-1.55 6.494-1.437 9.659.343.752.43.958 1.047.617 1.85-.364.369-.798.483-1.302.342-3.01-1.94-6.002-1.917-8.974.069a16.375 16.375 0 01-.274 2.192c-.512.713-1.22 1.078-2.124 1.096-.91 2.442-.613 4.726.89 6.85a18.93 18.93 0 011.987-1.85c-.988-1.868-.874-3.672.343-5.411 1.896-1.835 4.02-2.132 6.37-.89 1.881 1.53 2.43 3.449 1.645 5.754.666.62 1.373 1.19 2.124 1.713 1.02-2.04 1.157-4.141.41-6.303-.246-.923.096-1.471 1.028-1.644.369.069.666.252.89.548.356.69.584 1.42.686 2.192a19.751 19.751 0 010 3.288 18.205 18.205 0 01-1.096 3.426l10.687 8.22c1.249-.912 2.642-1.209 4.179-.89a6.24 6.24 0 001.233.411 105.302 105.302 0 014.453-4.59 20.655 20.655 0 01-.548-1.781c-.266-2.734.898-4.538 3.494-5.412 2.822-.415 4.718.704 5.686 3.357.462 2.707-.566 4.603-3.083 5.686-1.302.349-2.558.235-3.768-.343a26.258 26.258 0 00-2.33 2.192 31.314 31.314 0 01-2.397 2.535c1.33 2.762.737 5-1.781 6.714-2.53 1.018-4.607.447-6.234-1.713a6.292 6.292 0 01-.548-1.37 11.72 11.72 0 01.137-3.151L33.06 30.854c-3.131 2.924-6.717 3.632-10.756 2.124-.753-.4-1.484-.834-2.192-1.302-.32.228-.594.502-.822.822 1.098 2.48.596 4.559-1.507 6.234-2.62 1.34-4.836.86-6.646-1.438-1.302-2.855-.64-5.116 1.987-6.783 1.538-.665 3.046-.597 4.522.206.5-.155.752-.475.753-.96-1.758-2.513-2.238-5.253-1.438-8.22a843.637 843.637 0 00-15.209-.206C1.044 21.171.61 20.738.45 20.03a107.453 107.453 0 010-7.673c.235-.577.623-.988 1.165-1.233zm.959 2.192h16.853v5.892H2.575v-5.892zm22.881 8.358c1.84-.17 2.936.652 3.289 2.466-.579 2.322-1.95 2.984-4.11 1.987-1.28-1.325-1.28-2.649 0-3.974a3.52 3.52 0 00.821-.48zm33.02 5.617c1.852-.171 2.948.65 3.29 2.467-.477 2.178-1.756 2.886-3.837 2.123-1.314-.978-1.565-2.188-.754-3.63a4.454 4.454 0 011.302-.96zm-29.457.549a18.927 18.927 0 012.192 1.644c-1.719 1.652-3.774 2.314-6.166 1.986a7.616 7.616 0 01-3.288-1.438 7.368 7.368 0 011.987-1.781 5.93 5.93 0 003.494.48 4.106 4.106 0 001.78-.892zm-14.113 4.384c2.512.411 3.266 1.781 2.261 4.11-1.038 1.064-2.203 1.223-3.494.48-1.31-1.416-1.265-2.786.137-4.11a6.04 6.04 0 011.096-.48zm33.158 6.303c2.415.492 3.123 1.862 2.123 4.11-1.037 1.063-2.202 1.223-3.493.48-1.312-1.41-1.266-2.781.137-4.11.405-.22.816-.38 1.233-.48z" fill="#FF8201"/><path opacity=".904" fill-rule="evenodd" clip-rule="evenodd" d="M4.772 15.093a15.802 15.802 0 013.425.205c.38.41.493.89.343 1.44a.642.642 0 01-.48.479 23.175 23.175 0 01-3.562 0c-.782-.822-.69-1.53.274-2.124z" fill="#333"/><path opacity=".922" fill-rule="evenodd" clip-rule="evenodd" d="M10.524 15.097c2.193-.023 4.385 0 6.577.068.775.25 1.026.776.753 1.576a.642.642 0 01-.48.48 92.6 92.6 0 01-7.124 0c-.393-.192-.575-.511-.548-.96-.007-.607.267-.995.822-1.164z" fill="#333"/><path opacity=".948" fill-rule="evenodd" clip-rule="evenodd" d="M66.977 70.998H7.376c-.7-.668-.7-1.33 0-1.986 1.05-.069 2.1-.092 3.151-.069-.023-5.572 0-11.144.069-16.716.205-.388.502-.685.89-.89a99.963 99.963 0 017.4 0 2.1 2.1 0 01.89.89c.068 5.572.091 11.144.068 16.716h1.644c-.023-9.865 0-19.73.069-29.595.151-.47.448-.813.89-1.027a99.856 99.856 0 017.4 0c.422.107.718.358.89.753a365.47 365.47 0 01.137 19.867c-.547.982-1.232 1.073-2.055.274a1276.59 1276.59 0 01-.069-18.77h-5.07v28.498h5.07c-.023-2.01 0-4.02.069-6.029.823-.798 1.508-.707 2.055.275.068 1.917.091 3.835.068 5.754h1.508c-.023-7.764 0-15.528.068-23.292.092-.548.389-.936.89-1.165a28.317 28.317 0 013.768-.205c1.264-.015 2.52.053 3.768.205.447.218.743.56.891 1.028.069 7.81.091 15.62.069 23.43h1.644c-.023-5.527 0-11.053.068-16.58a2.1 2.1 0 01.89-.89 99.853 99.853 0 017.4 0c.388.205.685.502.89.89.069 5.527.092 11.053.069 16.58h1.644c-.023-9.775 0-19.548.068-29.322.22-.631.654-1.02 1.302-1.164a82.226 82.226 0 016.714 0c.77.176 1.203.655 1.301 1.438a35.087 35.087 0 010 4.385c-.547.981-1.232 1.072-2.055.274a57.668 57.668 0 01-.068-3.974H56.7v28.362h5.07c-.023-6.896 0-13.793.068-20.689.823-.799 1.508-.707 2.055.274.069 6.805.092 13.61.069 20.415 1.006-.023 2.01 0 3.014.069.722.661.722 1.324 0 1.986zM34.642 46.473h5.07v22.47h-5.07v-22.47zm-21.923 6.85h4.933v15.62h-4.933v-15.62zm33.02.275h4.933v15.345H45.74V53.598z" fill="#333"/></svg>