<svg width="80" height="81" fill="none" xmlns="http://www.w3.org/2000/svg"><g fill="#66666A" clip-path="url(#clip0_6710_61141)"><path d="M22.028.656c-15.5 1.469-25.313 9.938-21 18.125 2.5 4.766 9.375 8.375 18.5 9.703 3.172.469 9.406.516 12.578.094 12.047-1.61 20.156-7.453 19.718-14.172C51.404 7.844 43.575 2.5 32.029.875c-2-.281-7.97-.406-10-.219zM0 27.5c0 2.672.219 3.813 1.031 5.344 2.922 5.578 11.985 9.578 22.844 10.093l2.203.11.61-1.313c1.171-2.547 2.843-5.03 4.937-7.39.906-1.016 1.031-1.219.719-1.14-1.016.25-5.469.452-7.969.374-9.5-.344-17.531-2.875-23-7.281L0 25.203V27.5zm51.36 1.61c-8.75 1.015-16.438 6.437-20.282 14.28a25.967 25.967 0 00-1.703 18.188c3.297 12.016 15.032 20.047 27.422 18.766 11.531-1.172 20.688-9.72 22.844-21.297.36-2 .36-6.657 0-8.657-1.469-7.828-5.969-14.218-12.813-18.14C62.36 29.703 56.5 28.5 51.36 29.11zm5.203 11.75v2.562l.812.375c2 .922 3.86 3.734 3.875 5.797v.437h-2.343c-2 0-2.344-.031-2.344-.234 0-.141-.14-.532-.313-.86-.36-.703-1.25-1.25-2.031-1.25-1.188 0-2.344 1.157-2.344 2.344 0 1.188 1.188 2.344 2.39 2.344 1.75 0 3.563.781 4.876 2.093 2.812 2.829 2.781 7.157-.063 9.938-.484.469-1.25 1.031-1.703 1.234l-.812.375v5.11h-4.688v-5.11l-.812-.375c-2-.921-3.86-3.734-3.875-5.812v-.422h2.343c2 0 2.344.031 2.344.234 0 .141.14.532.313.86.36.703 1.25 1.25 2.031 1.25 1.188 0 2.344-1.157 2.344-2.344 0-1.219-1.157-2.344-2.407-2.344-1.718 0-3.53-.797-4.859-2.11-2.812-2.78-2.797-7.14.063-9.921.484-.469 1.25-1.031 1.703-1.234l.812-.375v-5.11h4.688v2.547zM0 41.547c0 2.703.219 3.828 1.047 5.39.703 1.329 2.375 3.157 4.031 4.391 1.453 1.078 4.656 2.688 6.89 3.453 3.032 1.032 6.97 1.813 10.376 2.063l1.484.093.016-2.703c.015-2.015.11-3.203.36-4.578.187-1.031.296-1.89.25-1.937-.048-.047-.985-.14-2.079-.219-8.61-.578-16.125-3.172-21.234-7.328L0 39.25v2.297zM0 55.61c0 2.687.219 3.827 1.031 5.358 3 5.72 12.328 9.735 23.516 10.11 1.5.047 2.984.047 3.297-.016l.562-.11-1.156-2.218c-1.031-2-2.563-5.984-2.563-6.703 0-.297-.39-.36-2.812-.516-2.219-.14-5.531-.656-7.938-1.25C8.767 59 4.547 57 1.142 54.235L0 53.311v2.297z"/></g><defs><clipPath id="clip0_6710_61141"><path fill="#fff" transform="translate(0 .5)" d="M0 0h80v80H0z"/></clipPath></defs></svg>