<svg width="20" height="20" fill="none" xmlns="http://www.w3.org/2000/svg"><g fill="#333" clip-path="url(#clip0_101_6069)"><path d="M12.48.024c-2.449.27-4.527 1.73-5.574 3.922-.39.82-.656 1.957-.656 2.813 0 .199.016.253.098.332a.292.292 0 00.425.007c.079-.078.09-.14.114-.535A6.235 6.235 0 0112.336.684c2.625-.347 5.223 1.051 6.394 3.438.223.457.457 1.168.551 1.68.102.542.102 1.605 0 2.148-.453 2.46-2.234 4.375-4.633 4.98-.351.09-.468.137-.535.215-.105.121-.11.18-.031.332.082.16.215.184.605.102 1.586-.324 3.122-1.344 4.126-2.738.285-.399.742-1.29.894-1.758.254-.754.293-1.04.293-2.18 0-1.16-.04-1.457-.277-2.184-.164-.507-.61-1.386-.922-1.824A6.98 6.98 0 0014.434.114c-.418-.078-1.57-.129-1.954-.09z"/><path d="M12.3 1.324c-.09.07-.094.102-.113.668l-.02.594-.21.074c-.692.242-1.278.856-1.516 1.574-.141.438-.149 1.043-.016 1.47.219.71.727 1.288 1.387 1.581.34.152.539.184 1.222.211.555.02.645.035.739.106.207.152.27.277.27.523s-.063.371-.27.523c-.102.079-.172.082-1.442.102-1.511.023-1.504.02-1.781.336-.34.387-.32.875.055 1.246.254.258.386.293 1.05.293h.532v.527c0 .512.004.536.097.625.094.098.102.098.84.098.739 0 .746 0 .84-.098.094-.09.098-.109.098-.664 0-.508.008-.57.07-.59 1.266-.398 2.012-1.648 1.746-2.925-.176-.856-.875-1.61-1.738-1.875-.149-.047-.426-.075-.887-.094-.594-.02-.683-.031-.777-.106-.207-.152-.27-.277-.27-.523s.063-.371.27-.523c.101-.079.172-.082 1.441-.102 1.512-.023 1.504-.02 1.77-.324.351-.399.336-.883-.043-1.258-.254-.258-.387-.293-1.051-.293h-.531v-.527c0-.512-.004-.536-.098-.625-.094-.098-.101-.098-.832-.098-.672 0-.75.008-.832.074zm1.137 1.078c0 .512.004.535.097.625.094.098.102.098.84.098.739 0 .746 0 .84.098a.303.303 0 01.024.414l-.075.093-1.343.02c-1.329.02-1.34.02-1.536.117-.25.121-.484.36-.605.606-.129.27-.133.777-.008 1.035.137.277.293.445.563.586.242.129.254.133.91.16.75.031.941.074 1.293.3.297.196.5.426.664.77.523 1.09-.106 2.36-1.305 2.637-.328.074-.36.14-.36.766v.523h-.624v-.527c0-.512-.004-.536-.098-.625-.094-.098-.101-.098-.84-.098-.738 0-.746 0-.84-.098a.303.303 0 01-.023-.414l.074-.093 1.344-.02 1.34-.02.246-.132c.273-.149.394-.274.547-.567.086-.168.101-.25.101-.531.004-.305-.008-.352-.129-.578a1.214 1.214 0 00-.59-.563c-.148-.07-.277-.086-.84-.113-.75-.031-.94-.074-1.292-.3a1.78 1.78 0 01-.664-.77c-.524-1.09.105-2.36 1.304-2.637.329-.074.36-.14.36-.766v-.523h.625v.527zM4.473 3.535c-.082.078-.098.133-.098.313v.215H4.16c-.262 0-.41.113-.41.312 0 .2.148.313.41.313h.215v.214c0 .262.113.41.313.41.199 0 .312-.148.312-.41v-.215h.215c.262 0 .41-.113.41-.312 0-.2-.148-.313-.41-.313H5v-.214c0-.262-.113-.41-.313-.41a.304.304 0 00-.214.097zm1.593 4.024c-.101.07-.12.128-.851 2.675-.453 1.575-.555 1.887-.672 2.07-.156.239-.484.567-.672.676l-.121.07v-.179c0-.137-.023-.203-.098-.273L3.56 12.5H.19l-.093.098L0 12.69v7.118l.098.093L.19 20h3.37l.093-.098c.07-.07.098-.136.098-.254 0-.085.012-.156.023-.156.016 0 .418.113.899.254l.875.258 2.844-.012 2.84-.012.222-.109c.281-.137.55-.433.637-.695.12-.363.058-.875-.133-1.13l-.074-.093.176-.156c.265-.235.402-.547.402-.926 0-.262-.016-.332-.129-.55l-.125-.255.172-.148c.258-.227.394-.547.394-.922 0-.258-.015-.332-.128-.55l-.125-.255.183-.164c.102-.09.23-.261.293-.386.094-.188.11-.27.11-.536-.004-.28-.016-.34-.137-.558a1.19 1.19 0 00-.586-.563c-.176-.09-.184-.09-2.356-.101l-2.183-.012.023-.144c.137-.856.262-2.055.242-2.317-.078-.95-.613-1.633-1.449-1.851-.293-.075-.488-.075-.594 0zm.664.683c.27.13.446.297.575.563.222.453.226.613.043 2.062-.086.7-.16 1.309-.16 1.352a.35.35 0 00.074.168l.074.093 2.383.02c2.332.02 2.386.02 2.492.102.207.152.27.277.27.523s-.063.371-.27.523c-.098.079-.176.082-1.086.102-.969.02-.977.02-1.05.113a.317.317 0 000 .399c.073.093.09.093.894.113.898.02.922.027 1.117.29.113.151.113.519 0 .67-.2.267-.2.27-1.274.29-.968.02-.976.02-1.05.113a.317.317 0 000 .399c.074.093.09.093.894.113.899.02.922.027 1.117.29.114.151.114.519 0 .67-.199.267-.199.27-1.273.29-.969.02-.977.02-1.05.113a.317.317 0 000 .399c.073.093.09.093.894.113.754.02.832.027.93.102.207.152.269.277.269.523s-.063.371-.27.523c-.105.082-.148.082-2.859.094l-2.75.008-.691-.195c-.383-.11-.813-.235-.957-.278l-.266-.078v-2.547l.004-2.547.308-.144c.383-.184.704-.473.993-.902l.218-.32.586-2.052c.32-1.128.594-2.074.606-2.101.023-.066.07-.059.265.031zM3.125 16.25v3.125h-2.5v-6.25h2.5v3.125zm12.91-1.152c-.082.078-.098.132-.098.312v.215h-.214c-.262 0-.41.113-.41.313 0 .199.148.312.41.312h.214v.215c0 .262.114.41.313.41.2 0 .313-.148.313-.41v-.215h.214c.262 0 .41-.113.41-.313 0-.199-.148-.312-.41-.312h-.215v-.215c0-.262-.113-.41-.312-.41a.305.305 0 00-.215.098z"/></g><defs><clipPath id="clip0_101_6069"><path fill="#fff" d="M0 0h20v20H0z"/></clipPath></defs></svg>