<svg width="22" height="22" fill="none" xmlns="http://www.w3.org/2000/svg"><path d="M18.778 9.956a8.541 8.541 0 00-2.002-2.833l-.703-.656a.194.194 0 00-.314.081l-.313.917c-.196.576-.556 1.163-1.065 1.741a.15.15 0 01-.1.05.132.132 0 01-.103-.038.146.146 0 01-.049-.118c.09-1.48-.345-3.15-1.296-4.967-.787-1.51-1.881-2.687-3.248-3.508L8.588.027c-.13-.079-.297.025-.29.18l.053 1.18c.036.806-.056 1.52-.273 2.112a7.045 7.045 0 01-1.135 2.004 7.2 7.2 0 01-1.147 1.134 8.638 8.638 0 00-2.422 2.987 8.68 8.68 0 00-.205 7.138 8.6 8.6 0 001.823 2.727 8.476 8.476 0 002.702 1.837A8.365 8.365 0 0011 22a8.405 8.405 0 003.306-.671 8.41 8.41 0 002.702-1.837A8.599 8.599 0 0019.5 13.42c0-1.2-.241-2.366-.722-3.465z" fill="#FF8201"/><path d="M7.47 10.164V8.838c.616-.027 1.047-.068 1.293-.123.392-.087.71-.26.957-.52a1.71 1.71 0 00.382-.71c.05-.178.076-.31.076-.397h1.62V17H9.802v-6.836H7.47z" fill="#fff"/></svg>