<svg width="14" height="14" fill="none" xmlns="http://www.w3.org/2000/svg"><g fill="#333"><path d="M8.91.716c-1.542.17-2.85 1.09-3.51 2.47-.246.517-.414 1.233-.414 1.771 0 .126.01.16.062.21a.184.184 0 00.268.004c.05-.049.057-.088.071-.337A3.927 3.927 0 018.82 1.131a3.94 3.94 0 014.027 2.166c.14.287.288.735.347 1.058a4.793 4.793 0 010 1.353c-.285 1.55-1.407 2.755-2.918 3.137-.221.056-.295.086-.337.135-.066.076-.069.113-.02.21.052.1.136.115.382.063.999-.204 1.966-.846 2.598-1.725a5.45 5.45 0 00.563-1.107c.16-.475.185-.654.185-1.373 0-.73-.025-.917-.175-1.375a5.366 5.366 0 00-.58-1.149A4.397 4.397 0 0010.14.772 6.964 6.964 0 008.91.716z"/><path d="M8.797 1.533c-.056.045-.059.064-.071.421l-.012.374-.133.047a1.604 1.604 0 00-.955.991 1.69 1.69 0 00-.01.925c.138.448.458.812.874.997.214.096.34.115.77.133.35.012.406.022.465.066.13.096.17.175.17.33 0 .155-.04.234-.17.33-.064.049-.108.051-.908.063-.952.015-.947.013-1.122.212-.214.244-.202.551.034.785.16.162.244.184.662.184h.335v.333c0 .322.002.337.061.393.06.062.064.062.53.062.464 0 .47 0 .528-.062.06-.056.062-.069.062-.418 0-.32.005-.36.044-.372a1.59 1.59 0 001.1-1.842c-.11-.54-.551-1.014-1.095-1.181-.093-.03-.268-.047-.558-.06-.374-.012-.43-.02-.49-.066-.13-.096-.17-.175-.17-.33 0-.155.04-.233.17-.33.064-.048.108-.05.908-.063.952-.015.947-.013 1.114-.204.222-.251.212-.556-.027-.793-.16-.162-.243-.184-.661-.184h-.335v-.332c0-.323-.003-.337-.062-.394-.059-.062-.064-.062-.524-.062-.423 0-.472.005-.524.047zm.716.68c0 .322.003.336.062.393.059.061.064.061.529.061s.47 0 .529.062a.19.19 0 01.015.26l-.047.06-.847.012c-.836.012-.844.012-.967.074a.879.879 0 00-.38.381c-.082.17-.085.49-.006.652a.75.75 0 00.354.37c.153.08.16.083.574.1.472.02.593.047.814.19.187.123.315.268.418.484.33.687-.066 1.486-.821 1.661-.207.047-.227.089-.227.482v.33H9.12v-.332c0-.322-.003-.337-.062-.394-.059-.061-.064-.061-.529-.061s-.47 0-.529-.062a.19.19 0 01-.015-.26l.047-.06.847-.012.843-.012.155-.084a.716.716 0 00.345-.357c.054-.105.064-.157.064-.334.002-.192-.005-.222-.081-.364a.765.765 0 00-.372-.355c-.093-.044-.175-.054-.529-.071-.472-.02-.593-.047-.814-.19a1.121 1.121 0 01-.419-.484c-.33-.687.067-1.486.822-1.66.207-.048.227-.09.227-.483v-.33h.393v.332zm-5.646.715c-.051.049-.061.083-.061.196v.136H3.67c-.164 0-.258.071-.258.197 0 .125.094.196.258.196h.136v.136c0 .165.071.258.197.258.125 0 .196-.093.196-.258v-.136h.136c.165 0 .258-.07.258-.196S4.5 3.26 4.335 3.26h-.136v-.136c0-.164-.07-.258-.196-.258a.192.192 0 00-.136.062zM4.87 5.461c-.063.044-.075.081-.536 1.686-.285.991-.349 1.188-.423 1.304a1.69 1.69 0 01-.423.425l-.076.044v-.113c0-.086-.015-.128-.062-.172l-.059-.061h-2.12l-.06.061-.061.06v4.482l.061.059.06.061h2.12l.06-.061c.044-.044.06-.086.06-.16 0-.054.008-.098.016-.098.01 0 .263.071.565.16l.552.162 1.79-.007 1.79-.008.14-.069a.843.843 0 00.4-.438c.077-.228.038-.55-.083-.71l-.047-.06.111-.098a.746.746 0 00.254-.583c0-.165-.01-.21-.082-.347l-.078-.16.108-.094a.75.75 0 00.248-.58c0-.163-.01-.21-.08-.347l-.08-.16.116-.103a.95.95 0 00.185-.244c.059-.118.068-.17.068-.337-.002-.177-.01-.214-.086-.352a.75.75 0 00-.369-.354c-.11-.057-.115-.057-1.483-.064L5.99 8.177l.015-.09c.086-.54.165-1.295.153-1.46-.05-.598-.387-1.028-.913-1.166-.185-.047-.308-.047-.374 0zm.42.43c.169.082.28.188.36.355.141.285.143.386.028 1.3-.054.44-.101.823-.101.85a.22.22 0 00.047.106l.046.06 1.501.012c1.47.012 1.504.012 1.57.064.13.095.17.174.17.33 0 .154-.04.233-.17.329-.061.05-.11.052-.684.064-.61.012-.615.012-.662.071a.2.2 0 000 .251c.047.06.057.06.564.072.566.012.58.017.703.182.072.096.072.327 0 .423-.125.167-.125.17-.802.182-.61.012-.615.012-.662.071a.2.2 0 000 .251c.047.06.057.06.564.071.566.013.58.018.703.183.072.096.072.327 0 .423-.125.167-.125.17-.802.182-.61.012-.615.012-.661.071a.2.2 0 000 .251c.046.06.056.06.563.072.475.012.524.017.586.063.13.097.17.175.17.33 0 .155-.04.234-.17.33-.067.052-.094.052-1.801.059l-1.733.005-.435-.123a78.988 78.988 0 01-.603-.175l-.167-.05v-1.603l.002-1.604.195-.091c.24-.116.442-.298.625-.569l.137-.202.37-1.291c.201-.711.373-1.307.38-1.324.016-.042.045-.037.168.02zm-2.272 5.044v1.969H1.443V8.967h1.575v1.968zm8.132-.725c-.051.048-.061.083-.061.196v.135h-.135c-.165 0-.259.072-.259.197 0 .126.094.197.259.197h.135v.135c0 .165.071.259.197.259.125 0 .197-.094.197-.259v-.135h.135c.165 0 .258-.071.258-.197 0-.125-.093-.197-.258-.197h-.135v-.135c0-.165-.072-.258-.197-.258a.192.192 0 00-.136.061z"/></g></svg>