<svg width="40" height="40" fill="none" xmlns="http://www.w3.org/2000/svg"><circle cx="20" cy="20" r="20" fill="#F1FAF9"/><path d="M17.224 11.111c-4.6 0-8.333 2.99-8.333 6.667 0 2.1 1.2 3.956 3.088 5.178l-.866 2.6 2.778-1.667a9.822 9.822 0 003.233.556 5.8 5.8 0 01-.456-2.223c0-3.677 3.478-6.666 7.778-6.666.211 0 .422 0 .622.033-1.133-2.6-4.2-4.478-7.844-4.478zm-3.333 2.778a1.111 1.111 0 110 2.223 1.111 1.111 0 010-2.223zm5.555 0a1.111 1.111 0 110 2.223 1.111 1.111 0 010-2.223zm5 2.778c-3.678 0-6.667 2.489-6.667 5.555 0 3.067 2.99 5.556 6.667 5.556a7.77 7.77 0 002.122-.278l2.323 1.39-.69-2.079c1.745-1.01 2.912-2.689 2.912-4.589 0-3.066-2.989-5.555-6.667-5.555zm-2.222 2.778a1.11 1.11 0 110 2.221 1.11 1.11 0 010-2.221zm4.444 0a1.111 1.111 0 110 2.222 1.111 1.111 0 010-2.222z" fill="#2FA9B5"/></svg>