<svg width="40" height="40" fill="none" xmlns="http://www.w3.org/2000/svg"><circle cx="20" cy="20" r="20" fill="#F1FAF9"/><path d="M20.618 30.8c-1.175.645-1.125-.306-1.074-.599l.167-.992c.039-.297.08-.756-.038-1.049-.13-.322-.647-.49-1.027-.571C13.04 26.85 8.89 22.954 8.89 18.3c0-5.19 5.233-9.412 11.664-9.412 6.43 0 11.663 4.222 11.663 9.412 0 5.83-6.182 9.52-11.6 12.498zm-3.75-10.376a.567.567 0 00-.569-.564h-1.587v-3.71a.567.567 0 00-.568-.564.566.566 0 00-.568.564v4.274c0 .312.255.565.568.565h2.155a.567.567 0 00.568-.565zm1.66-4.274a.567.567 0 00-.569-.564.566.566 0 00-.568.564v4.274c0 .312.255.565.568.565a.567.567 0 00.568-.565V16.15zm5.188 0a.567.567 0 00-.568-.564.567.567 0 00-.57.564v2.645l-2.21-2.983a.573.573 0 00-.635-.197.564.564 0 00-.389.535v4.275c0 .311.256.564.57.564.314 0 .57-.253.57-.564V17.78l2.208 2.983a.573.573 0 00.635.196.561.561 0 00.39-.535V16.15zm3.488 1.573h-1.587v-1.01h1.587c.314 0 .57-.252.57-.563a.567.567 0 00-.57-.564h-2.155a.566.566 0 00-.568.564v4.273c0 .312.255.565.568.565h2.155c.314 0 .57-.254.57-.565a.567.567 0 00-.57-.564h-1.587v-1.01h1.587c.314 0 .57-.252.57-.563a.567.567 0 00-.57-.565v.002z" fill="#2FA9B5"/></svg>