<svg width="40" height="40" fill="none" xmlns="http://www.w3.org/2000/svg"><circle cx="20" cy="20" r="20" fill="#F1FAF9"/><path d="M27.834 12.122a10.907 10.907 0 00-7.789-3.233c-6.066 0-11.01 4.944-11.01 11.01 0 1.945.51 3.834 1.466 5.5l-1.556 5.712 5.834-1.533a11.014 11.014 0 005.266 1.344c6.067 0 11.011-4.944 11.011-11.011a10.94 10.94 0 00-3.222-7.789zm-7.789 16.933a9.18 9.18 0 01-4.666-1.277l-.334-.2-3.466.91.922-3.377-.222-.345a9.183 9.183 0 01-1.4-4.866c0-5.045 4.11-9.156 9.155-9.156 2.445 0 4.745.956 6.467 2.69a9.093 9.093 0 012.678 6.477c.022 5.044-4.09 9.144-9.134 9.144zm5.022-6.844c-.277-.133-1.633-.8-1.877-.9-.256-.089-.434-.133-.623.133-.188.278-.71.9-.866 1.078-.156.189-.322.211-.6.067-.278-.134-1.167-.434-2.211-1.367-.823-.733-1.367-1.633-1.534-1.911-.155-.278-.022-.422.123-.567.122-.122.277-.322.41-.477.134-.156.19-.278.279-.456.088-.189.044-.345-.023-.478a91.33 91.33 0 01-.844-2.044c-.222-.534-.456-.467-.622-.478h-.534a.998.998 0 00-.733.344c-.245.278-.956.945-.956 2.3 0 1.356.99 2.667 1.123 2.845.133.189 1.944 2.966 4.7 4.155.655.29 1.166.456 1.566.578.656.211 1.256.178 1.734.111.533-.077 1.633-.666 1.855-1.31.233-.645.233-1.19.156-1.312-.078-.122-.245-.178-.523-.311z" fill="#2FA9B5"/></svg>