<svg width="40" height="40" fill="none" xmlns="http://www.w3.org/2000/svg"><circle cx="20" cy="20" r="20" fill="#F1FAF9"/><path fill-rule="evenodd" clip-rule="evenodd" d="M27.687 11.227a1.472 1.472 0 012.024 1.596l-2.226 13.505c-.216 1.303-1.646 2.05-2.84 1.4-1-.542-2.484-1.379-3.82-2.251-.667-.437-2.712-1.836-2.46-2.831.216-.852 3.652-4.05 5.615-5.951.77-.747.42-1.178-.49-.491-2.262 1.706-5.889 4.3-7.088 5.031-1.059.644-1.61.754-2.27.644-1.204-.2-2.32-.51-3.23-.889-1.232-.51-1.172-2.202-.002-2.695l16.787-7.068z" fill="#2FA9B5"/></svg>