<svg width="19" height="32" fill="none" xmlns="http://www.w3.org/2000/svg"><g filter="url(#filter0_ii_2567_3225)"><path d="M9.375.375a2.76 2.76 0 011.989.858c.528.55.824 1.295.824 2.072 0 .777-.296 1.522-.824 2.071a2.757 2.757 0 01-1.989.858 2.757 2.757 0 01-1.989-.858 2.993 2.993 0 01-.824-2.071c0-.777.296-1.522.824-2.072A2.757 2.757 0 019.375.375zm-4.22 23.438H4.113c-.638 0-1.09-.654-.89-1.288l2.244-7.007L3.48 18.96c-.534.922-1.688 1.22-2.573.665-.885-.555-1.172-1.757-.639-2.679l3.141-5.444C4.6 9.445 6.732 8.187 9.035 8.187h.68c2.303 0 4.436 1.258 5.626 3.315l3.14 5.444c.534.922.247 2.124-.638 2.68-.885.555-2.04.256-2.573-.666l-1.986-3.436 2.244 7c.205.635-.252 1.288-.89 1.288h-1.044v5.86c0 1.08-.838 1.953-1.875 1.953s-1.875-.873-1.875-1.953v-5.86h-.938v5.86c0 1.08-.838 1.953-1.875 1.953s-1.875-.873-1.875-1.953v-5.86z" fill="#E4E4E4"/></g><defs><filter id="filter0_ii_2567_3225" x="-2" y="-.625" width="22.75" height="32.25" filterUnits="userSpaceOnUse" color-interpolation-filters="sRGB"><feFlood flood-opacity="0" result="BackgroundImageFix"/><feBlend in="SourceGraphic" in2="BackgroundImageFix" result="shape"/><feColorMatrix in="SourceAlpha" values="0 0 0 0 0 0 0 0 0 0 0 0 0 0 0 0 0 0 127 0" result="hardAlpha"/><feOffset dx="-2" dy="-1"/><feGaussianBlur stdDeviation="2"/><feComposite in2="hardAlpha" operator="arithmetic" k2="-1" k3="1"/><feColorMatrix values="0 0 0 0 0 0 0 0 0 0 0 0 0 0 0 0 0 0 0.25 0"/><feBlend in2="shape" result="effect1_innerShadow_2567_3225"/><feColorMatrix in="SourceAlpha" values="0 0 0 0 0 0 0 0 0 0 0 0 0 0 0 0 0 0 127 0" result="hardAlpha"/><feOffset dx="2"/><feGaussianBlur stdDeviation="2"/><feComposite in2="hardAlpha" operator="arithmetic" k2="-1" k3="1"/><feColorMatrix values="0 0 0 0 1 0 0 0 0 1 0 0 0 0 1 0 0 0 0.25 0"/><feBlend in2="effect1_innerShadow_2567_3225" result="effect2_innerShadow_2567_3225"/></filter></defs></svg>