<svg width="24" height="24" fill="none" xmlns="http://www.w3.org/2000/svg"><path d="M6 15.15c.402 0 .788-.074 1.156-.223a3.45 3.45 0 00.91-.544l6.857 3.988a2.9 2.9 0 00-.073.63c0 .872.307 1.618.919 2.23A3.043 3.043 0 0018 22.15a3.04 3.04 0 002.231-.919A3.043 3.043 0 0021.15 19a3.04 3.04 0 00-.919-2.231A3.043 3.043 0 0018 15.85h0c-.402 0-.788.075-1.156.224a3.432 3.432 0 00-.91.543l-6.857-3.988c.02-.077.035-.16.047-.246a2.905 2.905 0 000-.765 2.169 2.169 0 00-.047-.247l6.856-3.988c.275.229.579.41.91.544A3.06 3.06 0 0018 8.15a3.04 3.04 0 002.231-.919A3.043 3.043 0 0021.15 5a3.04 3.04 0 00-.919-2.231A3.043 3.043 0 0018 1.85a3.04 3.04 0 00-2.231.919A3.043 3.043 0 0014.85 5a2.887 2.887 0 00.073.63L8.066 9.616a3.461 3.461 0 00-.91-.543A3.048 3.048 0 006 8.85a3.04 3.04 0 00-2.231.919A3.043 3.043 0 002.85 12c0 .873.307 1.62.919 2.231a3.043 3.043 0 002.23.919zm0 0V15m0 .15s0 0 0 0V15m0 0c.383 0 .75-.07 1.1-.212.35-.142.667-.338.95-.588L6 15zM18 4.15h0c.245 0 .443.08.606.243A.818.818 0 0118.85 5h0c0 .245-.08.443-.243.606A.819.819 0 0118 5.85h0a.814.814 0 01-.606-.243A.818.818 0 0117.15 5h0c0-.245.08-.443.243-.606A.819.819 0 0118 4.15zm-12 7h0c.245 0 .443.08.606.243A.819.819 0 016.85 12h0c0 .245-.08.443-.243.606A.818.818 0 016 12.85h0a.814.814 0 01-.606-.243A.819.819 0 015.15 12h0c0-.245.08-.443.243-.606A.818.818 0 016 11.15zM17.15 19h0c0-.245.08-.443.243-.606A.818.818 0 0118 18.15h0c.245 0 .443.08.606.243a.818.818 0 01.244.607h0c0 .245-.08.443-.243.606a.818.818 0 01-.607.244h0a.814.814 0 01-.606-.243.818.818 0 01-.244-.607z" fill="#333" stroke="#333" stroke-width=".3"/></svg>