<svg width="22" height="18" fill="none" xmlns="http://www.w3.org/2000/svg"><path d="M11 17.456a1.087 1.087 0 01-.797-.328l-7.79-7.79a5.25 5.25 0 01.206-7.622A5.063 5.063 0 016.379.45a5.653 5.653 0 013.655 1.66l.966.965 1.162-1.163a5.249 5.249 0 017.622.207 5.063 5.063 0 011.266 3.76 5.653 5.653 0 01-1.66 3.655l-7.593 7.594a1.14 1.14 0 01-.797.328zM6.031 1.191a4.303 4.303 0 00-2.915 1.087 4.49 4.49 0 00-.17 6.525l7.792 7.8a.375.375 0 00.524 0L18.866 9c1.771-1.772 1.93-4.631.356-6.384a4.49 4.49 0 00-6.525-.17l-1.434 1.426a.366.366 0 01-.525 0L9.5 2.634a4.931 4.931 0 00-3.469-1.443z" fill="#333"/></svg>