<svg width="48" height="48" fill="none" xmlns="http://www.w3.org/2000/svg"><g fill="#CC1212"><path d="M16.533 29.36c-.368 0-.616.035-.744.071v2.356c.152.036.342.046.604.046.958 0 1.548-.484 1.548-1.302 0-.732-.508-1.172-1.408-1.172zm6.974.023c-.4 0-.66.036-.814.072v5.22c.154.036.402.036.626.036 1.634.012 2.698-.888 2.698-2.792.012-1.66-.958-2.536-2.51-2.536z"/><path d="M28 4H12a4 4 0 00-4 4v32a4 4 0 004 4h24a4 4 0 004-4V16L28 4zm-9.004 28.38c-.618.58-1.53.84-2.592.84a4.467 4.467 0 01-.616-.036v2.852H14v-7.872c.807-.12 1.622-.175 2.438-.164 1.114 0 1.906.212 2.44.638.508.404.852 1.066.852 1.846-.002.784-.262 1.446-.734 1.896zm7.614 2.71c-.84.698-2.118 1.03-3.68 1.03-.936 0-1.598-.06-2.048-.12v-7.834A15.898 15.898 0 0123.32 28c1.514 0 2.498.272 3.266.852.83.616 1.35 1.598 1.35 3.008 0 1.526-.558 2.58-1.326 3.23zM34 29.54h-3.064v1.822H33.8v1.468h-2.864v3.208h-1.812V28.06H34v1.48zM28 18h-2V8l10 10h-8z"/></g></svg>