<svg width="24" height="24" fill="none" xmlns="http://www.w3.org/2000/svg"><path d="M19.5 21.75h-.128C4.634 20.902 2.542 8.467 2.249 4.672A2.25 2.25 0 014.32 2.25h4.133a1.5 1.5 0 011.395.945L10.987 6a1.5 1.5 0 01-.33 1.62L9.059 9.232a7.027 7.027 0 005.685 5.7l1.628-1.612a1.5 1.5 0 011.627-.308l2.828 1.133a1.5 1.5 0 01.922 1.395v3.96a2.25 2.25 0 01-2.25 2.25zm-15-18a.75.75 0 00-.75.75v.06C4.093 9 6.306 19.5 19.453 20.25a.75.75 0 00.795-.705V15.54l-2.827-1.132-2.153 2.137-.36-.045C8.384 15.682 7.5 9.158 7.5 9.09l-.045-.36 2.13-2.153L8.46 3.75H4.5z" fill="#7C7C7C"/></svg>