<svg width="76" height="75" fill="none" xmlns="http://www.w3.org/2000/svg"><circle cx="38" cy="37.5" r="37.5" fill="#FAFAFA"/><path d="M53.046 27.214a.884.884 0 00-.68-.318H28.339l-.763-4.2A2.063 2.063 0 0025.546 21h-2.662a.885.885 0 000 1.769h2.654a.295.295 0 01.295.242l3.76 20.68c.12.659.44 1.265.92 1.734a3.833 3.833 0 105.622.927h7.698a3.831 3.831 0 106.745 3.588 3.832 3.832 0 00-3.519-5.357H32.786a1.473 1.473 0 01-1.45-1.21l-.531-2.917h17.448a3.243 3.243 0 003.192-2.662l1.79-9.856a.884.884 0 00-.19-.724zM34.972 48.416a2.063 2.063 0 11-4.127 0 2.063 2.063 0 014.127 0zm14.151 0a2.064 2.064 0 11-4.128 0 2.064 2.064 0 014.128 0zm.58-10.939a1.474 1.474 0 01-1.45 1.21h-17.77l-1.822-10.022h22.645l-1.602 8.812z" fill="#2FA9B5"/><g clip-path="url(#clip0_8891_55405)"><mask id="a" fill="#fff"><path d="M42.9 29.525a.937.937 0 111.325 1.325l-2.747 2.747a.04.04 0 00-.008.042.04.04 0 00.008.013l2.747 2.747a.939.939 0 01-.66 1.606.937.937 0 01-.665-.28l-2.747-2.747a.038.038 0 00-.043-.008.036.036 0 00-.013.008l-2.747 2.747a.937.937 0 11-1.325-1.326l2.746-2.746a.039.039 0 000-.055l-2.746-2.748a.937.937 0 011.325-1.326l2.747 2.747a.04.04 0 00.028.012.04.04 0 00.027-.012l2.747-2.747z"/></mask><path d="M42.9 29.525a.937.937 0 111.325 1.325l-2.747 2.747a.04.04 0 00-.008.042.04.04 0 00.008.013l2.747 2.747a.939.939 0 01-.66 1.606.937.937 0 01-.665-.28l-2.747-2.747a.038.038 0 00-.043-.008.036.036 0 00-.013.008l-2.747 2.747a.937.937 0 11-1.325-1.326l2.746-2.746a.039.039 0 000-.055l-2.746-2.748a.937.937 0 011.325-1.326l2.747 2.747a.04.04 0 00.028.012.04.04 0 00.027-.012l2.747-2.747z" fill="#2FA9B5"/><path d="M42.9 29.525l-.045.09.067.032.05-.054-.072-.068zm1.325 1.325l-.069-.073-.002.002.071.071zm-2.747 2.747l.07.07h.001l-.07-.07zm0 .055l.071-.07-.07.07zm2.747 2.747l-.07.07v.001l.07-.07zM42.9 37.725l.07-.07-.07.07zm-2.747-2.747l-.071.07.07-.07zm-.056 0l.071.07-.07-.07zm-2.747 2.747l-.07-.07.07.07zm-1.325-1.326l.07.072-.07-.072zm2.746-2.746l-.07-.071.07.07zm0-.056l-.07.07v.001l.07-.07zm-2.746-2.747l-.072.07v.001l.072-.07zm1.325-1.326l.07-.07-.07.07zm2.747 2.747l.07-.07-.07.07zm.055 0l-.07-.07.07.07zm2.747-2.747l.045-.089-.065-.032-.05.05.07.071zm.073.07a.838.838 0 01.272-.192l-.08-.183a1.038 1.038 0 00-.337.237l.145.137zm.272-.192a.84.84 0 01.325-.07l-.003-.2a1.04 1.04 0 00-.402.087l.08.183zm.325-.07a.84.84 0 01.327.061l.075-.185a1.038 1.038 0 00-.404-.076l.002.2zm.327.061a.839.839 0 01.277.184l.142-.142a1.04 1.04 0 00-.344-.227l-.075.185zm.277.184c.08.079.142.173.184.277l.185-.075a1.04 1.04 0 00-.227-.344l-.142.142zm.184.277a.84.84 0 01.061.327l.2.002a1.038 1.038 0 00-.076-.404l-.185.075zm.061.327a.84.84 0 01-.07.325l.183.08a1.04 1.04 0 00.087-.403l-.2-.002zm-.07.325a.838.838 0 01-.191.271l.137.146c.1-.096.181-.21.237-.337l-.183-.08zm-.194.273l-2.746 2.747.141.142 2.747-2.747-.142-.142zm-2.746 2.747a.138.138 0 00-.03.045l.184.077a.062.062 0 01-.013.02l-.141-.142zm-.03.045a.137.137 0 00-.011.054h.2a.062.062 0 01-.005.023l-.184-.077zm-.011.054c0 .018.003.036.01.053l.185-.077a.062.062 0 01.005.024h-.2zm.01.053a.138.138 0 00.03.045l.142-.142c.006.006.01.013.013.02l-.184.077zm.03.045l2.748 2.747.14-.142-2.746-2.747-.141.142zm2.748 2.747c.079.078.142.17.184.272l.185-.078a1.038 1.038 0 00-.229-.336l-.14.142zm.184.272a.837.837 0 01.066.322h.2c0-.138-.028-.273-.081-.4l-.184.078zm.066.322c0 .11-.02.22-.063.322l.185.076c.052-.126.079-.262.078-.399l-.2.001zm-.063.322a.838.838 0 01-.182.274l.142.141c.096-.097.173-.212.225-.339l-.185-.076zm-.182.274a.836.836 0 01-.273.182l.076.185c.127-.052.242-.13.338-.226l-.141-.141zm-.273.182a.838.838 0 01-.322.063l-.001.2c.137 0 .272-.026.399-.078l-.076-.185zm-.322.063a.84.84 0 01-.322-.066l-.078.185c.126.053.262.08.399.081v-.2zm-.322-.066a.839.839 0 01-.272-.184l-.143.14c.096.098.21.175.337.229l.078-.185zm-.273-.185l-2.747-2.747-.141.142 2.747 2.747.141-.142zm-2.746-2.747a.14.14 0 00-.046-.03l-.076.185a.059.059 0 01-.02-.013l.142-.142zm-.046-.03a.14.14 0 00-.053-.01v.2a.06.06 0 01-.023-.005l.076-.185zm-.053-.01a.14.14 0 00-.053.01l.076.185a.06.06 0 01-.023.005v-.2zm-.053.01a.14.14 0 00-.045.03l.141.142a.06.06 0 01-.02.013l-.076-.185zm-.045.03l-2.747 2.747.141.142 2.747-2.747-.141-.142zm-2.748 2.748a.838.838 0 01-.272.184l.078.185c.126-.053.24-.131.337-.229l-.143-.14zm-.272.184a.837.837 0 01-.321.066v.2c.137 0 .273-.028.4-.081l-.079-.185zm-.321.066a.838.838 0 01-.323-.063l-.076.185c.127.052.263.079.4.078l-.001-.2zm-.323-.063a.838.838 0 01-.273-.182l-.141.141c.096.097.212.174.338.226l.076-.185zm-.273-.182a.837.837 0 01-.182-.273l-.185.076c.052.126.129.242.226.338l.141-.141zm-.182-.273a.838.838 0 01-.063-.323h-.2c0 .136.026.272.078.399l.185-.076zm-.063-.323c0-.11.022-.22.065-.322l-.184-.077c-.053.126-.08.262-.081.398l.2.001zm.065-.322a.837.837 0 01.185-.271l-.14-.143c-.098.096-.176.21-.229.337l.184.078zm.185-.272l2.747-2.747-.141-.141-2.747 2.747.141.141zm2.747-2.747a.14.14 0 00.03-.045l-.184-.076a.06.06 0 01.013-.02l.141.141zm.03-.045a.14.14 0 00.01-.053h-.2a.06.06 0 01.006-.023l.184.076zm.01-.053a.14.14 0 00-.01-.053l-.184.076a.06.06 0 01-.005-.023h.2zm-.01-.053a.14.14 0 00-.03-.046l-.141.142a.059.059 0 01-.013-.02l.184-.076zm-.03-.046l-2.747-2.746-.141.141 2.747 2.747.141-.142zm-2.746-2.746a.838.838 0 01-.24-.59l-.2-.001c-.002.273.105.536.297.732l.143-.14zm-.24-.59c0-.222.088-.433.244-.59l-.14-.14a1.037 1.037 0 00-.305.729h.2zm.244-.59a.837.837 0 01.59-.245l-.002-.2c-.273.001-.535.11-.729.304l.141.142zm.59-.245c.22 0 .433.086.59.24l.14-.142a1.037 1.037 0 00-.732-.298l.001.2zm.59.24l2.746 2.747.142-.141-2.747-2.747-.142.141zm2.746 2.747a.138.138 0 00.045.03l.077-.185a.062.062 0 01.02.014l-.142.14zm.045.03a.14.14 0 00.054.01v-.2a.06.06 0 01.023.005l-.077.185zm.054.01a.137.137 0 00.053-.01l-.077-.185a.06.06 0 01.024-.004v.2zm.053-.01a.138.138 0 00.045-.03l-.141-.141a.06.06 0 01.02-.014l.076.185zm.045-.03l2.747-2.747-.142-.141-2.746 2.747.141.141zm2.632-2.728l.09-.179h-.001l-.09.179z" fill="#FAFAFA" mask="url(#a)"/></g><defs><clipPath id="clip0_8891_55405"><path fill="#fff" transform="translate(35.125 28.625)" d="M0 0h10v10H0z"/></clipPath></defs></svg>