<svg width="68" height="68" fill="none" xmlns="http://www.w3.org/2000/svg"><path d="M23.236.61c-3.286.85-6.019 3.102-7.449 6.147-.75 1.6-1.076 3.016-1.076 4.743 0 1.657.212 2.875.75 4.22.864 2.18 1.218 2.577 9.87 11.244 7.675 7.689 8.2 8.184 8.667 8.184.453 0 .977-.495 8.397-7.901 4.347-4.333 8.213-8.298 8.61-8.808 2.081-2.761 2.79-6.245 1.968-9.7-.283-1.161-1.317-3.186-2.153-4.234A11.136 11.136 0 0042.083.313c-2.93.015-5.423.907-7.392 2.663l-.693.623-.694-.623C32 1.814 30.16.908 28.362.526 26.974.228 24.538.27 23.236.61zm4.942 2.182c1.387.34 2.945 1.217 4.234 2.421 1.5 1.388 1.67 1.388 3.072.085 1.983-1.84 3.668-2.577 6.09-2.676 1.812-.085 2.973.141 4.375.82a9.043 9.043 0 014.758 10.55c-.609 2.266-.595 2.252-9.006 10.678l-7.703 7.717-7.704-7.717c-5.791-5.806-7.802-7.916-8.142-8.525-2.549-4.56-.906-10.181 3.682-12.575.594-.311 1.458-.651 1.925-.764 1.09-.27 3.3-.27 4.419-.014z" fill="#FF8201"/><path d="M30.952 8.313c-.34.325-.354.41-.354 2.265v1.912h-1.912c-1.855 0-1.94.014-2.266.354-.354.34-.354.368-.354 3.044 0 2.677 0 2.705.354 3.045.326.34.411.354 2.266.354h1.912v1.912c0 1.855.014 1.94.354 2.265.34.354.368.354 3.044.354 2.677 0 2.705 0 3.045-.354.34-.325.354-.41.354-2.265v-1.912h1.911c1.856 0 1.94-.014 2.266-.354.354-.34.354-.368.354-3.045 0-2.676 0-2.704-.354-3.044-.326-.34-.41-.354-2.266-.354h-1.911v-1.912c0-1.855-.014-1.94-.354-2.265-.34-.354-.368-.354-3.045-.354-2.676 0-2.704 0-3.044.354zm4.177 3.823c0 1.855.014 1.94.354 2.266.326.34.41.354 2.266.354h1.911v2.264h-1.91c-1.855 0-1.94.014-2.266.354-.34.326-.354.411-.354 2.266v1.912h-2.266V19.64c0-1.855-.014-1.94-.353-2.266-.326-.34-.411-.354-2.266-.354h-1.912v-2.264h1.912c1.855 0 1.94-.015 2.266-.354.34-.326.354-.411.354-2.266v-1.912h2.264v1.912zm-29.467 1.53c-1.798.68-2.903 2.11-3.059 3.979-.07.821-.113.892-.764 1.473C.933 19.925.423 21 .338 22.233c-.057.878.141 1.671 2.577 10.705 1.84 6.868 2.747 9.984 3.016 10.48.312.551 1.445 1.642 4.829 4.686 2.988 2.663 4.531 4.15 4.73 4.532.24.467.311.878.354 2.294.056 1.543.028 1.742-.17 1.742-.128 0-.397.155-.58.354l-.355.34v9.94l.354.34.34.354H32.17l.34-.354.354-.34v-9.94l-.354-.34c-.184-.199-.44-.355-.553-.355-.184 0-.212-.85-.255-6.273-.056-6.089-.056-6.287-.382-7.25-.68-2.081-1.968-3.965-3.483-5.14-.638-.496-10.196-6.174-11.017-6.556-.298-.128-.652-1.063-2.847-7.392-1.373-3.993-2.633-7.562-2.803-7.944-.708-1.53-2.181-2.507-3.937-2.592-.666-.028-1.26.029-1.572.142zm2.422 2.365c.297.155.665.453.82.665.143.227 1.29 3.356 2.536 6.981 1.26 3.625 2.322 6.684 2.379 6.826.07.184-.057.269-.652.453-.41.113-.764.198-.779.184-.014-.014-.778-2.322-1.685-5.112-.906-2.79-1.756-5.31-1.911-5.593-.58-1.133-2.082-2.21-3.342-2.38-.637-.084-.652-.098-.567-.523.184-.935 1.176-1.784 2.096-1.784.297 0 .793.127 1.105.283zm-2.266 4.531c.297.156.665.453.821.666.142.226 1.09 2.93 2.082 6.018l1.812 5.622-.325.736c-.27.637-.312.935-.255 1.898.07 1.33.538 2.35 1.402 3.1.764.652 7.505 4.475 7.887 4.475.184 0 .482-.155.666-.354.453-.439.467-1.104.042-1.529-.184-.17-1.756-1.147-3.512-2.138-1.756-1.006-3.341-1.968-3.511-2.124-.567-.496-.78-1.048-.708-1.855.113-1.331 1.062-2.153 2.364-2.025.538.056 1.615.623 6.103 3.242 6.118 3.569 6.826 4.107 7.817 6.019.92 1.741.963 2.124.963 8.581v5.778h-11.3l-.057-1.884c-.085-2.195-.325-3.002-1.274-4.163-.34-.41-2.11-2.053-3.937-3.668-4.319-3.795-4.8-4.262-5.098-4.942-.141-.311-1.387-4.772-2.76-9.912-2.663-9.898-2.677-10.012-2.083-10.819.723-.977 1.813-1.26 2.86-.722zm24.78 41.774v3.398H17.006v-6.797H30.6v3.399zm28.887-48.628c-.85.312-1.742.977-2.209 1.629-.425.623-.694 1.331-3.597 9.686l-2.166 6.23-3.767 2.195c-5.863 3.399-7.038 4.12-7.817 4.758-1.458 1.19-2.591 2.903-3.257 4.942-.325.963-.325 1.147-.382 7.25-.042 5.438-.07 6.273-.255 6.273-.113 0-.368.156-.552.355l-.354.34v9.94l.354.34.34.354H52.56l.34-.354.353-.34v-9.94l-.354-.34c-.184-.199-.453-.355-.58-.355-.198 0-.227-.198-.17-1.741.042-1.43.099-1.827.354-2.308.212-.397 1.643-1.77 4.616-4.419 4.248-3.78 4.63-4.163 5.112-5.097.142-.27 1.402-4.758 2.804-9.983 2.294-8.468 2.577-9.644 2.577-10.65.014-.962-.042-1.245-.382-1.94a5.283 5.283 0 00-1.076-1.415c-.652-.58-.694-.652-.765-1.501-.142-1.615-1.062-2.96-2.535-3.725-.807-.424-2.478-.51-3.37-.184zm2.549 2.351c.595.41.963.92 1.076 1.473.085.425.071.439-.566.524-1.317.184-2.747 1.19-3.328 2.35-.156.298-1.02 2.832-1.926 5.622-.906 2.79-1.67 5.098-1.685 5.112-.014.014-.368-.07-.779-.184-.595-.184-.722-.27-.651-.453.056-.142 1.119-3.172 2.35-6.755 1.247-3.582 2.38-6.698 2.521-6.938.566-.977 2.096-1.36 2.988-.75zM64.3 20.59c.651.454 1.005.963 1.09 1.615.057.425-.496 2.634-2.365 9.615-1.33 4.984-2.52 9.374-2.648 9.756-.297.935-.694 1.331-5.183 5.31-2.251 1.997-4.05 3.697-4.319 4.093-.75 1.105-1.02 2.195-1.02 4.078v1.614H38.528v-5.777c0-6.457.043-6.84.95-8.581.976-1.884 1.713-2.45 7.844-6.019 5.933-3.469 6.174-3.568 7.265-3.058 1.387.665 1.642 2.662.481 3.696-.17.155-1.756 1.118-3.512 2.124-1.756 1.005-3.328 1.968-3.498 2.138-.439.425-.424 1.09.029 1.53.184.198.481.353.665.353.524 0 7.293-3.936 8.058-4.687.92-.906 1.303-1.968 1.218-3.384-.029-.623-.17-1.289-.312-1.6l-.269-.524 1.756-5.424c.949-2.973 1.87-5.664 2.039-5.975.58-1.105 2.096-1.544 3.059-.893zM50.989 62.336v3.398H37.395v-6.797h13.594v3.399z" fill="#333"/></svg>