<svg width="32" height="32" fill="none" xmlns="http://www.w3.org/2000/svg"><rect x="2" y="2" width="28" height="28" rx="4" fill="#66666A"/><path d="M24.079 7.874a11.252 11.252 0 00-8.035-3.336c-6.258 0-11.359 5.101-11.359 11.36 0 2.005.528 3.954 1.513 5.673l-1.604 5.892 6.017-1.582a11.362 11.362 0 005.433 1.386c6.258 0 11.359-5.1 11.359-11.358 0-3.038-1.18-5.892-3.324-8.035zm-8.035 17.468a9.469 9.469 0 01-4.814-1.319l-.344-.206-3.576.94.951-3.484-.228-.356a9.472 9.472 0 01-1.445-5.02c0-5.203 4.24-9.445 9.444-9.445a9.343 9.343 0 016.671 2.775 9.38 9.38 0 012.763 6.681c.022 5.205-4.217 9.434-9.422 9.434zm5.18-7.06c-.286-.138-1.684-.826-1.936-.929-.264-.092-.447-.138-.642.137-.195.288-.734.929-.895 1.113-.16.194-.331.217-.618.068-.287-.137-1.204-.447-2.28-1.41-.849-.756-1.411-1.685-1.583-1.97-.16-.288-.023-.437.126-.586.126-.125.287-.332.424-.493.137-.16.195-.287.287-.47.091-.195.046-.355-.023-.492a99.963 99.963 0 01-.871-2.11c-.229-.55-.47-.48-.641-.492h-.55c-.196 0-.495.069-.758.355-.252.287-.986.974-.986 2.373 0 1.398 1.021 2.75 1.158 2.934.138.195 2.006 3.06 4.849 4.287.526.231 1.066.43 1.616.596.676.217 1.295.183 1.788.114.55-.08 1.685-.687 1.914-1.352.241-.665.241-1.227.16-1.353-.08-.126-.252-.183-.539-.32z" fill="#fff"/></svg>