<svg width="32" height="32" fill="none" xmlns="http://www.w3.org/2000/svg"><rect x="2" y="2" width="28" height="28" rx="4" fill="#66666A"/><path d="M13.133 6.831c-4.623 0-8.376 3.083-8.376 6.877 0 2.166 1.206 4.08 3.104 5.341l-.87 2.683 2.791-1.72a9.629 9.629 0 003.25.573 6.12 6.12 0 01-.457-2.292c0-3.794 3.495-6.877 7.817-6.877.212 0 .424 0 .625.034-1.139-2.683-4.222-4.619-7.884-4.619zm-3.35 2.865a1.093 1.093 0 01.79.336 1.151 1.151 0 01.327.81 1.174 1.174 0 01-.328.811 1.115 1.115 0 01-.79.336 1.1 1.1 0 01-.79-.336 1.162 1.162 0 01-.327-.81c0-.305.118-.596.328-.811.209-.215.493-.336.79-.336zm5.584 0a1.092 1.092 0 01.79.336 1.151 1.151 0 01.327.81 1.174 1.174 0 01-.327.811 1.115 1.115 0 01-.79.336c-.297 0-.58-.12-.79-.336a1.162 1.162 0 01-.327-.81c0-.305.117-.596.327-.811.21-.215.493-.336.79-.336zm5.025 2.866c-3.697 0-6.701 2.567-6.701 5.73 0 3.164 3.005 5.732 6.701 5.732.72.006 1.438-.09 2.133-.287l2.334 1.433-.692-2.144c1.753-1.043 2.926-2.773 2.926-4.733 0-3.164-3.004-5.73-6.7-5.73zm-2.233 2.865c.296 0 .58.12.79.336.21.215.327.507.327.81 0 .305-.118.596-.327.811a1.1 1.1 0 01-1.58 0 1.162 1.162 0 01-.327-.81c0-.305.117-.596.327-.811.21-.215.494-.336.79-.336zm4.467 0c.296 0 .58.12.79.336.21.215.327.507.327.81 0 .305-.118.596-.327.811a1.1 1.1 0 01-1.58 0 1.162 1.162 0 01-.327-.81c0-.305.117-.596.327-.811.21-.215.494-.336.79-.336z" fill="#fff"/></svg>