<svg width="40" height="40" fill="none" xmlns="http://www.w3.org/2000/svg"><g filter="url(#filter0_ii_3542_8864)"><path fill-rule="evenodd" clip-rule="evenodd" d="M8.125 10.25c0-.83.663-1.5 1.484-1.5h8.907c.82 0 1.484.67 1.484 1.5s-.663 1.5-1.484 1.5v8.006A8.25 8.25 0 0017.03 24.5c0 1.181.246 2.302.687 3.319a4.433 4.433 0 01-3.655 1.931c-2.459 0-4.454-2.016-4.454-4.5v-13.5a1.49 1.49 0 01-1.484-1.5zm4.453 6v-4.5h2.969v4.5h-2.969z" fill="#87E3EC"/></g><g filter="url(#filter1_ii_3542_8864)"><path fill-rule="evenodd" clip-rule="evenodd" d="M20.444 19.727a6.787 6.787 0 00-1.957 4.773c0 1.79.704 3.507 1.957 4.773a6.645 6.645 0 004.723 1.977c1.771 0 3.47-.711 4.723-1.977a6.786 6.786 0 001.957-4.773c0-1.79-.704-3.507-1.957-4.773a6.644 6.644 0 00-4.723-1.977c-1.772 0-3.47.711-4.723 1.977zm6.797 2.743a.74.74 0 011.048 0 .758.758 0 010 1.06l-3.34 3.375a.74.74 0 01-1.048 0l-1.856-1.875a.758.758 0 010-1.06.74.74 0 011.048 0l1.332 1.346 2.816-2.846z" fill="#FF8201"/></g><defs><filter id="filter0_ii_3542_8864" x="6.875" y="7.5" width="14.375" height="22.25" filterUnits="userSpaceOnUse" color-interpolation-filters="sRGB"><feFlood flood-opacity="0" result="BackgroundImageFix"/><feBlend in="SourceGraphic" in2="BackgroundImageFix" result="shape"/><feColorMatrix in="SourceAlpha" values="0 0 0 0 0 0 0 0 0 0 0 0 0 0 0 0 0 0 127 0" result="hardAlpha"/><feOffset dx="1.25" dy="-1.25"/><feGaussianBlur stdDeviation="1.25"/><feComposite in2="hardAlpha" operator="arithmetic" k2="-1" k3="1"/><feColorMatrix values="0 0 0 0 1 0 0 0 0 1 0 0 0 0 1 0 0 0 0.25 0"/><feBlend in2="shape" result="effect1_innerShadow_3542_8864"/><feColorMatrix in="SourceAlpha" values="0 0 0 0 0 0 0 0 0 0 0 0 0 0 0 0 0 0 127 0" result="hardAlpha"/><feOffset dx="-1.25" dy="-.625"/><feGaussianBlur stdDeviation=".781"/><feComposite in2="hardAlpha" operator="arithmetic" k2="-1" k3="1"/><feColorMatrix values="0 0 0 0 0 0 0 0 0 0.47451 0 0 0 0 0.521569 0 0 0 1 0"/><feBlend in2="effect1_innerShadow_3542_8864" result="effect2_innerShadow_3542_8864"/></filter><filter id="filter1_ii_3542_8864" x="17.237" y="17.125" width="15.859" height="14.125" filterUnits="userSpaceOnUse" color-interpolation-filters="sRGB"><feFlood flood-opacity="0" result="BackgroundImageFix"/><feBlend in="SourceGraphic" in2="BackgroundImageFix" result="shape"/><feColorMatrix in="SourceAlpha" values="0 0 0 0 0 0 0 0 0 0 0 0 0 0 0 0 0 0 127 0" result="hardAlpha"/><feOffset dx="1.25"/><feGaussianBlur stdDeviation="1.25"/><feComposite in2="hardAlpha" operator="arithmetic" k2="-1" k3="1"/><feColorMatrix values="0 0 0 0 1 0 0 0 0 1 0 0 0 0 1 0 0 0 0.25 0"/><feBlend in2="shape" result="effect1_innerShadow_3542_8864"/><feColorMatrix in="SourceAlpha" values="0 0 0 0 0 0 0 0 0 0 0 0 0 0 0 0 0 0 127 0" result="hardAlpha"/><feOffset dx="-1.25" dy="-.625"/><feGaussianBlur stdDeviation=".781"/><feComposite in2="hardAlpha" operator="arithmetic" k2="-1" k3="1"/><feColorMatrix values="0 0 0 0 0.721569 0 0 0 0 0.329412 0 0 0 0 0 0 0 0 1 0"/><feBlend in2="effect1_innerShadow_3542_8864" result="effect2_innerShadow_3542_8864"/></filter></defs></svg>