<svg width="40" height="40" fill="none" xmlns="http://www.w3.org/2000/svg"><g filter="url(#filter0_ii_3542_4509)"><path d="M23.608 5.247a2.95 2.95 0 100 5.902 2.95 2.95 0 000-5.902z" fill="#87E3EC"/></g><g filter="url(#filter1_i_3542_4509)"><path d="M16.014 27.506l-1.536 4.937c-.33 1.063-1.312 1.992-2.346 1.58a1.347 1.347 0 01-.088-.038c-1.024-.492-1.003-1.887-.62-2.957l1.691-4.71s-1.61-3.963-1.311-6.557c.537-4.65 2.95-9.18 7.705-9.18 1.954 0 3.454.843 4.262 2.623.82 1.803.63 2.542 1.64 3.86.327.428.938.834 1.533 1.159.976.532 1.948 1.504 1.254 2.372-.207.258-.688.31-1.142.292-.664-.025-1.296-.263-1.888-.564-.732-.372-1.722-.915-2.216-1.367-1.646-1.505-2.295-3.621-2.295-3.621s-.928 2.842-.492 4.918c.435 2.075 1.679 2.965 1.803 5.082.108 1.835-.068 4.665-.201 6.384-.076.976-.33 2.118-1.263 2.414a1.118 1.118 0 01-.34.055c-.216 0-.421-.07-.606-.172-.685-.376-.869-1.23-.869-2.01V26.44c0-.298-.044-.595-.145-.876-.284-.791-.96-2.484-1.822-3.345-.345-.345-1.08-.073-.984.405.219 1.09.364 2.584.437 3.46.04.48-.018.961-.161 1.42z" fill="#87E3EC"/></g><g filter="url(#filter2_i_3542_4509)"><path d="M26.723 22.624c0-.492-2.46.492-2.46-1.14 0-1.312 1.476-1.148 2.788-1.148 1.59 0 1.639.267 1.639 1.857v10.274c0 .906-.078 1.633-.984 1.633-.905 0-.983-.727-.983-1.633v-9.843z" fill="#FFB577"/></g><defs><filter id="filter0_ii_3542_4509" x="19.407" y="4.622" width="8.401" height="6.527" filterUnits="userSpaceOnUse" color-interpolation-filters="sRGB"><feFlood flood-opacity="0" result="BackgroundImageFix"/><feBlend in="SourceGraphic" in2="BackgroundImageFix" result="shape"/><feColorMatrix in="SourceAlpha" values="0 0 0 0 0 0 0 0 0 0 0 0 0 0 0 0 0 0 127 0" result="hardAlpha"/><feOffset dx="1.25"/><feGaussianBlur stdDeviation="1.25"/><feComposite in2="hardAlpha" operator="arithmetic" k2="-1" k3="1"/><feColorMatrix values="0 0 0 0 1 0 0 0 0 1 0 0 0 0 1 0 0 0 0.25 0"/><feBlend in2="shape" result="effect1_innerShadow_3542_4509"/><feColorMatrix in="SourceAlpha" values="0 0 0 0 0 0 0 0 0 0 0 0 0 0 0 0 0 0 127 0" result="hardAlpha"/><feOffset dx="-1.25" dy="-.625"/><feGaussianBlur stdDeviation=".82"/><feComposite in2="hardAlpha" operator="arithmetic" k2="-1" k3="1"/><feColorMatrix values="0 0 0 0 0 0 0 0 0 0.47451 0 0 0 0 0.521569 0 0 0 1 0"/><feBlend in2="effect1_innerShadow_3542_4509" result="effect2_innerShadow_3542_4509"/></filter><filter id="filter1_i_3542_4509" x="10.198" y="9.925" width="18.235" height="24.263" filterUnits="userSpaceOnUse" color-interpolation-filters="sRGB"><feFlood flood-opacity="0" result="BackgroundImageFix"/><feBlend in="SourceGraphic" in2="BackgroundImageFix" result="shape"/><feColorMatrix in="SourceAlpha" values="0 0 0 0 0 0 0 0 0 0 0 0 0 0 0 0 0 0 127 0" result="hardAlpha"/><feOffset dx="-.984" dy="-.656"/><feGaussianBlur stdDeviation=".82"/><feComposite in2="hardAlpha" operator="arithmetic" k2="-1" k3="1"/><feColorMatrix values="0 0 0 0 0 0 0 0 0 0.47451 0 0 0 0 0.521569 0 0 0 1 0"/><feBlend in2="shape" result="effect1_innerShadow_3542_4509"/></filter><filter id="filter2_i_3542_4509" x="23.608" y="20.001" width="5.083" height="14.099" filterUnits="userSpaceOnUse" color-interpolation-filters="sRGB"><feFlood flood-opacity="0" result="BackgroundImageFix"/><feBlend in="SourceGraphic" in2="BackgroundImageFix" result="shape"/><feColorMatrix in="SourceAlpha" values="0 0 0 0 0 0 0 0 0 0 0 0 0 0 0 0 0 0 127 0" result="hardAlpha"/><feOffset dx="-.656" dy="-.328"/><feGaussianBlur stdDeviation=".656"/><feComposite in2="hardAlpha" operator="arithmetic" k2="-1" k3="1"/><feColorMatrix values="0 0 0 0 0.866667 0 0 0 0 0.396078 0 0 0 0 0 0 0 0 1 0"/><feBlend in2="shape" result="effect1_innerShadow_3542_4509"/></filter></defs></svg>