<svg width="40" height="40" fill="none" xmlns="http://www.w3.org/2000/svg"><g filter="url(#filter0_i_3542_4428)"><circle cx="24.091" cy="18.459" r="12.202" fill="#87E3EC"/></g><g filter="url(#filter1_i_3542_4428)" fill="#fff"><path d="M16.996 20.393a.458.458 0 00.27.164c.306.062.61.093.91.093 1.377 0 2.065-.567 2.065-1.7 0-.483-.137-.854-.412-1.113-.27-.264-.656-.395-1.16-.395a1.7 1.7 0 00-.64.131h-.014c-.005 0-.007-.002-.007-.006l.04-.837c0-.035.02-.052.061-.052h1.525a.374.374 0 00.27-.112.357.357 0 00.114-.264v-.151a.356.356 0 00-.114-.264.374.374 0 00-.27-.112H17.4c-.108 0-.2.038-.277.112a.39.39 0 00-.128.264l-.094 2.015a.344.344 0 00.101.264c.072.074.16.112.263.112h.21a.895.895 0 00.181-.02c.068-.018.122-.033.162-.046l.19-.073a2.03 2.03 0 01.168-.065.72.72 0 01.27-.047c.45 0 .674.22.674.66 0 .54-.33.81-.991.81-.216 0-.506-.047-.87-.139a.297.297 0 00-.25.046.25.25 0 00-.115.218v.204c0 .114.034.215.101.303zm5.44.079a.373.373 0 00.27.112h.378a.373.373 0 00.27-.112.356.356 0 00.114-.264v-2.674a.356.356 0 00-.114-.264.374.374 0 00-.27-.111h-.378a.374.374 0 00-.27.111.356.356 0 00-.115.264v2.674c0 .101.039.19.115.264zm0-4.084a.374.374 0 00.27.112h.378a.374.374 0 00.27-.112.356.356 0 00.114-.264v-.105a.356.356 0 00-.114-.263.374.374 0 00-.27-.112h-.378a.374.374 0 00-.27.111.356.356 0 00-.115.264v.105c0 .101.039.19.115.264zm1.724 4.084a.373.373 0 00.27.112h.33a.351.351 0 00.263-.112.356.356 0 00.115-.264v-1.686c0-.145.065-.279.196-.402a.629.629 0 01.438-.19c.19 0 .32.05.392.15.071.097.107.277.107.54v1.588c0 .101.039.19.115.264a.373.373 0 00.27.112h.297a.351.351 0 00.263-.112.356.356 0 00.115-.264v-1.62c0-.545-.09-.929-.27-1.153-.18-.228-.475-.342-.884-.342-.41 0-.76.162-1.052.487l-.014.013c-.004 0-.006-.002-.006-.006l-.007-.053a.365.365 0 00-.122-.264.36.36 0 00-.27-.111h-.276a.374.374 0 00-.378.375v2.674c0 .101.036.19.108.264zm5.358-2.747a.18.18 0 00.203-.02l.985-.698h.013v3.201c0 .101.038.19.115.264a.373.373 0 00.27.112h.425a.373.373 0 00.27-.112.356.356 0 00.114-.264v-4.057a.356.356 0 00-.115-.264.373.373 0 00-.27-.112h-.424c-.261 0-.493.073-.695.218l-.682.487a.686.686 0 00-.31.593v.48c0 .08.034.137.101.172z"/></g><g filter="url(#filter2_i_3542_4428)"><path d="M14.296 15.625H4.742a.367.367 0 00-.367.367v2.205c0 .203.164.368.367.368h9.554a.367.367 0 00.367-.368v-2.205a.367.367 0 00-.367-.367z" fill="#FFB577"/></g><g filter="url(#filter3_i_3542_4428)"><path d="M14.663 23.709H4.375v2.205h10.288v-2.205z" fill="#F26F4E"/></g><g filter="url(#filter4_i_3542_4428)"><path d="M4.375 26.648v3.307a.368.368 0 00.367.368h9.554a.368.368 0 00.367-.368v-3.307H4.375z" fill="#F26F4E"/></g><g filter="url(#filter5_i_3542_4428)"><path d="M13.82 20.142a1.862 1.862 0 01-.58-.843H5.798c-.111.33-.312.622-.58.843a2.275 2.275 0 00-.843 1.73v1.102h10.288V21.87a2.277 2.277 0 00-.843-1.73z" fill="#F26F4E"/></g><g filter="url(#filter6_ii_3542_4428)"><path d="M23.086 25.155l-2.276-2.277-.91-.91a.33.33 0 00-.467.466l.678.677-1.345 1.345 1.832 1.832 1.344-1.345.678.678a.329.329 0 10.466-.466z" fill="#A4ADB5"/></g><g filter="url(#filter7_i_3542_4428)"><path d="M17.622 24.244a.33.33 0 00-.465 0l-5.464 5.464a.33.33 0 000 .466l1.36 1.36-2.953 2.954a.328.328 0 00-.004.47.33.33 0 00.47-.004L13.52 32l1.36 1.36a.33.33 0 00.466 0l1.133-1.132-1.599-1.6a.33.33 0 11.466-.465l1.599 1.599.9-.9-1.6-1.599a.33.33 0 01.467-.466l1.599 1.599.9-.9-1.599-1.599a.329.329 0 01.466-.466l1.599 1.6 1.133-1.134a.33.33 0 000-.466l-3.188-3.187z" fill="#FFB577"/></g><defs><filter id="filter0_i_3542_4428" x="11.889" y="5.632" width="25.388" height="25.03" filterUnits="userSpaceOnUse" color-interpolation-filters="sRGB"><feFlood flood-opacity="0" result="BackgroundImageFix"/><feBlend in="SourceGraphic" in2="BackgroundImageFix" result="shape"/><feColorMatrix in="SourceAlpha" values="0 0 0 0 0 0 0 0 0 0 0 0 0 0 0 0 0 0 127 0" result="hardAlpha"/><feOffset dx=".984" dy="-.626"/><feGaussianBlur stdDeviation="2.295"/><feComposite in2="hardAlpha" operator="arithmetic" k2="-1" k3="1"/><feColorMatrix values="0 0 0 0 0 0 0 0 0 0.47451 0 0 0 0 0.521569 0 0 0 1 0"/><feBlend in2="shape" result="effect1_innerShadow_3542_4428"/></filter><filter id="filter1_i_3542_4428" x="16.895" y="15.644" width="15.143" height="5.194" filterUnits="userSpaceOnUse" color-interpolation-filters="sRGB"><feFlood flood-opacity="0" result="BackgroundImageFix"/><feBlend in="SourceGraphic" in2="BackgroundImageFix" result="shape"/><feColorMatrix in="SourceAlpha" values="0 0 0 0 0 0 0 0 0 0 0 0 0 0 0 0 0 0 127 0" result="hardAlpha"/><feOffset dx=".125" dy=".188"/><feGaussianBlur stdDeviation=".156"/><feComposite in2="hardAlpha" operator="arithmetic" k2="-1" k3="1"/><feColorMatrix values="0 0 0 0 0 0 0 0 0 0 0 0 0 0 0 0 0 0 0.6 0"/><feBlend in2="shape" result="effect1_innerShadow_3542_4428"/></filter><filter id="filter2_i_3542_4428" x="4.375" y="14.999" width="11.54" height="3.565" filterUnits="userSpaceOnUse" color-interpolation-filters="sRGB"><feFlood flood-opacity="0" result="BackgroundImageFix"/><feBlend in="SourceGraphic" in2="BackgroundImageFix" result="shape"/><feColorMatrix in="SourceAlpha" values="0 0 0 0 0 0 0 0 0 0 0 0 0 0 0 0 0 0 127 0" result="hardAlpha"/><feOffset dx="1.252" dy="-.626"/><feGaussianBlur stdDeviation=".688"/><feComposite in2="hardAlpha" operator="arithmetic" k2="-1" k3="1"/><feColorMatrix values="0 0 0 0 0.866667 0 0 0 0 0.396078 0 0 0 0 0 0 0 0 1 0"/><feBlend in2="shape" result="effect1_innerShadow_3542_4428"/></filter><filter id="filter3_i_3542_4428" x="4.375" y="23.396" width="10.914" height="2.517" filterUnits="userSpaceOnUse" color-interpolation-filters="sRGB"><feFlood flood-opacity="0" result="BackgroundImageFix"/><feBlend in="SourceGraphic" in2="BackgroundImageFix" result="shape"/><feColorMatrix in="SourceAlpha" values="0 0 0 0 0 0 0 0 0 0 0 0 0 0 0 0 0 0 127 0" result="hardAlpha"/><feOffset dx=".626" dy="-.313"/><feGaussianBlur stdDeviation=".626"/><feComposite in2="hardAlpha" operator="arithmetic" k2="-1" k3="1"/><feColorMatrix values="0 0 0 0 0.682353 0 0 0 0 0.0156863 0 0 0 0 0 0 0 0 1 0"/><feBlend in2="shape" result="effect1_innerShadow_3542_4428"/></filter><filter id="filter4_i_3542_4428" x="4.375" y="25.397" width="11.54" height="4.926" filterUnits="userSpaceOnUse" color-interpolation-filters="sRGB"><feFlood flood-opacity="0" result="BackgroundImageFix"/><feBlend in="SourceGraphic" in2="BackgroundImageFix" result="shape"/><feColorMatrix in="SourceAlpha" values="0 0 0 0 0 0 0 0 0 0 0 0 0 0 0 0 0 0 127 0" result="hardAlpha"/><feOffset dx="1.252" dy="-1.252"/><feGaussianBlur stdDeviation=".939"/><feComposite in2="hardAlpha" operator="arithmetic" k2="-1" k3="1"/><feColorMatrix values="0 0 0 0 0.745098 0 0 0 0 0.219608 0 0 0 0 0.203922 0 0 0 1 0"/><feBlend in2="shape" result="effect1_innerShadow_3542_4428"/></filter><filter id="filter5_i_3542_4428" x="4.375" y="18.674" width="12.166" height="4.3" filterUnits="userSpaceOnUse" color-interpolation-filters="sRGB"><feFlood flood-opacity="0" result="BackgroundImageFix"/><feBlend in="SourceGraphic" in2="BackgroundImageFix" result="shape"/><feColorMatrix in="SourceAlpha" values="0 0 0 0 0 0 0 0 0 0 0 0 0 0 0 0 0 0 127 0" result="hardAlpha"/><feOffset dx="1.877" dy="-.626"/><feGaussianBlur stdDeviation=".939"/><feComposite in2="hardAlpha" operator="arithmetic" k2="-1" k3="1"/><feColorMatrix values="0 0 0 0 0.745098 0 0 0 0 0.219608 0 0 0 0 0.203922 0 0 0 1 0"/><feBlend in2="shape" result="effect1_innerShadow_3542_4428"/></filter><filter id="filter6_ii_3542_4428" x="18.14" y="21.875" width="5.671" height="5.039" filterUnits="userSpaceOnUse" color-interpolation-filters="sRGB"><feFlood flood-opacity="0" result="BackgroundImageFix"/><feBlend in="SourceGraphic" in2="BackgroundImageFix" result="shape"/><feColorMatrix in="SourceAlpha" values="0 0 0 0 0 0 0 0 0 0 0 0 0 0 0 0 0 0 127 0" result="hardAlpha"/><feOffset dx=".626"/><feGaussianBlur stdDeviation=".626"/><feComposite in2="hardAlpha" operator="arithmetic" k2="-1" k3="1"/><feColorMatrix values="0 0 0 0 0.12549 0 0 0 0 0.12549 0 0 0 0 0.12549 0 0 0 1 0"/><feBlend in2="shape" result="effect1_innerShadow_3542_4428"/><feColorMatrix in="SourceAlpha" values="0 0 0 0 0 0 0 0 0 0 0 0 0 0 0 0 0 0 127 0" result="hardAlpha"/><feOffset dx="-.626" dy=".626"/><feGaussianBlur stdDeviation=".626"/><feComposite in2="hardAlpha" operator="arithmetic" k2="-1" k3="1"/><feColorMatrix values="0 0 0 0 1 0 0 0 0 1 0 0 0 0 1 0 0 0 0.25 0"/><feBlend in2="effect1_innerShadow_3542_4428" result="effect2_innerShadow_3542_4428"/></filter><filter id="filter7_i_3542_4428" x="10" y="24.148" width="12.158" height="10.906" filterUnits="userSpaceOnUse" color-interpolation-filters="sRGB"><feFlood flood-opacity="0" result="BackgroundImageFix"/><feBlend in="SourceGraphic" in2="BackgroundImageFix" result="shape"/><feColorMatrix in="SourceAlpha" values="0 0 0 0 0 0 0 0 0 0 0 0 0 0 0 0 0 0 127 0" result="hardAlpha"/><feOffset dx="1.252"/><feGaussianBlur stdDeviation=".782"/><feComposite in2="hardAlpha" operator="arithmetic" k2="-1" k3="1"/><feColorMatrix values="0 0 0 0 0.866667 0 0 0 0 0.396078 0 0 0 0 0 0 0 0 1 0"/><feBlend in2="shape" result="effect1_innerShadow_3542_4428"/></filter></defs></svg>