<svg width="40" height="40" fill="none" xmlns="http://www.w3.org/2000/svg"><g clip-path="url(#clip0_3542_4376)"><g opacity=".987" filter="url(#filter0_i_3542_4376)"><path fill-rule="evenodd" clip-rule="evenodd" d="M19.644 13.75h.682a2.53 2.53 0 011.802 1.23c.433.18.83.415 1.193.706a.441.441 0 00.22-.097c.607-.252 1.139-.143 1.595.329.324.462.365.95.121 1.46a3.45 3.45 0 01-.304.378c.183.419.317.853.402 1.303.478.404.766.916.864 1.534v.707c-.15.813-.59 1.417-1.315 1.814.314.685.176 1.262-.414 1.73-.606.32-1.162.25-1.668-.208a5.52 5.52 0 01-2.789.792 2.572 2.572 0 01-1.485.791h-.682c-1.172-.234-1.866-.94-2.082-2.119a2.905 2.905 0 01.012-.645 5.523 5.523 0 01-1.267-3.47 1.602 1.602 0 01-.779-1.072v-.585c.235-.826.787-1.257 1.656-1.29.207-.325.447-.625.719-.901-.204-.603-.07-1.119.401-1.547.535-.344 1.067-.34 1.596.012.401-.47.909-.755 1.522-.852zm-1.023 2.143a.368.368 0 01.377.17c.18.7-.05 1.207-.694 1.523-.477.164-.903.079-1.278-.256-.135-.229-.082-.403.158-.524a.396.396 0 01.195 0c.254.232.53.264.828.098a.74.74 0 00.182-.28c.01-.163.01-.325 0-.487a.484.484 0 01.232-.244zm3.239.78c.888-.041 1.453.365 1.692 1.217.085.768-.22 1.316-.913 1.644-.753.244-1.357.046-1.814-.597-.323-.575-.299-1.135.073-1.68a1.62 1.62 0 01.962-.585zm-3.994 2.41c1.082-.056 1.825.415 2.228 1.413.253 1.012-.052 1.812-.913 2.399-.858.44-1.662.359-2.411-.244-.744-.773-.87-1.637-.378-2.593.349-.542.84-.867 1.474-.974zm4.335 2.12c.686-.01 1.12.316 1.303.974.057.75-.28 1.208-1.01 1.375-.592.028-1.01-.228-1.255-.767-.176-.834.145-1.362.962-1.583z" fill="#87E3EC"/></g><g filter="url(#filter1_i_3542_4376)"><path opacity=".966" fill-rule="evenodd" clip-rule="evenodd" d="M21.909 17.33c.59-.038.931.234 1.022.816-.075.587-.408.863-.998.828-.417-.113-.645-.385-.682-.816.034-.427.254-.703.657-.828z" fill="#FF8201"/></g><g filter="url(#filter2_i_3542_4376)"><path opacity=".979" fill-rule="evenodd" clip-rule="evenodd" d="M17.915 19.741c.97-.037 1.513.426 1.631 1.389-.109.94-.636 1.4-1.583 1.376-.754-.15-1.16-.608-1.217-1.377.057-.747.447-1.21 1.169-1.388z" fill="#FF8201"/></g><g filter="url(#filter3_i_3542_4376)"><path opacity=".947" fill-rule="evenodd" clip-rule="evenodd" d="M22.25 21.86c.29-.023.489.098.596.366.056.469-.15.692-.62.67-.385-.166-.487-.438-.305-.817a.573.573 0 01.329-.219z" fill="#FF8201"/></g><g opacity=".973" filter="url(#filter4_i_3542_4376)"><path fill-rule="evenodd" clip-rule="evenodd" d="M25.92 6.183l.75.341c.32.362.44.783.361 1.264-.202.469-.387.945-.553 1.428 4.032 2.604 6.089 6.297 6.171 11.079a13.925 13.925 0 01-.626 3.72c.442.256.894.494 1.355.715.376.31.561.707.557 1.19l-.34.75a1.46 1.46 0 01-1.264.362c-.47-.203-.946-.387-1.429-.553-2.604 4.03-6.297 6.088-11.078 6.17a13.927 13.927 0 01-3.722-.626 20.32 20.32 0 00-.713 1.355 1.46 1.46 0 01-1.19.557l-.75-.34a1.46 1.46 0 01-.362-1.264c.202-.47.387-.945.553-1.428-4.031-2.604-6.089-6.297-6.171-11.079.04-1.269.249-2.51.627-3.721a20.009 20.009 0 00-1.356-.714 1.46 1.46 0 01-.557-1.19l.341-.75a1.46 1.46 0 011.263-.362c.47.203.946.387 1.429.553 2.604-4.03 6.297-6.088 11.079-6.17 1.268.04 2.509.25 3.72.627.256-.443.494-.895.714-1.356a1.46 1.46 0 011.19-.557zm-.62 5.34c3.481 2.36 5.04 5.632 4.677 9.817a20.66 20.66 0 01-.346 1.685c-.886-.215-1.457.117-1.714.997-.06.575.162 1.01.666 1.305-1.77 2.65-4.221 4.206-7.356 4.665-1.402.152-2.78.031-4.133-.361.215-.885-.118-1.457-.997-1.714-.576-.06-1.01.163-1.305.666-2.651-1.769-4.206-4.221-4.666-7.356-.151-1.402-.03-2.78.362-4.133.885.215 1.456-.117 1.713-.997.06-.576-.162-1.01-.666-1.305 2.365-3.462 5.633-5.012 9.805-4.65a6.89 6.89 0 011.687.412c-.204.962.19 1.518 1.18 1.667.493-.03.858-.262 1.093-.698z" fill="#FC7F59"/></g></g><defs><filter id="filter0_i_3542_4376" x="12.5" y="13.125" width="13.719" height="13.094" filterUnits="userSpaceOnUse" color-interpolation-filters="sRGB"><feFlood flood-opacity="0" result="BackgroundImageFix"/><feBlend in="SourceGraphic" in2="BackgroundImageFix" result="shape"/><feColorMatrix in="SourceAlpha" values="0 0 0 0 0 0 0 0 0 0 0 0 0 0 0 0 0 0 127 0" result="hardAlpha"/><feOffset dx="-1.25" dy="-.625"/><feGaussianBlur stdDeviation=".781"/><feComposite in2="hardAlpha" operator="arithmetic" k2="-1" k3="1"/><feColorMatrix values="0 0 0 0 0 0 0 0 0 0.47451 0 0 0 0 0.521569 0 0 0 1 0"/><feBlend in2="shape" result="effect1_innerShadow_3542_4376"/></filter><filter id="filter1_i_3542_4376" x="20.626" y="17.327" width="2.306" height="1.65" filterUnits="userSpaceOnUse" color-interpolation-filters="sRGB"><feFlood flood-opacity="0" result="BackgroundImageFix"/><feBlend in="SourceGraphic" in2="BackgroundImageFix" result="shape"/><feColorMatrix in="SourceAlpha" values="0 0 0 0 0 0 0 0 0 0 0 0 0 0 0 0 0 0 127 0" result="hardAlpha"/><feOffset dx="-.625"/><feGaussianBlur stdDeviation=".313"/><feComposite in2="hardAlpha" operator="arithmetic" k2="-1" k3="1"/><feColorMatrix values="0 0 0 0 0.721569 0 0 0 0 0.329412 0 0 0 0 0 0 0 0 1 0"/><feBlend in2="shape" result="effect1_innerShadow_3542_4376"/></filter><filter id="filter2_i_3542_4376" x="15.808" y="19.114" width="3.738" height="3.392" filterUnits="userSpaceOnUse" color-interpolation-filters="sRGB"><feFlood flood-opacity="0" result="BackgroundImageFix"/><feBlend in="SourceGraphic" in2="BackgroundImageFix" result="shape"/><feColorMatrix in="SourceAlpha" values="0 0 0 0 0 0 0 0 0 0 0 0 0 0 0 0 0 0 127 0" result="hardAlpha"/><feOffset dx="-1.25" dy="-.625"/><feGaussianBlur stdDeviation=".469"/><feComposite in2="hardAlpha" operator="arithmetic" k2="-1" k3="1"/><feColorMatrix values="0 0 0 0 0.721569 0 0 0 0 0.329412 0 0 0 0 0 0 0 0 1 0"/><feBlend in2="shape" result="effect1_innerShadow_3542_4376"/></filter><filter id="filter3_i_3542_4376" x="21.209" y="21.857" width="1.647" height="1.04" filterUnits="userSpaceOnUse" color-interpolation-filters="sRGB"><feFlood flood-opacity="0" result="BackgroundImageFix"/><feBlend in="SourceGraphic" in2="BackgroundImageFix" result="shape"/><feColorMatrix in="SourceAlpha" values="0 0 0 0 0 0 0 0 0 0 0 0 0 0 0 0 0 0 127 0" result="hardAlpha"/><feOffset dx="-.625"/><feGaussianBlur stdDeviation=".469"/><feComposite in2="hardAlpha" operator="arithmetic" k2="-1" k3="1"/><feColorMatrix values="0 0 0 0 0.721569 0 0 0 0 0.329412 0 0 0 0 0 0 0 0 1 0"/><feBlend in2="shape" result="effect1_innerShadow_3542_4376"/></filter><filter id="filter4_i_3542_4376" x="4.933" y="5.558" width="29.002" height="28.377" filterUnits="userSpaceOnUse" color-interpolation-filters="sRGB"><feFlood flood-opacity="0" result="BackgroundImageFix"/><feBlend in="SourceGraphic" in2="BackgroundImageFix" result="shape"/><feColorMatrix in="SourceAlpha" values="0 0 0 0 0 0 0 0 0 0 0 0 0 0 0 0 0 0 127 0" result="hardAlpha"/><feOffset dx="-1.25" dy="-.625"/><feGaussianBlur stdDeviation=".781"/><feComposite in2="hardAlpha" operator="arithmetic" k2="-1" k3="1"/><feColorMatrix values="0 0 0 0 0.682353 0 0 0 0 0.0156863 0 0 0 0 0 0 0 0 1 0"/><feBlend in2="shape" result="effect1_innerShadow_3542_4376"/></filter><clipPath id="clip0_3542_4376"><path fill="#fff" d="M0 0h40v40H0z"/></clipPath></defs></svg>