<svg width="40" height="40" fill="none" xmlns="http://www.w3.org/2000/svg"><g filter="url(#filter0_ii_3542_3364)"><path d="M32.87 19.07c-1.738-1.492-1.694-1.448-1.774-1.506a1.948 1.948 0 00-2.376.297.514.514 0 01-.557.094 4.875 4.875 0 00-1.145-2.499l.457-.231a2.375 2.375 0 001.303-2.122.927.927 0 01.515-.833l1.137-.565a.725.725 0 10-.652-1.296c-1.108.521-2.448.984-2.448 2.694 0 .724-.507.825-1.514 1.332a4.765 4.765 0 00-1.904-.724.478.478 0 01.094-.558 1.948 1.948 0 00.224-2.476l-1.448-1.673a.725.725 0 00-1.101.941l1.383 1.615c.304.645-.79.724-.645 2.173-.91.114-1.77.486-2.476 1.072a2.708 2.708 0 00-1.304-1.449c-1.007-.5-.616-1.514-.427-2.433a.738.738 0 10-1.449-.283l-.217 1.108a2.665 2.665 0 001.448 2.897 1.238 1.238 0 01.616.725l.188.572-1.977 1.977c-1.079-2.006-2.527-.811-3.215-2.796a.724.724 0 10-1.376.457c.999 2.998 2.896 1.593 3.483 3.28.05.145.29-.152-2.281 2.42-.572.571-.37.564-.543.506a1.215 1.215 0 01-.725-.615 2.665 2.665 0 00-2.897-1.449l-1.108.217a.738.738 0 00.283 1.449c.949-.188 1.94-.558 2.433.434a2.673 2.673 0 001.39 1.268 4.603 4.603 0 00-.274 1.072 2.108 2.108 0 00-1.565.543c-.355.355-.586.087-2.354-.97a.724.724 0 00-.724 1.238l1.746 1.05a1.949 1.949 0 002.375-.297.515.515 0 01.558-.094c.094.706.341 1.383.724 1.984a2.368 2.368 0 00-1.354 2.144.926.926 0 01-.514.833l-1.152.616a.726.726 0 00.652 1.296c1.122-.572 2.462-1.036 2.462-2.745 0-.58.37-.76.92-1.036a5.135 5.135 0 002.499 1.13.492.492 0 01-.095.558 1.94 1.94 0 00-.29 2.375l1.044 1.746a.725.725 0 001.238-.724l-1.043-1.739c-.384-.644.775-.724.623-2.172a4.184 4.184 0 001.065-.268c.25.594.704 1.08 1.281 1.369 1.645.818-.485 2.983 1 3.28a.725.725 0 00.855-.565l.217-1.108a2.665 2.665 0 00-1.449-2.897 1.247 1.247 0 01-.644-.796c.347-.24.326-.247 2.853-2.774 1.84.616.391 2.52 3.382 3.52a.726.726 0 00.457-1.376c-2.02-.674-.724-2.079-2.745-3.238l1.977-1.977c.724.254 1.036.304 1.282.804a2.665 2.665 0 002.383 1.448 8.175 8.175 0 001.63-.268.737.737 0 10-.283-1.448c-.935.181-1.934.565-2.434-.434a2.709 2.709 0 00-1.448-1.304 5.004 5.004 0 001.079-2.491c1.405.13 1.514-.927 2.136-.63 1.724 1.535 1.71 1.6 2.065 1.6a.724.724 0 00.47-1.275zm-17.852 6.345a.724.724 0 110-1.448.724.724 0 010 1.448zm4.345 0a.724.724 0 110-1.448.724.724 0 010 1.448zm0-5.07a.724.724 0 110-1.448.724.724 0 010 1.448zm4.346-.724a1.45 1.45 0 110-2.898 1.45 1.45 0 010 2.898z" fill="#FF8E8B"/></g><g filter="url(#filter1_i_3542_3364)"><path d="M4.256 16.167c.73 0 .568-.05.659.147l-.426.42a.509.509 0 10.72.72c.507-.506.37-.436.568-.364v.598a.507.507 0 001.014 0v-.598c.203-.072.06-.148.568.364a.51.51 0 00.72-.72l-.426-.42c.09-.198-.071-.147.659-.147a.507.507 0 100-1.014c-.73 0-.568.05-.66-.147l.426-.42a.51.51 0 00-.72-.72l-.42.425c-.198-.091-.147.071-.147-.659a.507.507 0 10-1.014 0c0 .73.05.568-.147.659l-.42-.426a.509.509 0 10-.72.72l.425.42c-.091.199.071.148-.659.148a.507.507 0 000 1.014z" fill="#87E3EC"/></g><g filter="url(#filter2_ii_3542_3364)"><path d="M15.937 6.875c.45 0 .35-.031.406.09l-.263.26a.314.314 0 10.444.444c.313-.313.228-.269.35-.225v.369a.312.312 0 10.625 0v-.37c.125-.043.038-.09.35.226a.314.314 0 00.444-.444l-.263-.26c.056-.121-.044-.09.406-.09a.313.313 0 100-.625c-.45 0-.35.031-.406-.09l.263-.26a.314.314 0 00-.444-.444l-.26.263c-.121-.057-.09.043-.09-.407a.312.312 0 10-.625 0c0 .45.031.35-.09.407l-.26-.263a.313.313 0 10-.444.444l.263.26c-.056.121.044.09-.406.09a.312.312 0 100 .625z" fill="#A4ADB5"/></g><defs><filter id="filter0_ii_3542_3364" x="5.822" y="8.125" width="28.552" height="26.684" filterUnits="userSpaceOnUse" color-interpolation-filters="sRGB"><feFlood flood-opacity="0" result="BackgroundImageFix"/><feBlend in="SourceGraphic" in2="BackgroundImageFix" result="shape"/><feColorMatrix in="SourceAlpha" values="0 0 0 0 0 0 0 0 0 0 0 0 0 0 0 0 0 0 127 0" result="hardAlpha"/><feOffset dx="1.25"/><feGaussianBlur stdDeviation="1.25"/><feComposite in2="hardAlpha" operator="arithmetic" k2="-1" k3="1"/><feColorMatrix values="0 0 0 0 1 0 0 0 0 1 0 0 0 0 1 0 0 0 0.25 0"/><feBlend in2="shape" result="effect1_innerShadow_3542_3364"/><feColorMatrix in="SourceAlpha" values="0 0 0 0 0 0 0 0 0 0 0 0 0 0 0 0 0 0 127 0" result="hardAlpha"/><feOffset dx="-1.25" dy="-.625"/><feGaussianBlur stdDeviation=".781"/><feComposite in2="hardAlpha" operator="arithmetic" k2="-1" k3="1"/><feColorMatrix values="0 0 0 0 0.682353 0 0 0 0 0.0156863 0 0 0 0 0 0 0 0 1 0"/><feBlend in2="effect1_innerShadow_3542_3364" result="effect2_innerShadow_3542_3364"/></filter><filter id="filter1_i_3542_3364" x="3.124" y="13.125" width="5.694" height="5.099" filterUnits="userSpaceOnUse" color-interpolation-filters="sRGB"><feFlood flood-opacity="0" result="BackgroundImageFix"/><feBlend in="SourceGraphic" in2="BackgroundImageFix" result="shape"/><feColorMatrix in="SourceAlpha" values="0 0 0 0 0 0 0 0 0 0 0 0 0 0 0 0 0 0 127 0" result="hardAlpha"/><feOffset dx="-.625" dy=".03"/><feGaussianBlur stdDeviation=".469"/><feComposite in2="hardAlpha" operator="arithmetic" k2="-1" k3="1"/><feColorMatrix values="0 0 0 0 0.00833333 0 0 0 0 0.455639 0 0 0 0 0.5 0 0 0 1 0"/><feBlend in2="shape" result="effect1_innerShadow_3542_3364"/></filter><filter id="filter2_ii_3542_3364" x="14.999" y="4.375" width="6.25" height="3.75" filterUnits="userSpaceOnUse" color-interpolation-filters="sRGB"><feFlood flood-opacity="0" result="BackgroundImageFix"/><feBlend in="SourceGraphic" in2="BackgroundImageFix" result="shape"/><feColorMatrix in="SourceAlpha" values="0 0 0 0 0 0 0 0 0 0 0 0 0 0 0 0 0 0 127 0" result="hardAlpha"/><feOffset dx="2.5"/><feGaussianBlur stdDeviation="1.25"/><feComposite in2="hardAlpha" operator="arithmetic" k2="-1" k3="1"/><feColorMatrix values="0 0 0 0 1 0 0 0 0 1 0 0 0 0 1 0 0 0 0.25 0"/><feBlend in2="shape" result="effect1_innerShadow_3542_3364"/><feColorMatrix in="SourceAlpha" values="0 0 0 0 0 0 0 0 0 0 0 0 0 0 0 0 0 0 127 0" result="hardAlpha"/><feOffset dx="-.625" dy="-.625"/><feGaussianBlur stdDeviation=".313"/><feComposite in2="hardAlpha" operator="arithmetic" k2="-1" k3="1"/><feColorMatrix values="0 0 0 0 0.44533 0 0 0 0 0.468532 0 0 0 0 0.470833 0 0 0 1 0"/><feBlend in2="effect1_innerShadow_3542_3364" result="effect2_innerShadow_3542_3364"/></filter></defs></svg>