<svg width="40" height="40" fill="none" xmlns="http://www.w3.org/2000/svg"><g filter="url(#filter0_ii_2442_34492)" fill="#FC7F59"><path d="M18.362 3.607c-.542 0-1.078.026-1.607.078a.78.78 0 10.151 1.554 15.02 15.02 0 012.91 0 .78.78 0 00.152-1.554 16.582 16.582 0 00-1.606-.078zm-4.308 2.196a.78.78 0 10-.453-1.494c-1.037.314-2.03.728-2.97 1.231a.78.78 0 00.738 1.377c.85-.455 1.748-.83 2.685-1.114zm9.068-1.494a.78.78 0 10-.453 1.494c.938.284 1.836.659 2.685 1.114a.78.78 0 00.738-1.377 16.296 16.296 0 00-2.97-1.231zM8.952 8.534a.78.78 0 00-.991-1.206c-.83.681-1.59 1.443-2.272 2.272a.78.78 0 001.206.991c.617-.75 1.306-1.44 2.057-2.057zm19.81-1.206a.78.78 0 00-.991 1.206c.75.617 1.44 1.306 2.057 2.057a.78.78 0 001.206-.99 16.492 16.492 0 00-2.272-2.273zm-23.485 5.68a.78.78 0 10-1.376-.737 16.296 16.296 0 00-1.231 2.97.78.78 0 001.494.452 14.8 14.8 0 011.113-2.685zm27.545-.738a.78.78 0 10-1.376.738c.455.85.83 1.748 1.113 2.685a.78.78 0 101.494-.452 16.29 16.29 0 00-1.23-2.97zM3.6 18.545a.78.78 0 00-1.554-.15 16.583 16.583 0 000 3.212.78.78 0 001.554-.15 15.025 15.025 0 010-2.912zm31.078-.151a.78.78 0 00-1.554.151 15.047 15.047 0 010 2.911.78.78 0 101.554.151 16.57 16.57 0 000-3.213zM4.164 24.308a.78.78 0 00-1.494.453c.314 1.037.728 2.03 1.231 2.97a.78.78 0 101.376-.738 14.77 14.77 0 01-1.113-2.685zm29.889.452a.78.78 0 10-1.494-.452 14.742 14.742 0 01-1.113 2.686.78.78 0 101.376.737 16.29 16.29 0 001.231-2.97zM6.895 29.41a.78.78 0 00-1.206.991c.681.83 1.443 1.591 2.272 2.272a.78.78 0 10.991-1.206 14.93 14.93 0 01-2.057-2.057zm24.139.991a.78.78 0 00-1.206-.99c-.617.75-1.306 1.44-2.057 2.056a.78.78 0 10.991 1.206 16.37 16.37 0 002.272-2.272zm-19.665 2.684a.78.78 0 00-.737 1.376c.938.503 1.932.917 2.97 1.232a.78.78 0 00.452-1.495 14.727 14.727 0 01-2.685-1.113zm14.722 1.376a.78.78 0 00-.737-1.376c-.849.455-1.747.83-2.685 1.113a.78.78 0 00.453 1.495 16.305 16.305 0 002.97-1.232zm-9.185.302a.78.78 0 10-.151 1.554 16.603 16.603 0 003.213 0 .78.78 0 10-.151-1.554 15.013 15.013 0 01-2.91 0z"/></g><g filter="url(#filter1_ii_2442_34492)"><path d="M12.132 11.148c.601.335 4.08 2.057 4.655 2.34.055.028.11.051.167.072 1.332.467 2.138.43 3.592-.031l4.7-2.217c.329-.164 1.394-.492 1.804.328.41.82-.328 1.56-.656 1.725L21.65 15.86l.094 7.751.592 6.878c.099.52 0 1.594-1.183 1.72-1.184.124-1.578-.678-1.627-1.095l-.592-6.565-.67.048c-.198 1.771-.592 5.564-.592 6.565-.444.937-.74 1.25-1.775 1.094-.829-.125-.937-1.303-.888-1.876l.592-6.721v-7.594s-3.907-2.296-4.453-2.623c-.82-.492-1.64-1.148-.983-2.131.491-.738 1.311-.53 1.967-.164z" fill="#87E3EC"/><ellipse cx="18.646" cy="10.526" rx="2.515" ry="2.657" fill="#1DB9C9"/></g><g filter="url(#filter2_iii_2442_34492)"><path d="M38.06 33.853a.79.79 0 01-.258.182.756.756 0 01-.866-.182l-3.138-3.313a5.862 5.862 0 01-4.303 1.297c-1.538-.16-2.96-.931-3.98-2.158a6.645 6.645 0 01-1.507-4.447c.05-1.63.687-3.18 1.78-4.333 1.092-1.154 2.56-1.826 4.105-1.879a5.897 5.897 0 014.213 1.591c1.162 1.076 1.892 2.578 2.044 4.202a6.683 6.683 0 01-1.229 4.541l3.142 3.316c.148.157.23.37.23.592a.86.86 0 01-.234.59z" fill="#FF8201"/></g><g filter="url(#filter3_d_2442_34492)"><path fill-rule="evenodd" clip-rule="evenodd" d="M30.156 30.13a4.43 4.43 0 002.536-.803 4.725 4.725 0 001.681-2.138c.346-.87.436-1.827.26-2.751a4.831 4.831 0 00-1.25-2.439 4.509 4.509 0 00-2.336-1.303 4.387 4.387 0 00-2.637.27 4.611 4.611 0 00-2.049 1.755 4.911 4.911 0 00-.77 2.646 4.875 4.875 0 001.34 3.366 4.476 4.476 0 003.225 1.397zm2.718-4.169a.86.86 0 00.236-.594.86.86 0 00-.236-.595.789.789 0 00-.57-.246h-1.342v-1.4a.86.86 0 00-.236-.595.789.789 0 00-.57-.246.79.79 0 00-.57.246.86.86 0 00-.235.595v1.4h-1.343a.789.789 0 00-.57.247.86.86 0 00-.235.594.86.86 0 00.236.594.789.789 0 00.57.246h1.342v1.401a.86.86 0 00.236.595.79.79 0 00.57.246.789.789 0 00.569-.247.86.86 0 00.236-.594v-1.4h1.342a.789.789 0 00.57-.247z" fill="#fff"/></g><defs><filter id="filter0_ii_2442_34492" x="1.312" y="3.279" width="34.099" height="33.443" filterUnits="userSpaceOnUse" color-interpolation-filters="sRGB"><feFlood flood-opacity="0" result="BackgroundImageFix"/><feBlend in="SourceGraphic" in2="BackgroundImageFix" result="shape"/><feColorMatrix in="SourceAlpha" values="0 0 0 0 0 0 0 0 0 0 0 0 0 0 0 0 0 0 127 0" result="hardAlpha"/><feOffset dx="-.984" dy="-.328"/><feGaussianBlur stdDeviation=".328"/><feComposite in2="hardAlpha" operator="arithmetic" k2="-1" k3="1"/><feColorMatrix values="0 0 0 0 0.945833 0 0 0 0 0.220501 0 0 0 0 0 0 0 0 1 0"/><feBlend in2="shape" result="effect1_innerShadow_2442_34492"/><feColorMatrix in="SourceAlpha" values="0 0 0 0 0 0 0 0 0 0 0 0 0 0 0 0 0 0 127 0" result="hardAlpha"/><feOffset dx=".656" dy=".328"/><feGaussianBlur stdDeviation=".492"/><feComposite in2="hardAlpha" operator="arithmetic" k2="-1" k3="1"/><feColorMatrix values="0 0 0 0 1 0 0 0 0 1 0 0 0 0 1 0 0 0 0.55 0"/><feBlend in2="effect1_innerShadow_2442_34492" result="effect2_innerShadow_2442_34492"/></filter><filter id="filter1_ii_2442_34492" x="9.333" y="6.587" width="19.087" height="27.675" filterUnits="userSpaceOnUse" color-interpolation-filters="sRGB"><feFlood flood-opacity="0" result="BackgroundImageFix"/><feBlend in="SourceGraphic" in2="BackgroundImageFix" result="shape"/><feColorMatrix in="SourceAlpha" values="0 0 0 0 0 0 0 0 0 0 0 0 0 0 0 0 0 0 127 0" result="hardAlpha"/><feOffset dx="-.593" dy="-1.282"/><feGaussianBlur stdDeviation=".774"/><feComposite in2="hardAlpha" operator="arithmetic" k2="-1" k3="1"/><feColorMatrix values="0 0 0 0 0 0 0 0 0 0.47451 0 0 0 0 0.521569 0 0 0 1 0"/><feBlend in2="shape" result="effect1_innerShadow_2442_34492"/><feColorMatrix in="SourceAlpha" values="0 0 0 0 0 0 0 0 0 0 0 0 0 0 0 0 0 0 127 0" result="hardAlpha"/><feOffset dx="1.249" dy="1.967"/><feGaussianBlur stdDeviation="1.312"/><feComposite in2="hardAlpha" operator="arithmetic" k2="-1" k3="1"/><feColorMatrix values="0 0 0 0 1 0 0 0 0 1 0 0 0 0 1 0 0 0 0.4 0"/><feBlend in2="effect1_innerShadow_2442_34492" result="effect2_innerShadow_2442_34492"/></filter><filter id="filter2_iii_2442_34492" x="23.379" y="18.392" width="19.914" height="15.707" filterUnits="userSpaceOnUse" color-interpolation-filters="sRGB"><feFlood flood-opacity="0" result="BackgroundImageFix"/><feBlend in="SourceGraphic" in2="BackgroundImageFix" result="shape"/><feColorMatrix in="SourceAlpha" values="0 0 0 0 0 0 0 0 0 0 0 0 0 0 0 0 0 0 127 0" result="hardAlpha"/><feOffset dx="-.625" dy="-.625"/><feGaussianBlur stdDeviation=".313"/><feComposite in2="hardAlpha" operator="arithmetic" k2="-1" k3="1"/><feColorMatrix values="0 0 0 0 0.866667 0 0 0 0 0.396078 0 0 0 0 0 0 0 0 1 0"/><feBlend in2="shape" result="effect1_innerShadow_2442_34492"/><feColorMatrix in="SourceAlpha" values="0 0 0 0 0 0 0 0 0 0 0 0 0 0 0 0 0 0 127 0" result="hardAlpha"/><feOffset dx=".313"/><feGaussianBlur stdDeviation=".313"/><feComposite in2="hardAlpha" operator="arithmetic" k2="-1" k3="1"/><feColorMatrix values="0 0 0 0 0.866667 0 0 0 0 0.396078 0 0 0 0 0 0 0 0 1 0"/><feBlend in2="effect1_innerShadow_2442_34492" result="effect2_innerShadow_2442_34492"/><feColorMatrix in="SourceAlpha" values="0 0 0 0 0 0 0 0 0 0 0 0 0 0 0 0 0 0 127 0" result="hardAlpha"/><feOffset dx="5"/><feGaussianBlur stdDeviation="3.438"/><feComposite in2="hardAlpha" operator="arithmetic" k2="-1" k3="1"/><feColorMatrix values="0 0 0 0 1 0 0 0 0 1 0 0 0 0 1 0 0 0 0.25 0"/><feBlend in2="effect2_innerShadow_2442_34492" result="effect3_innerShadow_2442_34492"/></filter><filter id="filter3_d_2442_34492" x="24.967" y="20.604" width="10.379" height="10.776" filterUnits="userSpaceOnUse" color-interpolation-filters="sRGB"><feFlood flood-opacity="0" result="BackgroundImageFix"/><feColorMatrix in="SourceAlpha" values="0 0 0 0 0 0 0 0 0 0 0 0 0 0 0 0 0 0 127 0" result="hardAlpha"/><feOffset dy=".625"/><feGaussianBlur stdDeviation=".313"/><feComposite in2="hardAlpha" operator="out"/><feColorMatrix values="0 0 0 0 0.866667 0 0 0 0 0.396078 0 0 0 0 0 0 0 0 1 0"/><feBlend in2="BackgroundImageFix" result="effect1_dropShadow_2442_34492"/><feBlend in="SourceGraphic" in2="effect1_dropShadow_2442_34492" result="shape"/></filter></defs></svg>