<svg width="40" height="40" fill="none" xmlns="http://www.w3.org/2000/svg"><g filter="url(#filter0_i_3542_8351)"><path d="M28.806 6.25H11.412a.787.787 0 00-.787.787v25.3c0 .435.352.788.787.788h17.394a.787.787 0 00.788-.787v-25.3a.787.787 0 00-.788-.788zm-14.231 6.325h4.744a.787.787 0 010 1.575h-4.744a.787.787 0 010-1.575zm-.787-2.375c0-.435.352-.787.787-.787h4.744a.787.787 0 010 1.574h-4.744a.787.787 0 01-.787-.787zm.787 5.538h4.744a.787.787 0 010 1.574h-4.744a.787.787 0 010-1.574zm0 3.162h11.069a.787.787 0 010 1.575h-11.07a.787.787 0 010-1.575zm6.675-8.7c0-.512.313-.825.625-.825h1.875c.625 0 .938 2.188.938 2.188s.312-2.188.937-2.188H27.5c.313 0 .625.313.625.825s-1.875 4.175-1.875 4.175v1.875c0 .938-.313 1.25-.938 1.25h-1.25c-.625 0-.937-.313-.937-1.25v-1.875S21.25 10.712 21.25 10.2zm-6.675 11.863h11.069a.787.787 0 010 1.574h-11.07a.787.787 0 010-1.574zm0 3.162h11.069a.787.787 0 010 1.575h-11.07a.787.787 0 010-1.575zm0 3.163h11.069a.787.787 0 010 1.574h-11.07a.787.787 0 010-1.574z" fill="#87E3EC"/></g><g filter="url(#filter1_i_3542_8351)"><path d="M21.915 10.47l1.93 3.693a.334.334 0 01.027.16v2.015c0 .145.053.27.158.377.105.107.229.16.37.16h.576a.475.475 0 00.362-.16.52.52 0 00.158-.377v-2.015c0-.063.012-.116.037-.16l1.93-3.692a.284.284 0 00-.02-.31.295.295 0 00-.268-.161h-.715a.778.778 0 00-.724.49l-1.02 2.448c0 .007-.003.01-.009.01-.006 0-.01-.003-.01-.01l-1.02-2.448a.779.779 0 00-.723-.49h-.752a.302.302 0 00-.278.16.296.296 0 00-.01.31z" fill="#FF8201"/></g><defs><filter id="filter0_i_3542_8351" x="9.375" y="5.625" width="20.219" height="27.5" filterUnits="userSpaceOnUse" color-interpolation-filters="sRGB"><feFlood flood-opacity="0" result="BackgroundImageFix"/><feBlend in="SourceGraphic" in2="BackgroundImageFix" result="shape"/><feColorMatrix in="SourceAlpha" values="0 0 0 0 0 0 0 0 0 0 0 0 0 0 0 0 0 0 127 0" result="hardAlpha"/><feOffset dx="-1.25" dy="-.625"/><feGaussianBlur stdDeviation=".938"/><feComposite in2="hardAlpha" operator="arithmetic" k2="-1" k3="1"/><feColorMatrix values="0 0 0 0 0 0 0 0 0 0.47451 0 0 0 0 0.521569 0 0 0 1 0"/><feBlend in2="shape" result="effect1_innerShadow_3542_8351"/></filter><filter id="filter1_i_3542_8351" x="21.547" y="9.672" width="5.953" height="7.203" filterUnits="userSpaceOnUse" color-interpolation-filters="sRGB"><feFlood flood-opacity="0" result="BackgroundImageFix"/><feBlend in="SourceGraphic" in2="BackgroundImageFix" result="shape"/><feColorMatrix in="SourceAlpha" values="0 0 0 0 0 0 0 0 0 0 0 0 0 0 0 0 0 0 127 0" result="hardAlpha"/><feOffset dx="-.328" dy="-.328"/><feGaussianBlur stdDeviation=".469"/><feComposite in2="hardAlpha" operator="arithmetic" k2="-1" k3="1"/><feColorMatrix values="0 0 0 0 0.720833 0 0 0 0 0.330153 0 0 0 0 0 0 0 0 1 0"/><feBlend in2="shape" result="effect1_innerShadow_3542_8351"/></filter></defs></svg>