<svg width="40" height="40" fill="none" xmlns="http://www.w3.org/2000/svg"><g filter="url(#filter0_ii_3542_11338)"><path d="M32.99 11.162a.702.702 0 00-.703-.702h-.701V6.952a.702.702 0 10-1.403 0v3.508h-.702a.701.701 0 00-.702.701v2.105h4.21v-2.104z" fill="#87E3EC"/></g><g filter="url(#filter1_ii_3542_11338)"><path d="M34.392 32.912H32.99v-2.806h-4.21v2.806h-1.403a.702.702 0 100 1.403h7.016a.702.702 0 100-1.403z" fill="#A4ADB5"/></g><g filter="url(#filter2_ii_3542_11338)"><path d="M34.392 14.67h-7.016a.702.702 0 00-.702.701v1.403h1.404a.702.702 0 010 1.404h-1.404v1.403h1.404a.701.701 0 110 1.403h-1.404v1.403h1.404a.702.702 0 010 1.404h-1.404v1.403h1.404a.701.701 0 110 1.403h-1.404V28a.702.702 0 00.702.702h7.016a.702.702 0 00.702-.702V15.371a.702.702 0 00-.702-.702z" fill="#87E3EC"/></g><g filter="url(#filter3_i_3542_11338)"><circle cx="14.705" cy="24.091" r="10.325" fill="#FF8201"/></g><g filter="url(#filter4_i_3542_11338)"><path fill-rule="evenodd" clip-rule="evenodd" d="M14.516 22.875v1.475c0 .031.02.052.062.06.155.019.278.028.37.028.328 0 .58-.075.759-.223.182-.154.273-.366.273-.636 0-.537-.344-.806-1.033-.806-.114 0-.24.012-.376.034-.037.01-.055.032-.055.068zm-.752 4.032a.377.377 0 01-.274-.115.368.368 0 01-.116-.27v-4.134c0-.108.036-.205.11-.29a.39.39 0 01.273-.143c.388-.036.761-.054 1.122-.054 1.46 0 2.189.537 2.189 1.61 0 .582-.171 1.024-.513 1.326-.338.297-.835.446-1.492.446-.173 0-.335-.007-.485-.02-.041 0-.062.018-.062.054v1.204a.368.368 0 01-.116.27.377.377 0 01-.274.116h-.362zm-5.24 0a.377.377 0 01-.273-.115.368.368 0 01-.116-.27v-4.168c0-.104.039-.194.116-.27a.377.377 0 01.274-.116h.39c.105 0 .193.039.266.116a.368.368 0 01.117.27v1.488c0 .041.02.061.061.061h1.41c.04 0 .061-.02.061-.06v-1.489a.38.38 0 01.11-.27.377.377 0 01.273-.116h.39c.105 0 .196.039.274.116a.369.369 0 01.116.27v4.167a.369.369 0 01-.116.27.377.377 0 01-.274.116h-.39a.377.377 0 01-.273-.115.38.38 0 01-.11-.27V24.83c0-.036-.02-.054-.061-.054h-1.41c-.04 0-.061.018-.061.054v1.691a.368.368 0 01-.117.27.355.355 0 01-.266.116h-.39zm9.167-4.823a.26.26 0 00-.034.25l1.382 4.208a.533.533 0 00.506.365h.451a.514.514 0 00.315-.102.483.483 0 00.192-.263l1.381-4.208a.25.25 0 00-.04-.25.263.263 0 00-.226-.116h-.431a.483.483 0 00-.308.109.46.46 0 00-.178.264l-.924 3.456c0 .005-.002.007-.006.007-.005 0-.007-.002-.007-.007l-.896-3.456a.46.46 0 00-.178-.264.483.483 0 00-.308-.109h-.459a.28.28 0 00-.232.116z" fill="#fff"/></g><defs><filter id="filter0_ii_3542_11338" x="28.154" y="5.624" width="5.461" height="8.894" filterUnits="userSpaceOnUse" color-interpolation-filters="sRGB"><feFlood flood-opacity="0" result="BackgroundImageFix"/><feBlend in="SourceGraphic" in2="BackgroundImageFix" result="shape"/><feColorMatrix in="SourceAlpha" values="0 0 0 0 0 0 0 0 0 0 0 0 0 0 0 0 0 0 127 0" result="hardAlpha"/><feOffset dx="-.626" dy="-.626"/><feGaussianBlur stdDeviation=".469"/><feComposite in2="hardAlpha" operator="arithmetic" k2="-1" k3="1"/><feColorMatrix values="0 0 0 0 0 0 0 0 0 0.47451 0 0 0 0 0.521569 0 0 0 1 0"/><feBlend in2="shape" result="effect1_innerShadow_3542_11338"/><feColorMatrix in="SourceAlpha" values="0 0 0 0 0 0 0 0 0 0 0 0 0 0 0 0 0 0 127 0" result="hardAlpha"/><feOffset dx=".626" dy="1.252"/><feGaussianBlur stdDeviation=".939"/><feComposite in2="hardAlpha" operator="arithmetic" k2="-1" k3="1"/><feColorMatrix values="0 0 0 0 1 0 0 0 0 1 0 0 0 0 1 0 0 0 0.25 0"/><feBlend in2="effect1_innerShadow_3542_11338" result="effect2_innerShadow_3542_11338"/></filter><filter id="filter1_ii_3542_11338" x="26.049" y="29.48" width="9.045" height="5.461" filterUnits="userSpaceOnUse" color-interpolation-filters="sRGB"><feFlood flood-opacity="0" result="BackgroundImageFix"/><feBlend in="SourceGraphic" in2="BackgroundImageFix" result="shape"/><feColorMatrix in="SourceAlpha" values="0 0 0 0 0 0 0 0 0 0 0 0 0 0 0 0 0 0 127 0" result="hardAlpha"/><feOffset dx="-.626" dy="-.626"/><feGaussianBlur stdDeviation=".469"/><feComposite in2="hardAlpha" operator="arithmetic" k2="-1" k3="1"/><feColorMatrix values="0 0 0 0 0.125 0 0 0 0 0.125 0 0 0 0 0.125 0 0 0 1 0"/><feBlend in2="shape" result="effect1_innerShadow_3542_11338"/><feColorMatrix in="SourceAlpha" values="0 0 0 0 0 0 0 0 0 0 0 0 0 0 0 0 0 0 127 0" result="hardAlpha"/><feOffset dy=".626"/><feGaussianBlur stdDeviation="1.252"/><feComposite in2="hardAlpha" operator="arithmetic" k2="-1" k3="1"/><feColorMatrix values="0 0 0 0 1 0 0 0 0 1 0 0 0 0 1 0 0 0 0.25 0"/><feBlend in2="effect1_innerShadow_3542_11338" result="effect2_innerShadow_3542_11338"/></filter><filter id="filter2_ii_3542_11338" x="25.423" y="14.044" width="10.922" height="15.284" filterUnits="userSpaceOnUse" color-interpolation-filters="sRGB"><feFlood flood-opacity="0" result="BackgroundImageFix"/><feBlend in="SourceGraphic" in2="BackgroundImageFix" result="shape"/><feColorMatrix in="SourceAlpha" values="0 0 0 0 0 0 0 0 0 0 0 0 0 0 0 0 0 0 127 0" result="hardAlpha"/><feOffset dx="-1.252" dy="-.626"/><feGaussianBlur stdDeviation=".782"/><feComposite in2="hardAlpha" operator="arithmetic" k2="-1" k3="1"/><feColorMatrix values="0 0 0 0 0 0 0 0 0 0.47451 0 0 0 0 0.521569 0 0 0 1 0"/><feBlend in2="shape" result="effect1_innerShadow_3542_11338"/><feColorMatrix in="SourceAlpha" values="0 0 0 0 0 0 0 0 0 0 0 0 0 0 0 0 0 0 127 0" result="hardAlpha"/><feOffset dx="1.252" dy=".626"/><feGaussianBlur stdDeviation=".939"/><feComposite in2="hardAlpha" operator="arithmetic" k2="-1" k3="1"/><feColorMatrix values="0 0 0 0 1 0 0 0 0 1 0 0 0 0 1 0 0 0 0.25 0"/><feBlend in2="effect1_innerShadow_3542_11338" result="effect2_innerShadow_3542_11338"/></filter><filter id="filter3_i_3542_11338" x="3.129" y="13.14" width="21.901" height="21.276" filterUnits="userSpaceOnUse" color-interpolation-filters="sRGB"><feFlood flood-opacity="0" result="BackgroundImageFix"/><feBlend in="SourceGraphic" in2="BackgroundImageFix" result="shape"/><feColorMatrix in="SourceAlpha" values="0 0 0 0 0 0 0 0 0 0 0 0 0 0 0 0 0 0 127 0" result="hardAlpha"/><feOffset dx="-1.252" dy="-.626"/><feGaussianBlur stdDeviation=".939"/><feComposite in2="hardAlpha" operator="arithmetic" k2="-1" k3="1"/><feColorMatrix values="0 0 0 0 0.721569 0 0 0 0 0.329412 0 0 0 0 0 0 0 0 1 0"/><feBlend in2="shape" result="effect1_innerShadow_3542_11338"/></filter><filter id="filter4_i_3542_11338" x="8.135" y="21.901" width="13.892" height="5.194" filterUnits="userSpaceOnUse" color-interpolation-filters="sRGB"><feFlood flood-opacity="0" result="BackgroundImageFix"/><feBlend in="SourceGraphic" in2="BackgroundImageFix" result="shape"/><feColorMatrix in="SourceAlpha" values="0 0 0 0 0 0 0 0 0 0 0 0 0 0 0 0 0 0 127 0" result="hardAlpha"/><feOffset dx=".125" dy=".188"/><feGaussianBlur stdDeviation=".156"/><feComposite in2="hardAlpha" operator="arithmetic" k2="-1" k3="1"/><feColorMatrix values="0 0 0 0 0 0 0 0 0 0 0 0 0 0 0 0 0 0 0.45 0"/><feBlend in2="shape" result="effect1_innerShadow_3542_11338"/></filter></defs></svg>