<svg width="40" height="40" fill="none" xmlns="http://www.w3.org/2000/svg"><g filter="url(#filter0_i_3542_7564)"><path d="M11.875 30.068c0 .665.268 1.302.742 1.772a2.55 2.55 0 001.79.736h11.812c.67 0 1.314-.265 1.789-.736a2.5 2.5 0 00.742-1.772v-1.672H11.875v1.672z" fill="#FC7F59"/></g><g filter="url(#filter1_i_3542_7564)"><path d="M24.531 7.5h-8.437a.84.84 0 00-.844.836v2.508a.84.84 0 00.844.835h8.437a.84.84 0 00.844-.835V8.335a.84.84 0 00-.844-.836z" fill="#FFB577"/></g><g filter="url(#filter2_i_3542_7564)"><path d="M23.688 14.187v-1.672h-6.75v1.672a5.097 5.097 0 00-3.264 1.188 5.01 5.01 0 00-1.723 2.991h16.723a5.01 5.01 0 00-1.723-2.991 5.097 5.097 0 00-3.263-1.188z" fill="#FC7F59"/></g><g filter="url(#filter3_i_3542_7564)"><path fill="#87E3EC" d="M11.875 20H28.75v6.875H11.875z"/></g><g filter="url(#filter4_i_3542_7564)" fill="#fff"><path d="M16.18 22.885a.2.2 0 00.226-.022l1.106-.799h.015v3.66c0 .116.043.217.13.302a.416.416 0 00.302.128h.477a.416.416 0 00.303-.128.411.411 0 00.13-.301v-4.64a.411.411 0 00-.13-.301.415.415 0 00-.303-.128h-.477a1.29 1.29 0 00-.78.248l-.765.558a.79.79 0 00-.349.678v.55c0 .09.038.155.114.195zm4.774-1.325a.416.416 0 00.303.128h1.704c.006 0 .008.002.008.007v.008l-1.076.926a.883.883 0 00-.325.7v.016a.428.428 0 00.432.422c.51.005.858.057 1.045.158.187.1.28.273.28.52 0 .24-.08.429-.242.564-.162.136-.39.204-.682.204-.323 0-.702-.07-1.136-.211a.31.31 0 00-.28.045.267.267 0 00-.122.233v.257c0 .13.038.248.114.354.08.1.182.165.303.195.414.096.823.144 1.227.144.672 0 1.187-.156 1.545-.468.359-.31.538-.758.538-1.34 0-.462-.134-.829-.401-1.1-.263-.271-.614-.407-1.053-.407h-.091c-.005 0-.008-.002-.008-.007V22.9l1.144-.941a.862.862 0 00.333-.7v-.174a.411.411 0 00-.128-.301.415.415 0 00-.303-.128h-2.826a.416.416 0 00-.303.128.411.411 0 00-.129.301v.173a.41.41 0 00.13.302z"/></g><defs><filter id="filter0_i_3542_7564" x="9.998" y="28.396" width="18.752" height="4.179" filterUnits="userSpaceOnUse" color-interpolation-filters="sRGB"><feFlood flood-opacity="0" result="BackgroundImageFix"/><feBlend in="SourceGraphic" in2="BackgroundImageFix" result="shape"/><feColorMatrix in="SourceAlpha" values="0 0 0 0 0 0 0 0 0 0 0 0 0 0 0 0 0 0 127 0" result="hardAlpha"/><feOffset dx="-1.877"/><feGaussianBlur stdDeviation="1.252"/><feComposite in2="hardAlpha" operator="arithmetic" k2="-1" k3="1"/><feColorMatrix values="0 0 0 0 0.682353 0 0 0 0 0.0156863 0 0 0 0 0 0 0 0 1 0"/><feBlend in2="shape" result="effect1_innerShadow_3542_7564"/></filter><filter id="filter1_i_3542_7564" x="13.686" y="7.5" width="11.689" height="4.179" filterUnits="userSpaceOnUse" color-interpolation-filters="sRGB"><feFlood flood-opacity="0" result="BackgroundImageFix"/><feBlend in="SourceGraphic" in2="BackgroundImageFix" result="shape"/><feColorMatrix in="SourceAlpha" values="0 0 0 0 0 0 0 0 0 0 0 0 0 0 0 0 0 0 127 0" result="hardAlpha"/><feOffset dx="-1.877"/><feGaussianBlur stdDeviation=".782"/><feComposite in2="hardAlpha" operator="arithmetic" k2="-1" k3="1"/><feColorMatrix values="0 0 0 0 0.866667 0 0 0 0 0.396078 0 0 0 0 0 0 0 0 1 0"/><feBlend in2="shape" result="effect1_innerShadow_3542_7564"/></filter><filter id="filter2_i_3542_7564" x="10.074" y="12.515" width="18.6" height="5.851" filterUnits="userSpaceOnUse" color-interpolation-filters="sRGB"><feFlood flood-opacity="0" result="BackgroundImageFix"/><feBlend in="SourceGraphic" in2="BackgroundImageFix" result="shape"/><feColorMatrix in="SourceAlpha" values="0 0 0 0 0 0 0 0 0 0 0 0 0 0 0 0 0 0 127 0" result="hardAlpha"/><feOffset dx="-1.877"/><feGaussianBlur stdDeviation=".939"/><feComposite in2="hardAlpha" operator="arithmetic" k2="-1" k3="1"/><feColorMatrix values="0 0 0 0 0.682353 0 0 0 0 0.0156863 0 0 0 0 0 0 0 0 1 0"/><feBlend in2="shape" result="effect1_innerShadow_3542_7564"/></filter><filter id="filter3_i_3542_7564" x="9.998" y="20" width="18.752" height="6.875" filterUnits="userSpaceOnUse" color-interpolation-filters="sRGB"><feFlood flood-opacity="0" result="BackgroundImageFix"/><feBlend in="SourceGraphic" in2="BackgroundImageFix" result="shape"/><feColorMatrix in="SourceAlpha" values="0 0 0 0 0 0 0 0 0 0 0 0 0 0 0 0 0 0 127 0" result="hardAlpha"/><feOffset dx="-1.877"/><feGaussianBlur stdDeviation="1.252"/><feComposite in2="hardAlpha" operator="arithmetic" k2="-1" k3="1"/><feColorMatrix values="0 0 0 0 0 0 0 0 0 0.47451 0 0 0 0 0.521569 0 0 0 1 0"/><feBlend in2="shape" result="effect1_innerShadow_3542_7564"/></filter><filter id="filter4_i_3542_7564" x="16.065" y="20.656" width="8.65" height="5.761" filterUnits="userSpaceOnUse" color-interpolation-filters="sRGB"><feFlood flood-opacity="0" result="BackgroundImageFix"/><feBlend in="SourceGraphic" in2="BackgroundImageFix" result="shape"/><feColorMatrix in="SourceAlpha" values="0 0 0 0 0 0 0 0 0 0 0 0 0 0 0 0 0 0 127 0" result="hardAlpha"/><feOffset dx=".125" dy=".188"/><feGaussianBlur stdDeviation=".156"/><feComposite in2="hardAlpha" operator="arithmetic" k2="-1" k3="1"/><feColorMatrix values="0 0 0 0 0 0 0 0 0 0 0 0 0 0 0 0 0 0 0.45 0"/><feBlend in2="shape" result="effect1_innerShadow_3542_7564"/></filter></defs></svg>