<svg width="40" height="40" fill="none" xmlns="http://www.w3.org/2000/svg"><g filter="url(#filter0_ii_3542_7128)"><path d="M36.158 29.398v3.578c0 .414-.125.811-.349 1.104-.223.293-.526.457-.842.457-.316 0-.62-.164-.843-.457a1.835 1.835 0 01-.349-1.104v-3.578c.004-1.451-.303-2.874-.885-4.108-.582-1.235-1.416-2.23-2.408-2.875l-4.806-3.149c-1.389-.902-2.556-2.296-3.371-4.024-.815-1.727-1.244-3.72-1.239-5.75v-3.58c0-.414.126-.81.349-1.104.223-.292.527-.457.843-.457.316 0 .619.165.842.457.223.293.349.69.349 1.104V9.49c-.004 1.451.303 2.875.885 4.109.582 1.234 1.416 2.23 2.409 2.874l4.805 3.149c1.389.902 2.557 2.296 3.372 4.024.815 1.728 1.244 3.72 1.238 5.75z" fill="#FF8201"/></g><g filter="url(#filter1_ii_3542_7128)"><path d="M30.995 29.507H23.45c.005-.705.083-1.405.232-2.082h5.58c.317 0 .62-.165.843-.457.224-.293.349-.69.349-1.104 0-.415-.125-.812-.349-1.104-.223-.293-.526-.458-.842-.458h-4.248c.1-.143.198-.283.31-.417.23-.284.365-.676.375-1.09a1.86 1.86 0 00-.323-1.118c-.217-.301-.516-.478-.832-.49-.316-.013-.623.14-.853.423-.827 1.024-1.486 2.258-1.938 3.627a13.956 13.956 0 00-.687 4.335v3.578c0 .414.126.81.349 1.104.223.293.526.457.842.457.316 0 .62-.164.843-.457.223-.293.349-.69.349-1.104v-.52h7.546c.316 0 .62-.165.843-.458.223-.293.349-.69.349-1.104 0-.414-.126-.811-.35-1.104-.223-.293-.526-.457-.842-.457z" fill="#FFB577"/></g><g filter="url(#filter2_ii_3542_7128)"><path d="M35.059 4.352c-.316 0-.62.165-.843.457-.223.293-.349.69-.349 1.104v.52h-7.546c-.316 0-.62.165-.843.458-.223.293-.349.69-.349 1.104 0 .414.126.811.35 1.104.223.293.526.457.842.457h7.546a10.032 10.032 0 01-.232 2.082h-5.582c-.316 0-.62.165-.843.457-.223.293-.349.69-.349 1.104 0 .415.126.812.349 1.104.223.293.527.458.843.458h4.25a5.75 5.75 0 01-.311.417c-.23.284-.365.676-.375 1.09-.01.414.107.816.323 1.118.217.301.516.478.832.49.316.013.623-.14.853-.423.827-1.024 1.486-2.258 1.938-3.627.451-1.369.685-2.844.687-4.335V5.913c0-.414-.125-.81-.349-1.104-.223-.292-.526-.457-.842-.457z" fill="#87E3EC"/></g><g filter="url(#filter3_ii_3542_7128)"><path d="M12.65 7.255a2.56 2.56 0 011.846.797c.49.51.766 1.202.766 1.924s-.276 1.414-.766 1.924a2.56 2.56 0 01-1.847.797 2.561 2.561 0 01-1.847-.797 2.78 2.78 0 01-.765-1.924c0-.722.275-1.414.765-1.924a2.561 2.561 0 011.847-.797z" fill="#FC7F59"/></g><g filter="url(#filter4_i_3542_7128)"><path fill-rule="evenodd" clip-rule="evenodd" d="M7.47 27.862h.97v5.442c0 1.004.778 1.814 1.742 1.814.963 0 1.741-.81 1.741-1.814v-5.442h.871v5.442c0 1.004.778 1.814 1.742 1.814.963 0 1.742-.81 1.742-1.814v-5.442h.968c.594 0 1.018-.606.828-1.196l-2.085-6.502 1.845 3.191c.495.857 1.568 1.134 2.39.618.821-.515 1.088-1.632.593-2.488l-2.918-5.057c-1.105-1.91-3.086-3.078-5.225-3.078h-.631c-2.14 0-4.12 1.168-5.225 3.078L3.9 21.485c-.495.856-.228 1.973.594 2.488.822.516 1.894.239 2.39-.617l1.844-3.198-2.084 6.508c-.185.59.234 1.196.827 1.196zm4.889-3.628a3.048 3.048 0 100-6.095 3.048 3.048 0 000 6.095z" fill="#FC7F59"/></g><g filter="url(#filter5_i_3542_7128)"><path fill-rule="evenodd" clip-rule="evenodd" d="M11.623 20.655c-.133-.48-.45-.738-.952-.775-.39.036-.674.228-.853.576-.17.5-.037.898.401 1.192a2.13 2.13 0 00.933 1.38 2.83 2.83 0 001.905.278c.598-.198.471-.648.635-1.25.284.076.569.156.853.238a.505.505 0 00.36-.2c.123-.244.073-.445-.15-.605a60.68 60.68 0 00-1.163-.417.627.627 0 00-.672.228c-.176.215-.27.755-.27.755-.32.025-.314.002-.596-.149.084-.066.17-.129.261-.188.223-.188.367-.423.431-.706.065-.21.001-.366-.19-.466-.183-.04-.313.022-.391.188a3.059 3.059 0 01-.06.278.85.85 0 01-.693.437.96.96 0 00.211-.794z" fill="#FFB577"/></g><defs><filter id="filter0_ii_3542_7128" x="21.066" y="3.102" width="16.343" height="31.435" filterUnits="userSpaceOnUse" color-interpolation-filters="sRGB"><feFlood flood-opacity="0" result="BackgroundImageFix"/><feBlend in="SourceGraphic" in2="BackgroundImageFix" result="shape"/><feColorMatrix in="SourceAlpha" values="0 0 0 0 0 0 0 0 0 0 0 0 0 0 0 0 0 0 127 0" result="hardAlpha"/><feOffset dy="-1.25"/><feGaussianBlur stdDeviation=".781"/><feComposite in2="hardAlpha" operator="arithmetic" k2="-1" k3="1"/><feColorMatrix values="0 0 0 0 0.682353 0 0 0 0 0.0156863 0 0 0 0 0 0 0 0 1 0"/><feBlend in2="shape" result="effect1_innerShadow_3542_7128"/><feColorMatrix in="SourceAlpha" values="0 0 0 0 0 0 0 0 0 0 0 0 0 0 0 0 0 0 127 0" result="hardAlpha"/><feOffset dx="1.25"/><feGaussianBlur stdDeviation="1.25"/><feComposite in2="hardAlpha" operator="arithmetic" k2="-1" k3="1"/><feColorMatrix values="0 0 0 0 1 0 0 0 0 1 0 0 0 0 1 0 0 0 0.25 0"/><feBlend in2="effect1_innerShadow_3542_7128" result="effect2_innerShadow_3542_7128"/></filter><filter id="filter1_ii_3542_7128" x="21.066" y="19.936" width="12.371" height="14.775" filterUnits="userSpaceOnUse" color-interpolation-filters="sRGB"><feFlood flood-opacity="0" result="BackgroundImageFix"/><feBlend in="SourceGraphic" in2="BackgroundImageFix" result="shape"/><feColorMatrix in="SourceAlpha" values="0 0 0 0 0 0 0 0 0 0 0 0 0 0 0 0 0 0 127 0" result="hardAlpha"/><feOffset dy="-1.25"/><feGaussianBlur stdDeviation=".781"/><feComposite in2="hardAlpha" operator="arithmetic" k2="-1" k3="1"/><feColorMatrix values="0 0 0 0 0.866667 0 0 0 0 0.396078 0 0 0 0 0 0 0 0 1 0"/><feBlend in2="shape" result="effect1_innerShadow_3542_7128"/><feColorMatrix in="SourceAlpha" values="0 0 0 0 0 0 0 0 0 0 0 0 0 0 0 0 0 0 127 0" result="hardAlpha"/><feOffset dx="1.25"/><feGaussianBlur stdDeviation="1.25"/><feComposite in2="hardAlpha" operator="arithmetic" k2="-1" k3="1"/><feColorMatrix values="0 0 0 0 1 0 0 0 0 1 0 0 0 0 1 0 0 0 0.25 0"/><feBlend in2="effect1_innerShadow_3542_7128" result="effect2_innerShadow_3542_7128"/></filter><filter id="filter2_ii_3542_7128" x="25.129" y="3.102" width="12.371" height="14.775" filterUnits="userSpaceOnUse" color-interpolation-filters="sRGB"><feFlood flood-opacity="0" result="BackgroundImageFix"/><feBlend in="SourceGraphic" in2="BackgroundImageFix" result="shape"/><feColorMatrix in="SourceAlpha" values="0 0 0 0 0 0 0 0 0 0 0 0 0 0 0 0 0 0 127 0" result="hardAlpha"/><feOffset dy="-1.25"/><feGaussianBlur stdDeviation=".781"/><feComposite in2="hardAlpha" operator="arithmetic" k2="-1" k3="1"/><feColorMatrix values="0 0 0 0 0 0 0 0 0 0.47451 0 0 0 0 0.521569 0 0 0 1 0"/><feBlend in2="shape" result="effect1_innerShadow_3542_7128"/><feColorMatrix in="SourceAlpha" values="0 0 0 0 0 0 0 0 0 0 0 0 0 0 0 0 0 0 127 0" result="hardAlpha"/><feOffset dx="1.25"/><feGaussianBlur stdDeviation="1.25"/><feComposite in2="hardAlpha" operator="arithmetic" k2="-1" k3="1"/><feColorMatrix values="0 0 0 0 1 0 0 0 0 1 0 0 0 0 1 0 0 0 0.25 0"/><feBlend in2="effect1_innerShadow_3542_7128" result="effect2_innerShadow_3542_7128"/></filter><filter id="filter3_ii_3542_7128" x="8.787" y="6.63" width="7.725" height="6.067" filterUnits="userSpaceOnUse" color-interpolation-filters="sRGB"><feFlood flood-opacity="0" result="BackgroundImageFix"/><feBlend in="SourceGraphic" in2="BackgroundImageFix" result="shape"/><feColorMatrix in="SourceAlpha" values="0 0 0 0 0 0 0 0 0 0 0 0 0 0 0 0 0 0 127 0" result="hardAlpha"/><feOffset dx="-1.25" dy="-.625"/><feGaussianBlur stdDeviation="1.25"/><feComposite in2="hardAlpha" operator="arithmetic" k2="-1" k3="1"/><feColorMatrix values="0 0 0 0 0.745098 0 0 0 0 0.219608 0 0 0 0 0.203922 0 0 0 1 0"/><feBlend in2="shape" result="effect1_innerShadow_3542_7128"/><feColorMatrix in="SourceAlpha" values="0 0 0 0 0 0 0 0 0 0 0 0 0 0 0 0 0 0 127 0" result="hardAlpha"/><feOffset dx="1.25"/><feGaussianBlur stdDeviation="1.25"/><feComposite in2="hardAlpha" operator="arithmetic" k2="-1" k3="1"/><feColorMatrix values="0 0 0 0 1 0 0 0 0 1 0 0 0 0 1 0 0 0 0.25 0"/><feBlend in2="effect1_innerShadow_3542_7128" result="effect2_innerShadow_3542_7128"/></filter><filter id="filter4_i_3542_7128" x="2.401" y="12.725" width="18.665" height="22.393" filterUnits="userSpaceOnUse" color-interpolation-filters="sRGB"><feFlood flood-opacity="0" result="BackgroundImageFix"/><feBlend in="SourceGraphic" in2="BackgroundImageFix" result="shape"/><feColorMatrix in="SourceAlpha" values="0 0 0 0 0 0 0 0 0 0 0 0 0 0 0 0 0 0 127 0" result="hardAlpha"/><feOffset dx="-1.25" dy="-.625"/><feGaussianBlur stdDeviation="1.25"/><feComposite in2="hardAlpha" operator="arithmetic" k2="-1" k3="1"/><feColorMatrix values="0 0 0 0 0.745098 0 0 0 0 0.219608 0 0 0 0 0.203922 0 0 0 1 0"/><feBlend in2="shape" result="effect1_innerShadow_3542_7128"/></filter><filter id="filter5_i_3542_7128" x="9.747" y="19.88" width="5.537" height="3.483" filterUnits="userSpaceOnUse" color-interpolation-filters="sRGB"><feFlood flood-opacity="0" result="BackgroundImageFix"/><feBlend in="SourceGraphic" in2="BackgroundImageFix" result="shape"/><feColorMatrix in="SourceAlpha" values="0 0 0 0 0 0 0 0 0 0 0 0 0 0 0 0 0 0 127 0" result="hardAlpha"/><feOffset dx=".625"/><feGaussianBlur stdDeviation=".156"/><feComposite in2="hardAlpha" operator="arithmetic" k2="-1" k3="1"/><feColorMatrix values="0 0 0 0 0.784314 0 0 0 0 0.4 0 0 0 0 0 0 0 0 1 0"/><feBlend in2="shape" result="effect1_innerShadow_3542_7128"/></filter></defs></svg>