<svg width="40" height="40" fill="none" xmlns="http://www.w3.org/2000/svg"><g filter="url(#filter0_i_3542_3438)"><circle cx="22.188" cy="19.688" r="12.188" fill="#87E3EC"/></g><g filter="url(#filter1_i_3542_3438)" fill="#fff"><path fill-rule="evenodd" clip-rule="evenodd" d="M15.482 21.96c.327.36.787.54 1.382.54.577 0 1.031-.151 1.362-.454.33-.303.495-.721.495-1.256 0-.51-.14-.9-.423-1.172-.282-.271-.683-.407-1.203-.407-.41 0-.738.094-.985.282h-.006c-.005 0-.007-.002-.007-.006.044-.36.161-.634.35-.822.195-.194.446-.29.754-.29.194 0 .408.026.641.079a.281.281 0 00.245-.046.251.251 0 00.112-.217v-.119a.46.46 0 00-.106-.296.393.393 0 00-.257-.158 4.041 4.041 0 00-.674-.052c-.692 0-1.226.23-1.6.69-.375.461-.562 1.152-.562 2.073 0 .724.16 1.267.482 1.631zm.814-1.77a.734.734 0 01.568-.23c.242 0 .432.075.569.224.14.145.211.353.211.625 0 .285-.068.505-.205.658-.137.15-.328.224-.575.224a.747.747 0 01-.568-.23c-.141-.158-.212-.375-.212-.652 0-.263.07-.47.212-.618z"/><path d="M20.714 22.322a.363.363 0 00.264.112h.37c.102 0 .19-.037.265-.112a.36.36 0 00.112-.263v-2.67a.36.36 0 00-.112-.264.363.363 0 00-.265-.112h-.37a.362.362 0 00-.264.112.36.36 0 00-.113.263v2.671c0 .101.038.189.113.263zm0-4.079a.362.362 0 00.264.112h.37c.102 0 .19-.037.265-.112a.36.36 0 00.112-.263v-.105a.36.36 0 00-.112-.263.363.363 0 00-.265-.112h-.37a.363.363 0 00-.264.112.36.36 0 00-.113.263v.105c0 .101.038.189.113.263zm1.689 4.079a.363.363 0 00.265.112h.323a.342.342 0 00.258-.112.36.36 0 00.113-.263v-1.684a.55.55 0 01.191-.401.61.61 0 01.43-.191c.185 0 .313.05.383.151.07.097.106.276.106.54v1.585c0 .101.037.189.112.263a.363.363 0 00.265.112h.29a.341.341 0 00.258-.112.36.36 0 00.113-.263v-1.618c0-.544-.088-.928-.265-1.151-.176-.229-.465-.343-.866-.343-.4 0-.744.163-1.03.487l-.014.013c-.004 0-.007-.002-.007-.006l-.006-.053a.368.368 0 00-.12-.263.349.349 0 00-.264-.112h-.27a.37.37 0 00-.37.375v2.671a.37.37 0 00.105.263zm5.25-2.743c.07.035.137.029.199-.02l.965-.697h.013v3.197c0 .101.038.189.112.263a.363.363 0 00.265.112h.416c.102 0 .19-.037.265-.112A.36.36 0 0030 22.06v-4.052a.36.36 0 00-.112-.264.363.363 0 00-.265-.111h-.416c-.256 0-.483.072-.681.217l-.668.486a.69.69 0 00-.304.593v.48a.18.18 0 00.1.17z"/></g><g filter="url(#filter2_ii_3542_3438)"><path d="M6.638 30.392h1.487v2.683H6.484a.628.628 0 00-.447.179.68.68 0 00-.204.45.673.673 0 00.176.473.624.624 0 00.449.198h4.558a.628.628 0 00.447-.179.68.68 0 00.204-.451.671.671 0 00-.176-.473.625.625 0 00-.449-.197H9.374V30.39h1.488a.978.978 0 00.388-.08 1.01 1.01 0 00.328-.228 1.092 1.092 0 00.297-.745V15.72a1.092 1.092 0 00-.297-.745.978.978 0 00-.716-.309h-.498v-.976a.681.681 0 00-.187-.471.628.628 0 00-.454-.195h-.349V6.302a.684.684 0 00-.171-.465.632.632 0 00-.434-.212.603.603 0 00-.454.183.652.652 0 00-.19.467v6.748h-.349c-.17 0-.333.07-.453.196a.681.681 0 00-.188.471v.976h-.497a.993.993 0 00-.716.309c-.19.197-.297.465-.297.745v1.595c0 .117.045.23.124.313.08.082.188.13.3.13h1.314c.849.028.87 1.255.027 1.3H6.05a.409.409 0 00-.3.129.444.444 0 00-.125.313v1.853a.458.458 0 00.124.312.423.423 0 00.3.13h2.947a.629.629 0 01.448.18.68.68 0 01.203.45.674.674 0 01-.176.473.625.625 0 01-.448.198H6.05a.409.409 0 00-.3.13.445.445 0 00-.125.312v1.853a.458.458 0 00.124.313.423.423 0 00.3.13h1.314a.629.629 0 01.447.178.68.68 0 01.204.451.674.674 0 01-.176.473.626.626 0 01-.448.198H6.05a.41.41 0 00-.3.13.444.444 0 00-.125.312v1.76a1.092 1.092 0 00.296.746.977.977 0 00.716.31z" fill="#FFB577"/></g><defs><filter id="filter0_i_3542_3438" x="10" y="6.874" width="25.359" height="25.001" filterUnits="userSpaceOnUse" color-interpolation-filters="sRGB"><feFlood flood-opacity="0" result="BackgroundImageFix"/><feBlend in="SourceGraphic" in2="BackgroundImageFix" result="shape"/><feColorMatrix in="SourceAlpha" values="0 0 0 0 0 0 0 0 0 0 0 0 0 0 0 0 0 0 127 0" result="hardAlpha"/><feOffset dx=".984" dy="-.626"/><feGaussianBlur stdDeviation="2.295"/><feComposite in2="hardAlpha" operator="arithmetic" k2="-1" k3="1"/><feColorMatrix values="0 0 0 0 0 0 0 0 0 0.47451 0 0 0 0 0.521569 0 0 0 1 0"/><feBlend in2="shape" result="effect1_innerShadow_3542_3438"/></filter><filter id="filter1_i_3542_3438" x="15" y="17.5" width="15.125" height="5.188" filterUnits="userSpaceOnUse" color-interpolation-filters="sRGB"><feFlood flood-opacity="0" result="BackgroundImageFix"/><feBlend in="SourceGraphic" in2="BackgroundImageFix" result="shape"/><feColorMatrix in="SourceAlpha" values="0 0 0 0 0 0 0 0 0 0 0 0 0 0 0 0 0 0 127 0" result="hardAlpha"/><feOffset dx=".125" dy=".188"/><feGaussianBlur stdDeviation=".156"/><feComposite in2="hardAlpha" operator="arithmetic" k2="-1" k3="1"/><feColorMatrix values="0 0 0 0 0 0 0 0 0 0 0 0 0 0 0 0 0 0 0.6 0"/><feBlend in2="shape" result="effect1_innerShadow_3542_3438"/></filter><filter id="filter2_ii_3542_3438" x="4.999" y="4.999" width="8.127" height="31.253" filterUnits="userSpaceOnUse" color-interpolation-filters="sRGB"><feFlood flood-opacity="0" result="BackgroundImageFix"/><feBlend in="SourceGraphic" in2="BackgroundImageFix" result="shape"/><feColorMatrix in="SourceAlpha" values="0 0 0 0 0 0 0 0 0 0 0 0 0 0 0 0 0 0 127 0" result="hardAlpha"/><feOffset dx="1.252" dy="-.626"/><feGaussianBlur stdDeviation=".782"/><feComposite in2="hardAlpha" operator="arithmetic" k2="-1" k3="1"/><feColorMatrix values="0 0 0 0 0.866667 0 0 0 0 0.396078 0 0 0 0 0 0 0 0 1 0"/><feBlend in2="shape" result="effect1_innerShadow_3542_3438"/><feColorMatrix in="SourceAlpha" values="0 0 0 0 0 0 0 0 0 0 0 0 0 0 0 0 0 0 127 0" result="hardAlpha"/><feOffset dx="-.626" dy="1.877"/><feGaussianBlur stdDeviation=".939"/><feComposite in2="hardAlpha" operator="arithmetic" k2="-1" k3="1"/><feColorMatrix values="0 0 0 0 1 0 0 0 0 1 0 0 0 0 1 0 0 0 0.25 0"/><feBlend in2="effect1_innerShadow_3542_3438" result="effect2_innerShadow_3542_3438"/></filter></defs></svg>