<svg width="40" height="40" fill="none" xmlns="http://www.w3.org/2000/svg"><g filter="url(#filter0_ii_3542_4453)"><path d="M23.968 25.053l-7.67-7.67-2.896 2.897 7.67 7.67 2.896-2.897z" fill="#FFB577"/></g><g filter="url(#filter1_ii_3542_4453)"><path d="M17.81 10.929l13.895 13.894a4.862 4.862 0 010 6.868l-.014.014a4.841 4.841 0 01-3.434 1.42 4.841 4.841 0 01-3.434-1.42l-2.667-2.667 3.441-3.44a.77.77 0 000-1.088l-8.757-8.76a.77.77 0 00-1.088 0l-3.44 3.441-1.383-1.381 6.882-6.882z" fill="#1DB9C9"/></g><g filter="url(#filter2_i_3542_4453)"><path d="M15.304 11.26l-2.897-2.897L13.669 7.1c.3-.3.787-.3 1.088 0l1.81 1.81c.3.3.3.787 0 1.087l-1.263 1.263z" fill="#FF8201"/></g><g filter="url(#filter3_i_3542_4453)"><path d="M11.26 15.303l-1.262 1.263c-.3.3-.788.3-1.088 0l-1.81-1.81a.77.77 0 010-1.087l1.263-1.263 2.897 2.897z" fill="#FF8201"/></g><g filter="url(#filter4_i_3542_4453)"><path d="M14.218 12.35l-2.896-2.898-1.868 1.868 2.896 2.897 1.868-1.868z" fill="#FF8201"/></g><g filter="url(#filter5_ii_3542_4453)" fill="#FC7F59"><path d="M7.026 32.855c.1.113.22.17.356.17h3.44a.436.436 0 00.346-.17.582.582 0 00.151-.4v-.23a.582.582 0 00-.15-.4.436.436 0 00-.347-.17H8.875c-.006 0-.009-.003-.009-.01a.03.03 0 01.009-.02c.954-.907 1.594-1.623 1.92-2.15a3.131 3.131 0 00.498-1.68c0-.68-.196-1.21-.587-1.59-.385-.387-.936-.58-1.653-.58-.498 0-1.017.08-1.556.24a.641.641 0 00-.355.28.81.81 0 00-.134.46v.42c0 .133.05.237.151.31a.31.31 0 00.32.04c.534-.227.984-.34 1.352-.34.604 0 .906.307.906.92 0 .44-.163.89-.489 1.35-.32.46-.977 1.13-1.973 2.01-.267.233-.4.537-.4.91v.23c0 .153.05.287.151.4zm5.582-5.93c.101.113.22.17.356.17h2c.006 0 .009.003.009.01v.01l-1.262 1.23a1.24 1.24 0 00-.383.93v.02c0 .153.05.287.151.4.101.107.22.16.356.16.598.007 1.007.077 1.227.21.219.133.329.363.329.69 0 .32-.095.57-.285.75-.19.18-.456.27-.8.27-.38 0-.824-.093-1.333-.28a.33.33 0 00-.33.06.37.37 0 00-.141.31v.34c0 .173.044.33.133.47.095.133.213.22.356.26.486.127.966.19 1.44.19.788 0 1.392-.207 1.813-.62.42-.413.631-1.007.631-1.78 0-.613-.157-1.1-.471-1.46-.308-.36-.72-.54-1.236-.54h-.106c-.006 0-.01-.003-.01-.01v-.01l1.343-1.25c.26-.24.391-.55.391-.93v-.23a.583.583 0 00-.151-.4.462.462 0 00-.356-.17h-3.315a.462.462 0 00-.356.17.583.583 0 00-.15.4v.23c0 .153.05.287.15.4z"/></g><defs><filter id="filter0_ii_3542_4453" x="12.151" y="17.07" width="11.817" height="12.13" filterUnits="userSpaceOnUse" color-interpolation-filters="sRGB"><feFlood flood-opacity="0" result="BackgroundImageFix"/><feBlend in="SourceGraphic" in2="BackgroundImageFix" result="shape"/><feColorMatrix in="SourceAlpha" values="0 0 0 0 0 0 0 0 0 0 0 0 0 0 0 0 0 0 127 0" result="hardAlpha"/><feOffset dx="-1.252" dy="-.313"/><feGaussianBlur stdDeviation=".782"/><feComposite in2="hardAlpha" operator="arithmetic" k2="-1" k3="1"/><feColorMatrix values="0 0 0 0 0.866667 0 0 0 0 0.396078 0 0 0 0 0 0 0 0 1 0"/><feBlend in2="shape" result="effect1_innerShadow_3542_4453"/><feColorMatrix in="SourceAlpha" values="0 0 0 0 0 0 0 0 0 0 0 0 0 0 0 0 0 0 127 0" result="hardAlpha"/><feOffset dx="-.626" dy="1.252"/><feGaussianBlur stdDeviation=".939"/><feComposite in2="hardAlpha" operator="arithmetic" k2="-1" k3="1"/><feColorMatrix values="0 0 0 0 1 0 0 0 0 1 0 0 0 0 1 0 0 0 0.25 0"/><feBlend in2="effect1_innerShadow_3542_4453" result="effect2_innerShadow_3542_4453"/></filter><filter id="filter1_ii_3542_4453" x="9.051" y="9.677" width="25.325" height="23.448" filterUnits="userSpaceOnUse" color-interpolation-filters="sRGB"><feFlood flood-opacity="0" result="BackgroundImageFix"/><feBlend in="SourceGraphic" in2="BackgroundImageFix" result="shape"/><feColorMatrix in="SourceAlpha" values="0 0 0 0 0 0 0 0 0 0 0 0 0 0 0 0 0 0 127 0" result="hardAlpha"/><feOffset dx="-1.877" dy="-1.252"/><feGaussianBlur stdDeviation="1.252"/><feComposite in2="hardAlpha" operator="arithmetic" k2="-1" k3="1"/><feColorMatrix values="0 0 0 0 0 0 0 0 0 0.475324 0 0 0 0 0.520833 0 0 0 1 0"/><feBlend in2="shape" result="effect1_innerShadow_3542_4453"/><feColorMatrix in="SourceAlpha" values="0 0 0 0 0 0 0 0 0 0 0 0 0 0 0 0 0 0 127 0" result="hardAlpha"/><feOffset dx="1.252"/><feGaussianBlur stdDeviation=".939"/><feComposite in2="hardAlpha" operator="arithmetic" k2="-1" k3="1"/><feColorMatrix values="0 0 0 0 1 0 0 0 0 1 0 0 0 0 1 0 0 0 0.25 0"/><feBlend in2="effect1_innerShadow_3542_4453" result="effect2_innerShadow_3542_4453"/></filter><filter id="filter2_i_3542_4453" x="11.781" y="6.875" width="5.011" height="4.385" filterUnits="userSpaceOnUse" color-interpolation-filters="sRGB"><feFlood flood-opacity="0" result="BackgroundImageFix"/><feBlend in="SourceGraphic" in2="BackgroundImageFix" result="shape"/><feColorMatrix in="SourceAlpha" values="0 0 0 0 0 0 0 0 0 0 0 0 0 0 0 0 0 0 127 0" result="hardAlpha"/><feOffset dx="-.626"/><feGaussianBlur stdDeviation=".782"/><feComposite in2="hardAlpha" operator="arithmetic" k2="-1" k3="1"/><feColorMatrix values="0 0 0 0 0.721569 0 0 0 0 0.329412 0 0 0 0 0 0 0 0 1 0"/><feBlend in2="shape" result="effect1_innerShadow_3542_4453"/></filter><filter id="filter3_i_3542_4453" x="6.25" y="12.406" width="5.011" height="4.385" filterUnits="userSpaceOnUse" color-interpolation-filters="sRGB"><feFlood flood-opacity="0" result="BackgroundImageFix"/><feBlend in="SourceGraphic" in2="BackgroundImageFix" result="shape"/><feColorMatrix in="SourceAlpha" values="0 0 0 0 0 0 0 0 0 0 0 0 0 0 0 0 0 0 127 0" result="hardAlpha"/><feOffset dx="-.626"/><feGaussianBlur stdDeviation=".469"/><feComposite in2="hardAlpha" operator="arithmetic" k2="-1" k3="1"/><feColorMatrix values="0 0 0 0 0.721569 0 0 0 0 0.329412 0 0 0 0 0 0 0 0 1 0"/><feBlend in2="shape" result="effect1_innerShadow_3542_4453"/></filter><filter id="filter4_i_3542_4453" x="8.828" y="9.453" width="5.39" height="4.765" filterUnits="userSpaceOnUse" color-interpolation-filters="sRGB"><feFlood flood-opacity="0" result="BackgroundImageFix"/><feBlend in="SourceGraphic" in2="BackgroundImageFix" result="shape"/><feColorMatrix in="SourceAlpha" values="0 0 0 0 0 0 0 0 0 0 0 0 0 0 0 0 0 0 127 0" result="hardAlpha"/><feOffset dx="-.626"/><feGaussianBlur stdDeviation=".626"/><feComposite in2="hardAlpha" operator="arithmetic" k2="-1" k3="1"/><feColorMatrix values="0 0 0 0 0.721569 0 0 0 0 0.329412 0 0 0 0 0 0 0 0 1 0"/><feBlend in2="shape" result="effect1_innerShadow_3542_4453"/></filter><filter id="filter5_ii_3542_4453" x="6.249" y="24.999" width="11.252" height="8.126" filterUnits="userSpaceOnUse" color-interpolation-filters="sRGB"><feFlood flood-opacity="0" result="BackgroundImageFix"/><feBlend in="SourceGraphic" in2="BackgroundImageFix" result="shape"/><feColorMatrix in="SourceAlpha" values="0 0 0 0 0 0 0 0 0 0 0 0 0 0 0 0 0 0 127 0" result="hardAlpha"/><feOffset dx="-.626" dy="-.626"/><feGaussianBlur stdDeviation=".469"/><feComposite in2="hardAlpha" operator="arithmetic" k2="-1" k3="1"/><feColorMatrix values="0 0 0 0 0.682353 0 0 0 0 0.0156863 0 0 0 0 0 0 0 0 1 0"/><feBlend in2="shape" result="effect1_innerShadow_3542_4453"/><feColorMatrix in="SourceAlpha" values="0 0 0 0 0 0 0 0 0 0 0 0 0 0 0 0 0 0 127 0" result="hardAlpha"/><feOffset dx=".626"/><feGaussianBlur stdDeviation=".939"/><feComposite in2="hardAlpha" operator="arithmetic" k2="-1" k3="1"/><feColorMatrix values="0 0 0 0 1 0 0 0 0 1 0 0 0 0 1 0 0 0 0.25 0"/><feBlend in2="effect1_innerShadow_3542_4453" result="effect2_innerShadow_3542_4453"/></filter></defs></svg>