<svg width="40" height="40" fill="none" xmlns="http://www.w3.org/2000/svg"><g filter="url(#filter0_i_3542_3445)"><path d="M16.709 26.144c1.472 0 2.782.71 3.604 1.808a4.497 4.497 0 013.603-1.808h11.709V9.022a.897.897 0 00-.897-.897H23.916c-1.472 0-2.782.71-3.604 1.807a4.497 4.497 0 00-3.603-1.807H5.897A.897.897 0 005 9.022v17.122h11.709zm-1.25-2.612H10.75a.897.897 0 010-1.795h4.71a.897.897 0 010 1.795zm.898-4.683a.897.897 0 01-1.794 0c0-.965-.499-1.355-1.458-1.839-.96.484-1.458.874-1.458 1.84a.897.897 0 01-1.794 0c0-1.42.65-2.264 1.431-2.84-.782-.575-1.431-1.418-1.431-2.838a.897.897 0 011.794 0c0 .966.499 1.355 1.458 1.84.959-.485 1.457-.874 1.457-1.84a.897.897 0 011.795 0c0 1.42-.65 2.263-1.432 2.839.782.575 1.432 1.418 1.432 2.838zm13.705 4.683h-5.084a.897.897 0 010-1.795h5.084a.897.897 0 010 1.795zm0-3.154h-5.084a.897.897 0 010-1.795h5.084a.897.897 0 010 1.795zm0-3.155h-5.084a.897.897 0 010-1.794h5.084a.897.897 0 010 1.794zm0-3.154h-5.084a.897.897 0 010-1.794h5.084a.897.897 0 010 1.794z" fill="#87E3EC"/></g><g filter="url(#filter1_i_3542_3445)"><path d="M19.415 30.645a2.71 2.71 0 00-2.706-2.706H5v2.706c0 .496.402.897.897.897h13.518v-.897z" fill="#A4ADB5"/></g><g filter="url(#filter2_i_3542_3445)"><path d="M23.917 27.939a2.71 2.71 0 00-2.707 2.706v.897h13.518a.897.897 0 00.897-.897V27.94H23.917z" fill="#FF8201"/></g><defs><filter id="filter0_i_3542_3445" x="3.75" y="7.5" width="31.875" height="20.452" filterUnits="userSpaceOnUse" color-interpolation-filters="sRGB"><feFlood flood-opacity="0" result="BackgroundImageFix"/><feBlend in="SourceGraphic" in2="BackgroundImageFix" result="shape"/><feColorMatrix in="SourceAlpha" values="0 0 0 0 0 0 0 0 0 0 0 0 0 0 0 0 0 0 127 0" result="hardAlpha"/><feOffset dx="-1.25" dy="-.625"/><feGaussianBlur stdDeviation=".938"/><feComposite in2="hardAlpha" operator="arithmetic" k2="-1" k3="1"/><feColorMatrix values="0 0 0 0 0 0 0 0 0 0.494118 0 0 0 0 0.541176 0 0 0 1 0"/><feBlend in2="shape" result="effect1_innerShadow_3542_3445"/></filter><filter id="filter1_i_3542_3445" x="3.75" y="27.314" width="15.665" height="4.229" filterUnits="userSpaceOnUse" color-interpolation-filters="sRGB"><feFlood flood-opacity="0" result="BackgroundImageFix"/><feBlend in="SourceGraphic" in2="BackgroundImageFix" result="shape"/><feColorMatrix in="SourceAlpha" values="0 0 0 0 0 0 0 0 0 0 0 0 0 0 0 0 0 0 127 0" result="hardAlpha"/><feOffset dx="-1.25" dy="-.625"/><feGaussianBlur stdDeviation="1.25"/><feComposite in2="hardAlpha" operator="arithmetic" k2="-1" k3="1"/><feColorMatrix values="0 0 0 0 0.12549 0 0 0 0 0.12549 0 0 0 0 0.12549 0 0 0 1 0"/><feBlend in2="shape" result="effect1_innerShadow_3542_3445"/></filter><filter id="filter2_i_3542_3445" x="19.96" y="27.314" width="15.665" height="4.229" filterUnits="userSpaceOnUse" color-interpolation-filters="sRGB"><feFlood flood-opacity="0" result="BackgroundImageFix"/><feBlend in="SourceGraphic" in2="BackgroundImageFix" result="shape"/><feColorMatrix in="SourceAlpha" values="0 0 0 0 0 0 0 0 0 0 0 0 0 0 0 0 0 0 127 0" result="hardAlpha"/><feOffset dx="-1.25" dy="-.625"/><feGaussianBlur stdDeviation=".781"/><feComposite in2="hardAlpha" operator="arithmetic" k2="-1" k3="1"/><feColorMatrix values="0 0 0 0 0.721569 0 0 0 0 0.329412 0 0 0 0 0 0 0 0 1 0"/><feBlend in2="shape" result="effect1_innerShadow_3542_3445"/></filter></defs></svg>