<svg width="40" height="40" fill="none" xmlns="http://www.w3.org/2000/svg"><g filter="url(#filter0_ii_3542_4486)"><path d="M26.448 15.136c-2.644-.311-5.517 2.007-5.517 5.22v12.403a3.162 3.162 0 003.235 3.163 3.208 3.208 0 003.09-3.195 1.767 1.767 0 011.175-1.73 8.133 8.133 0 00-1.983-15.86zm.357 14.853a1.355 1.355 0 00-1.139 1.866c1.044 1.853-1.455 3.678-2.905 2.115a.453.453 0 11.668-.61.903.903 0 001.45-1.053 2.259 2.259 0 011.786-3.222 5.874 5.874 0 00-.538-11.69 3.162 3.162 0 00-2.937 3.164v2.033a3.127 3.127 0 111.843 5.648.452.452 0 110-.903 2.223 2.223 0 10-1.843-3.457c0 3.163 2.26 1.45 2.26 2.553a.452.452 0 01-.453.452c-3.339 0-2.71-2.617-2.71-6.326a4.067 4.067 0 013.402-4.008.682.682 0 01.451-.045c2.924-.172 6.539 2.67 6.539 6.764a6.778 6.778 0 01-5.874 6.719z" fill="#FFB577"/></g><g filter="url(#filter1_ii_3542_4486)"><path d="M26.346 12.391H22.05a.93.93 0 00-.904.719c-1.427 5.503-8.91 6.425-11.653 1.41a.904.904 0 01.226-1.135c-.28.232-.63.36-.994.362-2.4 0-2.395-4.519 0-4.519.363.001.715.13.994.362a.904.904 0 01-.226-1.135c2.752-5.038 10.23-4.066 11.672 1.415a.931.931 0 00.903.714h4.28a.452.452 0 100-.904h-4.293c-1.582-6.127-9.783-7.41-13.14-2.015A4.067 4.067 0 017.427 9.11a2.711 2.711 0 000 4.753 4.066 4.066 0 011.487 1.446c3.357 5.39 11.558 4.117 13.14-2.015h4.292a.452.452 0 100-.904z" fill="#A4ADB5"/></g><g filter="url(#filter2_ii_3542_4486)"><path d="M7.82 11.487c0 1.808 1.808 1.808 1.808 0 0-1.807-1.808-1.807-1.808 0z" fill="#A4ADB5"/></g><g filter="url(#filter3_ii_3542_4486)"><path d="M19.302 11.036c2.648 0 1.306.248.99-.935-1.243-4.74-7.681-5.5-10.004-1.212 1.532 1.243 1.527 3.954 0 5.197a5.423 5.423 0 004.763 2.824 1.734 1.734 0 00-.547-1.26.454.454 0 11.642-.642c.499.48.79 1.137.808 1.83a5.422 5.422 0 004.343-3.963c.316-1.18 1.64-.935-.985-.935l-1.45 1.445.306.61a.453.453 0 01-.804.407c-.452-.935.09-.203-1.405-.203a.452.452 0 010-.904c.962 0 1.378-.66 2.521-1.807-.628-.628-.642-.624-.687-.741-.66.66-1.039 1.251-1.477.835-.438-.415.199-.84.809-1.45l-.583-.583a.454.454 0 11.641-.641l.904.903c.136.15.023.213.249 0a.454.454 0 01.641.642c-.167.176-.212.04.325.583z" fill="#87E3EC"/></g><defs><filter id="filter0_ii_3542_4486" x="20.306" y="15.108" width="15.019" height="20.814" filterUnits="userSpaceOnUse" color-interpolation-filters="sRGB"><feFlood flood-opacity="0" result="BackgroundImageFix"/><feBlend in="SourceGraphic" in2="BackgroundImageFix" result="shape"/><feColorMatrix in="SourceAlpha" values="0 0 0 0 0 0 0 0 0 0 0 0 0 0 0 0 0 0 127 0" result="hardAlpha"/><feOffset dx="-.625"/><feGaussianBlur stdDeviation=".313"/><feComposite in2="hardAlpha" operator="arithmetic" k2="-1" k3="1"/><feColorMatrix values="0 0 0 0 0.866667 0 0 0 0 0.396078 0 0 0 0 0 0 0 0 1 0"/><feBlend in2="shape" result="effect1_innerShadow_3542_4486"/><feColorMatrix in="SourceAlpha" values="0 0 0 0 0 0 0 0 0 0 0 0 0 0 0 0 0 0 127 0" result="hardAlpha"/><feOffset dx="1.25"/><feGaussianBlur stdDeviation=".625"/><feComposite in2="hardAlpha" operator="arithmetic" k2="-1" k3="1"/><feColorMatrix values="0 0 0 0 1 0 0 0 0 1 0 0 0 0 1 0 0 0 0.17 0"/><feBlend in2="effect1_innerShadow_3542_4486" result="effect2_innerShadow_3542_4486"/></filter><filter id="filter1_ii_3542_4486" x="6.021" y="3.951" width="22.027" height="14.76" filterUnits="userSpaceOnUse" color-interpolation-filters="sRGB"><feFlood flood-opacity="0" result="BackgroundImageFix"/><feBlend in="SourceGraphic" in2="BackgroundImageFix" result="shape"/><feColorMatrix in="SourceAlpha" values="0 0 0 0 0 0 0 0 0 0 0 0 0 0 0 0 0 0 127 0" result="hardAlpha"/><feOffset dy="-.625"/><feGaussianBlur stdDeviation=".156"/><feComposite in2="hardAlpha" operator="arithmetic" k2="-1" k3="1"/><feColorMatrix values="0 0 0 0 0.0862745 0 0 0 0 0.0862745 0 0 0 0 0.0862745 0 0 0 1 0"/><feBlend in2="shape" result="effect1_innerShadow_3542_4486"/><feColorMatrix in="SourceAlpha" values="0 0 0 0 0 0 0 0 0 0 0 0 0 0 0 0 0 0 127 0" result="hardAlpha"/><feOffset dx="1.25"/><feGaussianBlur stdDeviation="1.25"/><feComposite in2="hardAlpha" operator="arithmetic" k2="-1" k3="1"/><feColorMatrix values="0 0 0 0 1 0 0 0 0 1 0 0 0 0 1 0 0 0 0.25 0"/><feBlend in2="effect1_innerShadow_3542_4486" result="effect2_innerShadow_3542_4486"/></filter><filter id="filter2_ii_3542_4486" x="7.195" y="9.507" width="3.683" height="3.336" filterUnits="userSpaceOnUse" color-interpolation-filters="sRGB"><feFlood flood-opacity="0" result="BackgroundImageFix"/><feBlend in="SourceGraphic" in2="BackgroundImageFix" result="shape"/><feColorMatrix in="SourceAlpha" values="0 0 0 0 0 0 0 0 0 0 0 0 0 0 0 0 0 0 127 0" result="hardAlpha"/><feOffset dx="-.625" dy="-.625"/><feGaussianBlur stdDeviation=".313"/><feComposite in2="hardAlpha" operator="arithmetic" k2="-1" k3="1"/><feColorMatrix values="0 0 0 0 0.0875 0 0 0 0 0.0875 0 0 0 0 0.0875 0 0 0 1 0"/><feBlend in2="shape" result="effect1_innerShadow_3542_4486"/><feColorMatrix in="SourceAlpha" values="0 0 0 0 0 0 0 0 0 0 0 0 0 0 0 0 0 0 127 0" result="hardAlpha"/><feOffset dx="1.25"/><feGaussianBlur stdDeviation="1.25"/><feComposite in2="hardAlpha" operator="arithmetic" k2="-1" k3="1"/><feColorMatrix values="0 0 0 0 1 0 0 0 0 1 0 0 0 0 1 0 0 0 0.25 0"/><feBlend in2="effect1_innerShadow_3542_4486" result="effect2_innerShadow_3542_4486"/></filter><filter id="filter3_ii_3542_4486" x="9.038" y="6.069" width="11.875" height="12.715" filterUnits="userSpaceOnUse" color-interpolation-filters="sRGB"><feFlood flood-opacity="0" result="BackgroundImageFix"/><feBlend in="SourceGraphic" in2="BackgroundImageFix" result="shape"/><feColorMatrix in="SourceAlpha" values="0 0 0 0 0 0 0 0 0 0 0 0 0 0 0 0 0 0 127 0" result="hardAlpha"/><feOffset dy="2.5"/><feGaussianBlur stdDeviation=".937"/><feComposite in2="hardAlpha" operator="arithmetic" k2="-1" k3="1"/><feColorMatrix values="0 0 0 0 1 0 0 0 0 1 0 0 0 0 1 0 0 0 0.25 0"/><feBlend in2="shape" result="effect1_innerShadow_3542_4486"/><feColorMatrix in="SourceAlpha" values="0 0 0 0 0 0 0 0 0 0 0 0 0 0 0 0 0 0 127 0" result="hardAlpha"/><feOffset dx="-1.25"/><feGaussianBlur stdDeviation=".781"/><feComposite in2="hardAlpha" operator="arithmetic" k2="-1" k3="1"/><feColorMatrix values="0 0 0 0 0 0 0 0 0 0.47451 0 0 0 0 0.521569 0 0 0 1 0"/><feBlend in2="effect1_innerShadow_3542_4486" result="effect2_innerShadow_3542_4486"/></filter></defs></svg>