<svg width="40" height="40" fill="none" xmlns="http://www.w3.org/2000/svg"><g filter="url(#filter0_ii_3542_4584)"><path d="M21.85 23.349a.865.865 0 01-.683.341.851.851 0 01-.76-.47l-1.905-3.809-.897 1.333a.85.85 0 01-.709.384H8.355a.854.854 0 000 1.708h4.904l6.354 7.423a.879.879 0 00.649.299.846.846 0 00.64-.299l8.662-9.985h-5.407l-2.306 3.075z" fill="#FFB577"/></g><g filter="url(#filter1_ii_3542_4584)"><path d="M32.272 16.857h-1.029a6.241 6.241 0 00-.38-3.229 5.663 5.663 0 00-4.801-3.604 6.956 6.956 0 00-5.749 2.289 6.947 6.947 0 00-5.748-2.29 5.656 5.656 0 00-4.81 3.622 6.067 6.067 0 00.633 5.774h6.047l1.46-2.178a.846.846 0 011.47.086l1.948 3.895 1.734-2.315a.865.865 0 01.683-.342h8.542a.854.854 0 100-1.708z" fill="#FF8201"/></g><defs><filter id="filter0_ii_3542_4584" x="6.25" y="19.099" width="24.563" height="11.46" filterUnits="userSpaceOnUse" color-interpolation-filters="sRGB"><feFlood flood-opacity="0" result="BackgroundImageFix"/><feBlend in="SourceGraphic" in2="BackgroundImageFix" result="shape"/><feColorMatrix in="SourceAlpha" values="0 0 0 0 0 0 0 0 0 0 0 0 0 0 0 0 0 0 127 0" result="hardAlpha"/><feOffset dx="-1.25" dy="-.313"/><feGaussianBlur stdDeviation=".938"/><feComposite in2="hardAlpha" operator="arithmetic" k2="-1" k3="1"/><feColorMatrix values="0 0 0 0 0.866667 0 0 0 0 0.396078 0 0 0 0 0 0 0 0 1 0"/><feBlend in2="shape" result="effect1_innerShadow_3542_4584"/><feColorMatrix in="SourceAlpha" values="0 0 0 0 0 0 0 0 0 0 0 0 0 0 0 0 0 0 127 0" result="hardAlpha"/><feOffset dx="1.25"/><feGaussianBlur stdDeviation="1.25"/><feComposite in2="hardAlpha" operator="arithmetic" k2="-1" k3="1"/><feColorMatrix values="0 0 0 0 1 0 0 0 0 1 0 0 0 0 1 0 0 0 0.25 0"/><feBlend in2="effect1_innerShadow_3542_4584" result="effect2_innerShadow_3542_4584"/></filter><filter id="filter1_ii_3542_4584" x="8.05" y="9.375" width="26.326" height="11.847" filterUnits="userSpaceOnUse" color-interpolation-filters="sRGB"><feFlood flood-opacity="0" result="BackgroundImageFix"/><feBlend in="SourceGraphic" in2="BackgroundImageFix" result="shape"/><feColorMatrix in="SourceAlpha" values="0 0 0 0 0 0 0 0 0 0 0 0 0 0 0 0 0 0 127 0" result="hardAlpha"/><feOffset dx="-1.25" dy="-.625"/><feGaussianBlur stdDeviation=".938"/><feComposite in2="hardAlpha" operator="arithmetic" k2="-1" k3="1"/><feColorMatrix values="0 0 0 0 0.745098 0 0 0 0 0.219608 0 0 0 0 0.203922 0 0 0 1 0"/><feBlend in2="shape" result="effect1_innerShadow_3542_4584"/><feColorMatrix in="SourceAlpha" values="0 0 0 0 0 0 0 0 0 0 0 0 0 0 0 0 0 0 127 0" result="hardAlpha"/><feOffset dx="1.25"/><feGaussianBlur stdDeviation="1.25"/><feComposite in2="hardAlpha" operator="arithmetic" k2="-1" k3="1"/><feColorMatrix values="0 0 0 0 1 0 0 0 0 1 0 0 0 0 1 0 0 0 0.25 0"/><feBlend in2="effect1_innerShadow_3542_4584" result="effect2_innerShadow_3542_4584"/></filter></defs></svg>