<svg width="40" height="40" fill="none" xmlns="http://www.w3.org/2000/svg"><g filter="url(#filter0_i_3542_4417)"><path d="M24.603 8.235a.732.732 0 00-.73-.735h-7.29a.732.732 0 00-.728.735v3.768h8.748V8.235z" fill="#1DB9C9"/></g><g filter="url(#filter1_i_3542_4417)"><path d="M14.375 31.731a.73.73 0 00.732.728H25.35a.73.73 0 00.731-.728v-3.328H14.375v3.328z" fill="#FFB577"/></g><g filter="url(#filter2_i_3542_4417)"><path d="M23.155 14.955v-1.537h-5.853v1.537a3.665 3.665 0 00-2.927 3.585v2.56h11.707v-2.56a3.665 3.665 0 00-2.927-3.585z" fill="#FFB577"/></g><g filter="url(#filter3_i_3542_4417)" fill="#87E3EC"><path d="M14.812 26.414a.313.313 0 01-.306-.378l.604-2.837a.313.313 0 01.306-.248h.39c.14 0 .264.093.302.228l.465 1.637 1.237-1.734a.313.313 0 01.254-.13h.373c.199 0 .347.182.306.377l-.604 2.837a.313.313 0 01-.306.248h-.009a.313.313 0 01-.306-.378l.46-2.165-1.286 1.781a.313.313 0 01-.554-.093l-.51-1.703-.487 2.31a.313.313 0 01-.306.248h-.023zm4.275 0a.313.313 0 01-.306-.378l.604-2.837a.313.313 0 01.306-.248h.391c.14 0 .263.093.301.228l.465 1.637 1.33-1.865h.534c.199 0 .347.183.306.378l-.604 2.837a.313.313 0 01-.306.248H22.1a.313.313 0 01-.306-.378l.459-2.165-1.286 1.781a.313.313 0 01-.554-.093l-.51-1.703-.487 2.31a.313.313 0 01-.306.248h-.023zm4.276 0a.313.313 0 01-.306-.378l.603-2.837a.313.313 0 01.306-.248h1.29c.215 0 .401.041.56.124.158.079.28.191.366.336a.946.946 0 01.133.505 1.122 1.122 0 01-.43.89 1.225 1.225 0 01-.47.228l.36.957a.313.313 0 01-.293.423h-.066a.313.313 0 01-.296-.212l-.383-1.114h-.781l-.226 1.077a.313.313 0 01-.306.249h-.061zm.721-1.915h.93a.7.7 0 00.307-.064.493.493 0 00.282-.455.368.368 0 00-.129-.297.485.485 0 00-.341-.113h-.851l-.198.93z"/></g><defs><filter id="filter0_i_3542_4417" x="15.854" y="7.5" width="10.625" height="4.503" filterUnits="userSpaceOnUse" color-interpolation-filters="sRGB"><feFlood flood-opacity="0" result="BackgroundImageFix"/><feBlend in="SourceGraphic" in2="BackgroundImageFix" result="shape"/><feColorMatrix in="SourceAlpha" values="0 0 0 0 0 0 0 0 0 0 0 0 0 0 0 0 0 0 127 0" result="hardAlpha"/><feOffset dx="1.877"/><feGaussianBlur stdDeviation=".939"/><feComposite in2="hardAlpha" operator="arithmetic" k2="-1" k3="1"/><feColorMatrix values="0 0 0 0 0 0 0 0 0 0.47451 0 0 0 0 0.521569 0 0 0 1 0"/><feBlend in2="shape" result="effect1_innerShadow_3542_4417"/></filter><filter id="filter1_i_3542_4417" x="14.375" y="28.403" width="13.584" height="4.056" filterUnits="userSpaceOnUse" color-interpolation-filters="sRGB"><feFlood flood-opacity="0" result="BackgroundImageFix"/><feBlend in="SourceGraphic" in2="BackgroundImageFix" result="shape"/><feColorMatrix in="SourceAlpha" values="0 0 0 0 0 0 0 0 0 0 0 0 0 0 0 0 0 0 127 0" result="hardAlpha"/><feOffset dx="1.877"/><feGaussianBlur stdDeviation=".939"/><feComposite in2="hardAlpha" operator="arithmetic" k2="-1" k3="1"/><feColorMatrix values="0 0 0 0 0.866667 0 0 0 0 0.396078 0 0 0 0 0 0 0 0 1 0"/><feBlend in2="shape" result="effect1_innerShadow_3542_4417"/></filter><filter id="filter2_i_3542_4417" x="14.375" y="13.418" width="13.584" height="7.681" filterUnits="userSpaceOnUse" color-interpolation-filters="sRGB"><feFlood flood-opacity="0" result="BackgroundImageFix"/><feBlend in="SourceGraphic" in2="BackgroundImageFix" result="shape"/><feColorMatrix in="SourceAlpha" values="0 0 0 0 0 0 0 0 0 0 0 0 0 0 0 0 0 0 127 0" result="hardAlpha"/><feOffset dx="1.877"/><feGaussianBlur stdDeviation=".939"/><feComposite in2="hardAlpha" operator="arithmetic" k2="-1" k3="1"/><feColorMatrix values="0 0 0 0 0.866667 0 0 0 0 0.396078 0 0 0 0 0 0 0 0 1 0"/><feBlend in2="shape" result="effect1_innerShadow_3542_4417"/></filter><filter id="filter3_i_3542_4417" x="14.499" y="22.951" width="12.442" height="3.462" filterUnits="userSpaceOnUse" color-interpolation-filters="sRGB"><feFlood flood-opacity="0" result="BackgroundImageFix"/><feBlend in="SourceGraphic" in2="BackgroundImageFix" result="shape"/><feColorMatrix in="SourceAlpha" values="0 0 0 0 0 0 0 0 0 0 0 0 0 0 0 0 0 0 127 0" result="hardAlpha"/><feOffset dx=".626"/><feGaussianBlur stdDeviation=".469"/><feComposite in2="hardAlpha" operator="arithmetic" k2="-1" k3="1"/><feColorMatrix values="0 0 0 0 0 0 0 0 0 0.47451 0 0 0 0 0.521569 0 0 0 1 0"/><feBlend in2="shape" result="effect1_innerShadow_3542_4417"/></filter></defs></svg>