<svg width="40" height="40" fill="none" xmlns="http://www.w3.org/2000/svg"><g filter="url(#filter0_ii_3542_9654)"><path d="M20.212 11.775c-.424.02-1.068.105-1.458.402a2.93 2.93 0 00-.473.43.245.245 0 01-.333.028c-.136-.118-.094-.271.027-.38a.223.223 0 00.058-.188.219.219 0 00-.04-.092.232.232 0 00-.077-.068c-.671-.354-1.466-1.024-1.556-2.23a.321.321 0 00-.11-.215.352.352 0 00-.233-.087h-.58a.354.354 0 00-.24.093.322.322 0 00-.104.225c-.021.59.069 1.888 1.117 2.938.534.533.8 1.283.652 2.01-.015.059-.03.118-.043.18 0 0-.692 3.661-3.425 3.43a2.576 2.576 0 00-1.061.18c-.31.122-.514.36-.679.637a.235.235 0 01-.142.107.247.247 0 01-.18-.02c-.163-.092-.111-.263-.03-.404a.22.22 0 00-.033-.266.238.238 0 00-.081-.054c-.733-.293-1.86-.452-2.96.549a.329.329 0 00-.103.263.336.336 0 00.147.244l.345.23a.366.366 0 00.361.027c.285-.134.87-.326 1.43.018a.866.866 0 01.391.93c-.222 4.545 11.528 4.73 12.279-4.321.14-1.003.15-4.661-2.866-4.596zm-2.255 5.193a.423.423 0 01-.291-.115.384.384 0 01-.121-.278c.021-.522.802-.522.824 0a.384.384 0 01-.12.277.423.423 0 01-.292.116zm.912-1.375a.635.635 0 01-.438-.173.577.577 0 01-.181-.418c.032-.783 1.206-.783 1.239 0a.577.577 0 01-.182.418.635.635 0 01-.438.173z" fill="#FF8E8B"/></g><g filter="url(#filter1_i_3542_9654)"><path fill-rule="evenodd" clip-rule="evenodd" d="M15.937 27.5c6.04 0 10.937-4.897 10.937-10.938 0-6.04-4.897-10.937-10.937-10.937-6.041 0-10.938 4.897-10.938 10.938 0 6.04 4.897 10.937 10.938 10.937zm0-2.07a8.868 8.868 0 100-17.736 8.868 8.868 0 000 17.737z" fill="#87E3EC"/></g><g filter="url(#filter2_i_3542_9654)"><path d="M22.508 25.99c1.235-.516 2.954-2.447 3.204-3.524l6.896 6.806a2.394 2.394 0 11-3.368 3.402l-6.732-6.684z" fill="#A4ADB5"/></g><defs><filter id="filter0_ii_3542_9654" x="8.124" y="8.719" width="16.25" height="15.031" filterUnits="userSpaceOnUse" color-interpolation-filters="sRGB"><feFlood flood-opacity="0" result="BackgroundImageFix"/><feBlend in="SourceGraphic" in2="BackgroundImageFix" result="shape"/><feColorMatrix in="SourceAlpha" values="0 0 0 0 0 0 0 0 0 0 0 0 0 0 0 0 0 0 127 0" result="hardAlpha"/><feOffset dy="-.656"/><feGaussianBlur stdDeviation=".625"/><feComposite in2="hardAlpha" operator="arithmetic" k2="-1" k3="1"/><feColorMatrix values="0 0 0 0 0.682353 0 0 0 0 0.0156863 0 0 0 0 0 0 0 0 1 0"/><feBlend in2="shape" result="effect1_innerShadow_3542_9654"/><feColorMatrix in="SourceAlpha" values="0 0 0 0 0 0 0 0 0 0 0 0 0 0 0 0 0 0 127 0" result="hardAlpha"/><feOffset dx="1.25"/><feGaussianBlur stdDeviation="1.25"/><feComposite in2="hardAlpha" operator="arithmetic" k2="-1" k3="1"/><feColorMatrix values="0 0 0 0 1 0 0 0 0 1 0 0 0 0 1 0 0 0 0.25 0"/><feBlend in2="effect1_innerShadow_3542_9654" result="effect2_innerShadow_3542_9654"/></filter><filter id="filter1_i_3542_9654" x="3.749" y="5" width="23.125" height="22.5" filterUnits="userSpaceOnUse" color-interpolation-filters="sRGB"><feFlood flood-opacity="0" result="BackgroundImageFix"/><feBlend in="SourceGraphic" in2="BackgroundImageFix" result="shape"/><feColorMatrix in="SourceAlpha" values="0 0 0 0 0 0 0 0 0 0 0 0 0 0 0 0 0 0 127 0" result="hardAlpha"/><feOffset dx="-1.25" dy="-.625"/><feGaussianBlur stdDeviation=".625"/><feComposite in2="hardAlpha" operator="arithmetic" k2="-1" k3="1"/><feColorMatrix values="0 0 0 0 0 0 0 0 0 0.47451 0 0 0 0 0.521569 0 0 0 1 0"/><feBlend in2="shape" result="effect1_innerShadow_3542_9654"/></filter><filter id="filter2_i_3542_9654" x="21.258" y="22.465" width="12.063" height="10.904" filterUnits="userSpaceOnUse" color-interpolation-filters="sRGB"><feFlood flood-opacity="0" result="BackgroundImageFix"/><feBlend in="SourceGraphic" in2="BackgroundImageFix" result="shape"/><feColorMatrix in="SourceAlpha" values="0 0 0 0 0 0 0 0 0 0 0 0 0 0 0 0 0 0 127 0" result="hardAlpha"/><feOffset dx="-1.25"/><feGaussianBlur stdDeviation=".937"/><feComposite in2="hardAlpha" operator="arithmetic" k2="-1" k3="1"/><feColorMatrix values="0 0 0 0 0.1375 0 0 0 0 0.1375 0 0 0 0 0.1375 0 0 0 1 0"/><feBlend in2="shape" result="effect1_innerShadow_3542_9654"/></filter></defs></svg>