<svg width="40" height="40" fill="none" xmlns="http://www.w3.org/2000/svg"><g filter="url(#filter0_i_3542_3371)"><path fill-rule="evenodd" clip-rule="evenodd" d="M20.005 35.084c8.33 0 15.082-6.753 15.082-15.083S28.335 4.92 20.005 4.92c-8.33 0-15.082 6.753-15.082 15.082 0 8.33 6.752 15.083 15.082 15.083zm0-2.308c6.874 0 12.775-5.9 12.775-12.775 0-6.874-5.9-12.774-12.775-12.774-6.874 0-12.774 5.9-12.774 12.774 0 6.874 5.9 12.775 12.774 12.775z" fill="#FC7F59"/></g><g filter="url(#filter1_i_3542_3371)"><path d="M21.61 21.994c-.498.283-1.13 0-1.39-.45l-1.33-1.917a.335.335 0 00-.584.065c-.5 1.192-.683 1.378-.683 2.95l.494 4.487c.065.589-.178 1.232-.765 1.304-.71.089-1.028-.82-1.164-1.521l-.594-3.064a.625.625 0 00-.614-.506h-.085a.524.524 0 00-.517.435l-.647 3.795c-.085.495-.52.855-1.017.772-.509-.086-.782-.585-.782-1.101v-3.567c0-1.987.504-3.942 1.465-5.68a.178.178 0 00-.191-.261l-2.533.515-.058.012c-.181.034-1.168.192-1.367-.405-.164-.494.028-.912.198-1.158.117-.169.304-.266.502-.32l4.634-1.263a3.935 3.935 0 013.097.444l.635.391c.89.547 1.633 1.3 2.19 2.183.756 1.201 1.44 2.25 1.54 2.512.175.45.037 1.081-.434 1.348z" fill="#87E3EC"/></g><g filter="url(#filter2_i_3542_3371)"><circle cx="19.218" cy="13.67" r="2.193" fill="#87E3EC"/></g><path d="M29.1 24.2l-2.608 1.51-2.608-1.51a.627.627 0 01.222-.224l2.069-1.195a.645.645 0 01.634 0l2.07 1.195a.629.629 0 01.221.225z" fill="#FFA98E"/><path d="M26.492 25.71v3.01a.662.662 0 01-.289-.067l-2.088-1.207a.634.634 0 01-.317-.548V24.52c0-.113.03-.223.085-.32l2.609 1.508z" fill="#FC7F59"/><path d="M29.185 24.52v2.378a.635.635 0 01-.317.548l-2.098 1.21a.664.664 0 01-.279.064v-3.01L29.1 24.2a.655.655 0 01.086.32z" fill="#D0522B"/><path d="M27.93 20.495l-2.608 1.509-2.608-1.509a.628.628 0 01.222-.225l2.07-1.195a.645.645 0 01.633 0l2.07 1.195a.628.628 0 01.221.225z" fill="#FFA84E"/><path d="M25.322 22.004v3.01a.663.663 0 01-.289-.066l-2.088-1.208a.634.634 0 01-.317-.548v-2.377c0-.112.03-.222.085-.32l2.609 1.509z" fill="#F58B1E"/><path d="M28.015 20.815v2.377a.635.635 0 01-.317.548L25.6 24.95a.663.663 0 01-.279.064v-3.01l2.608-1.509a.655.655 0 01.086.32z" fill="#CA6E11"/><path d="M28.905 17.57l-2.608 1.508-2.608-1.508a.628.628 0 01.221-.225l2.07-1.195a.645.645 0 01.633 0l2.07 1.195a.628.628 0 01.222.225z" fill="#89D7DF"/><path d="M26.296 19.078v3.01a.662.662 0 01-.288-.066l-2.089-1.207a.636.636 0 01-.317-.548V17.89a.653.653 0 01.086-.32l2.608 1.508z" fill="#009BAB"/><path d="M28.99 17.89v2.377a.635.635 0 01-.317.548l-2.098 1.21a.663.663 0 01-.28.064v-3.01l2.609-1.51a.655.655 0 01.086.32z" fill="#007480"/><path d="M26.36 16.966l.216-.15c.098.075.17.125.216.15a.475.475 0 00.48-.005l.246.205-1.61 1.12-.304-.252 1.11-.773-.354-.295zm-.359 7.344c.003-.13.028-.262.076-.397.046-.148.155-.34.326-.578.149-.206.245-.348.289-.425a.664.664 0 00.1-.318c0-.076-.019-.127-.057-.154-.039-.027-.094-.019-.166.025a.451.451 0 00-.2.241.86.86 0 00-.036.242l-.314.19c.005-.155.03-.294.076-.415.086-.232.239-.414.459-.547.173-.105.311-.136.414-.093.102.043.154.15.154.324a.95.95 0 01-.109.42 2.68 2.68 0 01-.234.37l-.13.179c-.08.111-.136.19-.166.237a.89.89 0 00-.075.143l.717-.435v.31l-1.124.682zm-1.185 2.22a.453.453 0 00.243.414c.063.035.117.044.164.028.047-.018.07-.067.07-.147a.389.389 0 00-.13-.286 1.158 1.158 0 00-.233-.16v-.229a.73.73 0 00.218.09c.07.009.106-.035.106-.13a.341.341 0 00-.055-.182.402.402 0 00-.152-.143c-.076-.042-.131-.049-.167-.021-.035.028-.052.083-.05.164l-.299-.166a.59.59 0 01.042-.206.233.233 0 01.123-.108.277.277 0 01.149-.005 1.118 1.118 0 01.587.416.685.685 0 01.144.403c0 .096-.029.16-.085.195a.161.161 0 01-.113.022c.03.016.071.064.126.144a.67.67 0 01.122.377c0 .138-.048.232-.143.284-.095.051-.236.025-.423-.079a1.067 1.067 0 01-.48-.491.966.966 0 01-.078-.357l.314.174z" fill="#fff"/><defs><filter id="filter0_i_3542_3371" x="4.267" y="4.263" width="30.821" height="30.82" filterUnits="userSpaceOnUse" color-interpolation-filters="sRGB"><feFlood flood-opacity="0" result="BackgroundImageFix"/><feBlend in="SourceGraphic" in2="BackgroundImageFix" result="shape"/><feColorMatrix in="SourceAlpha" values="0 0 0 0 0 0 0 0 0 0 0 0 0 0 0 0 0 0 127 0" result="hardAlpha"/><feOffset dx="-.656" dy="-.656"/><feGaussianBlur stdDeviation=".656"/><feComposite in2="hardAlpha" operator="arithmetic" k2="-1" k3="1"/><feColorMatrix values="0 0 0 0 0.745098 0 0 0 0 0.219608 0 0 0 0 0.203922 0 0 0 1 0"/><feBlend in2="shape" result="effect1_innerShadow_3542_3371"/></filter><filter id="filter1_i_3542_3371" x="8.53" y="14.649" width="13.587" height="13.79" filterUnits="userSpaceOnUse" color-interpolation-filters="sRGB"><feFlood flood-opacity="0" result="BackgroundImageFix"/><feBlend in="SourceGraphic" in2="BackgroundImageFix" result="shape"/><feColorMatrix in="SourceAlpha" values="0 0 0 0 0 0 0 0 0 0 0 0 0 0 0 0 0 0 127 0" result="hardAlpha"/><feOffset dx="-.656" dy="-.328"/><feGaussianBlur stdDeviation=".656"/><feComposite in2="hardAlpha" operator="arithmetic" k2="-1" k3="1"/><feColorMatrix values="0 0 0 0 0 0 0 0 0 0.47451 0 0 0 0 0.521569 0 0 0 1 0"/><feBlend in2="shape" result="effect1_innerShadow_3542_3371"/></filter><filter id="filter2_i_3542_3371" x="16.369" y="11.149" width="5.042" height="4.715" filterUnits="userSpaceOnUse" color-interpolation-filters="sRGB"><feFlood flood-opacity="0" result="BackgroundImageFix"/><feBlend in="SourceGraphic" in2="BackgroundImageFix" result="shape"/><feColorMatrix in="SourceAlpha" values="0 0 0 0 0 0 0 0 0 0 0 0 0 0 0 0 0 0 127 0" result="hardAlpha"/><feOffset dx="-.656" dy="-.328"/><feGaussianBlur stdDeviation=".656"/><feComposite in2="hardAlpha" operator="arithmetic" k2="-1" k3="1"/><feColorMatrix values="0 0 0 0 0 0 0 0 0 0.47451 0 0 0 0 0.521569 0 0 0 1 0"/><feBlend in2="shape" result="effect1_innerShadow_3542_3371"/></filter></defs></svg>