<svg width="40" height="40" fill="none" xmlns="http://www.w3.org/2000/svg"><g filter="url(#filter0_i_3542_4409)"><path d="M24.603 8.234a.732.732 0 00-.73-.734h-7.29a.732.732 0 00-.728.734v3.769h8.748V8.234z" fill="#1DB9C9"/></g><g filter="url(#filter1_ii_3542_4409)"><path d="M14.375 31.73a.73.73 0 00.732.728H25.35a.73.73 0 00.731-.727v-3.329H14.375v3.329z" fill="#A4ADB5"/></g><g filter="url(#filter2_ii_3542_4409)"><path d="M23.155 14.955v-1.537h-5.853v1.537a3.665 3.665 0 00-2.927 3.585v2.559h11.707v-2.56a3.665 3.665 0 00-2.927-3.584z" fill="#A4ADB5"/></g><g filter="url(#filter3_i_3542_4409)" fill="#87E3EC"><path d="M15.12 27.533a.583.583 0 01-.57-.71l.994-4.465a.583.583 0 111.138.253l-.994 4.466a.583.583 0 01-.569.456zm2.233 0a.583.583 0 01-.569-.71l.994-4.465a.583.583 0 111.138.253l-.994 4.466a.583.583 0 01-.569.456zm4.157 0c-.485 0-.9-.342-.995-.816l-.813-4.092a.606.606 0 111.191-.225l.71 3.942 2.607-4.186a.54.54 0 11.916.577l-2.762 4.331a1.014 1.014 0 01-.855.47z"/></g><defs><filter id="filter0_i_3542_4409" x="15.854" y="7.5" width="10.625" height="4.503" filterUnits="userSpaceOnUse" color-interpolation-filters="sRGB"><feFlood flood-opacity="0" result="BackgroundImageFix"/><feBlend in="SourceGraphic" in2="BackgroundImageFix" result="shape"/><feColorMatrix in="SourceAlpha" values="0 0 0 0 0 0 0 0 0 0 0 0 0 0 0 0 0 0 127 0" result="hardAlpha"/><feOffset dx="1.877"/><feGaussianBlur stdDeviation=".939"/><feComposite in2="hardAlpha" operator="arithmetic" k2="-1" k3="1"/><feColorMatrix values="0 0 0 0 0 0 0 0 0 0.47451 0 0 0 0 0.521569 0 0 0 1 0"/><feBlend in2="shape" result="effect1_innerShadow_3542_4409"/></filter><filter id="filter1_ii_3542_4409" x="13.123" y="27.777" width="14.836" height="4.682" filterUnits="userSpaceOnUse" color-interpolation-filters="sRGB"><feFlood flood-opacity="0" result="BackgroundImageFix"/><feBlend in="SourceGraphic" in2="BackgroundImageFix" result="shape"/><feColorMatrix in="SourceAlpha" values="0 0 0 0 0 0 0 0 0 0 0 0 0 0 0 0 0 0 127 0" result="hardAlpha"/><feOffset dx="1.877"/><feGaussianBlur stdDeviation=".939"/><feComposite in2="hardAlpha" operator="arithmetic" k2="-1" k3="1"/><feColorMatrix values="0 0 0 0 0.12549 0 0 0 0 0.12549 0 0 0 0 0.12549 0 0 0 1 0"/><feBlend in2="shape" result="effect1_innerShadow_3542_4409"/><feColorMatrix in="SourceAlpha" values="0 0 0 0 0 0 0 0 0 0 0 0 0 0 0 0 0 0 127 0" result="hardAlpha"/><feOffset dx="-1.252" dy="-.626"/><feGaussianBlur stdDeviation="1.252"/><feComposite in2="hardAlpha" operator="arithmetic" k2="-1" k3="1"/><feColorMatrix values="0 0 0 0 1 0 0 0 0 1 0 0 0 0 1 0 0 0 0.25 0"/><feBlend in2="effect1_innerShadow_3542_4409" result="effect2_innerShadow_3542_4409"/></filter><filter id="filter2_ii_3542_4409" x="13.123" y="12.792" width="14.836" height="8.306" filterUnits="userSpaceOnUse" color-interpolation-filters="sRGB"><feFlood flood-opacity="0" result="BackgroundImageFix"/><feBlend in="SourceGraphic" in2="BackgroundImageFix" result="shape"/><feColorMatrix in="SourceAlpha" values="0 0 0 0 0 0 0 0 0 0 0 0 0 0 0 0 0 0 127 0" result="hardAlpha"/><feOffset dx="1.877"/><feGaussianBlur stdDeviation=".939"/><feComposite in2="hardAlpha" operator="arithmetic" k2="-1" k3="1"/><feColorMatrix values="0 0 0 0 0.12549 0 0 0 0 0.12549 0 0 0 0 0.12549 0 0 0 1 0"/><feBlend in2="shape" result="effect1_innerShadow_3542_4409"/><feColorMatrix in="SourceAlpha" values="0 0 0 0 0 0 0 0 0 0 0 0 0 0 0 0 0 0 127 0" result="hardAlpha"/><feOffset dx="-1.252" dy="-.626"/><feGaussianBlur stdDeviation="1.252"/><feComposite in2="hardAlpha" operator="arithmetic" k2="-1" k3="1"/><feColorMatrix values="0 0 0 0 1 0 0 0 0 1 0 0 0 0 1 0 0 0 0.25 0"/><feBlend in2="effect1_innerShadow_3542_4409" result="effect2_innerShadow_3542_4409"/></filter><filter id="filter3_i_3542_4409" x="14.536" y="21.901" width="11.301" height="5.632" filterUnits="userSpaceOnUse" color-interpolation-filters="sRGB"><feFlood flood-opacity="0" result="BackgroundImageFix"/><feBlend in="SourceGraphic" in2="BackgroundImageFix" result="shape"/><feColorMatrix in="SourceAlpha" values="0 0 0 0 0 0 0 0 0 0 0 0 0 0 0 0 0 0 127 0" result="hardAlpha"/><feOffset dx=".626"/><feGaussianBlur stdDeviation=".469"/><feComposite in2="hardAlpha" operator="arithmetic" k2="-1" k3="1"/><feColorMatrix values="0 0 0 0 0 0 0 0 0 0.47451 0 0 0 0 0.521569 0 0 0 1 0"/><feBlend in2="shape" result="effect1_innerShadow_3542_4409"/></filter></defs></svg>