<svg width="40" height="40" fill="none" xmlns="http://www.w3.org/2000/svg"><g opacity=".992" filter="url(#filter0_i_3542_4521)" fill="#FFB577"><path fill-rule="evenodd" clip-rule="evenodd" d="M8.13 6.25h23.096c1.276.077 2.118.722 2.524 1.934v23.632c-.264.999-.89 1.643-1.88 1.934H8.13c-.967-.286-1.594-.913-1.88-1.88V8.13c.286-.967.913-1.594 1.88-1.88zm11.387 1.719c1.264-.138 2.159.363 2.685 1.504 1.146.044 2.291.071 3.438.08 1.564.107 2.594.903 3.088 2.39.267 1.15-.002 2.153-.806 3.008.297 1.22.029 2.295-.805 3.223.38 1.772-.22 3.088-1.8 3.948a2.886 2.886 0 01-1.557.214c-.535-.33-.625-.76-.269-1.289l.269-.16c1.36-.067 1.979-.774 1.853-2.122a1.608 1.608 0 00-.994-1.101 15.915 15.915 0 00-2.202-.081v6.445c.968-.02 1.935.008 2.9.08 1.393.427 2.01 1.367 1.853 2.82a2.593 2.593 0 01-1.423 1.693 7.227 7.227 0 00-2.793 1.342 371.14 371.14 0 01-1.611 1.665c-.895.538-1.79.538-2.686 0l-1.289-1.396A7.838 7.838 0 0014.2 28.62c-1.258-.714-1.661-1.761-1.208-3.142.44-.904 1.164-1.379 2.175-1.424.806-.027 1.611-.036 2.417-.027v-6.445a15.915 15.915 0 00-2.202.08c-.821.398-1.152 1.051-.994 1.961.313.851.93 1.272 1.853 1.262.524.315.622.736.296 1.262l-.296.188c-1.69.047-2.81-.732-3.357-2.336a3.877 3.877 0 01-.08-.779c.014-.352.041-.702.08-1.047-.834-.928-1.102-2.002-.805-3.223-.925-1.027-1.14-2.19-.645-3.491.6-1.209 1.576-1.844 2.927-1.907a110.13 110.13 0 003.438-.08c.325-.79.898-1.292 1.719-1.504z"/><path d="M19.517 7.969c1.264-.138 2.159.363 2.685 1.504 1.146.044 2.291.071 3.438.08 1.564.107 2.594.903 3.088 2.39.267 1.15-.002 2.153-.806 3.008.297 1.22.029 2.295-.805 3.223.38 1.772-.22 3.088-1.8 3.948a2.886 2.886 0 01-1.557.214c-.535-.33-.625-.76-.269-1.289l.269-.16c1.36-.067 1.979-.774 1.853-2.122a1.608 1.608 0 00-.994-1.101 15.915 15.915 0 00-2.202-.081v6.445c.968-.02 1.935.008 2.9.08 1.393.427 2.01 1.367 1.853 2.82a2.593 2.593 0 01-1.423 1.693 7.227 7.227 0 00-2.793 1.342 371.14 371.14 0 01-1.611 1.665c-.895.538-1.79.538-2.686 0l-1.289-1.396A7.838 7.838 0 0014.2 28.62c-1.258-.714-1.661-1.761-1.208-3.142.44-.904 1.164-1.379 2.175-1.424.806-.027 1.611-.036 2.417-.027v-6.445a15.915 15.915 0 00-2.202.08c-.821.398-1.152 1.051-.994 1.961.313.851.93 1.272 1.853 1.262.524.315.622.736.296 1.262l-.296.188c-1.69.047-2.81-.732-3.357-2.336a3.877 3.877 0 01-.08-.779c.014-.352.041-.702.08-1.047-.834-.928-1.102-2.002-.805-3.223-.925-1.027-1.14-2.19-.645-3.491.6-1.209 1.576-1.844 2.927-1.907a110.13 110.13 0 003.438-.08c.325-.79.898-1.292 1.719-1.504z"/></g><g opacity=".992" filter="url(#filter1_d_3542_4521)"><path d="M19.517 7.969c1.264-.138 2.159.363 2.685 1.504 1.146.044 2.291.071 3.438.08 1.564.107 2.594.903 3.088 2.39.267 1.15-.002 2.153-.806 3.008.297 1.22.029 2.295-.805 3.223.38 1.772-.22 3.088-1.8 3.948a2.886 2.886 0 01-1.557.214c-.535-.33-.625-.76-.269-1.289l.269-.16c1.36-.067 1.979-.774 1.853-2.122a1.608 1.608 0 00-.994-1.101 15.915 15.915 0 00-2.202-.081v6.445c.968-.02 1.935.008 2.9.08 1.393.427 2.01 1.367 1.853 2.82a2.593 2.593 0 01-1.423 1.693 7.227 7.227 0 00-2.793 1.342 371.14 371.14 0 01-1.611 1.665c-.895.538-1.79.538-2.686 0l-1.289-1.396A7.838 7.838 0 0014.2 28.62c-1.258-.714-1.661-1.761-1.208-3.142.44-.904 1.164-1.379 2.175-1.424.806-.027 1.611-.036 2.417-.027v-6.445a15.915 15.915 0 00-2.202.08c-.821.398-1.152 1.051-.994 1.961.313.851.93 1.272 1.853 1.262.524.315.622.736.296 1.262l-.296.188c-1.69.047-2.81-.732-3.357-2.336a3.877 3.877 0 01-.08-.779c.014-.352.041-.702.08-1.047-.834-.928-1.102-2.002-.805-3.223-.925-1.027-1.14-2.19-.645-3.491.6-1.209 1.576-1.844 2.927-1.907a110.13 110.13 0 003.438-.08c.325-.79.898-1.292 1.719-1.504z" fill="#fff"/></g><g opacity=".972" filter="url(#filter2_ii_3542_4521)"><path fill-rule="evenodd" clip-rule="evenodd" d="M20.536 10.01c-.233-.443-.6-.604-1.1-.483a.867.867 0 00-.457.483c-.027.376-.036.752-.027 1.128h1.611c.009-.377 0-.752-.027-1.128zm-3.196 1.128h-3.652c-.925.363-1.31 1.043-1.155 2.04.04.17.12.314.242.43a3.759 3.759 0 011.611-.778 31.31 31.31 0 012.954-.08v-1.612zm4.835 0c1.246-.017 2.49 0 3.732.053.877.374 1.235 1.037 1.075 1.988a.856.856 0 01-.242.43 3.76 3.76 0 00-1.611-.78 31.987 31.987 0 00-2.954-.08v-1.611zm-1.612 1.611h-1.611v1.611h1.611v-1.61zm-6.07 1.611h2.848v1.612a13.66 13.66 0 00-2.417.134 6.38 6.38 0 00-1.397.698c-.474-1.136-.152-1.951.967-2.444zm10.69.081a29.19 29.19 0 00-3.008-.08v1.61c.537-.008 1.074 0 1.611.028a3.343 3.343 0 012.148.832.854.854 0 00.242-.43c.159-.909-.173-1.563-.993-1.96zm-6.231 1.531h1.611v1.611h-1.611v-1.611zm1.611 3.223h-1.611v1.61h1.611v-1.61zm-1.611 3.222h1.611c.009.913 0 1.826-.027 2.74-.277.481-.68.616-1.208.402a.83.83 0 01-.35-.403c-.026-.913-.035-1.826-.026-2.74zm-1.45 3.25a78.336 78.336 0 00-2.9-.027c-.09.078-.188.15-.296.214-.288.46-.243.882.134 1.262 1.987.52 3.598 1.595 4.834 3.223a.937.937 0 00.967 0c.387-.468.799-.915 1.235-1.343a9.972 9.972 0 013.653-1.933c.1-.084.18-.182.241-.296.148-.5-.004-.867-.456-1.1a39.177 39.177 0 00-2.9 0 2.662 2.662 0 01-1.397 1.396c-1.422.381-2.46-.084-3.115-1.397z" fill="#55E2F0"/></g><defs><filter id="filter0_i_3542_4521" x="5" y="5.625" width="28.75" height="28.125" filterUnits="userSpaceOnUse" color-interpolation-filters="sRGB"><feFlood flood-opacity="0" result="BackgroundImageFix"/><feBlend in="SourceGraphic" in2="BackgroundImageFix" result="shape"/><feColorMatrix in="SourceAlpha" values="0 0 0 0 0 0 0 0 0 0 0 0 0 0 0 0 0 0 127 0" result="hardAlpha"/><feOffset dx="-1.25" dy="-.625"/><feGaussianBlur stdDeviation=".938"/><feComposite in2="hardAlpha" operator="arithmetic" k2="-1" k3="1"/><feColorMatrix values="0 0 0 0 0.866667 0 0 0 0 0.396078 0 0 0 0 0 0 0 0 1 0"/><feBlend in2="shape" result="effect1_innerShadow_3542_4521"/></filter><filter id="filter1_d_3542_4521" x="9.299" y="6.071" width="21.404" height="27.835" filterUnits="userSpaceOnUse" color-interpolation-filters="sRGB"><feFlood flood-opacity="0" result="BackgroundImageFix"/><feColorMatrix in="SourceAlpha" values="0 0 0 0 0 0 0 0 0 0 0 0 0 0 0 0 0 0 127 0" result="hardAlpha"/><feOffset/><feGaussianBlur stdDeviation=".938"/><feComposite in2="hardAlpha" operator="out"/><feColorMatrix values="0 0 0 0 0.721569 0 0 0 0 0.329412 0 0 0 0 0 0 0 0 1 0"/><feBlend in2="BackgroundImageFix" result="effect1_dropShadow_3542_4521"/><feBlend in="SourceGraphic" in2="effect1_dropShadow_3542_4521" result="shape"/></filter><filter id="filter2_ii_3542_4521" x="12.172" y="9.324" width="14.846" height="21.478" filterUnits="userSpaceOnUse" color-interpolation-filters="sRGB"><feFlood flood-opacity="0" result="BackgroundImageFix"/><feBlend in="SourceGraphic" in2="BackgroundImageFix" result="shape"/><feColorMatrix in="SourceAlpha" values="0 0 0 0 0 0 0 0 0 0 0 0 0 0 0 0 0 0 127 0" result="hardAlpha"/><feOffset dx="-.328" dy="-.164"/><feGaussianBlur stdDeviation=".492"/><feComposite in2="hardAlpha" operator="arithmetic" k2="-1" k3="1"/><feColorMatrix values="0 0 0 0 0 0 0 0 0 0.371657 0 0 0 0 0.408333 0 0 0 1 0"/><feBlend in2="shape" result="effect1_innerShadow_3542_4521"/><feColorMatrix in="SourceAlpha" values="0 0 0 0 0 0 0 0 0 0 0 0 0 0 0 0 0 0 127 0" result="hardAlpha"/><feOffset dy=".492"/><feGaussianBlur stdDeviation=".164"/><feComposite in2="hardAlpha" operator="arithmetic" k2="-1" k3="1"/><feColorMatrix values="0 0 0 0 1 0 0 0 0 1 0 0 0 0 1 0 0 0 0.25 0"/><feBlend in2="effect1_innerShadow_3542_4521" result="effect2_innerShadow_3542_4521"/></filter></defs></svg>