<svg width="40" height="40" fill="none" xmlns="http://www.w3.org/2000/svg"><g filter="url(#filter0_i_3542_6899)"><path d="M10.998 15.614c-1.04-1.401-1.565-4.855-1.78-7.36-.078-.926.666-1.696 1.595-1.696h8.67c.63 0 1.262.05 1.868.226 1.572.457 3.74 1.428 4.236 2.956.603 1.86-1.258 2.651-2.264 2.815 4.738 1.663 6.917 4.528 7.168 9.423.176 3.422-2.947 6.47-5.053 8.002-.501.364-.802.955-.746 1.572l.012.135a1.312 1.312 0 01-1.307 1.429H9.284c-.763 0-1.431-.534-1.405-1.296.09-2.563 1.531-6.3 3.12-7.639 1.886-1.59 1.634-6.364 0-8.567z" fill="#FF8E8B"/></g><path d="M24.228 15.852c-2.876.653-2.23 3.883-5.627 5.546-2.179 1.066-2.553 2.666-1.663 4.979.595 1.547 2.692 3.143 4.945 2.944 2.669-.235 7.377-5.3 6.602-10.574-.196-1.337-1.46-3.53-4.257-2.895z" fill="#fff"/><g filter="url(#filter1_i_3542_6899)"><path fill-rule="evenodd" clip-rule="evenodd" d="M20.384 22.644c-1.164-.148-2.008.298-2.531 1.336-.266.865-.099 1.645.502 2.34.94.816 1.925.889 2.954.219 1.392.265 2.67.016 3.834-.747a6.423 6.423 0 002.29-3.82c.096-1.456-.998-1.592-2.168-2.485.42-.538.844-1.073 1.273-1.606a1.16 1.16 0 00-.114-.95c-.424-.483-.909-.558-1.454-.226-.653.697-1.298 1.4-1.937 2.11-.377.522-.409 1.07-.096 1.64.313.571 1.408 1.256 1.408 1.256-.229.707-.275.675-.852 1.14-.07-.238-.13-.48-.18-.726a2.991 2.991 0 00-1.157-1.558c-.403-.328-.798-.333-1.187-.014-.249.353-.227.688.066 1.006.19.118.375.245.553.38.439.573.552 1.197.342 1.872a2.3 2.3 0 00-1.546-1.167z" fill="#FFB577"/></g><defs><filter id="filter0_i_3542_6899" x="7.223" y="6.23" width="23.276" height="26.886" filterUnits="userSpaceOnUse" color-interpolation-filters="sRGB"><feFlood flood-opacity="0" result="BackgroundImageFix"/><feBlend in="SourceGraphic" in2="BackgroundImageFix" result="shape"/><feColorMatrix in="SourceAlpha" values="0 0 0 0 0 0 0 0 0 0 0 0 0 0 0 0 0 0 127 0" result="hardAlpha"/><feOffset dx="-.656" dy="-.328"/><feGaussianBlur stdDeviation=".82"/><feComposite in2="hardAlpha" operator="arithmetic" k2="-1" k3="1"/><feColorMatrix values="0 0 0 0 0.619857 0 0 0 0 0.0420065 0 0 0 0 0.0284101 0 0 0 1 0"/><feBlend in2="shape" result="effect1_innerShadow_3542_6899"/></filter><filter id="filter1_i_3542_6899" x="17.074" y="16.174" width="10.364" height="10.818" filterUnits="userSpaceOnUse" color-interpolation-filters="sRGB"><feFlood flood-opacity="0" result="BackgroundImageFix"/><feBlend in="SourceGraphic" in2="BackgroundImageFix" result="shape"/><feColorMatrix in="SourceAlpha" values="0 0 0 0 0 0 0 0 0 0 0 0 0 0 0 0 0 0 127 0" result="hardAlpha"/><feOffset dx="-.656" dy="-.328"/><feGaussianBlur stdDeviation=".492"/><feComposite in2="hardAlpha" operator="arithmetic" k2="-1" k3="1"/><feColorMatrix values="0 0 0 0 0.866667 0 0 0 0 0.396078 0 0 0 0 0 0 0 0 1 0"/><feBlend in2="shape" result="effect1_innerShadow_3542_6899"/></filter></defs></svg>