<svg width="40" height="40" fill="none" xmlns="http://www.w3.org/2000/svg"><g filter="url(#filter0_ii_3542_11414)"><path d="M32.239 7.762a.892.892 0 00-1.263 0l-2.495 2.495-.709-.709a.893.893 0 00-1.263 0l-2.058 2.059a2.672 2.672 0 00-3.552 0l1.067 1.068a.893.893 0 01-1.263 1.263l-1.078-1.079-.97.97 1.078 1.079a.893.893 0 01-1.263 1.263l-1.078-1.078-.97.97L17.5 17.14a.893.893 0 01-1.263 1.263l-1.078-1.078-.97.97 1.078 1.078a.893.893 0 01-1.263 1.263l-1.078-1.078-.339.338a2.66 2.66 0 00-.097 3.671l-2.32 2.32-1.156-1.155a.893.893 0 00-1.263 1.264l6.253 6.252a.893.893 0 001.263-1.263l-1.155-1.155 2.32-2.32a2.663 2.663 0 003.671-.098l8.193-8.192a2.66 2.66 0 00.098-3.671l2.058-2.059a.893.893 0 000-1.263l-.708-.708 2.495-2.495a.894.894 0 000-1.263zm-19.39 20.806l-1.417-1.417 2.31-2.31 1.417 1.417-2.31 2.31zm14.292-14.292l-1.416-1.416 1.416-1.417 1.417 1.417-1.417 1.416z" fill="#FFB577"/></g><defs><filter id="filter0_ii_3542_11414" x="6.25" y="7.188" width="27.5" height="25.313" filterUnits="userSpaceOnUse" color-interpolation-filters="sRGB"><feFlood flood-opacity="0" result="BackgroundImageFix"/><feBlend in="SourceGraphic" in2="BackgroundImageFix" result="shape"/><feColorMatrix in="SourceAlpha" values="0 0 0 0 0 0 0 0 0 0 0 0 0 0 0 0 0 0 127 0" result="hardAlpha"/><feOffset dx="-1.25" dy="-.313"/><feGaussianBlur stdDeviation=".938"/><feComposite in2="hardAlpha" operator="arithmetic" k2="-1" k3="1"/><feColorMatrix values="0 0 0 0 0.866667 0 0 0 0 0.396078 0 0 0 0 0 0 0 0 1 0"/><feBlend in2="shape" result="effect1_innerShadow_3542_11414"/><feColorMatrix in="SourceAlpha" values="0 0 0 0 0 0 0 0 0 0 0 0 0 0 0 0 0 0 127 0" result="hardAlpha"/><feOffset dx="1.25"/><feGaussianBlur stdDeviation="1.25"/><feComposite in2="hardAlpha" operator="arithmetic" k2="-1" k3="1"/><feColorMatrix values="0 0 0 0 1 0 0 0 0 0.509804 0 0 0 0 0.00392157 0 0 0 1 0"/><feBlend in2="effect1_innerShadow_3542_11414" result="effect2_innerShadow_3542_11414"/></filter></defs></svg>