<svg width="40" height="40" fill="none" xmlns="http://www.w3.org/2000/svg"><g filter="url(#filter0_ii_3542_4474)"><path d="M23.431 8.302c-.86-.068-1.39-.474-1.49-1.257-.03-.287-.187-.861-.977-.86-1.016 0-2.613.094-3.838.035a.843.843 0 00-.885.82c-.02.815-.094 2.042-.342 3.026a.789.789 0 00.836.978c1.012-.091 2.476-.217 3.8-.309a1.013 1.013 0 00.893-.69 8.84 8.84 0 00.179-.614.395.395 0 01.543-.267c.398.18.758.181 1.278.158.67-.046.683-.953.003-1.02z" fill="#FFB577"/></g><g filter="url(#filter1_ii_3542_4474)"><path d="M20.216 12.285l-3.644-.193c-.303-.016-.6.256-.51.546.342 1.1.465 1.763.557 2.641a.708.708 0 00.663.63c1.04.064 2.257-.013 2.984-.075a.598.598 0 00.542-.666 7.845 7.845 0 01-.037-.398.206.206 0 01.263-.211c.402.119.695.066 1.117-.05.216-.06.4-.194.403-.418a.424.424 0 00-.394-.432 2.76 2.76 0 01-1.185-.373.39.39 0 01-.194-.366.595.595 0 00-.564-.635z" fill="#FFB577"/></g><g filter="url(#filter2_ii_3542_4474)"><path d="M21.879 19.397c.432.106.765.04 1.23-.094.26-.074.478-.241.47-.516a.517.517 0 00-.495-.486 3.206 3.206 0 01-1.263-.363.585.585 0 01-.32-.535.51.51 0 00-.604-.508c-1.073.196-2.559.171-3.435.133-.38-.017-.708.302-.664.68.132 1.134.167 1.794.076 2.79a.641.641 0 00.52.686c1.126.217 2.57.087 3.417-.026a.787.787 0 00.683-.797c-.004-.211-.007-.43-.009-.65a.318.318 0 01.394-.314z" fill="#FFB577"/></g><g filter="url(#filter3_ii_3542_4474)"><path d="M16.241 27.088c1.11.114 2.673.216 4.002.078a1.216 1.216 0 001.071-1.002l.026-.154a.699.699 0 01.452-.546 2.63 2.63 0 011.068-.15l.994.066a.465.465 0 01.358.214c.656 1.015 2.241.597 2.312-.623a1.256 1.256 0 00-2.284-.783c-.181.276-.628.245-.726-.084a4.468 4.468 0 01-.155-.83.385.385 0 01.16-.36.88.88 0 00.385-.843c-.177-1.089-1.724-.986-1.757.112a.878.878 0 00.4.738.38.38 0 01.165.358c-.02.196-.05.39-.091.582a.388.388 0 01-.555.258c-.301-.146-.552-.4-.556-.749a.795.795 0 00-.853-.777c-.8.058-2.063.125-3.15.068a.816.816 0 00-.826.587c-.195.675-.555 1.759-1.06 2.627a.81.81 0 00.62 1.213z" fill="#FFB577"/></g><g filter="url(#filter4_ii_3542_4474)"><path d="M14.743 28.934c-.267.746-.743 1.952-1.39 3.06-.471.807.12 1.822 1.055 1.822h5.772a.945.945 0 00.946-.919c-.021-.354.136-.707.463-.87.39-.194.82-.293 1.255-.288h1.444a.251.251 0 01.21.118 1.257 1.257 0 002.314-.74c-.074-1.231-1.676-1.639-2.323-.604a.25.25 0 01-.349.08.246.246 0 01-.091-.11c-.125-.295-.263-.769-.324-1.485a.359.359 0 01.168-.329.89.89 0 00.397-.863c-.18-1.098-1.745-.99-1.776.117a.889.889 0 00.404.746.354.354 0 01.169.324 5.314 5.314 0 01-.3 1.3.472.472 0 01-.536.302 1.806 1.806 0 01-.956-.519 1.206 1.206 0 01-.322-.753.959.959 0 00-.924-.82c-1.022-.026-2.87-.087-4.297-.215a.977.977 0 00-1.01.646z" fill="#FFB577"/></g><defs><filter id="filter0_ii_3542_4474" x="14.625" y="5.559" width="9.312" height="7.988" filterUnits="userSpaceOnUse" color-interpolation-filters="sRGB"><feFlood flood-opacity="0" result="BackgroundImageFix"/><feBlend in="SourceGraphic" in2="BackgroundImageFix" result="shape"/><feColorMatrix in="SourceAlpha" values="0 0 0 0 0 0 0 0 0 0 0 0 0 0 0 0 0 0 127 0" result="hardAlpha"/><feOffset dx="-1.25" dy="-.625"/><feGaussianBlur stdDeviation=".625"/><feComposite in2="hardAlpha" operator="arithmetic" k2="-1" k3="1"/><feColorMatrix values="0 0 0 0 0.866667 0 0 0 0 0.396078 0 0 0 0 0 0 0 0 1 0"/><feBlend in2="shape" result="effect1_innerShadow_3542_4474"/><feColorMatrix in="SourceAlpha" values="0 0 0 0 0 0 0 0 0 0 0 0 0 0 0 0 0 0 127 0" result="hardAlpha"/><feOffset dy="2.5"/><feGaussianBlur stdDeviation="1.25"/><feComposite in2="hardAlpha" operator="arithmetic" k2="-1" k3="1"/><feColorMatrix values="0 0 0 0 1 0 0 0 0 1 0 0 0 0 1 0 0 0 0.25 0"/><feBlend in2="effect1_innerShadow_3542_4474" result="effect2_innerShadow_3542_4474"/></filter><filter id="filter1_ii_3542_4474" x="14.796" y="11.466" width="7.759" height="6.967" filterUnits="userSpaceOnUse" color-interpolation-filters="sRGB"><feFlood flood-opacity="0" result="BackgroundImageFix"/><feBlend in="SourceGraphic" in2="BackgroundImageFix" result="shape"/><feColorMatrix in="SourceAlpha" values="0 0 0 0 0 0 0 0 0 0 0 0 0 0 0 0 0 0 127 0" result="hardAlpha"/><feOffset dx="-1.25" dy="-.625"/><feGaussianBlur stdDeviation=".625"/><feComposite in2="hardAlpha" operator="arithmetic" k2="-1" k3="1"/><feColorMatrix values="0 0 0 0 0.866667 0 0 0 0 0.396078 0 0 0 0 0 0 0 0 1 0"/><feBlend in2="shape" result="effect1_innerShadow_3542_4474"/><feColorMatrix in="SourceAlpha" values="0 0 0 0 0 0 0 0 0 0 0 0 0 0 0 0 0 0 127 0" result="hardAlpha"/><feOffset dy="2.5"/><feGaussianBlur stdDeviation="1.25"/><feComposite in2="hardAlpha" operator="arithmetic" k2="-1" k3="1"/><feColorMatrix values="0 0 0 0 1 0 0 0 0 1 0 0 0 0 1 0 0 0 0.25 0"/><feBlend in2="effect1_innerShadow_3542_4474" result="effect2_innerShadow_3542_4474"/></filter><filter id="filter2_ii_3542_4474" x="15.544" y="16.261" width="8.035" height="7.541" filterUnits="userSpaceOnUse" color-interpolation-filters="sRGB"><feFlood flood-opacity="0" result="BackgroundImageFix"/><feBlend in="SourceGraphic" in2="BackgroundImageFix" result="shape"/><feColorMatrix in="SourceAlpha" values="0 0 0 0 0 0 0 0 0 0 0 0 0 0 0 0 0 0 127 0" result="hardAlpha"/><feOffset dx="-1.25" dy="-.625"/><feGaussianBlur stdDeviation=".625"/><feComposite in2="hardAlpha" operator="arithmetic" k2="-1" k3="1"/><feColorMatrix values="0 0 0 0 0.866667 0 0 0 0 0.396078 0 0 0 0 0 0 0 0 1 0"/><feBlend in2="shape" result="effect1_innerShadow_3542_4474"/><feColorMatrix in="SourceAlpha" values="0 0 0 0 0 0 0 0 0 0 0 0 0 0 0 0 0 0 127 0" result="hardAlpha"/><feOffset dy="2.5"/><feGaussianBlur stdDeviation="1.25"/><feComposite in2="hardAlpha" operator="arithmetic" k2="-1" k3="1"/><feColorMatrix values="0 0 0 0 1 0 0 0 0 1 0 0 0 0 1 0 0 0 0.25 0"/><feBlend in2="effect1_innerShadow_3542_4474" result="effect2_innerShadow_3542_4474"/></filter><filter id="filter3_ii_3542_4474" x="14.263" y="20.68" width="12.263" height="9.052" filterUnits="userSpaceOnUse" color-interpolation-filters="sRGB"><feFlood flood-opacity="0" result="BackgroundImageFix"/><feBlend in="SourceGraphic" in2="BackgroundImageFix" result="shape"/><feColorMatrix in="SourceAlpha" values="0 0 0 0 0 0 0 0 0 0 0 0 0 0 0 0 0 0 127 0" result="hardAlpha"/><feOffset dx="-1.25" dy="-.625"/><feGaussianBlur stdDeviation=".625"/><feComposite in2="hardAlpha" operator="arithmetic" k2="-1" k3="1"/><feColorMatrix values="0 0 0 0 0.866667 0 0 0 0 0.396078 0 0 0 0 0 0 0 0 1 0"/><feBlend in2="shape" result="effect1_innerShadow_3542_4474"/><feColorMatrix in="SourceAlpha" values="0 0 0 0 0 0 0 0 0 0 0 0 0 0 0 0 0 0 127 0" result="hardAlpha"/><feOffset dy="2.5"/><feGaussianBlur stdDeviation="1.25"/><feComposite in2="hardAlpha" operator="arithmetic" k2="-1" k3="1"/><feColorMatrix values="0 0 0 0 1 0 0 0 0 1 0 0 0 0 1 0 0 0 0.25 0"/><feBlend in2="effect1_innerShadow_3542_4474" result="effect2_innerShadow_3542_4474"/></filter><filter id="filter4_ii_3542_4474" x="11.938" y="26.411" width="14.876" height="9.905" filterUnits="userSpaceOnUse" color-interpolation-filters="sRGB"><feFlood flood-opacity="0" result="BackgroundImageFix"/><feBlend in="SourceGraphic" in2="BackgroundImageFix" result="shape"/><feColorMatrix in="SourceAlpha" values="0 0 0 0 0 0 0 0 0 0 0 0 0 0 0 0 0 0 127 0" result="hardAlpha"/><feOffset dx="-1.25" dy="-.625"/><feGaussianBlur stdDeviation=".625"/><feComposite in2="hardAlpha" operator="arithmetic" k2="-1" k3="1"/><feColorMatrix values="0 0 0 0 0.866667 0 0 0 0 0.396078 0 0 0 0 0 0 0 0 1 0"/><feBlend in2="shape" result="effect1_innerShadow_3542_4474"/><feColorMatrix in="SourceAlpha" values="0 0 0 0 0 0 0 0 0 0 0 0 0 0 0 0 0 0 127 0" result="hardAlpha"/><feOffset dy="2.5"/><feGaussianBlur stdDeviation="1.25"/><feComposite in2="hardAlpha" operator="arithmetic" k2="-1" k3="1"/><feColorMatrix values="0 0 0 0 1 0 0 0 0 1 0 0 0 0 1 0 0 0 0.25 0"/><feBlend in2="effect1_innerShadow_3542_4474" result="effect2_innerShadow_3542_4474"/></filter></defs></svg>