<svg width="40" height="40" fill="none" xmlns="http://www.w3.org/2000/svg"><g filter="url(#filter0_i_3542_3394)"><path opacity=".979" fill-rule="evenodd" clip-rule="evenodd" d="M21.15 10.586h1.823a7.715 7.715 0 013.451 1.213c.648.422 1.249.9 1.803 1.438a5.552 5.552 0 011.28 3.286 5.236 5.236 0 01-.66 3.659 62.888 62.888 0 01-1.24 1.68c-.975 1.583-1.246 3.275-.814 5.078.183.834.448 1.643.795 2.427a.497.497 0 01-.233.336h-.504a13.323 13.323 0 01-1.047-4.555c.026-.249.045-.498.058-.747.121-.671.238-1.343.349-2.016.495-.298.663-.72.504-1.27a3.53 3.53 0 00-.29-.635 3.001 3.001 0 001.182-1.792c.46-.55.602-1.173.427-1.867a2.742 2.742 0 00-.252-.56c.248-.927-.1-1.537-1.047-1.83-.37-1.456-1.333-2.252-2.89-2.389a.25.25 0 00-.116.037c-.65-.75-1.393-.85-2.23-.298-.937-.517-1.855-.486-2.752.093a1.95 1.95 0 00-.466.448c-1.25-.185-2.007.32-2.268 1.512-.698.361-.995.921-.892 1.68-.632 1.077-.58 2.123.155 3.137.78.87 1.756 1.194 2.928.97.762 1.119 1.783 1.411 3.063.878a2.92 2.92 0 00.446-.317c.242.091.494.141.756.15a.935.935 0 00.136.372c.306.413.713.687 1.221.822.071.408.09.819.058 1.232a9.767 9.767 0 00.194 5.638c.138.44.286.876.446 1.307h-4.653a.368.368 0 00-.097-.075 6.1 6.1 0 00-1.26-2.11l1.59-.56a2.49 2.49 0 001.415-1.213c.086-.21.1-.422.039-.635-.194-.199-.388-.199-.582 0a1.136 1.136 0 01-.485.915 4.52 4.52 0 01-.697.373 55.926 55.926 0 01-5.274 1.625c-.44-.062-.68-.311-.717-.747a1.307 1.307 0 010-.448c.248-.723.022-1.252-.679-1.587a.805.805 0 00.213-.504.46.46 0 00-.097-.15 3.34 3.34 0 01-.465-.373c.142-.236.252-.485.33-.747a.912.912 0 00-.33-.914c-.24-.147-.485-.284-.737-.411a.51.51 0 01-.232-.243 3.54 3.54 0 01.446-.634c.337-.338.66-.686.969-1.046.171-.255.3-.529.388-.821.059-.331.156-.648.29-.953a1.378 1.378 0 00-.251-.578l-.543-.523a.45.45 0 010-.261c.13-.34.273-.676.426-1.008a20.5 20.5 0 01.582-1.905 5.307 5.307 0 012.19-2.445 10.96 10.96 0 012.56-.784c.763-.152 1.525-.27 2.288-.355z" fill="#FFB577"/></g><g filter="url(#filter1_i_3542_3394)"><path opacity=".97" fill-rule="evenodd" clip-rule="evenodd" d="M19.832 12.08a2.03 2.03 0 011.28.242c.03.066.024.135-.02.206a1.1 1.1 0 000 .41c.176.234.37.246.582.038a.898.898 0 01.485-.84c.447-.147.79-.03 1.027.354.03.181.083.355.155.523.293.192.494.124.602-.205a.136.136 0 01-.04-.056c1.13.06 1.854.62 2.172 1.68-.21.079-.397.191-.562.336-.104.26-.014.421.271.485.205-.111.424-.186.66-.224.697.137.917.522.659 1.158a1.743 1.743 0 01-.466.373c-.095.264-.005.438.272.523a1.74 1.74 0 00.427-.224c.264.988-.104 1.642-1.106 1.96a1.88 1.88 0 01-1.085-.15.365.365 0 01-.117-.111c.27-.394.29-.799.059-1.214-.224-.205-.417-.18-.582.075.043.22.056.444.039.672-.195.336-.473.417-.834.243l-.31-.336c-.473-.018-.596.175-.369.578.38.454.858.591 1.435.411.612.48 1.297.617 2.055.41a1.22 1.22 0 01-.485.542c-.334.203-.696.34-1.085.41-.25.295-.185.5.194.617a8.5 8.5 0 00.64-.187c.03.006.055.018.077.038.119.212.203.436.252.672-.099.383-.331.476-.698.28a1.893 1.893 0 00-.543-.486 23.769 23.769 0 01-1.396-.597.69.69 0 01-.31-.392c.29.006.543-.08.756-.262.07-.265-.034-.414-.31-.448-.3.072-.603.11-.911.113a6.031 6.031 0 01-1.202-.169c-.17.152-.351.289-.543.411-.792.344-1.47.201-2.036-.43a1.584 1.584 0 01-.233-1.194c.068-.201.139-.4.214-.597-.023-.19-.133-.302-.33-.337-.08.03-.158.068-.233.113a5.125 5.125 0 00-.29.522c-.354-.073-.529-.285-.524-.634-.207-.3-.413-.3-.62 0-.016.688.326 1.11 1.027 1.269.051.12.077.244.078.373-1.148.169-1.982-.242-2.501-1.232a1.964 1.964 0 01.038-1.68c.165.226.378.294.64.205a.378.378 0 00.058-.466c-.468-.296-.571-.682-.31-1.158.475-.416.921-.385 1.338.094.227.08.389.012.485-.206a.692.692 0 00-.291-.504c-.23-.167-.49-.26-.776-.28.147-.613.547-.9 1.203-.859-.144.306-.054.518.27.635a.454.454 0 00.292-.187c.198-.695.657-1.13 1.376-1.306zm.078 2.09c-.772.228-1.199.732-1.28 1.513.135.37.348.427.64.168.028-.662.384-1.017 1.066-1.065.31-.169.335-.368.078-.597a3.422 3.422 0 00-.504-.018zm3.49 1.345c-.046.032-.092.07-.136.112-.072.25-.175.486-.31.71-.557.601-1.21.72-1.958.354a3.055 3.055 0 00-.466-.336c-.31.013-.433.168-.368.466.32.351.714.588 1.183.71-.113.152-.255.27-.427.355-.224.053-.444.109-.66.168l-.096.112c-.06.191-.003.334.174.429.836.024 1.43-.33 1.784-1.064.94-.226 1.52-.792 1.745-1.699-.052-.243-.207-.349-.465-.317z" fill="#FC7F59"/></g><g filter="url(#filter2_i_3542_3394)"><path opacity=".948" fill-rule="evenodd" clip-rule="evenodd" d="M26.114 29.703h-.892c-.5-1.254-.83-2.548-.989-3.883a9.78 9.78 0 010-1.232c.074-.603.177-1.2.31-1.793.007-.299.026-.598.059-.896.187.125.355.268.504.43.137.072.28.134.426.186a35.818 35.818 0 00-.33 1.774 9.108 9.108 0 00.233 3.174c.192.757.418 1.504.679 2.24z" fill="#FC835F"/></g><g filter="url(#filter3_i_3542_3394)"><path d="M31.495 24.444l-3.19-2.78a.46.46 0 00-.634.031.42.42 0 00.032.61l.376.328-4.11 4.374a.42.42 0 00.033.61l1.772 1.544a.46.46 0 00.633-.03l4.11-4.375.377.328a.46.46 0 00.633-.03.42.42 0 00-.032-.61z" fill="#87E3EC"/></g><g filter="url(#filter4_i_3542_3394)"><path d="M23.064 28.827a.42.42 0 00.07.562l.09.077-1.564 1.664a.42.42 0 00.032.61.46.46 0 00.633-.03l1.563-1.665.089.077a.46.46 0 00.587.012l.769-.615-1.71-1.49-.56.798z" fill="#87E3EC"/></g><g filter="url(#filter5_i_3542_3394)"><path d="M29.671 20.896l.909.791-.662.704.665.58.662-.704.908.79a.46.46 0 00.633-.03.42.42 0 00-.031-.61l-2.482-2.161a.46.46 0 00-.633.03.42.42 0 00.031.61z" fill="#1DB9C9"/></g><g filter="url(#filter6_i_3542_3394)" fill-rule="evenodd" clip-rule="evenodd" fill="#A4ADB5"><path opacity=".981" d="M8.622 6.558c.24-.006.46.057.66.189.354.24.68.515.98.823a7.505 7.505 0 011.224 1.678.614.614 0 01.063.211c-.256-.009-.5.044-.73.159a.069.069 0 01-.063 0 12.103 12.103 0 01-1.89-1.398 3.57 3.57 0 01-.44-.529.862.862 0 01-.11-.861.43.43 0 01.306-.272z"/><path opacity=".974" d="M8.152 8.507c.294.003.582.046.863.128.47.393.967.75 1.49 1.073-.247.09-.498.174-.752.25a6.717 6.717 0 01-1.397-.34 1.257 1.257 0 01-.541-.37.61.61 0 01-.063-.545.528.528 0 01.4-.196z"/><path opacity=".955" d="M11.306 9.685c.675-.034 1.153.243 1.436.832a.986.986 0 01.07.211c-.357.012-.6.178-.73.499a1.31 1.31 0 00-.038.272 2.543 2.543 0 00-.157.022l.368.537c.027.036.04.076.04.12-.04.328-.069.655-.087.983l.675.68c.053.107.022.177-.094.211a.257.257 0 01-.102-.045c-.251-.245-.5-.491-.745-.74a.63.63 0 01-.024-.076c.046-.332.08-.664.102-.997l-.44-.665-.957.408c.031.261.057.523.079.786l-.66 1.36c-.117.061-.192.03-.227-.091.2-.441.406-.88.62-1.315a3.68 3.68 0 00-.078-.65 2.955 2.955 0 00-.18.084c-.571.108-1.142.22-1.711.332l-1.726.59c-.136.024-.197-.028-.18-.16a.176.176 0 01.054-.067l1.71-.59a92.53 92.53 0 011.727-.347c.098-.032.192-.073.282-.121a10.13 10.13 0 01-.078-.56c.006-.093.058-.136.157-.128.23.032.46.06.69.084a1.923 1.923 0 01-.337-.582 1.881 1.881 0 01-.032-.65.996.996 0 01.228-.128c.115-.038.23-.07.345-.099zm-.769 1.647l.612.084c-.192.08-.383.164-.573.249a3.585 3.585 0 01-.039-.332z"/><path opacity=".871" d="M10.443 9.958h.062c-.025.273.009.54.102.8a2 2 0 00.07.129 5.632 5.632 0 00-.219.083c.016-.293-.05-.57-.196-.831a.856.856 0 01-.07-.083 8.4 8.4 0 01.25-.098z"/><path opacity=".958" d="M9.925 10.124a.951.951 0 01.283.922l-.722.257a1.3 1.3 0 00-.314-.892c.25-.102.5-.197.753-.287z"/><path opacity=".959" d="M8.905 10.517c.06.012.11.042.15.09.168.25.229.522.18.816-.224.1-.449.196-.675.287a.958.958 0 00-.283-.884c.209-.107.418-.21.628-.31z"/><path opacity=".956" d="M8.057 10.94a.08.08 0 01.047.007c.176.165.26.367.251.605a2.39 2.39 0 01-.023.28 2.77 2.77 0 01-.322.143c-.382.071-.537-.077-.463-.446.066-.159.163-.297.29-.415a2.55 2.55 0 00.22-.174z"/><path opacity=".946" d="M12.687 10.94c.366-.026.57.135.612.483l-.04.302c.067.254.137.505.213.756l.612.294c.132.155.096.225-.11.212l-.69-.332a.106.106 0 01-.04-.053 13.42 13.42 0 00-.133-.438c-.07.213-.138.427-.204.642.215.29.432.58.651.869.029.143-.031.201-.18.173a21.587 21.587 0 01-.746-.974.256.256 0 01.016-.136c.083-.276.17-.55.259-.824-.438.01-.64-.193-.604-.612a.533.533 0 01.384-.362z"/></g><defs><filter id="filter0_i_3542_3394" x="11.15" y="10.258" width="18.444" height="19.445" filterUnits="userSpaceOnUse" color-interpolation-filters="sRGB"><feFlood flood-opacity="0" result="BackgroundImageFix"/><feBlend in="SourceGraphic" in2="BackgroundImageFix" result="shape"/><feColorMatrix in="SourceAlpha" values="0 0 0 0 0 0 0 0 0 0 0 0 0 0 0 0 0 0 127 0" result="hardAlpha"/><feOffset dx="-.656" dy="-.328"/><feGaussianBlur stdDeviation=".492"/><feComposite in2="hardAlpha" operator="arithmetic" k2="-1" k3="1"/><feColorMatrix values="0 0 0 0 0.866667 0 0 0 0 0.396078 0 0 0 0 0 0 0 0 1 0"/><feBlend in2="shape" result="effect1_innerShadow_3542_3394"/></filter><filter id="filter1_i_3542_3394" x="14.683" y="11.733" width="12.736" height="10.136" filterUnits="userSpaceOnUse" color-interpolation-filters="sRGB"><feFlood flood-opacity="0" result="BackgroundImageFix"/><feBlend in="SourceGraphic" in2="BackgroundImageFix" result="shape"/><feColorMatrix in="SourceAlpha" values="0 0 0 0 0 0 0 0 0 0 0 0 0 0 0 0 0 0 127 0" result="hardAlpha"/><feOffset dx="-.656" dy="-.328"/><feGaussianBlur stdDeviation=".656"/><feComposite in2="hardAlpha" operator="arithmetic" k2="-1" k3="1"/><feColorMatrix values="0 0 0 0 0.682353 0 0 0 0 0.0156861 0 0 0 0 0 0 0 0 1 0"/><feBlend in2="shape" result="effect1_innerShadow_3542_3394"/></filter><filter id="filter2_i_3542_3394" x="23.886" y="21.572" width="2.228" height="8.132" filterUnits="userSpaceOnUse" color-interpolation-filters="sRGB"><feFlood flood-opacity="0" result="BackgroundImageFix"/><feBlend in="SourceGraphic" in2="BackgroundImageFix" result="shape"/><feColorMatrix in="SourceAlpha" values="0 0 0 0 0 0 0 0 0 0 0 0 0 0 0 0 0 0 127 0" result="hardAlpha"/><feOffset dx="-.328" dy="-.328"/><feGaussianBlur stdDeviation=".328"/><feComposite in2="hardAlpha" operator="arithmetic" k2="-1" k3="1"/><feColorMatrix values="0 0 0 0 0.682353 0 0 0 0 0.0156861 0 0 0 0 0 0 0 0 1 0"/><feBlend in2="shape" result="effect1_innerShadow_3542_3394"/></filter><filter id="filter3_i_3542_3394" x="22.603" y="20.927" width="9.04" height="8.345" filterUnits="userSpaceOnUse" color-interpolation-filters="sRGB"><feFlood flood-opacity="0" result="BackgroundImageFix"/><feBlend in="SourceGraphic" in2="BackgroundImageFix" result="shape"/><feColorMatrix in="SourceAlpha" values="0 0 0 0 0 0 0 0 0 0 0 0 0 0 0 0 0 0 127 0" result="hardAlpha"/><feOffset dx="-1.252" dy="-.626"/><feGaussianBlur stdDeviation=".626"/><feComposite in2="hardAlpha" operator="arithmetic" k2="-1" k3="1"/><feColorMatrix values="0 0 0 0 0 0 0 0 0 0.47451 0 0 0 0 0.521569 0 0 0 1 0"/><feBlend in2="shape" result="effect1_innerShadow_3542_3394"/></filter><filter id="filter4_i_3542_3394" x="20.918" y="27.404" width="4.415" height="4.448" filterUnits="userSpaceOnUse" color-interpolation-filters="sRGB"><feFlood flood-opacity="0" result="BackgroundImageFix"/><feBlend in="SourceGraphic" in2="BackgroundImageFix" result="shape"/><feColorMatrix in="SourceAlpha" values="0 0 0 0 0 0 0 0 0 0 0 0 0 0 0 0 0 0 127 0" result="hardAlpha"/><feOffset dx="-.626" dy="-.626"/><feGaussianBlur stdDeviation=".469"/><feComposite in2="hardAlpha" operator="arithmetic" k2="-1" k3="1"/><feColorMatrix values="0 0 0 0 0 0 0 0 0 0.47451 0 0 0 0 0.521569 0 0 0 1 0"/><feBlend in2="shape" result="effect1_innerShadow_3542_3394"/></filter><filter id="filter5_i_3542_3394" x="28.585" y="20.145" width="4.318" height="3.025" filterUnits="userSpaceOnUse" color-interpolation-filters="sRGB"><feFlood flood-opacity="0" result="BackgroundImageFix"/><feBlend in="SourceGraphic" in2="BackgroundImageFix" result="shape"/><feColorMatrix in="SourceAlpha" values="0 0 0 0 0 0 0 0 0 0 0 0 0 0 0 0 0 0 127 0" result="hardAlpha"/><feOffset dx="-1.252"/><feGaussianBlur stdDeviation=".469"/><feComposite in2="hardAlpha" operator="arithmetic" k2="-1" k3="1"/><feColorMatrix values="0 0 0 0 0.054902 0 0 0 0 0.517647 0 0 0 0 0.560784 0 0 0 1 0"/><feBlend in2="shape" result="effect1_innerShadow_3542_3394"/></filter><filter id="filter6_i_3542_3394" x="5.901" y="6.23" width="8.26" height="7.884" filterUnits="userSpaceOnUse" color-interpolation-filters="sRGB"><feFlood flood-opacity="0" result="BackgroundImageFix"/><feBlend in="SourceGraphic" in2="BackgroundImageFix" result="shape"/><feColorMatrix in="SourceAlpha" values="0 0 0 0 0 0 0 0 0 0 0 0 0 0 0 0 0 0 127 0" result="hardAlpha"/><feOffset dx="-.656" dy="-.328"/><feGaussianBlur stdDeviation=".328"/><feComposite in2="hardAlpha" operator="arithmetic" k2="-1" k3="1"/><feColorMatrix values="0 0 0 0 0.12549 0 0 0 0 0.12549 0 0 0 0 0.12549 0 0 0 1 0"/><feBlend in2="shape" result="effect1_innerShadow_3542_3394"/></filter></defs></svg>