<svg width="40" height="40" fill="none" xmlns="http://www.w3.org/2000/svg"><g filter="url(#filter0_ii_2442_34497)" fill="#FF8E8B"><path d="M15.782 27.188h-1.043c-.64 0-1.09-.654-.891-1.288l2.244-7.007-1.986 3.442c-.534.922-1.688 1.22-2.573.665-.885-.555-1.172-1.757-.639-2.679l3.141-5.444c1.19-2.057 3.323-3.315 5.626-3.315h.68c2.303 0 4.436 1.258 5.626 3.315l3.14 5.444c.534.922.247 2.124-.638 2.68-.885.555-2.04.256-2.573-.666L23.91 18.9l2.244 7c.205.635-.252 1.288-.89 1.288H24.22v5.86c0 1.08-.838 1.953-1.875 1.953s-1.875-.873-1.875-1.953v-5.86h-.938v5.86c0 1.08-.838 1.953-1.875 1.953s-1.875-.873-1.875-1.953v-5.86zm4.41-21.942c.746 0 1.462.309 1.99.858.527.55.823 1.295.823 2.072 0 .777-.296 1.522-.824 2.071a2.757 2.757 0 01-1.989.858 2.757 2.757 0 01-1.989-.858 2.993 2.993 0 01-.824-2.071c0-.777.297-1.522.824-2.072a2.757 2.757 0 011.99-.858z"/></g><defs><filter id="filter0_ii_2442_34497" x="9.376" y="4.621" width="21.25" height="30.379" filterUnits="userSpaceOnUse" color-interpolation-filters="sRGB"><feFlood flood-opacity="0" result="BackgroundImageFix"/><feBlend in="SourceGraphic" in2="BackgroundImageFix" result="shape"/><feColorMatrix in="SourceAlpha" values="0 0 0 0 0 0 0 0 0 0 0 0 0 0 0 0 0 0 127 0" result="hardAlpha"/><feOffset dx="-1.25" dy="-.625"/><feGaussianBlur stdDeviation=".938"/><feComposite in2="hardAlpha" operator="arithmetic" k2="-1" k3="1"/><feColorMatrix values="0 0 0 0 0.945098 0 0 0 0 0.219608 0 0 0 0 0 0 0 0 1 0"/><feBlend in2="shape" result="effect1_innerShadow_2442_34497"/><feColorMatrix in="SourceAlpha" values="0 0 0 0 0 0 0 0 0 0 0 0 0 0 0 0 0 0 127 0" result="hardAlpha"/><feOffset dx="1.25"/><feGaussianBlur stdDeviation="1.25"/><feComposite in2="hardAlpha" operator="arithmetic" k2="-1" k3="1"/><feColorMatrix values="0 0 0 0 1 0 0 0 0 1 0 0 0 0 1 0 0 0 0.25 0"/><feBlend in2="effect1_innerShadow_2442_34497" result="effect2_innerShadow_2442_34497"/></filter></defs></svg>