<svg width="40" height="40" fill="none" xmlns="http://www.w3.org/2000/svg"><g filter="url(#filter0_i_3542_10055)"><path d="M20 12.008a3.342 3.342 0 00-3.338 3.338v8.894A3.342 3.342 0 0020 27.578a3.342 3.342 0 003.338-3.338v-8.894A3.342 3.342 0 0020 12.008zm-.834 8.615c-.465 0-.81-.38-.83-.83-.02-.448.396-.83.83-.83.466 0 .81.38.83.83.02.448-.395.83-.83.83zm1.668 5.002c-.466 0-.81-.38-.83-.83-.02-.449.395-.83.83-.83.465 0 .81.38.83.83.02.448-.396.83-.83.83zm0-10.004c-.466 0-.81-.38-.83-.83-.02-.448.395-.83.83-.83.465 0 .81.38.83.83.02.448-.396.83-.83.83z" fill="#87E3EC"/></g><g filter="url(#filter1_i_3542_10055)"><path d="M29.17 20.623a.83.83 0 100-1.66h-.837v-2.508h.837a.83.83 0 000-1.66h-.879a8.268 8.268 0 00-.696-2.597l.761-.439a.83.83 0 10-.83-1.438l-.764.441a8.404 8.404 0 00-1.9-1.9l.442-.763a.83.83 0 10-1.438-.83l-.44.76a8.267 8.267 0 00-2.596-.695v-.879a.83.83 0 00-1.66 0v.879a8.268 8.268 0 00-2.597.696l-.439-.761a.83.83 0 10-1.438.83l.441.764a8.402 8.402 0 00-1.9 1.9l-.763-.442a.83.83 0 10-.83 1.438l.76.44a8.265 8.265 0 00-.695 2.596h-.879a.83.83 0 000 1.66h.837v2.508h-.837a.83.83 0 000 1.66h.837v2.508h-.837a.83.83 0 100 1.66h.879c.09.917.33 1.791.696 2.597l-.761.44a.83.83 0 10.83 1.437l.764-.441a8.405 8.405 0 001.9 1.9l-.442.763a.83.83 0 101.438.83l.44-.76a8.308 8.308 0 002.596.696v.878a.83.83 0 001.66 0v-.878a8.268 8.268 0 002.597-.697l.439.762a.83.83 0 101.438-.83l-.441-.764a8.405 8.405 0 001.9-1.9l.763.441a.83.83 0 10.83-1.438l-.76-.44a8.28 8.28 0 00.695-2.596h.879a.83.83 0 000-1.66h-.837v-2.508h.837zM20 29.238a5.004 5.004 0 01-4.998-4.998v-8.894A5.004 5.004 0 0120 10.348a5.004 5.004 0 014.998 4.998v8.894A5.004 5.004 0 0120 29.238z" fill="#FFB577"/></g><defs><filter id="filter0_i_3542_10055" x="15.412" y="11.383" width="7.926" height="16.195" filterUnits="userSpaceOnUse" color-interpolation-filters="sRGB"><feFlood flood-opacity="0" result="BackgroundImageFix"/><feBlend in="SourceGraphic" in2="BackgroundImageFix" result="shape"/><feColorMatrix in="SourceAlpha" values="0 0 0 0 0 0 0 0 0 0 0 0 0 0 0 0 0 0 127 0" result="hardAlpha"/><feOffset dx="-1.25" dy="-.625"/><feGaussianBlur stdDeviation=".781"/><feComposite in2="hardAlpha" operator="arithmetic" k2="-1" k3="1"/><feColorMatrix values="0 0 0 0 0 0 0 0 0 0.47451 0 0 0 0 0.521569 0 0 0 1 0"/><feBlend in2="shape" result="effect1_innerShadow_3542_10055"/></filter><filter id="filter1_i_3542_10055" x="8.75" y="5" width="21.25" height="28.961" filterUnits="userSpaceOnUse" color-interpolation-filters="sRGB"><feFlood flood-opacity="0" result="BackgroundImageFix"/><feBlend in="SourceGraphic" in2="BackgroundImageFix" result="shape"/><feColorMatrix in="SourceAlpha" values="0 0 0 0 0 0 0 0 0 0 0 0 0 0 0 0 0 0 127 0" result="hardAlpha"/><feOffset dx="-1.25" dy="-.625"/><feGaussianBlur stdDeviation=".625"/><feComposite in2="hardAlpha" operator="arithmetic" k2="-1" k3="1"/><feColorMatrix values="0 0 0 0 0.866667 0 0 0 0 0.396078 0 0 0 0 0 0 0 0 1 0"/><feBlend in2="shape" result="effect1_innerShadow_3542_10055"/></filter></defs></svg>