<svg width="40" height="40" fill="none" xmlns="http://www.w3.org/2000/svg"><g filter="url(#filter0_ii_3542_11251)"><path d="M22.733 13.701a.732.732 0 00.733-.732v-.05h2.392a2.298 2.298 0 002.295-2.294 2.298 2.298 0 00-2.295-2.295h-2.392v-.098a.732.732 0 10-1.465 0v4.737c0 .404.328.732.732.732z" fill="#1DB9C9"/></g><g filter="url(#filter1_ii_3542_11251)"><path d="M10.624 11.357h1.367a1.907 1.907 0 001.758 1.172h6.787V8.721H13.75c-.79 0-1.47.484-1.758 1.172h-1.367a.732.732 0 000 1.464z" fill="#87E3EC"/></g><g filter="url(#filter2_i_3542_11251)"><path d="M18.436 27.08a.83.83 0 100-1.66.83.83 0 000 1.66z" fill="#FF8E8B"/></g><g filter="url(#filter3_ii_3542_11251)"><path d="M27.811 24.736h3.467a1.22 1.22 0 100-2.441h-3.466a.733.733 0 01-.732-.768.746.746 0 01.753-.697h3.445a1.22 1.22 0 100-2.441h-6.57a.746.746 0 01-.753-.697.733.733 0 01.732-.768h5.254c.243-.647.214-1.12.214-1.611a.733.733 0 00-.732-.733h-5.428a5.286 5.286 0 00-4.345 2.255 3.849 3.849 0 01-3.158 1.651h-1.436c.04.213.06.425.06.635a4.546 4.546 0 01-4.54 4.541 4.523 4.523 0 01-3.077-1.204v7.686c0 .441.347.745.732.745h9.089c1.072 0 2.13.282 2.99.749a8.14 8.14 0 003.644.862h5.786a1.196 1.196 0 000-2.393h-1.907a.746.746 0 01-.753-.696.733.733 0 01.732-.768h3.466a1.22 1.22 0 100-2.442h-3.445a.746.746 0 01-.753-.697.733.733 0 01.732-.768zm-16.014 3.028a.733.733 0 110-1.467.733.733 0 010 1.467zm5.078-7.715a.733.733 0 110 1.465.733.733 0 010-1.465zm1.561 8.496a2.297 2.297 0 01-2.294-2.295 2.297 2.297 0 012.294-2.295 2.297 2.297 0 012.295 2.295 2.297 2.297 0 01-2.295 2.295zm3.956-6.25a.733.733 0 110-1.465.733.733 0 010 1.465zm2.343 4.687a.733.733 0 110-1.465.733.733 0 010 1.465z" fill="#FFB577"/></g><g filter="url(#filter4_ii_3542_11251)"><path d="M10.575 22.197a3.08 3.08 0 003.076-3.076c0-.74-.448-1.575-1.372-2.551a12.61 12.61 0 00-1.253-1.151.733.733 0 00-.902 0c-.025.02-.636.499-1.253 1.15-.923.977-1.372 1.812-1.372 2.552a3.08 3.08 0 003.076 3.076z" fill="#FC7F59"/></g><defs><filter id="filter0_ii_3542_11251" x="22.001" y="6.25" width="6.152" height="8.701" filterUnits="userSpaceOnUse" color-interpolation-filters="sRGB"><feFlood flood-opacity="0" result="BackgroundImageFix"/><feBlend in="SourceGraphic" in2="BackgroundImageFix" result="shape"/><feColorMatrix in="SourceAlpha" values="0 0 0 0 0 0 0 0 0 0 0 0 0 0 0 0 0 0 127 0" result="hardAlpha"/><feOffset dy="-1.875"/><feGaussianBlur stdDeviation=".625"/><feComposite in2="hardAlpha" operator="arithmetic" k2="-1" k3="1"/><feColorMatrix values="0 0 0 0 0 0 0 0 0 0.47451 0 0 0 0 0.521569 0 0 0 1 0"/><feBlend in2="shape" result="effect1_innerShadow_3542_11251"/><feColorMatrix in="SourceAlpha" values="0 0 0 0 0 0 0 0 0 0 0 0 0 0 0 0 0 0 127 0" result="hardAlpha"/><feOffset dy="1.25"/><feGaussianBlur stdDeviation="1.25"/><feComposite in2="hardAlpha" operator="arithmetic" k2="-1" k3="1"/><feColorMatrix values="0 0 0 0 1 0 0 0 0 1 0 0 0 0 1 0 0 0 0.25 0"/><feBlend in2="effect1_innerShadow_3542_11251" result="effect2_innerShadow_3542_11251"/></filter><filter id="filter1_ii_3542_11251" x="9.892" y="7.471" width="10.645" height="7.559" filterUnits="userSpaceOnUse" color-interpolation-filters="sRGB"><feFlood flood-opacity="0" result="BackgroundImageFix"/><feBlend in="SourceGraphic" in2="BackgroundImageFix" result="shape"/><feColorMatrix in="SourceAlpha" values="0 0 0 0 0 0 0 0 0 0 0 0 0 0 0 0 0 0 127 0" result="hardAlpha"/><feOffset dy="-1.25"/><feGaussianBlur stdDeviation=".625"/><feComposite in2="hardAlpha" operator="arithmetic" k2="-1" k3="1"/><feColorMatrix values="0 0 0 0 0 0 0 0 0 0.47451 0 0 0 0 0.521569 0 0 0 1 0"/><feBlend in2="shape" result="effect1_innerShadow_3542_11251"/><feColorMatrix in="SourceAlpha" values="0 0 0 0 0 0 0 0 0 0 0 0 0 0 0 0 0 0 127 0" result="hardAlpha"/><feOffset dy="2.5"/><feGaussianBlur stdDeviation="1.25"/><feComposite in2="hardAlpha" operator="arithmetic" k2="-1" k3="1"/><feColorMatrix values="0 0 0 0 1 0 0 0 0 1 0 0 0 0 1 0 0 0 0.25 0"/><feBlend in2="effect1_innerShadow_3542_11251" result="effect2_innerShadow_3542_11251"/></filter><filter id="filter2_i_3542_11251" x="16.981" y="24.795" width="2.285" height="2.285" filterUnits="userSpaceOnUse" color-interpolation-filters="sRGB"><feFlood flood-opacity="0" result="BackgroundImageFix"/><feBlend in="SourceGraphic" in2="BackgroundImageFix" result="shape"/><feColorMatrix in="SourceAlpha" values="0 0 0 0 0 0 0 0 0 0 0 0 0 0 0 0 0 0 127 0" result="hardAlpha"/><feOffset dx="-.625" dy="-.625"/><feGaussianBlur stdDeviation=".313"/><feComposite in2="hardAlpha" operator="arithmetic" k2="-1" k3="1"/><feColorMatrix values="0 0 0 0 0.663333 0 0 0 0 0.020101 0 0 0 0 0 0 0 0 1 0"/><feBlend in2="shape" result="effect1_innerShadow_3542_11251"/></filter><filter id="filter3_ii_3542_11251" x="7.499" y="13.955" width="25" height="21.045" filterUnits="userSpaceOnUse" color-interpolation-filters="sRGB"><feFlood flood-opacity="0" result="BackgroundImageFix"/><feBlend in="SourceGraphic" in2="BackgroundImageFix" result="shape"/><feColorMatrix in="SourceAlpha" values="0 0 0 0 0 0 0 0 0 0 0 0 0 0 0 0 0 0 127 0" result="hardAlpha"/><feOffset dy="-.625"/><feGaussianBlur stdDeviation=".625"/><feComposite in2="hardAlpha" operator="arithmetic" k2="-1" k3="1"/><feColorMatrix values="0 0 0 0 0.866667 0 0 0 0 0.396078 0 0 0 0 0 0 0 0 1 0"/><feBlend in2="shape" result="effect1_innerShadow_3542_11251"/><feColorMatrix in="SourceAlpha" values="0 0 0 0 0 0 0 0 0 0 0 0 0 0 0 0 0 0 127 0" result="hardAlpha"/><feOffset dy="5.625"/><feGaussianBlur stdDeviation="1.25"/><feComposite in2="hardAlpha" operator="arithmetic" k2="-1" k3="1"/><feColorMatrix values="0 0 0 0 1 0 0 0 0 1 0 0 0 0 1 0 0 0 0.17 0"/><feBlend in2="effect1_innerShadow_3542_11251" result="effect2_innerShadow_3542_11251"/></filter><filter id="filter4_ii_3542_11251" x="7.499" y="14.639" width="6.152" height="8.809" filterUnits="userSpaceOnUse" color-interpolation-filters="sRGB"><feFlood flood-opacity="0" result="BackgroundImageFix"/><feBlend in="SourceGraphic" in2="BackgroundImageFix" result="shape"/><feColorMatrix in="SourceAlpha" values="0 0 0 0 0 0 0 0 0 0 0 0 0 0 0 0 0 0 127 0" result="hardAlpha"/><feOffset dy="-.625"/><feGaussianBlur stdDeviation=".937"/><feComposite in2="hardAlpha" operator="arithmetic" k2="-1" k3="1"/><feColorMatrix values="0 0 0 0 0.682353 0 0 0 0 0.0156863 0 0 0 0 0 0 0 0 1 0"/><feBlend in2="shape" result="effect1_innerShadow_3542_11251"/><feColorMatrix in="SourceAlpha" values="0 0 0 0 0 0 0 0 0 0 0 0 0 0 0 0 0 0 127 0" result="hardAlpha"/><feOffset dy="4.375"/><feGaussianBlur stdDeviation=".625"/><feComposite in2="hardAlpha" operator="arithmetic" k2="-1" k3="1"/><feColorMatrix values="0 0 0 0 1 0 0 0 0 1 0 0 0 0 1 0 0 0 0.25 0"/><feBlend in2="effect1_innerShadow_3542_11251" result="effect2_innerShadow_3542_11251"/></filter></defs></svg>