<svg width="40" height="40" fill="none" xmlns="http://www.w3.org/2000/svg"><g filter="url(#filter0_i_3542_4552)"><path fill-rule="evenodd" clip-rule="evenodd" d="M25.416 31.476a9.017 9.017 0 100-18.033 9.017 9.017 0 000 18.033zm0-1.673a7.343 7.343 0 100-14.687 7.343 7.343 0 000 14.687z" fill="#87E3EC"/></g><g filter="url(#filter1_i_3542_4552)"><path fill-rule="evenodd" clip-rule="evenodd" d="M17.644 30.444a9.017 9.017 0 10-4.667-17.42 9.017 9.017 0 004.667 17.42zm-.433-1.617a7.343 7.343 0 10-3.801-14.186 7.343 7.343 0 003.801 14.186z" fill="#FFB576"/></g><g filter="url(#filter2_i_3542_4552)" fill="#87E3EC"><path d="M11.697 13.092c-.355.148-.64.248-.916.521l-1.969-1.81c.656-.393.897-.439 1.631-.437l1.254 1.726zm-1.332-2.017c-.742.035-.942.181-1.678.507l1.008-2.64c.283-.192.459-.236.8-.214l-.13 2.347zm2.345-2.94c-.715.026-1.107.115-1.784.478l-.13 2.346c1.21-.574 1.948-.703 3.293-.882L12.71 8.135zm1.385-.371c-.43-.03-.596.049-.861.23l1.255 1.976c.746-.372 1.145-.5 1.808-.39l-2.202-1.816zm.01 2.621c-1.35.12-2.045.321-3.2.858l1.107 1.67c.606-.231 1.054-.355 1.846-.494l.247-2.034zm.108 2.002l.354-2.126c.63-.39 1.014-.49 1.754-.47l-1.392 2.56a2.272 2.272 0 00-.716.036z"/></g><g filter="url(#filter3_i_3542_4552)"><path d="M25.678 10.643c-.891.767-.294 1.993-.098 2.472.504-.018 1.388-.024 2.273.21.94.247 1.718.6 2.153.938l.012-.006c.543-.281 1.877-.97 1.3-2.29-.582-1.327-2.316-1.063-2.895-.735-.488-.53-1.843-1.366-2.745-.59z" fill="#FC7F59"/></g><defs><filter id="filter0_i_3542_4552" x="16.071" y="13.443" width="18.361" height="18.361" filterUnits="userSpaceOnUse" color-interpolation-filters="sRGB"><feFlood flood-opacity="0" result="BackgroundImageFix"/><feBlend in="SourceGraphic" in2="BackgroundImageFix" result="shape"/><feColorMatrix in="SourceAlpha" values="0 0 0 0 0 0 0 0 0 0 0 0 0 0 0 0 0 0 127 0" result="hardAlpha"/><feOffset dx="-.328" dy=".328"/><feGaussianBlur stdDeviation=".492"/><feComposite in2="hardAlpha" operator="arithmetic" k2="-1" k3="1"/><feColorMatrix values="0 0 0 0 0 0 0 0 0 0.392157 0 0 0 0 0.427451 0 0 0 1 0"/><feBlend in2="shape" result="effect1_innerShadow_3542_4552"/></filter><filter id="filter1_i_3542_4552" x="5.8" y="12.715" width="18.529" height="18.366" filterUnits="userSpaceOnUse" color-interpolation-filters="sRGB"><feFlood flood-opacity="0" result="BackgroundImageFix"/><feBlend in="SourceGraphic" in2="BackgroundImageFix" result="shape"/><feColorMatrix in="SourceAlpha" values="0 0 0 0 0 0 0 0 0 0 0 0 0 0 0 0 0 0 127 0" result="hardAlpha"/><feOffset dx="-.656" dy=".328"/><feGaussianBlur stdDeviation=".246"/><feComposite in2="hardAlpha" operator="arithmetic" k2="-1" k3="1"/><feColorMatrix values="0 0 0 0 0.866667 0 0 0 0 0.396078 0 0 0 0 0 0 0 0 1 0"/><feBlend in2="shape" result="effect1_innerShadow_3542_4552"/></filter><filter id="filter2_i_3542_4552" x="8.359" y="7.43" width="7.962" height="6.183" filterUnits="userSpaceOnUse" color-interpolation-filters="sRGB"><feFlood flood-opacity="0" result="BackgroundImageFix"/><feBlend in="SourceGraphic" in2="BackgroundImageFix" result="shape"/><feColorMatrix in="SourceAlpha" values="0 0 0 0 0 0 0 0 0 0 0 0 0 0 0 0 0 0 127 0" result="hardAlpha"/><feOffset dx="-.328" dy="-.328"/><feGaussianBlur stdDeviation=".492"/><feComposite in2="hardAlpha" operator="arithmetic" k2="-1" k3="1"/><feColorMatrix values="0 0 0 0 0.0558333 0 0 0 0 0.512995 0 0 0 0 0.558333 0 0 0 1 0"/><feBlend in2="shape" result="effect1_innerShadow_3542_4552"/></filter><filter id="filter3_i_3542_4552" x="24.546" y="10.327" width="6.914" height="4.591" filterUnits="userSpaceOnUse" color-interpolation-filters="sRGB"><feFlood flood-opacity="0" result="BackgroundImageFix"/><feBlend in="SourceGraphic" in2="BackgroundImageFix" result="shape"/><feColorMatrix in="SourceAlpha" values="0 0 0 0 0 0 0 0 0 0 0 0 0 0 0 0 0 0 127 0" result="hardAlpha"/><feOffset dx="-.656" dy=".656"/><feGaussianBlur stdDeviation=".656"/><feComposite in2="hardAlpha" operator="arithmetic" k2="-1" k3="1"/><feColorMatrix values="0 0 0 0 0.745098 0 0 0 0 0.219608 0 0 0 0 0.203922 0 0 0 1 0"/><feBlend in2="shape" result="effect1_innerShadow_3542_4552"/></filter></defs></svg>