<svg width="40" height="40" fill="none" xmlns="http://www.w3.org/2000/svg"><g filter="url(#filter0_i_3542_5116)"><path d="M20.765 17.587a1.53 1.53 0 00-.22 1.633l-1.767 1.824a.506.506 0 000 .7.47.47 0 00.678 0l1.768-1.825a1.407 1.407 0 001.581-.227l-2.04-2.105z" fill="#87E3EC"/></g><g filter="url(#filter1_i_3542_5116)"><path d="M29.04 6.921a.469.469 0 00-.677 0 .506.506 0 000 .7l.344.355-4.126 4.258 3.41 3.52 4.126-4.258.344.355a.47.47 0 00.678 0 .506.506 0 000-.7l-4.099-4.23z" fill="#87E3EC"/></g><g filter="url(#filter2_ii_3542_5116)"><path d="M34.86 8.567l-3.316-3.422a.469.469 0 00-.678 0 .506.506 0 000 .7l.636.656-.755.78 2.044 2.11.755-.78.636.656a.47.47 0 00.678 0 .506.506 0 000-.7z" fill="#A4ADB5"/></g><g filter="url(#filter3_i_3542_5116)"><path d="M23.904 12.934l-2.138 2.206a1.63 1.63 0 00-.33 1.738l2.056 2.123a1.504 1.504 0 001.684-.341l2.138-2.207-3.41-3.52z" fill="#FFB577"/></g><g filter="url(#filter4_i_3542_5116)"><path fill-rule="evenodd" clip-rule="evenodd" d="M14.67 20.032c-.205-.503-.58-.73-1.126-.681-.612.255-.81.697-.591 1.324.153.19.319.366.496.53.026.491.026.983 0 1.475a.285.285 0 01-.172.17 7.81 7.81 0 00-1.317.321.444.444 0 01-.21-.056c-.393-.66-.78-1.321-1.164-1.986a.47.47 0 010-.265c.265-.574.119-1.01-.44-1.305-.544-.156-.945.015-1.202.51-.141.768.183 1.19.974 1.268a.27.27 0 01.134.094l1.145 1.967a.313.313 0 01-.038.265c-.35.297-.675.618-.974.965a.626.626 0 01-.305 0c-.41-.22-.811-.452-1.203-.7-.017-.52-.265-.88-.744-1.078-.878-.038-1.241.372-1.088 1.23.298.552.737.697 1.317.434a.482.482 0 01.267 0c.424.231.837.477 1.24.738a.598.598 0 010 .303 7.012 7.012 0 00-.343 1.248.27.27 0 01-.172.095 37.33 37.33 0 01-2.366 0 4.953 4.953 0 00-.535-.492 1.254 1.254 0 00-.649-.076c-.532.19-.754.562-.668 1.116.25.612.688.808 1.317.587.192-.152.37-.317.535-.492a36.912 36.912 0 012.366 0 .27.27 0 01.172.094c.09.41.205.813.344 1.211a.562.562 0 01-.038.378c-.392.248-.793.481-1.203.7a.482.482 0 01-.267 0c-.563-.266-1.002-.134-1.317.397-.168.594.029 1.016.592 1.268.724.076 1.112-.246 1.164-.965a.437.437 0 01.133-.17c.376-.205.745-.42 1.108-.643a.787.787 0 01.343 0c.3.346.624.668.973.964a.598.598 0 010 .303l-1.106 1.93a.267.267 0 01-.134.094c-.723.06-1.06.444-1.012 1.154.275.65.74.832 1.394.548.423-.346.518-.769.286-1.267a.348.348 0 010-.227l1.145-1.967a.342.342 0 01.23-.076c.428.146.867.253 1.316.322.055.017.1.049.134.094.062.514.075 1.03.038 1.551-.137.138-.277.277-.42.416a.936.936 0 00-.153.757c.25.613.69.808 1.317.587.468-.304.602-.714.401-1.23a4.947 4.947 0 00-.496-.53 14.237 14.237 0 010-1.475.285.285 0 01.172-.17 12.3 12.3 0 001.298-.322.33.33 0 01.286.114l1.107 1.929a.348.348 0 010 .227c-.265.624-.093 1.084.515 1.38.44.091.79-.041 1.05-.396.294-.686.084-1.147-.63-1.381a.595.595 0 01-.4-.133l-1.107-1.929a.608.608 0 010-.303c.35-.296.674-.617.973-.964a.64.64 0 01.534.113l.916.53c.06.046.104.102.134.17.013.154.039.305.076.454.367.579.844.686 1.432.322.354-.388.398-.81.134-1.268-.35-.36-.751-.43-1.203-.208a.482.482 0 01-.267 0c-.41-.219-.811-.452-1.203-.7a.562.562 0 01-.038-.378c.139-.397.253-.8.344-1.21a.266.266 0 01.134-.095 38.112 38.112 0 012.404 0c.14.135.28.274.42.416.218.156.46.207.726.151.54-.182.776-.554.706-1.116-.253-.605-.692-.8-1.317-.586-.192.152-.37.316-.535.492-.801.025-1.603.025-2.404 0a.266.266 0 01-.134-.095 6.49 6.49 0 00-.344-1.248.608.608 0 010-.303c.404-.26.817-.507 1.24-.738a.482.482 0 01.268 0c.14.087.293.13.458.133.439-.025.738-.24.897-.643.11-.597-.125-.982-.706-1.154-.715-.023-1.09.324-1.126 1.04a8.11 8.11 0 01-1.012.624.64.64 0 01-.534.114 8.754 8.754 0 00-.973-.965.767.767 0 010-.34 45.14 45.14 0 001.107-1.892.266.266 0 01.133-.094c.5-.005.838-.239 1.012-.7.038-.87-.375-1.23-1.24-1.078-.558.295-.705.73-.44 1.305a.47.47 0 010 .265l-1.145 1.967a.379.379 0 01-.248.075 8.093 8.093 0 00-1.184-.283.476.476 0 01-.248-.133 8.223 8.223 0 01-.038-1.55c.177-.164.343-.34.496-.53a1.22 1.22 0 00.077-.643zm-.939 6.522c.675 0 1.222-.542 1.222-1.21 0-.67-.547-1.211-1.222-1.211-.675 0-1.221.542-1.221 1.21 0 .669.546 1.21 1.221 1.21zm3.092 1.967c0 .669-.547 1.21-1.221 1.21a1.216 1.216 0 01-1.222-1.21c0-.669.547-1.21 1.222-1.21.674 0 1.221.541 1.221 1.21zm-4.924 1.21c.674 0 1.221-.541 1.221-1.21 0-.669-.547-1.21-1.221-1.21-.675 0-1.222.541-1.222 1.21 0 .669.547 1.21 1.222 1.21z" fill="#FC7F59"/></g><g filter="url(#filter5_ii_3542_5116)"><circle cx="13.75" cy="25.215" r=".625" fill="#FF8E8B"/></g><g filter="url(#filter6_ii_3542_5116)"><circle cx="11.875" cy="28.48" r=".625" fill="#FF8E8B"/></g><g filter="url(#filter7_ii_3542_5116)"><circle cx="15.625" cy="28.48" r=".625" fill="#FF8E8B"/></g><defs><filter id="filter0_i_3542_5116" x="18.638" y="16.961" width="4.167" height="4.928" filterUnits="userSpaceOnUse" color-interpolation-filters="sRGB"><feFlood flood-opacity="0" result="BackgroundImageFix"/><feBlend in="SourceGraphic" in2="BackgroundImageFix" result="shape"/><feColorMatrix in="SourceAlpha" values="0 0 0 0 0 0 0 0 0 0 0 0 0 0 0 0 0 0 127 0" result="hardAlpha"/><feOffset dy="-.626"/><feGaussianBlur stdDeviation=".626"/><feComposite in2="hardAlpha" operator="arithmetic" k2="-1" k3="1"/><feColorMatrix values="0 0 0 0 0 0 0 0 0 0.47451 0 0 0 0 0.521569 0 0 0 1 0"/><feBlend in2="shape" result="effect1_innerShadow_3542_5116"/></filter><filter id="filter1_i_3542_5116" x="23.956" y="6.776" width="9.323" height="8.978" filterUnits="userSpaceOnUse" color-interpolation-filters="sRGB"><feFlood flood-opacity="0" result="BackgroundImageFix"/><feBlend in="SourceGraphic" in2="BackgroundImageFix" result="shape"/><feColorMatrix in="SourceAlpha" values="0 0 0 0 0 0 0 0 0 0 0 0 0 0 0 0 0 0 127 0" result="hardAlpha"/><feOffset dx="-.626"/><feGaussianBlur stdDeviation=".626"/><feComposite in2="hardAlpha" operator="arithmetic" k2="-1" k3="1"/><feColorMatrix values="0 0 0 0 0 0 0 0 0 0.47451 0 0 0 0 0.521569 0 0 0 1 0"/><feBlend in2="shape" result="effect1_innerShadow_3542_5116"/></filter><filter id="filter2_ii_3542_5116" x="29.475" y="4.374" width="5.526" height="6.289" filterUnits="userSpaceOnUse" color-interpolation-filters="sRGB"><feFlood flood-opacity="0" result="BackgroundImageFix"/><feBlend in="SourceGraphic" in2="BackgroundImageFix" result="shape"/><feColorMatrix in="SourceAlpha" values="0 0 0 0 0 0 0 0 0 0 0 0 0 0 0 0 0 0 127 0" result="hardAlpha"/><feOffset dx="-1.252" dy="-.626"/><feGaussianBlur stdDeviation=".626"/><feComposite in2="hardAlpha" operator="arithmetic" k2="-1" k3="1"/><feColorMatrix values="0 0 0 0 0.12549 0 0 0 0 0.12549 0 0 0 0 0.12549 0 0 0 1 0"/><feBlend in2="shape" result="effect1_innerShadow_3542_5116"/><feColorMatrix in="SourceAlpha" values="0 0 0 0 0 0 0 0 0 0 0 0 0 0 0 0 0 0 127 0" result="hardAlpha"/><feOffset dx="-.626" dy="1.252"/><feGaussianBlur stdDeviation="1.252"/><feComposite in2="hardAlpha" operator="arithmetic" k2="-1" k3="1"/><feColorMatrix values="0 0 0 0 1 0 0 0 0 1 0 0 0 0 1 0 0 0 0.25 0"/><feBlend in2="effect1_innerShadow_3542_5116" result="effect2_innerShadow_3542_5116"/></filter><filter id="filter3_i_3542_5116" x="21.315" y="12.308" width="5.999" height="6.817" filterUnits="userSpaceOnUse" color-interpolation-filters="sRGB"><feFlood flood-opacity="0" result="BackgroundImageFix"/><feBlend in="SourceGraphic" in2="BackgroundImageFix" result="shape"/><feColorMatrix in="SourceAlpha" values="0 0 0 0 0 0 0 0 0 0 0 0 0 0 0 0 0 0 127 0" result="hardAlpha"/><feOffset dy="-.626"/><feGaussianBlur stdDeviation=".626"/><feComposite in2="hardAlpha" operator="arithmetic" k2="-1" k3="1"/><feColorMatrix values="0 0 0 0 0.866667 0 0 0 0 0.396078 0 0 0 0 0 0 0 0 1 0"/><feBlend in2="shape" result="effect1_innerShadow_3542_5116"/></filter><filter id="filter4_i_3542_5116" x="4.292" y="19.344" width="18.331" height="15.738" filterUnits="userSpaceOnUse" color-interpolation-filters="sRGB"><feFlood flood-opacity="0" result="BackgroundImageFix"/><feBlend in="SourceGraphic" in2="BackgroundImageFix" result="shape"/><feColorMatrix in="SourceAlpha" values="0 0 0 0 0 0 0 0 0 0 0 0 0 0 0 0 0 0 127 0" result="hardAlpha"/><feOffset dx="-.626"/><feGaussianBlur stdDeviation=".626"/><feComposite in2="hardAlpha" operator="arithmetic" k2="-1" k3="1"/><feColorMatrix values="0 0 0 0 0.682353 0 0 0 0 0.0156863 0 0 0 0 0 0 0 0 1 0"/><feBlend in2="shape" result="effect1_innerShadow_3542_5116"/></filter><filter id="filter5_ii_3542_5116" x="12.499" y="23.965" width="1.876" height="2.502" filterUnits="userSpaceOnUse" color-interpolation-filters="sRGB"><feFlood flood-opacity="0" result="BackgroundImageFix"/><feBlend in="SourceGraphic" in2="BackgroundImageFix" result="shape"/><feColorMatrix in="SourceAlpha" values="0 0 0 0 0 0 0 0 0 0 0 0 0 0 0 0 0 0 127 0" result="hardAlpha"/><feOffset dx="-.626" dy="-.626"/><feGaussianBlur stdDeviation=".313"/><feComposite in2="hardAlpha" operator="arithmetic" k2="-1" k3="1"/><feColorMatrix values="0 0 0 0 0.682353 0 0 0 0 0.0156863 0 0 0 0 0 0 0 0 1 0"/><feBlend in2="shape" result="effect1_innerShadow_3542_5116"/><feColorMatrix in="SourceAlpha" values="0 0 0 0 0 0 0 0 0 0 0 0 0 0 0 0 0 0 127 0" result="hardAlpha"/><feOffset dy=".626"/><feGaussianBlur stdDeviation=".626"/><feComposite in2="hardAlpha" operator="arithmetic" k2="-1" k3="1"/><feColorMatrix values="0 0 0 0 1 0 0 0 0 1 0 0 0 0 1 0 0 0 0.25 0"/><feBlend in2="effect1_innerShadow_3542_5116" result="effect2_innerShadow_3542_5116"/></filter><filter id="filter6_ii_3542_5116" x="10.624" y="27.23" width="1.876" height="2.502" filterUnits="userSpaceOnUse" color-interpolation-filters="sRGB"><feFlood flood-opacity="0" result="BackgroundImageFix"/><feBlend in="SourceGraphic" in2="BackgroundImageFix" result="shape"/><feColorMatrix in="SourceAlpha" values="0 0 0 0 0 0 0 0 0 0 0 0 0 0 0 0 0 0 127 0" result="hardAlpha"/><feOffset dx="-.626" dy="-.626"/><feGaussianBlur stdDeviation=".313"/><feComposite in2="hardAlpha" operator="arithmetic" k2="-1" k3="1"/><feColorMatrix values="0 0 0 0 0.682353 0 0 0 0 0.0156863 0 0 0 0 0 0 0 0 1 0"/><feBlend in2="shape" result="effect1_innerShadow_3542_5116"/><feColorMatrix in="SourceAlpha" values="0 0 0 0 0 0 0 0 0 0 0 0 0 0 0 0 0 0 127 0" result="hardAlpha"/><feOffset dy=".626"/><feGaussianBlur stdDeviation=".626"/><feComposite in2="hardAlpha" operator="arithmetic" k2="-1" k3="1"/><feColorMatrix values="0 0 0 0 1 0 0 0 0 1 0 0 0 0 1 0 0 0 0.25 0"/><feBlend in2="effect1_innerShadow_3542_5116" result="effect2_innerShadow_3542_5116"/></filter><filter id="filter7_ii_3542_5116" x="14.374" y="27.23" width="1.876" height="2.502" filterUnits="userSpaceOnUse" color-interpolation-filters="sRGB"><feFlood flood-opacity="0" result="BackgroundImageFix"/><feBlend in="SourceGraphic" in2="BackgroundImageFix" result="shape"/><feColorMatrix in="SourceAlpha" values="0 0 0 0 0 0 0 0 0 0 0 0 0 0 0 0 0 0 127 0" result="hardAlpha"/><feOffset dx="-.626" dy="-.626"/><feGaussianBlur stdDeviation=".313"/><feComposite in2="hardAlpha" operator="arithmetic" k2="-1" k3="1"/><feColorMatrix values="0 0 0 0 0.682353 0 0 0 0 0.0156863 0 0 0 0 0 0 0 0 1 0"/><feBlend in2="shape" result="effect1_innerShadow_3542_5116"/><feColorMatrix in="SourceAlpha" values="0 0 0 0 0 0 0 0 0 0 0 0 0 0 0 0 0 0 127 0" result="hardAlpha"/><feOffset dy=".626"/><feGaussianBlur stdDeviation=".626"/><feComposite in2="hardAlpha" operator="arithmetic" k2="-1" k3="1"/><feColorMatrix values="0 0 0 0 1 0 0 0 0 1 0 0 0 0 1 0 0 0 0.25 0"/><feBlend in2="effect1_innerShadow_3542_5116" result="effect2_innerShadow_3542_5116"/></filter></defs></svg>