<svg width="40" height="40" fill="none" xmlns="http://www.w3.org/2000/svg"><g filter="url(#filter0_ii_3542_3451)"><path d="M35.093 30.046v3.578c0 .414-.126.811-.35 1.104-.223.293-.526.457-.842.457-.316 0-.62-.164-.843-.457a1.835 1.835 0 01-.349-1.104v-3.578c.004-1.451-.302-2.874-.885-4.109-.582-1.234-1.416-2.23-2.408-2.874l-4.806-3.149c-1.389-.902-2.556-2.296-3.371-4.024-.815-1.727-1.244-3.72-1.239-5.75V6.56c0-.414.126-.81.349-1.104.224-.293.526-.457.843-.457.316 0 .619.164.842.457.224.293.35.69.35 1.104v3.578c-.005 1.451.302 2.874.884 4.109.582 1.234 1.417 2.23 2.409 2.874l4.805 3.149c1.389.902 2.557 2.296 3.372 4.024.815 1.727 1.244 3.72 1.239 5.75z" fill="#FC7F59"/></g><g filter="url(#filter1_ii_3542_3451)"><path d="M29.93 30.155h-7.547c.005-.705.083-1.405.232-2.082h5.58c.317 0 .62-.165.843-.457.224-.293.35-.69.35-1.104 0-.415-.126-.812-.35-1.104-.223-.293-.526-.458-.842-.458h-4.248c.1-.143.198-.283.31-.417.23-.284.366-.676.375-1.09a1.86 1.86 0 00-.323-1.118c-.217-.301-.516-.478-.832-.49-.316-.013-.623.14-.853.423-.827 1.024-1.486 2.258-1.938 3.627A13.957 13.957 0 0020 30.22v3.578c0 .414.125.81.349 1.104.223.292.526.457.843.457.316 0 .619-.165.842-.457.224-.293.349-.69.349-1.104v-.52h7.546c.316 0 .62-.165.843-.458.223-.293.349-.69.349-1.104 0-.414-.126-.811-.35-1.104-.223-.293-.526-.457-.842-.457z" fill="#FFB577"/></g><g filter="url(#filter2_ii_3542_3451)"><path d="M33.993 5c-.316 0-.62.164-.843.457-.223.293-.349.69-.349 1.104v.52h-7.546c-.316 0-.62.165-.842.458-.224.293-.35.69-.35 1.104 0 .414.126.811.35 1.104.223.293.526.457.842.457h7.546a10.04 10.04 0 01-.232 2.082h-5.582c-.316 0-.62.165-.843.457-.223.293-.349.69-.349 1.104 0 .414.126.812.35 1.104.223.293.526.458.842.458h4.25c-.1.143-.2.283-.311.417-.23.284-.365.676-.375 1.09-.01.414.107.816.323 1.118.217.301.516.478.832.49.316.013.623-.14.853-.423.827-1.024 1.487-2.258 1.938-3.627.451-1.369.685-2.844.687-4.335V6.561c0-.414-.125-.81-.349-1.104-.223-.293-.526-.457-.842-.457z" fill="#87E3EC"/></g><g filter="url(#filter3_ii_3542_3451)"><path d="M8.26 27.869c1.442.405 1.941.919 2.48 2.172l-1.066 1.525.996.997a1.643 1.643 0 010 2.32 1.637 1.637 0 01-2.319 0l-1.966-1.968a1.644 1.644 0 01-.188-2.103l2.06-2.943h.003zm5.26 2.172c.495-1.214 1.18-1.672 2.601-2.172l1.938 2.943a1.642 1.642 0 01-.184 2.099l-1.966 1.968a1.64 1.64 0 01-2.319-2.32l.996-.997-1.065-1.525v.004z" fill="#FFB577"/></g><g filter="url(#filter4_ii_3542_3451)"><path d="M4.577 19.17a1.637 1.637 0 012.29-.36l1.482 1.077a6.417 6.417 0 007.553 0l1.483-1.082a1.64 1.64 0 011.93 2.652l-1.483 1.083a9.821 9.821 0 01-1.774 1.025v1.488c-3.071.99-4.793 1.104-7.865 0v-1.488A9.582 9.582 0 016.42 22.54l-1.483-1.082a1.64 1.64 0 01-.36-2.292v.004z" fill="#FFB577"/></g><g filter="url(#filter5_ii_3542_3451)"><path d="M9.18 17.706a2.954 2.954 0 012.95-2.952 2.948 2.948 0 012.949 2.952 2.954 2.954 0 01-2.95 2.951 2.946 2.946 0 01-2.724-1.822 2.954 2.954 0 01-.225-1.13z" fill="#FFB577"/></g><g filter="url(#filter6_i_3542_3451)"><path d="M8.688 25.59c2.726.958 4.362.716 6.91-.04a.33.33 0 01.423.345l-.103 1.135a.332.332 0 01-.18.265c-1.347.684-1.794 1.146-2.37 2.35a.333.333 0 01-.3.19h-1.7a.333.333 0 01-.305-.203c-.461-1.08-.822-1.44-2.52-2.177a.33.33 0 01-.199-.275l-.104-1.25a.336.336 0 01.448-.34z" fill="#1DB9C9"/></g><defs><filter id="filter0_ii_3542_3451" x="20" y="3.75" width="16.343" height="31.435" filterUnits="userSpaceOnUse" color-interpolation-filters="sRGB"><feFlood flood-opacity="0" result="BackgroundImageFix"/><feBlend in="SourceGraphic" in2="BackgroundImageFix" result="shape"/><feColorMatrix in="SourceAlpha" values="0 0 0 0 0 0 0 0 0 0 0 0 0 0 0 0 0 0 127 0" result="hardAlpha"/><feOffset dy="-1.25"/><feGaussianBlur stdDeviation=".781"/><feComposite in2="hardAlpha" operator="arithmetic" k2="-1" k3="1"/><feColorMatrix values="0 0 0 0 0.682353 0 0 0 0 0.0156863 0 0 0 0 0 0 0 0 1 0"/><feBlend in2="shape" result="effect1_innerShadow_3542_3451"/><feColorMatrix in="SourceAlpha" values="0 0 0 0 0 0 0 0 0 0 0 0 0 0 0 0 0 0 127 0" result="hardAlpha"/><feOffset dx="1.25"/><feGaussianBlur stdDeviation="1.25"/><feComposite in2="hardAlpha" operator="arithmetic" k2="-1" k3="1"/><feColorMatrix values="0 0 0 0 1 0 0 0 0 1 0 0 0 0 1 0 0 0 0.25 0"/><feBlend in2="effect1_innerShadow_3542_3451" result="effect2_innerShadow_3542_3451"/></filter><filter id="filter1_ii_3542_3451" x="20" y="20.584" width="12.371" height="14.775" filterUnits="userSpaceOnUse" color-interpolation-filters="sRGB"><feFlood flood-opacity="0" result="BackgroundImageFix"/><feBlend in="SourceGraphic" in2="BackgroundImageFix" result="shape"/><feColorMatrix in="SourceAlpha" values="0 0 0 0 0 0 0 0 0 0 0 0 0 0 0 0 0 0 127 0" result="hardAlpha"/><feOffset dy="-1.25"/><feGaussianBlur stdDeviation=".781"/><feComposite in2="hardAlpha" operator="arithmetic" k2="-1" k3="1"/><feColorMatrix values="0 0 0 0 0.866667 0 0 0 0 0.396078 0 0 0 0 0 0 0 0 1 0"/><feBlend in2="shape" result="effect1_innerShadow_3542_3451"/><feColorMatrix in="SourceAlpha" values="0 0 0 0 0 0 0 0 0 0 0 0 0 0 0 0 0 0 127 0" result="hardAlpha"/><feOffset dx="1.25"/><feGaussianBlur stdDeviation="1.25"/><feComposite in2="hardAlpha" operator="arithmetic" k2="-1" k3="1"/><feColorMatrix values="0 0 0 0 1 0 0 0 0 1 0 0 0 0 1 0 0 0 0.25 0"/><feBlend in2="effect1_innerShadow_3542_3451" result="effect2_innerShadow_3542_3451"/></filter><filter id="filter2_ii_3542_3451" x="24.064" y="3.75" width="12.371" height="14.775" filterUnits="userSpaceOnUse" color-interpolation-filters="sRGB"><feFlood flood-opacity="0" result="BackgroundImageFix"/><feBlend in="SourceGraphic" in2="BackgroundImageFix" result="shape"/><feColorMatrix in="SourceAlpha" values="0 0 0 0 0 0 0 0 0 0 0 0 0 0 0 0 0 0 127 0" result="hardAlpha"/><feOffset dy="-1.25"/><feGaussianBlur stdDeviation=".781"/><feComposite in2="hardAlpha" operator="arithmetic" k2="-1" k3="1"/><feColorMatrix values="0 0 0 0 0 0 0 0 0 0.47451 0 0 0 0 0.521569 0 0 0 1 0"/><feBlend in2="shape" result="effect1_innerShadow_3542_3451"/><feColorMatrix in="SourceAlpha" values="0 0 0 0 0 0 0 0 0 0 0 0 0 0 0 0 0 0 127 0" result="hardAlpha"/><feOffset dx="1.25"/><feGaussianBlur stdDeviation="1.25"/><feComposite in2="hardAlpha" operator="arithmetic" k2="-1" k3="1"/><feColorMatrix values="0 0 0 0 1 0 0 0 0 1 0 0 0 0 1 0 0 0 0.25 0"/><feBlend in2="effect1_innerShadow_3542_3451" result="effect2_innerShadow_3542_3451"/></filter><filter id="filter3_ii_3542_3451" x="4.652" y="27.244" width="14.953" height="8.745" filterUnits="userSpaceOnUse" color-interpolation-filters="sRGB"><feFlood flood-opacity="0" result="BackgroundImageFix"/><feBlend in="SourceGraphic" in2="BackgroundImageFix" result="shape"/><feColorMatrix in="SourceAlpha" values="0 0 0 0 0 0 0 0 0 0 0 0 0 0 0 0 0 0 127 0" result="hardAlpha"/><feOffset dx="-1.25" dy="-.625"/><feGaussianBlur stdDeviation=".781"/><feComposite in2="hardAlpha" operator="arithmetic" k2="-1" k3="1"/><feColorMatrix values="0 0 0 0 0.866667 0 0 0 0 0.396078 0 0 0 0 0 0 0 0 1 0"/><feBlend in2="shape" result="effect1_innerShadow_3542_3451"/><feColorMatrix in="SourceAlpha" values="0 0 0 0 0 0 0 0 0 0 0 0 0 0 0 0 0 0 127 0" result="hardAlpha"/><feOffset dx="1.25" dy=".625"/><feGaussianBlur stdDeviation="1.25"/><feComposite in2="hardAlpha" operator="arithmetic" k2="-1" k3="1"/><feColorMatrix values="0 0 0 0 1 0 0 0 0 1 0 0 0 0 1 0 0 0 0.25 0"/><feBlend in2="effect1_innerShadow_3542_3451" result="effect2_innerShadow_3542_3451"/></filter><filter id="filter4_ii_3542_3451" x="2.951" y="18.492" width="18.288" height="7.972" filterUnits="userSpaceOnUse" color-interpolation-filters="sRGB"><feFlood flood-opacity="0" result="BackgroundImageFix"/><feBlend in="SourceGraphic" in2="BackgroundImageFix" result="shape"/><feColorMatrix in="SourceAlpha" values="0 0 0 0 0 0 0 0 0 0 0 0 0 0 0 0 0 0 127 0" result="hardAlpha"/><feOffset dx="-1.311"/><feGaussianBlur stdDeviation=".781"/><feComposite in2="hardAlpha" operator="arithmetic" k2="-1" k3="1"/><feColorMatrix values="0 0 0 0 0.866667 0 0 0 0 0.396078 0 0 0 0 0 0 0 0 1 0"/><feBlend in2="shape" result="effect1_innerShadow_3542_3451"/><feColorMatrix in="SourceAlpha" values="0 0 0 0 0 0 0 0 0 0 0 0 0 0 0 0 0 0 127 0" result="hardAlpha"/><feOffset dx="1.25" dy=".625"/><feGaussianBlur stdDeviation="1.25"/><feComposite in2="hardAlpha" operator="arithmetic" k2="-1" k3="1"/><feColorMatrix values="0 0 0 0 1 0 0 0 0 1 0 0 0 0 1 0 0 0 0.25 0"/><feBlend in2="effect1_innerShadow_3542_3451" result="effect2_innerShadow_3542_3451"/></filter><filter id="filter5_ii_3542_3451" x="7.93" y="14.129" width="8.398" height="7.153" filterUnits="userSpaceOnUse" color-interpolation-filters="sRGB"><feFlood flood-opacity="0" result="BackgroundImageFix"/><feBlend in="SourceGraphic" in2="BackgroundImageFix" result="shape"/><feColorMatrix in="SourceAlpha" values="0 0 0 0 0 0 0 0 0 0 0 0 0 0 0 0 0 0 127 0" result="hardAlpha"/><feOffset dx="-1.25" dy="-.625"/><feGaussianBlur stdDeviation=".781"/><feComposite in2="hardAlpha" operator="arithmetic" k2="-1" k3="1"/><feColorMatrix values="0 0 0 0 0.866667 0 0 0 0 0.396078 0 0 0 0 0 0 0 0 1 0"/><feBlend in2="shape" result="effect1_innerShadow_3542_3451"/><feColorMatrix in="SourceAlpha" values="0 0 0 0 0 0 0 0 0 0 0 0 0 0 0 0 0 0 127 0" result="hardAlpha"/><feOffset dx="1.25" dy=".625"/><feGaussianBlur stdDeviation="1.25"/><feComposite in2="hardAlpha" operator="arithmetic" k2="-1" k3="1"/><feColorMatrix values="0 0 0 0 1 0 0 0 0 1 0 0 0 0 1 0 0 0 0.25 0"/><feBlend in2="effect1_innerShadow_3542_3451" result="effect2_innerShadow_3542_3451"/></filter><filter id="filter6_i_3542_3451" x="7.583" y="25.209" width="8.44" height="4.627" filterUnits="userSpaceOnUse" color-interpolation-filters="sRGB"><feFlood flood-opacity="0" result="BackgroundImageFix"/><feBlend in="SourceGraphic" in2="BackgroundImageFix" result="shape"/><feColorMatrix in="SourceAlpha" values="0 0 0 0 0 0 0 0 0 0 0 0 0 0 0 0 0 0 127 0" result="hardAlpha"/><feOffset dx="-.656" dy="-.328"/><feGaussianBlur stdDeviation=".656"/><feComposite in2="hardAlpha" operator="arithmetic" k2="-1" k3="1"/><feColorMatrix values="0 0 0 0 0 0 0 0 0 0.47451 0 0 0 0 0.521569 0 0 0 1 0"/><feBlend in2="shape" result="effect1_innerShadow_3542_3451"/></filter></defs></svg>