<svg width="40" height="40" fill="none" xmlns="http://www.w3.org/2000/svg"><g filter="url(#filter0_i_3542_5740)"><path d="M24.603 8.234a.732.732 0 00-.73-.734h-7.29a.732.732 0 00-.728.734v3.769h8.748V8.234z" fill="#1DB9C9"/></g><g filter="url(#filter1_i_3542_5740)"><path d="M14.375 31.73a.73.73 0 00.732.728H25.35a.73.73 0 00.731-.727v-3.329H14.375v3.329z" fill="#FC7F59"/></g><g filter="url(#filter2_i_3542_5740)"><path d="M23.155 14.955v-1.537h-5.853v1.537a3.665 3.665 0 00-2.927 3.585v2.559h11.707v-2.56a3.665 3.665 0 00-2.927-3.584z" fill="#FC7F59"/></g><g filter="url(#filter3_i_3542_5740)" fill="#87E3EC"><path d="M14.78 26.622a.313.313 0 01-.307-.378l.605-2.843a.313.313 0 01.306-.248h.882c.232 0 .445.038.64.114.195.076.365.183.51.322.145.139.258.302.337.49.08.19.12.396.12.62 0 .261-.054.51-.16.744a2.003 2.003 0 01-.436.614 2.074 2.074 0 01-.634.417c-.241.099-.5.148-.773.148h-1.09zm.45-.639h.7a1.175 1.175 0 00.852-.357c.112-.116.2-.248.262-.396.063-.149.095-.31.095-.481a.968.968 0 00-.124-.496.827.827 0 00-.337-.337.958.958 0 00-.491-.124h-.49l-.467 2.191zm3.705.639a.313.313 0 01-.306-.378l.524-2.457h-.762a.313.313 0 01-.305-.38l.002-.008a.313.313 0 01.305-.246h2.354c.2 0 .348.184.305.38l-.002.008a.313.313 0 01-.305.246h-.889l-.551 2.588a.313.313 0 01-.306.247h-.064zm2.182.03c-.267 0-.48-.064-.639-.193a.65.65 0 01-.238-.526.79.79 0 01.129-.456.867.867 0 01.377-.292c.162-.07.355-.104.58-.104a1.885 1.885 0 01.703.134l.03-.134c.037-.175.01-.306-.08-.392-.085-.089-.234-.133-.445-.133-.096 0-.202.013-.317.04-.044.01-.092.023-.144.038a.284.284 0 01-.354-.18.257.257 0 01.161-.326c.106-.033.208-.059.307-.078a2.37 2.37 0 01.49-.055c.262 0 .476.043.645.13.172.085.292.21.362.371.07.159.079.35.03.575l-.275 1.303a.313.313 0 01-.306.248h-.24a.134.134 0 01-.131-.158c-.103.063-.207.11-.313.144-.105.03-.216.044-.332.044zm.228-.48c.093 0 .182-.012.268-.035.086-.027.167-.063.243-.11l.084-.376a1.287 1.287 0 00-.565-.124.652.652 0 00-.372.094.294.294 0 00-.133.253c0 .093.04.165.123.218a.67.67 0 00.352.08zm1.973.45a.313.313 0 01-.306-.378l.605-2.843a.313.313 0 01.306-.248h1.293c.215 0 .402.041.56.124a.919.919 0 01.372.347c.09.145.134.315.134.51 0 .222-.058.422-.174.6-.112.178-.266.32-.46.426a1.386 1.386 0 01-.655.154h-1.085l-.221 1.06a.313.313 0 01-.306.248h-.063zm.723-1.903h.937a.628.628 0 00.303-.07.523.523 0 00.287-.455.38.38 0 00-.129-.308.505.505 0 00-.347-.114h-.852l-.199.947z"/></g><defs><filter id="filter0_i_3542_5740" x="15.854" y="7.5" width="10.625" height="4.503" filterUnits="userSpaceOnUse" color-interpolation-filters="sRGB"><feFlood flood-opacity="0" result="BackgroundImageFix"/><feBlend in="SourceGraphic" in2="BackgroundImageFix" result="shape"/><feColorMatrix in="SourceAlpha" values="0 0 0 0 0 0 0 0 0 0 0 0 0 0 0 0 0 0 127 0" result="hardAlpha"/><feOffset dx="1.877"/><feGaussianBlur stdDeviation=".939"/><feComposite in2="hardAlpha" operator="arithmetic" k2="-1" k3="1"/><feColorMatrix values="0 0 0 0 0 0 0 0 0 0.47451 0 0 0 0 0.521569 0 0 0 1 0"/><feBlend in2="shape" result="effect1_innerShadow_3542_5740"/></filter><filter id="filter1_i_3542_5740" x="14.375" y="28.402" width="13.584" height="4.056" filterUnits="userSpaceOnUse" color-interpolation-filters="sRGB"><feFlood flood-opacity="0" result="BackgroundImageFix"/><feBlend in="SourceGraphic" in2="BackgroundImageFix" result="shape"/><feColorMatrix in="SourceAlpha" values="0 0 0 0 0 0 0 0 0 0 0 0 0 0 0 0 0 0 127 0" result="hardAlpha"/><feOffset dx="1.877"/><feGaussianBlur stdDeviation=".939"/><feComposite in2="hardAlpha" operator="arithmetic" k2="-1" k3="1"/><feColorMatrix values="0 0 0 0 0.682353 0 0 0 0 0.0156863 0 0 0 0 0 0 0 0 1 0"/><feBlend in2="shape" result="effect1_innerShadow_3542_5740"/></filter><filter id="filter2_i_3542_5740" x="14.375" y="13.418" width="13.584" height="7.681" filterUnits="userSpaceOnUse" color-interpolation-filters="sRGB"><feFlood flood-opacity="0" result="BackgroundImageFix"/><feBlend in="SourceGraphic" in2="BackgroundImageFix" result="shape"/><feColorMatrix in="SourceAlpha" values="0 0 0 0 0 0 0 0 0 0 0 0 0 0 0 0 0 0 127 0" result="hardAlpha"/><feOffset dx="1.877"/><feGaussianBlur stdDeviation=".939"/><feComposite in2="hardAlpha" operator="arithmetic" k2="-1" k3="1"/><feColorMatrix values="0 0 0 0 0.682353 0 0 0 0 0.0156863 0 0 0 0 0 0 0 0 1 0"/><feBlend in2="shape" result="effect1_innerShadow_3542_5740"/></filter><filter id="filter3_i_3542_5740" x="14.466" y="23.153" width="12.442" height="3.5" filterUnits="userSpaceOnUse" color-interpolation-filters="sRGB"><feFlood flood-opacity="0" result="BackgroundImageFix"/><feBlend in="SourceGraphic" in2="BackgroundImageFix" result="shape"/><feColorMatrix in="SourceAlpha" values="0 0 0 0 0 0 0 0 0 0 0 0 0 0 0 0 0 0 127 0" result="hardAlpha"/><feOffset dx=".626"/><feGaussianBlur stdDeviation=".469"/><feComposite in2="hardAlpha" operator="arithmetic" k2="-1" k3="1"/><feColorMatrix values="0 0 0 0 0 0 0 0 0 0.368627 0 0 0 0 0.403922 0 0 0 1 0"/><feBlend in2="shape" result="effect1_innerShadow_3542_5740"/></filter></defs></svg>