<svg width="40" height="40" fill="none" xmlns="http://www.w3.org/2000/svg"><g filter="url(#filter0_i_3542_3427)"><path d="M15.742 11.232h7.842a.817.817 0 00.817-.817V7.692a.817.817 0 00-.817-.817h-7.842a.817.817 0 00-.817.817v2.723c0 .451.366.817.817.817z" fill="#FFB577"/></g><g filter="url(#filter1_i_3542_3427)"><path d="M27.45 16.896a2.563 2.563 0 00-2.56-2.56h-.87a.927.927 0 01-.926-.926v-.544h-6.862v.544c0 .51-.415.926-.926.926h-.871a2.563 2.563 0 00-2.56 2.56v1.742h15.576v-1.742z" fill="#1DB9C9"/></g><g filter="url(#filter2_i_3542_3427)"><path d="M22.007 28.114H11.875v2.723a2.563 2.563 0 002.56 2.56h7.9a5.928 5.928 0 01-.794-2.972c0-.819.166-1.6.466-2.31z" fill="#1DB9C9"/></g><g filter="url(#filter3_i_3542_3427)"><path d="M27.45 20.272H11.876v6.208h11.16a5.95 5.95 0 014.415-2.019v-4.189zm-6.044 3.921H17.92a.817.817 0 010-1.634h3.485a.817.817 0 010 1.634z" fill="#F26F4E"/></g><g filter="url(#filter4_i_3542_3427)"><path d="M23.93 31.913a.626.626 0 01-.611-.76l.822-3.754a.626.626 0 01.61-.492h1.835c.475 0 .855.112 1.14.336.288.224.433.522.433.894 0 .258-.071.496-.213.715-.143.22-.331.398-.566.537.171.105.303.236.397.393a.968.968 0 01.147.522c0 .305-.089.58-.265.823a1.785 1.785 0 01-.706.579 2.39 2.39 0 01-1.014.207H23.93zm1.12-3.01h1.175c.192 0 .35-.053.478-.158a.516.516 0 00.192-.408.365.365 0 00-.14-.307.586.586 0 00-.383-.114h-1.11l-.213.986zm-.442 2.002h1.36c.137 0 .26-.026.368-.079a.605.605 0 00.25-.214.555.555 0 00.095-.315.397.397 0 00-.154-.329c-.098-.081-.235-.122-.412-.122h-1.271l-.236 1.059z" fill="#87E3EC"/></g><defs><filter id="filter0_i_3542_3427" x="13.048" y="6.875" width="11.353" height="4.357" filterUnits="userSpaceOnUse" color-interpolation-filters="sRGB"><feFlood flood-opacity="0" result="BackgroundImageFix"/><feBlend in="SourceGraphic" in2="BackgroundImageFix" result="shape"/><feColorMatrix in="SourceAlpha" values="0 0 0 0 0 0 0 0 0 0 0 0 0 0 0 0 0 0 127 0" result="hardAlpha"/><feOffset dx="-1.877"/><feGaussianBlur stdDeviation=".984"/><feComposite in2="hardAlpha" operator="arithmetic" k2="-1" k3="1"/><feColorMatrix values="0 0 0 0 0.866667 0 0 0 0 0.396078 0 0 0 0 0 0 0 0 1 0"/><feBlend in2="shape" result="effect1_innerShadow_3542_3427"/></filter><filter id="filter1_i_3542_3427" x="9.998" y="12.866" width="17.453" height="5.773" filterUnits="userSpaceOnUse" color-interpolation-filters="sRGB"><feFlood flood-opacity="0" result="BackgroundImageFix"/><feBlend in="SourceGraphic" in2="BackgroundImageFix" result="shape"/><feColorMatrix in="SourceAlpha" values="0 0 0 0 0 0 0 0 0 0 0 0 0 0 0 0 0 0 127 0" result="hardAlpha"/><feOffset dx="-1.877"/><feGaussianBlur stdDeviation=".984"/><feComposite in2="hardAlpha" operator="arithmetic" k2="-1" k3="1"/><feColorMatrix values="0 0 0 0 0 0 0 0 0 0.47451 0 0 0 0 0.521569 0 0 0 1 0"/><feBlend in2="shape" result="effect1_innerShadow_3542_3427"/></filter><filter id="filter2_i_3542_3427" x="9.998" y="28.114" width="12.338" height="5.283" filterUnits="userSpaceOnUse" color-interpolation-filters="sRGB"><feFlood flood-opacity="0" result="BackgroundImageFix"/><feBlend in="SourceGraphic" in2="BackgroundImageFix" result="shape"/><feColorMatrix in="SourceAlpha" values="0 0 0 0 0 0 0 0 0 0 0 0 0 0 0 0 0 0 127 0" result="hardAlpha"/><feOffset dx="-1.877"/><feGaussianBlur stdDeviation=".984"/><feComposite in2="hardAlpha" operator="arithmetic" k2="-1" k3="1"/><feColorMatrix values="0 0 0 0 0 0 0 0 0 0.47451 0 0 0 0 0.521569 0 0 0 1 0"/><feBlend in2="shape" result="effect1_innerShadow_3542_3427"/></filter><filter id="filter3_i_3542_3427" x="9.998" y="20.272" width="17.453" height="6.208" filterUnits="userSpaceOnUse" color-interpolation-filters="sRGB"><feFlood flood-opacity="0" result="BackgroundImageFix"/><feBlend in="SourceGraphic" in2="BackgroundImageFix" result="shape"/><feColorMatrix in="SourceAlpha" values="0 0 0 0 0 0 0 0 0 0 0 0 0 0 0 0 0 0 127 0" result="hardAlpha"/><feOffset dx="-1.877"/><feGaussianBlur stdDeviation=".984"/><feComposite in2="hardAlpha" operator="arithmetic" k2="-1" k3="1"/><feColorMatrix values="0 0 0 0 0.682353 0 0 0 0 0.0156863 0 0 0 0 0 0 0 0 1 0"/><feBlend in2="shape" result="effect1_innerShadow_3542_3427"/></filter><filter id="filter4_i_3542_3427" x="22.678" y="26.907" width="5.48" height="5.006" filterUnits="userSpaceOnUse" color-interpolation-filters="sRGB"><feFlood flood-opacity="0" result="BackgroundImageFix"/><feBlend in="SourceGraphic" in2="BackgroundImageFix" result="shape"/><feColorMatrix in="SourceAlpha" values="0 0 0 0 0 0 0 0 0 0 0 0 0 0 0 0 0 0 127 0" result="hardAlpha"/><feOffset dx="-.626"/><feGaussianBlur stdDeviation=".492"/><feComposite in2="hardAlpha" operator="arithmetic" k2="-1" k3="1"/><feColorMatrix values="0 0 0 0 0 0 0 0 0 0.494118 0 0 0 0 0.541176 0 0 0 1 0"/><feBlend in2="shape" result="effect1_innerShadow_3542_3427"/></filter></defs></svg>