<svg width="40" height="40" fill="none" xmlns="http://www.w3.org/2000/svg"><g filter="url(#filter0_ii_3542_4568)"><path d="M16.72 8.105c0-.681.548-1.23 1.23-1.23h4.101c.682 0 1.23.549 1.23 1.23 0 .682-.548 1.23-1.23 1.23h-.82v1.724a8.998 8.998 0 014.22 1.748l1.22-1.215-.58-.585A1.23 1.23 0 0127.83 9.27l2.902 2.902a1.23 1.23 0 01-1.738 1.738l-.584-.58-1.22 1.221a8.97 8.97 0 011.748 4.22h1.728v-.82c0-.683.548-1.231 1.23-1.231.682 0 1.23.548 1.23 1.23v4.102c0 .682-.548 1.23-1.23 1.23-.682 0-1.23-.548-1.23-1.23v-.82h-1.723a8.998 8.998 0 01-1.748 4.219l1.215 1.22.579-.58a1.23 1.23 0 011.738 1.738l-2.902 2.903a1.23 1.23 0 01-1.738-1.738l.585-.585-1.22-1.22a8.97 8.97 0 01-4.22 1.748v1.728h.82c.682 0 1.23.549 1.23 1.23 0 .682-.548 1.231-1.23 1.231H17.95c-.682 0-1.23-.549-1.23-1.23 0-.682.548-1.23 1.23-1.23h.82V28.94a8.999 8.999 0 01-4.22-1.748l-1.22 1.215.58.58a1.23 1.23 0 01-1.738 1.738L9.27 27.829a1.23 1.23 0 011.738-1.738l.584.58 1.22-1.221a8.953 8.953 0 01-1.753-4.22H9.336v.82c0 .683-.548 1.231-1.23 1.231-.682 0-1.23-.548-1.23-1.23v-4.102c0-.682.548-1.23 1.23-1.23.682 0 1.23.548 1.23 1.23v.82h1.723a9 9 0 011.748-4.219l-1.215-1.22-.584.58a1.23 1.23 0 01-1.738-1.738l2.902-2.903a1.23 1.23 0 011.738 1.738l-.58.585 1.22 1.22a8.97 8.97 0 014.22-1.748V9.336h-.82c-.682 0-1.23-.549-1.23-1.23z" fill="#87E3EC"/></g><g filter="url(#filter1_i_3542_4568)"><rect x="16.25" y="6.875" width="7.5" height="2.5" rx="1.25" fill="#FFB577"/></g><g filter="url(#filter2_i_3542_4568)"><rect x="8.025" y="13.282" width="7.5" height="2.644" rx="1.322" transform="rotate(-44.53 8.025 13.282)" fill="#FFB577"/></g><g filter="url(#filter3_i_3542_4568)"><rect x="6.875" y="23.75" width="7.5" height="2.644" rx="1.322" transform="rotate(-90 6.875 23.75)" fill="#FFB577"/></g><g filter="url(#filter4_i_3542_4568)"><rect x="13.429" y="32.173" width="7.5" height="2.644" rx="1.322" transform="rotate(-135 13.429 32.173)" fill="#FFB577"/></g><g filter="url(#filter5_i_3542_4568)"><rect x="23.75" y="33.269" width="7.5" height="2.644" rx="1.322" transform="rotate(180 23.75 33.269)" fill="#FFB577"/></g><g filter="url(#filter6_i_3542_4568)"><rect x="30.304" y="15.196" width="7.5" height="2.5" rx="1.25" transform="rotate(-135 30.304 15.196)" fill="#FFB577"/></g><g filter="url(#filter7_i_3542_4568)"><rect x="33.126" y="16.25" width="7.5" height="2.5" rx="1.25" transform="rotate(90 33.126 16.25)" fill="#FFB577"/></g><g filter="url(#filter8_i_3542_4568)"><rect x="32.071" y="26.768" width="7.5" height="2.694" rx="1.347" transform="rotate(135 32.071 26.768)" fill="#FFB577"/></g><defs><filter id="filter0_ii_3542_4568" x="6.875" y="5.625" width="26.25" height="30" filterUnits="userSpaceOnUse" color-interpolation-filters="sRGB"><feFlood flood-opacity="0" result="BackgroundImageFix"/><feBlend in="SourceGraphic" in2="BackgroundImageFix" result="shape"/><feColorMatrix in="SourceAlpha" values="0 0 0 0 0 0 0 0 0 0 0 0 0 0 0 0 0 0 127 0" result="hardAlpha"/><feOffset dy="2.5"/><feGaussianBlur stdDeviation="5"/><feComposite in2="hardAlpha" operator="arithmetic" k2="-1" k3="1"/><feColorMatrix values="0 0 0 0 1 0 0 0 0 1 0 0 0 0 1 0 0 0 0.24 0"/><feBlend in2="shape" result="effect1_innerShadow_3542_4568"/><feColorMatrix in="SourceAlpha" values="0 0 0 0 0 0 0 0 0 0 0 0 0 0 0 0 0 0 127 0" result="hardAlpha"/><feOffset dy="-1.25"/><feGaussianBlur stdDeviation="1.25"/><feComposite in2="hardAlpha" operator="arithmetic" k2="-1" k3="1"/><feColorMatrix values="0 0 0 0 0 0 0 0 0 0.47451 0 0 0 0 0.521569 0 0 0 1 0"/><feBlend in2="effect1_innerShadow_3542_4568" result="effect2_innerShadow_3542_4568"/></filter><filter id="filter1_i_3542_4568" x="15.313" y="6.25" width="8.438" height="3.125" filterUnits="userSpaceOnUse" color-interpolation-filters="sRGB"><feFlood flood-opacity="0" result="BackgroundImageFix"/><feBlend in="SourceGraphic" in2="BackgroundImageFix" result="shape"/><feColorMatrix in="SourceAlpha" values="0 0 0 0 0 0 0 0 0 0 0 0 0 0 0 0 0 0 127 0" result="hardAlpha"/><feOffset dx="-1.25" dy="-.625"/><feGaussianBlur stdDeviation=".469"/><feComposite in2="hardAlpha" operator="arithmetic" k2="-1" k3="1"/><feColorMatrix values="0 0 0 0 0.866667 0 0 0 0 0.396078 0 0 0 0 0 0 0 0 1 0"/><feBlend in2="shape" result="effect1_innerShadow_3542_4568"/></filter><filter id="filter2_i_3542_4568" x="7.635" y="7.945" width="7.043" height="6.674" filterUnits="userSpaceOnUse" color-interpolation-filters="sRGB"><feFlood flood-opacity="0" result="BackgroundImageFix"/><feBlend in="SourceGraphic" in2="BackgroundImageFix" result="shape"/><feColorMatrix in="SourceAlpha" values="0 0 0 0 0 0 0 0 0 0 0 0 0 0 0 0 0 0 127 0" result="hardAlpha"/><feOffset dx="-1.25" dy="-.625"/><feGaussianBlur stdDeviation=".469"/><feComposite in2="hardAlpha" operator="arithmetic" k2="-1" k3="1"/><feColorMatrix values="0 0 0 0 0.866667 0 0 0 0 0.396078 0 0 0 0 0 0 0 0 1 0"/><feBlend in2="shape" result="effect1_innerShadow_3542_4568"/></filter><filter id="filter3_i_3542_4568" x="5.938" y="15.625" width="3.582" height="8.125" filterUnits="userSpaceOnUse" color-interpolation-filters="sRGB"><feFlood flood-opacity="0" result="BackgroundImageFix"/><feBlend in="SourceGraphic" in2="BackgroundImageFix" result="shape"/><feColorMatrix in="SourceAlpha" values="0 0 0 0 0 0 0 0 0 0 0 0 0 0 0 0 0 0 127 0" result="hardAlpha"/><feOffset dx="-1.25" dy="-.625"/><feGaussianBlur stdDeviation=".469"/><feComposite in2="hardAlpha" operator="arithmetic" k2="-1" k3="1"/><feColorMatrix values="0 0 0 0 0.866667 0 0 0 0 0.396078 0 0 0 0 0 0 0 0 1 0"/><feBlend in2="shape" result="effect1_innerShadow_3542_4568"/></filter><filter id="filter4_i_3542_4568" x="7.735" y="24.923" width="7.015" height="6.703" filterUnits="userSpaceOnUse" color-interpolation-filters="sRGB"><feFlood flood-opacity="0" result="BackgroundImageFix"/><feBlend in="SourceGraphic" in2="BackgroundImageFix" result="shape"/><feColorMatrix in="SourceAlpha" values="0 0 0 0 0 0 0 0 0 0 0 0 0 0 0 0 0 0 127 0" result="hardAlpha"/><feOffset dx="-1.25" dy="-.625"/><feGaussianBlur stdDeviation=".469"/><feComposite in2="hardAlpha" operator="arithmetic" k2="-1" k3="1"/><feColorMatrix values="0 0 0 0 0.866667 0 0 0 0 0.396078 0 0 0 0 0 0 0 0 1 0"/><feBlend in2="shape" result="effect1_innerShadow_3542_4568"/></filter><filter id="filter5_i_3542_4568" x="15.313" y="30" width="8.438" height="3.269" filterUnits="userSpaceOnUse" color-interpolation-filters="sRGB"><feFlood flood-opacity="0" result="BackgroundImageFix"/><feBlend in="SourceGraphic" in2="BackgroundImageFix" result="shape"/><feColorMatrix in="SourceAlpha" values="0 0 0 0 0 0 0 0 0 0 0 0 0 0 0 0 0 0 127 0" result="hardAlpha"/><feOffset dx="-1.25" dy="-.625"/><feGaussianBlur stdDeviation=".469"/><feComposite in2="hardAlpha" operator="arithmetic" k2="-1" k3="1"/><feColorMatrix values="0 0 0 0 0.866667 0 0 0 0 0.396078 0 0 0 0 0 0 0 0 1 0"/><feBlend in2="shape" result="effect1_innerShadow_3542_4568"/></filter><filter id="filter6_i_3542_4568" x="24.581" y="8.018" width="6.973" height="6.661" filterUnits="userSpaceOnUse" color-interpolation-filters="sRGB"><feFlood flood-opacity="0" result="BackgroundImageFix"/><feBlend in="SourceGraphic" in2="BackgroundImageFix" result="shape"/><feColorMatrix in="SourceAlpha" values="0 0 0 0 0 0 0 0 0 0 0 0 0 0 0 0 0 0 127 0" result="hardAlpha"/><feOffset dx="-1.25" dy="-.625"/><feGaussianBlur stdDeviation=".469"/><feComposite in2="hardAlpha" operator="arithmetic" k2="-1" k3="1"/><feColorMatrix values="0 0 0 0 0.866667 0 0 0 0 0.396078 0 0 0 0 0 0 0 0 1 0"/><feBlend in2="shape" result="effect1_innerShadow_3542_4568"/></filter><filter id="filter7_i_3542_4568" x="29.688" y="15.625" width="3.438" height="8.125" filterUnits="userSpaceOnUse" color-interpolation-filters="sRGB"><feFlood flood-opacity="0" result="BackgroundImageFix"/><feBlend in="SourceGraphic" in2="BackgroundImageFix" result="shape"/><feColorMatrix in="SourceAlpha" values="0 0 0 0 0 0 0 0 0 0 0 0 0 0 0 0 0 0 127 0" result="hardAlpha"/><feOffset dx="-1.25" dy="-.625"/><feGaussianBlur stdDeviation=".469"/><feComposite in2="hardAlpha" operator="arithmetic" k2="-1" k3="1"/><feColorMatrix values="0 0 0 0 0.866667 0 0 0 0 0.396078 0 0 0 0 0 0 0 0 1 0"/><feBlend in2="shape" result="effect1_innerShadow_3542_4568"/></filter><filter id="filter8_i_3542_4568" x="24.483" y="24.795" width="7.03" height="6.718" filterUnits="userSpaceOnUse" color-interpolation-filters="sRGB"><feFlood flood-opacity="0" result="BackgroundImageFix"/><feBlend in="SourceGraphic" in2="BackgroundImageFix" result="shape"/><feColorMatrix in="SourceAlpha" values="0 0 0 0 0 0 0 0 0 0 0 0 0 0 0 0 0 0 127 0" result="hardAlpha"/><feOffset dx="-1.25" dy="-.625"/><feGaussianBlur stdDeviation=".469"/><feComposite in2="hardAlpha" operator="arithmetic" k2="-1" k3="1"/><feColorMatrix values="0 0 0 0 0.866667 0 0 0 0 0.396078 0 0 0 0 0 0 0 0 1 0"/><feBlend in2="shape" result="effect1_innerShadow_3542_4568"/></filter></defs></svg>