<svg width="40" height="40" fill="none" xmlns="http://www.w3.org/2000/svg"><g filter="url(#filter0_ii_3542_11261)"><path d="M22.102 10.287a.728.728 0 000 1.029l1.03 1.03-2.06 2.059 2.06 2.059 3.088-3.089-3.089-3.088a.728.728 0 00-1.03 0z" fill="#A4ADB5"/></g><g filter="url(#filter1_ii_3542_11261)"><path d="M26.22 19.552l2.06-2.059 1.029 1.03a.728.728 0 001.03-1.03l-3.09-3.088-3.088 3.088 2.06 2.06z" fill="#A4ADB5"/></g><g filter="url(#filter2_ii_3542_11261)"><path d="M32.912 11.83l-4.118-4.117a.728.728 0 10-1.03 1.03l1.544 1.543-3.088 3.09 1.03 1.029 3.088-3.089 1.544 1.544a.728.728 0 101.03-1.03z" fill="#1DB9C9"/></g><g filter="url(#filter3_i_3542_11261)"><path d="M12.606 24.93a.728.728 0 000 1.03l.514.515-4.63 4.63a.728.728 0 101.03 1.03l4.63-4.63.516.516a.728.728 0 001.03 0l.923-.924-3.09-3.09-.923.923z" fill="#87E3EC"/></g><g filter="url(#filter4_i_3542_11261)"><path d="M20.043 15.434l-5.319 5.32a.728.728 0 00-.213.514v1.66l3.185 3.186h1.66a.728.728 0 00.516-.213l1.2-1.201-2.058-2.06a.728.728 0 111.03-1.029l2.058 2.06 1.03-1.03-2.06-2.06a.728.728 0 111.03-1.029l2.06 2.06 1.029-1.03-5.148-5.148z" fill="#87E3EC"/></g><g filter="url(#filter5_i_3542_11261)"><path d="M16.823 11.872H15.9a3.48 3.48 0 00-.603-1.453l.653-.653a.578.578 0 10-.817-.817l-.654.653A3.479 3.479 0 0013.028 9v-.922a.578.578 0 10-1.155 0V9a3.48 3.48 0 00-1.453.603l-.653-.653a.578.578 0 10-.817.817l.653.653A3.48 3.48 0 009 11.872h-.922a.578.578 0 000 1.155H9c.09.535.3 1.03.603 1.453l-.653.653a.578.578 0 00.817.817l.653-.653a3.48 3.48 0 001.453.603v.922a.578.578 0 001.155 0V15.9c.535-.09 1.029-.3 1.452-.603l.654.653a.578.578 0 10.817-.817l-.653-.653a3.48 3.48 0 00.603-1.453h.922a.578.578 0 000-1.155zm-3.556.578l-.817.817a.578.578 0 11-.817-.817l.817-.817a.578.578 0 11.817.817z" fill="#FFB577"/></g><defs><filter id="filter0_ii_3542_11261" x="20.447" y="8.822" width="7.025" height="7.642" filterUnits="userSpaceOnUse" color-interpolation-filters="sRGB"><feFlood flood-opacity="0" result="BackgroundImageFix"/><feBlend in="SourceGraphic" in2="BackgroundImageFix" result="shape"/><feColorMatrix in="SourceAlpha" values="0 0 0 0 0 0 0 0 0 0 0 0 0 0 0 0 0 0 127 0" result="hardAlpha"/><feOffset dx="-.626" dy="-.626"/><feGaussianBlur stdDeviation=".469"/><feComposite in2="hardAlpha" operator="arithmetic" k2="-1" k3="1"/><feColorMatrix values="0 0 0 0 0.12549 0 0 0 0 0.12549 0 0 0 0 0.12549 0 0 0 1 0"/><feBlend in2="shape" result="effect1_innerShadow_3542_11261"/><feColorMatrix in="SourceAlpha" values="0 0 0 0 0 0 0 0 0 0 0 0 0 0 0 0 0 0 127 0" result="hardAlpha"/><feOffset dx="1.252" dy="-1.252"/><feGaussianBlur stdDeviation="1.252"/><feComposite in2="hardAlpha" operator="arithmetic" k2="-1" k3="1"/><feColorMatrix values="0 0 0 0 1 0 0 0 0 1 0 0 0 0 1 0 0 0 0.25 0"/><feBlend in2="effect1_innerShadow_3542_11261" result="effect2_innerShadow_3542_11261"/></filter><filter id="filter1_ii_3542_11261" x="22.91" y="13.153" width="8.894" height="6.399" filterUnits="userSpaceOnUse" color-interpolation-filters="sRGB"><feFlood flood-opacity="0" result="BackgroundImageFix"/><feBlend in="SourceGraphic" in2="BackgroundImageFix" result="shape"/><feColorMatrix in="SourceAlpha" values="0 0 0 0 0 0 0 0 0 0 0 0 0 0 0 0 0 0 127 0" result="hardAlpha"/><feOffset dx="-1.252" dy="-.626"/><feGaussianBlur stdDeviation=".626"/><feComposite in2="hardAlpha" operator="arithmetic" k2="-1" k3="1"/><feColorMatrix values="0 0 0 0 0.12549 0 0 0 0 0.12549 0 0 0 0 0.12549 0 0 0 1 0"/><feBlend in2="shape" result="effect1_innerShadow_3542_11261"/><feColorMatrix in="SourceAlpha" values="0 0 0 0 0 0 0 0 0 0 0 0 0 0 0 0 0 0 127 0" result="hardAlpha"/><feOffset dx="1.252" dy="-1.252"/><feGaussianBlur stdDeviation="1.252"/><feComposite in2="hardAlpha" operator="arithmetic" k2="-1" k3="1"/><feColorMatrix values="0 0 0 0 1 0 0 0 0 1 0 0 0 0 1 0 0 0 0.25 0"/><feBlend in2="effect1_innerShadow_3542_11261" result="effect2_innerShadow_3542_11261"/></filter><filter id="filter2_ii_3542_11261" x="25.594" y="6.248" width="8.783" height="8.157" filterUnits="userSpaceOnUse" color-interpolation-filters="sRGB"><feFlood flood-opacity="0" result="BackgroundImageFix"/><feBlend in="SourceGraphic" in2="BackgroundImageFix" result="shape"/><feColorMatrix in="SourceAlpha" values="0 0 0 0 0 0 0 0 0 0 0 0 0 0 0 0 0 0 127 0" result="hardAlpha"/><feOffset dx="-.626" dy="-.626"/><feGaussianBlur stdDeviation=".313"/><feComposite in2="hardAlpha" operator="arithmetic" k2="-1" k3="1"/><feColorMatrix values="0 0 0 0 0.12549 0 0 0 0 0.12549 0 0 0 0 0.12549 0 0 0 1 0"/><feBlend in2="shape" result="effect1_innerShadow_3542_11261"/><feColorMatrix in="SourceAlpha" values="0 0 0 0 0 0 0 0 0 0 0 0 0 0 0 0 0 0 127 0" result="hardAlpha"/><feOffset dx="1.252" dy="-1.252"/><feGaussianBlur stdDeviation="1.252"/><feComposite in2="hardAlpha" operator="arithmetic" k2="-1" k3="1"/><feColorMatrix values="0 0 0 0 1 0 0 0 0 1 0 0 0 0 1 0 0 0 0.25 0"/><feBlend in2="effect1_innerShadow_3542_11261" result="effect2_innerShadow_3542_11261"/></filter><filter id="filter3_i_3542_11261" x="8.276" y="23.381" width="8.343" height="8.967" filterUnits="userSpaceOnUse" color-interpolation-filters="sRGB"><feFlood flood-opacity="0" result="BackgroundImageFix"/><feBlend in="SourceGraphic" in2="BackgroundImageFix" result="shape"/><feColorMatrix in="SourceAlpha" values="0 0 0 0 0 0 0 0 0 0 0 0 0 0 0 0 0 0 127 0" result="hardAlpha"/><feOffset dy="-.626"/><feGaussianBlur stdDeviation=".469"/><feComposite in2="hardAlpha" operator="arithmetic" k2="-1" k3="1"/><feColorMatrix values="0 0 0 0 0 0 0 0 0 0.47451 0 0 0 0 0.521569 0 0 0 1 0"/><feBlend in2="shape" result="effect1_innerShadow_3542_11261"/></filter><filter id="filter4_i_3542_11261" x="13.259" y="14.808" width="11.931" height="11.306" filterUnits="userSpaceOnUse" color-interpolation-filters="sRGB"><feFlood flood-opacity="0" result="BackgroundImageFix"/><feBlend in="SourceGraphic" in2="BackgroundImageFix" result="shape"/><feColorMatrix in="SourceAlpha" values="0 0 0 0 0 0 0 0 0 0 0 0 0 0 0 0 0 0 127 0" result="hardAlpha"/><feOffset dx="-1.252" dy="-.626"/><feGaussianBlur stdDeviation=".939"/><feComposite in2="hardAlpha" operator="arithmetic" k2="-1" k3="1"/><feColorMatrix values="0 0 0 0 0 0 0 0 0 0.47451 0 0 0 0 0.521569 0 0 0 1 0"/><feBlend in2="shape" result="effect1_innerShadow_3542_11261"/></filter><filter id="filter5_i_3542_11261" x="6.874" y="6.874" width="10.526" height="10.526" filterUnits="userSpaceOnUse" color-interpolation-filters="sRGB"><feFlood flood-opacity="0" result="BackgroundImageFix"/><feBlend in="SourceGraphic" in2="BackgroundImageFix" result="shape"/><feColorMatrix in="SourceAlpha" values="0 0 0 0 0 0 0 0 0 0 0 0 0 0 0 0 0 0 127 0" result="hardAlpha"/><feOffset dx="-.626" dy="-.626"/><feGaussianBlur stdDeviation=".469"/><feComposite in2="hardAlpha" operator="arithmetic" k2="-1" k3="1"/><feColorMatrix values="0 0 0 0 0.866667 0 0 0 0 0.396078 0 0 0 0 0 0 0 0 1 0"/><feBlend in2="shape" result="effect1_innerShadow_3542_11261"/></filter></defs></svg>