<svg width="40" height="40" fill="none" xmlns="http://www.w3.org/2000/svg"><g filter="url(#filter0_ii_3542_3352)"><path d="M27.843 26.25v4.688c0 .864-.673 1.562-1.506 1.562-.834 0-1.507-.698-1.507-1.563v-8.764l-.607 1a1.472 1.472 0 01-2.077.49c-.701-.46-.913-1.427-.47-2.154L24.11 17.5c.828-1.362 2.274-2.192 3.823-2.192h.579c1.553 0 2.998.825 3.822 2.192l2.434 4.014c.443.732.231 1.694-.47 2.153a1.476 1.476 0 01-2.077-.488l-.612-1.006v8.765c0 .864-.673 1.562-1.506 1.562-.834 0-1.507-.698-1.507-1.563V26.25h-.753z" fill="#87E3EC"/></g><g filter="url(#filter1_ii_3542_3352)"><path d="M9.765 30.938V27.03h-.838c-.513 0-.876-.522-.716-1.03l1.464-4.56-1.346 1.845c-.504.689-1.45.82-2.11.303-.658-.518-.79-1.5-.291-2.188L8.7 17.607c1.054-1.445 2.707-2.294 4.454-2.294 1.746 0 3.399.85 4.453 2.294l2.773 3.794c.504.689.372 1.67-.292 2.188a1.472 1.472 0 01-2.109-.303l-1.346-1.846 1.464 4.561c.165.508-.203 1.03-.716 1.03h-.838v3.907c0 .864-.673 1.562-1.506 1.562-.834 0-1.507-.698-1.507-1.563v-3.906h-.753v3.907c0 .864-.673 1.562-1.507 1.562-.833 0-1.506-.698-1.506-1.563z" fill="#FF8E8B"/></g><g filter="url(#filter2_ii_3542_3352)" fill="#87E3EC"><path d="M31.58 12.156c-2.427-1.767-5.257-1.905-6.438-.828-.354 1.45.636 3.474 2.83 3.66 2.052.175 3.632-1.634 3.608-2.832zm1.486 1.518c.27-.623-.448-1.794-.92-1.863-.155 1.21-.752 2.01-.848 2.139.47.254 1.485.376 1.768-.276zm-4.882-3.384c-.922-.094-1.158-.104-1.769 0a.932.932 0 01.92-.622c.625 0 .778.392.849.622z"/><path d="M25 10.982c.295-.222.692-.4 1.061-.554.024-.368.425-1.036 1.274-1.036s1.156.622 1.203 1.036c1.169.29 1.801.47 3.184 1.383.212-2.143-1.075-3.427-3.184-3.662-2.477-.277-3.514 1.935-3.538 2.833z"/></g><g filter="url(#filter3_ii_3542_3352)" fill="#FF8E8B"><path d="M11.701 10.375s-.916 1.499-1.832 1.686c0 1.561 1.588 3.054 3.543 2.932 2.26-.141 3.136-2.578 2.75-3.744-1.67.87-4.46-.874-4.46-.874z"/><path d="M11.64 10c-.744 1.154-1.354 1.6-1.894 1.811-.142-.957.611-3.132 2.81-3.309 2.69-.215 3.402 1.561 3.667 2.435-1.161.437-1.96.387-4.583-.936z"/><path d="M10.113 8.253c.356.129.794.561.794.561s-.524.163-1.16 1.561c-.683 1.5-2.872.812-2.872.812s.956-.26 1.344-1.686c.401-1.471 1.152-1.518 1.894-1.248z"/></g><defs><filter id="filter0_ii_3542_3352" x="20.194" y="14.683" width="16.056" height="17.817" filterUnits="userSpaceOnUse" color-interpolation-filters="sRGB"><feFlood flood-opacity="0" result="BackgroundImageFix"/><feBlend in="SourceGraphic" in2="BackgroundImageFix" result="shape"/><feColorMatrix in="SourceAlpha" values="0 0 0 0 0 0 0 0 0 0 0 0 0 0 0 0 0 0 127 0" result="hardAlpha"/><feOffset dx="1.25"/><feGaussianBlur stdDeviation="1.25"/><feComposite in2="hardAlpha" operator="arithmetic" k2="-1" k3="1"/><feColorMatrix values="0 0 0 0 1 0 0 0 0 1 0 0 0 0 1 0 0 0 0.25 0"/><feBlend in2="shape" result="effect1_innerShadow_3542_3352"/><feColorMatrix in="SourceAlpha" values="0 0 0 0 0 0 0 0 0 0 0 0 0 0 0 0 0 0 127 0" result="hardAlpha"/><feOffset dx="-1.25" dy="-.625"/><feGaussianBlur stdDeviation=".938"/><feComposite in2="hardAlpha" operator="arithmetic" k2="-1" k3="1"/><feColorMatrix values="0 0 0 0 0 0 0 0 0 0.47451 0 0 0 0 0.521569 0 0 0 1 0"/><feBlend in2="effect1_innerShadow_3542_3352" result="effect2_innerShadow_3542_3352"/></filter><filter id="filter1_ii_3542_3352" x="4.375" y="14.688" width="17.563" height="17.813" filterUnits="userSpaceOnUse" color-interpolation-filters="sRGB"><feFlood flood-opacity="0" result="BackgroundImageFix"/><feBlend in="SourceGraphic" in2="BackgroundImageFix" result="shape"/><feColorMatrix in="SourceAlpha" values="0 0 0 0 0 0 0 0 0 0 0 0 0 0 0 0 0 0 127 0" result="hardAlpha"/><feOffset dx="1.25"/><feGaussianBlur stdDeviation="1.25"/><feComposite in2="hardAlpha" operator="arithmetic" k2="-1" k3="1"/><feColorMatrix values="0 0 0 0 1 0 0 0 0 1 0 0 0 0 1 0 0 0 0.25 0"/><feBlend in2="shape" result="effect1_innerShadow_3542_3352"/><feColorMatrix in="SourceAlpha" values="0 0 0 0 0 0 0 0 0 0 0 0 0 0 0 0 0 0 127 0" result="hardAlpha"/><feOffset dx="-1.25" dy="-.625"/><feGaussianBlur stdDeviation=".938"/><feComposite in2="hardAlpha" operator="arithmetic" k2="-1" k3="1"/><feColorMatrix values="0 0 0 0 0.745833 0 0 0 0 0.219682 0 0 0 0 0.20324 0 0 0 1 0"/><feBlend in2="effect1_innerShadow_3542_3352" result="effect2_innerShadow_3542_3352"/></filter><filter id="filter2_ii_3542_3352" x="23.75" y="7.5" width="10.625" height="7.5" filterUnits="userSpaceOnUse" color-interpolation-filters="sRGB"><feFlood flood-opacity="0" result="BackgroundImageFix"/><feBlend in="SourceGraphic" in2="BackgroundImageFix" result="shape"/><feColorMatrix in="SourceAlpha" values="0 0 0 0 0 0 0 0 0 0 0 0 0 0 0 0 0 0 127 0" result="hardAlpha"/><feOffset dx="-1.25" dy="-.625"/><feGaussianBlur stdDeviation=".625"/><feComposite in2="hardAlpha" operator="arithmetic" k2="-1" k3="1"/><feColorMatrix values="0 0 0 0 0 0 0 0 0 0.47451 0 0 0 0 0.521569 0 0 0 1 0"/><feBlend in2="shape" result="effect1_innerShadow_3542_3352"/><feColorMatrix in="SourceAlpha" values="0 0 0 0 0 0 0 0 0 0 0 0 0 0 0 0 0 0 127 0" result="hardAlpha"/><feOffset dx="1.25"/><feGaussianBlur stdDeviation="1.25"/><feComposite in2="hardAlpha" operator="arithmetic" k2="-1" k3="1"/><feColorMatrix values="0 0 0 0 1 0 0 0 0 1 0 0 0 0 1 0 0 0 0.25 0"/><feBlend in2="effect1_innerShadow_3542_3352" result="effect2_innerShadow_3542_3352"/></filter><filter id="filter3_ii_3542_3352" x="5.625" y="7.5" width="11.875" height="7.5" filterUnits="userSpaceOnUse" color-interpolation-filters="sRGB"><feFlood flood-opacity="0" result="BackgroundImageFix"/><feBlend in="SourceGraphic" in2="BackgroundImageFix" result="shape"/><feColorMatrix in="SourceAlpha" values="0 0 0 0 0 0 0 0 0 0 0 0 0 0 0 0 0 0 127 0" result="hardAlpha"/><feOffset dx="-1.25" dy="-.625"/><feGaussianBlur stdDeviation=".656"/><feComposite in2="hardAlpha" operator="arithmetic" k2="-1" k3="1"/><feColorMatrix values="0 0 0 0 0.745098 0 0 0 0 0.219608 0 0 0 0 0.203922 0 0 0 1 0"/><feBlend in2="shape" result="effect1_innerShadow_3542_3352"/><feColorMatrix in="SourceAlpha" values="0 0 0 0 0 0 0 0 0 0 0 0 0 0 0 0 0 0 127 0" result="hardAlpha"/><feOffset dx="1.25"/><feGaussianBlur stdDeviation="1.25"/><feComposite in2="hardAlpha" operator="arithmetic" k2="-1" k3="1"/><feColorMatrix values="0 0 0 0 1 0 0 0 0 1 0 0 0 0 1 0 0 0 0.25 0"/><feBlend in2="effect1_innerShadow_3542_3352" result="effect2_innerShadow_3542_3352"/></filter></defs></svg>