<svg width="40" height="40" fill="none" xmlns="http://www.w3.org/2000/svg"><g filter="url(#filter0_i_3542_5103)"><path d="M26.962 20.52l-.404-.92c.816-.895.595-1.597.03-2.865a.352.352 0 01-.03-.143v-.11a.268.268 0 01.459-.19l.42.426c.037.038.1.018.111-.033l.114-.577.02-.103a.206.206 0 01.387-.052c.005.01.011.02.019.027l.315.32a.066.066 0 00.111-.034l.084-.423a.191.191 0 01.36-.047l.146.296c.05.102.126.19.22.253l.186.125c.04.026.094.003.101-.044l.11-.665a.228.228 0 01.43-.064l.066.134a.65.65 0 01.068.29v.271c0 .086.034.17.095.23l.127.13a.066.066 0 00.1-.007l.342-.462a.14.14 0 01.068-.05.284.284 0 01.372.27.14.14 0 01-.007.046l-.237.72a.066.066 0 00.069.086l1.092-.11a.17.17 0 01.113.31l-.712.48a.066.066 0 00-.026.075l.059.18a.328.328 0 00.265.221l.508.073a.3.3 0 01-.042.596h-.603a.066.066 0 00-.038.119l.73.528a.171.171 0 01-.119.31l-.888-.1a.066.066 0 00-.057.107l.67.79a.219.219 0 01-.257.342l-.81-.365a.066.066 0 00-.091.076l.208.843a.262.262 0 01-.426.262l-.655-.568a.066.066 0 00-.108.057l.096.876a.312.312 0 01-.169.312c-.182.092-.415-.01-.511-.19-.366-.684-1.278-1.743-1.98-1.798-.195-.015-.422-.082-.5-.26z" fill="#A4ADB5"/></g><g filter="url(#filter1_i_3542_5103)"><path d="M19.345 7.54c0 1.812-1.395 3.28-3.115 3.28-1.72 0-3.115-1.468-3.115-3.28 0-1.81 1.395-3.278 3.115-3.278 1.72 0 3.115 1.468 3.115 3.279z" fill="#FF8E8B"/></g><g filter="url(#filter2_i_3542_5103)"><path d="M19.354 11.524c-2.35-.504-4.145-.5-6.54.002-1.025.214-1.846.964-2.227 1.94l-2.892 7.411c-.313.8-.458 1.775.143 2.39.1.102.212.187.336.241.177.077.383.09.594.067.914-.1 1.49-.962 1.79-1.83l1.369-3.982a.743.743 0 01.318-.417c.137-.078.313-.151.458-.124.234.044.388.351.471.581a.782.782 0 01-.006.513l-.324.99c-.07.213.088.43.311.43h6.13a.328.328 0 00.318-.406l-.31-1.257a.544.544 0 01-.005-.025c-.018-.094-.125-.691.14-.826.156-.08.401.022.584.124a.783.783 0 01.338.424l1.614 4.379c.226.613.615 1.195 1.24 1.383.3.089.625.118.89-.024.298-.159.495-.515.621-.859.191-.52.095-1.087-.111-1.6l-3.06-7.622c-.382-.953-1.186-1.688-2.19-1.903z" fill="#FF8E8B"/></g><g filter="url(#filter3_i_3542_5103)"><path d="M19.572 20.328h-6.914a.266.266 0 000 .532h.784v3.368a1.018 1.018 0 001.018 1.018h3.101a1.127 1.127 0 001.127-1.127v-3.26h.884a.266.266 0 100-.53z" fill="#FF8201"/></g><g filter="url(#filter4_i_3542_5103)"><path d="M12.47 21.64h-.238a.328.328 0 00-.314.23l-1.822 5.94a.656.656 0 00.627.849h1.746c.181 0 .328.147.328.328v4.216c0 .736.163 1.52.764 1.944.213.151.458.262.717.262.232 0 .463-.105.672-.25.624-.433.818-1.234.836-1.994l.1-4.24a.272.272 0 01.545.006v4.14c0 .818.208 1.694.906 2.121.22.135.464.227.71.217.226-.01.446-.105.644-.236.651-.428.836-1.26.836-2.039v-4.147c0-.181.147-.328.328-.328h1.864a.656.656 0 00.624-.859l-1.935-5.935a.328.328 0 00-.311-.226h-.242a.328.328 0 00-.328.328v2.505c0 .433-.172.85-.478 1.157l-.118.118a1.64 1.64 0 01-1.161.482h-3.355a1.618 1.618 0 01-1.618-1.618v-2.644a.328.328 0 00-.328-.328z" fill="#FF8E8B"/></g><g filter="url(#filter5_i_3542_5103)"><path d="M25.253 21.24l-.241-.325a.164.164 0 01.028-.225l.957-.774a.328.328 0 01.492.093l.186.33a.328.328 0 01-.148.46l-1.074.493a.164.164 0 01-.2-.051z" fill="#1DB9C9"/></g><defs><filter id="filter0_i_3542_5103" x="26.558" y="15.569" width="6.704" height="7.234" filterUnits="userSpaceOnUse" color-interpolation-filters="sRGB"><feFlood flood-opacity="0" result="BackgroundImageFix"/><feBlend in="SourceGraphic" in2="BackgroundImageFix" result="shape"/><feColorMatrix in="SourceAlpha" values="0 0 0 0 0 0 0 0 0 0 0 0 0 0 0 0 0 0 127 0" result="hardAlpha"/><feOffset dx=".492"/><feGaussianBlur stdDeviation=".492"/><feComposite in2="hardAlpha" operator="arithmetic" k2="-1" k3="1"/><feColorMatrix values="0 0 0 0 0.2375 0 0 0 0 0.288235 0 0 0 0 0.333333 0 0 0 1 0"/><feBlend in2="shape" result="effect1_innerShadow_3542_5103"/></filter><filter id="filter1_i_3542_5103" x="12.46" y="3.934" width="6.885" height="6.885" filterUnits="userSpaceOnUse" color-interpolation-filters="sRGB"><feFlood flood-opacity="0" result="BackgroundImageFix"/><feBlend in="SourceGraphic" in2="BackgroundImageFix" result="shape"/><feColorMatrix in="SourceAlpha" values="0 0 0 0 0 0 0 0 0 0 0 0 0 0 0 0 0 0 127 0" result="hardAlpha"/><feOffset dx="-.656" dy="-.328"/><feGaussianBlur stdDeviation=".656"/><feComposite in2="hardAlpha" operator="arithmetic" k2="-1" k3="1"/><feColorMatrix values="0 0 0 0 0.745098 0 0 0 0 0.219608 0 0 0 0 0.203922 0 0 0 1 0"/><feBlend in2="shape" result="effect1_innerShadow_3542_5103"/></filter><filter id="filter2_i_3542_5103" x="6.768" y="10.82" width="18.05" height="12.787" filterUnits="userSpaceOnUse" color-interpolation-filters="sRGB"><feFlood flood-opacity="0" result="BackgroundImageFix"/><feBlend in="SourceGraphic" in2="BackgroundImageFix" result="shape"/><feColorMatrix in="SourceAlpha" values="0 0 0 0 0 0 0 0 0 0 0 0 0 0 0 0 0 0 127 0" result="hardAlpha"/><feOffset dx="-.656" dy="-.328"/><feGaussianBlur stdDeviation=".656"/><feComposite in2="hardAlpha" operator="arithmetic" k2="-1" k3="1"/><feColorMatrix values="0 0 0 0 0.745098 0 0 0 0 0.219608 0 0 0 0 0.203922 0 0 0 1 0"/><feBlend in2="shape" result="effect1_innerShadow_3542_5103"/></filter><filter id="filter3_i_3542_5103" x="11.736" y="20" width="8.102" height="5.246" filterUnits="userSpaceOnUse" color-interpolation-filters="sRGB"><feFlood flood-opacity="0" result="BackgroundImageFix"/><feBlend in="SourceGraphic" in2="BackgroundImageFix" result="shape"/><feColorMatrix in="SourceAlpha" values="0 0 0 0 0 0 0 0 0 0 0 0 0 0 0 0 0 0 127 0" result="hardAlpha"/><feOffset dx="-.656" dy="-.328"/><feGaussianBlur stdDeviation=".656"/><feComposite in2="hardAlpha" operator="arithmetic" k2="-1" k3="1"/><feColorMatrix values="0 0 0 0 0.721569 0 0 0 0 0.329412 0 0 0 0 0 0 0 0 1 0"/><feBlend in2="shape" result="effect1_innerShadow_3542_5103"/></filter><filter id="filter4_i_3542_5103" x="9.411" y="21.311" width="12.965" height="14.098" filterUnits="userSpaceOnUse" color-interpolation-filters="sRGB"><feFlood flood-opacity="0" result="BackgroundImageFix"/><feBlend in="SourceGraphic" in2="BackgroundImageFix" result="shape"/><feColorMatrix in="SourceAlpha" values="0 0 0 0 0 0 0 0 0 0 0 0 0 0 0 0 0 0 127 0" result="hardAlpha"/><feOffset dx="-.656" dy="-.328"/><feGaussianBlur stdDeviation=".656"/><feComposite in2="hardAlpha" operator="arithmetic" k2="-1" k3="1"/><feColorMatrix values="0 0 0 0 0.745098 0 0 0 0 0.219608 0 0 0 0 0.203922 0 0 0 1 0"/><feBlend in2="shape" result="effect1_innerShadow_3542_5103"/></filter><filter id="filter5_i_3542_5103" x="24.98" y="19.843" width="2.066" height="1.464" filterUnits="userSpaceOnUse" color-interpolation-filters="sRGB"><feFlood flood-opacity="0" result="BackgroundImageFix"/><feBlend in="SourceGraphic" in2="BackgroundImageFix" result="shape"/><feColorMatrix in="SourceAlpha" values="0 0 0 0 0 0 0 0 0 0 0 0 0 0 0 0 0 0 127 0" result="hardAlpha"/><feOffset dx=".328"/><feGaussianBlur stdDeviation=".246"/><feComposite in2="hardAlpha" operator="arithmetic" k2="-1" k3="1"/><feColorMatrix values="0 0 0 0 0 0 0 0 0 0.47451 0 0 0 0 0.521569 0 0 0 1 0"/><feBlend in2="shape" result="effect1_innerShadow_3542_5103"/></filter></defs></svg>