<svg width="40" height="40" fill="none" xmlns="http://www.w3.org/2000/svg"><g filter="url(#filter0_ii_3542_3482)"><path d="M10.625 14.983v5c0 14.3 12.106 19.725 17.194 7.925-7.244-.875-14.069-6.618-17.194-12.925z" fill="#87E3EC"/></g><g filter="url(#filter1_ii_3542_3482)"><path d="M21.144 24.358a22.871 22.871 0 007.137 2.357c1.356-3.875 1.094-6.97 1.094-11.732a32.332 32.332 0 01-8.231 9.375z" fill="#87E3EC"/></g><g filter="url(#filter2_ii_3542_3482)"><path d="M20 23.659c3.75-2.657 7.025-6.875 9.137-10.763-2.15-9.506-16.012-9.881-18.275 0 2.113 3.9 5.388 8.094 9.138 10.762zm0-3.05a1.25 1.25 0 11.034-2.502A1.25 1.25 0 0120 20.61zm0-14.376c.862 0 1.369 1.138 1.369 1.907 0 1.112-1.62 1.325-1.62.318 0-.625 1.02-.156 1.02-1.018 0-1.157-2.27-.625-2.27 1.018 0 3.17 5.57 2.194 3.75-1.793a6.25 6.25 0 014 5.818c0 4.07-3.837 5.963-3.837 5.738a.963.963 0 00.088-.425c0-2.069-5-2.069-5 0 0 .145.033.288.094.419 0 .162-3.838-1.581-3.838-5.738A6.25 6.25 0 0120 6.233z" fill="#FC7F59"/></g><g filter="url(#filter3_ii_3542_3482)"><path d="M18.381 12.827a.625.625 0 10-.88-.887.844.844 0 01-1.176 0 .627.627 0 00-.887 0c-.888.887 1.518 2.312 2.943.887z" fill="#FF8E8B"/></g><g filter="url(#filter4_ii_3542_3482)"><path d="M24.569 11.94a.627.627 0 00-.888 0 .844.844 0 01-1.175 0 .628.628 0 10-.887.887c1.419 1.419 3.837 0 2.95-.887z" fill="#FF8E8B"/></g><g filter="url(#filter5_i_3542_3482)"><path d="M37.356 21.997l-3.275-3.275-1.31-1.31a.474.474 0 00-.67.67l.975.975-1.935 1.935 2.636 2.636 1.934-1.935.975.975a.473.473 0 10.67-.67z" fill="#A4ADB5"/></g><g filter="url(#filter6_ii_3542_3482)"><path d="M29.496 20.687a.474.474 0 00-.67 0l-7.861 7.86a.474.474 0 000 .67l1.957 1.958-4.25 4.25a.476.476 0 00-.005.677.473.473 0 00.676-.006l4.25-4.25 1.957 1.957a.472.472 0 00.67 0l1.63-1.63-2.3-2.3a.475.475 0 11.67-.67l2.3 2.3 1.296-1.295-2.3-2.3a.474.474 0 01.67-.67l2.3 2.3 1.295-1.295-2.3-2.3a.475.475 0 01.67-.67l2.3 2.3 1.63-1.63a.474.474 0 000-.67l-4.585-4.586z" fill="#FFB577"/></g><defs><filter id="filter0_ii_3542_3482" x="9.999" y="13.732" width="19.071" height="20.625" filterUnits="userSpaceOnUse" color-interpolation-filters="sRGB"><feFlood flood-opacity="0" result="BackgroundImageFix"/><feBlend in="SourceGraphic" in2="BackgroundImageFix" result="shape"/><feColorMatrix in="SourceAlpha" values="0 0 0 0 0 0 0 0 0 0 0 0 0 0 0 0 0 0 127 0" result="hardAlpha"/><feOffset dx="-.626" dy="-1.252"/><feGaussianBlur stdDeviation=".939"/><feComposite in2="hardAlpha" operator="arithmetic" k2="-1" k3="1"/><feColorMatrix values="0 0 0 0 0 0 0 0 0 0.47451 0 0 0 0 0.521569 0 0 0 1 0"/><feBlend in2="shape" result="effect1_innerShadow_3542_3482"/><feColorMatrix in="SourceAlpha" values="0 0 0 0 0 0 0 0 0 0 0 0 0 0 0 0 0 0 127 0" result="hardAlpha"/><feOffset dx="1.252"/><feGaussianBlur stdDeviation="1.252"/><feComposite in2="hardAlpha" operator="arithmetic" k2="-1" k3="1"/><feColorMatrix values="0 0 0 0 1 0 0 0 0 1 0 0 0 0 1 0 0 0 0.25 0"/><feBlend in2="effect1_innerShadow_3542_3482" result="effect2_innerShadow_3542_3482"/></filter><filter id="filter1_ii_3542_3482" x="20.518" y="13.732" width="10.129" height="12.983" filterUnits="userSpaceOnUse" color-interpolation-filters="sRGB"><feFlood flood-opacity="0" result="BackgroundImageFix"/><feBlend in="SourceGraphic" in2="BackgroundImageFix" result="shape"/><feColorMatrix in="SourceAlpha" values="0 0 0 0 0 0 0 0 0 0 0 0 0 0 0 0 0 0 127 0" result="hardAlpha"/><feOffset dx="-.626" dy="-1.252"/><feGaussianBlur stdDeviation=".939"/><feComposite in2="hardAlpha" operator="arithmetic" k2="-1" k3="1"/><feColorMatrix values="0 0 0 0 0 0 0 0 0 0.47451 0 0 0 0 0.521569 0 0 0 1 0"/><feBlend in2="shape" result="effect1_innerShadow_3542_3482"/><feColorMatrix in="SourceAlpha" values="0 0 0 0 0 0 0 0 0 0 0 0 0 0 0 0 0 0 127 0" result="hardAlpha"/><feOffset dx="1.252"/><feGaussianBlur stdDeviation="1.252"/><feComposite in2="hardAlpha" operator="arithmetic" k2="-1" k3="1"/><feColorMatrix values="0 0 0 0 1 0 0 0 0 1 0 0 0 0 1 0 0 0 0.25 0"/><feBlend in2="effect1_innerShadow_3542_3482" result="effect2_innerShadow_3542_3482"/></filter><filter id="filter2_ii_3542_3482" x="10.236" y="4.373" width="19.826" height="19.286" filterUnits="userSpaceOnUse" color-interpolation-filters="sRGB"><feFlood flood-opacity="0" result="BackgroundImageFix"/><feBlend in="SourceGraphic" in2="BackgroundImageFix" result="shape"/><feColorMatrix in="SourceAlpha" values="0 0 0 0 0 0 0 0 0 0 0 0 0 0 0 0 0 0 127 0" result="hardAlpha"/><feOffset dx="-.626" dy="-1.252"/><feGaussianBlur stdDeviation=".775"/><feComposite in2="hardAlpha" operator="arithmetic" k2="-1" k3="1"/><feColorMatrix values="0 0 0 0 0.745098 0 0 0 0 0.219608 0 0 0 0 0.203922 0 0 0 1 0"/><feBlend in2="shape" result="effect1_innerShadow_3542_3482"/><feColorMatrix in="SourceAlpha" values="0 0 0 0 0 0 0 0 0 0 0 0 0 0 0 0 0 0 127 0" result="hardAlpha"/><feOffset dx=".925"/><feGaussianBlur stdDeviation="1.252"/><feComposite in2="hardAlpha" operator="arithmetic" k2="-1" k3="1"/><feColorMatrix values="0 0 0 0 1 0 0 0 0 1 0 0 0 0 1 0 0 0 0.25 0"/><feBlend in2="effect1_innerShadow_3542_3482" result="effect2_innerShadow_3542_3482"/></filter><filter id="filter3_ii_3542_3482" x="14.62" y="11.755" width="5.197" height="1.677" filterUnits="userSpaceOnUse" color-interpolation-filters="sRGB"><feFlood flood-opacity="0" result="BackgroundImageFix"/><feBlend in="SourceGraphic" in2="BackgroundImageFix" result="shape"/><feColorMatrix in="SourceAlpha" values="0 0 0 0 0 0 0 0 0 0 0 0 0 0 0 0 0 0 127 0" result="hardAlpha"/><feOffset dx="-.626"/><feGaussianBlur stdDeviation=".626"/><feComposite in2="hardAlpha" operator="arithmetic" k2="-1" k3="1"/><feColorMatrix values="0 0 0 0 0.745098 0 0 0 0 0.219608 0 0 0 0 0.203922 0 0 0 1 0"/><feBlend in2="shape" result="effect1_innerShadow_3542_3482"/><feColorMatrix in="SourceAlpha" values="0 0 0 0 0 0 0 0 0 0 0 0 0 0 0 0 0 0 127 0" result="hardAlpha"/><feOffset dx="1.252"/><feGaussianBlur stdDeviation="1.252"/><feComposite in2="hardAlpha" operator="arithmetic" k2="-1" k3="1"/><feColorMatrix values="0 0 0 0 1 0 0 0 0 1 0 0 0 0 1 0 0 0 0.25 0"/><feBlend in2="effect1_innerShadow_3542_3482" result="effect2_innerShadow_3542_3482"/></filter><filter id="filter4_ii_3542_3482" x="20.809" y="11.755" width="5.202" height="1.674" filterUnits="userSpaceOnUse" color-interpolation-filters="sRGB"><feFlood flood-opacity="0" result="BackgroundImageFix"/><feBlend in="SourceGraphic" in2="BackgroundImageFix" result="shape"/><feColorMatrix in="SourceAlpha" values="0 0 0 0 0 0 0 0 0 0 0 0 0 0 0 0 0 0 127 0" result="hardAlpha"/><feOffset dx="-.626"/><feGaussianBlur stdDeviation=".626"/><feComposite in2="hardAlpha" operator="arithmetic" k2="-1" k3="1"/><feColorMatrix values="0 0 0 0 0.745098 0 0 0 0 0.219608 0 0 0 0 0.203922 0 0 0 1 0"/><feBlend in2="shape" result="effect1_innerShadow_3542_3482"/><feColorMatrix in="SourceAlpha" values="0 0 0 0 0 0 0 0 0 0 0 0 0 0 0 0 0 0 127 0" result="hardAlpha"/><feOffset dx="1.252"/><feGaussianBlur stdDeviation="1.252"/><feComposite in2="hardAlpha" operator="arithmetic" k2="-1" k3="1"/><feColorMatrix values="0 0 0 0 1 0 0 0 0 1 0 0 0 0 1 0 0 0 0.25 0"/><feBlend in2="effect1_innerShadow_3542_3482" result="effect2_innerShadow_3542_3482"/></filter><filter id="filter5_i_3542_3482" x="29.89" y="16.653" width="7.61" height="6.975" filterUnits="userSpaceOnUse" color-interpolation-filters="sRGB"><feFlood flood-opacity="0" result="BackgroundImageFix"/><feBlend in="SourceGraphic" in2="BackgroundImageFix" result="shape"/><feColorMatrix in="SourceAlpha" values="0 0 0 0 0 0 0 0 0 0 0 0 0 0 0 0 0 0 127 0" result="hardAlpha"/><feOffset dx="-1.252" dy="-.626"/><feGaussianBlur stdDeviation=".626"/><feComposite in2="hardAlpha" operator="arithmetic" k2="-1" k3="1"/><feColorMatrix values="0 0 0 0 0.12549 0 0 0 0 0.12549 0 0 0 0 0.12549 0 0 0 1 0"/><feBlend in2="shape" result="effect1_innerShadow_3542_3482"/></filter><filter id="filter6_ii_3542_3482" x="17.276" y="19.923" width="18.821" height="16.943" filterUnits="userSpaceOnUse" color-interpolation-filters="sRGB"><feFlood flood-opacity="0" result="BackgroundImageFix"/><feBlend in="SourceGraphic" in2="BackgroundImageFix" result="shape"/><feColorMatrix in="SourceAlpha" values="0 0 0 0 0 0 0 0 0 0 0 0 0 0 0 0 0 0 127 0" result="hardAlpha"/><feOffset dx="-1.252" dy="-.626"/><feGaussianBlur stdDeviation=".782"/><feComposite in2="hardAlpha" operator="arithmetic" k2="-1" k3="1"/><feColorMatrix values="0 0 0 0 0.866667 0 0 0 0 0.395652 0 0 0 0 0 0 0 0 1 0"/><feBlend in2="shape" result="effect1_innerShadow_3542_3482"/><feColorMatrix in="SourceAlpha" values="0 0 0 0 0 0 0 0 0 0 0 0 0 0 0 0 0 0 127 0" result="hardAlpha"/><feOffset dx="1.877" dy=".626"/><feGaussianBlur stdDeviation="1.252"/><feComposite in2="hardAlpha" operator="arithmetic" k2="-1" k3="1"/><feColorMatrix values="0 0 0 0 1 0 0 0 0 1 0 0 0 0 1 0 0 0 0.25 0"/><feBlend in2="effect1_innerShadow_3542_3482" result="effect2_innerShadow_3542_3482"/></filter></defs></svg>