<svg width="40" height="40" fill="none" xmlns="http://www.w3.org/2000/svg"><g filter="url(#filter0_i_3542_10104)"><path d="M15.742 11.232h7.842a.817.817 0 00.817-.817V7.692a.817.817 0 00-.817-.817h-7.842a.817.817 0 00-.817.817v2.723c0 .451.366.817.817.817z" fill="#1DB9C9"/></g><g filter="url(#filter1_i_3542_10104)"><path d="M27.45 16.896a2.563 2.563 0 00-2.56-2.56h-.87a.927.927 0 01-.926-.926v-.544h-6.862v.544c0 .51-.415.926-.926.926h-.871a2.563 2.563 0 00-2.56 2.56v1.742h15.576v-1.742z" fill="#FFB577"/></g><g filter="url(#filter2_i_3542_10104)"><path d="M22.007 28.114H11.875v2.723a2.563 2.563 0 002.56 2.56h7.9a5.928 5.928 0 01-.794-2.972c0-.819.166-1.6.466-2.31z" fill="#FFB577"/></g><g filter="url(#filter3_i_3542_10104)"><path d="M27.45 20.272H11.876v6.208h11.16a5.95 5.95 0 014.415-2.019v-4.189zm-6.044 3.921H17.92a.817.817 0 010-1.634h3.485a.817.817 0 010 1.634z" fill="#F26F4E"/></g><g filter="url(#filter4_i_3542_10104)"><path d="M23.27 31.67a.622.622 0 01-.53-.947l2.644-4.336a.626.626 0 01.534-.3h.67c.3 0 .559.215.614.51l.817 4.331a.626.626 0 01-.615.742h-.102a.626.626 0 01-.617-.523l-.137-.825h-2.137l-.602 1.038a.623.623 0 01-.539.31zm1.77-2.44h1.332l-.294-1.787-1.037 1.787z" fill="#87E3EC"/></g><defs><filter id="filter0_i_3542_10104" x="13.048" y="6.875" width="11.353" height="4.357" filterUnits="userSpaceOnUse" color-interpolation-filters="sRGB"><feFlood flood-opacity="0" result="BackgroundImageFix"/><feBlend in="SourceGraphic" in2="BackgroundImageFix" result="shape"/><feColorMatrix in="SourceAlpha" values="0 0 0 0 0 0 0 0 0 0 0 0 0 0 0 0 0 0 127 0" result="hardAlpha"/><feOffset dx="-1.877"/><feGaussianBlur stdDeviation=".984"/><feComposite in2="hardAlpha" operator="arithmetic" k2="-1" k3="1"/><feColorMatrix values="0 0 0 0 0 0 0 0 0 0.47451 0 0 0 0 0.521569 0 0 0 1 0"/><feBlend in2="shape" result="effect1_innerShadow_3542_10104"/></filter><filter id="filter1_i_3542_10104" x="9.998" y="12.866" width="17.453" height="5.773" filterUnits="userSpaceOnUse" color-interpolation-filters="sRGB"><feFlood flood-opacity="0" result="BackgroundImageFix"/><feBlend in="SourceGraphic" in2="BackgroundImageFix" result="shape"/><feColorMatrix in="SourceAlpha" values="0 0 0 0 0 0 0 0 0 0 0 0 0 0 0 0 0 0 127 0" result="hardAlpha"/><feOffset dx="-1.877"/><feGaussianBlur stdDeviation=".984"/><feComposite in2="hardAlpha" operator="arithmetic" k2="-1" k3="1"/><feColorMatrix values="0 0 0 0 0.866667 0 0 0 0 0.396078 0 0 0 0 0 0 0 0 1 0"/><feBlend in2="shape" result="effect1_innerShadow_3542_10104"/></filter><filter id="filter2_i_3542_10104" x="9.998" y="28.114" width="12.338" height="5.283" filterUnits="userSpaceOnUse" color-interpolation-filters="sRGB"><feFlood flood-opacity="0" result="BackgroundImageFix"/><feBlend in="SourceGraphic" in2="BackgroundImageFix" result="shape"/><feColorMatrix in="SourceAlpha" values="0 0 0 0 0 0 0 0 0 0 0 0 0 0 0 0 0 0 127 0" result="hardAlpha"/><feOffset dx="-1.877"/><feGaussianBlur stdDeviation=".984"/><feComposite in2="hardAlpha" operator="arithmetic" k2="-1" k3="1"/><feColorMatrix values="0 0 0 0 0.866667 0 0 0 0 0.396078 0 0 0 0 0 0 0 0 1 0"/><feBlend in2="shape" result="effect1_innerShadow_3542_10104"/></filter><filter id="filter3_i_3542_10104" x="9.998" y="20.272" width="17.453" height="6.208" filterUnits="userSpaceOnUse" color-interpolation-filters="sRGB"><feFlood flood-opacity="0" result="BackgroundImageFix"/><feBlend in="SourceGraphic" in2="BackgroundImageFix" result="shape"/><feColorMatrix in="SourceAlpha" values="0 0 0 0 0 0 0 0 0 0 0 0 0 0 0 0 0 0 127 0" result="hardAlpha"/><feOffset dx="-1.877"/><feGaussianBlur stdDeviation=".984"/><feComposite in2="hardAlpha" operator="arithmetic" k2="-1" k3="1"/><feColorMatrix values="0 0 0 0 0.682353 0 0 0 0 0.0156863 0 0 0 0 0 0 0 0 1 0"/><feBlend in2="shape" result="effect1_innerShadow_3542_10104"/></filter><filter id="filter4_i_3542_10104" x="22.021" y="26.087" width="6.009" height="5.583" filterUnits="userSpaceOnUse" color-interpolation-filters="sRGB"><feFlood flood-opacity="0" result="BackgroundImageFix"/><feBlend in="SourceGraphic" in2="BackgroundImageFix" result="shape"/><feColorMatrix in="SourceAlpha" values="0 0 0 0 0 0 0 0 0 0 0 0 0 0 0 0 0 0 127 0" result="hardAlpha"/><feOffset dx="-.626"/><feGaussianBlur stdDeviation=".492"/><feComposite in2="hardAlpha" operator="arithmetic" k2="-1" k3="1"/><feColorMatrix values="0 0 0 0 0 0 0 0 0 0.494118 0 0 0 0 0.541176 0 0 0 1 0"/><feBlend in2="shape" result="effect1_innerShadow_3542_10104"/></filter></defs></svg>