<svg width="40" height="40" fill="none" xmlns="http://www.w3.org/2000/svg"><g filter="url(#filter0_i_3542_11435)"><path d="M17.903 7.5c-2.162 0-9.778.892-9.778 9.816v4.462c0 1.929 1.112 2.956 1.974 3.366.86 2.13 3.375 5.558 7.804 5.558.49 0 .95-.049 1.393-.125a7.19 7.19 0 01-1.325-1.665c-.023.001-.045.006-.068.006a6.18 6.18 0 01-1.982-.325.894.894 0 00-.056-1.199.887.887 0 00-1.493.427 6.799 6.799 0 01-1.125-1.006.894.894 0 00-.049-1.206.887.887 0 00-.965-.195 8.49 8.49 0 01-.597-1.24l-.155-.466-.474-.119c-.011-.003-1.104-.294-1.104-1.81v-.893h.889c0-6.247 8.89-1.785 11.556-8.032 0 0 1.81 1.68 2.446 5.388a7.034 7.034 0 012.887.929v-1.855c0-3.57-1.777-8.031-5.333-8.031 0 0-.89-1.785-4.445-1.785z" fill="#A4ADB5"/></g><g filter="url(#filter1_i_3542_11435)"><path fill-rule="evenodd" clip-rule="evenodd" d="M24.084 20c-2.936 0-5.334 2.408-5.334 5.354 0 2.947 2.398 5.355 5.334 5.355a5.278 5.278 0 003.083-.997l2.51 2.52a.89.89 0 001.27.013.894.894 0 00-.012-1.275l-2.511-2.52a5.327 5.327 0 00.993-3.096c0-2.946-2.398-5.354-5.333-5.354zm2.39 2.723a3.524 3.524 0 00-2.39-.938 3.55 3.55 0 00-3.556 3.57 3.55 3.55 0 003.556 3.569 3.55 3.55 0 003.555-3.57 3.58 3.58 0 00-.218-1.2.89.89 0 01-.67.308.887.887 0 01-.89-.892.896.896 0 01.613-.848z" fill="#FC7F59"/></g><g filter="url(#filter2_i_3542_11435)"><path fill-rule="evenodd" clip-rule="evenodd" d="M23.833 24.375a1.33 1.33 0 00-.942.392 1.341 1.341 0 00.942 2.285c.354 0 .693-.14.943-.392a1.341 1.341 0 00-.943-2.285z" fill="#FF9F82"/></g><g filter="url(#filter3_i_3542_11435)"><path fill-rule="evenodd" clip-rule="evenodd" d="M17.5 25.625a.624.624 0 100 1.249.624.624 0 000-1.249z" fill="#FF9F82"/></g><g filter="url(#filter4_i_3542_11435)"><path fill-rule="evenodd" clip-rule="evenodd" d="M13.125 23.75a.624.624 0 100 1.249.624.624 0 000-1.249z" fill="#FF9F82"/></g><g filter="url(#filter5_i_3542_11435)"><path fill-rule="evenodd" clip-rule="evenodd" d="M15.938 23.75a.938.938 0 100 1.875.938.938 0 000-1.875z" fill="#FF9F82"/></g><defs><filter id="filter0_i_3542_11435" x="6.873" y="6.248" width="20.808" height="24.454" filterUnits="userSpaceOnUse" color-interpolation-filters="sRGB"><feFlood flood-opacity="0" result="BackgroundImageFix"/><feBlend in="SourceGraphic" in2="BackgroundImageFix" result="shape"/><feColorMatrix in="SourceAlpha" values="0 0 0 0 0 0 0 0 0 0 0 0 0 0 0 0 0 0 127 0" result="hardAlpha"/><feOffset dx="-1.252" dy="-1.252"/><feGaussianBlur stdDeviation=".782"/><feComposite in2="hardAlpha" operator="arithmetic" k2="-1" k3="1"/><feColorMatrix values="0 0 0 0 0.12549 0 0 0 0 0.12549 0 0 0 0 0.12549 0 0 0 1 0"/><feBlend in2="shape" result="effect1_innerShadow_3542_11435"/></filter><filter id="filter1_i_3542_11435" x="17.811" y="19.374" width="13.397" height="13.132" filterUnits="userSpaceOnUse" color-interpolation-filters="sRGB"><feFlood flood-opacity="0" result="BackgroundImageFix"/><feBlend in="SourceGraphic" in2="BackgroundImageFix" result="shape"/><feColorMatrix in="SourceAlpha" values="0 0 0 0 0 0 0 0 0 0 0 0 0 0 0 0 0 0 127 0" result="hardAlpha"/><feOffset dx="-1.252" dy="-.626"/><feGaussianBlur stdDeviation=".469"/><feComposite in2="hardAlpha" operator="arithmetic" k2="-1" k3="1"/><feColorMatrix values="0 0 0 0 0.721569 0 0 0 0 0.329412 0 0 0 0 0 0 0 0 1 0"/><feBlend in2="shape" result="effect1_innerShadow_3542_11435"/></filter><filter id="filter2_i_3542_11435" x="21.561" y="23.749" width="3.606" height="3.303" filterUnits="userSpaceOnUse" color-interpolation-filters="sRGB"><feFlood flood-opacity="0" result="BackgroundImageFix"/><feBlend in="SourceGraphic" in2="BackgroundImageFix" result="shape"/><feColorMatrix in="SourceAlpha" values="0 0 0 0 0 0 0 0 0 0 0 0 0 0 0 0 0 0 127 0" result="hardAlpha"/><feOffset dx="-1.252" dy="-.626"/><feGaussianBlur stdDeviation=".469"/><feComposite in2="hardAlpha" operator="arithmetic" k2="-1" k3="1"/><feColorMatrix values="0 0 0 0 0.682353 0 0 0 0 0.0156863 0 0 0 0 0 0 0 0 1 0"/><feBlend in2="shape" result="effect1_innerShadow_3542_11435"/></filter><filter id="filter3_i_3542_11435" x="16.562" y="25.312" width="1.563" height="1.563" filterUnits="userSpaceOnUse" color-interpolation-filters="sRGB"><feFlood flood-opacity="0" result="BackgroundImageFix"/><feBlend in="SourceGraphic" in2="BackgroundImageFix" result="shape"/><feColorMatrix in="SourceAlpha" values="0 0 0 0 0 0 0 0 0 0 0 0 0 0 0 0 0 0 127 0" result="hardAlpha"/><feOffset dx="-.626" dy="-.626"/><feGaussianBlur stdDeviation=".156"/><feComposite in2="hardAlpha" operator="arithmetic" k2="-1" k3="1"/><feColorMatrix values="0 0 0 0 0.682353 0 0 0 0 0.0156863 0 0 0 0 0 0 0 0 1 0"/><feBlend in2="shape" result="effect1_innerShadow_3542_11435"/></filter><filter id="filter4_i_3542_11435" x="12.187" y="23.437" width="1.563" height="1.563" filterUnits="userSpaceOnUse" color-interpolation-filters="sRGB"><feFlood flood-opacity="0" result="BackgroundImageFix"/><feBlend in="SourceGraphic" in2="BackgroundImageFix" result="shape"/><feColorMatrix in="SourceAlpha" values="0 0 0 0 0 0 0 0 0 0 0 0 0 0 0 0 0 0 127 0" result="hardAlpha"/><feOffset dx="-.626" dy="-.626"/><feGaussianBlur stdDeviation=".156"/><feComposite in2="hardAlpha" operator="arithmetic" k2="-1" k3="1"/><feColorMatrix values="0 0 0 0 0.682353 0 0 0 0 0.0156863 0 0 0 0 0 0 0 0 1 0"/><feBlend in2="shape" result="effect1_innerShadow_3542_11435"/></filter><filter id="filter5_i_3542_11435" x="14.374" y="23.124" width="2.501" height="2.501" filterUnits="userSpaceOnUse" color-interpolation-filters="sRGB"><feFlood flood-opacity="0" result="BackgroundImageFix"/><feBlend in="SourceGraphic" in2="BackgroundImageFix" result="shape"/><feColorMatrix in="SourceAlpha" values="0 0 0 0 0 0 0 0 0 0 0 0 0 0 0 0 0 0 127 0" result="hardAlpha"/><feOffset dx="-.626" dy="-.626"/><feGaussianBlur stdDeviation=".313"/><feComposite in2="hardAlpha" operator="arithmetic" k2="-1" k3="1"/><feColorMatrix values="0 0 0 0 0.682353 0 0 0 0 0.0156863 0 0 0 0 0 0 0 0 1 0"/><feBlend in2="shape" result="effect1_innerShadow_3542_11435"/></filter></defs></svg>