<svg width="40" height="40" fill="none" xmlns="http://www.w3.org/2000/svg"><g filter="url(#filter0_ii_2442_34495)" fill="#87E3EC"><path d="M19.393 25.86v7.812c0 1.08-.825 1.953-1.846 1.953-1.021 0-1.846-.873-1.846-1.953V20.055l-1.65 2.905c-.525.922-1.662 1.22-2.533.665-.871-.555-1.154-1.758-.629-2.68l3.364-5.92c1.004-1.764 2.804-2.844 4.748-2.844h1.714c1.944 0 3.744 1.08 4.748 2.844l3.364 5.92c.525.922.242 2.125-.629 2.68-.871.556-2.008.257-2.533-.665l-1.656-2.905v13.617c0 1.08-.825 1.953-1.846 1.953-1.021 0-1.846-.873-1.846-1.953v-7.813h-.924zM17.38 8.832c0-.777.291-1.523.81-2.072a2.695 2.695 0 011.959-.858c.734 0 1.439.309 1.958.858.52.55.811 1.295.811 2.072 0 .777-.291 1.522-.81 2.071-.52.55-1.225.858-1.96.858a2.695 2.695 0 01-1.957-.858 3.018 3.018 0 01-.812-2.071z"/></g><defs><filter id="filter0_ii_2442_34495" x="9.375" y="5.277" width="20.966" height="30.348" filterUnits="userSpaceOnUse" color-interpolation-filters="sRGB"><feFlood flood-opacity="0" result="BackgroundImageFix"/><feBlend in="SourceGraphic" in2="BackgroundImageFix" result="shape"/><feColorMatrix in="SourceAlpha" values="0 0 0 0 0 0 0 0 0 0 0 0 0 0 0 0 0 0 127 0" result="hardAlpha"/><feOffset dx="-1.25" dy="-.625"/><feGaussianBlur stdDeviation=".938"/><feComposite in2="hardAlpha" operator="arithmetic" k2="-1" k3="1"/><feColorMatrix values="0 0 0 0 0 0 0 0 0 0.47451 0 0 0 0 0.521569 0 0 0 1 0"/><feBlend in2="shape" result="effect1_innerShadow_2442_34495"/><feColorMatrix in="SourceAlpha" values="0 0 0 0 0 0 0 0 0 0 0 0 0 0 0 0 0 0 127 0" result="hardAlpha"/><feOffset dx="1.25"/><feGaussianBlur stdDeviation="1.25"/><feComposite in2="hardAlpha" operator="arithmetic" k2="-1" k3="1"/><feColorMatrix values="0 0 0 0 1 0 0 0 0 1 0 0 0 0 1 0 0 0 0.25 0"/><feBlend in2="effect1_innerShadow_2442_34495" result="effect2_innerShadow_2442_34495"/></filter></defs></svg>