<svg width="56" height="56" fill="none" xmlns="http://www.w3.org/2000/svg"><g fill="#333"><path d="M25.736 2.975c-.186.197-.252.46-.317 1.182-.088 1.072-.186 1.422-.427 1.422-.087 0-.612.196-1.17.437-.81.35-1.04.405-1.17.295a20.907 20.907 0 01-.864-.7c-1.061-.886-1.083-.875-2.833.875-1.138 1.127-1.455 1.52-1.455 1.74 0 .196.24.59.755 1.203l.754.918-.284.536c-.153.307-.394.843-.525 1.203l-.24.657-.8.087c-1.333.142-1.52.186-1.75.416-.185.186-.207.372-.207 2.231 0 1.98.011 2.045.252 2.286.207.208.426.273 1.126.328 1.444.12 1.4.11 1.63.81.098.338.306.853.448 1.137.143.284.263.569.263.623 0 .066-.24.394-.525.744-.766.919-.93 1.203-.864 1.477.098.36 2.942 3.15 3.215 3.15.241 0 .504-.175 1.466-.996l.602-.525.634.318c.35.186.897.404 1.214.503.656.207.634.164.777 1.717.109 1.28.12 1.28 2.625 1.28 2.57 0 2.406.13 2.625-2.09.065-.7.076-.732.393-.798.175-.033.733-.252 1.225-.481l.897-.427.919.755c1.236 1.017 1.192 1.028 2.986-.766 1.706-1.728 1.706-1.706.678-2.93-.394-.471-.71-.898-.71-.941 0-.055.141-.372.316-.722.175-.34.383-.832.46-1.094.076-.263.218-.514.306-.558.098-.055.612-.131 1.148-.175.81-.066 1.018-.12 1.225-.339.252-.252.263-.295.263-2.286 0-2.308-.033-2.395-.897-2.505-.262-.032-.788-.098-1.17-.142l-.69-.087-.24-.657c-.131-.36-.372-.896-.525-1.203l-.284-.536.754-.918c.503-.613.755-1.007.755-1.193 0-.218-.34-.623-1.444-1.75-1.739-1.76-1.728-1.75-2.865-.82-.427.35-.832.667-.908.711-.077.044-.372-.033-.656-.175a10.465 10.465 0 00-1.204-.514l-.678-.24-.065-.733c-.197-2.09-.044-1.98-2.658-1.98-2.002 0-2.067.01-2.286.24zm3.401 1.97c.175 1.695.22 1.76 1.236 2.012.35.098 1.138.415 1.75.722 1.291.645 1.247.656 2.308-.23.372-.306.711-.558.755-.558.055 0 .405.317.787.7l.7.711-.678.842c-.36.46-.667.94-.667 1.072 0 .12.24.711.547 1.302.295.59.59 1.345.667 1.673.175.766.394.995 1.05 1.072.285.033.788.088 1.105.131l.569.066v2.144l-1.04.076c-.721.055-1.104.131-1.246.252-.11.11-.317.558-.449 1.006a10.142 10.142 0 01-.722 1.717c-.262.503-.48 1.006-.48 1.127 0 .11.316.601.7 1.072l.7.864-.745.743-.754.744-.82-.667c-.537-.448-.908-.678-1.105-.678-.153 0-.635.197-1.072.426-.438.241-1.225.57-1.75.722-.613.197-.995.372-1.072.503-.088.175-.317 1.685-.317 2.144 0 .11-.285.142-1.072.142h-1.083l-.11-1.082c-.054-.602-.163-1.17-.24-1.258-.087-.099-.492-.274-.93-.405a13.731 13.731 0 01-1.717-.71c-.514-.263-1.06-.482-1.214-.482-.186 0-.558.219-1.072.656-.426.361-.82.656-.853.656-.11 0-1.444-1.345-1.444-1.454 0-.044.296-.438.657-.864.776-.93.809-1.138.284-2.013-.208-.339-.536-1.116-.733-1.717-.23-.7-.437-1.138-.58-1.236-.13-.077-.689-.175-1.235-.219l-1.018-.076V14.46l.525-.066c.285-.033.777-.087 1.094-.131.711-.077.93-.295 1.105-1.072.076-.328.372-1.083.667-1.673.306-.591.547-1.182.547-1.302 0-.131-.306-.612-.667-1.072l-.678-.842.743-.755.744-.743.864.7c.47.382.963.7 1.094.7.12 0 .47-.143.755-.329.59-.36 1.618-.809 2.121-.918.985-.219 1.094-.372 1.204-1.74l.076-.95h2.144l.066.677z"/><path d="M26.404 8.028c-2.198.503-4.222 2.067-5.174 4.014-.623 1.29-.82 2.111-.82 3.49.011 1.334.208 2.209.766 3.346 1.4 2.866 4.572 4.583 7.722 4.19 1.848-.23 3.15-.876 4.528-2.243.743-.733.973-1.05 1.389-1.914.645-1.324.897-2.516.81-3.872-.187-3.128-2.287-5.819-5.294-6.803-1.05-.35-2.888-.438-3.927-.208zm3.073 1.542c2.702.711 4.638 3.172 4.649 5.918 0 .83-.34 2.187-.733 2.92-.47.875-1.564 1.958-2.417 2.406-1.061.558-1.881.766-2.986.766-2.92-.011-5.349-2.024-5.961-4.955-.634-3.052 1.444-6.3 4.506-7.044.864-.208 2.155-.208 2.942-.01z"/><path d="M30.626 12.983c-.088.044-.897.776-1.783 1.64l-1.63 1.565-.886-.82c-.973-.887-1.312-1.007-1.717-.602-.46.459-.317.743 1.017 2.056.963.951 1.313 1.225 1.543 1.225.23 0 .721-.405 2.307-1.925 1.105-1.05 2.035-1.99 2.067-2.09.23-.59-.36-1.257-.918-1.05zm7.382 19.283c-.711.109-1.094.273-3.03 1.323l-1.619.886-2.603-.044c-2.854-.043-2.669-.01-4.681-.897-1.498-.667-2.406-.853-4.09-.853-1.805 0-2.724.208-4.32.996-.81.404-1.39.798-2.243 1.53-1.17 1.018-2.144 1.641-2.286 1.477-.044-.054-.252-.656-.448-1.334-.252-.831-.438-1.29-.591-1.4-.186-.12-.864-.153-3.73-.153-3.38 0-3.522.01-3.751.219a.833.833 0 00-.241.601c0 .328 2.002 17.008 2.144 17.861.033.197.153.46.273.58.197.197.405.208 5.36.208 3.292 0 5.217-.044 5.348-.11.503-.262.492-.437-.219-2.756-.372-1.203-.656-2.21-.634-2.22.284-.285 4.134-2.593 4.451-2.68.394-.11 1.018-.01 5.294.777l4.835.886 1.53-.055c1.226-.044 1.718-.11 2.495-.34 1.585-.47.557.187 13.507-8.706 2.833-1.946 2.975-2.078 2.822-2.657-.11-.438-.897-1.225-1.619-1.608-.601-.317-.82-.383-1.651-.416-.788-.044-1.072-.01-1.619.186l-.656.24-.416-.338c-1.072-.842-2.46-1.061-3.576-.558l-.569.24-.58-.317c-.973-.536-1.87-.71-2.887-.568zm1.487 1.596c.175.033.318.11.296.165-.022.065-.525.371-1.127.689l-1.094.59-.645-.328c-.71-.36-.722-.339.197-.81.842-.437 1.345-.502 2.373-.306zm-15.345.591c.427.12 1.214.416 1.728.656 1.75.81 1.663.799 5.895.864l3.829.066.623.306c.34.164.777.482.962.7.34.383.854 1.302.755 1.378-.022.022-1.203-.01-2.614-.065-2.69-.12-5.206-.011-5.676.251-.318.164-.449.525-.318.908.175.481.372.525 1.893.383 1.082-.098 2.089-.098 4.615.01l3.238.132.251-.24c.142-.132.263-.35.263-.482 0-.208.58-.557 3.806-2.297 3.577-1.936 3.84-2.067 4.484-2.11.711-.055 1.51.164 1.761.459.099.11-1.367 1.16-6.584 4.747-3.697 2.537-6.956 4.714-7.252 4.834-.951.416-2.209.656-3.38.656-1.257 0-.973.044-6.507-.973-4.375-.81-4.627-.831-5.6-.492-.23.076-1.236.667-2.231 1.301-.996.635-1.849 1.149-1.893 1.149-.043 0-.645-1.838-1.323-4.08-.678-2.231-1.258-4.123-1.269-4.178-.022-.066.285-.252.667-.427.416-.186 1.061-.623 1.543-1.039 2.056-1.782 3.303-2.406 5.293-2.668.7-.099 2.253.032 3.041.251zm19.994-.087c.175.076.306.197.306.251-.01.066-.744.503-1.64.985a273.15 273.15 0 00-2.57 1.4l-.953.514-.284-.536-.284-.547.798-.427c1.87-1.028 3.205-1.739 3.358-1.804.24-.099.908-.011 1.269.164zM13.552 43.4c1.345 4.43 2.471 8.127 2.504 8.203.033.099-.81.131-4.003.131H7.995l-.065-.36c-.088-.537-1.914-15.608-1.914-15.838 0-.197.12-.208 2.548-.208h2.538l2.45 8.072z"/><path d="M10.74 47.59c-1.27.623-1.477 2.427-.394 3.368 1.52 1.345 3.872-.153 3.325-2.122-.34-1.225-1.75-1.826-2.931-1.247zm1.4 1.509c.175.339.13.536-.165.733-.251.164-.295.164-.546 0-.296-.197-.361-.591-.143-.81.208-.208.722-.164.854.077z"/></g></svg>