<svg width="57" height="56" fill="none" xmlns="http://www.w3.org/2000/svg"><g fill="#333"><path d="M7.336.153C6.023.47 4.809 1.498 4.186 2.811l-.35.744V9.46c0 6.694-.022 6.475.886 7.71.536.734 1.345 1.324 2.264 1.642.602.218.897.218 14.055.218h13.442l.23-.251c.295-.318.306-.733.032-1.072l-.207-.263-13.497-.054-13.486-.055-.449-.24a3.399 3.399 0 01-1.389-1.39c-.24-.448-.24-.514-.273-5.96-.033-6.377-.055-6.224.908-7.187.907-.907.984-.918 5.971-.918 3.97 0 4.244-.011 4.485-.208.35-.285.35-.94 0-1.225C16.568.01 16.305 0 12.214.01 9.217.01 7.72.055 7.336.153zM19.05.23c-.208.164-.284.328-.284.59 0 .263.076.427.284.59l.295.23h14.788c16.822 0 15.531-.076 16.515.92.963.962.941.809.908 7.185-.033 5.447-.033 5.513-.273 5.961a3.223 3.223 0 01-1.51 1.422l-.546.263h-5.94c-4.998 0-5.982.022-6.245.164-.503.251-.59.722-.219 1.192l.22.284H43.2c6.89 0 6.748.011 7.94-.776a5.158 5.158 0 001.783-2.199c.23-.569.241-.722.274-6.158.033-4.025 0-5.742-.088-6.18-.382-1.75-1.87-3.237-3.587-3.598C49.117.033 44.556 0 34.144 0H19.345l-.295.23z"/><path d="M12.909 8.855a1.8 1.8 0 01.763.647c.202.29.302.664.302 1.123 0 .802-.2 1.361-.603 1.678-.403.317-.882.475-1.439.475h-2.21a.513.513 0 01-.391-.171.674.674 0 01-.151-.445V6.317c0-.175.05-.32.15-.434a.5.5 0 01.391-.182h2.238c1.125 0 1.687.6 1.687 1.8 0 .303-.065.572-.196.808a1.36 1.36 0 01-.541.546zm-.417-1.132c0-.276-.063-.482-.187-.617-.118-.141-.287-.212-.506-.212h-1.465V8.47h1.492a.621.621 0 00.461-.202c.136-.135.205-.317.205-.546zm-.56 3.893c.278 0 .495-.085.648-.253.16-.169.24-.415.24-.738 0-.398-.092-.657-.275-.779a1.197 1.197 0 00-.675-.182h-1.536v1.952h1.598zm8.784-2.376c0 .667-.13 1.28-.39 1.84a3.27 3.27 0 01-1.084 1.314 2.6 2.6 0 01-1.545.486 2.645 2.645 0 01-1.554-.486 3.296 3.296 0 01-1.074-1.314 4.39 4.39 0 01-.382-1.84c0-.668.127-1.278.382-1.83.26-.56.618-1.002 1.074-1.325.462-.324.98-.485 1.554-.485a2.6 2.6 0 011.545.485c.462.324.823.765 1.083 1.325.26.552.391 1.162.391 1.83zm-1.154 0c0-.452-.08-.86-.24-1.224a2.14 2.14 0 00-.666-.88 1.546 1.546 0 00-.959-.323 1.56 1.56 0 00-.968.324 2.095 2.095 0 00-.657.87 3.18 3.18 0 00-.23 1.233c0 .451.076.862.23 1.233.16.37.38.664.657.88.285.209.607.313.968.313.355 0 .675-.108.96-.323a2.15 2.15 0 00.665-.87c.16-.37.24-.782.24-1.233zm7.891 0c0 .667-.13 1.28-.39 1.84-.26.553-.622.99-1.083 1.314a2.604 2.604 0 01-1.546.486 2.644 2.644 0 01-1.553-.486 3.297 3.297 0 01-1.075-1.314 4.392 4.392 0 01-.382-1.84c0-.668.128-1.278.382-1.83.26-.56.619-1.002 1.075-1.325a2.64 2.64 0 011.553-.485c.575 0 1.09.161 1.546.485.461.324.822.765 1.083 1.325.26.552.39 1.162.39 1.83zm-1.154 0c0-.452-.08-.86-.24-1.224a2.14 2.14 0 00-.666-.88 1.546 1.546 0 00-.959-.323c-.36 0-.683.108-.967.324a2.096 2.096 0 00-.657.87 3.18 3.18 0 00-.231 1.233c0 .451.077.862.23 1.233.16.37.38.664.658.88.284.209.606.313.968.313.355 0 .674-.108.959-.323a2.15 2.15 0 00.665-.87c.16-.37.24-.782.24-1.233zm6.933 2.487a.753.753 0 01.089.202.697.697 0 01.035.213.61.61 0 01-.186.455.565.565 0 01-.418.181.442.442 0 01-.222-.06.506.506 0 01-.177-.172l-1.927-2.892-.843.92v1.588a.63.63 0 01-.16.445.506.506 0 01-.4.171.523.523 0 01-.4-.171.673.673 0 01-.15-.445V6.317a.61.61 0 01.16-.434.519.519 0 01.408-.182c.16 0 .29.057.39.172a.646.646 0 01.151.444v2.75l2.842-3.184c.136-.155.281-.233.435-.233.136 0 .252.064.346.192a.67.67 0 01.142.405.586.586 0 01-.16.394l-1.935 2.103 1.98 2.983zm2.168.435a.63.63 0 01-.168.445.531.531 0 01-.39.171.523.523 0 01-.4-.171.674.674 0 01-.151-.445V6.317a.61.61 0 01.16-.434.52.52 0 01.408-.182.49.49 0 01.382.182c.106.114.16.26.16.434v5.845zM41.45 5.7a.43.43 0 01.347.162.615.615 0 01.133.405v5.895a.65.65 0 01-.16.445.486.486 0 01-.381.171.802.802 0 01-.249-.04.375.375 0 01-.169-.131l-3.258-4.712v4.317a.59.59 0 01-.142.405.437.437 0 01-.355.161.427.427 0 01-.347-.161.615.615 0 01-.133-.405V6.318c0-.176.05-.32.151-.435a.5.5 0 01.39-.182.58.58 0 01.258.06c.089.04.154.095.196.162l3.231 4.692V6.267c0-.162.045-.297.134-.405a.453.453 0 01.355-.161zm6.397 3.257c.154 0 .281.06.382.181.1.115.15.26.15.435v2.144a.626.626 0 01-.275.546 3.23 3.23 0 01-1.909.617 2.92 2.92 0 01-1.624-.486 3.524 3.524 0 01-1.181-1.324 3.917 3.917 0 01-.435-1.83c0-.661.145-1.268.435-1.82.29-.56.683-1.001 1.18-1.325a2.878 2.878 0 011.625-.495c.586 0 1.096.134 1.528.404a.492.492 0 01.195.212.587.587 0 01.071.284.7.7 0 01-.15.444.434.434 0 01-.356.182.657.657 0 01-.293-.08 2.253 2.253 0 00-.995-.233 1.79 1.79 0 00-1.047.334c-.32.215-.575.509-.764.88-.183.37-.275.774-.275 1.213 0 .438.092.842.275 1.213.19.37.444.667.764.89.32.215.669.323 1.047.323a3.113 3.113 0 001.03-.182V10.17h-.834a.513.513 0 01-.39-.172.635.635 0 01-.152-.435c0-.175.05-.32.151-.435a.513.513 0 01.39-.171h1.457zM23.284 21.11c-2.789.503-4.922 2.822-5.14 5.567-.055.711-.033.864.142 1.072.35.405.755.438 1.115.066.263-.263.329-.427.383-1.061.186-2.013 1.728-3.632 3.828-4.014 1.4-.263 3.008.295 4.004 1.378.7.776 1.071 1.586 1.225 2.647.076.568.185.918.317 1.06.284.285.831.274 1.126-.032.208-.197.24-.34.208-.919-.098-2.537-2.067-4.955-4.56-5.61-.755-.209-1.97-.274-2.648-.154z"/><path d="M23.512 25.058c-.645.186-1.378.776-1.728 1.41l-.339.602-.033 4.572c-.033 4.277-.044 4.572-.219 4.496-.098-.044-.525-.099-.93-.132-.918-.054-1.53.153-2.143.744-.853.831-.831.678-.864 5.031-.022 2.614 0 4.157.087 4.703.744 4.736 4.583 8.586 9.33 9.352 6.136.995 11.878-3.117 12.972-9.286.077-.383.12-2.297.12-4.594 0-3.587-.022-3.992-.208-4.386-.601-1.334-2.11-2.067-3.412-1.662l-.514.153-.044-.722c-.033-.426-.153-.908-.284-1.17-.274-.525-.995-1.203-1.52-1.433-.449-.186-1.597-.208-2.035-.044-.426.164-.46.153-.601-.153-.263-.569-1.018-1.247-1.641-1.487-.613-.23-1.116-.23-2.013-.033l-.306.065v-1.957c0-1.893-.01-1.98-.284-2.527-.624-1.258-2.078-1.925-3.39-1.542zm1.324 1.673c.732.306.71.131.71 7.12v6.312l.329.328c.273.262.393.317.634.251.69-.175.678-.087.678-3.74 0-3.686.033-3.905.678-4.299.46-.273.81-.273 1.27 0 .644.394.677.613.677 4.299 0 3.653-.01 3.565.678 3.74.24.066.361.011.635-.251l.328-.328V35l.306-.328c.58-.656 1.488-.602 1.958.098.24.361.251.449.251 2.877 0 1.4.044 2.592.11 2.702.054.109.24.262.426.328.263.109.372.109.657-.033.382-.208.426-.34.47-1.564.033-.82.066-.919.35-1.225.405-.416.886-.525 1.41-.306.745.317.756.36.712 4.921l-.044 4.07-.306.929c-1.433 4.364-5.338 7.11-9.745 6.858-4.124-.241-7.438-2.833-8.761-6.858l-.307-.93-.043-4.08-.033-4.08.372-.371c.317-.317.459-.383.864-.383.262 0 .59.077.722.175.503.35.568.656.568 2.866 0 1.925.011 2.089.23 2.362.284.361.842.394 1.148.055.197-.219.208-.558.263-7.974l.055-7.743.273-.296c.46-.503.864-.59 1.477-.339z"/></g></svg>