<svg width="48" height="48" fill="none" xmlns="http://www.w3.org/2000/svg"><g fill="#4BAE4F" clip-path="url(#clip0_7183_72056)"><path d="M21.778.094A23.99 23.99 0 007.05 7.03c-3.722 3.723-6 8.27-6.834 13.69-.225 1.51-.225 5.053 0 6.562.834 5.41 3.093 9.928 6.815 13.669 3.722 3.722 8.269 6 13.688 6.834 1.51.225 5.053.225 6.562 0 5.41-.834 9.928-3.093 13.669-6.815 3.722-3.722 6-8.269 6.834-13.688.225-1.51.225-5.053 0-6.562-.834-5.41-3.093-9.928-6.815-13.669-3.694-3.703-8.297-6.01-13.594-6.816-1.172-.178-4.387-.253-5.597-.14zm5.269 3.89c4.331.675 8.147 2.616 11.25 5.72 3.131 3.13 5.044 6.918 5.737 11.343.113.731.16 1.594.16 2.953 0 1.36-.047 2.222-.16 2.953-.693 4.425-2.606 8.213-5.737 11.344-3.131 3.131-6.919 5.044-11.344 5.737-1.415.225-4.49.225-5.906 0-4.425-.693-8.213-2.606-11.344-5.737-3.131-3.131-5.044-6.919-5.737-11.344-.225-1.415-.225-4.49 0-5.906.693-4.425 2.606-8.213 5.737-11.344 3.45-3.45 7.547-5.362 12.656-5.897.76-.075 3.778.038 4.688.178z"/><path d="M32.533 15.994c-.206.084-2.41 2.222-6.065 5.878L20.72 27.6l-2.41-2.4c-1.33-1.313-2.55-2.456-2.7-2.54-.965-.488-2.053-.141-2.53.815-.282.563-.3 1.078-.048 1.594.113.253 1.331 1.528 3.44 3.628 2.57 2.56 3.338 3.272 3.629 3.366.478.15 1.2.065 1.584-.197.45-.31 12.778-12.628 13.125-13.116.263-.375.3-.497.3-1.05 0-.544-.037-.675-.28-1.022-.526-.74-1.492-1.031-2.298-.684z"/></g><defs><clipPath id="clip0_7183_72056"><path fill="#fff" d="M0 0h48v48H0z"/></clipPath></defs></svg>