<svg width="56" height="56" fill="none" xmlns="http://www.w3.org/2000/svg"><path opacity=".95" fill-rule="evenodd" clip-rule="evenodd" d="M26.105 5.49h3.684c7.412.979 12.72 4.838 15.92 11.578 1.492 3.532 1.916 7.187 1.272 10.965a20.62 20.62 0 011.579.833c1.12.963 1.544 2.176 1.271 3.64a16.227 16.227 0 01-.833 2.368c-.401.4-.84.444-1.316.132a1.371 1.371 0 01-.35-.746c.228-.699.447-1.4.657-2.105.21-.959-.127-1.646-1.008-2.061l-3.991-1.447-.132.087a3866.21 3866.21 0 01-4.736 13.903c.17.165.375.282.614.35 1.326.516 2.67.97 4.035 1.36a1.915 1.915 0 001.447-.79c.28-.753.543-1.513.79-2.28.416-.48.899-.554 1.446-.219.175.218.263.466.264.746a13.074 13.074 0 01-1.01 2.894c-.968 1.194-2.21 1.661-3.727 1.404.218 2.169-.688 3.601-2.72 4.298H24.878a2.879 2.879 0 01-.395-.439 26.52 26.52 0 01.088-4.21c.871-1.993 2.377-2.738 4.517-2.237 1.237.448 2.012 1.31 2.325 2.588.043.847.058 1.695.043 2.543 2.34.015 4.679 0 7.017-.044 1.038-.102 1.609-.672 1.71-1.71.074-.47.06-.938-.043-1.403a277.616 277.616 0 00-3.684-1.36c-.402-.301-.533-.696-.395-1.184a2630.068 2630.068 0 015.526-16.14.612.612 0 01.307-.219c.293-.058.585-.058.877 0 .82.273 1.624.58 2.413.921.889-7.65-1.874-13.57-8.29-17.762-5.703-3.14-11.463-3.256-17.279-.35-6.818 4.118-9.785 10.156-8.903 18.112l2.412-.92c.293-.06.585-.06.877 0a.6.6 0 01.307.219c1.86 5.373 3.702 10.753 5.526 16.139.139.488.008.883-.394 1.184a112.932 112.932 0 01-5.79 2.017c-1.783.184-3.054-.533-3.815-2.149l-3.772-11.49c-.272-1.464.152-2.677 1.272-3.64a20.577 20.577 0 011.579-.833c-1.055-7.966 1.606-14.354 7.982-19.166a20.24 20.24 0 019.21-3.377zM12.772 28.647a.287.287 0 01.307.175 1901.31 1901.31 0 004.693 13.815.614.614 0 01-.35.263 64.186 64.186 0 01-4.299 1.447c-.687-.044-1.199-.365-1.535-.965-1.18-3.63-2.38-7.256-3.596-10.876-.32-.885-.13-1.63.57-2.237a137.537 137.537 0 004.21-1.622zm14.649 16.578c1.302-.177 2.048.38 2.236 1.666.044.584.059 1.169.044 1.754h-3.508c-.027-.764.017-1.525.131-2.28a1.92 1.92 0 011.097-1.14z" fill="#333"/><path opacity=".943" fill-rule="evenodd" clip-rule="evenodd" d="M26.542 10.753c4.94-.344 8.727 1.557 11.359 5.702 1.73 3.37 1.905 6.82.526 10.35-1.65 3.433-4.325 5.611-8.026 6.535a48.835 48.835 0 01-2.017 2.806c-.425.11-.806.038-1.14-.219-.574-.87-1.159-1.732-1.755-2.587-5.05-1.366-8.017-4.626-8.902-9.78-.387-4.942 1.498-8.729 5.657-11.36a13.829 13.829 0 014.298-1.447zm1.316 1.755a10.82 10.82 0 00-3.509.745c-3.81 1.764-5.797 4.746-5.964 8.947.366 5.175 3.085 8.333 8.157 9.473.48.624.947 1.253 1.403 1.886.456-.633.924-1.262 1.404-1.886a10.565 10.565 0 004.912-2.28c3.157-3.054 4.02-6.665 2.587-10.833-1.78-3.81-4.776-5.827-8.99-6.052z" fill="#333"/><path opacity=".908" fill-rule="evenodd" clip-rule="evenodd" d="M22.247 20.84c1.037-.147 1.461.292 1.272 1.316-.32.419-.745.55-1.272.395-.419-.321-.55-.745-.395-1.272.12-.164.252-.31.395-.439zm5.26 0c1.037-.147 1.461.292 1.272 1.316-.32.419-.745.55-1.272.395-.419-.321-.55-.745-.395-1.272.12-.164.252-.31.395-.439zm5.262 0c1.037-.147 1.46.292 1.271 1.316-.32.419-.744.55-1.271.395-.42-.321-.55-.745-.395-1.272.12-.164.251-.31.395-.439z" fill="#333"/></svg>