<svg width="20" height="21" fill="none" xmlns="http://www.w3.org/2000/svg"><path d="M10 18.777a1.428 1.428 0 01-1.153-.575l-4.218-5.619a6.578 6.578 0 1110.738-.007L11.154 18.2a1.43 1.43 0 01-1.154.578zM9.993 3.056a5.675 5.675 0 00-3.815 1.458 5.743 5.743 0 00-.875 7.583l4.21 5.606a.603.603 0 00.486.243.61.61 0 00.489-.243l4.203-5.612a5.728 5.728 0 00-4.698-9.035z" fill="#7C7C7C"/><path d="M10 10.917a2.084 2.084 0 110-4.167 2.084 2.084 0 010 4.167zm0-3.334a1.25 1.25 0 100 2.5 1.25 1.25 0 000-2.5z" fill="#7C7C7C"/></svg>