<svg width="24" height="24" fill="none" xmlns="http://www.w3.org/2000/svg"><path d="M19.15 4.129h-2.162v-1.57c0-.293-.256-.572-.557-.559a.568.568 0 00-.558.558v1.57H8.065v-1.57c0-.292-.256-.57-.557-.558a.568.568 0 00-.558.558v1.57H4.788A2.792 2.792 0 002 6.919v12.268a2.792 2.792 0 002.788 2.789H19.15a2.79 2.79 0 002.788-2.789V6.917A2.79 2.79 0 0019.15 4.13zM4.788 5.244H6.95v.66c0 .293.257.571.558.558a.567.567 0 00.557-.558v-.66h7.808v.66c0 .293.257.571.558.558a.567.567 0 00.557-.558v-.66h2.161c.922 0 1.673.75 1.673 1.673v1.767H3.115V6.917c0-.922.751-1.673 1.673-1.673zM19.15 20.859H4.788c-.922 0-1.673-.75-1.673-1.673V9.8h17.707v9.387a1.673 1.673 0 01-1.672 1.673z" fill="#333"/><path d="M8.623 15.651l2.23 2.23 4.462-4.78" stroke="#333" stroke-width="1.115" stroke-linecap="round" stroke-linejoin="round"/></svg>