<svg width="20" height="21" fill="none" xmlns="http://www.w3.org/2000/svg"><g fill="#333" clip-path="url(#clip0_5892_63075)"><path d="M7.852.523a4.72 4.72 0 00-1.758.66c-.356.235-.907.774-1.13 1.106a5.035 5.035 0 00-.577 1.238c-.098.328-.106.403-.11 1.074 0 .63.008.743.075.872.214.433.824.445 1.035.02.066-.138.07-.212.054-.696-.027-.625.028-.922.243-1.395.164-.355.324-.59.59-.851a2.93 2.93 0 013.363-.582 3.004 3.004 0 011.578 1.925c.062.227.078.403.074.747-.016.773-.012.785.066.89.204.27.473.34.75.195.235-.12.31-.277.352-.738a3.954 3.954 0 00-.406-2.164 3.83 3.83 0 00-.883-1.207A3.915 3.915 0 008.496.52a7.76 7.76 0 00-.644.004z"/><path d="M7.895 2.945c-.484.129-.922.504-1.148.98l-.125.266-.012 4.715c-.004 2.667-.023 4.718-.043 4.718-.02 0-.18-.16-.36-.36-.624-.683-1.007-.874-1.706-.843-.328.012-.414.031-.645.145-1.012.488-1.32 1.797-.62 2.652.097.125 1.097 1.2 2.214 2.39 2.086 2.22 2.258 2.383 2.762 2.618.558.262.437.25 3.465.265 2.293.008 2.8 0 3.054-.046.602-.114 1.07-.364 1.524-.805.504-.496.777-1.078.859-1.824.023-.25.035-1.485.027-3.528l-.015-3.144-.086-.235a1.841 1.841 0 00-1.055-1.078c-.3-.117-.867-.129-1.176-.02-.207.071-.214.071-.261 0-.282-.405-.524-.612-.91-.765-.297-.113-.868-.12-1.172-.015-.207.07-.215.07-.262 0-.281-.407-.527-.614-.91-.762-.235-.094-.746-.121-1.028-.063l-.148.032V6.382c0-1.2-.016-1.93-.043-2.062-.207-.996-1.219-1.633-2.18-1.375zm.77 1.214c.054.043.137.125.18.184.082.106.082.145.101 3.832.02 3.691.02 3.727.102 3.836.175.242.527.316.757.156.293-.199.29-.183.313-1.394.02-1.024.023-1.094.101-1.2.254-.343.75-.308.973.07.07.122.078.223.098 1.196.02.996.023 1.067.101 1.172.254.344.75.309.973-.07.066-.114.082-.227.098-.805.015-.598.027-.684.101-.781.254-.344.75-.309.973.07.066.113.082.227.098.805.015.597.027.683.101.781a.576.576 0 00.52.234c.332-.035.503-.257.546-.71.02-.2.051-.329.106-.399.254-.344.75-.309.973.07.078.13.078.204.078 3.395 0 3.094-.004 3.273-.075 3.476-.214.63-.71 1.082-1.328 1.211-.14.028-1.043.04-2.859.032-2.652-.012-2.652-.012-2.871-.102a2.159 2.159 0 01-.398-.215c-.243-.172-4.278-4.465-4.348-4.625-.113-.261-.031-.535.223-.722.113-.086.382-.106.546-.04.055.024.512.47 1.012.993.504.52.957.98 1.012 1.015.14.098.457.094.617-.008a.608.608 0 00.195-.203c.067-.12.07-.425.09-5.566.02-5.422.02-5.438.102-5.547.18-.246.558-.312.789-.14z"/></g><defs><clipPath id="clip0_5892_63075"><path fill="#fff" transform="translate(0 .5)" d="M0 0h20v20H0z"/></clipPath></defs></svg>