<svg width="56" height="56" viewBox="0 0 56 56" fill="none" xmlns="http://www.w3.org/2000/svg">
<path d="M17.5 31.5H11.375C10.8937 31.5 10.5 31.8937 10.5 32.375C10.5 32.8563 10.8937 33.25 11.375 33.25H17.5C17.9813 33.25 18.375 32.8563 18.375 32.375C18.375 31.8937 17.9813 31.5 17.5 31.5Z" fill="#333333"/>
<path d="M17.5 35H11.375C10.8937 35 10.5 35.3937 10.5 35.875C10.5 36.3563 10.8937 36.75 11.375 36.75H17.5C17.9813 36.75 18.375 36.3563 18.375 35.875C18.375 35.3937 17.9813 35 17.5 35Z" fill="#333333"/>
<path d="M45.5 31.1237V18.375C45.5 15.96 43.54 14 41.125 14H10.5C8.085 14 6.125 15.96 6.125 18.375V38.5C6.125 40.915 8.085 42.875 10.5 42.875H32.4012C33.88 45.9725 37.03 48.125 40.6875 48.125C45.7537 48.125 49.875 44.0037 49.875 38.9375C49.875 35.6388 48.1163 32.7425 45.5 31.1237ZM7.875 18.375C7.875 16.9313 9.05625 15.75 10.5 15.75H41.125C42.5687 15.75 43.75 16.9313 43.75 18.375V20.125H7.875V18.375ZM7.875 21.875H43.75V25.375H7.875V21.875ZM31.7713 41.125H10.5C9.05625 41.125 7.875 39.9437 7.875 38.5V27.125H43.75V30.2838C42.7875 29.9425 41.7638 29.75 40.6875 29.75C35.6213 29.75 31.5 33.8713 31.5 38.9375C31.5 39.69 31.605 40.425 31.7713 41.125ZM40.6875 46.375C36.5837 46.375 33.25 43.0413 33.25 38.9375C33.25 34.8337 36.5837 31.5 40.6875 31.5C44.7913 31.5 48.125 34.8337 48.125 38.9375C48.125 43.0413 44.7913 46.375 40.6875 46.375Z" fill="#333333"/>
<path d="M44.003 36.1289L39.3743 40.7664L37.3705 38.7626C37.0293 38.4214 36.478 38.4214 36.1368 38.7626C35.7955 39.1039 35.7955 39.6551 36.1368 39.9964L38.7618 42.6214C38.928 42.7876 39.1468 42.8751 39.3743 42.8751C39.6018 42.8751 39.8205 42.7876 39.9955 42.6214L45.2455 37.3714C45.5868 37.0301 45.5868 36.4789 45.2455 36.1376C44.9043 35.7876 44.3443 35.7876 44.003 36.1289Z" fill="#333333"/>
</svg>
