<svg width="68" height="68" fill="none" xmlns="http://www.w3.org/2000/svg"><path d="M1.152.605c-.59.576-.384 1.412.398 1.714.247.082 3.785.137 10.368.137h9.999l.343.302c.493.425.576 1.029.233 1.577l-.274.425-1.866.055c-1.865.041-1.879.041-2.208.425-.356.412-.425.988-.15 1.344.41.535.712.576 3.675.467 2.414-.083 2.894-.055 3.237.123.795.398.905 1.454.22 2.003-.33.26-.563.274-3.498.274h-3.14l-.33.343c-.466.452-.453 1.07.014 1.536l.356.357 4.348-.07c2.825-.054 4.444-.027 4.622.056.74.397.96 1.303.453 1.947l-.275.357H23.22c-3.648 0-4.526.041-4.842.206-.63.329-.754 1.015-.274 1.632l.274.356h16.747l.397.398c.535.549.535 1.125 0 1.673l-.397.398h-9.807c-9.779 0-9.792 0-10.053.288-.233.26-.26.59-.33 3.539-.068 2.99-.095 3.278-.37 3.799-.164.302-.507.74-.754.96-.493.425-1.303.823-1.426.7-.041-.042-.44-2.47-.892-5.39-.438-2.936-.864-5.473-.946-5.651-.069-.165-.302-.37-.508-.453-.219-.082-2.07-.123-4.95-.096l-4.582.041-.26.33c-.33.41-.33.987 0 1.398l.26.33 4.129.04c2.578.028 4.128.096 4.128.179 0 .7 1.7 10.958 1.865 11.191.275.426.768.522 1.756.343 2.331-.439 4.06-2.098 4.54-4.361.123-.59.205-1.742.205-3.004v-2.057l8.847.041c9.86.055 9.792.055 10.862-.864.782-.672 1.138-1.454 1.138-2.51 0-1.001-.205-1.563-.822-2.277-.892-1.014-1.235-1.11-4.266-1.152l-2.702-.04.124-.563c.343-1.481-.686-3.237-2.167-3.744l-.522-.179.042-.946c.054-1.042-.124-1.632-.727-2.441-.357-.467-1.564-1.166-1.989-1.166-.206 0-.22-.137-.178-1.001.055-.878.027-1.07-.33-1.742-.425-.837-1.261-1.55-2.07-1.783-.33-.082-4.101-.137-10.698-.137H1.482l-.33.343zM53.559 12.48c-.357.275-.357.302-.357 2.126v1.838H41.805l-.33.343c-.439.425-.439.905-.013 1.4l.329.383 5.705.041 5.706.041v12.289l.315.288c.426.398.988.384 1.4-.04l.342-.33v-12.22h1.564c1.646 0 2.331-.151 2.55-.549a1.08 1.08 0 00-.205-1.303c-.315-.33-.398-.343-2.126-.343H55.26v-1.783c0-1.728-.014-1.81-.343-2.126-.411-.411-.877-.438-1.357-.055z" fill="#333"/><path d="M46.55 20.615c-2.592 1.22-2.66 4.814-.11 6.062 2.319 1.139 4.842-.466 4.842-3.072 0-2.441-2.523-4.032-4.731-2.99zm1.838 1.879c.878.316 1.084 1.591.33 2.18-1.235.96-2.798-.836-1.646-1.892.164-.15.425-.302.576-.343.15-.041.274-.068.288-.082.014 0 .206.055.452.137z" fill="#333"/><path d="M31.462 25.855c-5.267.782-9.436 2.866-13.016 6.487-1.59 1.605-1.604 1.7-.205 3.113 3.25 3.32 7.05 5.418 11.561 6.392 1.194.26 1.797.301 4.334.301 2.524 0 3.141-.04 4.334-.301 2.085-.453 3.36-.906 5.473-1.948 2.222-1.11 3.826-2.25 5.733-4.114 1.824-1.783 1.81-1.797-.083-3.635-3.181-3.1-6.843-5.047-11.205-5.993-1.001-.22-1.906-.288-3.909-.316-1.426-.027-2.784-.014-3.017.014zm6.35 2.372c2.51.494 5.226 1.591 7.228 2.936.905.603 2.73 2.084 3.14 2.55.261.289.261.302-.136.714-.686.727-2.538 2.167-3.703 2.866-2.017 1.235-4.403 2.126-6.817 2.565-1.7.315-5.075.315-6.775 0-3.717-.672-7.31-2.441-9.916-4.869l-1.029-.96.549-.576c.576-.617 2.372-2.03 3.305-2.633 2.304-1.482 5.678-2.593 8.764-2.908 1.111-.11 4.074.069 5.39.316z" fill="#FF8201"/><path d="M32.491 29.695c-1.975.713-3.127 2.51-2.99 4.622.082 1.207.467 2.085 1.29 2.894.96.974 1.673 1.248 3.209 1.248s2.25-.274 3.21-1.248c.973-.96 1.247-1.673 1.247-3.21 0-1.097-.055-1.412-.329-1.96-.425-.851-1.33-1.756-2.167-2.154-.878-.425-2.578-.508-3.47-.192zm2.825 2.25c1.482.918 1.454 3.209-.054 4.141-.7.425-1.825.425-2.524 0-1.344-.836-1.564-2.688-.453-3.799.275-.26.686-.535.933-.603.603-.192 1.55-.069 2.098.26zm-22.233 4.867l-.343.329v12.22h-1.563c-1.646 0-2.332.151-2.551.549-.234.439-.151.96.205 1.303.316.329.398.343 2.126.343h1.783v1.783c0 1.728.014 1.81.343 2.126.411.41.878.438 1.358.054.356-.274.356-.301.356-2.125v-1.838h5.061c4.897 0 5.061-.014 5.418-.288.466-.37.507-1.18.068-1.578-.274-.246-.603-.26-5.417-.301l-5.13-.042V37.06l-.315-.288c-.425-.398-.988-.384-1.399.04zm42.08 1.098c-2.112.576-3.648 2.167-4.087 4.265-.123.59-.206 1.728-.206 3.004v2.057l-8.846-.041c-9.902-.055-9.861-.055-10.903.878-.755.685-1.098 1.467-1.098 2.496 0 1.001.206 1.563.823 2.276.892 1.015 1.235 1.111 4.266 1.153l2.702.04-.124.563c-.343 1.481.686 3.237 2.167 3.744l.521.179-.04.946c-.056 1.042.123 1.632.726 2.441.357.467 1.564 1.166 1.989 1.166.206 0 .22.137.178 1.001-.055.878-.027 1.07.33 1.742.425.837 1.261 1.55 2.07 1.783.33.082 4.101.137 10.698.137h10.19l.33-.343c.59-.576.384-1.412-.398-1.714-.247-.082-3.785-.137-10.369-.137h-9.998l-.384-.33c-.302-.26-.384-.452-.384-.877 0-.988.22-1.097 2.359-1.152 1.838-.041 1.852-.041 2.18-.425.357-.412.426-.988.152-1.345-.412-.534-.714-.575-3.676-.466-2.414.082-2.894.055-3.237-.123a1.188 1.188 0 01-.22-2.003c.33-.26.563-.274 3.498-.274h3.14l.33-.343c.466-.452.453-1.07-.014-1.536l-.356-.356-4.348.068c-2.826.055-4.444.027-4.622-.055-.74-.398-.96-1.303-.453-1.947l.275-.357h4.457c3.648 0 4.526-.041 4.842-.206.63-.329.754-1.015.274-1.632l-.274-.356H32.876l-.398-.398c-.534-.549-.534-1.125 0-1.673l.398-.398h19.627l.274-.357c.274-.343.288-.535.288-3.401 0-2.88.014-3.059.33-3.717.164-.384.52-.878.78-1.11.508-.426 1.318-.837 1.441-.7.041.04.439 2.468.892 5.39.438 2.935.864 5.472.946 5.65.068.165.302.37.507.453.22.082 2.071.123 4.952.096l4.58-.041.261-.33c.33-.41.33-.987 0-1.398l-.26-.33-4.129-.04c-2.578-.028-4.128-.097-4.128-.179 0-.48-1.673-10.903-1.783-11.11-.316-.562-1.029-.671-2.29-.328z" fill="#333"/></svg>