<svg width="55" height="68" fill="none" xmlns="http://www.w3.org/2000/svg"><path d="M12.22.2c-.572.252-3.055 2.416-3.294 2.881-.24.478-.24 1.62.013 2.099.106.212 1.089 1.195 2.178 2.178 2.098 1.886 2.616 2.191 3.506 2.005.545-.12.903-.345 1.926-1.235 1.116-.983 1.288-1.328 1.235-2.577-.013-.371-2.656-4.462-3.214-4.98-.637-.584-1.54-.717-2.35-.372zm2.297 3.678c.69 1.05 1.262 1.992 1.262 2.098 0 .173-.957 1.09-1.421 1.368-.2.12-3.626-2.935-3.613-3.227 0-.2 2.152-2.125 2.378-2.125.08 0 .703.85 1.394 1.886zM40.744.148c-.186.08-.478.265-.65.425-.545.505-3.201 4.608-3.228 4.98-.066 1.209.146 1.607 1.395 2.696 1.381 1.195 2.191 1.408 3.24.863.465-.239 3.905-3.426 4.17-3.864.306-.478.333-1.647.067-2.165C45.486 2.605 43.002.44 42.418.2c-.532-.226-1.182-.24-1.674-.053zm2.019 2.789c.61.531 1.116 1.05 1.142 1.169.053.305-3.373 3.373-3.612 3.24a13.756 13.756 0 01-.81-.664c-.439-.398-.611-.637-.572-.81.093-.345 2.484-3.878 2.63-3.878.067 0 .611.425 1.222.943z" fill="#FF8201"/><path d="M26.415 4.546c-.226.173-1.315 1.62-2.404 3.228l-1.992 2.921-3.48 1.023c-3.001.877-3.519 1.076-3.878 1.421-.358.359-.411.518-.411 1.116v.69l2.244 2.922 2.245 2.909-.107 3.678c-.106 3.985-.066 4.21.625 4.662.73.478.982.438 4.143-.69 1.66-.585 3.081-1.063 3.135-1.063.292 0-.359 1.288-3.241 6.455l-3.121 5.564-2.457.04-2.457.027-.093-.492c-.173-.97-.664-1.594-1.54-1.965-.425-.173-1.368-.2-6.389-.2-5.763 0-5.91 0-6.255.28-.438.345-.478 1.048-.08 1.447.253.252.439.266 6.176.266 5.698 0 5.91.013 6.043.252.08.16.133 1.5.133 3.44 0 3.014.013 3.187.265 3.413.372.332 1.01.305 1.368-.053.266-.266.292-.439.332-2.338l.04-2.058h2.909c2.563 0 2.921-.027 3.16-.24.147-.119 1.753-2.921 3.586-6.202l3.334-5.976.876-3.187c.478-1.753.983-3.334 1.103-3.52.133-.186.478-.451.757-.584.451-.226.61-.24 1.42-.106 2.71.411 4.622 2.563 4.649 5.219.013 1.54-.491 3.4-1.633 6.03l-1.036 2.39-2.112.066c-1.846.054-2.165.107-2.404.32-.372.344-.372 1.048.013 1.407.28.252.439.266 5.246.266h4.967l.32-.332c.424-.412.424-.917 0-1.328-.306-.32-.386-.333-2.06-.333-.942 0-1.726-.053-1.726-.106s.385-1.01.863-2.125c2.271-5.286 2.032-8.938-.77-11.527l-.77-.718 2.23-2.948c2.232-2.948 2.232-2.962 2.232-3.652 0-.598-.053-.757-.412-1.103-.345-.358-.876-.557-3.864-1.434l-3.467-1.036-.451-.584c-.359-.492-.545-.611-.93-.638-.385-.026-.531.027-.757.32-.398.504-.358.783.266 1.739.624.956.265.797 5.007 2.178 1.328.385 2.417.744 2.417.784 0 .066-3.759 5.006-4.024 5.272-.133.133-.372.133-1.156-.04-1.673-.358-2.855-.08-3.918.89-.69.637-.97 1.222-1.447 2.988l-.359 1.341-3.387 1.196-3.373 1.195.08-3.599.093-3.6-.983-1.287c-.545-.704-1.514-1.98-2.165-2.816-.65-.85-1.155-1.567-1.129-1.594.027-.026 1.514-.478 3.294-.996 1.793-.53 3.333-.996 3.426-1.049.093-.053 1.05-1.381 2.112-2.948l2.006-2.922c.04-.04.12.04.185.173.226.398.691.757.997.757.478 0 .982-.492.982-.97 0-.544-.783-1.74-1.328-2.019a1.653 1.653 0 00-1.713.093z" fill="#333"/><path d="M5.51 7.612c-.876.213-1.301.797-1.925 2.577-.306.863-.598 1.766-.638 1.992-.16.784.399 1.846 1.169 2.244.438.226 4.94 1.249 5.511 1.249.638 0 1.475-.518 1.82-1.102.545-.957.916-2.298.85-3.082-.093-1.168-.385-1.42-3.108-2.749-1.315-.637-2.55-1.182-2.775-1.208-.213-.027-.625 0-.904.08zm2.723 2.882c1.05.518 1.952 1.023 2.032 1.13.08.132.04.424-.133.929-.425 1.248-.239 1.208-2.789.664-1.248-.266-2.297-.531-2.364-.585-.08-.08.678-2.576.903-2.935.146-.239.425-.146 2.351.797zm39.921-2.961c-.2.026-1.422.584-2.736 1.221-2.696 1.329-2.962 1.568-3.055 2.75-.066.77.306 2.111.85 3.068.345.597 1.182 1.102 1.86 1.102.663 0 5.1-1.036 5.55-1.302.227-.133.545-.438.705-.677.544-.797.531-1.209-.093-3.055-.306-.916-.704-1.886-.864-2.151-.425-.664-1.367-1.076-2.217-.956zm1.128 3.546c.266.81.452 1.5.399 1.553-.186.173-4.595 1.063-4.701.957-.16-.173-.651-1.488-.651-1.767 0-.199.438-.491 1.965-1.261 1.076-.545 2.072-.97 2.218-.957.213.027.372.32.77 1.475zM7.144 17.465c-2.378.172-2.936.332-3.414.983-.557.743-.597 1.235-.225 3.12.411 2.086.597 2.524 1.275 2.975.81.532 1.407.465 4.117-.411 3.24-1.05 3.652-1.435 3.52-3.28-.16-2.02-.559-2.843-1.621-3.334-.598-.279-.611-.279-3.652-.053zm3.147 2.59c.345 1.46.412 1.394-2.085 2.204-1.7.545-2.231.677-2.337.545-.24-.253-.704-3.002-.532-3.121.146-.093 3.706-.399 4.396-.372.372.013.412.066.558.744zm33.641-2.575c-.491.212-1.01.65-1.209 1.01-.185.358-.53 2.11-.53 2.775-.027 1.434.557 1.886 3.572 2.869 2.71.876 3.32.93 4.117.411.69-.465.903-.956 1.288-3.001.345-1.86.306-2.364-.212-3.095-.465-.65-1.063-.81-3.64-.996-2.974-.212-2.828-.212-3.386.027zm3.586 1.992c.916.053 1.726.133 1.806.2.173.132-.292 2.881-.531 3.133-.213.24-4.516-1.168-4.582-1.487-.04-.24.226-1.766.345-1.979.04-.053.346-.08.69-.026.333.04 1.355.106 2.272.159z" fill="#FF8201"/><path d="M44.106 35.488c-.425.213-.611.837-.372 1.302.106.2.292.398.398.452.12.04 1.276.08 2.577.08 1.687 0 2.537.052 3.015.198 3.068.917 3.068 5.459 0 6.375-.478.146-1.342.2-3.134.2-2.418 0-2.484.013-2.763.305-.412.438-.385 1.062.053 1.408.332.265.518.279 3.134.279 3.015 0 3.4.066 4.13.77.89.837 1.17 2.284.638 3.333-.345.664-1.075 1.289-1.7 1.461-.292.08-1.859.146-3.639.146-3.094 0-3.134 0-3.413.306-.412.438-.385 1.062.053 1.408.332.265.532.278 3.028.278 2.949 0 3.36.093 4.09.877 1.01 1.089.784 2.922-.464 3.745l-.531.359-3.759.066c-3.44.067-3.772.093-4.024.319-.332.292-.372.97-.093 1.355.173.239.425.252 3.294.318 3.307.08 3.546.12 4.17.824.704.757.917 1.899.531 2.802-.226.558-1.009 1.235-1.633 1.421-.359.106-3.121.133-9.138.106l-8.632-.04-.863-.411c-.478-.226-1.315-.81-1.873-1.288l-1.01-.89H15.248v-6.707c0-5.645-.027-6.787-.2-7.092-.305-.611-1.062-.744-1.527-.279-.265.266-.265.438-.265 8.247 0 5.246-.054 8.062-.133 8.234-.133.24-.346.253-6.03.253H1.21l-.28.305c-.384.412-.384 1.023.014 1.395.306.292.332.292 6.309.292 4.754 0 6.095-.04 6.44-.186.771-.319 1.555-1.474 1.555-2.31 0-.12 1.102-.16 5.06-.16h5.06l.876.73c1.103.917 2.152 1.448 3.387 1.727.837.186 2.085.199 9.721.172l8.766-.04.73-.345c2.484-1.168 3.413-4.29 1.966-6.574l-.399-.637.306-.213c.704-.451 1.169-.97 1.593-1.753.425-.77.452-.93.452-2.032 0-1.261-.279-2.178-.877-2.802l-.265-.279.916-.916c1.209-1.209 1.528-2.019 1.461-3.64-.053-1.354-.465-2.323-1.355-3.226l-.57-.572.57-.624a6.6 6.6 0 00.944-1.394c.345-.69.371-.89.371-2.218 0-1.328-.026-1.527-.371-2.218-.758-1.54-2.179-2.683-3.786-3.015-.89-.186-5.299-.172-5.697.013z" fill="#333"/><path d="M4.768 62.502c-.386.478-.346.796.12 1.275.398.385.437.398 1.46.345 1.209-.053 1.634-.319 1.634-1.023 0-.77-.32-.943-1.714-.943-1.168 0-1.248.014-1.5.346z" fill="#333"/></svg>