<svg width="65" height="69" fill="none" xmlns="http://www.w3.org/2000/svg"><path d="M31.926.868c-.684.262-1.05.881-2.468 4.142-.812 1.857-1.497 3.384-1.497 3.398-.015.014-1.974.124-4.347.22-4.633.207-4.824.234-5.398.991-.35.454-.318 1.266.048 1.706.175.193 1.656 1.293 3.312 2.45 1.64 1.155 3.09 2.173 3.217 2.283.175.151.047.73-.908 3.756-.796 2.49-1.099 3.701-1.035 4.004.127.633 1.035 1.28 1.815 1.28.653 0 1.02-.18 5.637-2.793l2.357-1.335 3.376 1.899c4.012 2.27 3.917 2.229 4.633 2.229.717 0 1.64-.66 1.768-1.28.063-.303-.24-1.513-1.035-4.004-.956-3.027-1.083-3.605-.908-3.756.127-.11 1.576-1.128 3.216-2.284 1.656-1.156 3.137-2.256 3.313-2.449.589-.702.238-1.967-.67-2.339-.334-.124-6.177-.495-8.534-.536-.478 0-.478 0-1.975-3.44-1.082-2.477-1.624-3.536-1.942-3.798-.462-.385-1.433-.55-1.975-.344zm1.831 5.614c1.402 3.233 1.657 3.687 2.278 3.935.35.138 1.544.248 3.996.358 1.927.082 3.52.165 3.551.192.032.028-.971.757-2.213 1.624-3.042 2.105-3.599 2.545-3.71 3.013-.08.33.78 3.454 1.767 6.357.048.151-1.114-.427-2.977-1.473-3.137-1.774-3.535-1.94-4.172-1.802-.207.041-1.752.853-3.456 1.802-1.688.95-3.025 1.652-2.993 1.555.047-.096.493-1.513 1.003-3.15l.923-2.973-.302-.536c-.223-.385-1.067-1.073-3.042-2.463-1.512-1.045-2.722-1.94-2.69-1.954.015-.027 1.608-.11 3.534-.192 2.453-.11 3.647-.22 3.997-.358.621-.248.876-.702 2.277-3.935.542-1.266 1.051-2.298 1.115-2.298.063 0 .573 1.032 1.114 2.298z" fill="#FF8201"/><path d="M5.272 13.623c-.43.467-.43.921.032 1.334.445.44 8.964 4.678 9.522 4.747.27.027.557-.055.828-.275.589-.44.684-.936.286-1.376-.19-.193-2.34-1.349-4.793-2.573-4.872-2.422-5.254-2.545-5.875-1.857zm48.866 1.842c-4.347 2.174-5.095 2.642-5.095 3.178 0 .386.844 1.087 1.306 1.087.461 0 9.156-4.292 9.65-4.76.445-.427.445-.88.015-1.348-.637-.702-1.05-.565-5.876 1.843zM1.752 26.43c-.86.275-1.098 1.293-.445 1.83.334.261.525.275 5.86.275h5.525l.334-.316c.43-.4.446-1.06.048-1.486l-.303-.33-5.398-.028c-2.961-.014-5.493.014-5.62.055zm50.846.041c-.749.262-.924 1.266-.319 1.762.366.302.446.302 5.86.302 5.318 0 5.51-.014 5.844-.275.477-.385.477-1.238.016-1.596-.319-.248-.67-.261-5.7-.289-2.947-.014-5.51.028-5.701.096zM30.541 31.7c-6.926 1.087-11.385 7.14-9.601 13.002.637 2.064 2.325 4.238 4.33 5.559l1.131.756-1.146.317c-1.72.509-4.156 1.596-5.748 2.586-5.048 3.124-8.392 7.83-9.3 13.099-.207 1.128-.063 1.568.574 1.816.541.22 43.184.22 43.725 0 .637-.248.78-.688.573-1.816-1.258-7.251-7.15-13.374-15.095-15.685-1.051-.303-1.13-.358-.828-.495.748-.358 2.293-1.597 3.057-2.463 2.675-3.041 3.249-6.921 1.56-10.443-1.369-2.834-4.171-4.995-7.706-5.958-1.242-.33-4.22-.481-5.526-.275zm5.16 2.518c1.576.495 2.738 1.156 3.837 2.16 2.277 2.091 3.153 4.898 2.34 7.622-.445 1.541-1.162 2.6-2.547 3.812-3.774 3.288-9.57 3.274-13.375-.014-1.386-1.184-2.102-2.257-2.548-3.798-1.338-4.499 2.038-9.094 7.404-10.099 1.178-.234 3.71-.068 4.889.317zm1.242 18.657c6.146 1.224 11.21 4.664 13.853 9.438.637 1.17 1.37 3.013 1.529 3.921l.111.55H12.851l.111-.55c.16-.908.892-2.751 1.529-3.92 2.882-5.188 8.567-8.779 15.366-9.7 1.512-.193 5.51-.056 7.086.26zM9.84 37.575c-4.761 2.38-5.095 2.614-4.825 3.344.16.426.717.825 1.163.825.414 0 9.41-4.389 9.76-4.76.351-.358.255-1.156-.159-1.445-.732-.51-1.13-.372-5.939 2.036zm39.666-2.036c-.478.33-.51 1.142-.048 1.513.59.482 9.235 4.692 9.634 4.692.461 0 1.019-.399 1.178-.825.27-.73-.064-.963-4.84-3.357-4.81-2.395-5.208-2.532-5.924-2.023z" fill="#333"/></svg>