<svg width="19" height="19" fill="none" xmlns="http://www.w3.org/2000/svg"><path d="M17.625 5.251h-4.612c.43-.19.83-.443 1.184-.75A2.394 2.394 0 0015 2.761a2.684 2.684 0 00-2.76-2.76 2.393 2.393 0 00-1.74.803c-.554.625-.903 1.44-1.125 2.22-.22-.78-.57-1.593-1.125-2.22A2.393 2.393 0 006.51 0a2.683 2.683 0 00-2.76 2.76 2.393 2.393 0 00.803 1.74c.355.307.754.56 1.184.75H1.125A1.125 1.125 0 000 6.376v3a1.125 1.125 0 001.125 1.125H1.5v6.375a1.125 1.125 0 001.125 1.125h13.5a1.125 1.125 0 001.125-1.125v-6.375h.375a1.125 1.125 0 001.125-1.125v-3a1.125 1.125 0 00-1.125-1.125zm-6.563-3.95a1.65 1.65 0 011.2-.55h.058a1.933 1.933 0 011.93 1.988 1.651 1.651 0 01-.55 1.2c-1.133 1.003-3.1 1.238-3.937 1.292.058-.83.293-2.792 1.3-3.93zM4.5 2.739A1.933 1.933 0 016.43.75h.058a1.65 1.65 0 011.2.55C8.691 2.434 8.925 4.4 8.98 5.238c-.833-.054-2.8-.29-3.937-1.293A1.65 1.65 0 014.5 2.74zM.75 9.376v-3a.375.375 0 01.375-.375H9v3.75H1.125a.375.375 0 01-.375-.375zm1.5 7.5v-6.375H9v6.75H2.625a.375.375 0 01-.375-.375zm14.25 0a.375.375 0 01-.375.375H9.75v-6.75h6.75v6.375zm1.5-7.5a.375.375 0 01-.375.375H9.75v-3.75h7.875a.375.375 0 01.375.375v3z" fill="#2FA9B5"/></svg>