<svg width="22" height="12" fill="none" xmlns="http://www.w3.org/2000/svg"><path d="M1.155.267a.933.933 0 00-.517.427L.524.886v3.609l.11.185c.058.102.218.283.353.398.349.307.48.582.48 1.017 0 .455-.12.697-.546 1.12-.233.229-.332.36-.369.483-.07.234-.07 3.404 0 3.633.07.23.324.505.558.595.185.07.599.074 9.891.074 8.059 0 9.724-.008 9.855-.057a1 1 0 00.546-.517c.098-.205.098-.213.098-1.882 0-1.182-.016-1.727-.05-1.846-.036-.123-.134-.254-.368-.484-.427-.422-.546-.664-.546-1.12 0-.434.131-.709.48-1.016.135-.115.295-.296.353-.398l.11-.185V.878l-.122-.2a1.11 1.11 0 00-.325-.325l-.2-.123-9.765-.008c-7.91-.008-9.793 0-9.912.045zm19.61.677l.12.119V2.67c0 1.095-.017 1.633-.045 1.69-.025.045-.16.193-.304.324-.66.62-.82 1.558-.398 2.35.058.115.255.352.427.525l.32.315v1.624c0 1.087-.017 1.653-.045 1.71-.111.206.385.197-9.838.197-10.224 0-9.728.009-9.839-.196-.028-.058-.045-.624-.045-1.71V7.873l.32-.315c.172-.173.37-.41.427-.525a1.933 1.933 0 00-.398-2.35 2.22 2.22 0 01-.304-.324c-.028-.058-.045-.595-.045-1.69V1.063l.12-.12.118-.118h19.291l.119.119z" fill="#333"/><path d="M10.813 1.616c-.103.09-.115.127-.131.443-.025.574.123.82.434.71.16-.058.226-.28.205-.71-.016-.316-.028-.352-.13-.443a.43.43 0 00-.19-.094.425.425 0 00-.188.094zm-6.373.611a1.32 1.32 0 00-.353.259c-.324.32-.381.685-.172 1.12.09.188.357.414.828.697l.287.172h-.676c-.763 0-.931.045-1.108.29l-.098.14-.012 2.129c-.009 2.087-.009 2.128.073 2.304.05.099.148.214.222.263.135.082.193.082 2.633.082 2.42 0 2.501-.004 2.632-.082a.754.754 0 00.214-.213c.082-.132.082-.197.074-2.33-.013-2.12-.017-2.198-.095-2.304-.176-.23-.27-.259-1.037-.28l-.71-.02.32-.192c.648-.386.87-.669.874-1.104 0-.656-.558-1.09-1.198-.939-.176.045-.258.099-.443.283-.127.127-.32.382-.426.566l-.197.336-.197-.324c-.27-.45-.43-.64-.64-.762a1.12 1.12 0 00-.795-.09zm.467.611c.131.062.365.394.64.91l.217.407-.213-.107c-.447-.23-.902-.52-1.025-.66-.16-.185-.164-.32-.008-.476.13-.127.225-.147.39-.074zm2.645.017c.18.09.23.328.107.5-.107.152-1.25.85-1.25.763 0-.053.352-.693.512-.935.25-.377.398-.451.631-.328zm.825 2.748v.512h-.21c-.176 0-.225.02-.332.123-.098.103-.119.148-.098.238.045.176.168.254.418.254h.222v2.338H3.742V6.73h1.559c1.505 0 1.562-.004 1.64-.082.103-.102.107-.29.004-.414l-.078-.098-1.562-.013-1.563-.012V5.09h4.635v.513zm5.577-2.715c-.381.106-.668.36-.84.738-.099.209-.111.283-.095.553.033.702.517 1.198 1.202 1.23.545.03.976-.225 1.218-.717.11-.23.131-.316.131-.562 0-.836-.82-1.468-1.616-1.242zm.587.619c.52.221.561.964.065 1.214a.662.662 0 01-.98-.595c0-.27.12-.46.37-.586.208-.103.356-.115.545-.033zm3.563-.644c-.028.012-1.11 1.382-2.407 3.051-2.518 3.236-2.473 3.162-2.272 3.363.058.057.123.078.234.07.148-.013.197-.07 2.276-2.74 2.698-3.46 2.612-3.35 2.612-3.47 0-.196-.25-.352-.443-.274zm-7.291.722c-.103.09-.115.127-.131.443-.025.574.123.82.434.71.16-.058.226-.28.205-.71-.016-.316-.028-.353-.13-.443a.42.42 0 00-.19-.094.425.425 0 00-.188.094zm0 1.968c-.103.09-.115.127-.131.443-.025.574.123.82.434.71.16-.058.226-.28.205-.71-.016-.316-.028-.352-.13-.443a.43.43 0 00-.19-.094.425.425 0 00-.188.094zm6.459 1.272c-.632.176-1.005.684-.972 1.32.037.705.578 1.21 1.296 1.21a1.3 1.3 0 001.169-.775c.13-.287.123-.734-.017-1.03-.27-.566-.914-.881-1.476-.725zm.558.64c.307.135.475.438.414.73-.136.614-.89.75-1.243.22-.176-.258-.086-.713.176-.885.238-.156.419-.172.652-.066zm-6.93.003c-.177.07-.206.156-.206.624 0 .422.004.455.098.529a.41.41 0 00.21.078.41.41 0 00.209-.078c.094-.074.098-.107.098-.533 0-.398-.008-.464-.082-.533-.102-.099-.221-.132-.328-.087zm-.128 2.055c-.066.074-.078.152-.078.529 0 .52.05.615.308.615s.307-.094.307-.615c0-.52-.049-.615-.307-.615-.103 0-.177.029-.23.086z" fill="#333"/></svg>