<svg width="36" height="32" viewBox="0 0 36 32" fill="none" xmlns="http://www.w3.org/2000/svg">
<path d="M23.2596 5C21.0498 5 19.0885 5.87228 17.7597 7.37155C16.431 5.87228 14.4697 5 12.2598 5C10.3351 5.00233 8.48991 5.76795 7.12893 7.12893C5.76795 8.48991 5.00233 10.3351 5 12.2598C5 20.2171 16.6389 26.5749 17.1339 26.8422C17.3262 26.9458 17.5413 27 17.7597 27C17.9782 27 18.1933 26.9458 18.3856 26.8422C18.8806 26.5749 30.5195 20.2171 30.5195 12.2598C30.5171 10.3351 29.7515 8.48991 28.3905 7.12893C27.0296 5.76795 25.1843 5.00233 23.2596 5ZM22.6557 20.6593C21.1237 21.9592 19.4861 23.1293 17.7597 24.1572C16.0334 23.1293 14.3957 21.9592 12.8637 20.6593C10.4801 18.6144 7.63994 15.496 7.63994 12.2598C7.63994 11.0346 8.12668 9.85948 8.99308 8.99308C9.85948 8.12668 11.0346 7.63994 12.2598 7.63994C14.2178 7.63994 15.8568 8.67392 16.5377 10.3393C16.6368 10.5821 16.8059 10.7898 17.0236 10.9361C17.2412 11.0823 17.4975 11.1604 17.7597 11.1604C18.022 11.1604 18.2782 11.0823 18.4959 10.9361C18.7135 10.7898 18.8827 10.5821 18.9818 10.3393C19.6627 8.67392 21.3017 7.63994 23.2596 7.63994C24.4849 7.63994 25.66 8.12668 26.5263 8.99308C27.3928 9.85948 27.8795 11.0346 27.8795 12.2598C27.8795 15.496 25.0394 18.6144 22.6557 20.6593Z" fill="#333333"/>
</svg>
