<svg width="85" height="85" fill="none" xmlns="http://www.w3.org/2000/svg"><g clip-path="url(#clip0_8799_54492)"><path d="M17.773 11h5.285c.392.11.748.434.749.866.026.915.048 1.832.22 2.734 4.713.002 9.427.002 14.14 0 .173-.905.195-1.827.224-2.745.006-.438.375-.771.783-.855h5.274c.433.118.783.516.745.982 0 1.778-.174 3.57-.677 5.281a15.29 15.29 0 01-2.198 4.56c-1.325 1.902-3.044 3.497-4.897 4.877 1.499 1.26 2.868 2.693 3.98 4.31.298.413.125.973-.24 1.28-.42.222-.989.17-1.27-.244-.594-.806-1.219-1.592-1.918-2.312a21.795 21.795 0 00-2.14-1.946c-.954.617-1.948 1.166-2.944 1.713a21.383 21.383 0 012.345 1.92c2.494 2.38 4.227 5.558 4.797 8.965.556 3.042-.19 6.2-1.581 8.918a16.497 16.497 0 01-4.215 5.148c-2.263 1.851-4.879 3.191-7.389 4.666-2.976 1.987-5.696 4.621-7.007 8.017-.63 1.596-.91 3.31-.977 5.02 1.042-.002 2.084.003 3.128-.004.045-2.343.79-4.682 2.24-6.538 1.282-1.673 2.95-3.008 4.71-4.149 1.803-1.194 3.812-2.04 5.583-3.287 3.253-2.21 5.926-5.319 7.42-8.973.84-2.05 1.337-4.247 1.404-6.463.02-2.16-.427-4.306-1.164-6.33-.127-.386-.364-.755-.355-1.172.018-.342.266-.597.532-.779.28-.058.592-.1.845.064.331.177.44.562.574.885 1.187 3.092 1.753 6.49 1.19 9.78-.77 5.116-3.577 9.831-7.55 13.116 2.852 2.098 5.39 4.803 6.665 8.157.808 2.085 1.117 4.335 1.108 6.562.036.458-.305.833-.717.976H39.18c-.413-.082-.787-.42-.79-.863-.028-.915-.047-1.834-.221-2.737-4.714-.002-9.427-.002-14.14 0-.175.903-.196 1.824-.223 2.742-.002.424-.351.726-.721.858h-5.297a1.028 1.028 0 01-.788-.773v-1.011c.084-1.6.282-3.204.76-4.737.55-1.81 1.46-3.502 2.621-4.992 1.25-1.605 2.776-2.968 4.4-4.183-1.438-1.212-2.76-2.575-3.843-4.114-.29-.411-.12-.965.242-1.268.417-.237.992-.173 1.273.238.552.73 1.126 1.442 1.765 2.098a22.41 22.41 0 002.178 1.977c.978-.574 1.964-1.132 2.933-1.72-.835-.603-1.652-1.236-2.388-1.958-2.932-2.804-4.812-6.732-4.964-10.802-.024-2.631.745-5.24 2.023-7.528 1.45-2.588 3.636-4.713 6.138-6.283 1.069-.687 2.223-1.223 3.317-1.868 1.923-1.125 3.767-2.415 5.355-3.985 1.346-1.327 2.5-2.87 3.276-4.6.802-1.77 1.171-3.71 1.247-5.645-1.046.007-2.091-.018-3.136.014-.033 2.139-.656 4.281-1.883 6.043-1.419 2.053-3.422 3.618-5.52 4.926-1.454.92-3.03 1.627-4.471 2.565-3.442 2.175-6.316 5.314-7.93 9.073-1.219 2.858-1.851 6.041-1.387 9.14.218 1.517.604 3.01 1.182 4.43.13.35.36.71.266 1.1-.052.286-.28.483-.5.65-.475.17-1.065-.017-1.247-.512-.993-2.24-1.536-4.666-1.707-7.107v-1.325a21.088 21.088 0 014.735-12.077c.904-1.13 1.957-2.128 3.04-3.082-3.095-2.251-5.799-5.268-6.957-8.978-.518-1.587-.73-3.255-.818-4.916v-1.012c.087-.388.386-.688.773-.778zm1.089 1.847c.05 1.205.195 2.41.508 3.578.73 2.849 2.488 5.338 4.66 7.28a25.264 25.264 0 002.288 1.817c.92-.675 1.919-1.228 2.893-1.815-.859-.554-1.702-1.137-2.485-1.793-1.63-1.337-3.07-2.978-3.89-4.94-.558-1.304-.787-2.723-.854-4.133-1.04.01-2.08.001-3.12.006zm5.739 3.601c.492 1.11 1.224 2.099 2.075 2.957 1.305 1.31 2.84 2.37 4.436 3.292 2.58-1.546 5.209-3.422 6.48-6.248-4.33-.004-8.661-.003-12.991 0zm3.728 16.22c-2.472 2.319-4.12 5.517-4.47 8.897 4.824.037 9.65.009 14.475.015a13.829 13.829 0 00-1.38-4.749c-2.385 0-4.771.002-7.157 0-.541.05-1.044-.446-.986-.99.027-.492.496-.889.986-.852 2.021-.007 4.043 0 6.065-.003-1.254-1.8-2.918-3.285-4.76-4.462a17.67 17.67 0 00-2.773 2.143zm-4.464 10.76c.16 1.649.646 3.257 1.377 4.74 2.424.005 4.848-.008 7.272.006.545 0 .984.575.852 1.102-.082.45-.53.767-.979.736-2.018.006-4.035-.001-6.053.002 1.26 1.798 2.919 3.294 4.77 4.462a18.889 18.889 0 002.696-2.084c2.506-2.326 4.194-5.55 4.531-8.964-4.822-.002-9.644-.003-14.466 0zm9.109 17.842c.854.582 1.719 1.152 2.509 1.822 1.502 1.24 2.844 2.727 3.683 4.5.679 1.416.991 2.987 1.035 4.551 1.044.025 2.089.005 3.133.011-.051-1.239-.204-2.478-.534-3.674-.744-2.815-2.491-5.274-4.645-7.194-.71-.653-1.483-1.225-2.248-1.807-.953.636-1.917 1.258-2.933 1.79zm-8.372 7.282c4.332.002 8.664.002 12.995 0-1.279-2.826-3.906-4.702-6.486-6.251-2.602 1.524-5.23 3.423-6.51 6.25zm32.529-38.076c2.766-1.924 6.215-2.821 9.57-2.509 3.717.31 7.265 2.14 9.705 4.958 2.18 2.48 3.45 5.718 3.593 9.014v.89c-.076 3.317-1.316 6.594-3.477 9.114-2.537 3.012-6.335 4.922-10.27 5.127-3.59.225-7.237-.956-10.023-3.226-2.67-2.147-4.556-5.263-5.164-8.64-.054-.128-.012-.339-.168-.4-1.02-.52-2.07-.977-3.09-1.499-.62-.304-.624-1.297-.003-1.602.992-.505 2.008-.961 3.007-1.45.148-.043.213-.168.227-.313a14.459 14.459 0 012.351-5.715c.28-.433.886-.478 1.303-.222.376.33.489.915.171 1.325a12.749 12.749 0 00-2.07 5.333c-.041.333-.139.705-.453.883-.617.363-1.302.596-1.914.971.63.33 1.292.594 1.911.944.316.176.413.547.453.88.458 3.316 2.312 6.41 5.013 8.383 2.446 1.854 5.591 2.746 8.648 2.484 3.849-.288 7.483-2.463 9.591-5.69a12.708 12.708 0 002.107-7.26c-.047-2.662-.95-5.311-2.578-7.422-1.885-2.54-4.766-4.314-7.876-4.873-3.33-.616-6.903.146-9.652 2.136-.276.192-.561.445-.923.413-.27-.001-.492-.167-.693-.328-.115-.234-.234-.493-.168-.76.073-.463.53-.694.872-.946z" fill="#2FA9B5"/><path d="M64.518 33.416a.96.96 0 011.053-.001c1.08.628 2.151 1.272 3.229 1.904.58-.26 1.1-.674 1.723-.823.775-.095 1.309.932.78 1.509-.46.407-1.06.616-1.594.911a96.601 96.601 0 00-.002 3.158c1.081.614 2.146 1.256 3.216 1.889.3.162.506.48.504.826.008 1.382.003 2.764.002 4.147a.978.978 0 01-.514.898c-1.191.703-2.38 1.407-3.574 2.106-.302.2-.71.25-1.028.055-1.105-.63-2.18-1.31-3.296-1.922-.915.576-1.859 1.104-2.786 1.658-.058.585.183 1.31-.296 1.771-.456.463-1.33.233-1.505-.39-.09-.455-.028-.924-.046-1.384-1.013-.602-2.028-1.2-3.045-1.796-.34-.174-.675-.462-.679-.877-.018-1.397-.005-2.798-.006-4.197a.968.968 0 01.53-.91c1.067-.627 2.132-1.255 3.198-1.883.013-1.239-.01-2.478.01-3.717-.002-.327.2-.624.479-.781 1.21-.725 2.431-1.435 3.647-2.151zm-2.295 3.503c.017 1.047.003 2.093.008 3.14.931.551 1.871 1.088 2.791 1.658.955-.533 1.89-1.103 2.83-1.66-.007-1.056.012-2.113-.01-3.169-.93-.54-1.864-1.08-2.781-1.641-.955.54-1.899 1.103-2.838 1.672zM58.5 43.31c-.002 1.057-.01 2.115.005 3.172.938.54 1.869 1.097 2.801 1.648.936-.541 1.856-1.108 2.797-1.635.026-1.066.021-2.133.003-3.197-.94-.537-1.864-1.098-2.8-1.64-.933.552-1.866 1.108-2.806 1.652zm10.264-1.651c-.931.567-1.882 1.1-2.809 1.673.019 1.045.006 2.09.008 3.136.935.556 1.875 1.106 2.812 1.662.937-.551 1.873-1.102 2.808-1.655.003-1.054.002-2.108 0-3.161-.94-.553-1.873-1.115-2.819-1.655z" fill="#2FA9B5"/><path d="M18.863 12.85c1.04-.005 2.08.005 3.12-.006.067 1.41.296 2.829.855 4.133.82 1.962 2.259 3.603 3.89 4.94a36.146 36.146 0 00-2.696 1.79c-2.172-1.941-3.93-4.43-4.66-7.279-.313-1.168-.458-2.373-.509-3.578zm19.112 16.884c.699.72 1.324 1.506 1.918 2.312.28.414.85.467 1.27.245.434.704.84 1.425 1.199 2.17-.266.182-.515.436-.532.779-.01.417.228.786.354 1.17.737 2.025 1.185 4.172 1.164 6.332-.066 2.216-.563 4.413-1.404 6.462-1.493 3.655-4.166 6.764-7.42 8.974-1.77 1.246-3.78 2.093-5.583 3.287-1.76 1.14-3.427 2.475-4.71 4.149-1.449 1.855-2.194 4.194-2.24 6.537-1.043.008-2.085.003-3.128.004.067-1.71.347-3.423.977-5.02 1.312-3.395 4.031-6.03 7.008-8.017 2.51-1.474 5.126-2.814 7.389-4.666a16.498 16.498 0 004.214-5.147c1.392-2.72 2.137-5.877 1.581-8.919-.57-3.407-2.302-6.584-4.796-8.965a41.888 41.888 0 002.739-1.687zm30.789 11.93c.947.54 1.88 1.103 2.82 1.655a876.54 876.54 0 010 3.161c-.936.553-1.872 1.104-2.809 1.655-.937-.556-1.877-1.106-2.813-1.662 0-1.045.011-2.09-.007-3.136.927-.573 1.878-1.106 2.81-1.673z" fill="#F1FAF9"/><path d="M40.197 12.86c1.045-.031 2.09-.007 3.136-.014-.076 1.935-.445 3.875-1.247 5.645-.777 1.73-1.93 3.273-3.276 4.6-1.588 1.57-3.431 2.86-5.355 3.985-1.093.645-2.248 1.181-3.317 1.868-2.502 1.57-4.688 3.695-6.138 6.283-1.278 2.289-2.047 4.897-2.023 7.528.152 4.07 2.032 7.998 4.964 10.802-.902.576-1.827 1.115-2.723 1.7-.638-.655-1.213-1.368-1.764-2.097-.282-.411-.857-.475-1.274-.238a21.976 21.976 0 01-1.227-2.135c.22-.167.45-.364.501-.65.094-.39-.136-.75-.266-1.1a18.828 18.828 0 01-1.182-4.429c-.464-3.1.168-6.283 1.388-9.141 1.613-3.76 4.487-6.898 7.93-9.072 1.441-.94 3.016-1.645 4.47-2.566 2.099-1.308 4.102-2.873 5.52-4.925 1.227-1.762 1.85-3.905 1.883-6.043z" fill="#F1FAF9"/><path d="M62.223 36.914c.938-.568 1.882-1.132 2.837-1.672.918.561 1.85 1.102 2.782 1.642.021 1.055.003 2.112.009 3.17-.94.555-1.874 1.125-2.829 1.658-.92-.57-1.86-1.106-2.792-1.657-.005-1.048.01-2.093-.007-3.14z" fill="#2FA9B5"/><path d="M38.157 61.29c2.153 1.92 3.9 4.378 4.645 7.194.33 1.196.482 2.435.534 3.674-1.045-.006-2.09.013-3.134-.011-.043-1.564-.356-3.136-1.035-4.552-.839-1.773-2.18-3.26-3.683-4.5.904-.582 1.826-1.14 2.673-1.806z" fill="#F1FAF9"/><path d="M58.044 32.094c2.75-1.99 6.323-2.751 9.652-2.136 3.11.56 5.991 2.333 7.876 4.874.074.48.213.946.355 1.41.769 2.815.605 5.88-.473 8.594a13.742 13.742 0 01-4.048 5.56c-3.16 2.638-7.555 3.681-11.569 2.793-.688-.12-1.33-.438-2.033-.47-2.7-1.974-4.555-5.067-5.013-8.382-.039-.333-.136-.705-.452-.88-.62-.35-1.281-.615-1.911-.945.611-.375 1.297-.608 1.913-.97.315-.179.412-.55.453-.884.267-1.906.995-3.74 2.07-5.333.318-.41.205-.995-.17-1.325a15.545 15.545 0 011.735-1.821c.2.161.423.327.692.328.362.032.648-.221.923-.413zm6.474 1.32c-1.216.716-2.437 1.426-3.647 2.151-.28.158-.481.454-.479.782-.02 1.239.002 2.478-.01 3.717-1.067.627-2.13 1.256-3.198 1.882a.969.969 0 00-.53.91c.001 1.4-.012 2.8.006 4.198.004.415.338.703.68.876a688.45 688.45 0 013.043 1.797c.019.46-.044.929.047 1.383.175.623 1.049.854 1.505.39.479-.46.238-1.185.295-1.771.928-.554 1.872-1.081 2.787-1.657 1.115.611 2.19 1.292 3.296 1.922.317.194.726.144 1.028-.056 1.194-.699 2.383-1.403 3.574-2.105a.978.978 0 00.514-.898c.001-1.383.006-2.765-.003-4.147a.947.947 0 00-.503-.827c-1.07-.632-2.135-1.275-3.216-1.889a96.607 96.607 0 01.002-3.157c.533-.295 1.135-.505 1.594-.912.529-.577-.005-1.603-.78-1.508-.623.149-1.144.562-1.723.823-1.078-.633-2.148-1.276-3.229-1.905a.96.96 0 00-1.053.001z" fill="#fff"/><path d="M58.5 43.309c.94-.544 1.873-1.1 2.806-1.653.936.543 1.86 1.104 2.8 1.64a76.902 76.902 0 01-.003 3.197c-.941.528-1.861 1.094-2.797 1.636-.932-.552-1.862-1.108-2.801-1.648-.015-1.057-.007-2.115-.005-3.172z" fill="#EFF3F5"/><path d="M75.57 34.832c1.629 2.11 2.532 4.76 2.579 7.422a12.708 12.708 0 01-2.107 7.26c-2.108 3.226-5.743 5.402-9.591 5.69-3.057.262-6.202-.63-8.648-2.485.702.032 1.345.351 2.033.47 4.013.889 8.409-.155 11.568-2.793a13.74 13.74 0 004.049-5.56 13.695 13.695 0 00.472-8.594c-.141-.464-.28-.93-.354-1.41z" fill="#F1FAF9"/></g><path d="M12.975 26.679c-.821-.523-.6-1.92.342-2.164.82-.302 1.752.5 1.577 1.357-.1.866-1.228 1.343-1.919.807zm29.481-.291c-.653-.609-.333-1.83.54-2.033.869-.288 1.802.63 1.512 1.503-.203.884-1.449 1.207-2.052.53zm28.382-.826c-.666-.58-.405-1.79.442-2.041.828-.335 1.795.48 1.608 1.352-.107.936-1.398 1.373-2.05.69zM1.006 60.695c-.827-.49-.671-1.872.246-2.164.81-.347 1.792.418 1.644 1.291-.068.872-1.182 1.386-1.89.873zm57.178 11.417c2.156-.55 4.527.999 4.904 3.185.448 1.987-.857 4.15-2.813 4.704-1.429.456-3.09.024-4.12-1.066-1.01-1.016-1.403-2.587-.998-3.96.389-1.413 1.599-2.546 3.027-2.863zm.17 1.65c-1.251.362-2.04 1.83-1.603 3.068.359 1.222 1.773 2.003 2.997 1.622 1.241-.328 2.07-1.732 1.703-2.974-.309-1.308-1.82-2.168-3.096-1.716z" fill="#2FA9B5"/><defs><clipPath id="clip0_8799_54492"><path fill="#fff" transform="translate(17 11)" d="M0 0h63v63H0z"/></clipPath></defs></svg>