<svg width="22" height="22" fill="none" xmlns="http://www.w3.org/2000/svg"><path d="M10.053.525c-2.03.198-3.903.945-5.546 2.21-.801.617-1.84 1.776-2.44 2.72-.26.407-.765 1.443-.946 1.936a12.77 12.77 0 00-.525 2.05c-.128.8-.128 2.321 0 3.122.184 1.134.476 2.046.973 3.06.543 1.106 1.105 1.89 2.01 2.799.907.904 1.692 1.466 2.797 2.009a10.37 10.37 0 003.06.973c.802.128 2.322.128 3.123 0a10.37 10.37 0 003.061-.973c1.105-.543 1.89-1.105 2.798-2.01.904-.907 1.467-1.692 2.009-2.797a9.418 9.418 0 00.74-1.956c.258-.986.32-1.524.32-2.666s-.062-1.68-.32-2.666a9.418 9.418 0 00-.74-1.956c-.542-1.105-1.105-1.89-2.01-2.798-.907-.904-1.692-1.467-2.797-2.009a10.211 10.211 0 00-3.04-.965c-.604-.095-1.952-.14-2.527-.083zm2.342.76a9.869 9.869 0 018.114 7.31c.222.879.284 1.404.284 2.407 0 1.002-.062 1.528-.284 2.407a9.85 9.85 0 01-7.103 7.104c-.88.222-1.405.283-2.408.283-1.002 0-1.528-.061-2.407-.283a9.85 9.85 0 01-7.104-7.104c-.222-.879-.283-1.405-.283-2.407 0-.645.02-1.019.074-1.376.682-4.52 4.252-7.93 8.796-8.398.521-.057 1.762-.025 2.32.058z" fill="#333"/><path d="M14.947 16.497l-.93-1.072a5.431 5.431 0 01-1.5.757 5.814 5.814 0 01-1.719.252c-.778 0-1.51-.142-2.193-.426a5.767 5.767 0 01-1.783-1.214 5.908 5.908 0 01-1.214-1.815 5.859 5.859 0 01-.426-2.24c0-.8.142-1.54.426-2.224.294-.695.699-1.3 1.214-1.815a5.426 5.426 0 011.783-1.214 5.483 5.483 0 012.193-.442c.778 0 1.504.147 2.177.442A5.385 5.385 0 0114.774 6.7c.515.516.915 1.12 1.199 1.815.294.683.441 1.425.441 2.224a5.7 5.7 0 01-.504 2.398 5.815 5.815 0 01-1.373 1.877l1.199 1.357-.789.126zm-4.149-.741c.526 0 1.02-.074 1.483-.22a5.358 5.358 0 001.278-.632L11.823 12.9l.79-.126 1.466 1.704a5.087 5.087 0 001.593-3.739c0-.705-.125-1.362-.378-1.972a4.716 4.716 0 00-2.587-2.65 4.63 4.63 0 00-1.909-.395 4.74 4.74 0 00-1.925.395 4.76 4.76 0 00-1.546 1.057 4.98 4.98 0 00-1.041 1.593 5.301 5.301 0 00-.363 1.972 5.3 5.3 0 00.363 1.972c.252.61.6 1.141 1.041 1.594.442.452.957.81 1.546 1.072a4.91 4.91 0 001.925.379z" fill="#333"/></svg>