<svg width="24" height="24" fill="none" xmlns="http://www.w3.org/2000/svg"><path d="M19.524 2.055a2.18 2.18 0 00-.828.37c-.125.09-.489.435-.813.759l-.586.59 1.477 1.473 1.473 1.478.626-.626c.348-.344.691-.723.773-.84a2.058 2.058 0 00-.261-2.622 2.065 2.065 0 00-1.86-.582zm-6.456 5.946c-2.677 2.681-3.334 3.361-3.365 3.47-.02.075-.164.786-.32 1.583-.192.962-.278 1.482-.262 1.556a.415.415 0 00.29.289c.148.035 3.13-.559 3.282-.653.058-.039 1.586-1.547 3.392-3.357l3.283-3.286-1.466-1.466a76.805 76.805 0 00-1.485-1.465c-.012 0-1.516 1.5-3.349 3.33z" fill="#fff"/><path d="M4.04 5.395a2.553 2.553 0 00-1.785 1.368c-.274.563-.262.168-.25 7.054l.011 6.194.086.254c.13.375.352.727.637 1.016.294.293.583.473.966.606l.265.097h12.678l.305-.097c.785-.247 1.403-.903 1.641-1.743.066-.235.07-.489.07-3.889v-3.638l-.117-.188a.816.816 0 00-.774-.398.814.814 0 00-.64.387l-.11.164-.02 3.595c-.02 3.29-.023 3.611-.085 3.72a.967.967 0 01-.489.407c-.105.031-1.915.039-6.19.031l-6.042-.012-.152-.105a1.186 1.186 0 01-.25-.254l-.098-.145-.012-6.088c-.008-5.936-.008-6.093.067-6.237a1.2 1.2 0 01.187-.25c.246-.239.074-.227 3.865-.227 2.63 0 3.506-.012 3.627-.047.223-.066.465-.32.527-.551a.836.836 0 00-.379-.954l-.183-.109-3.537-.008c-2.783-.004-3.595.004-3.818.047z" fill="#fff"/></svg>