<svg width="56" height="40" fill="none" xmlns="http://www.w3.org/2000/svg"><path opacity=".965" fill-rule="evenodd" clip-rule="evenodd" d="M55.5 2.222v35.556c-.35 1.14-1.065 1.86-2.148 2.163-16.901.078-33.803.078-50.704 0C1.565 39.64.85 38.918.5 37.779V2.222C.85 1.082 1.565.361 2.648.058a5494.87 5494.87 0 0150.704 0c1.083.303 1.799 1.024 2.148 2.164zm-50.918.234c15.594-.136 31.206-.156 46.836-.058l-21.7 17.777c-1.145.858-2.29.858-3.437 0A3967.573 3967.573 0 004.582 2.456zm-1.934 1.52a4350.677 4350.677 0 0122.344 18.188c1.505 1.038 3.117 1.272 4.834.701a7.643 7.643 0 001.504-.935A2613.413 2613.413 0 0153.298 3.977c.072 10.604.072 21.208 0 31.812L41.696 20.117c-.78-.82-1.461-.742-2.04.234a1.7 1.7 0 00.214 1.286l11.87 15.965c-15.827.078-31.653.078-47.48 0A829.03 829.03 0 0016.345 21.17c.174-1.163-.274-1.69-1.343-1.58-.28.104-.512.28-.698.527L2.702 35.789a4751.223 4751.223 0 01-.054-31.812z" fill="#333"/></svg>