<svg width="420" height="242" fill="none" xmlns="http://www.w3.org/2000/svg"><path d="M397.517 238.611c0 1.047-.009 2.091-.026 3.134H21.946a205.401 205.401 0 01-.026-3.134c0-103.719 84.08-187.797 187.798-187.797s187.799 84.078 187.799 187.797z" fill="#D4EBEB"/><path d="M63.04 242a.76.76 0 01-.76-.752v-.12a151.17 151.17 0 01.027-5.374.755.755 0 01.229-.547.758.758 0 01.845-.15.758.758 0 01.448.733 147.326 147.326 0 00-.028 5.318v.12a.76.76 0 01-.75.771l-.01.001zm292.001-11.698a.76.76 0 01-.758-.71c-.12-1.803-.273-3.626-.459-5.418a.754.754 0 01.156-.575.752.752 0 01.52-.287.758.758 0 01.758.413.766.766 0 01.08.293c.187 1.811.343 3.652.463 5.473a.763.763 0 01-.709.809c-.017.002-.034.003-.051.002zm-291.596-1.409a.753.753 0 01-.724-.521.755.755 0 01-.035-.294c.136-1.82.31-3.661.514-5.467a.764.764 0 01.84-.654.764.764 0 01.673.824 155.123 155.123 0 00-.51 5.414.763.763 0 01-.758.698zm290.153-11.623a.76.76 0 01-.751-.643 146.952 146.952 0 00-.94-5.356.766.766 0 01.09-.6.762.762 0 011.401.309c.349 1.789.668 3.609.95 5.411a.76.76 0 01-.751.879h.001zm-288.584-1.392a.758.758 0 01-.733-.559.766.766 0 01-.019-.327c.299-1.799.638-3.617 1.003-5.401a.754.754 0 01.322-.499.771.771 0 01.582-.117.766.766 0 01.597.619.763.763 0 01-.01.303 148.498 148.498 0 00-.994 5.345.76.76 0 01-.75.632l.002.004zm285.977-11.459a.765.765 0 01-.739-.576 142.38 142.38 0 00-1.418-5.248.772.772 0 01.049-.593.755.755 0 01.461-.377.774.774 0 01.591.07.757.757 0 01.36.474c.509 1.751.994 3.535 1.434 5.304a.764.764 0 01-.553.923.775.775 0 01-.185.023zM67.745 203.05a.762.762 0 01-.737-.954c.46-1.764.96-3.544 1.49-5.289a.762.762 0 011.458.439 144.86 144.86 0 00-1.471 5.234.763.763 0 01-.739.57zm279.495-11.195a.759.759 0 01-.719-.51 146.492 146.492 0 00-1.889-5.1.763.763 0 011.012-.958.764.764 0 01.406.404 146.67 146.67 0 011.907 5.152c.04.115.052.237.034.357a.76.76 0 01-.752.655h.001zm-275.607-1.348a.757.757 0 01-.753-.661.763.763 0 01.038-.359c.619-1.718 1.28-3.45 1.964-5.145a.764.764 0 011.393-.002.76.76 0 01.018.571 145.2 145.2 0 00-1.943 5.092.762.762 0 01-.72.504h.003zm270.739-10.811a.769.769 0 01-.696-.447 148.75 148.75 0 00-2.332-4.896.758.758 0 01.351-1 .757.757 0 011.01.32 144.331 144.331 0 012.358 4.948.76.76 0 01-.694 1.075h.003zm-265.731-1.338a.754.754 0 01-.64-.352.765.765 0 01-.049-.73 145.43 145.43 0 012.418-4.944.767.767 0 01.445-.377.757.757 0 01.813.232.762.762 0 01.097.841 145.463 145.463 0 00-2.394 4.893.765.765 0 01-.693.437h.003zm259.793-10.327a.762.762 0 01-.662-.385 145.751 145.751 0 00-2.766-4.672.79.79 0 01-.115-.28.765.765 0 01.632-.894.75.75 0 01.576.146.767.767 0 01.2.228c.957 1.55 1.897 3.138 2.794 4.72a.757.757 0 01-.004.758.757.757 0 01-.658.378l.003.001zM82.717 166.72a.76.76 0 01-.657-1.143 146.88 146.88 0 012.851-4.704.762.762 0 011.386.239.761.761 0 01-.1.574 147.55 147.55 0 00-2.821 4.656.758.758 0 01-.66.378zm246.749-9.777a.762.762 0 01-.626-.328 144.18 144.18 0 00-3.175-4.408.762.762 0 011.219-.913 146.195 146.195 0 013.207 4.454.764.764 0 01-.625 1.193v.002zm-239.654-1.265a.765.765 0 01-.757-.814.762.762 0 01.137-.387 140.745 140.745 0 013.26-4.428.764.764 0 01.8-.272.76.76 0 01.408 1.197 147.141 147.141 0 00-3.225 4.383.766.766 0 01-.623.318v.003zm231.721-9.165a.762.762 0 01-.584-.275 147.839 147.839 0 00-3.557-4.109.759.759 0 01.068-1.062.763.763 0 011.064.045 147.81 147.81 0 013.594 4.152.772.772 0 01.17.39.769.769 0 01-.346.739.769.769 0 01-.409.12zM97.864 145.32a.758.758 0 01-.578-1.254 140.977 140.977 0 013.64-4.117.753.753 0 01.821-.201.77.77 0 01.454.976.755.755 0 01-.154.253 146.251 146.251 0 00-3.602 4.075.747.747 0 01-.262.195.748.748 0 01-.319.068v.005zm214.834-8.492a.763.763 0 01-.538-.224 148.175 148.175 0 00-3.911-3.777.752.752 0 01-.241-.529.748.748 0 01.203-.546.76.76 0 011.075-.038 146.574 146.574 0 013.951 3.817.76.76 0 01-.539 1.298v-.001zm-205.893-1.105a.761.761 0 01-.534-1.304c1.3-1.276 2.643-2.546 3.991-3.777a.761.761 0 011.024 1.126 145.025 145.025 0 00-3.948 3.735.758.758 0 01-.533.215v.005zm196.226-7.766a.76.76 0 01-.488-.178 147.934 147.934 0 00-4.234-3.416.762.762 0 11.934-1.202 138.506 138.506 0 014.274 3.452.762.762 0 01-.052 1.207.764.764 0 01-.437.137h.003zm-186.471-.994a.761.761 0 01-.483-1.349c1.408-1.155 2.857-2.3 4.308-3.402a.754.754 0 01.569-.163.768.768 0 01.646.567.768.768 0 01-.088.586.75.75 0 01-.206.221 152.632 152.632 0 00-4.264 3.368.762.762 0 01-.482.172zm176.049-6.971a.75.75 0 01-.434-.136 145.939 145.939 0 00-4.525-3.025.753.753 0 01-.332-.479.761.761 0 011.155-.802c1.535.986 3.073 2.014 4.572 3.057a.758.758 0 01.291.852.762.762 0 01-.726.533h-.001zm-165.552-.881a.761.761 0 01-.428-1.392 148.82 148.82 0 014.592-3.001.753.753 0 01.575-.097.75.75 0 01.581.616.76.76 0 01-.347.773 144.022 144.022 0 00-4.545 2.971.77.77 0 01-.428.13zm11.146-6.878a.762.762 0 01-.701-1.06.768.768 0 01.33-.366 149.463 149.463 0 014.84-2.577.764.764 0 011.011.339.76.76 0 01-.32 1.018 143.368 143.368 0 00-4.79 2.55.769.769 0 01-.375.095l.005.001zm131.624-5.239a.765.765 0 01-.316-.069 147.223 147.223 0 00-4.998-2.17.755.755 0 01-.429-.409.752.752 0 01-.006-.593.761.761 0 011.015-.405 144.65 144.65 0 015.05 2.193.76.76 0 01-.316 1.453zm-119.918-.606a.763.763 0 01-.678-1.107.76.76 0 01.369-.35c1.66-.737 3.359-1.454 5.047-2.129a.762.762 0 01.565 1.413c-1.67.669-3.351 1.377-4.995 2.108a.744.744 0 01-.308.065zm95.155-8.09a.76.76 0 01-.187-.023c-1.748-.441-3.53-.856-5.295-1.232a.77.77 0 01-.481-.33.768.768 0 01-.107-.573.765.765 0 01.904-.587c1.784.378 3.585.795 5.351 1.243a.761.761 0 01-.185 1.499v.003zm-70.366-.336a.76.76 0 01-.177-1.501c1.771-.428 3.578-.829 5.367-1.193a.759.759 0 01.88.6.76.76 0 01-.582.891c-1.769.358-3.554.755-5.308 1.179a.747.747 0 01-.18.022v.002zm57.519-2.296a.833.833 0 01-.119-.01 146.845 146.845 0 00-5.385-.749.761.761 0 01.181-1.51c1.81.217 3.641.472 5.442.757a.762.762 0 01.399 1.31.761.761 0 01-.518.202zm-44.647-.21a.762.762 0 01-.595-1.236.761.761 0 01.484-.277c1.802-.267 3.634-.504 5.448-.704a.76.76 0 01.817.675.76.76 0 01-.65.837c-1.795.2-3.609.433-5.392.696a.707.707 0 01-.112.008v.001zm31.617-1.256a.451.451 0 01-.052 0c-1.798-.121-3.625-.21-5.43-.265a.762.762 0 11.046-1.521c1.824.055 3.67.145 5.487.268a.762.762 0 01.724.785.762.762 0 01-.775.735V94.2zm-18.574-.085a.762.762 0 01-.043-1.52c1.818-.106 3.665-.18 5.49-.218h.016a.763.763 0 01.743.753.764.764 0 01-.727.769c-1.806.037-3.634.11-5.434.214l-.045.002z" fill="#fff"/><path d="M8.42 235.275H3.007A3.006 3.006 0 000 238.281v.458a3.006 3.006 0 003.006 3.006H8.42a3.006 3.006 0 003.005-3.006v-.458a3.006 3.006 0 00-3.005-3.006zm391.867 0H19.15a3.006 3.006 0 00-3.005 3.006v.458a3.006 3.006 0 003.005 3.006h381.137a3.006 3.006 0 003.006-3.006v-.458a3.006 3.006 0 00-3.006-3.006z" fill="#1F3444"/><path d="M8.42 235.275H3.007A3.006 3.006 0 000 238.281v.458a3.006 3.006 0 003.006 3.006H8.42a3.006 3.006 0 003.005-3.006v-.458a3.006 3.006 0 00-3.005-3.006zm408.012 0h-5.415a3.005 3.005 0 00-3.005 3.006v.458a3.005 3.005 0 003.005 3.006h5.415a3.006 3.006 0 003.006-3.006v-.458a3.006 3.006 0 00-3.006-3.006z" fill="#1F3444"/><path d="M32.831 103.822h2.883a.75.75 0 01.525.218.743.743 0 01-.525 1.269H32.83a.744.744 0 110-1.491v.004zm10.784.731a.738.738 0 01-.456.698.729.729 0 01-.287.058h-2.884a.741.741 0 01-.744-.743.744.744 0 01.744-.744h2.87a.76.76 0 01.758.731zm-5.019-5.009v2.883a.741.741 0 01-.743.743.742.742 0 01-.744-.743v-2.883a.745.745 0 111.491 0h-.004zm-.747 6.413a.741.741 0 01.744.744v2.888a.745.745 0 01-1.491 0v-2.888a.748.748 0 01.461-.689.755.755 0 01.286-.055zm80.188-93.462a3.807 3.807 0 00-3.515 2.35 3.803 3.803 0 002.774 5.187 3.804 3.804 0 10.741-7.537zm0 6.396a2.592 2.592 0 110-5.184 2.592 2.592 0 010 5.184zm-9.456 167.318h2.889a.74.74 0 01.525.218.74.74 0 010 1.051.74.74 0 01-.525.218h-2.889a.746.746 0 010-1.491v.004zm10.786.731a.75.75 0 01-.213.534.74.74 0 01-.53.222h-2.888a.744.744 0 110-1.487h2.871a.752.752 0 01.76.731zm-5.021-5.013v2.882a.75.75 0 01-.217.526.739.739 0 01-.526.218.743.743 0 01-.743-.744v-2.882a.75.75 0 01.208-.543.746.746 0 011.278.543zm-.743 6.416a.75.75 0 01.526.218.755.755 0 01.217.525v2.889a.748.748 0 01-.452.711.746.746 0 01-1.034-.711v-2.891a.741.741 0 01.743-.741zm-74.261 25.098a4.16 4.16 0 10-.002 8.322 4.16 4.16 0 00.002-8.322zm0 6.472a2.313 2.313 0 11-.002-4.625 2.313 2.313 0 01.002 4.625zm248.325 3.618h3.417a.884.884 0 01.622.257.86.86 0 01.258.621.879.879 0 01-.88.88h-3.417a.89.89 0 01-.346-.058.892.892 0 01-.493-.478.877.877 0 01.493-1.164.89.89 0 01.346-.058zm12.763.864a.881.881 0 01-.879.895h-3.417a.879.879 0 110-1.759h3.396a.896.896 0 01.9.864zm-5.942-5.927v3.416a.88.88 0 01-1.759 0v-3.417a.878.878 0 011.501-.622.879.879 0 01.258.622v.001zm-.88 7.591a.88.88 0 01.88.879v3.418a.879.879 0 11-1.759 0v-3.418a.88.88 0 01.879-.879zm31.906-108.352a4.16 4.16 0 100 8.319 4.16 4.16 0 000-8.319zm0 6.472a2.317 2.317 0 01-2.136-1.427 2.317 2.317 0 011.684-3.153 2.315 2.315 0 012.763 2.268 2.312 2.312 0 01-2.311 2.313v-.001zM236.31 7.742h2.962a.764.764 0 01.763.764.763.763 0 01-.763.762h-2.962a.762.762 0 010-1.526zm11.07.751a.766.766 0 01-.219.547.757.757 0 01-.543.228h-2.965a.763.763 0 010-1.526h2.946a.775.775 0 01.781.75zm-5.153-5.143v2.964a.763.763 0 11-1.525 0V3.35a.752.752 0 01.213-.557.766.766 0 011.099 0 .755.755 0 01.213.557zm-.763 6.582a.765.765 0 01.763.763v2.96a.752.752 0 01-.213.557.766.766 0 01-1.099 0 .755.755 0 01-.213-.557v-2.96a.77.77 0 01.223-.54.757.757 0 01.539-.223zM396.339 164.18h2.889a.749.749 0 01.525.217.749.749 0 010 1.051.743.743 0 01-.525.218h-2.889a.747.747 0 01-.716-.743.744.744 0 01.716-.743zm10.787.73a.726.726 0 01-.053.288.744.744 0 01-.689.468h-2.89a.75.75 0 01-.686-.459.754.754 0 010-.569.739.739 0 01.686-.458h2.871a.754.754 0 01.761.73zm-5.022-5.009v2.888a.728.728 0 01-.057.284.739.739 0 01-.971.402.739.739 0 01-.459-.686v-2.888c0-.198.079-.388.219-.527a.743.743 0 011.272.527h-.004zm-.743 6.412a.742.742 0 01.743.743v2.888a.742.742 0 01-.745.746.743.743 0 01-.527-.219.743.743 0 01-.219-.527v-2.888a.751.751 0 01.219-.527.747.747 0 01.529-.216z" fill="#2B6972"/><path d="M195.266 88.337h5.719a16.842 16.842 0 01.909-5.481c2.286-6.679 8.623-11.494 16.066-11.494 7.444 0 13.783 4.815 16.066 11.494a16.87 16.87 0 01.91 5.481h5.72a22.608 22.608 0 00-.671-5.481c-2.457-9.875-11.4-17.213-22.025-17.213-10.625 0-19.567 7.338-22.024 17.213a22.56 22.56 0 00-.67 5.481z" fill="#73C7D2"/><path d="M234.025 82.856c.605 1.764.912 3.616.91 5.481h5.72a22.558 22.558 0 00-.671-5.481h-5.959zm-38.759 5.481h5.719a16.867 16.867 0 01.909-5.481h-5.963a22.605 22.605 0 00-.665 5.481z" fill="#73C7D2" opacity=".2"/><path d="M256.886 88.338h-77.853v99.441h77.853V88.338z" fill="#73C7D2"/><path d="M161.921 187.781h77.852V88.339h-77.852v99.442z" fill="#9DD7E4"/><path d="M239.773 187.781h17.114l-8.557-8.857-8.557 8.857z" fill="#73C7D2" opacity=".4"/><path d="M217.305 109.021v20.114h14.98v-20.114a.77.77 0 00-.223-.542l-6.724-6.727-.02-.017V88.338h-1.046v13.397c-.006.006-.013.01-.019.017l-6.72 6.724a.77.77 0 00-.228.545zm7.695-4.903a1.046 1.046 0 11-.945.282 1.046 1.046 0 01.949-.282H225z" fill="#fff"/><path d="M221.99 113.346a2.808 2.808 0 00-2.651 1.873c-1.392 3.804 5.466 8.076 5.466 8.076v-7.139a2.819 2.819 0 00-.825-1.989 2.815 2.815 0 00-1.99-.821z" fill="#9DD7E4"/><path d="M227.612 113.346a2.806 2.806 0 012.65 1.873c1.392 3.804-5.461 8.076-5.461 8.076v-7.139a2.809 2.809 0 012.811-2.81z" fill="#73C7D2"/><path d="M239.773 187.779h8.557V88.337h-8.557v99.442z" fill="#73C7D2" opacity=".2"/><path d="M178.15 88.337h5.72a16.842 16.842 0 01.909-5.481c2.286-6.679 8.622-11.494 16.066-11.494 7.443 0 13.783 4.815 16.066 11.494.604 1.764.912 3.616.909 5.481h5.72a22.51 22.51 0 00-.671-5.481c-2.457-9.875-11.399-17.213-22.024-17.213-10.625 0-19.568 7.338-22.024 17.213a22.608 22.608 0 00-.671 5.481z" fill="#9DD7E4"/><path d="M216.908 82.856c.605 1.764.912 3.616.91 5.481h5.72a22.607 22.607 0 00-.671-5.481h-5.959zm-38.756 5.481h5.719a16.868 16.868 0 01.91-5.481h-5.958a22.607 22.607 0 00-.671 5.481zm61.616 10.433s-.264 89.009-70.457 89.009h70.457v-89.01z" fill="#73C7D2" opacity=".4"/><path d="M315.346 71.112a1.711 1.711 0 00-1.998-1.359l-23.711 4.508h-.02a1.099 1.099 0 00-.099.025h-.013c-.015 0-.03.007-.044.012l-.051.017-.015.006a1.705 1.705 0 00-.603.362l-.007.007a.658.658 0 00-.03.027l-.031.033-.008.009a1.728 1.728 0 00-.291.418l-.007.015c-.012.024-.024.047-.035.074a.401.401 0 00-.013.035v.008a1.816 1.816 0 00-.04.11l-12.259 40.204-133.402-.039c-.263 0-.523.061-.759.177a1.719 1.719 0 00-.919 1.207c-.05.258-.04.525.03.779l19.728 71.522a1.712 1.712 0 001.646 1.254h.014l93.115.027h8.344c3.91 0 6.765 1.027 8.485 3.051 1.48 1.742 2.231 4.322 2.23 7.67a10.735 10.735 0 01-10.721 10.714l-125.782-.036a1.71 1.71 0 100 3.417l125.782.037a14.049 14.049 0 009.992-4.142 14.052 14.052 0 004.147-9.989c0-4.181-1.023-7.506-3.044-9.884-2.398-2.823-6.128-4.254-11.087-4.255h-6.021l33.438-109.707 22.699-4.316a1.707 1.707 0 001.36-1.998zm-40.317 47.928l-4.556 14.945-23.515-.007 2.64-14.945 25.431.007zm-5.129 16.823l-4.963 16.285-21.186-.006 2.874-16.286 23.275.007zm-58.918-1.894v-14.948l36.706.011-2.64 14.946-34.066-.009zm47.846 38.218l-4.556 14.946h-16.698l2.64-14.947 18.614.001zm-47.852-20.055l.005-16.287 33.74.01-2.877 16.286-30.868-.009zm0 18.164v-16.287l30.536.009-2.876 16.286-27.66-.008zm53.393-16.271l-4.964 16.285-18.858-.005 2.877-16.286 20.945.006zm-26.059 18.156l-2.641 14.946-24.698-.007.005-14.947 27.334.008zm-56.819-.017l2.631 14.948-20.424-.006-4.123-14.949 21.916.007zm27.612-18.156l-.005 16.287-26.032-.007-2.871-16.29 28.908.01zm-30.812-.009l2.867 16.288-22.101-.006-4.493-16.289 23.727.007zm30.812-18.154v16.287l-29.235-.009-2.867-16.288 32.102.01zm-34.012-.01l2.866 16.288-23.914-.007-4.491-16.289 25.539.008zm34.017-16.814v14.947l-32.438-.009-2.635-14.947 35.073.009zm-34.344 14.937l-25.726-.008-4.122-14.948 27.217.008 2.631 14.948zm34.333 38.214v14.948l-23.065-.007-2.631-14.949 25.696.008zm-38.783 45.716a8.647 8.647 0 10-.023 17.294 8.647 8.647 0 00.023-17.294zm-.005 13.862a5.227 5.227 0 113.693-1.53 5.172 5.172 0 01-3.693 1.53zm73.734-13.842a8.645 8.645 0 00-8.479 10.323 8.633 8.633 0 006.785 6.793 8.646 8.646 0 008.873-3.669 8.643 8.643 0 001.459-4.8 8.646 8.646 0 00-8.638-8.647zm0 13.864a5.219 5.219 0 01-5.121-6.244 5.22 5.22 0 014.106-4.103 5.22 5.22 0 013.017.299 5.218 5.218 0 011.69 8.517 5.23 5.23 0 01-3.692 1.531z" fill="#1F3444" stroke="#1F3444" stroke-width="2" stroke-miterlimit="10"/><path d="M244.042 223.196c-.889 0-1.742.354-2.371.982a3.353 3.353 0 102.373-.982h-.002zm0 4.829a1.472 1.472 0 01-1.362-.911 1.474 1.474 0 012.589-1.384 1.478 1.478 0 01.139 1.386 1.45 1.45 0 01-.8.8c-.179.073-.372.11-.566.109zm-73.73-4.849a3.356 3.356 0 10-.009 6.712 3.356 3.356 0 00.009-6.712zm0 4.828a1.473 1.473 0 01-1.451-1.188 1.48 1.48 0 011.878-1.704 1.475 1.475 0 011.042 1.56 1.475 1.475 0 01-1.47 1.33l.001.002zm-18.754-41.261c.082 0 .163-.01.242-.032h.009a.939.939 0 00.655-1.155l-8.096-29.283a.925.925 0 00-.434-.595.948.948 0 00-.73-.1.943.943 0 00-.646 1.192l8.096 29.283a.94.94 0 00.904.69zm-15.39-27.302a.916.916 0 00.566-.442.93.93 0 00.088-.713l-4.605-16.659a.942.942 0 00-1.144-.62.936.936 0 00-.557.425.932.932 0 00-.109.692l4.606 16.659a.936.936 0 001.146.657l.009.001zm3.24 12.659a.94.94 0 00.242-.032h.009a.924.924 0 00.566-.441.929.929 0 00.088-.713l-2.398-8.674a.945.945 0 00-.436-.583.948.948 0 00-1.055.072.937.937 0 00-.352.638.925.925 0 00.034.37l2.398 8.673a.94.94 0 00.904.69zm112.204-90.487a.65.65 0 01-.568-.34.648.648 0 01.028-.66 73.472 73.472 0 002.83-4.697.647.647 0 01.877-.252.643.643 0 01.253.877 71.132 71.132 0 01-2.882 4.78.649.649 0 01-.538.292zm6.094-11.364a.64.64 0 01-.461-.195.64.64 0 01-.133-.704 73.76 73.76 0 001.972-5.118.646.646 0 011.221.418 74.413 74.413 0 01-2.006 5.207.638.638 0 01-.593.392zm4.027-12.248a.647.647 0 01-.629-.793c.309-1.32.586-2.665.82-3.996l.075-.435c-.833.182-1.682.275-2.534.279h-.032a.648.648 0 01-.646-.646.646.646 0 01.646-.646h.029c1.574 0 3.28-.398 5.069-1.169a.648.648 0 01.852.334.637.637 0 01.007.495.641.641 0 01-.346.355c-.552.24-1.116.451-1.69.633-.048.318-.099.656-.169 1.022a72.208 72.208 0 01-.835 4.067.641.641 0 01-.617.5zm-8.654-8.068a.642.642 0 01-.531-.276 6.682 6.682 0 01-1.206-3.29 5.978 5.978 0 01.388-2.567.648.648 0 011.183-.022.65.65 0 01.023.486 4.67 4.67 0 00-.307 2.005c.085.955.423 1.869.979 2.65a.638.638 0 01.043.668.638.638 0 01-.572.346zm17.891-2.087a.645.645 0 01-.428-1.13 24.981 24.981 0 003.63-3.975.649.649 0 01.89-.122.645.645 0 01.152.885 26.39 26.39 0 01-3.818 4.182.64.64 0 01-.428.16h.002zm-8.771-2.528a.643.643 0 01-.588-.377c-.713-1.565-2.075-2.837-3.556-3.321a.647.647 0 01-.437-.82.648.648 0 01.834-.407c1.814.597 3.473 2.13 4.331 4.012a.646.646 0 01-.319.855.659.659 0 01-.267.054l.002.004z" fill="#1F3444" stroke="#1F3444" stroke-width="2" stroke-miterlimit="10"/><path d="M324.311 37.188a2.512 2.512 0 01-1.735 1.827l-30.069 8.868a2.5 2.5 0 01-1.848-.168l-13.337-6.749a2.515 2.515 0 01-1.037-3.514l7.541-12.907a2.5 2.5 0 011.461-1.144l30.069-8.868a2.52 2.52 0 013.125 1.706l5.797 19.655c.125.421.136.867.033 1.294z" fill="#73C7D2"/><path d="M280.388 20.745l-4.435 17.388c-.352 1.38.628 2.82 2.04 3.001l17.801 2.268a2.128 2.128 0 001.474-.345l28.145-19.138c1.011-.687 1.236-2.117.505-3.193L312.551 1.069c-.732-1.078-2.144-1.392-3.155-.706L281.25 19.501c-.43.295-.737.737-.862 1.244zm5.466 12.85a2.356 2.356 0 01-1.028 3.491 2.355 2.355 0 111.028-3.492z" fill="#9DD7E4"/><path d="M297.107 24.46a3.713 3.713 0 01-3.701-3.354 3.71 3.71 0 113.701 3.354zm0-6.018a2.32 2.32 0 00-2.314 2.082 2.32 2.32 0 003.48 2.245 2.32 2.32 0 00-.247-4.135 2.313 2.313 0 00-.918-.192h-.001zm1.657 11.968a.695.695 0 01-.635-.966l6.006-13.887a.689.689 0 01.374-.426.7.7 0 01.803.161.695.695 0 01.094.813l-6.007 13.887a.7.7 0 01-.635.418zm7.66-1.92a3.711 3.711 0 11-.013-7.422 3.711 3.711 0 01.013 7.422zm0-6.016a2.313 2.313 0 00-2.248 1.737 2.301 2.301 0 00.369 1.94 2.311 2.311 0 002.729.79 2.315 2.315 0 00-.85-4.467z" fill="#fff"/><path d="M106.223 105.712l.067-.597-.068.597a15.96 15.96 0 01-5.011-1.392.607.607 0 01-.309-.336.603.603 0 01.019-.457.594.594 0 01.793-.289 14.753 14.753 0 004.635 1.285l-.059.596-.067.593zm6.999-.839a.596.596 0 01-.206-1.156 14.782 14.782 0 004.19-2.371.601.601 0 01.665-.064.59.59 0 01.308.592.597.597 0 01-.225.402 15.965 15.965 0 01-4.528 2.56.59.59 0 01-.204.037zm-17.257-4.8a.602.602 0 01-.464-.222 15.965 15.965 0 01-2.564-4.527.597.597 0 011.12-.41 14.78 14.78 0 002.372 4.189.596.596 0 01-.464.97zm25.922-3.162a.6.6 0 01-.502-.276.588.588 0 01-.038-.572 14.74 14.74 0 001.292-4.64v-.025a.596.596 0 011.186.128v.022a15.95 15.95 0 01-1.392 5.018.593.593 0 01-.545.345h-.001zm-29.235-8.125a.424.424 0 01-.061 0 .596.596 0 01-.533-.654v-.017a15.953 15.953 0 011.385-5.001.597.597 0 011.083.496 14.767 14.767 0 00-1.282 4.63v.01a.596.596 0 01-.592.536zm29.726-3.658a.595.595 0 01-.56-.39 14.771 14.771 0 00-2.375-4.188.595.595 0 01.928-.748 15.954 15.954 0 012.566 4.524.602.602 0 01-.07.547.591.591 0 01-.489.255zm-24.088-6.67a.597.597 0 01-.375-1.06 15.967 15.967 0 014.525-2.565.599.599 0 01.766.354.591.591 0 01-.354.766 14.76 14.76 0 00-4.189 2.374.597.597 0 01-.373.132zm16.115-1.987a.607.607 0 01-.25-.055 14.752 14.752 0 00-4.624-1.28h-.018a.596.596 0 01.126-1.186h.024c1.729.186 3.415.654 4.993 1.384a.596.596 0 01-.251 1.137zm-31.19 17.403h-.013a24.384 24.384 0 01-5.235-.565.596.596 0 11.257-1.165c1.635.358 3.304.538 4.978.538h.013a.596.596 0 010 1.192zm7.113-1.093a.596.596 0 01-.18-1.166 22.903 22.903 0 004.594-2.025.596.596 0 01.596 1.032 24.158 24.158 0 01-4.832 2.131.597.597 0 01-.178.03v-.002zm-18.943-2.065a.596.596 0 01-.298-.08 24.324 24.324 0 01-4.259-3.123.597.597 0 01.806-.88 23.15 23.15 0 004.05 2.97.597.597 0 01-.299 1.113zm29.265-4.523a.595.595 0 01-.589-.694.6.6 0 01.149-.306 23.066 23.066 0 002.972-4.048.598.598 0 011.086.148.594.594 0 01-.053.448 24.409 24.409 0 01-3.125 4.257.596.596 0 01-.44.197v-.002zm-37.93-4.13a.595.595 0 01-.518-.298 24.243 24.243 0 01-2.133-4.831.596.596 0 111.137-.36 23 23 0 002.028 4.593.595.595 0 01-.515.894v.002zm43.587-6.73a.588.588 0 01-.503-.275.588.588 0 01-.079-.451c.36-1.64.542-3.313.542-4.992v-.051a.595.595 0 111.192 0v.053a24.39 24.39 0 01-.569 5.25.598.598 0 01-.583.468v-.002zM59.542 70.24a.596.596 0 01-.597-.597v-.03c0-1.755.188-3.506.563-5.22a.597.597 0 111.166.255 23.197 23.197 0 00-.536 4.97v.027a.596.596 0 01-.596.597v-.002zm46.218-7.192a.596.596 0 01-.568-.417 23.118 23.118 0 00-2.033-4.59.588.588 0 01-.082-.465.591.591 0 01.51-.455.595.595 0 01.602.324 24.087 24.087 0 012.139 4.828.588.588 0 01-.298.713.6.6 0 01-.27.065v-.004zm-43.067-4.64a.596.596 0 01-.517-.895 24.41 24.41 0 013.12-4.26.597.597 0 01.88.804 23.192 23.192 0 00-2.967 4.052.596.596 0 01-.518.3l.002-.001zm36.462-5.672a.596.596 0 01-.398-.156 23.205 23.205 0 00-4.053-2.965.596.596 0 11.597-1.033 24.37 24.37 0 014.261 3.118.598.598 0 01-.397 1.036h-.01zM71.34 49.735a.596.596 0 01-.299-1.112 24.168 24.168 0 014.831-2.137.597.597 0 01.36 1.137c-1.6.507-3.14 1.189-4.591 2.031a.595.595 0 01-.301.08zm16.943-2.637a.628.628 0 01-.128-.014 23.201 23.201 0 00-4.953-.534h-.04a.597.597 0 010-1.193h.037c1.752 0 3.499.188 5.21.561a.596.596 0 01-.126 1.18zm243.021 167.186h-.053a33.675 33.675 0 01-4.858-.795.598.598 0 01-.441-.719.593.593 0 01.719-.441 32.56 32.56 0 004.685.764.594.594 0 01.57.622.596.596 0 01-.622.57v-.001zm6.758-.087a.598.598 0 01-.066-1.193 32.864 32.864 0 004.666-.875.59.59 0 01.638.209.587.587 0 01.118.447.6.6 0 01-.451.496 33.942 33.942 0 01-4.898.916h-.007zm-17.916-2.929a.604.604 0 01-.254-.057 33.946 33.946 0 01-4.29-2.412.586.586 0 01-.271-.38.591.591 0 01.085-.458.585.585 0 01.389-.257.591.591 0 01.455.101 32.841 32.841 0 004.14 2.327.592.592 0 01.329.67.6.6 0 01-.583.466zm28.996-.349a.595.595 0 01-.266-1.13 32.872 32.872 0 004.075-2.424.593.593 0 01.938.355.61.61 0 01-.088.456.61.61 0 01-.169.167 33.647 33.647 0 01-4.228 2.512.583.583 0 01-.259.064h-.003zm-38.445-6.304a.577.577 0 01-.228-.046.58.58 0 01-.194-.13 33.921 33.921 0 01-3.212-3.727.594.594 0 01.123-.834.6.6 0 01.835.124 32.928 32.928 0 003.099 3.596.595.595 0 01-.423 1.017zm47.723-.576a.598.598 0 01-.433-1.007 32.958 32.958 0 003.011-3.678.596.596 0 01.974.688 34.267 34.267 0 01-3.119 3.806.613.613 0 01-.195.14.612.612 0 01-.235.051h-.003zm-54.336-8.898a.597.597 0 01-.542-.345 33.608 33.608 0 01-1.738-4.604.583.583 0 01.038-.463.589.589 0 01.15-.183.587.587 0 01.67-.06.596.596 0 01.285.367 32.56 32.56 0 001.678 4.441.595.595 0 01-.039.572.598.598 0 01-.502.275zm60.718-.736a.595.595 0 01-.546-.835 32.88 32.88 0 001.574-4.481.598.598 0 011.088-.135.602.602 0 01.063.447 33.94 33.94 0 01-1.632 4.646.592.592 0 01-.543.358h-.004zm-63.679-10.437a.594.594 0 01-.596-.542v-.038a34.461 34.461 0 01-.064-4.885.6.6 0 01.631-.562.6.6 0 01.562.631 32.463 32.463 0 00.061 4.717v.03a.589.589 0 01-.136.436.599.599 0 01-.405.211.287.287 0 01-.05.007l-.003-.005zm66.375-.807h-.036a.604.604 0 01-.528-.4.625.625 0 01-.032-.231 33.453 33.453 0 00-.06-4.749l-.005-.065a.59.59 0 01.139-.436.6.6 0 011.054.337l.005.065a34.585 34.585 0 01.061 4.922.593.593 0 01-.595.562l-.003-.005zm-65.354-10.703a.6.6 0 01-.518-.3.602.602 0 01-.058-.453 33.917 33.917 0 011.627-4.646.598.598 0 011.09.027.599.599 0 01.004.448 32.61 32.61 0 00-1.571 4.482.595.595 0 01-.571.447l-.003-.005zm64.029-.84a.596.596 0 01-.572-.428 32.599 32.599 0 00-1.681-4.439.594.594 0 01.745-.806.6.6 0 01.336.303 33.787 33.787 0 011.743 4.602.59.59 0 01-.303.704.594.594 0 01-.268.064zM307.059 162a.592.592 0 01-.53-.322.593.593 0 01.043-.618 34.041 34.041 0 013.115-3.809.588.588 0 01.646-.147.597.597 0 01.22.967 32.914 32.914 0 00-3.006 3.678.605.605 0 01-.488.251zm53.943-.707a.597.597 0 01-.479-.241 32.839 32.839 0 00-3.103-3.593.6.6 0 01.004-.84.596.596 0 01.84-.003 33.936 33.936 0 013.216 3.725.602.602 0 01.054.623.593.593 0 01-.532.329zm-45.761-7.455a.596.596 0 01-.342-1.085 33.851 33.851 0 014.226-2.517.595.595 0 01.534 1.067 32.39 32.39 0 00-4.075 2.428.602.602 0 01-.345.11l.002-.003zm37.363-.485a.596.596 0 01-.328-.099 32.963 32.963 0 00-4.142-2.323.598.598 0 01-.149-.981.595.595 0 01.655-.099 33.832 33.832 0 014.293 2.408.599.599 0 01.241.669.595.595 0 01-.57.424v.001zm-26.888-4.38a.594.594 0 01-.152-1.173 34.077 34.077 0 014.835-.912.593.593 0 01.651.525.597.597 0 01-.515.659 33.008 33.008 0 00-4.665.881.589.589 0 01-.156.023l.002-.003zm16.286-.218a.6.6 0 01-.139-.016 32.69 32.69 0 00-4.685-.759.612.612 0 01-.225-.064.61.61 0 01-.295-.35.609.609 0 01.038-.457.608.608 0 01.349-.295.609.609 0 01.232-.027c1.637.144 3.26.407 4.859.787a.598.598 0 01-.138 1.177l.004.004z" fill="#26585F"/></svg>