<svg width="21" height="20" fill="none" xmlns="http://www.w3.org/2000/svg"><g fill="#363848"><path d="M15.5 16.25a2.5 2.5 0 01-2.5 2.5H4.25a2.5 2.5 0 01-2.5-2.5V7.5A2.5 2.5 0 014.25 5v1.25A1.25 1.25 0 003 7.5v8.75a1.25 1.25 0 001.25 1.25H13a1.25 1.25 0 001.25-1.25h1.25z"/><path d="M8 2.5a1.25 1.25 0 00-1.25 1.25v8.75A1.25 1.25 0 008 13.75h8.75A1.25 1.25 0 0018 12.5V3.75a1.25 1.25 0 00-1.25-1.25H8zm0-1.25h8.75a2.5 2.5 0 012.5 2.5v8.75a2.5 2.5 0 01-2.5 2.5H8a2.5 2.5 0 01-2.5-2.5V3.75A2.5 2.5 0 018 1.25z"/></g></svg>