<svg width="40" height="40" fill="none" xmlns="http://www.w3.org/2000/svg"><rect width="40" height="40" rx="6" fill="#333"/><path d="M21.194 17.49l-3.704 3.704a.926.926 0 00.302 1.518.926.926 0 001.013-.203l3.704-3.704a.93.93 0 00-1.315-1.314z" fill="#fff"/><path d="M20.26 25l-1.186 1.176a3.889 3.889 0 01-5.167.37 3.705 3.705 0 01-.25-5.49l1.315-1.325a.926.926 0 000-1.314.926.926 0 00-1.315 0l-1.176 1.185a5.695 5.695 0 00-.62 7.472 5.61 5.61 0 008.398.556l1.315-1.315A.93.93 0 0020.259 25zm6.832-13.13a5.722 5.722 0 00-7.527.63l-1 1.018a1.01 1.01 0 00-.158 1.491.927.927 0 001.315 0l1.204-1.213a3.861 3.861 0 015.157-.37 3.703 3.703 0 01.25 5.51l-1.315 1.323a.924.924 0 000 1.315.926.926 0 001.315 0l1.315-1.315a5.612 5.612 0 00-.555-8.389z" fill="#fff"/></svg>