<svg width="75" height="50" fill="none" xmlns="http://www.w3.org/2000/svg"><path d="M20 7.5h35v18.894l-1.732 2.707L55 31.51V42.5H20V24.689l1.083-1.245L20 22.253V7.5z" fill="#016FD0"/><path d="M26.794 31.888v-5.495h5.818l.625.813.645-.813H55v5.116s-.552.373-1.191.379H42.115l-.704-.867v.867h-2.306v-1.479s-.315.207-.996.207h-.785v1.272h-3.492l-.623-.832-.633.832h-5.782zM20 22.25l1.312-3.059h2.269l.745 1.714v-1.714h2.82l.443 1.239.43-1.239h12.662v.623s.665-.623 1.76-.623l4.107.015.732 1.69v-1.705h2.36l.65.972v-.972h2.382v5.495H50.29l-.623-.974v.974H46.2l-.348-.866h-.932l-.344.866h-2.352c-.94 0-1.542-.61-1.542-.61v.61h-3.546l-.704-.866v.866H23.245l-.349-.866h-.929l-.346.866H20V22.25z" fill="#fff"/><path d="M21.773 19.87l-1.77 4.115h1.153l.327-.824h1.898l.325.824h1.177l-1.768-4.114h-1.341zm.655.958l.579 1.44h-1.159l.58-1.44zm2.577 3.157V19.87l1.637.006.952 2.653.93-2.659h1.624v4.115h-1.029v-3.032l-1.09 3.032h-.902l-1.093-3.032v3.032h-1.03zm5.847 0V19.87h3.356v.92h-2.317v.704h2.263v.866h-2.263v.731h2.317v.894h-3.356zm3.952-4.114v4.114h1.028v-1.462h.434l1.233 1.462h1.257l-1.354-1.516a1.253 1.253 0 001.129-1.263c0-.866-.68-1.335-1.438-1.335h-2.29zm1.028.92h1.176c.282 0 .487.22.487.433 0 .274-.265.433-.472.433h-1.19v-.866zm4.169 3.194h-1.05V19.87H40v4.115zm2.49 0h-.226c-1.097 0-1.763-.865-1.763-2.04 0-1.206.658-2.075 2.043-2.075h1.137v.975h-1.178c-.562 0-.96.438-.96 1.11 0 .796.455 1.13 1.11 1.13h.27l-.433.9zm2.239-4.114l-1.77 4.114h1.152l.327-.824h1.898l.325.824h1.177l-1.768-4.114H44.73zm.654.957l.579 1.44h-1.159l.58-1.44zm2.575 3.157V19.87h1.308l1.67 2.585V19.87h1.028v4.115H50.7l-1.712-2.653v2.653h-1.029zm-20.464 7.2V27.07h3.357v.92h-2.317v.705h2.263v.866h-2.263v.73h2.317v.894h-3.357zm16.447 0V27.07H47.3v.92h-2.317v.705h2.252v.866h-2.252v.73H47.3v.894h-3.357zm-12.96 0l1.634-2.032-1.673-2.083h1.296l.997 1.288 1-1.288h1.245l-1.652 2.058 1.638 2.057H34.17l-.968-1.267-.944 1.267h-1.277zm4.607-4.114v4.115h1.056v-1.3h1.082c.916 0 1.61-.486 1.61-1.431 0-.783-.544-1.384-1.476-1.384h-2.272zm1.056.93h1.14c.296 0 .507.182.507.474 0 .275-.21.474-.51.474h-1.137v-.947zm3.14-.93v4.114h1.028v-1.462h.433l1.233 1.462h1.258l-1.354-1.516a1.253 1.253 0 001.128-1.264c0-.866-.68-1.335-1.438-1.335h-2.289zm1.028.92h1.176c.282 0 .487.22.487.433 0 .273-.266.433-.472.433h-1.19v-.866zm6.962 3.194v-.893h2.059c.304 0 .436-.165.436-.346 0-.173-.131-.347-.436-.347h-.93c-.81 0-1.26-.493-1.26-1.233 0-.66.413-1.296 1.615-1.296h2.003l-.434.926h-1.732c-.331 0-.433.174-.433.34 0 .17.126.359.379.359h.974c.902 0 1.293.51 1.293 1.18 0 .72-.436 1.31-1.342 1.31h-2.192zm3.775 0v-.893h2.059c.305 0 .436-.165.436-.346 0-.173-.131-.347-.436-.347h-.93c-.809 0-1.26-.493-1.26-1.233 0-.66.413-1.296 1.615-1.296h2.003l-.433.926H52.87c-.33 0-.433.174-.433.34 0 .17.126.359.38.359h.974c.901 0 1.292.51 1.292 1.18 0 .72-.436 1.31-1.341 1.31H51.55z" fill="#016FD0"/></svg>