<svg width="24" height="24" fill="none" xmlns="http://www.w3.org/2000/svg"><path d="M5.055 3.245a.75.75 0 10-1.11 1.01l1.804 1.984c-3.405 2.09-4.87 5.31-4.934 5.457a.75.75 0 000 .61c.032.074.827 1.834 2.592 3.6C5.759 18.255 8.73 19.5 12 19.5a11.93 11.93 0 004.882-1.015l2.062 2.27a.75.75 0 101.11-1.01L5.055 3.245zm4.437 7.11l3.907 4.299a3 3 0 01-3.907-4.299zM12 18c-2.886 0-5.407-1.05-7.493-3.117A12.482 12.482 0 012.344 12c.44-.824 1.843-3.13 4.439-4.63L8.47 9.222a4.5 4.5 0 005.968 6.563l1.381 1.518A10.501 10.501 0 0112 18zm.563-8.947a.75.75 0 01.28-1.473 4.515 4.515 0 013.635 3.997.75.75 0 01-.676.817.636.636 0 01-.07 0 .75.75 0 01-.75-.681 3.008 3.008 0 00-2.42-2.66zm10.62 3.252c-.04.089-.99 2.191-3.128 4.107a.752.752 0 01-1.068-.05.75.75 0 01.068-1.068A12.447 12.447 0 0021.66 12a12.485 12.485 0 00-2.168-2.885C17.407 7.05 14.886 6 12 6c-.608 0-1.215.048-1.815.147a.75.75 0 11-.248-1.48A12.562 12.562 0 0112 4.5c3.27 0 6.24 1.243 8.593 3.595 1.765 1.765 2.56 3.527 2.592 3.601a.75.75 0 010 .61h-.002z" fill="#333"/></svg>