<svg width="60" height="61" fill="none" xmlns="http://www.w3.org/2000/svg"><path opacity=".946" fill-rule="evenodd" clip-rule="evenodd" d="M14.532.889h29.299c1.142.38 1.864 1.162 2.168 2.343.058.859.078 1.718.058 2.578a14.08 14.08 0 012.93.176c1.2.419 1.884 1.259 2.05 2.52.08 4.53.08 9.062 0 13.593-.245.7-.734.953-1.464.762a.817.817 0 01-.41-.293c-.155-4.6-.233-9.209-.235-13.828-.1-.413-.354-.667-.761-.762a19.037 19.037 0 00-2.11-.058c.02 3.867 0 7.734-.058 11.601-.357.688-.884.863-1.583.527a1.352 1.352 0 01-.41-.527L43.89 3.584a.817.817 0 00-.293-.41c-9.17-.175-18.35-.234-27.54-.176.02 3.828 0 7.656-.059 11.484-.293 1.309-1.094 2.11-2.402 2.402-3.829.059-7.657.078-11.486.059-.058 11.533.001 23.056.176 34.57.167.112.342.21.528.292 7.461.04 14.922.078 22.384.117.209.092.385.229.527.41a2.4 2.4 0 010 1.055.953.953 0 01-.645.527c-6.015.06-12.031.079-18.047.06-.02.703 0 1.406.058 2.108.08.3.256.515.528.645l39.377.117c.864.303 1.098.869.703 1.7l-.352.292a3452.59 3452.59 0 01-40.197 0c-1.024-.282-1.708-.926-2.051-1.933-.16-.969-.22-1.945-.176-2.93-.983.039-1.96-.02-2.93-.176C.983 53.433.32 52.75 0 51.747V15.419A1267.92 1267.92 0 0114.532.89zm-.703 3.632c.078 1.582.117 3.183.117 4.805.018 1.69-.04 3.37-.176 5.039a1.351 1.351 0 01-.527.41c-3.203.078-6.407.078-9.61 0 3.422-3.402 6.82-6.82 10.196-10.254z" fill="#333"/><path opacity=".937" fill-rule="evenodd" clip-rule="evenodd" d="M35.514 4.873c1.992-.02 3.984 0 5.976.058.272.13.447.345.528.645a67.46 67.46 0 010 5.625c-.276.655-.764.87-1.465.644a.88.88 0 01-.528-.527 80.259 80.259 0 01-.058-4.336c-1.407.02-2.813 0-4.22-.059-.836-.402-1.012-1.008-.526-1.816.116-.066.214-.145.293-.234z" fill="#333"/><path opacity=".941" fill-rule="evenodd" clip-rule="evenodd" d="M5.747 20.812c6.172-.02 12.344 0 18.516.059.74.305.956.832.645 1.582l-.41.41a770.26 770.26 0 01-18.986 0c-.811-.801-.733-1.485.235-2.051z" fill="#333"/><path opacity=".934" fill-rule="evenodd" clip-rule="evenodd" d="M60 55.85v1.64c-.468 1.797-1.601 2.93-3.398 3.399H54.96a6.821 6.821 0 01-1.875-.879l-7.09-7.09c-3.366 1.788-6.94 2.394-10.724 1.817-6.414-1.26-10.848-4.911-13.301-10.957-2.135-6.67-.885-12.607 3.75-17.812 5.297-4.961 11.411-6.309 18.341-4.043 7.009 3.009 10.68 8.34 11.016 15.996-.025 3.266-.904 6.273-2.637 9.023a.293.293 0 000 .351l6.68 6.68c.394.59.687 1.216.88 1.875zM37.03 22.921c6.452-.047 11.237 2.726 14.357 8.32 2.512 5.7 1.926 11.05-1.758 16.054-4.205 4.761-9.42 6.421-15.646 4.98-5.254-1.66-8.711-5.116-10.371-10.37-1.538-7.227.747-12.871 6.856-16.933a16.515 16.515 0 016.562-2.05zm9.962 8.672c.488.39.918.84 1.289 1.348-5.1 4.416-10.218 8.81-15.352 13.183l-5.157-5.274c.389-.447.8-.877 1.23-1.289l3.458 3.457c.336.171.687.21 1.054.117a636.494 636.494 0 0013.478-11.542zm3.984 17.343a184.193 184.193 0 016.74 6.797c.504 1.726-.121 2.742-1.876 3.047a1.98 1.98 0 01-1.348-.41l-6.563-6.563a21.263 21.263 0 003.047-2.87z" fill="#333"/><path opacity=".94" fill-rule="evenodd" clip-rule="evenodd" d="M5.742 24.796c5.509-.02 11.017 0 16.525.059.986.55 1.065 1.215.234 1.992a615.47 615.47 0 01-16.993 0c-.582-.408-.719-.935-.41-1.582.176-.23.39-.387.644-.469zm.117 3.981c4.649-.02 9.297 0 13.946.058.924.345 1.139.95.645 1.817a1.106 1.106 0 01-.293.176c-4.883.078-9.767.078-14.65 0-.58-.404-.717-.93-.41-1.582.236-.205.49-.362.762-.47z" fill="#333"/><path opacity=".928" fill-rule="evenodd" clip-rule="evenodd" d="M47 29.363a2.685 2.685 0 011.523.586l1.7 1.992c.398.864.32 1.684-.235 2.461L33.991 48.054c-.35.105-.702.203-1.054.293-.353-.09-.705-.188-1.055-.293l-6.036-6.035c-.42-.843-.38-1.663.118-2.46a23.879 23.879 0 012.05-1.934c.821-.288 1.602-.21 2.344.234.92.94 1.858 1.857 2.813 2.754a531.625 531.625 0 0012.423-10.605A3.81 3.81 0 0147 29.363zm0 2.227a636.698 636.698 0 01-13.477 11.542 1.465 1.465 0 01-1.055-.117l-3.457-3.457c-.432.412-.842.842-1.23 1.29l5.156 5.273a2450.349 2450.349 0 0015.352-13.184A7.037 7.037 0 0047 31.59z" fill="#333"/><path opacity=".939" fill-rule="evenodd" clip-rule="evenodd" d="M5.514 32.878c4.454-.02 8.907 0 13.36.059.599.395.736.922.41 1.582a.902.902 0 01-.761.41c-4.22.078-8.438.078-12.657 0-.933-.336-1.148-.94-.645-1.816.117-.066.214-.145.293-.235z" fill="#333"/><path opacity=".938" fill-rule="evenodd" clip-rule="evenodd" d="M5.516 36.865c4.336-.02 8.673 0 13.009.058.798.768.72 1.433-.235 1.992-4.18.079-8.36.079-12.54 0-.787-.35-.983-.917-.585-1.699.148-.092.266-.21.351-.351z" fill="#333"/><path opacity=".937" fill-rule="evenodd" clip-rule="evenodd" d="M4.574 42.843c.73-.133 1.219.14 1.465.82.059 1.406.078 2.813.059 4.22 1.485-.02 2.97 0 4.453.058.449.387.585.876.41 1.465a1.31 1.31 0 01-.761.527 36.439 36.439 0 01-5.743-.117l-.41-.41a76.221 76.221 0 010-5.977 1.29 1.29 0 01.527-.586z" fill="#333"/></svg>