<svg width="20" height="20" fill="none" xmlns="http://www.w3.org/2000/svg"><path d="M18.163 6.362a1.718 1.718 0 00-1.288-.58h-4.531V4.374a2.969 2.969 0 00-2.969-2.969.469.469 0 00-.42.26L5.96 7.656H2.5A1.094 1.094 0 001.406 8.75v6.875A1.094 1.094 0 002.5 16.719h13.438a1.718 1.718 0 001.705-1.506l.938-7.5a1.72 1.72 0 00-.418-1.35zm-15.82 9.263V8.75a.156.156 0 01.157-.156h3.281v7.187H2.5a.156.156 0 01-.156-.156zM17.65 7.597l-.938 7.5a.781.781 0 01-.774.684h-9.22V8.236l2.937-5.873a2.031 2.031 0 011.751 2.012V6.25a.469.469 0 00.469.469h5a.781.781 0 01.775.878z" fill="#333"/><path d="M17.65 7.597l-.938 7.5a.781.781 0 01-.774.684h-9.22V8.236l2.937-5.873a2.031 2.031 0 011.751 2.012V6.25a.469.469 0 00.469.469h5a.781.781 0 01.775.878z" fill="#fff"/><path d="M2.344 15.625V8.75a.156.156 0 01.156-.156h3.281v7.187H2.5a.156.156 0 01-.156-.156z" fill="#2FA9B5"/></svg>