<svg width="67" height="67" fill="none" xmlns="http://www.w3.org/2000/svg"><path opacity=".944" fill-rule="evenodd" clip-rule="evenodd" d="M30.95.844h5.944c6.473.653 12.288 2.957 17.443 6.913.37.475.477 1.014.323 1.615-.377.714-.958.95-1.744.71-9.668-7.118-20.091-8.453-31.27-4.005C11.093 11.166 5.085 19.543 3.623 31.208c-.699 10.054 2.617 18.496 9.95 25.326 2.06-7.832 6.948-12.98 14.665-15.44 8.622-2.022 15.88.24 21.772 6.783a23.948 23.948 0 014.264 8.657c7.331-6.83 10.648-15.272 9.949-25.326A31.214 31.214 0 0059.829 17.9c-.194-1.357.387-1.938 1.744-1.745.194.076.366.183.517.323 2.748 4.454 4.385 9.278 4.91 14.472v5.944c-1.605 12.497-8.022 21.563-19.252 27.199A36.214 36.214 0 0136.894 67H30.95C18.453 65.395 9.386 58.978 3.751 47.748A36.217 36.217 0 01.844 36.894V30.95C2.45 18.322 8.954 9.213 20.354 3.622A37.04 37.04 0 0130.95.844zm2.843 42.123c6.922.277 12.198 3.335 15.828 9.174a16.474 16.474 0 012.067 6.46c-8.006 5.538-16.728 7.067-26.165 4.587a33.294 33.294 0 01-9.303-4.522c1.025-7.102 4.902-11.97 11.629-14.601 1.95-.634 3.932-1 5.944-1.098z" fill="#333"/><path opacity=".943" fill-rule="evenodd" clip-rule="evenodd" d="M32.113 14.54c4.94-.46 8.839 1.306 11.693 5.297 1.927 3.37 2.272 6.901 1.034 10.596-1.728 4.053-4.764 6.486-9.11 7.3-4.943.523-8.84-1.221-11.693-5.233-1.927-3.369-2.271-6.9-1.034-10.595 1.75-4.055 4.787-6.51 9.11-7.365zm1.68 2.584c-4.2.325-7.02 2.479-8.464 6.46-.772 2.9-.299 5.57 1.421 8.012 2.87 3.317 6.38 4.286 10.531 2.907 4.866-2.518 6.524-6.416 4.975-11.694-1.678-3.585-4.5-5.48-8.464-5.685z" fill="#333"/></svg>