<svg width="20" height="20" fill="none" xmlns="http://www.w3.org/2000/svg"><path d="M18.163 13.637a1.718 1.718 0 01-1.288.582h-4.531v1.406a2.968 2.968 0 01-2.969 2.969.468.468 0 01-.42-.26l-2.995-5.99H2.5a1.094 1.094 0 01-1.094-1.094V4.375A1.094 1.094 0 012.5 3.281h13.438a1.719 1.719 0 011.705 1.506l.938 7.5a1.72 1.72 0 01-.418 1.35zM2.343 4.375v6.875a.156.156 0 00.157.156h3.281V4.22H2.5a.156.156 0 00-.156.156zm15.307 8.028l-.938-7.5a.781.781 0 00-.774-.684h-9.22v7.545l2.937 5.873a2.031 2.031 0 001.751-2.012V13.75a.47.47 0 01.469-.469h5a.784.784 0 00.775-.878z" fill="#333"/><path d="M17.65 12.403l-.938-7.5a.781.781 0 00-.774-.684h-9.22v7.545l2.937 5.873a2.031 2.031 0 001.751-2.012V13.75a.47.47 0 01.469-.469h5a.784.784 0 00.775-.878z" fill="#fff"/><path d="M2.344 4.375v6.875a.156.156 0 00.156.156h3.281V4.22H2.5a.156.156 0 00-.156.156z" fill="#2FA9B5"/></svg>