<svg width="60" height="61" fill="none" xmlns="http://www.w3.org/2000/svg"><path opacity=".934" fill-rule="evenodd" clip-rule="evenodd" d="M0 20.528v-1.636c.558-1.137 1.34-1.46 2.344-.967.887.452 1.766.923 2.636 1.413C10.154 7.606 18.064 1.456 28.711.888c7.397.173 13.706 3.546 18.926 10.118.633 1.816.183 2.907-1.348 3.273C38.694 9.272 31 9 23.203 13.461c-3.811 2.409-6.936 5.83-9.375 10.266 1.09.594 2.184 1.19 3.281 1.786.612.788.749 1.705.41 2.752A664.508 664.508 0 015.626 39.052c-1.051.764-1.891.49-2.52-.818a124.167 124.167 0 01-.644-3.72c.205-1.17.752-1.542 1.64-1.116.181.235.318.508.41.819.104.771.26 1.515.47 2.231 3.368-3.068 6.747-6.118 10.136-9.15a81.577 81.577 0 01-3.398-1.785c-.51-.556-.607-1.226-.293-2.009 4.792-9.198 11.53-14.43 20.215-15.697a24.502 24.502 0 017.851.595c1.228.377 2.44.774 3.633 1.19-6.54-5.855-13.689-7.442-21.445-4.76C14.767 7.706 9.708 13.286 6.504 21.57c-.307.543-.717.766-1.23.67a31.298 31.298 0 01-2.989-1.563c.395 2.88.844 5.757 1.348 8.63-.198 1.191-.744 1.563-1.64 1.116a2.043 2.043 0 01-.411-.968A364.963 364.963 0 000 20.528zm60 20.83v1.637c-.558 1.137-1.339 1.46-2.343.967a71.091 71.091 0 01-2.637-1.414 29.726 29.726 0 01-2.637 4.985c-1.072.324-1.56-.197-1.465-1.562a43.651 43.651 0 002.578-5.654c.223-.432.535-.68.938-.744a24.714 24.714 0 013.281 1.636 306.708 306.708 0 00-2.695-15.77 1517.177 1517.177 0 01-10.137 9.15 81.758 81.758 0 013.399 1.785c.509.556.607 1.225.293 2.008-4.793 9.199-11.532 14.431-20.215 15.697a24.499 24.499 0 01-7.852-.595 101.904 101.904 0 01-3.633-1.19c6.065 5.425 12.745 7.161 20.04 5.207 4.48-1.38 8.348-4.108 11.6-8.183.878-.604 1.464-.307 1.759.893a4.65 4.65 0 01-.176.818c-6.89 8.338-15.035 11.388-24.434 9.15-5.15-1.495-9.583-4.594-13.3-9.299-.633-1.815-.184-2.906 1.347-3.273 7.596 5.008 15.291 5.28 23.086.819 3.812-2.41 6.937-5.831 9.375-10.267-1.09-.594-2.183-1.189-3.281-1.785-.611-.788-.748-1.706-.41-2.753a444.24 444.24 0 0112.246-11.084c.968-.384 1.69-.012 2.168 1.116A2234.11 2234.11 0 0060 41.358z" fill="#333"/></svg>