<svg width="52" height="52" fill="none" xmlns="http://www.w3.org/2000/svg"><path opacity=".944" fill-rule="evenodd" clip-rule="evenodd" d="M23.828.4h4.521c9.001 1.07 15.75 5.503 20.244 13.3 2.894 5.58 3.698 11.446 2.411 17.6-2.392 9.348-8.168 15.598-17.33 18.75-6.744 1.935-13.257 1.352-19.541-1.75a878.842 878.842 0 00-12.207 3.3H.921c-.477-.384-.627-.884-.452-1.5 1.1-3.96 2.221-7.91 3.366-11.85-3.958-7.4-4.343-14.984-1.156-22.75a21.061 21.061 0 012.964-4.85c.88-.278 1.416.039 1.608.95a2.913 2.913 0 01-.251.7c-4.14 5.99-5.312 12.523-3.517 19.6a33.004 33.004 0 002.562 6.15 1041.352 1041.352 0 01-3.114 11c3.773-.99 7.557-1.973 11.353-2.95.923.326 1.827.71 2.712 1.15 8.786 3.294 16.857 2.06 24.213-3.7 6.995-6.355 9.524-14.172 7.585-23.45-2.233-7.822-7.14-13.24-14.718-16.25-7.822-2.578-15.123-1.545-21.902 3.1-.94.099-1.391-.318-1.357-1.25a1.53 1.53 0 01.553-.75C15.134 2.374 19.286.857 23.828.4z" fill="#333"/><path opacity=".944" fill-rule="evenodd" clip-rule="evenodd" d="M23.96 4.39c8.02-.502 14.487 2.39 19.403 8.68 4.46 6.585 5.258 13.601 2.394 21.048a21.616 21.616 0 01-2.045 3.641c-1.108.502-1.69.153-1.746-1.047 3.729-5.828 4.36-11.98 1.895-18.455-2.966-6.49-7.97-10.364-15.013-11.622-7.6-.795-13.736 1.815-18.405 7.831-3.85 5.69-4.614 11.775-2.294 18.255a77.043 77.043 0 002.344 4.69 187.109 187.109 0 01-1.596 5.735l.1.15a111.473 111.473 0 015.935-1.596c1.226.537 2.44 1.12 3.641 1.745 6.425 2.49 12.544 1.892 18.355-1.795 1.041-.223 1.523.193 1.447 1.247a1.793 1.793 0 01-.948.947c-7.549 4.306-15.114 4.322-22.694.05-2.28.608-4.558 1.223-6.834 1.846-1.094.267-1.61-.15-1.546-1.247a270.578 270.578 0 011.945-6.883c-3.966-6.39-4.614-13.107-1.945-20.151 2.027-4.62 5.236-8.161 9.627-10.624a22.709 22.709 0 017.98-2.444z" fill="#333"/><path opacity=".942" fill-rule="evenodd" clip-rule="evenodd" d="M16.57 12.36c.96-.04 1.914.01 2.86.149.504.186.895.501 1.175.945a239.284 239.284 0 012.248 5.073c.277.908.174 1.77-.306 2.587a18 18 0 00-1.482 1.741c1.957 2.983 4.613 5.156 7.969 6.516a16.829 16.829 0 001.686-2.089c.725-.808 1.627-1.09 2.707-.845a96.168 96.168 0 015.312 2.487c.432.358.721.806.869 1.343.342 3.745-1.377 5.983-5.16 6.715-1.73.233-3.433.1-5.108-.398-7.853-2.507-13.386-7.465-16.601-14.873-.705-2.378-.467-4.667.715-6.865a5.994 5.994 0 013.116-2.487zm.409 2.088c-.53.266-.99.63-1.38 1.095-1.409 2.198-1.51 4.453-.306 6.765 3.081 5.785 7.764 9.815 14.047 12.087a9.497 9.497 0 005.313.398c2.189-.618 3.108-2.011 2.758-4.178l-4.597-2.139a2.188 2.188 0 00-.766.597 12.135 12.135 0 01-1.686 2.04c-.684.369-1.4.435-2.145.198-3.676-1.456-6.622-3.793-8.838-7.013-.62-.864-.689-1.759-.204-2.686l1.635-1.791a.898.898 0 000-.597l-2.095-4.676a7.67 7.67 0 00-1.736-.1z" fill="#333"/></svg>