<svg width="63" height="63" fill="none" xmlns="http://www.w3.org/2000/svg"><path opacity=".946" fill-rule="evenodd" clip-rule="evenodd" d="M28.99.603c9.095-.614 17.049 2.059 23.861 8.02a25.82 25.82 0 012.983 3.247c.176 1.68-.553 2.322-2.187 1.923C46.064 5.299 36.652 2.117 25.41 4.248 15.279 6.956 8.452 13.253 4.93 23.138a36.509 36.509 0 00-1.46 10.605 1.465 1.465 0 01-.728.73c-1.073.292-1.758-.084-2.055-1.127C.393 23.002 4.127 14.452 11.89 7.695c5.004-4.033 10.704-6.397 17.1-7.092zM56.3 14.389c.78-.153 1.421.068 1.922.663 5.174 8.692 6.146 17.84 2.917 27.44-4.14 10.37-11.63 16.932-22.47 19.686-11.665 2.209-21.629-.907-29.892-9.346-3.014-3.33-5.201-7.151-6.562-11.467.078-.934.587-1.443 1.524-1.524.477.084.875.304 1.193.663 3.281 9.07 9.49 15.145 18.625 18.227 10.766 2.837 20.2.473 28.302-7.092 7.85-8.575 10.014-18.43 6.496-29.562a58.761 58.761 0 00-2.983-6.296c.099-.62.408-1.084.928-1.392z" fill="#333"/><path opacity=".945" fill-rule="evenodd" clip-rule="evenodd" d="M14.015 26.451c4.485-.133 6.716 2.032 6.695 6.496-.93 3.625-3.25 5.194-6.96 4.706-3.06-.984-4.495-3.083-4.308-6.297.506-2.613 2.03-4.248 4.573-4.905zm.53 2.916c1.923-.034 3.027.894 3.315 2.784-.52 2.292-1.89 3.066-4.11 2.32-1.366-.972-1.697-2.23-.994-3.778a3.797 3.797 0 011.79-1.326z" fill="#333"/><path opacity=".946" fill-rule="evenodd" clip-rule="evenodd" d="M30.984 26.451c4.48-.138 6.711 2.028 6.695 6.496-.93 3.625-3.25 5.194-6.96 4.706-3.586-1.273-4.934-3.77-4.043-7.49.849-1.932 2.285-3.169 4.308-3.712zm.53 2.917c1.884-.032 2.989.874 3.315 2.717-.572 2.474-2.03 3.225-4.375 2.254-1.294-1.24-1.448-2.587-.464-4.043a5.483 5.483 0 011.525-.928zm16.438-2.916c3.298-.264 5.486 1.15 6.562 4.242.497 4.173-1.337 6.56-5.502 7.158-3.849-.467-5.726-2.632-5.634-6.495.457-2.644 1.982-4.279 4.574-4.905zm.53 2.916c1.886-.03 2.99.875 3.314 2.718-.567 2.47-2.025 3.222-4.375 2.254-1.315-1.228-1.47-2.576-.464-4.044a5.485 5.485 0 011.525-.928z" fill="#333"/></svg>