<svg width="57" height="57" fill="none" xmlns="http://www.w3.org/2000/svg"><path opacity=".928" fill-rule="evenodd" clip-rule="evenodd" d="M9.06.975h2.84c4.403.963 7.079 3.657 8.027 8.082.394 3.151-.498 5.864-2.676 8.138.464.259.92.532 1.365.819.448.762.321 1.4-.382 1.911a192.48 192.48 0 01-9.175 0C4.634 18.976 1.94 16.3.977 11.897V8.948c.699-3.341 2.592-5.763 5.68-7.263a17.9 17.9 0 012.402-.71zm1.31 1.638c3.766.253 6.296 2.147 7.591 5.68.59 2.235.3 4.347-.874 6.335l-1.857 2.294c-.11.463-.02.882.274 1.255a88.528 88.528 0 01-6.226 0c-3.55-.782-5.716-2.948-6.5-6.498-.388-3.5.905-6.177 3.878-8.028a9.392 9.392 0 013.714-1.038z" fill="#333"/><path opacity=".944" fill-rule="evenodd" clip-rule="evenodd" d="M32.702 1.085h3.379c5.462 1.01 9.041 4.171 10.737 9.483.151.574.26 1.155.327 1.745l.11 5.886a8.89 8.89 0 001.09 3.815c.698.852 1.316 1.76 1.852 2.725 1.28 3.611.353 6.5-2.78 8.666a8.344 8.344 0 01-.98.437 42.305 42.305 0 003.706 1.635c2.77 1.208 4.46 3.297 5.069 6.267.054 4.506.072 9.011.054 13.517.438-.018.874 0 1.308.055.095.114.204.204.327.272v.981a.714.714 0 00-.327.327H1.417a.714.714 0 00-.327-.327v-.98c.123-.069.232-.16.327-.273 6.395-.055 12.79-.073 19.185-.055a883.651 883.651 0 00-1.253-12.318c-.214-1.565.422-2.6 1.907-3.106.98-.055 1.962-.073 2.943-.055v-4.687c-2.02.792-4.018 1.646-5.995 2.562-1.675 1.059-2.71 2.567-3.107 4.524l-.109 10.791c-.2.617-.617.817-1.253.6a.51.51 0 01-.382-.382 166.79 166.79 0 01.11-11.882c.565-2.17 1.782-3.86 3.65-5.068l5.124-2.344c-3.362-1.492-4.798-4.072-4.306-7.74a7.09 7.09 0 01.872-2.18c1.46-1.612 2.332-3.501 2.617-5.668l.109-5.886c.894-5.586 4.037-9.238 9.429-10.956a80.5 80.5 0 011.744-.381zm1.526 1.635a12.09 12.09 0 015.995 1.744c.118.094.136.203.055.327-4.048 6.067-9.734 9.119-17.06 9.157.19-4.686 2.37-8.083 6.54-10.192a13.338 13.338 0 014.47-1.036zm7.521 20.602c-.732 2.64-2.44 4.257-5.123 4.851a50.396 50.396 0 01-4.687 0c-2.723-.616-4.45-2.269-5.178-4.96a95.064 95.064 0 01-.164-7.63c6.53-1.103 11.599-4.41 15.207-9.92 2.453 2.252 3.67 5.05 3.652 8.394-2.414.214-4.594-.385-6.54-1.799-1.12-.135-1.483.319-1.09 1.363a9.514 9.514 0 004.032 1.962 30.6 30.6 0 01.055 4.47c-.55 1.349-1.477 2.348-2.78 2.997a.273.273 0 01-.327 0 2.57 2.57 0 00-1.635-1.09 18.442 18.442 0 00-2.834 0c-1.501.439-2.137 1.438-1.908 2.997.236.963.836 1.563 1.799 1.799 1.017.073 2.035.073 3.052 0 .934-.244 1.552-.825 1.853-1.744a16.304 16.304 0 002.616-1.69zm-18.53-7.63h1.634c-.018 2.362 0 4.724.055 7.085.402 2.787 1.801 4.912 4.197 6.377-.664 2.132-2.118 3.24-4.36 3.325-3.17-.15-4.913-1.803-5.233-4.96.04-.619.167-1.218.381-1.798l2.072-3.162a12.62 12.62 0 001.253-6.867zm20.492.109h1.745c-.353 3.428.573 6.444 2.78 9.047 1.287 2.39.978 4.553-.927 6.486-2.186 1.514-4.366 1.514-6.54 0a4.545 4.545 0 01-1.309-2.289c2.387-1.376 3.786-3.428 4.197-6.159.054-2.361.073-4.723.054-7.085zm-9.047 7.848c.845-.043 1.68.012 2.507.164.348.492.276.891-.218 1.199-.8.073-1.599.073-2.398 0-.602-.499-.566-.953.109-1.363zm-3.924 6.105c2.363.272 4.725.29 7.085.054a5.876 5.876 0 002.507 3.38c.753.33 1.498.676 2.235 1.035.054.58.072 1.162.054 1.744-5.506 1.534-11.03 1.588-16.569.164a4.31 4.31 0 010-1.908 9.606 9.606 0 003.162-1.744 5.667 5.667 0 001.526-2.725zm13.625 5.232c2.019.8 4.017 1.654 5.996 2.562 2.036 1.255 3.108 3.09 3.216 5.505.054 4.069.072 8.139.054 12.208-1.637.037-3.272 0-4.905-.109.484-4.265.956-8.535 1.417-12.808-.045-1.316-.699-2.152-1.962-2.507-1.271-.055-2.543-.073-3.816-.055v-4.796zm-2.18 2.834h.436v1.962H25.943a7.88 7.88 0 01.11-1.853 33.24 33.24 0 0012.426.709 22.397 22.397 0 003.706-.818zm-20.602 3.706c8.839-.053 17.668.001 26.489.164.17.184.28.402.327.654-.485 4.304-.957 8.61-1.417 12.917-8.176.018-16.351 0-24.527-.054-.487-4.244-.96-8.495-1.417-12.754.003-.425.184-.733.545-.927z" fill="#333"/><path opacity=".844" fill-rule="evenodd" clip-rule="evenodd" d="M6.918 9.641c.89-.073 1.271.326 1.145 1.2-.243.475-.624.638-1.145.49-.475-.243-.638-.624-.49-1.144a1.2 1.2 0 01.49-.546zm3.274 0c.89-.073 1.27.326 1.144 1.2-.242.475-.624.638-1.144.49-.475-.243-.639-.624-.49-1.144a1.2 1.2 0 01.49-.546zm3.269 0c.89-.073 1.271.326 1.145 1.2-.243.475-.624.638-1.145.49-.475-.243-.639-.624-.49-1.144a1.2 1.2 0 01.49-.546z" fill="#333"/><path opacity=".927" fill-rule="evenodd" clip-rule="evenodd" d="M35.081 45.465c2.302-.168 3.574.886 3.816 3.16-.131 1.93-1.167 2.984-3.107 3.162-1.919-.193-2.99-1.246-3.216-3.161.16-1.612.996-2.665 2.507-3.161zm.218 1.744c-.787.447-1.06 1.101-.817 1.962.682 1.001 1.481 1.11 2.398.327.579-1.512.052-2.276-1.58-2.29z" fill="#333"/></svg>