<svg width="71" height="71" fill="none" xmlns="http://www.w3.org/2000/svg"><path opacity=".927" fill-rule="evenodd" clip-rule="evenodd" d="M18.43.844h3.7c8.887 1.326 14.756 6.259 17.608 14.798 4.99-3.14 10.357-3.985 16.1-2.535 7.149 2.216 11.83 6.897 14.045 14.045.236 1.019.442 2.023.617 3.015v4.659c-.793 5.766-3.533 10.356-8.221 13.77-1 .144-1.479-.29-1.44-1.301l3.426-3.426c4.433-5.816 5.255-12.119 2.467-18.909-3.39-6.539-8.78-10.01-16.169-10.414-7.527.405-12.962 3.967-16.306 10.688-3.013 7.975-1.437 14.895 4.727 20.76 5.953 4.634 12.416 5.479 19.39 2.534.991.236 1.31.83.959 1.781a15.814 15.814 0 01-6.235 1.987c-2.779.31-5.52.104-8.221-.616-.532 7.485-4.003 13.126-10.414 16.922A22.073 22.073 0 0126.653 71h-3.7c-8.698-1.257-14.476-6.053-17.334-14.388-1.8-6.934-.452-13.169 4.042-18.703a20.375 20.375 0 01-3.083-2.535c-.257-1.113.177-1.638 1.302-1.576a35.232 35.232 0 003.426 2.398c5.597-4.773 11.969-6.235 19.115-4.385.42-5.932 2.863-10.842 7.33-14.73C35.55 8.988 30.297 4.33 21.994 3.105 14.938 2.716 9.388 5.388 5.345 11.12c-3.069 5.016-3.663 10.314-1.781 15.895a25.15 25.15 0 002.33 4.385c.088.962-.346 1.441-1.303 1.439a4.047 4.047 0 01-.616-.343A21.638 21.638 0 01.344 23.18v-4.66C2.217 8.38 8.246 2.489 18.43.845zm4.934 32.337a19.17 19.17 0 017.125.96c1.06 7.72 5.079 13.27 12.058 16.648-.178 7.845-3.832 13.418-10.962 16.717-7.956 2.721-14.784 1.008-20.485-5.139-4.668-6.22-5.307-12.842-1.918-19.868 3.224-5.394 7.952-8.5 14.182-9.318z" fill="#333"/><path opacity=".946" fill-rule="evenodd" clip-rule="evenodd" d="M12.404 15.092c1-.128 1.753.238 2.26 1.097a7.279 7.279 0 01.412 4.658c-.347 1.54-1.284 2.202-2.81 1.987-1.085-.782-1.655-1.855-1.712-3.22a6.111 6.111 0 01.822-3.7 2.94 2.94 0 011.028-.822zm14.657.002c1.402-.083 2.293.556 2.672 1.918.53 1.701.394 3.346-.41 4.933-.756 1.018-1.692 1.224-2.81.617A4.157 4.157 0 0125.35 20.3c-.324-1.698-.004-3.251.959-4.659a4.86 4.86 0 00.753-.548z" fill="#333"/><path opacity=".92" fill-rule="evenodd" clip-rule="evenodd" d="M18.843 24.825c3.303-.338 6.113.666 8.427 3.014.508.73.394 1.348-.343 1.85a1.267 1.267 0 01-.822 0 12.588 12.588 0 00-3.151-2.192c-2.423-.847-4.707-.573-6.851.822l-1.645 1.37c-1.347-.025-1.735-.641-1.164-1.85 1.554-1.565 3.404-2.57 5.55-3.014z" fill="#333"/><path opacity=".945" fill-rule="evenodd" clip-rule="evenodd" d="M42.684 26.605c1.192-.17 2.037.287 2.535 1.37.708 1.826.617 3.608-.274 5.344-1.153 1.306-2.25 1.26-3.288-.137-.857-1.94-.811-3.858.137-5.755.282-.306.58-.58.89-.822zm14.526-.003c1.271-.128 2.116.42 2.535 1.645.652 1.988.4 3.838-.754 5.55-1.348.843-2.375.546-3.083-.892-.743-1.947-.606-3.82.411-5.618.27-.28.566-.509.891-.685z" fill="#333"/><path opacity=".919" fill-rule="evenodd" clip-rule="evenodd" d="M42.689 36.88a2.01 2.01 0 011.096.205c1.005 2.285 2.695 3.792 5.07 4.522 3.837.605 6.6-.834 8.29-4.316.473-.448.998-.517 1.576-.206.266.236.403.533.41.891-1.24 3.408-3.66 5.395-7.262 5.96-4.565.402-7.831-1.448-9.797-5.549-.168-.668.038-1.17.617-1.507z" fill="#333"/><path opacity=".946" fill-rule="evenodd" clip-rule="evenodd" d="M17.199 44.828c.776.011 1.392.33 1.85.96.718 1.376.946 2.838.685 4.384-.15 1.01-.63 1.81-1.439 2.398-1.52.414-2.503-.157-2.946-1.713-.516-1.7-.38-3.344.411-4.933a3.32 3.32 0 011.439-1.096z" fill="#333"/><path opacity=".945" fill-rule="evenodd" clip-rule="evenodd" d="M31.861 44.828c1.365.108 2.21.838 2.535 2.192.407 1.672.225 3.27-.548 4.796-1.243 1.335-2.385 1.244-3.426-.274-.972-2.206-.767-4.285.617-6.234.265-.2.539-.36.822-.48z" fill="#333"/><path opacity=".93" fill-rule="evenodd" clip-rule="evenodd" d="M16.238 55.378c5.755-.023 11.51 0 17.265.068.741.272.992.797.754 1.576l-.48.48c-5.937.091-11.875.091-17.813 0-.628-.379-.788-.904-.48-1.576a1.52 1.52 0 01.754-.548z" fill="#333"/></svg>