<svg width="45" height="32" fill="none" xmlns="http://www.w3.org/2000/svg"><path opacity=".965" fill-rule="evenodd" clip-rule="evenodd" d="M44.602 1.778v28.444c-.28.912-.853 1.49-1.72 1.731-13.52.063-27.04.063-40.562 0-.866-.242-1.44-.819-1.718-1.73V1.777C.88.866 1.454.288 2.32.047a4352.82 4352.82 0 0140.563 0c.866.242 1.44.819 1.719 1.73zm-40.735.187a2488.79 2488.79 0 0137.469-.047L23.976 16.14c-.916.686-1.833.686-2.75 0A3179.902 3179.902 0 003.868 1.965zM2.32 3.18a3478.368 3478.368 0 0117.875 14.55c1.205.83 2.494 1.018 3.867.561a6.11 6.11 0 001.204-.748A2103.82 2103.82 0 0142.84 3.18c.057 8.484.057 16.967 0 25.45l-9.281-12.537c-.625-.656-1.17-.594-1.633.187a1.36 1.36 0 00.172 1.029l9.496 12.772a3878.68 3878.68 0 01-37.985 0 663.48 663.48 0 009.668-13.146c.14-.93-.218-1.351-1.074-1.264a1.21 1.21 0 00-.558.422L2.363 28.632c-.043-8.484-.057-16.967-.043-25.45z" fill="#333"/></svg>