<svg width="60" height="61" fill="none" xmlns="http://www.w3.org/2000/svg"><path opacity=".93" fill-rule="evenodd" clip-rule="evenodd" d="M27.186.96C37.667.326 46.342 3.937 53.21 11.794c6.51 8.421 8.34 17.785 5.486 28.093-3.677 10.587-10.924 17.343-21.743 20.266-11.57 2.3-21.404-.8-29.503-9.297C.308 42.178-1.699 32.413 1.429 21.56 5.359 10.689 12.963 3.978 24.242 1.428c1.001-.153 1.983-.309 2.944-.469zm2.408 2.14c12.19.449 20.865 6.156 26.025 17.123 3.621 9.513 2.596 18.476-3.078 26.888-5.662 7.39-13.177 11.27-22.545 11.639-10.93-.5-19.114-5.45-24.553-14.85-3.693-7.476-4.139-15.146-1.338-23.008 3.774-8.99 10.398-14.676 19.87-17.056a40.296 40.296 0 015.62-.736z" fill="#333"/><path opacity=".929" fill-rule="evenodd" clip-rule="evenodd" d="M29.462 5.773c9.685.08 17.111 4.183 22.278 12.308 2.542 4.252 3.59 8.823 3.145 13.711a2.004 2.004 0 01-1.338.134.627.627 0 01-.468-.468c-.216-8.17-3.584-14.657-10.102-19.464-4.194-2.69-8.788-4.118-13.782-4.28a1.803 1.803 0 01-.2-1.405.935.935 0 01.467-.536z" fill="#333"/><path opacity=".912" fill-rule="evenodd" clip-rule="evenodd" d="M18.491 17.01c1.204-.167 2.275.123 3.212.87a720.346 720.346 0 008.295 8.227c2.924-2.9 5.867-5.776 8.831-8.628 1.763-.846 3.301-.556 4.616.87.625 1.248.625 2.497 0 3.745a805.755 805.755 0 01-8.63 8.83 806.64 806.64 0 018.63 8.828c.815 1.676.57 3.17-.736 4.482-1.262.749-2.555.794-3.88.133A805.726 805.726 0 0130 35.74a804.834 804.834 0 01-8.832 8.629c-1.593.767-3.042.567-4.348-.602-.867-1.283-.956-2.621-.268-4.014a805.726 805.726 0 018.63-8.829 720.366 720.366 0 00-8.228-8.294c-.878-1.122-1.1-2.37-.67-3.745.48-.95 1.216-1.574 2.208-1.873zm.402 2.275c-.556.436-.668.97-.335 1.605l9.366 9.364c.268.446.268.892 0 1.338l-9.366 9.364c-.19.339-.235.695-.134 1.07.411.563.924.675 1.54.335l9.365-9.364c.446-.268.892-.268 1.338 0l9.366 9.364c1.36.424 1.83-.045 1.405-1.405l-9.366-9.364c-.267-.446-.267-.892 0-1.338l9.366-9.364c.19-.338.235-.695.134-1.07-.41-.563-.924-.674-1.539-.334l-9.366 9.364c-.446.267-.892.267-1.338 0l-9.366-9.364a1.964 1.964 0 00-1.07-.201z" fill="#333"/><path opacity=".928" fill-rule="evenodd" clip-rule="evenodd" d="M5.378 29.854c.36-.022.716 0 1.07.067a.627.627 0 01.469.468c.379 9.885 4.95 17.042 13.714 21.47 1.265.526 2.559.972 3.88 1.338 2.09.406 4.186.718 6.29.937.598 1.677-.004 2.324-1.807 1.94-9.971-.7-17.24-5.471-21.81-14.314A23.357 23.357 0 014.91 30.389a.935.935 0 01.468-.535z" fill="#333"/></svg>