<svg width="60" height="40" fill="none" xmlns="http://www.w3.org/2000/svg"><path d="M23.586 9.518H36.42V30.48H23.586V9.518z" fill="#FF5F00"/><path d="M24.908 20a13.308 13.308 0 015.091-10.479 13.33 13.33 0 100 20.963A13.307 13.307 0 0124.909 20z" fill="#EB001B"/><path d="M50.294 28.262v-.429h.186v-.089h-.44v.089h.173v.43h.081zm.856 0v-.518h-.133l-.156.37-.155-.37h-.134v.518h.096v-.392l.145.337h.1l.144-.337v.392h.093zm.42-8.261A13.33 13.33 0 0130 30.481a13.33 13.33 0 000-20.963 13.33 13.33 0 0121.57 10.48V20z" fill="#F79E1B"/></svg>