<svg width="60" height="40" fill="none" xmlns="http://www.w3.org/2000/svg"><mask id="a" style="mask-type:luminance" maskUnits="userSpaceOnUse" x="6" y="12" width="48" height="16"><path d="M30.794 17.313c-.027 2.076 1.85 3.235 3.263 3.923 1.453.707 1.94 1.16 1.935 1.792-.011.968-1.158 1.395-2.233 1.411-1.873.03-2.963-.506-3.829-.91l-.675 3.158c.87.4 2.478.75 4.147.765 3.916 0 6.479-1.933 6.493-4.931.015-3.804-5.263-4.015-5.226-5.716.012-.515.504-1.065 1.582-1.205.534-.07 2.007-.125 3.677.644l.656-3.056c-.898-.327-2.053-.64-3.49-.64-3.687 0-6.28 1.96-6.3 4.765zm16.089-4.502a1.7 1.7 0 00-1.587 1.058L39.7 27.228h3.914l.779-2.153h4.782l.452 2.153h3.45l-3.01-14.417h-3.185zm.547 3.895l1.13 5.413h-3.094l1.964-5.413zM26.048 12.81l-3.085 14.417h3.73l3.083-14.417h-3.728zm-5.517 0l-3.882 9.813-1.57-8.344c-.185-.931-.912-1.469-1.72-1.469H7.013l-.09.419c1.304.283 2.784.739 3.68 1.226.55.298.706.559.886 1.267l2.974 11.505h3.942l6.042-14.417h-3.916z" fill="#fff"/></mask><g mask="url(#a)"><path d="M2.09 14.328L47.565-2.42l10.346 28.093L12.435 42.42" fill="url(#paint0_linear_5371_64214)"/></g><defs><linearGradient id="paint0_linear_5371_64214" x1="11.104" y1="26.999" x2="50.002" y2="12.674" gradientUnits="userSpaceOnUse"><stop stop-color="#222357"/><stop offset="1" stop-color="#254AA5"/></linearGradient></defs></svg>