<svg width="60" height="40" fill="none" xmlns="http://www.w3.org/2000/svg"><path d="M28.751 19.79v5.373h-1.704V11.895h4.52a4.087 4.087 0 012.927 1.149 3.692 3.692 0 011.223 2.8 3.676 3.676 0 01-1.223 2.816c-.79.753-1.766 1.13-2.927 1.13h-2.816zm0-6.261v4.631h2.858a2.253 2.253 0 001.687-.686 2.262 2.262 0 000-3.242 2.223 2.223 0 00-1.687-.704h-2.858zm10.893 2.26c1.26 0 2.254.336 2.983 1.01.73.673 1.093 1.596 1.092 2.769v5.595h-1.63v-1.26h-.074c-.706 1.037-1.644 1.556-2.816 1.556-1 0-1.836-.296-2.51-.89a2.839 2.839 0 01-1.01-2.222c0-.94.356-1.687 1.066-2.241.71-.555 1.657-.833 2.843-.834 1.012 0 1.845.185 2.5.555v-.39a1.941 1.941 0 00-.704-1.508 2.413 2.413 0 00-1.645-.621c-.952 0-1.705.401-2.26 1.205l-1.5-.946c.825-1.185 2.047-1.778 3.665-1.778zm-2.205 6.595a1.36 1.36 0 00.565 1.111 2.08 2.08 0 001.325.445 2.717 2.717 0 001.917-.796c.564-.531.846-1.155.846-1.87-.53-.424-1.272-.636-2.222-.636-.693 0-1.27.167-1.732.501-.467.339-.699.75-.699 1.245zm15.638-6.299l-5.69 13.08h-1.76l2.112-4.577-3.742-8.503h1.852l2.705 6.521h.037l2.63-6.52h1.856z" fill="#5F6368"/><path d="M21.864 18.632c0-.52-.043-1.038-.131-1.55h-7.188v2.935h4.117a3.528 3.528 0 01-1.522 2.317v1.905h2.456c1.44-1.326 2.268-3.288 2.268-5.607z" fill="#4285F4"/><path d="M14.544 26.08c2.057 0 3.789-.675 5.052-1.84l-2.457-1.905c-.684.463-1.565.728-2.595.728-1.988 0-3.675-1.34-4.279-3.146h-2.53v1.964a7.622 7.622 0 006.81 4.2z" fill="#34A853"/><path d="M10.267 19.917a4.567 4.567 0 010-2.917v-1.964H7.735a7.622 7.622 0 000 6.845l2.532-1.964z" fill="#FBBC04"/><path d="M14.544 13.853a4.138 4.138 0 012.924 1.144l2.175-2.176a7.323 7.323 0 00-5.099-1.985 7.622 7.622 0 00-6.81 4.2L10.265 17c.604-1.806 2.291-3.147 4.28-3.147z" fill="#EA4335"/></svg>