<svg width="45" height="28" fill="none" xmlns="http://www.w3.org/2000/svg"><g clip-path="url(#clip0_5371_64240)"><path d="M8.766 0h11.172c1.56 0 2.53 1.27 2.166 2.836l-5.201 22.332c-.368 1.56-1.93 2.832-3.49 2.832H2.244C.683 28-.288 26.727.075 25.168L5.28 2.836C5.644 1.27 7.204 0 8.766 0z" fill="#E21836"/><path d="M19.01 0h12.848c1.559 0 .856 1.27.489 2.836l-5.2 22.332c-.365 1.56-.252 2.832-1.815 2.832H12.485c-1.563 0-2.53-1.273-2.163-2.832l5.201-22.332C15.892 1.27 17.45 0 19.009 0z" fill="#00447C"/><path d="M31.347 0h11.176c1.562 0 2.532 1.27 2.165 2.836l-5.204 22.332c-.368 1.56-1.93 2.832-3.492 2.832H24.825c-1.563 0-2.531-1.273-2.166-2.832L27.86 2.836C28.225 1.27 29.784 0 31.347 0z" fill="#007B84"/><path d="M11.684 7.153c-1.15.012-1.49 0-1.597-.025-.041.199-.816 3.776-.82 3.776-.166.723-.288 1.239-.695 1.572a1.25 1.25 0 01-.825.287c-.51 0-.806-.254-.856-.733l-.009-.164.155-.975c0-.005.812-3.255.954-3.685a.297.297 0 00.012-.05c-1.584.014-1.864 0-1.888-.025-.01.035-.05.237-.05.237l-.83 3.676-.069.309-.138 1.02c-.008.263.053.524.178.756.378.662 1.457.761 2.069.761.786 0 1.525-.167 2.023-.473.867-.511 1.093-1.311 1.292-2.021l.1-.365s.835-3.381.979-3.825a.135.135 0 01.015-.053zm2.851 2.731a2.21 2.21 0 00-.903.212c-.12.062-.233.133-.354.199l.109-.392-.06-.065c-.703.142-.86.162-1.51.253l-.055.036c-.092.783-.233 1.56-.422 2.326-.106.453-.216.91-.328 1.362l.03.058c.666-.035.868-.035 1.447-.026l.046-.051c.074-.377.084-.465.247-1.228.076-.362.236-1.155.315-1.439.13-.073.274-.119.423-.133.324 0 .285.283.272.398-.014.19-.132.807-.253 1.338l-.08.343c-.057.253-.119.496-.176.75l.025.05a15.82 15.82 0 011.417-.026l.066-.051c.099-.588.13-.745.31-1.602l.091-.397c.176-.771.263-1.162.131-1.48-.14-.346-.478-.432-.788-.432v-.003zm3.187.806c-.35.068-.572.112-.795.141-.224.03-.432.067-.77.114l-.027.024-.024.02c-.036.25-.06.467-.106.722-.047.256-.1.565-.199.994-.039.19-.092.379-.159.561a4.79 4.79 0 00-.176.553l.021.03.017.027c.315-.014.52-.025.732-.027.212-.002.431 0 .771 0l.03-.024.03-.027c.05-.292.058-.372.087-.514.03-.142.082-.364.207-.93.06-.267.125-.531.187-.802.061-.272.13-.537.198-.802l-.008-.033-.016-.027zm.007-1.087c-.317-.187-.874-.127-1.247.131-.374.259-.417.612-.1.802.317.19.87.128 1.241-.133.37-.261.418-.611.106-.797v-.003zm1.917 4.333c.64 0 1.299-.177 1.788-.701.381-.426.556-1.058.616-1.319.2-.864.044-1.267-.149-1.513-.298-.375-.81-.497-1.345-.497-.323 0-1.093.032-1.689.585-.43.397-.63.94-.75 1.459-.12.519-.26 1.481.615 1.835.293.107.603.159.914.154v-.003zm-.05-1.943c.148-.654.322-1.204.767-1.204.35 0 .375.409.22 1.066-.028.145-.155.686-.328.918-.12.17-.262.273-.42.273-.047 0-.325 0-.33-.414.006-.215.036-.428.09-.636v-.003zm4.062 1.859l.05-.051c.071-.377.083-.465.24-1.227.08-.362.243-1.157.32-1.44.13-.074.275-.12.424-.133.322 0 .284.283.27.398-.06.45-.145.897-.253 1.338l-.076.343c-.059.253-.122.496-.18.75l.026.05c.658-.035.85-.035 1.415-.026l.067-.051c.1-.588.126-.746.311-1.602l.088-.397c.176-.77.266-1.16.136-1.479-.145-.355-.484-.442-.79-.442-.313.006-.62.078-.903.212-.118.062-.236.133-.352.199l.1-.39-.055-.067c-.704.143-.864.162-1.514.253l-.05.036c-.093.783-.234 1.56-.421 2.326-.107.453-.217.91-.328 1.362l.03.057c.67-.025.868-.025 1.445-.016v-.003zm4.839.025c.04-.198.287-1.4.289-1.4.002 0 .21-.878.222-.91a.526.526 0 01.131-.128h.1c.915 0 1.947 0 2.757-.596a2.94 2.94 0 001.093-1.744c.048-.2.074-.404.075-.609a1.275 1.275 0 00-.22-.775c-.412-.578-1.234-.588-2.185-.596h-.468c-1.215.015-1.702.01-1.902-.014l-.048.246-.436 2.02c0 .003-1.042 4.288-1.093 4.49 1.067 0 1.504 0 1.685.02v-.004zm.805-3.582l.461-2.005.015-.1.006-.078.185.019.977.084c.376.145.532.52.424 1.012a1.471 1.471 0 01-.763 1.006c-.308.154-.685.167-1.072.167h-.252l.02-.105zm2.882 1.735c-.123.521-.264 1.473.608 1.813a1.7 1.7 0 00.78.14c.278-.03.539-.15.743-.341l-.062.237.04.052c.626-.027.82-.027 1.5-.022l.06-.046c.1-.584.194-1.149.45-2.264.127-.534.252-1.063.381-1.59l-.02-.058c-.696.13-.889.157-1.562.253l-.052.042-.02.158a.96.96 0 00-.492-.404c-.298-.119-1.004.033-1.61.585-.424.391-.63.93-.744 1.447v-.002zm1.471.031c.15-.642.323-1.185.769-1.185.283 0 .431.26.398.704-.024.112-.05.229-.081.36-.045.192-.093.38-.14.57-.04.118-.096.23-.166.333a.77.77 0 01-.546.264c-.044 0-.32 0-.33-.406a2.86 2.86 0 01.096-.637v-.003zm7.688-2.12l-.054-.063c-.695.142-.82.163-1.456.25l-.047.046c0 .008-.005.02-.008.03v-.01c-.475 1.092-.46.858-.846 1.72 0-.04 0-.064-.005-.105l-.1-1.868-.06-.063c-.727.142-.744.163-1.415.25l-.053.046a.507.507 0 00-.01.074v.01c.067.334.116.67.148 1.01.038.331.09.665.13.993.066.548.099.819.184 1.656-.453.747-.56 1.03-.993 1.69v.005l-.308.486a.228.228 0 01-.111.1.454.454 0 01-.2.028h-.169l-.252.842.867.015c.51 0 .83-.24 1.002-.56l.546-.936h-.009l.058-.066c.367-.787 3.161-5.577 3.161-5.577v-.003zm-9.16 11.054h-.368l1.363-4.503h.452l.143-.463.014.516c-.017.319.235.602.894.555h.762l.264-.868h-.287c-.165 0-.242-.042-.233-.131l-.014-.526H33.76c-.456.01-1.82.044-2.096.118a2.483 2.483 0 00-.687.34l.14-.466h-1.322l-.275.925-1.381 4.57h-.268l-.263.862h2.631l-.087.288h1.291l.086-.288h.364l.29-.929zm-1.08-3.591a5.872 5.872 0 00-.604.236l.35-1.152h1.05l-.254.839c-.182.01-.363.036-.541.076zm.02 1.645s-.33.042-.546.09c-.21.077-.416.167-.615.27l.362-1.199h1.055l-.256.839zm-.588 1.956h-1.053l.305-1.011h1.05l-.302 1.011zm2.537-2.795h1.517l-.213.707h-1.543l-.231.772h1.346l-1.02 1.434a.422.422 0 01-.206.173.606.606 0 01-.273.079h-.373l-.257.845h.977a1.192 1.192 0 001.029-.533l.695-.957.15.972a.454.454 0 00.252.328.894.894 0 00.34.146c.155.008.265.012.338.012h.48l.288-.946h-.19c-.108 0-.297-.018-.326-.053a.483.483 0 01-.05-.199l-.152-.973h-.623l.273-.325h1.535l.236-.772h-1.42l.22-.707h1.417l.263-.871h-4.22l-.26.868zm-12.817 2.992l.355-1.179h1.455l.267-.876H20.87l.223-.725h1.423l.265-.85h-3.564l-.258.85h.812l-.215.725h-.812l-.27.894h.81l-.473 1.56c-.063.206.03.285.09.38a.399.399 0 00.26.191c.122.032.248.05.374.051h1.641l.293-.97-.728.099c-.143-.003-.533-.02-.49-.15h.004zm.167-5.642l-.369.667a.759.759 0 01-.214.277.695.695 0 01-.33.051h-.192l-.258.852h.64a1.43 1.43 0 00.656-.168c.122-.065.154-.028.247-.119l.215-.186h1.997l.266-.889h-1.466l.255-.485h-1.447zm2.948 5.664c-.034-.05-.01-.136.043-.315l.545-1.806H25.9c.284 0 .487-.009.62-.017.165-.022.323-.076.467-.158a.87.87 0 00.34-.313c.15-.234.263-.49.335-.76l.685-2.285-2.013.012a6.365 6.365 0 00-.895.193c-.237.118-.462.26-.668.427l.182-.627h-1.25l-1.745 5.774c-.049.159-.087.32-.113.485 0 .105.133.21.221.289.105.078.259.065.407.078.148.013.376.02.681.02h.957l.293-.994-.856.081a.227.227 0 01-.181-.088l.004.004zm.936-3.34h2.04l-.13.397c-.09-.01-.18-.01-.27 0h-1.765l.125-.398zm.408-1.364h2.057l-.144.485s-.969-.01-1.124.019c-.397.063-.77.23-1.082.483l.293-.987zm1.547 3.13a.22.22 0 01-.08.125.398.398 0 01-.209.037h-.29l.017-.497H24.49l-.05 2.42c0 .173.015.275.143.355.127.1.52.114 1.051.114h.757l.274-.905-.66.036-.219.013a.255.255 0 01-.09-.057c-.028-.028-.075-.01-.068-.184l.006-.62.696-.03a.893.893 0 00.67-.237.742.742 0 00.22-.41l.116-.55h-.95l-.126.39z" fill="#FEFEFE"/></g><defs><clipPath id="clip0_5371_64240"><path fill="#fff" d="M0 0h44.762v28H0z"/></clipPath></defs></svg>