<svg width="24" height="22" fill="none" xmlns="http://www.w3.org/2000/svg"><path d="M21.625 6.126h-4.513c.232-.145.451-.309.656-.49a3.015 3.015 0 001.009-2.187A3.35 3.35 0 0015.336 0a3.014 3.014 0 00-2.188 1.009A6.246 6.246 0 0012 3.038a6.245 6.245 0 00-1.146-2.027A3.014 3.014 0 008.664 0 3.35 3.35 0 005.22 3.448a3.014 3.014 0 001.008 2.187c.205.181.425.345.656.49H2.375A1.531 1.531 0 00.844 7.658v3.5a1.531 1.531 0 001.531 1.53h.219v7.22a1.531 1.531 0 001.531 1.53h15.75a1.531 1.531 0 001.531-1.53v-7.22h.219a1.531 1.531 0 001.531-1.53v-3.5a1.531 1.531 0 00-1.531-1.532zM12.85 4.923c.246-1.325.688-2.379 1.278-3.046a1.716 1.716 0 011.247-.563h.06a2.034 2.034 0 012.034 2.093 1.716 1.716 0 01-.567 1.247c-1.172 1.035-3.16 1.344-4.209 1.434.028-.316.073-.718.157-1.165zM7.127 1.91c.382-.38.899-.595 1.438-.596h.06a1.715 1.715 0 011.247.566c1.034 1.173 1.344 3.161 1.434 4.21a12.145 12.145 0 01-1.161-.157c-1.326-.244-2.379-.688-3.046-1.28a1.71 1.71 0 01-.568-1.246 2.04 2.04 0 01.596-1.497zm-4.97 9.248v-3.5a.219.219 0 01.218-.22h8.969v3.938H2.375a.219.219 0 01-.219-.218zm1.75 8.75v-7.22h7.437v7.438H4.125a.219.219 0 01-.219-.218zm16.187 0a.219.219 0 01-.219.218h-7.219V12.69h7.438v7.219zm1.75-8.75a.219.219 0 01-.219.218h-8.969V7.44h8.969a.219.219 0 01.219.219v3.5z" fill="#333"/></svg>