<svg width="169" height="169" fill="none" xmlns="http://www.w3.org/2000/svg"><g filter="url(#filter0_d_2683_81)"><rect x="12" y="8" width="145" height="145" rx="20" fill="#CF1520"/></g><rect x="20" y="78" width="130" height="70" rx="8" fill="#fff"/><path d="M54.645 133.63c7.785 0 11.655-4.365 11.655-10.35 0-9.675-13.5-9.45-13.5-13.995 0-2.25 1.26-3.105 3.645-3.105 2.07 0 3.69.855 5.535 2.52l3.96-4.59c-2.43-2.61-5.445-4.41-9.945-4.41-6.66 0-10.8 3.825-10.8 9.945 0 9.18 13.455 9.315 13.455 14.22 0 2.205-1.215 3.285-4.005 3.285-2.34 0-4.59-.945-7.245-2.97l-3.51 5.4c2.97 2.7 7.56 4.05 10.755 4.05zm-1.62 4.995h5.265V130.3h-5.265v8.325zm0-36.45h5.265V94.66h-5.265v7.515zm29.222 31.455c6.435 0 12.105-4.365 12.105-11.88 0-7.245-4.77-10.575-10.44-10.575-1.26 0-2.25.18-3.465.675l.495-5.67h11.925v-6.705h-18.81l-.855 16.605 3.51 2.295c1.98-1.26 2.88-1.62 4.725-1.62 2.88 0 4.905 1.8 4.905 5.175 0 3.465-2.025 5.22-5.265 5.22-2.655 0-4.995-1.395-6.885-3.195l-3.645 5.04c2.655 2.61 6.345 4.635 11.7 4.635zm26.408-.42c2.835 0 4.8-2.205 4.8-5.775 0-3.555-1.965-5.67-4.8-5.67-2.85 0-4.815 2.115-4.815 5.67 0 3.57 1.965 5.775 4.815 5.775zm0-1.53c-1.845 0-3.015-1.665-3.015-4.245s1.17-4.155 3.015-4.155c1.83 0 3.015 1.575 3.015 4.155s-1.185 4.245-3.015 4.245zm7.094 1.32h1.755v-4.74h4.08v-1.47h-4.08v-3.36h4.8v-1.47h-6.555V133zm8.496 0H126v-4.74h4.08v-1.47H126v-3.36h4.8v-1.47h-6.555V133z" fill="#CF1520"/><path d="M37.955 68.21c1.5 0 2.76-.555 3.495-1.305V62.12h-3.765v1.44h2.175v2.58c-.375.345-1.05.54-1.725.54-2.28 0-3.495-1.605-3.495-4.23 0-2.58 1.35-4.17 3.42-4.17 1.05 0 1.725.435 2.28.99l.945-1.125c-.675-.69-1.725-1.38-3.285-1.38-2.925 0-5.16 2.145-5.16 5.745 0 3.63 2.175 5.7 5.115 5.7zm6.003-.21h1.755V56.96h-1.755V68zm4.629 0h1.755v-4.74h4.08v-1.47h-4.08v-3.36h4.8v-1.47h-6.556V68zm10.746 0h1.755v-9.57h3.24v-1.47h-8.235v1.47h3.24V68zm12.269 0h2.07l3.45-11.04h-1.785l-1.62 5.715c-.36 1.275-.615 2.34-1.005 3.615h-.075c-.375-1.275-.645-2.34-1.005-3.615l-1.635-5.715h-1.845L71.602 68zm10.906.21c2.836 0 4.8-2.205 4.8-5.775 0-3.555-1.965-5.67-4.8-5.67-2.85 0-4.814 2.115-4.814 5.67 0 3.57 1.965 5.775 4.814 5.775zm0-1.53c-1.844 0-3.014-1.665-3.014-4.245s1.17-4.155 3.014-4.155c1.83 0 3.016 1.575 3.016 4.155s-1.186 4.245-3.016 4.245zm11.16 1.53c2.444 0 4.094-1.35 4.094-4.935V56.96h-1.68v6.42c0 2.49-1.035 3.3-2.415 3.3-1.38 0-2.37-.81-2.37-3.3v-6.42h-1.74v6.315c0 3.585 1.65 4.935 4.11 4.935zm11.24 0c1.44 0 2.565-.57 3.45-1.605l-.945-1.095c-.645.72-1.425 1.17-2.43 1.17-1.95 0-3.18-1.605-3.18-4.23 0-2.58 1.32-4.17 3.225-4.17.9 0 1.59.405 2.16.99l.93-1.125c-.675-.72-1.74-1.38-3.12-1.38-2.79 0-4.995 2.145-4.995 5.745 0 3.63 2.145 5.7 4.905 5.7zM110.3 68h1.755v-5.01h4.725V68h1.74V56.96h-1.74v4.515h-4.725V56.96H110.3V68zm11.119 0h6.705v-1.47h-4.95v-3.555h4.035V61.49h-4.035v-3.06h4.785v-1.47h-6.54V68zm8.994 0h1.755v-4.455h1.86c2.28 0 3.99-1.065 3.99-3.375 0-2.4-1.71-3.21-3.99-3.21h-3.615V68zm1.755-5.85v-3.78h1.665c1.59 0 2.46.465 2.46 1.8 0 1.32-.87 1.98-2.46 1.98h-1.665zm4.29 5.85h1.95l-3.42-5.925-1.29 1.02 2.76 4.905z" fill="#fff"/><path d="M106.312 28.922h-9.614l.29-.267A7.266 7.266 0 1086.72 18.387 8.211 8.211 0 0085 21.22a8.211 8.211 0 00-1.72-2.833 7.266 7.266 0 00-10.268 10.268l.29.267h-9.615a3.39 3.39 0 00-3.39 3.39v7.75a3.39 3.39 0 003.39 3.391h.485v15.984a3.39 3.39 0 003.39 3.391h34.876a3.39 3.39 0 003.39-3.39V43.453h.484a3.39 3.39 0 003.391-3.39v-7.75a3.39 3.39 0 00-3.391-3.391zm-17.534-8.477a4.36 4.36 0 017.637 3.016 4.36 4.36 0 01-1.485 3.136c-1.43 1.429-5.45 2.107-8.428 2.276.17-2.979.847-6.999 2.276-8.428zm-13.708 0a4.36 4.36 0 016.152 0c1.429 1.43 2.107 5.45 2.276 8.428-2.979-.17-6.999-.847-8.428-2.276a4.36 4.36 0 010-6.152zM63.203 40.062v-7.75a.484.484 0 01.484-.484h19.86v8.719h-19.86a.484.484 0 01-.484-.484zm3.875 19.376V43.453h16.469v16.469H67.563a.484.484 0 01-.485-.484zm35.844 0a.484.484 0 01-.484.484H86.453V43.453h16.469v15.984zm3.875-19.376a.484.484 0 01-.485.485H86.453v-8.719h19.859a.485.485 0 01.485.485v7.75z" fill="#fff" opacity=".2"/><defs><filter id="filter0_d_2683_81" x="0" y="0" width="169" height="169" filterUnits="userSpaceOnUse" color-interpolation-filters="sRGB"><feFlood flood-opacity="0" result="BackgroundImageFix"/><feColorMatrix in="SourceAlpha" values="0 0 0 0 0 0 0 0 0 0 0 0 0 0 0 0 0 0 127 0" result="hardAlpha"/><feMorphology radius="2" operator="dilate" in="SourceAlpha" result="effect1_dropShadow_2683_81"/><feOffset dy="4"/><feGaussianBlur stdDeviation="5"/><feComposite in2="hardAlpha" operator="out"/><feColorMatrix values="0 0 0 0 0 0 0 0 0 0 0 0 0 0 0 0 0 0 0.1 0"/><feBlend in2="BackgroundImageFix" result="effect1_dropShadow_2683_81"/><feBlend in="SourceGraphic" in2="effect1_dropShadow_2683_81" result="shape"/></filter></defs></svg>