<svg width="60" height="40" fill="none" xmlns="http://www.w3.org/2000/svg"><path d="M28.75 19.79v5.372h-1.704V11.895h4.52a4.09 4.09 0 012.927 1.149 3.692 3.692 0 011.223 2.8 3.676 3.676 0 01-1.223 2.816c-.79.753-1.766 1.13-2.927 1.13h-2.815zm0-6.261v4.63h2.859a2.253 2.253 0 001.686-.685 2.263 2.263 0 000-3.242 2.223 2.223 0 00-1.686-.704H28.75zm10.894 2.26c1.26 0 2.254.336 2.983 1.01.729.673 1.093 1.596 1.092 2.769v5.594h-1.63v-1.26h-.074c-.706 1.038-1.645 1.557-2.816 1.557-1 0-1.837-.297-2.51-.89a2.838 2.838 0 01-1.01-2.222c0-.94.355-1.687 1.065-2.241.71-.555 1.658-.833 2.843-.835 1.012 0 1.846.186 2.5.556v-.39a1.941 1.941 0 00-.703-1.508 2.414 2.414 0 00-1.645-.621c-.952 0-1.706.401-2.26 1.204l-1.501-.945c.825-1.186 2.047-1.778 3.666-1.778zm-2.206 6.595a1.36 1.36 0 00.566 1.111 2.08 2.08 0 001.324.445 2.717 2.717 0 001.917-.796c.565-.532.847-1.155.847-1.87-.531-.424-1.272-.636-2.223-.636-.692 0-1.27.167-1.732.5-.467.34-.699.751-.699 1.246zm15.639-6.299l-5.691 13.079h-1.76l2.113-4.576-3.743-8.503h1.853l2.705 6.521h.037l2.63-6.52h1.856z" fill="#5F6368"/><path d="M21.864 18.632c0-.52-.044-1.038-.132-1.55h-7.187v2.935h4.116a3.53 3.53 0 01-1.522 2.317v1.905h2.457c1.439-1.326 2.268-3.288 2.268-5.607z" fill="#4285F4"/><path d="M14.545 26.08c2.056 0 3.788-.675 5.051-1.84l-2.457-1.905c-.684.464-1.564.728-2.594.728-1.988 0-3.676-1.34-4.28-3.146h-2.53v1.964a7.622 7.622 0 006.81 4.2z" fill="#34A853"/><path d="M10.266 19.917a4.568 4.568 0 010-2.917v-1.964H7.735a7.622 7.622 0 000 6.845l2.53-1.964z" fill="#FBBC04"/><path d="M14.545 13.854a4.138 4.138 0 012.923 1.143l2.176-2.175a7.323 7.323 0 00-5.1-1.985 7.62 7.62 0 00-6.81 4.199L10.267 17c.603-1.806 2.29-3.146 4.279-3.146z" fill="#EA4335"/></svg>