<svg width="75" height="50" fill="none" xmlns="http://www.w3.org/2000/svg"><path d="M35.997 25.003v7.803h-2.475V13.537h6.564a5.937 5.937 0 014.251 1.668 5.362 5.362 0 011.776 4.067 5.338 5.338 0 01-1.776 4.09c-1.148 1.094-2.565 1.64-4.25 1.64h-4.09v.001zm0-9.093v6.726h4.15a3.272 3.272 0 002.45-.996 3.284 3.284 0 000-4.71 3.23 3.23 0 00-2.45-1.022h-4.15v.002zm15.82 3.282c1.83 0 3.273.489 4.332 1.467 1.059.978 1.588 2.318 1.587 4.021v8.126h-2.368v-1.83h-.108c-1.024 1.507-2.388 2.26-4.09 2.26-1.451 0-2.666-.43-3.644-1.291a4.123 4.123 0 01-1.467-3.229c0-1.364.516-2.449 1.547-3.255 1.03-.805 2.407-1.209 4.13-1.21 1.469 0 2.68.268 3.63.806v-.566a2.819 2.819 0 00-1.022-2.19 3.505 3.505 0 00-2.389-.903c-1.383 0-2.477.583-3.282 1.75l-2.18-1.373c1.199-1.722 2.973-2.583 5.324-2.583zm-3.203 9.578a1.977 1.977 0 00.821 1.614 3.02 3.02 0 001.923.646 3.946 3.946 0 002.785-1.156c.82-.772 1.23-1.677 1.23-2.717-.772-.615-1.848-.922-3.229-.922-1.005 0-1.844.242-2.515.727-.678.492-1.015 1.09-1.015 1.808zm22.712-9.148l-8.265 18.995h-2.555l3.067-6.646-5.435-12.349h2.69l3.929 9.47h.054l3.82-9.47h2.695z" fill="#5F6368"/><path d="M25.993 23.324c0-.754-.063-1.507-.19-2.25h-10.44v4.262h5.98A5.127 5.127 0 0119.13 28.7v2.768h3.57c2.09-1.927 3.293-4.776 3.293-8.144z" fill="#4285F4"/><path d="M15.363 34.138c2.987 0 5.502-.98 7.336-2.672L19.131 28.7c-.993.673-2.272 1.058-3.768 1.058-2.887 0-5.338-1.947-6.214-4.57H5.473v2.852a11.069 11.069 0 009.89 6.1z" fill="#34A853"/><path d="M9.152 25.188a6.632 6.632 0 010-4.237v-2.852H5.476a11.07 11.07 0 000 9.94l3.676-2.851z" fill="#FBBC04"/><path d="M15.363 16.382a6.01 6.01 0 014.246 1.66l3.16-3.159a10.636 10.636 0 00-7.406-2.882 11.07 11.07 0 00-9.89 6.099l3.676 2.851c.876-2.622 3.327-4.569 6.214-4.569z" fill="#EA4335"/></svg>