<svg width="71" height="71" fill="none" xmlns="http://www.w3.org/2000/svg"><path opacity=".928" fill-rule="evenodd" clip-rule="evenodd" d="M11.072.969h3.55c5.505 1.204 8.85 4.572 10.035 10.103.492 3.939-.623 7.33-3.345 10.172.58.324 1.149.665 1.707 1.024.56.953.4 1.749-.478 2.389-3.823.091-7.646.091-11.469 0C5.54 23.47 2.172 20.126.97 14.622v-3.687c.873-4.176 3.24-7.203 7.1-9.079.996-.37 1.997-.666 3.003-.887zm1.638 2.048c4.707.316 7.87 2.683 9.49 7.1.737 2.793.373 5.433-1.093 7.918l-2.32 2.867a1.763 1.763 0 00.34 1.57c-2.594.091-5.188.091-7.782 0-4.437-.978-7.145-3.686-8.123-8.123-.486-4.376 1.13-7.72 4.846-10.035a11.74 11.74 0 014.642-1.297z" fill="#333"/><path opacity=".944" fill-rule="evenodd" clip-rule="evenodd" d="M40.624 1.107h4.224C51.676 2.37 56.15 6.321 58.27 12.962c.188.717.325 1.443.408 2.18l.137 7.358a11.11 11.11 0 001.362 4.769 22.971 22.971 0 012.317 3.407c1.599 4.513.44 8.124-3.475 10.832-.397.208-.806.39-1.226.545a52.867 52.867 0 004.633 2.044c3.462 1.51 5.575 4.122 6.336 7.835.068 5.632.09 11.264.068 16.896.547-.023 1.092 0 1.635.068.119.142.255.256.409.34v1.227a.892.892 0 00-.41.409H1.519a.892.892 0 00-.409-.41v-1.225c.154-.085.29-.199.41-.341 7.993-.068 15.987-.09 23.98-.068a1105.172 1105.172 0 00-1.566-15.397c-.267-1.957.528-3.252 2.384-3.884a50.179 50.179 0 013.68-.068V43.62a134.98 134.98 0 00-7.495 3.202c-2.093 1.324-3.388 3.209-3.883 5.655l-.137 13.49c-.249.77-.771 1.02-1.567.749a.639.639 0 01-.477-.477c-.13-4.955-.085-9.906.137-14.852.707-2.713 2.228-4.825 4.564-6.336l6.405-2.93c-4.204-1.865-5.998-5.09-5.383-9.674a8.859 8.859 0 011.09-2.725c1.825-2.016 2.915-4.378 3.27-7.086l.137-7.358c1.118-6.982 5.047-11.547 11.786-13.694.743-.17 1.47-.33 2.18-.477zm1.908 2.044c2.69.071 5.189.798 7.494 2.18.148.118.17.255.068.41-5.06 7.583-12.168 11.398-21.324 11.445.236-5.857 2.961-10.103 8.175-12.74a16.673 16.673 0 015.587-1.295zm9.402 25.753c-.916 3.3-3.05 5.32-6.404 6.064-1.953.09-3.907.09-5.86 0-3.403-.77-5.56-2.837-6.472-6.2a118.808 118.808 0 01-.204-9.538c8.162-1.378 14.498-5.512 19.008-12.4 3.066 2.815 4.587 6.312 4.564 10.492-3.016.268-5.741-.481-8.175-2.248-1.399-.17-1.853.399-1.363 1.703a11.894 11.894 0 005.042 2.453c.159 1.86.182 3.723.068 5.586-.688 1.688-1.846 2.937-3.474 3.748a.34.34 0 01-.41 0 3.213 3.213 0 00-2.043-1.363 23.046 23.046 0 00-3.543 0c-1.876.549-2.671 1.798-2.384 3.747.295 1.204 1.044 1.953 2.248 2.248a26.69 26.69 0 003.815 0c1.168-.304 1.94-1.031 2.316-2.18a20.378 20.378 0 003.27-2.112zM28.77 19.366h2.044c-.023 2.953 0 5.905.068 8.857.503 3.483 2.252 6.14 5.246 7.97-.83 2.666-2.647 4.05-5.45 4.157-3.961-.187-6.141-2.253-6.541-6.2.05-.773.208-1.523.477-2.248l2.589-3.952c1.328-2.707 1.85-5.568 1.567-8.584zm25.616.136h2.18c-.44 4.286.718 8.056 3.475 11.31 1.61 2.988 1.224 5.69-1.158 8.107-2.732 1.893-5.458 1.893-8.176 0a5.681 5.681 0 01-1.635-2.861c2.984-1.72 4.733-4.286 5.246-7.699.068-2.952.091-5.904.068-8.857zm-11.31 9.81a13.454 13.454 0 013.135.205c.435.615.344 1.114-.273 1.5-.999.09-1.998.09-2.997 0-.753-.625-.707-1.192.136-1.704zm-4.904 7.631c2.954.34 5.906.364 8.856.069.524 1.795 1.569 3.203 3.134 4.224.942.414 1.873.845 2.794 1.294.068.725.09 1.452.068 2.18-6.884 1.917-13.787 1.985-20.712.204a5.388 5.388 0 010-2.384 12.01 12.01 0 003.952-2.18 7.082 7.082 0 001.908-3.407zm17.032 6.54c2.523 1 5.02 2.068 7.494 3.203 2.546 1.57 3.886 3.863 4.02 6.88a855 855 0 01.068 15.262c-2.046.045-4.09 0-6.132-.136.605-5.332 1.196-10.67 1.772-16.01-.056-1.646-.874-2.69-2.453-3.135a84.3 84.3 0 00-4.77-.068v-5.995zm-2.725 3.544h.545v2.452H32.176a9.983 9.983 0 01.136-2.316 41.549 41.549 0 0015.534.885 27.985 27.985 0 004.633-1.022zm-25.753 4.632c11.048-.067 22.085.001 33.11.205.214.23.35.502.41.817a2928.1 2928.1 0 00-1.772 16.147c-10.22.023-20.439 0-30.658-.068-.61-5.305-1.2-10.62-1.771-15.943.003-.53.23-.916.68-1.158z" fill="#333"/><path opacity=".844" fill-rule="evenodd" clip-rule="evenodd" d="M8.398 11.803c1.112-.093 1.589.407 1.43 1.499-.303.594-.78.798-1.43.613-.594-.303-.799-.78-.613-1.43.14-.299.344-.526.613-.682zm4.086 0c1.112-.093 1.588.407 1.43 1.499-.303.594-.78.798-1.43.613-.594-.303-.799-.78-.613-1.43.14-.299.344-.526.613-.682zm4.094 0c1.111-.093 1.588.407 1.43 1.499-.303.594-.78.798-1.43.613-.595-.303-.799-.78-.613-1.43.14-.299.344-.526.613-.682z" fill="#333"/><path opacity=".927" fill-rule="evenodd" clip-rule="evenodd" d="M43.603 56.581c2.877-.21 4.467 1.108 4.769 3.952-.164 2.412-1.459 3.729-3.884 3.951-2.398-.24-3.738-1.558-4.02-3.951.2-2.015 1.246-3.332 3.135-3.952zm.272 2.18c-.984.56-1.325 1.377-1.022 2.453.853 1.252 1.852 1.388 2.998.409.723-1.89.065-2.844-1.976-2.862z" fill="#333"/></svg>