<svg width="20" height="20" fill="none" xmlns="http://www.w3.org/2000/svg"><g fill="#333" clip-path="url(#clip0_101_6091)"><path d="M13.596 1.578c-1.64-.697-3.37-.9-5.164-.607-.608.103-1.826.492-2.409.775a9.159 9.159 0 00-4.738 5.41c-.564 1.714-.6 3.675-.103 5.328.118.392.156.464.253.514.235.123.46.054.58-.17.07-.134.068-.18-.02-.494-.49-1.754-.431-3.52.168-5.176.184-.499.638-1.398.913-1.801 1.052-1.536 2.517-2.655 4.256-3.24 1.849-.63 3.836-.584 5.695.125.475.18 1.575.79 1.951 1.083 1.081.834 1.844 1.74 2.43 2.884.087.169.155.319.148.332-.009.018-.292-.116-.628-.29-.65-.333-.673-.34-.874-.234-.193.102-.252.385-.111.58.11.16 2.238 1.259 2.432 1.258.244.004.296-.07.913-1.26.617-1.189.648-1.274.505-1.472-.096-.138-.186-.184-.349-.185-.22 0-.271.057-.663.77l-.363.656-.205-.41c-.771-1.576-1.921-2.828-3.453-3.777a6.37 6.37 0 00-1.164-.6zm5.015 7.457c-.126.04-.195.088-.236.168-.063.121-.07 1.042-.011 1.2.02.054.095.138.166.188.116.082.15.086.318.032.274-.086.326-.213.312-.77-.011-.53-.068-.718-.245-.81-.097-.05-.167-.051-.304-.008zm-.202 2.471c-.192.063-.224.126-.385.707-.144.541-.149.592-.023.74a.382.382 0 00.442.133c.179-.057.246-.154.352-.535.208-.741.2-.869-.07-1.009-.133-.068-.19-.076-.316-.036z"/><path d="M13.422 6.716c-.088.036-.633.674-1.585 1.852-.797.993-1.471 1.857-1.502 1.924-.077.17-.01.453.144.597.129.123.144.123 1.363.139l1.23.015v.823c0 .916.036 1.065.314 1.21a.505.505 0 00.633-.14c.133-.154.133-.17.133-1.029v-.869h.283c.365 0 .576-.108.674-.345.062-.139.067-.216.02-.35-.087-.272-.226-.354-.611-.385l-.34-.026-.026-1.574c-.025-1.724-.02-1.693-.344-1.832-.19-.077-.196-.077-.386-.01zm-.366 3.426c-.015.01-.257.01-.545.005l-.52-.015.53-.664.525-.658.016.653c.005.36.005.669-.005.68zm-5.411-3.14c-.7.093-1.472.638-1.734 1.23-.083.195-.088.257-.041.406a.534.534 0 00.524.386c.216 0 .304-.072.685-.545.195-.247.488-.381.849-.381.56 0 .926.303.926.761 0 .469-.273.772-1.343 1.503-1.106.756-1.518 1.23-1.652 1.872-.04.232-.036.304.036.458.155.33.232.345 2.002.345 1.739 0 1.862-.02 2.006-.304.103-.195.103-.329 0-.524-.139-.268-.303-.304-1.518-.304-.946 0-1.08-.01-1.023-.077.03-.041.375-.288.761-.55.947-.644 1.394-1.076 1.646-1.575.175-.36.19-.422.186-.828 0-.365-.026-.494-.134-.736-.268-.581-.756-.957-1.415-1.096-.345-.077-.463-.082-.761-.04zm9.979 6.806c-.191.029-.285.134-.57.616l-.273.466.05.157c.087.274.433.388.644.211.122-.1.553-.813.584-.964a.441.441 0 00-.01-.22c-.048-.136-.287-.286-.425-.266zm-1.54 2.002a.63.63 0 00-.282.17 9.572 9.572 0 01-.388.358c-.282.245-.338.38-.249.597.052.128.089.16.224.213.092.035.207.05.267.029.13-.039.812-.649.885-.79.038-.074.038-.158-.002-.284-.069-.216-.244-.329-.455-.293zm-1.936 1.474c-.058.01-.316.118-.575.243-.498.24-.57.308-.571.55 0 .162.06.25.222.334.18.094.238.084.632-.098.477-.224.613-.307.681-.44.13-.249-.118-.628-.39-.589zm-2.262.862c-.115-.007-1.002.158-1.095.202-.189.1-.256.409-.124.578.156.2.281.213.952.099.384-.07.491-.124.585-.304.106-.205-.09-.557-.318-.575zM2.38 14.154c-.21.075-.313.264-.253.48.063.235.507.88.663.96.17.088.41.033.523-.125.14-.191.093-.348-.23-.82-.348-.5-.46-.58-.703-.495zm6.869 4.149a7.814 7.814 0 01-.504-.064c-.168-.025-.314-.022-.388.01-.127.058-.258.267-.258.412.004.103.123.28.234.337.1.052.905.157 1.076.14.294-.032.452-.43.262-.656-.122-.147-.14-.156-.422-.18zm-5.226-2.245a.537.537 0 00-.225.12c-.13.132-.154.357-.051.498.072.099.368.367.655.586.276.214.548.175.69-.1.12-.232.049-.365-.386-.723-.44-.365-.521-.412-.683-.38zm2.506 1.517c-.306-.132-.431-.145-.578-.067-.125.063-.225.266-.21.406.027.203.142.294.614.495.514.223.535.225.718.152.232-.1.324-.386.189-.584-.076-.1-.216-.178-.733-.402z"/></g><defs><clipPath id="clip0_101_6091"><path fill="#fff" d="M0 0h20v20H0z"/></clipPath></defs></svg>