<svg width="342" height="242" fill="none" xmlns="http://www.w3.org/2000/svg"><g clip-path="url(#clip0_4918_51573)"><path d="M102.504.165C95.454.972 87.45 6.398 86.539 12.73c-3.256-5.494-14.626-7.048-21.455-5.113-18.024 5.105-20.182 26.728-9.7 38.912 5.643 6.556 12.93 11.826 20.632 16.326 6.447 3.77 22.644 11.27 22.679 11.225.05.027 12.167-13.063 16.693-19.003 5.403-7.101 10.131-14.716 12.849-22.936 5.049-15.25-7.118-34.104-25.733-31.976z" fill="#FC7F59"/><path d="M125.019 34.578a101.513 101.513 0 01-12.582 18.196c-4.713 5.391-10.475 10.432-17.383 13.097a25.694 25.694 0 01-10.025 1.74c6.734 3.347 13.994 6.698 14.02 6.667.027-.03 12.164-13.063 16.69-19.003 5.406-7.09 10.134-14.73 12.853-22.94a23.066 23.066 0 001.125-8.163 73.08 73.08 0 01-4.698 10.406z" fill="#733A00" opacity=".12"/><path d="M123.566 28.842l-14.317 3.21-8.945-17.834c-.431-.861-1.77-.526-1.888.38a83960.691 83960.691 0 00-4.903 37.059l-11.858-20.12-1.907-3.228c-.381-.647-1.59-.697-1.834.133l-3.431 11.59-16.102 3.183a.94.94 0 00-.326 1.705.941.941 0 00.707.134l16.708-3.3a.997.997 0 00.763-.621c.98-3.3 1.96-6.611 2.936-9.934l12.167 20.64 1.906 3.229a1.025 1.025 0 001.887-.38l4.637-35.03c.072-.56.145-1.12.221-1.679l7.817 15.592a1.004 1.004 0 001.079.487l15.038-3.373c1.262-.282.9-2.125-.355-1.843z" fill="#fff"/><path d="M266.02 27.75a.413.413 0 01-.549.198l-16.106-7.5a.415.415 0 01.035-.762.416.416 0 01.316.012l16.095 7.504a.412.412 0 01.248.39.396.396 0 01-.039.159z" fill="#3F4E70"/><path d="M268.88 27.883l-.899 1.904-8.591-3.982a1.066 1.066 0 01-.614-1.01 1.065 1.065 0 011.514-.913l8.59 4.001z" fill="#555"/><path d="M338.37 58.47l-1.224 2.327-10.344-5.418-3.698 7.036 10.344 5.418-1.22 2.33a1.92 1.92 0 00.81 2.595 1.927 1.927 0 002.599-.809l6.142-11.693a1.92 1.92 0 00-.81-2.595 1.927 1.927 0 00-2.599.81z" fill="#FF8201"/><path d="M329.018 65.513l3.694-7.036 2.768 1.446-5.707 5.99-.755-.4z" fill="#000" opacity=".12"/><path d="M320.988 68.676l9.781-18.619 4.052 2.122a1.058 1.058 0 01.445 1.424l-8.8 16.751a1.055 1.055 0 01-1.406.455l-4.051-2.123-.021-.01z" fill="#FC7F59"/><path d="M334.452 45.039a1.813 1.813 0 00-2.315.849l-.716 1.367a1.755 1.755 0 01-1.032.853 1.739 1.739 0 01-1.332-.13l-47.021-24.627a2.742 2.742 0 00-1.846-.251l-13.463 2.882a.878.878 0 00-.584.45l-1.391 2.665a.852.852 0 00-.035.738l5.304 12.641a2.722 2.722 0 001.251 1.363l47.036 24.639a1.727 1.727 0 01.855 1.022 1.735 1.735 0 01-.123 1.327l-.717 1.367a1.81 1.81 0 00.614 2.383 1.779 1.779 0 002.497-.685l13.876-26.424a1.772 1.772 0 00.099-1.4 1.767 1.767 0 00-.957-1.03z" fill="#FF8201"/><path d="M282.107 26.052a2.95 2.95 0 00-1.716-.331l-12.201 1.523a.666.666 0 00-.515.335l-1.106 2.12a.667.667 0 000 .614l5.72 10.836c.281.52.713.944 1.239 1.214l44.87 23.508-36.291-39.819z" fill="#DBE8EB" opacity=".17"/><path d="M292.158 54.441l3.137-5.97a.122.122 0 01.165-.052l.932.488c.028.015.05.04.06.072a.125.125 0 01-.009.092l-3.137 5.972-1.148-.602zm-16.01-8.391l3.137-5.97a.122.122 0 01.165-.052l.932.488c.029.015.05.041.06.072a.125.125 0 01-.009.093l-3.137 5.971-1.148-.601zm32.026 16.782l3.137-5.971a.122.122 0 01.164-.051l.932.488a.122.122 0 01.052.164l-3.137 5.971-1.148-.601zm-7.903-4.144l1.595-3.035a.098.098 0 01.133-.042l.767.402a.096.096 0 01.048.058.099.099 0 01-.006.075l-1.594 3.035-.943-.493zM284.256 50.3l1.594-3.034a.098.098 0 01.058-.048.1.1 0 01.076.006l.766.402a.098.098 0 01.042.134l-1.594 3.034-.942-.493z" fill="#3F4E70"/><path d="M136.203 161.889l-1.982 27.075-6.563 44.829h-5.044l-3.188-41.364-1.41-33.464 18.187 2.924z" fill="#BFD6F0"/><path d="M122.643 233.195v2.726l5.452 2.723 2.73-2.723-2.73-2.726h-5.452z" fill="#3F4E70"/><path d="M100.463 155.514l1.918 37.953 4.392 43.569h5.167l4.198-41.28 6.135-43.451-21.81 3.209z" fill="#BFD6F0"/><path d="M111.91 236.422v2.791l-5.586 2.791-2.795-2.791 2.795-2.791h5.586z" fill="#3F4E70"/><path d="M118.075 94.657l-5.289-.514a26.468 26.468 0 01.282-4.219c-1.468-.514-3.168-1.287-3.431-2.818a4.41 4.41 0 01.087-1.462l1.026-5.985a5.3 5.3 0 01.625-1.984c.656-1.04 1.937-1.496 3.15-1.706 3.092-.54 6.463.122 8.865 2.144a4.81 4.81 0 011.502 1.969c.435 1.21.111 2.547-.213 3.807l-.904 3.45c-.343 1.32-.843 2.825-2.12 3.32-.675.262-1.476.19-2.086.579-1.079.666-.934 2.269-1.494 3.419z" fill="#FFD8C4"/><path d="M130.452 74.248c.156-1.634.24-2.978-.099-4.57-.198-.936-1.396-3.88-1.03-4.713-.682 1.443-2.52 1.839-4.106 1.999-5.952.594-12.583-.876-18.062 2.174a7.008 7.008 0 00-2.413 2.383 10.61 10.61 0 000 11.236c.49.742 1.045 1.439 1.658 2.083 1.251 1.352 2.745 3.016 4.461 3.514.038-1.523-1.365-6.366-.187-7.615 1.651-1.766 4.66-1.424 6.806-1.115 2.728.372 5.493.386 8.225.041.9-.062 1.787-.25 2.635-.56 1.994-.83 1.906-2.664 2.101-4.568a2.419 2.419 0 01.011-.29z" fill="#555"/><path d="M83.12 71.965l-.641-3.278 1.681-2.418-.332-.617-.774.377.824-2.406-.732-1.93-2.662-.7-2.611 1.111-.42 2.71 1.186 3.043.686 4.523 3.794-.415z" fill="#FFD8C4"/><path d="M83.539 69.652l-5.041-.316 2.25 27.467 21.398 11.301 4.93-13.338-16.918-7.77-6.62-17.344z" fill="#FF9F82"/><path d="M141.277 60.033l.171-3.336-2.013-2.155.244-.658.824.266-1.159-2.27.453-2.013 2.536-1.07 2.742.739.796 2.623-.743 3.175-.038 4.577-3.813.122z" fill="#FFD8C4"/><path d="M140.534 57.798l4.949-1.02.389 18.999-1.941 14.685-12.647 18.535-10.356-14.96 12.022-8.822 7.584-27.417z" fill="#FF9F82"/><path d="M122.261 93.297l-16.704.708-8.434 32.055-6.967 44.437 53.774 1.306-12.648-62.804-9.021-15.702z" fill="#FF9F82"/><path d="M205.121 81.827l-.618-3.202 1.655-2.353-.32-.605-.759.365.812-2.345-.709-1.889-2.593-.692-2.554 1.077-.42 2.646 1.148 2.974.652 4.42 3.706-.396z" fill="#F3B8AC"/><path d="M205.289 78.473l-5.049 4.283.717 21.996 8.491 5.905 16.224-2.079-2.165-13.92-13.551 2.608-4.667-18.793z" fill="#1DB9C9"/><path d="M257.001 231.78l.637 2.905-5.029 4.139-3.466-2.288 2.196-3.526 5.029-4.139.633 2.909z" fill="#3F4E70"/><path d="M239.415 142.402l5.612 12.919.527 36.354 11.537 39.103-5.364 2.376-23.541-45.404-2.681-14.381-1.064-30.285 14.974-.682z" fill="#A4ADB5"/><path d="M212.245 145.294l-.438 38.098 7.187 49.12h5.529l3.489-45.324 7.568-45.325-23.335 3.431z" fill="#A4ADB5"/><path d="M224.49 231.859v2.985l-5.975 2.986-2.99-2.986 2.99-2.985h5.975z" fill="#3A332D"/><path d="M223.132 93.709l14.684-.545s8.769 7.695 13.326 27.696c4.621 20.366-.854 49.687-.854 49.687s-39.395-5.243-45.854-6.065l9.852-40.199 8.846-30.575z" fill="#1DB9C9"/><path d="M228.395 95.207l5.147-.502a26.292 26.292 0 00-.274-4.101c1.43-.503 3.081-1.253 3.332-2.745a4.213 4.213 0 00-.08-1.42c-.335-1.94-.669-3.88-1.002-5.822a5.153 5.153 0 00-.603-1.938c-.641-1.013-1.884-1.455-3.05-1.66-3.009-.526-6.292.122-8.629 2.086a4.635 4.635 0 00-1.456 1.904c-.424 1.18-.111 2.479.205 3.69l.877 3.354c.336 1.287.824 2.749 2.063 3.232.656.255 1.434.183 2.033.564 1.056.674.892 2.239 1.437 3.358z" fill="#F3B8AC"/><path d="M211.644 75.806a16.434 16.434 0 01.419-3.891c.458-2.087 2.921-3.023 5.052-3.172 4.606-.316 9.052-2.402 13.551-.792 2.57.918 6.025 1.143 8.351 2.437a6.88 6.88 0 012.341 2.338 10.327 10.327 0 010 10.931c-.476.722-1.016 1.4-1.613 2.026-1.216 1.313-2.669 2.935-4.339 3.426-.038-1.492 1.331-6.19.183-7.416-1.815-1.942-5.933-1.272-8.194-.796-2.463.518-4.659 2.258-7.104 2.627-1.757.263-3.999-.598-5.49-1.523-2.318-1.436-3.1-3.788-3.157-6.195z" fill="#555"/><path d="M227.181 95.523l-15.435 61.682-1.273 8.064 19.232 2.528s-.763-29.527-.507-33.464c.255-3.937 3.107-12.45 3.546-21.626.252-5.308 1.941-14.85.763-17.941l-6.326.757z" fill="#fff"/><path d="M23.291 233.812l-.08.827-.263 2.741-5.555 2.376-2.383-2.924 2.909-2.559.27-.114.031.339 5.071-.686z" fill="#3F4E70"/><path d="M23.573 233.78l-.282.038h-.293l-4.778.686-4.43-46.615-.542-2.186c4.156.057 9.098.122 14.074.16l-3.749 47.917zm22.221-47.94l-1.022 12.111-10.26 31.401-5.01-.667-.085.613h-.026l3.694-32.363-3.164-11.042c5.818.023 11.507.023 15.873-.053z" fill="#F3B8AC"/><path d="M34.51 229.354l.317.042 2.292 3.141-3.035 2.437-4.957-3.499.29-2.174 4.9.651.194-.598z" fill="#3F4E70"/><path d="M34.51 229.354l-.194.598-4.9-.652.084-.612 5.01.666z" fill="#3E3D3B"/><path d="M11.03 115.418c-.644 3.046-3.05 5.255-5.391 7.356a128.997 128.997 0 015.25-11.708 10.29 10.29 0 01.141 4.352z" fill="#8EC3CB"/><path d="M2.341 185.516s4.53.091 10.905.186c4.156.057 9.098.122 14.074.16l2.6.019c5.819.035 11.507.035 15.873-.042 3.298-.061 5.842-.16 7.107-.323l-10.64-54.973-.042-.167-2.83-11.51-4.129-16.776-10.295-4.9a5.986 5.986 0 01-2.936-1.398l-.381-.175c.12.447.276.882.469 1.302.072.164.145.316.225.461.858 1.565 2.189 3.046 2.154 4.813a4.17 4.17 0 01-.145.974 15.57 15.57 0 01-.606 1.706c-2.288 5.974.229 12.717 3.943 17.762 1.906 2.585 4.415 4.828 5.498 7.847.186.529.305 1.079.354 1.638.252 2.722-1.03 5.684-3.652 6.13-.618.102-1.278.061-1.846.323-1.937.903-1.098 4.078-2.535 5.658-.927 1.024-2.494 1.059-3.874 1.021a2.466 2.466 0 01-1.308-.282c-.808-.526-.732-1.695-.969-2.627-.43-1.687-2.12-2.799-3.813-3.172-1.693-.373-3.473-.175-5.22-.171-2.18 0-4.411-.32-6.333-1.344a8.297 8.297 0 01-2.082-1.546c-3.431 20.998.435 49.406.435 49.406z" fill="#87E3EC"/><path d="M21.609 95.405c-.965-4.17.08-10.764 2.875-13.224 1.098-.967 2.352-1.142 3.752-1.142.66 0 .88.168 1.224.107 1.04 1.336 1.738 2.97 1.609 4.511-.107 1.303-.854 2.285-.915 3.686-.119 2.54-3.756 5.09-2.36 7.615a5.953 5.953 0 01-2.826.252l-2.936-1.398c-.145-.137-.297-.27-.423-.407z" fill="#F3B8AC"/><path d="M24.97 97.194a5.986 5.986 0 01-2.937-1.397l2.936 1.397z" fill="#E1CFB5"/><path d="M30.154 89.328c.061-1.394.809-2.383.915-3.686.13-1.542-.568-3.175-1.609-4.511.21-.048.408-.136.584-.26.5-.308.95-1.142 1.182-1.789 1.3.819 2.242 2.285 2.505 4.569.282 2.452.278 5.037-.565 7.493-.842 2.456-2.638 4.76-4.956 5.67a5.399 5.399 0 01-.405.14c-1.407-2.528 2.231-5.086 2.35-7.626z" fill="#F3B8AC"/><path d="M.089 132.673a6.567 6.567 0 001.818 3.427 8.29 8.29 0 002.052 1.546c1.906 1.024 4.152 1.348 6.333 1.344 1.746 0 3.515-.202 5.22.171 1.704.374 3.393 1.485 3.813 3.172.236.933.16 2.102.968 2.627a2.46 2.46 0 001.308.282c1.38.038 2.948 0 3.874-1.02 1.438-1.581.599-4.756 2.536-5.658.568-.263 1.227-.221 1.845-.324 2.623-.446 3.904-3.427 3.653-6.13a6.522 6.522 0 00-.355-1.637c-1.083-3.02-3.595-5.262-5.498-7.848-3.714-5.044-6.226-11.803-3.942-17.761.237-.548.443-1.109.617-1.68.086-.318.135-.645.145-.974.034-1.782-1.296-3.248-2.154-4.813a5.778 5.778 0 01-.225-.46 8.269 8.269 0 01-.439-1.303c0-.072-.034-.144-.05-.217-2.634-2.623-3.69-7.497-1.955-11.137a8.31 8.31 0 01.312-.609c-.11.198-.217.38-.312.61-1.735 3.64-.679 8.513 1.956 11.136-.965-4.169.08-10.764 2.875-13.223 1.098-.967 2.352-1.142 3.752-1.142.66 0 .88.167 1.223.106.21-.047.408-.135.584-.259.5-.308.95-1.142 1.182-1.79 1.3.82 2.242 2.285 2.505 4.57.282 2.452.278 5.037-.564 7.493-.843 2.456-2.639 4.76-4.957 5.67a6.45 6.45 0 01-.404.14c.127.226.279.437.454.628 1.273 1.401 3.32 1.725 5.2 1.969.226.048.461.04.683-.027a.975.975 0 00.537-.921 3.972 3.972 0 00-.236-1.105c-1.094-3.807.843-8.14 1.167-11.974.324-3.834-.47-7.996-3.542-10.57a8.283 8.283 0 00-1.526.583 2.333 2.333 0 00-.148-.19c-4.446-5.33-10.73-.762-14.108 3.3-2.787 3.359-5.11 7.216-6.173 11.476-.995 3.987-1.327 9.843-.908 13.917.248 2.376 1.19 4.71 1.686 7.04.357 1.424.405 2.908.14 4.352-.644 3.046-3.05 5.254-5.39 7.356a119.622 119.622 0 00-1.266 3.377 21.54 21.54 0 00-.382 1.142c.126-.38.255-.761.381-1.142.206-.579.416-1.15.63-1.713.213-.564.425-1.118.636-1.664l-.964.868c-2.612 2.345-5.182 5.513-4.587 8.989z" fill="#3F4E70"/><path d="M284.578 163.825l21.684-7.962-4.469 37.934 2.589 32.726.229 2.082-4.263.111-9.932-30.635-5.056-31.058-.782-3.198z" fill="#FFD8C4"/><path d="M300.349 228.716l4.438-.111 1.133 3.739-.111.031.027.004-7.333 4.34-3.488.389-.443-3.983.942-.689 4.835-3.72z" fill="#3F4E70"/><path d="M269.807 164.476l6.657 66.475 4.29.628 4.163-37.028 7.477-34.926-22.587 4.851z" fill="#FFD8C4"/><path d="M276.322 230.938l-5.685 3.217.534 2.68 10.157-1.53-.598-3.857-4.408-.51z" fill="#3F4E70"/><path d="M259.638 180.789c-1.373-.952-1.4-2.608-1.4-4.268a41.517 41.517 0 011.281-9.325c1.362-5.681 2.906-12.523 3.585-19.883 1.754-19.037 7.77-31.784 7.77-31.784l1.941-5.167c.384-.675.786-1.34 1.205-1.995 2.425-3.808 6.631-10.254 11.134-11.309l.286-.064c4.731-1.04 10.798-.556 15.072 1.74a14.89 14.89 0 012.25 1.595c2.093 1.683 3.813 2.597 4.701 5.163.763 2.231.965 4.664 1.396 6.972.877 4.694 1.399 9.442 2.101 14.163 1.311 8.853 2.428 17.736 3.832 26.573.724 4.55 1.452 9.107 1.792 13.707.305 4.062 3.976 8.19 6.039 11.833.713 1.265-9.582 4.547-10.52 4.783-4.274.993-8.826.738-13.234.761-9.66.046-19.319-.251-28.978-.891-3.203-.213-7.153-.822-9.994-2.414-.088-.076-.175-.122-.259-.19z" fill="#FF9F82"/><path d="M290.748 96.472s5.441-1.465 6.192 10.799c.751 12.263 1.994 43.298 3.76 51.808 1.765 8.51 4.388 25.206 4.388 25.206l-16.67.578-19.064-1.5s6.52-12.012 7.522-20.522c1.003-8.51-.762-40.546 3.508-52.543 4.271-11.998 5.171-13.608 10.364-13.826z" fill="#fff"/><path d="M266.111 123.786l-8.693-1.337v-7.477l20.975-15.961 6.768-2.003-3.26 8.757-15.79 18.021z" fill="#FF9F82"/><path d="M283.156 86.755c-.824 2.471.381 5.102 1.415 7.352.926 2 1.246 3.31-1.106 3.85-1.327.304-3.683.868-4.846-.145-.881-.761-.382-3.145.042-4.085.327-.72 1.193-1.09 1.502-1.817.111-.307.161-.633.149-.96a13.14 13.14 0 00-.546-3.94 13.54 13.54 0 01-.682-2.62c-.115-1.305.812-2.828 1.3-4.028.904-2.235 4.049-5.227 6.684-3.476.57.45 1 1.05 1.243 1.733.197.383.315.803.347 1.233.019 1.713-1.548 2.003-2.631 2.818a8.576 8.576 0 00-2.871 4.085z" fill="#555"/><path d="M288.166 96.39c-2.288-.536-4.073-2.455-4.931-4.637-.857-2.181-.903-4.603-.667-6.937.789-7.763 10.463-7.265 13.727-1.314 2.863 5.186-1.483 14.454-8.129 12.889z" fill="#FFD8C4"/><path d="M288.169 95.57l.114 2.665a.532.532 0 00.107.381c.12.088.271.126.419.103l2.162-.076c.36.016.719-.052 1.049-.198.69-.381.831-1.302.72-2.08-.11-.776-.381-1.553-.225-2.318-1.49.731-2.905-.925-4.396-.19l.05 1.713z" fill="#FFD8C4"/><path d="M291.308 71.357c2.54.86 4.168 3.426 6.646 4.45 1.423.587 3.104.663 4.263 1.672 2.601 2.262.511 7.01 2.646 9.71.443.563 1.041.99 1.487 1.549.961 1.207 1.087 2.86 1.175 4.401.027.357.014.716-.038 1.07-.336 3.56-5.51 3.335-7.565 3.107-2.257-.251-1.506-1.5-1.506-1.5l.084-.103a4.302 4.302 0 00-1.526-3.906 5.361 5.361 0 01-1.216-1.067c-.667-1.02-.03-2.368-.129-3.582-.382-4.89-8.61-3.842-10.928-7.322-2.856-4.264 1.792-10.105 6.607-8.48z" fill="#555"/><path d="M311.483 64.66l-3.146-4.394-1.937 1.26 1.484 3.488-1.194.167 3.15 3.434 2.192-1.039-.549-2.916z" fill="#FFD8C4"/><path d="M298.172 102.152l16.449-13.265-6.105-20.271 6.067-2.468 11.309 26.729-16.472 20.751-11.248-11.476z" fill="#FF9F82"/><path d="M275.699 125.033l4.915-.811-.259-2.11-3.485-.19.343-1.055-4.122 1.207-.03 2.231 2.638.728z" fill="#FFD8C4"/><path d="M262.352 117.098l-.027.426 12.022 3.674-.286 4.425-16.643-4.261 4.934-4.264z" fill="#FF9F82"/><path d="M234.984 193.359h-47.688c-3.767 0-6.821 3.05-6.821 6.812v32.284c0 3.762 3.054 6.811 6.821 6.811h47.688c3.767 0 6.821-3.049 6.821-6.811v-32.284c0-3.762-3.054-6.812-6.821-6.812z" fill="#1DB9C9"/><path d="M224.582 190.868v-8.803a1.595 1.595 0 00-1.651-1.474h-23.896a1.596 1.596 0 00-1.654 1.474v8.78c-.651.024-1.267.3-1.717.77a2.491 2.491 0 00-.693 1.746h8.102a2.5 2.5 0 00-2.387-2.516v-7.322h20.59v7.307h-.164a2.503 2.503 0 00-2.482 2.52h8.087a2.5 2.5 0 00-2.135-2.482z" fill="#1DB9C9"/><path d="M225.344 211.697h-10.885v-11.068a.763.763 0 00-.763-.762h-6.177a.762.762 0 00-.763.762v11.068h-10.882a.762.762 0 00-.762.762v6.293a.693.693 0 00.213.53.696.696 0 00.534.228h10.894v11.072a.762.762 0 00.762.762h6.189a.701.701 0 00.526-.217.722.722 0 00.225-.545V219.51h10.889a.763.763 0 00.763-.761v-6.29a.762.762 0 00-.763-.762z" fill="#fff"/><path d="M100.916 116.456a14.32 14.32 0 0011.481 10.981 14.325 14.325 0 0014.562-6.371 14.288 14.288 0 00-.302-15.873 14.32 14.32 0 00-6.515-5.145 14.343 14.343 0 00-8.279-.669 14.361 14.361 0 00-9.02 6.272 14.313 14.313 0 00-1.927 10.805z" fill="#3F4E70"/><path d="M105.292 115.505a9.82 9.82 0 002.796 4.973 9.856 9.856 0 0015.106-1.788 9.818 9.818 0 00-.204-10.914 9.85 9.85 0 00-10.171-3.998 9.872 9.872 0 00-6.198 4.305 9.825 9.825 0 00-1.329 7.422z" fill="#fff"/><path d="M124.017 164.391l3.749-.813-9.722-44.709-3.748.813 9.721 44.709z" fill="#fff"/><path d="M111.77 114.464a3.377 3.377 0 004.642 2.356 3.369 3.369 0 002.019-3.146 3.365 3.365 0 00-2.135-3.069 3.389 3.389 0 00-1.949-.158 3.39 3.39 0 00-2.122 1.476 3.372 3.372 0 00-.455 2.541z" fill="#3F4E70"/><path d="M113.687 116.827l2.368 10.901a17.202 17.202 0 01-3.432-.145l.484-11.099.58.343z" fill="#000" opacity=".13"/><path d="M189.707 151.382c-.831.148-1.548.864-2.471.761.206 1.314-.259-1.74-.133-.411.175 1.777.283 3.554.324 5.331a63.126 63.126 0 010 3.046c0 .175-.042 1.142 0 .407 0 .267-.019.533-.035.803a53.418 53.418 0 01-.095 1.546 53.428 53.428 0 01-.919 6.736 46.243 46.243 0 01-.835 3.404 46.1 46.1 0 01-.557 1.766c-.083.252-.175.503-.266.762 0 .049-.042.125-.065.186l-.057.141a32.54 32.54 0 01-3.329 6.313c-.172.248-.347.495-.526.739.183-.259-.286.361-.382.479-.347.423-.705.842-1.083 1.249a28.145 28.145 0 01-2.554 2.426c.171-.153-.553.426-.687.521-.263.195-.526.381-.8.564-.488.332-.997.65-1.525.952-.351.205-.706.399-1.068.59l-.381.19-.035.019h-.038c-.587.259-1.166.526-1.769.762-.763.297-1.525.563-2.314.803-.332.103-.664.198-.999.29l-.45.118h-.031a46.566 46.566 0 01-4.854.807c-.469.049-.938.08-1.407.114h-.461.191-.187c-.706 0-1.407 0-2.109-.031a26.821 26.821 0 01-2.238-.194c-.313-.038-.621-.091-.93-.133h-.05l-.4-.08a26.423 26.423 0 01-3.813-1.093c-.183-.068-1.312-.548-.603-.228l-.785-.35a26.525 26.525 0 01-1.605-.819 29.445 29.445 0 01-2.993-1.904l-.218-.163-.438-.347c-.218-.175-.431-.35-.641-.529a35.498 35.498 0 01-3.847-3.842 23.63 23.63 0 01-1.209-1.462c-.11-.145-.518-.689-.289-.381-.161-.221-.325-.441-.481-.666a56.63 56.63 0 01-6.539-12.412 62.768 62.768 0 01-1.091-2.982c-.091-.262-.175-.529-.266-.792-.008-.021-.014-.043-.02-.064 0-.031-.022-.069-.038-.118a77.06 77.06 0 01-1.689-6.138c-.343-1.474-.667-2.955-.881-4.447-.415-2.94-6.367-2.094-5.952.841 0 .103.035.206.05.309a53.49 53.49 0 001.453 6.67 78.086 78.086 0 004.358 12.314c3.981 8.719 10.268 17.941 21.459 21.98 11.721 4.234 27.14.499 35.334-7.912 7.741-7.95 9.632-18.336 9.914-27.665.137-4.493.606-4.683-.156-9.111-1.022.453-2.402.141-3.489.335zm-23.015 40.519c.156-.034.416-.106 0 0zm17.921-16.102c0 .023 0 .027 0 0z" fill="#F9C4C3"/><path d="M190.754 60.635l12.857-2.151a1.751 1.751 0 011.979 1.413l4.918 29.317c.234 1.378.466 2.758.694 4.139.382 2.181-3.016 2.753-3.382.567-1.639-9.78-3.28-19.559-4.922-29.337-.137-.814-.271-1.63-.408-2.444l-11.164 1.87c-2.178.38-2.75-3.008-.572-3.374z" fill="#87E3EC"/><path d="M186.732 66.424l3.916-.65-1.144-6.782-3.904.651a2.907 2.907 0 00-2.383 3.34l.179 1.066a2.898 2.898 0 003.336 2.375z" fill="#3F4E70"/><path d="M190.198 66.39l3.306-.556a3.348 3.348 0 002.756-3.853l-.209-1.234a3.36 3.36 0 00-1.366-2.18 3.359 3.359 0 00-2.512-.569l-3.306.552 1.331 7.84zm-33.013-.37l-12.857 2.139a1.745 1.745 0 00-1.407 1.98l4.918 29.318.698 4.138c.381 2.182 3.748 1.618 3.382-.567-1.639-9.778-3.28-19.557-4.922-29.337-.134-.815-.271-1.626-.408-2.44l11.164-1.87c2.177-.335 1.628-3.724-.568-3.362z" fill="#87E3EC"/><path d="M162.88 70.187l-3.904.636-1.144-6.781 3.904-.655a2.91 2.91 0 013.341 2.38l.179 1.066a2.905 2.905 0 01-.49 2.17 2.896 2.896 0 01-1.886 1.184z" fill="#3F4E70"/><path d="M159.591 71.277l-3.306.552a3.359 3.359 0 01-3.863-2.749l-.206-1.233a3.356 3.356 0 011.53-3.392c.373-.233.789-.39 1.223-.462l3.31-.556 1.312 7.84z" fill="#87E3EC"/><path d="M187.25 154.804s.24 2.102.404 4.539l5.72-3.686-.401-2.528-5.723 1.675z" fill="#000" opacity=".13"/><path d="M212.417 93.436c1.396 6.092 2.025 12.447 2.235 18.683.381 11.065-.641 23.363-7.207 32.68-6.947 9.861-20.86 14.053-31.925 8.852-10.57-4.969-16.983-16.01-21.25-26.42a119.485 119.485 0 01-4.857-14.682c-.694-2.612-1.377-5.262-1.808-7.931-.019-.125-.045-.247-.064-.38-.588-3.492 4.823-4.402 5.41-.906.301 1.774.702 3.537 1.117 5.288a130.35 130.35 0 001.495 5.681c.156.544.32 1.085.484 1.629.016.076.038.149.065.221l.297.941c.387 1.19.79 2.376 1.209 3.556a82.752 82.752 0 006.863 14.849c.18.301.382.594.546.891-.344-.556.114.175.236.358a53.23 53.23 0 001.224 1.79 44.955 44.955 0 002.52 3.209c.416.484.843.952 1.281 1.413.21.217.416.43.63.639l.423.419c.114.111.579.53.061.061.963.88 1.982 1.698 3.05 2.448a28.22 28.22 0 001.525.994c.244.149.496.286.763.43-.675-.38.381.198.572.282a22.313 22.313 0 003.58 1.356c.126.034.252.061.381.099.641.194-.594-.107.065.019.286.053.572.118.862.171.686.122 1.376.211 2.07.267.649.049 1.297.06 1.945.064.168 0 .667-.026 0 0l.423-.023c.427-.03.854-.061 1.285-.11a32.833 32.833 0 004.404-.887c.13-.034.519-.168-.08.027l.511-.168a23.01 23.01 0 002.97-1.245c.538-.27 1.053-.579 1.575-.876.587-.335-.484.35.065-.042.107-.076.217-.144.324-.217a21.585 21.585 0 002.272-1.793c.237-.213.469-.43.698-.655.134-.133.965-1.032.446-.442a27.668 27.668 0 002.33-3.008c.315-.479.616-.968.904-1.465.091-.156.575-1.066.225-.381.179-.343.354-.689.522-1.036a40.11 40.11 0 002.623-7.447c.035-.13.065-.259.096-.381-.157.64-.039.168 0 0 .064-.297.129-.594.19-.891.145-.693.272-1.39.382-2.09.221-1.333.381-2.665.533-4.021.263-2.657.39-5.326.382-7.996 0-.613 0-1.226-.019-1.839l-.023-.952c0 .853 0-.274-.019-.483-.054-1.203-.126-2.41-.218-3.61a117.696 117.696 0 00-.667-6.354c-.328-2.464-.785-4.893-1.235-7.334a11.2 11.2 0 00-.077-.354c-.331-1.45.851-2.931 2.25-3.167a2.802 2.802 0 013.161 2.261l-.031.008z" fill="#F9C4C3"/><path d="M162.607 198.412v-.019l.255-.065c-.05.042-.095.042-.255.084zm20.525-18.413l-.023-.007.012-.019.019.007-.008.019zm2.382-35.082v-.019h.093v.023l-.093-.004zm5.377 1.225v-.019l.178-.057a.776.776 0 01-.178.076zm13.614-16.688h-.019l.034-.125v-.019l.019-.08h.023l-.026.107-.031.117zm-.008.034h-.02a.06.06 0 010-.019h.02a.06.06 0 010 .019zm-18.902 17.562v-.023h.132v.023h-.139.007z" fill="#A0A2A5"/><path d="M103.555 113.167l-59.366-9.687-12.867 78.641 59.365 9.686 12.868-78.64z" fill="#3F4E70"/><path d="M36.303 179.465l.888.149 52.16 10.166 10.795-74.592-2.55.296-61.293 63.981z" fill="#040909" opacity=".26"/><path d="M100.152 115.182l-53.379-8.709-11.905 72.755 53.379 8.71 11.905-72.756z" fill="#F7F7F7"/><path d="M46.526 106.152l38.392 6.264-43.703 25.807 5.311-32.071z" fill="#000" opacity=".05"/><path d="M85.118 112.334l-23.184-3.783-.354 2.16 23.184 3.783.354-2.16z" fill="#000" opacity=".12"/><path d="M81.43 105.029l-.358-.057.038-.243c.381-2.266-1.457-4.451-4.08-4.882l-3.44-.563c-2.626-.427-5.051 1.062-5.425 3.331l-.038.24-.359-.057c-2.627-.43-5.052 1.062-5.425 3.332l-.763 4.569 23.183 3.78.762-4.569c.355-2.265-1.472-4.439-4.095-4.881zm-3.813-.521l-6.1-.998a1.14 1.14 0 01-.925-.872 1.136 1.136 0 01.452-1.186 1.155 1.155 0 01.854-.196l6.1.998a1.151 1.151 0 01.925.871 1.143 1.143 0 01-1.306 1.383z" fill="#BEC6CC"/><path d="M58.357 129.249l-7.84-1.279a.415.415 0 00-.473.339l-1.273 7.778a.422.422 0 00.343.472l7.836 1.276a.377.377 0 00.294-.065h.019a.377.377 0 00.16-.259l1.27-7.782a.41.41 0 00-.336-.48zm-1.681 7.71l-7.02-1.142c.379-2.323.76-4.645 1.144-6.968l7.02 1.142c-.384 2.323-.766 4.646-1.144 6.968zm-.672 6.672l-7.84-1.279a.419.419 0 00-.472.339l-1.274 7.779a.418.418 0 00.343.472l7.836 1.279a.382.382 0 00.399-.174.383.383 0 00.051-.146l1.27-7.779a.414.414 0 00-.313-.491zm-1.681 7.714l-7.02-1.142c.376-2.323.757-4.645 1.144-6.968l7.02 1.143c-.374 2.322-.756 4.645-1.145 6.967zm-.671 6.67l-7.839-1.28a.417.417 0 00-.473.339 3939.48 3939.48 0 01-1.273 7.779.416.416 0 00.343.472l7.828 1.279a.378.378 0 00.398-.178.378.378 0 00.052-.145l1.27-7.779a.412.412 0 00-.306-.487zm-1.681 7.714l-7.02-1.143a1754.5 1754.5 0 011.144-6.971l7.02 1.142c-.384 2.323-.765 4.646-1.144 6.972z" opacity=".47" fill="#C0C4C9"/><path d="M52.678 131.341l1.899-.304.709 1.953 9.612-4.756.969.362-11.34 6.515-1.85-3.77zm-3.067 14.641l1.9-.301.708 1.953 9.613-4.755.968.362-11.34 6.51-1.849-3.769zm-2.388 13.586l1.895-.301.709 1.949 9.616-4.755.965.362-11.34 6.514-1.845-3.769z" fill="#D34E4E"/><path d="M86.292 166.902l-27.733-4.476-.632 3.901 27.734 4.476.631-3.901zm2.017-15.633l-27.647-4.511-.636 3.889 27.647 4.511.636-3.889zm2.492-15.235l-27.647-4.511-.636 3.89 27.647 4.511.636-3.89z" fill="#1DB9C9" opacity=".32"/><path d="M287.346 157.941l-26.923 6.522c-9.952 2.414-19.957-3.594-22.347-13.417-2.387-9.824 3.748-19.742 13.703-22.152l26.847-6.507 8.72 35.554z" fill="#E0E0E0"/><path d="M288.296 157.715l30.263-7.394a17.05 17.05 0 0010.538-7.685 17 17 0 002.007-12.876l-.607-2.497a17.032 17.032 0 00-7.697-10.521 17.043 17.043 0 00-6.247-2.282 17.039 17.039 0 00-6.645.28l-30.267 7.394 8.655 35.581z" fill="#555"/><path d="M272.418 139.649l-6.836 1.656-.641.156c-.402-1.637-.801-3.276-1.197-4.915-.199-.823-.401-1.645-.599-2.464a.534.534 0 00-.637-.381l-4.251 1.032a.53.53 0 00-.381.629l1.639 6.75c.054.21.103.423.153.632l-4.98 1.207-2.497.606a.538.538 0 00-.382.632l1.022 4.188a.488.488 0 00.233.32.491.491 0 00.404.064l6.817-1.648.641-.153 1.197 4.916c.199.822.382 1.641.599 2.463a.53.53 0 00.637.381l4.251-1.032a.498.498 0 00.324-.232.482.482 0 00.065-.4 4669.807 4669.807 0 00-1.792-7.379l4.98-1.229 2.497-.606a.533.533 0 00.381-.632l-1.022-4.188a.532.532 0 00-.625-.373z" fill="#3F4E70"/><path d="M212.844 128.052l-3.443 1.088-2.798-1.511-.622.43.5.784-2.685-.586-1.982 1.021-.431 2.931 1.517 2.662 2.959.114 3.119-1.637 4.774-1.283-.908-4.013z" fill="#F3B8AC"/><path d="M209.918 128.291l16.033-3.754c1.438-.339 2.932-.411 4.37-.762 2.105-.506 2.669-.685 2.974-2.688.858-5.806-.233-11.83.648-17.549 2.109-.209 4.149-.708 6.303-.677 3.515.045 3.21 2.463 3.409 5.155.236 3.191.381 6.397.381 9.599.019 2.665.896 14.16-3.008 15.005-2.795.609-30.988 2.109-30.977 2.688.012-.228-.133-7.017-.133-7.017z" fill="#1DB9C9"/><path d="M56.26 138.348c.667-.21 5.647 1.039 5.32 1.473-.38.459-.802.88-1.263 1.257 1.418.864 5.86 2.368 2.692 3.975-1.373.696-5.03-.282-6.1-1.211l-.073-.061-1.762-4.706c.32-.349.73-.601 1.186-.727z" fill="#F3B8AC"/><path d="M35.273 124.688l19.763 14.331.023.057 1.754 4.706.457 1.218c-10.642-1.374-11.568-4.188-21.615-8.54l-.382-11.772z" fill="#8EC3CB"/></g><defs><clipPath id="clip0_4918_51573"><path fill="#fff" d="M0 0h342v242H0z"/></clipPath></defs></svg>