<svg width="38" height="38" fill="none" xmlns="http://www.w3.org/2000/svg"><path d="M29.964 7.971A15.271 15.271 0 0019.06 3.444c-8.494 0-15.416 6.923-15.416 15.416 0 2.722.716 5.367 2.053 7.7L3.52 34.556l8.166-2.147a15.42 15.42 0 007.373 1.882c8.494 0 15.416-6.922 15.416-15.415 0-4.123-1.602-7.996-4.511-10.905zM19.06 31.678c-2.303 0-4.558-.623-6.534-1.79l-.466-.28-4.854 1.276 1.291-4.729-.31-.482a12.855 12.855 0 01-1.96-6.813c0-7.062 5.755-12.818 12.817-12.818a12.68 12.68 0 019.053 3.765 12.728 12.728 0 013.75 9.068c.03 7.063-5.725 12.803-12.788 12.803zm7.03-9.582c-.388-.187-2.286-1.12-2.628-1.26-.358-.125-.607-.187-.871.186-.265.39-.996 1.26-1.214 1.51-.217.264-.45.295-.84.092-.389-.186-1.633-.606-3.095-1.913-1.151-1.027-1.914-2.287-2.147-2.675-.218-.39-.031-.592.171-.794.171-.17.39-.45.576-.669.186-.218.264-.389.389-.638.124-.264.062-.482-.032-.668-.093-.187-.87-2.085-1.182-2.863-.31-.746-.638-.653-.87-.668H13.6c-.265 0-.67.093-1.027.482-.342.389-1.338 1.322-1.338 3.22 0 1.897 1.385 3.733 1.571 3.982.187.264 2.722 4.153 6.58 5.818a19.1 19.1 0 002.194.809c.917.295 1.757.248 2.426.155.747-.109 2.287-.933 2.598-1.835.327-.903.327-1.665.218-1.836-.11-.171-.342-.249-.731-.435z" fill="#333"/></svg>