<svg width="64" height="64" fill="none" xmlns="http://www.w3.org/2000/svg"><g filter="url(#filter0_ii_1460_15633)"><path d="M26.75 12.969c0-1.091.878-1.969 1.969-1.969h6.562c1.091 0 1.969.878 1.969 1.969a1.964 1.964 0 01-1.969 1.969H33.97v2.756a14.4 14.4 0 016.75 2.797l1.953-1.944-.927-.935a1.96 1.96 0 010-2.781c.771-.763 2.018-.771 2.781 0l4.643 4.643a1.96 1.96 0 010 2.78c-.771.764-2.018.772-2.78 0l-.936-.926-1.952 1.952a14.35 14.35 0 012.797 6.751h2.764V28.72c0-1.091.878-1.969 1.97-1.969 1.09 0 1.968.878 1.968 1.969v6.562a1.964 1.964 0 01-1.969 1.969 1.964 1.964 0 01-1.968-1.969V33.97h-2.757a14.398 14.398 0 01-2.797 6.75l1.944 1.953.927-.927a1.96 1.96 0 012.78 0 1.966 1.966 0 010 2.781l-4.642 4.643a1.96 1.96 0 01-2.78 0c-.764-.771-.772-2.018 0-2.78l.934-.936-1.952-1.952a14.35 14.35 0 01-6.751 2.797v2.764h1.312c1.091 0 1.969.878 1.969 1.97A1.964 1.964 0 0135.281 53H28.72a1.964 1.964 0 01-1.969-1.969c0-1.09.878-1.968 1.969-1.968h1.312v-2.757a14.398 14.398 0 01-6.75-2.797l-1.953 1.944.927.927a1.96 1.96 0 010 2.78 1.966 1.966 0 01-2.781 0l-4.643-4.634a1.96 1.96 0 010-2.78c.771-.764 2.018-.772 2.78 0l.936.926L20.5 40.72a14.327 14.327 0 01-2.805-6.751h-2.756v1.312a1.964 1.964 0 01-1.97 1.969A1.964 1.964 0 0111 35.281V28.72c0-1.091.878-1.969 1.969-1.969 1.09 0 1.969.878 1.969 1.969v1.312h2.756a14.4 14.4 0 012.797-6.75l-1.944-1.953-.935.927a1.96 1.96 0 01-2.781 0c-.763-.771-.771-2.018 0-2.781l4.643-4.643a1.96 1.96 0 012.78 0c.764.771.772 2.018 0 2.78l-.926.936L23.28 20.5a14.35 14.35 0 016.751-2.797v-2.765H28.72a1.964 1.964 0 01-1.969-1.968z" fill="#97D4DA"/></g><g filter="url(#filter1_i_1460_15633)"><rect x="26" y="11" width="12" height="4" rx="2" fill="#F4AD71"/></g><g filter="url(#filter2_i_1460_15633)"><rect x="12.839" y="21.251" width="12" height="4.23" rx="2.115" transform="rotate(-44.53 12.839 21.251)" fill="#F4AD71"/></g><g filter="url(#filter3_i_1460_15633)"><rect x="11" y="38" width="12" height="4.23" rx="2.115" transform="rotate(-90 11 38)" fill="#F4AD71"/></g><g filter="url(#filter4_i_1460_15633)"><rect x="21.485" y="51.476" width="12" height="4.23" rx="2.115" transform="rotate(-135 21.485 51.476)" fill="#F4AD71"/></g><g filter="url(#filter5_i_1460_15633)"><rect x="38" y="53.23" width="12" height="4.23" rx="2.115" transform="rotate(180 38 53.23)" fill="#F4AD71"/></g><g filter="url(#filter6_i_1460_15633)"><rect x="48.485" y="24.314" width="12" height="4" rx="2" transform="rotate(-135 48.485 24.314)" fill="#F4AD71"/></g><g filter="url(#filter7_i_1460_15633)"><rect x="53" y="26" width="12" height="4" rx="2" transform="rotate(90 53 26)" fill="#F4AD71"/></g><g filter="url(#filter8_i_1460_15633)"><rect x="51.314" y="42.828" width="12" height="4.31" rx="2.155" transform="rotate(135 51.314 42.828)" fill="#F4AD71"/></g><defs><filter id="filter0_ii_1460_15633" x="11" y="7" width="42" height="50" filterUnits="userSpaceOnUse" color-interpolation-filters="sRGB"><feFlood flood-opacity="0" result="BackgroundImageFix"/><feBlend in="SourceGraphic" in2="BackgroundImageFix" result="shape"/><feColorMatrix in="SourceAlpha" values="0 0 0 0 0 0 0 0 0 0 0 0 0 0 0 0 0 0 127 0" result="hardAlpha"/><feOffset dy="4"/><feGaussianBlur stdDeviation="2"/><feComposite in2="hardAlpha" operator="arithmetic" k2="-1" k3="1"/><feColorMatrix values="0 0 0 0 1 0 0 0 0 1 0 0 0 0 1 0 0 0 0.25 0"/><feBlend in2="shape" result="effect1_innerShadow_1460_15633"/><feColorMatrix in="SourceAlpha" values="0 0 0 0 0 0 0 0 0 0 0 0 0 0 0 0 0 0 127 0" result="hardAlpha"/><feOffset dy="-4"/><feGaussianBlur stdDeviation="2"/><feComposite in2="hardAlpha" operator="arithmetic" k2="-1" k3="1"/><feColorMatrix values="0 0 0 0 0 0 0 0 0 0.47451 0 0 0 0 0.521569 0 0 0 1 0"/><feBlend in2="effect1_innerShadow_1460_15633" result="effect2_innerShadow_1460_15633"/></filter><filter id="filter1_i_1460_15633" x="24.5" y="10" width="13.5" height="5" filterUnits="userSpaceOnUse" color-interpolation-filters="sRGB"><feFlood flood-opacity="0" result="BackgroundImageFix"/><feBlend in="SourceGraphic" in2="BackgroundImageFix" result="shape"/><feColorMatrix in="SourceAlpha" values="0 0 0 0 0 0 0 0 0 0 0 0 0 0 0 0 0 0 127 0" result="hardAlpha"/><feOffset dx="-2" dy="-1"/><feGaussianBlur stdDeviation=".75"/><feComposite in2="hardAlpha" operator="arithmetic" k2="-1" k3="1"/><feColorMatrix values="0 0 0 0 0.721569 0 0 0 0 0.329412 0 0 0 0 0 0 0 0 1 0"/><feBlend in2="shape" result="effect1_innerShadow_1460_15633"/></filter><filter id="filter2_i_1460_15633" x="12.215" y="12.712" width="11.269" height="10.679" filterUnits="userSpaceOnUse" color-interpolation-filters="sRGB"><feFlood flood-opacity="0" result="BackgroundImageFix"/><feBlend in="SourceGraphic" in2="BackgroundImageFix" result="shape"/><feColorMatrix in="SourceAlpha" values="0 0 0 0 0 0 0 0 0 0 0 0 0 0 0 0 0 0 127 0" result="hardAlpha"/><feOffset dx="-2" dy="-1"/><feGaussianBlur stdDeviation=".75"/><feComposite in2="hardAlpha" operator="arithmetic" k2="-1" k3="1"/><feColorMatrix values="0 0 0 0 0.721569 0 0 0 0 0.329412 0 0 0 0 0 0 0 0 1 0"/><feBlend in2="shape" result="effect1_innerShadow_1460_15633"/></filter><filter id="filter3_i_1460_15633" x="9.5" y="25" width="5.73" height="13" filterUnits="userSpaceOnUse" color-interpolation-filters="sRGB"><feFlood flood-opacity="0" result="BackgroundImageFix"/><feBlend in="SourceGraphic" in2="BackgroundImageFix" result="shape"/><feColorMatrix in="SourceAlpha" values="0 0 0 0 0 0 0 0 0 0 0 0 0 0 0 0 0 0 127 0" result="hardAlpha"/><feOffset dx="-2" dy="-1"/><feGaussianBlur stdDeviation=".75"/><feComposite in2="hardAlpha" operator="arithmetic" k2="-1" k3="1"/><feColorMatrix values="0 0 0 0 0.721569 0 0 0 0 0.329412 0 0 0 0 0 0 0 0 1 0"/><feBlend in2="shape" result="effect1_innerShadow_1460_15633"/></filter><filter id="filter4_i_1460_15633" x="12.376" y="39.876" width="11.224" height="10.724" filterUnits="userSpaceOnUse" color-interpolation-filters="sRGB"><feFlood flood-opacity="0" result="BackgroundImageFix"/><feBlend in="SourceGraphic" in2="BackgroundImageFix" result="shape"/><feColorMatrix in="SourceAlpha" values="0 0 0 0 0 0 0 0 0 0 0 0 0 0 0 0 0 0 127 0" result="hardAlpha"/><feOffset dx="-2" dy="-1"/><feGaussianBlur stdDeviation=".75"/><feComposite in2="hardAlpha" operator="arithmetic" k2="-1" k3="1"/><feColorMatrix values="0 0 0 0 0.721569 0 0 0 0 0.329412 0 0 0 0 0 0 0 0 1 0"/><feBlend in2="shape" result="effect1_innerShadow_1460_15633"/></filter><filter id="filter5_i_1460_15633" x="24.5" y="48" width="13.5" height="5.23" filterUnits="userSpaceOnUse" color-interpolation-filters="sRGB"><feFlood flood-opacity="0" result="BackgroundImageFix"/><feBlend in="SourceGraphic" in2="BackgroundImageFix" result="shape"/><feColorMatrix in="SourceAlpha" values="0 0 0 0 0 0 0 0 0 0 0 0 0 0 0 0 0 0 127 0" result="hardAlpha"/><feOffset dx="-2" dy="-1"/><feGaussianBlur stdDeviation=".75"/><feComposite in2="hardAlpha" operator="arithmetic" k2="-1" k3="1"/><feColorMatrix values="0 0 0 0 0.721569 0 0 0 0 0.329412 0 0 0 0 0 0 0 0 1 0"/><feBlend in2="shape" result="effect1_innerShadow_1460_15633"/></filter><filter id="filter6_i_1460_15633" x="39.328" y="12.828" width="11.157" height="10.657" filterUnits="userSpaceOnUse" color-interpolation-filters="sRGB"><feFlood flood-opacity="0" result="BackgroundImageFix"/><feBlend in="SourceGraphic" in2="BackgroundImageFix" result="shape"/><feColorMatrix in="SourceAlpha" values="0 0 0 0 0 0 0 0 0 0 0 0 0 0 0 0 0 0 127 0" result="hardAlpha"/><feOffset dx="-2" dy="-1"/><feGaussianBlur stdDeviation=".75"/><feComposite in2="hardAlpha" operator="arithmetic" k2="-1" k3="1"/><feColorMatrix values="0 0 0 0 0.721569 0 0 0 0 0.329412 0 0 0 0 0 0 0 0 1 0"/><feBlend in2="shape" result="effect1_innerShadow_1460_15633"/></filter><filter id="filter7_i_1460_15633" x="47.5" y="25" width="5.5" height="13" filterUnits="userSpaceOnUse" color-interpolation-filters="sRGB"><feFlood flood-opacity="0" result="BackgroundImageFix"/><feBlend in="SourceGraphic" in2="BackgroundImageFix" result="shape"/><feColorMatrix in="SourceAlpha" values="0 0 0 0 0 0 0 0 0 0 0 0 0 0 0 0 0 0 127 0" result="hardAlpha"/><feOffset dx="-2" dy="-1"/><feGaussianBlur stdDeviation=".75"/><feComposite in2="hardAlpha" operator="arithmetic" k2="-1" k3="1"/><feColorMatrix values="0 0 0 0 0.721569 0 0 0 0 0.329412 0 0 0 0 0 0 0 0 1 0"/><feBlend in2="shape" result="effect1_innerShadow_1460_15633"/></filter><filter id="filter8_i_1460_15633" x="39.173" y="39.673" width="11.248" height="10.748" filterUnits="userSpaceOnUse" color-interpolation-filters="sRGB"><feFlood flood-opacity="0" result="BackgroundImageFix"/><feBlend in="SourceGraphic" in2="BackgroundImageFix" result="shape"/><feColorMatrix in="SourceAlpha" values="0 0 0 0 0 0 0 0 0 0 0 0 0 0 0 0 0 0 127 0" result="hardAlpha"/><feOffset dx="-2" dy="-1"/><feGaussianBlur stdDeviation=".75"/><feComposite in2="hardAlpha" operator="arithmetic" k2="-1" k3="1"/><feColorMatrix values="0 0 0 0 0.721569 0 0 0 0 0.329412 0 0 0 0 0 0 0 0 1 0"/><feBlend in2="shape" result="effect1_innerShadow_1460_15633"/></filter></defs></svg>