<svg width="64" height="64" fill="none" xmlns="http://www.w3.org/2000/svg"><g filter="url(#filter0_ii_1460_15632)"><path d="M44.55 41v7.5c0 1.383-1.078 2.5-2.411 2.5s-2.41-1.117-2.41-2.5V34.477l-.972 1.601c-.708 1.172-2.2 1.516-3.322.781-1.123-.734-1.462-2.28-.753-3.445L38.576 27c1.326-2.18 3.638-3.508 6.117-3.508h.926c2.486 0 4.798 1.32 6.117 3.508l3.894 6.422c.708 1.172.37 2.71-.753 3.445-1.123.735-2.614.383-3.322-.781l-.98-1.61V48.5c0 1.383-1.077 2.5-2.41 2.5-1.333 0-2.41-1.117-2.41-2.5V41h-1.206z" fill="#97D4DA"/></g><g filter="url(#filter1_ii_1460_15632)"><path d="M15.624 48.5v-6.25h-1.341c-.821 0-1.401-.836-1.145-1.648l2.343-7.297-2.155 2.953c-.806 1.101-2.32 1.312-3.374.484-1.055-.828-1.266-2.398-.467-3.5l4.436-6.07c1.688-2.313 4.332-3.672 7.126-3.672 2.795 0 5.439 1.36 7.126 3.672l4.437 6.07c.806 1.102.595 2.672-.467 3.5a2.354 2.354 0 01-3.375-.484l-2.154-2.953 2.343 7.297c.263.812-.324 1.648-1.145 1.648H26.47v6.25c0 1.383-1.077 2.5-2.41 2.5-1.334 0-2.411-1.117-2.411-2.5v-6.25h-1.205v6.25c0 1.383-1.078 2.5-2.41 2.5-1.334 0-2.411-1.117-2.411-2.5z" fill="#F7D0CF"/></g><g filter="url(#filter2_ii_1460_15632)" fill="#97D4DA"><path d="M50.528 18.45c-3.883-2.828-8.411-3.049-10.302-1.326-.566 2.32 1.02 5.56 4.529 5.857 3.283.279 5.811-2.615 5.773-4.53zm2.378 2.429c.432-.997-.717-2.87-1.472-2.981-.25 1.936-1.204 3.215-1.357 3.421l-.002.002c.755.405 2.378.601 2.83-.442zm-7.812-5.415c-1.474-.15-1.852-.166-2.83 0 .113-.295.471-.995 1.472-.995 1 0 1.245.626 1.358.995z"/><path d="M40 16.572c.472-.356 1.106-.64 1.698-.887.038-.59.68-1.658 2.038-1.658 1.358 0 1.849.995 1.924 1.658 1.871.463 2.883.752 5.095 2.213.34-3.429-1.72-5.483-5.095-5.86-3.962-.442-5.622 3.097-5.66 4.534z"/></g><g filter="url(#filter3_ii_1460_15632)" fill="#F7D0CF"><path d="M18.723 15.6s-1.467 2.398-2.933 2.698c0 2.497 2.541 4.886 5.67 4.69 3.616-.225 5.017-4.124 4.398-5.989-2.672 1.39-7.136-1.398-7.136-1.398z"/><path d="M18.625 15.001c-1.192 1.845-2.167 2.557-3.03 2.897-.229-1.532.977-5.012 4.496-5.294 4.301-.345 5.442 2.497 5.865 3.896-1.857.699-3.134.618-7.331-1.499z"/><path d="M16.18 12.204c.57.207 1.272.9 1.272.9s-.84.259-1.858 2.497C14.502 18 11 16.899 11 16.899s1.53-.417 2.15-2.697c.642-2.354 1.844-2.428 3.03-1.998z"/></g><defs><filter id="filter0_ii_1460_15632" x="32.312" y="22.492" width="25.689" height="28.508" filterUnits="userSpaceOnUse" color-interpolation-filters="sRGB"><feFlood flood-opacity="0" result="BackgroundImageFix"/><feBlend in="SourceGraphic" in2="BackgroundImageFix" result="shape"/><feColorMatrix in="SourceAlpha" values="0 0 0 0 0 0 0 0 0 0 0 0 0 0 0 0 0 0 127 0" result="hardAlpha"/><feOffset dx="2"/><feGaussianBlur stdDeviation="2"/><feComposite in2="hardAlpha" operator="arithmetic" k2="-1" k3="1"/><feColorMatrix values="0 0 0 0 1 0 0 0 0 1 0 0 0 0 1 0 0 0 0.25 0"/><feBlend in2="shape" result="effect1_innerShadow_1460_15632"/><feColorMatrix in="SourceAlpha" values="0 0 0 0 0 0 0 0 0 0 0 0 0 0 0 0 0 0 127 0" result="hardAlpha"/><feOffset dx="-2" dy="-1"/><feGaussianBlur stdDeviation="1.5"/><feComposite in2="hardAlpha" operator="arithmetic" k2="-1" k3="1"/><feColorMatrix values="0 0 0 0 0 0 0 0 0 0.47451 0 0 0 0 0.521569 0 0 0 1 0"/><feBlend in2="effect1_innerShadow_1460_15632" result="effect2_innerShadow_1460_15632"/></filter><filter id="filter1_ii_1460_15632" x="7" y="22.5" width="28.1" height="28.5" filterUnits="userSpaceOnUse" color-interpolation-filters="sRGB"><feFlood flood-opacity="0" result="BackgroundImageFix"/><feBlend in="SourceGraphic" in2="BackgroundImageFix" result="shape"/><feColorMatrix in="SourceAlpha" values="0 0 0 0 0 0 0 0 0 0 0 0 0 0 0 0 0 0 127 0" result="hardAlpha"/><feOffset dx="2"/><feGaussianBlur stdDeviation="2"/><feComposite in2="hardAlpha" operator="arithmetic" k2="-1" k3="1"/><feColorMatrix values="0 0 0 0 1 0 0 0 0 1 0 0 0 0 1 0 0 0 0.25 0"/><feBlend in2="shape" result="effect1_innerShadow_1460_15632"/><feColorMatrix in="SourceAlpha" values="0 0 0 0 0 0 0 0 0 0 0 0 0 0 0 0 0 0 127 0" result="hardAlpha"/><feOffset dx="-2" dy="-1"/><feGaussianBlur stdDeviation="1.5"/><feComposite in2="hardAlpha" operator="arithmetic" k2="-1" k3="1"/><feColorMatrix values="0 0 0 0 0.745833 0 0 0 0 0.219682 0 0 0 0 0.20324 0 0 0 1 0"/><feBlend in2="effect1_innerShadow_1460_15632" result="effect2_innerShadow_1460_15632"/></filter><filter id="filter2_ii_1460_15632" x="38" y="11" width="17" height="12" filterUnits="userSpaceOnUse" color-interpolation-filters="sRGB"><feFlood flood-opacity="0" result="BackgroundImageFix"/><feBlend in="SourceGraphic" in2="BackgroundImageFix" result="shape"/><feColorMatrix in="SourceAlpha" values="0 0 0 0 0 0 0 0 0 0 0 0 0 0 0 0 0 0 127 0" result="hardAlpha"/><feOffset dx="-2" dy="-1"/><feGaussianBlur stdDeviation="1"/><feComposite in2="hardAlpha" operator="arithmetic" k2="-1" k3="1"/><feColorMatrix values="0 0 0 0 0 0 0 0 0 0.47451 0 0 0 0 0.521569 0 0 0 1 0"/><feBlend in2="shape" result="effect1_innerShadow_1460_15632"/><feColorMatrix in="SourceAlpha" values="0 0 0 0 0 0 0 0 0 0 0 0 0 0 0 0 0 0 127 0" result="hardAlpha"/><feOffset dx="2"/><feGaussianBlur stdDeviation="2"/><feComposite in2="hardAlpha" operator="arithmetic" k2="-1" k3="1"/><feColorMatrix values="0 0 0 0 1 0 0 0 0 1 0 0 0 0 1 0 0 0 0.25 0"/><feBlend in2="effect1_innerShadow_1460_15632" result="effect2_innerShadow_1460_15632"/></filter><filter id="filter3_ii_1460_15632" x="9" y="11" width="19" height="12" filterUnits="userSpaceOnUse" color-interpolation-filters="sRGB"><feFlood flood-opacity="0" result="BackgroundImageFix"/><feBlend in="SourceGraphic" in2="BackgroundImageFix" result="shape"/><feColorMatrix in="SourceAlpha" values="0 0 0 0 0 0 0 0 0 0 0 0 0 0 0 0 0 0 127 0" result="hardAlpha"/><feOffset dx="-2" dy="-1"/><feGaussianBlur stdDeviation="1.5"/><feComposite in2="hardAlpha" operator="arithmetic" k2="-1" k3="1"/><feColorMatrix values="0 0 0 0 0.745098 0 0 0 0 0.219608 0 0 0 0 0.203922 0 0 0 1 0"/><feBlend in2="shape" result="effect1_innerShadow_1460_15632"/><feColorMatrix in="SourceAlpha" values="0 0 0 0 0 0 0 0 0 0 0 0 0 0 0 0 0 0 127 0" result="hardAlpha"/><feOffset dx="2"/><feGaussianBlur stdDeviation="2"/><feComposite in2="hardAlpha" operator="arithmetic" k2="-1" k3="1"/><feColorMatrix values="0 0 0 0 1 0 0 0 0 1 0 0 0 0 1 0 0 0 0.25 0"/><feBlend in2="effect1_innerShadow_1460_15632" result="effect2_innerShadow_1460_15632"/></filter></defs></svg>