<svg width="64" height="64" fill="none" xmlns="http://www.w3.org/2000/svg"><g filter="url(#filter0_ii_1460_15635)"><path d="M34.96 37.358a1.385 1.385 0 01-1.093.546 1.363 1.363 0 01-1.217-.751l-3.047-6.096-1.435 2.132a1.36 1.36 0 01-1.135.615H13.367a1.367 1.367 0 100 2.734h7.847l10.165 11.876a1.407 1.407 0 001.039.478 1.354 1.354 0 001.025-.478l13.858-15.976H38.65l-3.69 4.92z" fill="#F4AD71"/></g><g filter="url(#filter1_ii_1460_15635)"><path d="M51.633 26.971h-1.645a9.986 9.986 0 00-.61-5.166 9.059 9.059 0 00-7.68-5.767A11.133 11.133 0 0032.5 19.7a11.116 11.116 0 00-9.198-3.663 9.05 9.05 0 00-7.694 5.794 9.707 9.707 0 001.011 9.24h9.676l2.337-3.486a1.355 1.355 0 012.35.137l3.117 6.232 2.774-3.704a1.386 1.386 0 011.094-.547h13.666a1.367 1.367 0 100-2.733z" fill="#97D4DA"/></g><defs><filter id="filter0_ii_1460_15635" x="10" y="30.057" width="39.301" height="18.835" filterUnits="userSpaceOnUse" color-interpolation-filters="sRGB"><feFlood flood-opacity="0" result="BackgroundImageFix"/><feBlend in="SourceGraphic" in2="BackgroundImageFix" result="shape"/><feColorMatrix in="SourceAlpha" values="0 0 0 0 0 0 0 0 0 0 0 0 0 0 0 0 0 0 127 0" result="hardAlpha"/><feOffset dx="-2" dy="-1"/><feGaussianBlur stdDeviation="1.5"/><feComposite in2="hardAlpha" operator="arithmetic" k2="-1" k3="1"/><feColorMatrix values="0 0 0 0 0.721569 0 0 0 0 0.329412 0 0 0 0 0 0 0 0 1 0"/><feBlend in2="shape" result="effect1_innerShadow_1460_15635"/><feColorMatrix in="SourceAlpha" values="0 0 0 0 0 0 0 0 0 0 0 0 0 0 0 0 0 0 127 0" result="hardAlpha"/><feOffset dx="2"/><feGaussianBlur stdDeviation="2"/><feComposite in2="hardAlpha" operator="arithmetic" k2="-1" k3="1"/><feColorMatrix values="0 0 0 0 1 0 0 0 0 1 0 0 0 0 1 0 0 0 0.25 0"/><feBlend in2="effect1_innerShadow_1460_15635" result="effect2_innerShadow_1460_15635"/></filter><filter id="filter1_ii_1460_15635" x="12.878" y="15" width="42.122" height="18.955" filterUnits="userSpaceOnUse" color-interpolation-filters="sRGB"><feFlood flood-opacity="0" result="BackgroundImageFix"/><feBlend in="SourceGraphic" in2="BackgroundImageFix" result="shape"/><feColorMatrix in="SourceAlpha" values="0 0 0 0 0 0 0 0 0 0 0 0 0 0 0 0 0 0 127 0" result="hardAlpha"/><feOffset dx="-2" dy="-1"/><feGaussianBlur stdDeviation="1.5"/><feComposite in2="hardAlpha" operator="arithmetic" k2="-1" k3="1"/><feColorMatrix values="0 0 0 0 0 0 0 0 0 0.47451 0 0 0 0 0.521569 0 0 0 1 0"/><feBlend in2="shape" result="effect1_innerShadow_1460_15635"/><feColorMatrix in="SourceAlpha" values="0 0 0 0 0 0 0 0 0 0 0 0 0 0 0 0 0 0 127 0" result="hardAlpha"/><feOffset dx="2"/><feGaussianBlur stdDeviation="2"/><feComposite in2="hardAlpha" operator="arithmetic" k2="-1" k3="1"/><feColorMatrix values="0 0 0 0 1 0 0 0 0 1 0 0 0 0 1 0 0 0 0.25 0"/><feBlend in2="effect1_innerShadow_1460_15635" result="effect2_innerShadow_1460_15635"/></filter></defs></svg>