<svg width="64" height="64" fill="none" xmlns="http://www.w3.org/2000/svg"><g filter="url(#filter0_ii_1460_15634)"><path d="M51.581 12.419a1.43 1.43 0 00-2.02 0l-3.992 3.991-1.134-1.133a1.429 1.429 0 00-2.02 0l-3.294 3.294a4.275 4.275 0 00-5.683 0l1.707 1.708a1.43 1.43 0 01-2.02 2.021l-1.726-1.725-1.552 1.552 1.725 1.725a1.429 1.429 0 01-2.02 2.021l-1.726-1.725-1.552 1.552L28 27.425a1.429 1.429 0 01-2.02 2.021l-1.726-1.725-1.552 1.552 1.726 1.725a1.43 1.43 0 01-2.021 2.021l-1.726-1.725-.541.541a4.254 4.254 0 00-.156 5.874l-3.713 3.712-1.848-1.847a1.43 1.43 0 00-2.02 2.02L22.405 51.6a1.429 1.429 0 002.02-2.021L22.58 47.73l3.713-3.713a4.26 4.26 0 005.872-.156l13.109-13.108a4.254 4.254 0 00.156-5.874l3.294-3.293a1.43 1.43 0 000-2.021L47.59 18.43l3.991-3.991a1.43 1.43 0 000-2.021zm-31.023 33.29l-2.267-2.267 3.696-3.695 2.266 2.266-3.695 3.696zm22.867-22.867l-2.267-2.267 2.267-2.266 2.266 2.266-2.266 2.267z" fill="#97D4DA"/></g><defs><filter id="filter0_ii_1460_15634" x="12" y="9" width="40" height="47" filterUnits="userSpaceOnUse" color-interpolation-filters="sRGB"><feFlood flood-opacity="0" result="BackgroundImageFix"/><feBlend in="SourceGraphic" in2="BackgroundImageFix" result="shape"/><feColorMatrix in="SourceAlpha" values="0 0 0 0 0 0 0 0 0 0 0 0 0 0 0 0 0 0 127 0" result="hardAlpha"/><feOffset dy="30"/><feGaussianBlur stdDeviation="2"/><feComposite in2="hardAlpha" operator="arithmetic" k2="-1" k3="1"/><feColorMatrix values="0 0 0 0 1 0 0 0 0 1 0 0 0 0 1 0 0 0 0.25 0"/><feBlend in2="shape" result="effect1_innerShadow_1460_15634"/><feColorMatrix in="SourceAlpha" values="0 0 0 0 0 0 0 0 0 0 0 0 0 0 0 0 0 0 127 0" result="hardAlpha"/><feOffset dy="-3"/><feGaussianBlur stdDeviation="2"/><feComposite in2="hardAlpha" operator="arithmetic" k2="-1" k3="1"/><feColorMatrix values="0 0 0 0 0 0 0 0 0 0.47451 0 0 0 0 0.521569 0 0 0 1 0"/><feBlend in2="effect1_innerShadow_1460_15634" result="effect2_innerShadow_1460_15634"/></filter></defs></svg>