<svg width="28" height="22" fill="none" xmlns="http://www.w3.org/2000/svg"><path d="M18.743 12.582l-4.837-4.837a1.172 1.172 0 01-.285-.436 1.522 1.522 0 01-.084-.504c0-.18.028-.347.084-.504.057-.157.152-.302.285-.437l4.837-4.836c.268-.269.582-.403.94-.403s.672.134.94.403c.27.269.404.588.404.958s-.135.689-.404.956l-2.518 2.52H26.4c.38 0 .7.128.958.386s.387.577.386.957c0 .38-.13.7-.387.958a1.295 1.295 0 01-.957.385h-8.295l2.518 2.52c.27.268.404.581.404.94 0 .358-.135.671-.404.94a1.405 1.405 0 01-.922.437c-.347.022-.666-.112-.958-.403zM7.995 20.609c.269.268.582.408.94.42.359.012.672-.117.941-.387l4.836-4.836c.135-.134.23-.28.285-.437a1.521 1.521 0 000-1.007 1.193 1.193 0 00-.285-.437L9.876 9.089a1.289 1.289 0 00-.94-.403c-.359 0-.672.134-.94.403a1.308 1.308 0 00-.404.957c0 .37.135.69.403.957l2.52 2.519H2.217c-.38 0-.7.129-.957.387a1.295 1.295 0 00-.386.956c0 .381.129.7.387.958s.577.387.956.386h8.296l-2.519 2.519a1.289 1.289 0 00-.403.94c0 .358.135.672.403.94z" fill="#333"/></svg>