<svg width="14" height="14" fill="none" xmlns="http://www.w3.org/2000/svg"><path d="M2.282 12.806l.814-.799.49-.486.072.037c.317.159.73.09 1.011-.169l.144-.134.095.063c.184.12.36.164.616.154a.86.86 0 00.39-.08c.15-.066.272-.181 2.143-2.047l1.982-1.98.114.1c.157.138.308.184.56.172a.644.644 0 00.33-.08c.266-.147.403-.401.388-.721-.012-.281-.066-.364-.525-.831l-.396-.406.62-.62.623-.623.152.151c.095.093.208.176.296.218.13.059.166.063.354.054.176-.008.234-.022.342-.081a.783.783 0 00.276-1.114c-.042-.059-.516-.547-1.058-1.087-1.119-1.112-1.097-1.095-1.436-1.097-.179 0-.228.01-.347.068a.817.817 0 00-.389.43c-.041.108-.049.174-.041.32.014.232.073.35.286.57l.158.166-.62.62-.62.62-.326-.317c-.4-.39-.505-.45-.8-.45-.165 0-.218.01-.336.07a.743.743 0 00-.43.666c-.01.178-.002.215.054.342.037.078.083.164.105.188.04.042-.063.15-1.952 2.04C3.261 8.9 3.36 8.788 3.298 9.125c-.043.23.015.513.147.72l.07.113-.116.114a.937.937 0 00-.22.958l.054.159-.785.787c-.777.779-.784.789-.784.889 0 .13.076.22.203.242.09.014.095.01.415-.3zm1.547-1.683a.443.443 0 01-.23-.364c-.012-.154.032-.261.156-.384l.083-.08.318.315.318.318-.093.092c-.164.162-.352.198-.552.103zm1.387-.171c-.178-.088-1.383-1.305-1.426-1.441a.61.61 0 01.02-.452c.038-.08.573-.63 1.995-2.052l1.942-1.943.977.978.977.977-.195.203c-.107.11-.205.2-.215.2-.012 0-.051-.032-.09-.073-.11-.115-.218-.157-.318-.123-.107.035-.159.108-.159.223 0 .07.022.115.108.21l.11.122-.286.283-.286.286-.244-.247a2.819 2.819 0 00-.315-.283.228.228 0 00-.333.208c0 .075.03.115.281.369l.281.285-.293.291-.29.29-.206-.2c-.215-.21-.264-.232-.393-.173-.078.037-.147.176-.125.262.008.034.1.149.203.254l.186.193-.286.285-.286.286-.261-.261c-.147-.144-.291-.271-.328-.284-.149-.056-.303.052-.303.218 0 .09.02.112.281.376l.281.281-.207.208c-.115.114-.252.23-.306.256a.569.569 0 01-.49-.012zm5.34-3.774c-.043 0-2.8-2.746-2.848-2.84-.122-.231.098-.505.354-.434.071.02.354.288 1.488 1.424 1.326 1.327 1.402 1.407 1.414 1.503a.405.405 0 01-.017.176c-.048.117-.193.202-.305.18a.612.612 0 00-.085-.01zm-.5-3.274l.623-.623.371.374.374.371-.623.623-.623.623-.371-.371-.374-.374.623-.623zm2.35.406c-.113-.05-2.013-1.962-2.033-2.05a.315.315 0 01.386-.381c.056.014.34.283 1.073 1.019l.996.996v.11c0 .142-.08.269-.195.308-.112.04-.134.04-.227-.002z" fill="#333"/></svg>