<svg width="85" height="85" fill="none" xmlns="http://www.w3.org/2000/svg"><path d="M33.752 12.58c1.498-.72 3.295-.769 4.837-.154 1.623.628 2.928 1.996 3.503 3.636 1.014.052 2.041-.083 3.047.089.996.217 1.84.97 2.182 1.93 2.393.043 4.787.007 7.18.018.771.016 1.58-.088 2.306.235 1.116.447 1.889 1.604 1.881 2.805.008 6.856-.004 13.713.007 20.57.49-.35.957-.731 1.448-1.078a.985.985 0 011.16 0c.954.687 1.876 1.422 2.834 2.105a15.38 15.38 0 008.13 2.769c.594.038 1.191-.01 1.786.03.544.046.937.588.888 1.119v12.451c-.004 1.092.047 2.197-.19 3.27-.56 2.822-2.545 5.31-5.178 6.473-2.752 1.307-5.507 2.612-8.26 3.921-.281.137-.614.245-.919.11-.795-.333-1.557-.745-2.346-1.094-.383.398-.813.77-1.342.956-.66.267-1.383.193-2.078.202-12.484 0-24.969-.001-37.453.001-.838.02-1.686-.295-2.275-.897a3.08 3.08 0 01-.897-2.274V22.035c.004-.655-.054-1.337.197-1.959.408-1.118 1.521-1.932 2.712-1.97 2.82-.028 5.642.023 8.461-.024.395-1.135 1.515-1.96 2.714-2.004.837-.028 1.675.003 2.513-.015a6.117 6.117 0 013.152-3.482zm-1.337 4.515c-.07.467-.384.942-.89.988-1.104.046-2.209-.005-3.312.022-.537-.013-1.015.464-1.002 1.001-.012 1.357 0 2.714-.005 4.071h18.282c-.004-1.357.007-2.715-.005-4.072.011-.536-.466-1.013-1.002-1-1.103-.027-2.208.024-3.311-.022-.508-.045-.82-.52-.892-.986-.408-1.763-2.123-3.094-3.93-3.063-1.806-.03-3.526 1.298-3.933 3.061zM16.332 20.43c-.418.422-.273 1.072-.301 1.606.01 15.915 0 31.83.005 47.743a1.047 1.047 0 001.132 1.133c10.71.002 21.42 0 32.128 0 2.216-.025 4.434.052 6.646-.038a3.295 3.295 0 00-.71-.444c-.987-.438-1.952-.919-2.922-1.39-.503-.246-1.079-.146-1.617-.16-10.455.007-20.91-.005-31.364.005-.427.02-.913-.102-1.125-.511-.223-.472-.12-1.018-.14-1.524.006-14.091 0-28.183.002-42.275.014-.576-.059-1.163.063-1.73.123-.465.619-.704 1.07-.68 1.99-.014 3.98.014 5.967-.01.02-.671.02-1.344 0-2.016-2.58-.023-5.16.005-7.739-.014-.378.004-.816.003-1.095.305zm31.196-.29c-.02.67-.02 1.344 0 2.015 2.03.03 4.061-.015 6.092.017.602-.023 1.062.543 1.007 1.125.01 6.978-.014 13.957.011 20.935.694-.283 1.349-.647 1.991-1.03.013-.199.026-.398.032-.596-.001-7.07-.004-14.141.001-21.212-.002-.34-.035-.72-.3-.964-.279-.303-.717-.3-1.095-.305-2.58.02-5.16-.009-7.74.014zm-27.43 4.054V66.85H49.05a9.66 9.66 0 01-1.93-3.044c-5.961-.006-11.922 0-17.883-.002-.002-.678-.002-1.355 0-2.032h17.338c-.13-1.35-.051-2.708-.073-4.062-5.755-.002-11.51.001-17.265 0-.002-.678-.002-1.355 0-2.032 5.755 0 11.51.002 17.265 0v-4.062H29.238c0-.678-.002-1.355 0-2.031 5.756-.002 11.51.001 17.265 0 .007-1.02-.01-2.04.005-3.057-.016-.59.551-1.067 1.128-1.006 1.665.046 3.335-.13 4.948-.556.03-6.924.005-13.848.013-20.772h-5.044c-.078.52-.47 1.03-1.04 1.01-6.777.01-13.554.008-20.331 0-.57.021-.962-.49-1.041-1.01h-5.044zM58.69 44.248c-2.93 2.13-6.527 3.288-10.146 3.317-.022 4.313-.003 8.625-.01 12.937a7.117 7.117 0 002.744 5.631c.788.629 1.74.99 2.637 1.426 2.084 1.016 4.197 1.974 6.278 3 .246.108.525.28.79.117 2.64-1.248 5.277-2.509 7.915-3.763 1.936-.895 3.377-2.733 3.836-4.81.184-.773.183-1.573.177-2.363-.01-4.059.011-8.117-.01-12.175-3.309-.04-6.613-.989-9.388-2.803-.973-.613-1.846-1.367-2.79-2.019-.698.477-1.347 1.016-2.033 1.505z" fill="#2FA9B5"/><path d="M35.879 15.09c1.451-.265 2.98.703 3.38 2.118.333 1.052.021 2.266-.761 3.04-.793.807-2.055 1.105-3.124.73-1.211-.39-2.086-1.608-2.07-2.881-.025-1.457 1.129-2.81 2.575-3.006zm.135 2.047c-.725.216-.92 1.275-.32 1.736.568.526 1.607.118 1.66-.658.116-.712-.669-1.344-1.34-1.078zm-2.708 11.11c-.014-.537.464-1.015 1.001-1.002 1.36-.009 2.72-.009 4.082 0 .535-.013 1.01.466 1 1 .015 1.02-.001 2.038.005 3.057 1.02.007 2.038-.01 3.056.005.537-.012 1.012.466 1.002 1 .009 1.362.009 2.723 0 4.084.01.534-.466 1.01-1 1-1.02.015-2.038-.001-3.058.005-.006 1.018.01 2.038-.005 3.056.01.536-.466 1.012-1.002 1.002-1.36.008-2.72.008-4.08 0-.536.011-1.014-.466-1.002-1.002-.015-1.018.002-2.036-.005-3.056-1.019-.006-2.037.01-3.055-.005-.536.01-1.015-.466-1.002-1.002a311.78 311.78 0 010-4.08c-.014-.536.465-1.014 1-1.002 1.019-.015 2.038.002 3.057-.005.007-1.02-.01-2.037.006-3.055zm2.033 1.033c-.043 1.054.038 2.111-.029 3.164-.027.502-.494.89-.986.88-1.015.041-2.032-.02-3.046.017-.02.672-.02 1.343 0 2.016 1.054.042 2.111-.037 3.164.028.502.028.89.495.88.99.041 1.014-.02 2.03.017 3.044.672.019 1.345.02 2.016 0 .044-1.054-.038-2.11.03-3.163a.946.946 0 01.87-.87c1.052-.068 2.108.014 3.163-.029a35.66 35.66 0 00-.002-2.016c-1.014-.037-2.03.024-3.044-.016-.492.01-.956-.384-.989-.881-.066-1.053.015-2.11-.028-3.164-.671-.02-1.344-.02-2.016 0z" fill="#2FA9B5"/><path d="M35.34 29.28c-.044 1.054.037 2.111-.03 3.164-.027.502-.494.89-.986.88-1.015.041-2.032-.02-3.046.017-.02.672-.02 1.343 0 2.016 1.054.042 2.111-.037 3.164.028.502.028.89.495.88.99.041 1.014-.02 2.03.017 3.044.672.019 1.345.02 2.016 0 .044-1.054-.038-2.11.03-3.163a.946.946 0 01.87-.87c1.052-.068 2.108.014 3.163-.029a35.66 35.66 0 00-.002-2.016c-1.014-.037-2.03.024-3.044-.016-.492.01-.956-.384-.989-.881-.066-1.053.015-2.11-.028-3.164-.671-.02-1.344-.02-2.016 0z" fill="#fff"/><path d="M23.143 43.492h4.063v2.031h-4.063v-2.03zm6.094 0H44.47v2.031H29.237v-2.03zm31.155 2.092c.399-.176.818.038 1.14.273a19.102 19.102 0 008.109 3.428c.348.074.749.126.986.425.247.275.25.663.255 1.01-.015 3.306.007 6.611-.01 9.916-.021 1.84-1.137 3.614-2.791 4.42-2.152 1.03-4.316 2.038-6.462 3.08-.442.233-.975.412-1.449.153-1.834-.873-3.668-1.752-5.506-2.617-.858-.428-1.799-.757-2.493-1.446-1.031-.94-1.612-2.328-1.605-3.72-.006-3.261.008-6.522-.007-9.784.006-.349-.005-.746.257-1.015.235-.303.635-.353.985-.42a19.15 19.15 0 007.37-2.907c.41-.26.776-.594 1.221-.796zM52.6 51.22a3596.78 3596.78 0 000 9.291c-.015 1.137.66 2.252 1.69 2.742 2.144 1.016 4.29 2.033 6.435 3.045 2.145-1.008 4.283-2.034 6.425-3.052 1.034-.481 1.715-1.596 1.695-2.733.006-3.096-.002-6.19.004-9.286a22.138 22.138 0 01-8.124-3.435c-2.444 1.67-5.218 2.859-8.125 3.428z" fill="#2FA9B5"/><path d="M52.599 51.219a3596.78 3596.78 0 000 9.291c-.015 1.137.66 2.252 1.69 2.742 2.144 1.016 4.29 2.033 6.435 3.045 2.145-1.008 4.283-2.034 6.425-3.052 1.034-.481 1.715-1.596 1.695-2.733.006-3.096-.002-6.19.004-9.286a22.138 22.138 0 01-8.124-3.435c-2.444 1.67-5.218 2.859-8.125 3.428z" fill="#FAFAFA"/><path d="M23.143 49.586h4.063v2.031h-4.063v-2.031zM58.691 60.33c2.477-2.454 4.934-4.928 7.4-7.392.493.463.972.943 1.435 1.434-2.686 2.685-5.371 5.373-8.056 8.058-.372.435-1.095.483-1.492.058-1.02-1.007-2.028-2.027-3.044-3.038.466-.49.944-.969 1.434-1.434.777.769 1.539 1.552 2.323 2.314zm-35.546-4.65h4.062v2.03h-4.063v-2.03zm-.002 6.093h4.063v2.032h-4.063v-2.032z" fill="#2FA9B5"/><path d="M46.04 7.164c.672-.267 1.457.365 1.341 1.078-.053.775-1.091 1.184-1.66.657-.6-.46-.405-1.52.32-1.735z" fill="#F1FAF9"/><path d="M16.304 20.305c.279-.302.717-.301 1.095-.305 2.58.019 5.16-.009 7.74.014.018.672.018 1.344 0 2.016-1.989.024-3.978-.004-5.968.009-.451-.023-.947.216-1.07.68-.122.568-.05 1.154-.063 1.73-.002 14.092.003 28.184-.003 42.276.022.505-.082 1.051.141 1.524.212.408.698.53 1.125.511 10.455-.01 20.91.001 31.364-.006.538.015 1.114-.085 1.617.16.97.472 1.935.953 2.921 1.391a3.3 3.3 0 01.711.443c-2.213.09-4.43.014-6.646.04-10.708 0-21.418 0-32.128-.002a1.047 1.047 0 01-1.132-1.132c-.005-15.914.005-31.828-.005-47.743.028-.535-.117-1.185.3-1.606z" fill="#FAFAFA"/><path d="M57.556 10.162c2.58-.022 5.16.005 7.74-.014.378.004.816.002 1.094.305.265.244.298.625.3.964-.005 7.071-.002 14.142 0 21.212-.007.198-.02.398-.032.596-.643.383-1.298.747-1.991 1.03-.026-6.978-.001-13.957-.011-20.935.054-.582-.406-1.148-1.007-1.125-2.032-.032-4.063.013-6.093-.017-.02-.671-.02-1.344 0-2.016z" fill="#F1FAF9"/><path d="M35.31 29.156a33.91 33.91 0 012.017 0c.043 1.054-.038 2.111.028 3.163.033.498.496.892.989.882 1.014.04 2.03-.02 3.044.016.02.672.02 1.345.001 2.016-1.055.043-2.11-.04-3.163.03a.946.946 0 00-.87.869c-.067 1.052.014 2.109-.03 3.162-.67.02-1.344.02-2.015 0-.037-1.014.024-2.03-.018-3.044.011-.494-.377-.961-.88-.989-1.052-.065-2.11.014-3.163-.028-.02-.673-.02-1.344 0-2.016 1.014-.037 2.03.024 3.045-.016.493.008.96-.379.987-.882.067-1.052-.014-2.11.029-3.163zm23.35 14.966c.687-.49 1.336-1.029 2.033-1.505.945.652 1.818 1.406 2.79 2.019 2.776 1.814 6.08 2.764 9.389 2.803.021 4.057 0 8.116.01 12.175.006.79.007 1.59-.177 2.364-.46 2.075-1.9 3.913-3.836 4.809-2.638 1.254-5.275 2.514-7.916 3.762-.264.163-.543-.009-.79-.116-2.08-1.026-4.192-1.985-6.277-3-.898-.437-1.849-.798-2.637-1.426a7.117 7.117 0 01-2.743-5.632c.006-4.31-.013-8.623.008-12.936 3.62-.03 7.216-1.187 10.147-3.317zm1.704 1.336c-.445.202-.81.536-1.22.796-2.223 1.462-4.745 2.473-7.37 2.906-.351.068-.75.118-.986.42-.262.27-.251.667-.257 1.016.015 3.262 0 6.523.007 9.783-.007 1.393.574 2.78 1.605 3.721.694.69 1.635 1.018 2.493 1.446 1.838.865 3.672 1.744 5.506 2.617.474.259 1.007.08 1.449-.154 2.146-1.04 4.31-2.049 6.462-3.079 1.654-.806 2.77-2.58 2.791-4.42.017-3.305-.005-6.61.01-9.915-.005-.348-.008-.736-.255-1.01-.237-.3-.638-.352-.986-.426a19.103 19.103 0 01-8.11-3.428c-.321-.235-.74-.45-1.139-.273z" fill="#FAFAFA"/><path d="M80.376 78.673c.822.522.6 1.92-.341 2.164-.821.301-1.752-.501-1.578-1.357.1-.867 1.228-1.344 1.92-.807zm-9.836-1.858c.653.609.333 1.83-.54 2.034-.869.287-1.802-.632-1.512-1.504.203-.884 1.449-1.207 2.052-.53zM6.51 32.782c.666.58.404 1.79-.442 2.04-.828.335-1.795-.479-1.609-1.351.108-.937 1.399-1.373 2.05-.69zm62.834 1.866c.827.49.67 1.873-.246 2.165-.81.346-1.793-.419-1.645-1.292.068-.871 1.182-1.386 1.89-.873zm-56.25 45.179c-.02-1.691-2.262-2.668-3.511-1.529-1.24.929-.939 3.097.52 3.64 1.387.662 3.15-.582 2.99-2.111zm62.898-56.759c-2.157.55-4.527-1-4.904-3.186-.448-1.987.857-4.15 2.812-4.703 1.43-.456 3.09-.025 4.12 1.066 1.01 1.016 1.404 2.586.999 3.96-.389 1.412-1.6 2.546-3.027 2.863zm-.17-1.65c1.25-.362 2.04-1.83 1.603-3.068-.359-1.222-1.773-2.004-2.997-1.622-1.242.327-2.07 1.732-1.703 2.973.309 1.309 1.82 2.169 3.096 1.717zM7.106 63.864c-2.637.672-5.537-1.222-5.998-3.895-.548-2.429 1.048-5.073 3.44-5.749 1.748-.558 3.778-.03 5.04 1.303 1.234 1.242 1.715 3.162 1.22 4.84-.475 1.727-1.956 3.113-3.702 3.5zm-.209-2.017c1.531-.443 2.495-2.237 1.961-3.75-.438-1.494-2.168-2.45-3.665-1.983-1.518.4-2.532 2.116-2.083 3.634.378 1.6 2.226 2.65 3.787 2.099z" fill="#2FA9B5"/></svg>