<svg width="57" height="56" fill="none" xmlns="http://www.w3.org/2000/svg"><path d="M29.063 43.12c-1.645.903-1.575-.428-1.504-.838.042-.244.233-1.39.233-1.39.055-.415.112-1.057-.052-1.467-.182-.451-.906-.686-1.438-.8-7.848-1.033-13.657-6.489-13.657-13.003 0-7.266 7.326-13.178 16.329-13.178s16.329 5.912 16.329 13.178c0 8.16-8.655 13.327-16.24 17.497zm-5.251-14.526a.793.793 0 00-.796-.79h-2.221V22.61a.793.793 0 00-.796-.79.793.793 0 00-.796.79v5.984c0 .437.358.79.796.79h3.017a.794.794 0 00.796-.79zm2.324-5.984a.793.793 0 00-.796-.79.793.793 0 00-.796.79v5.984c0 .437.357.79.796.79.44 0 .796-.354.796-.79V22.61zm7.264 0a.793.793 0 00-.795-.79.794.794 0 00-.798.79v3.703l-3.094-4.176a.803.803 0 00-.889-.275.79.79 0 00-.544.749v5.984c0 .436.358.79.797.79.44 0 .797-.354.797-.79v-3.701l3.093 4.176a.802.802 0 00.889.274.786.786 0 00.544-.749V22.61zm4.883 2.203h-2.221V23.4h2.221c.44 0 .797-.354.797-.79a.794.794 0 00-.797-.79h-3.017a.793.793 0 00-.795.79v5.982c0 .437.357.79.795.79h3.017c.44 0 .797-.354.797-.79a.794.794 0 00-.797-.789h-2.221V26.39h2.221c.44 0 .797-.354.797-.79a.794.794 0 00-.797-.79v.003z" fill="#333"/></svg>