<svg xmlns="http://www.w3.org/2000/svg" width="16" height="16" fill="none"><g clip-path="url(#clip0_5941_61742)"><path d="M4.82 6.515L2.91 8.424a3.3 3.3 0 104.667 4.667l.636-.636A.9.9 0 106.94 11.18l-.637.637a1.5 1.5 0 01-2.121-2.122l1.909-1.909A1.5 1.5 0 017.7 7.451c.098.039.188.078.273.118l.278.13c.372.168.658.24 1.023-.124.523-.523.387-1.006-.25-1.446a3.301 3.301 0 00-4.205.386zm3.605-3.606l-.636.636a.9.9 0 001.272 1.273l.637-.636a1.5 1.5 0 112.121 2.12L9.91 8.212a1.5 1.5 0 01-1.608.335 5.007 5.007 0 01-.273-.117l-.278-.13c-.372-.168-.659-.24-1.023.123-.523.523-.387 1.006.25 1.446a3.3 3.3 0 004.205-.385l1.909-1.91A3.299 3.299 0 108.425 2.91z" fill="#fff"/></g><defs><clipPath id="clip0_5941_61742"><path fill="#fff" transform="matrix(-1 0 0 1 15.2 .8)" d="M0 0h14.4v14.4H0z"/></clipPath></defs></svg>