<svg width="32" height="32" fill="none" xmlns="http://www.w3.org/2000/svg"><path fill-rule="evenodd" clip-rule="evenodd" d="M13.067 4.8H5.6a.8.8 0 00-.8.8v7.467a.8.8 0 00.8.8h7.467a.8.8 0 00.8-.8V5.6a.8.8 0 00-.8-.8zM5.6 4A1.6 1.6 0 004 5.6v7.467a1.6 1.6 0 001.6 1.6h7.467a1.6 1.6 0 001.6-1.6V5.6a1.6 1.6 0 00-1.6-1.6H5.6zm7.467 14.133H5.6a.8.8 0 00-.8.8V26.4a.8.8 0 00.8.8h7.467a.8.8 0 00.8-.8v-7.467a.8.8 0 00-.8-.8zm-7.467-.8a1.6 1.6 0 00-1.6 1.6V26.4A1.6 1.6 0 005.6 28h7.467a1.6 1.6 0 001.6-1.6v-7.467a1.6 1.6 0 00-1.6-1.6H5.6zM26.4 4.8h-7.466a.8.8 0 00-.8.8v7.467a.8.8 0 00.8.8H26.4a.8.8 0 00.8-.8V5.6a.8.8 0 00-.8-.8zM18.934 4a1.6 1.6 0 00-1.6 1.6v7.467a1.6 1.6 0 001.6 1.6H26.4a1.6 1.6 0 001.6-1.6V5.6A1.6 1.6 0 0026.4 4h-7.466zM26.4 18.133h-7.466a.8.8 0 00-.8.8V26.4a.8.8 0 00.8.8H26.4a.8.8 0 00.8-.8v-7.467a.8.8 0 00-.8-.8zm-7.466-.8a1.6 1.6 0 00-1.6 1.6V26.4a1.6 1.6 0 001.6 1.6H26.4a1.6 1.6 0 001.6-1.6v-7.467a1.6 1.6 0 00-1.6-1.6h-7.466z" fill="#333"/></svg>