<svg width="63" height="65" fill="none" xmlns="http://www.w3.org/2000/svg"><path opacity=".95" fill-rule="evenodd" clip-rule="evenodd" d="M28.793.844h5.263c10.59 1.398 18.17 6.911 22.743 16.54 2.131 5.045 2.737 10.266 1.817 15.663.76.36 1.511.756 2.255 1.19 1.6 1.376 2.206 3.11 1.817 5.2a23.188 23.188 0 01-1.19 3.384c-.573.571-1.2.634-1.88.188a1.962 1.962 0 01-.5-1.065c.325-.999.638-2.001.939-3.008.299-1.37-.182-2.35-1.441-2.944l-5.702-2.068-.188.126a5536.27 5536.27 0 01-6.766 19.86c.244.237.537.404.877.502a66.702 66.702 0 005.764 1.942c.859-.064 1.548-.44 2.068-1.128a75 75 0 001.128-3.258c.595-.687 1.285-.791 2.067-.313.25.311.375.666.376 1.065a18.69 18.69 0 01-1.441 4.135c-1.384 1.705-3.159 2.373-5.325 2.005.312 3.099-.983 5.145-3.885 6.14h-20.55a4.116 4.116 0 01-.564-.626 37.9 37.9 0 01.125-6.015c1.245-2.847 3.397-3.912 6.454-3.196 1.767.64 2.874 1.873 3.32 3.697a52.74 52.74 0 01.063 3.634c3.342.02 6.683 0 10.024-.063 1.483-.146 2.297-.96 2.444-2.443a5.418 5.418 0 00-.063-2.005 396.42 396.42 0 00-5.263-1.942c-.574-.431-.762-.995-.564-1.692 2.607-7.695 5.239-15.38 7.895-23.056a.875.875 0 01.438-.313 3.165 3.165 0 011.253 0c1.17.39 2.32.828 3.446 1.315 1.27-10.928-2.676-19.386-11.841-25.374C36.057 2.436 27.829 2.27 19.52 6.42 9.78 12.304 5.54 20.929 6.802 32.295l3.446-1.315a3.165 3.165 0 011.253 0c.18.058.326.162.439.313a3749.855 3749.855 0 017.894 23.056c.198.697.01 1.26-.564 1.692A161.299 161.299 0 0111 58.923c-2.547.261-4.364-.762-5.45-3.07L.16 39.438c-.39-2.091.217-3.825 1.817-5.2a29.372 29.372 0 012.255-1.19c-1.507-11.38 2.294-20.506 11.403-27.38C19.633 2.978 24.02 1.37 28.793.844zM9.747 33.924a.41.41 0 01.438.25c2.21 6.589 4.445 13.167 6.704 19.736a.877.877 0 01-.501.376 91.621 91.621 0 01-6.14 2.068c-.982-.063-1.713-.522-2.193-1.378a1690.49 1690.49 0 00-5.137-15.538c-.457-1.265-.185-2.33.814-3.196a194.64 194.64 0 006.015-2.318zm20.926 23.683c1.86-.251 2.926.542 3.195 2.38.063.835.084 1.67.063 2.507h-5.012a17.775 17.775 0 01.188-3.258c.294-.775.817-1.318 1.566-1.629z" fill="#333"/><path opacity=".943" fill-rule="evenodd" clip-rule="evenodd" d="M29.418 8.363c7.057-.491 12.466 2.223 16.227 8.145 2.471 4.813 2.722 9.742.752 14.786-2.357 4.904-6.18 8.016-11.466 9.335a69.702 69.702 0 01-2.882 4.01c-.608.158-1.15.053-1.629-.313a175.341 175.341 0 00-2.506-3.697c-7.213-1.95-11.453-6.608-12.718-13.971-.553-7.06 2.14-12.47 8.082-16.227a19.753 19.753 0 016.14-2.068zm1.88 2.506a15.45 15.45 0 00-5.013 1.065c-5.442 2.52-8.282 6.78-8.52 12.781.523 7.393 4.408 11.904 11.653 13.533.685.892 1.353 1.79 2.005 2.695.651-.905 1.32-1.803 2.005-2.695a15.092 15.092 0 007.017-3.258c4.51-4.361 5.742-9.52 3.696-15.475-2.542-5.442-6.824-8.324-12.844-8.646z" fill="#333"/><path opacity=".908" fill-rule="evenodd" clip-rule="evenodd" d="M23.283 22.773c1.482-.21 2.087.416 1.817 1.88-.458.598-1.064.786-1.817.563-.598-.458-.786-1.063-.564-1.817a4.14 4.14 0 01.564-.626zm7.516 0c1.481-.21 2.087.416 1.817 1.88-.458.598-1.064.786-1.817.563-.598-.458-.787-1.063-.564-1.817a4.14 4.14 0 01.564-.626zm7.515 0c1.482-.21 2.088.416 1.817 1.88-.458.598-1.063.786-1.817.563-.598-.458-.786-1.063-.563-1.817a4.08 4.08 0 01.563-.626z" fill="#333"/></svg>