<svg width="134" height="57" viewBox="0 0 134 57" fill="none" xmlns="http://www.w3.org/2000/svg">
<g clip-path="url(#clip0_13482_57070)">
<path d="M95.4958 6.95663C94.976 7.40397 94.3353 7.68714 93.6546 7.77032C92.9739 7.85351 92.2838 7.73297 91.6716 7.42396C91.0594 7.11495 90.5525 6.63135 90.2152 6.0343C89.8778 5.43725 89.7251 4.75357 89.7763 4.06971C89.8275 3.38586 90.0803 2.73254 90.5028 2.19238C90.9253 1.65221 91.4985 1.24946 92.1498 1.03505C92.8012 0.820631 93.5016 0.804187 94.1623 0.987793C94.823 1.1714 95.4145 1.54681 95.8619 2.06655C96.1589 2.41167 96.3851 2.81192 96.5275 3.24445C96.6699 3.67698 96.7256 4.13332 96.6916 4.58741C96.6576 5.0415 96.5345 5.48445 96.3294 5.89096C96.1242 6.29748 95.8409 6.65959 95.4958 6.95663Z" fill="#FF8201"/>
<path d="M83.6238 1.2096C83.34 1.20033 83.0572 1.248 82.7921 1.34981C82.527 1.45163 82.285 1.60552 82.0804 1.8024C81.8726 2.00442 81.7097 2.24792 81.6022 2.51704C81.4947 2.78617 81.445 3.0749 81.4564 3.36448V14.7754C80.4728 13.5634 79.2289 12.5883 77.8171 11.9226C76.4052 11.2568 74.8616 10.9174 73.3007 10.9294C71.3457 10.9008 69.4239 11.4366 67.7659 12.4728C66.1308 13.5019 64.7968 14.9449 63.8991 16.6557C62.9349 18.4987 62.4479 20.5539 62.4827 22.6336C62.4286 25.4899 63.4316 28.2654 65.299 30.4274C65.1185 31.0112 64.8066 31.546 64.3873 31.9906C63.9679 32.4352 63.4523 32.7777 62.8799 32.992C62.3531 32.6834 61.7536 32.5208 61.1431 32.5208C60.5326 32.5208 59.9331 32.6834 59.4063 32.992C58.5844 32.6054 57.9174 31.9523 57.5135 31.1387C57.6078 30.9381 57.6514 30.7174 57.6404 30.496C57.6153 30.2241 57.5349 29.9601 57.4039 29.7205C57.273 29.4808 57.0944 29.2704 56.8791 29.1024C56.5224 28.7956 56.0616 28.6371 55.5916 28.6594C55.0941 28.6739 54.6134 28.8433 54.2167 29.144C53.5376 29.626 52.7903 30.0039 51.9994 30.2651C51.1391 30.5779 50.2317 30.7418 49.3163 30.7498C47.8254 30.7789 46.3532 30.4145 45.0481 29.6931C44.0276 29.1237 43.1501 28.3294 42.4823 27.3704C41.8145 26.4114 41.3739 25.3129 41.1938 24.1582H57.2598C57.5158 24.1668 57.7709 24.1244 58.0105 24.0338C58.25 23.9431 58.4693 23.8058 58.6555 23.6299C58.8352 23.4589 58.9769 23.252 59.0715 23.0227C59.1661 22.7934 59.2114 22.5467 59.2046 22.2987C59.2046 20.0731 58.7886 18.1082 57.9566 16.404C57.1652 14.7444 55.9094 13.35 54.3415 12.3896C52.7649 11.4189 50.8776 10.9336 48.6798 10.9336C46.4611 10.9336 44.4893 11.4335 42.7643 12.4333C42.2473 12.7356 41.7562 13.0799 41.2958 13.4629C40.6554 13.1807 40.1004 12.7354 39.6861 12.1714C39.2718 11.6075 39.0128 10.9447 38.935 10.2493C39.1352 9.69548 39.191 9.09978 39.0971 8.51843C39.0032 7.93708 38.7626 7.38925 38.3982 6.92666C38.0338 6.46407 37.5575 6.10199 37.0143 5.87458C36.4711 5.64717 35.8789 5.56195 35.2936 5.62696C34.7083 5.69197 34.1492 5.90507 33.6692 6.24613C33.1891 6.5872 32.8039 7.04498 32.5498 7.57626C32.2958 8.10754 32.1814 8.6948 32.2173 9.28259C32.2533 9.87038 32.4384 10.4393 32.7553 10.9357C32.562 11.535 32.2258 12.0783 31.7756 12.5186C31.4718 12.8223 31.1206 13.0746 30.7356 13.2653C30.2929 12.8179 29.7911 12.433 29.2442 12.1213C27.9388 11.4009 26.4669 11.0364 24.9761 11.0646C23.2742 11.033 21.5928 11.4406 20.0943 12.2482C19.1207 12.7833 18.2614 13.5041 17.565 14.3698C16.9561 13.4422 16.1365 12.6718 15.173 12.1213C13.8676 11.4009 12.3957 11.0364 10.9049 11.0646C9.34392 11.0377 7.80649 11.4476 6.46617 12.2482C5.92984 12.5764 5.43293 12.9652 4.98521 13.4067C4.99119 13.1309 4.94223 12.8566 4.84117 12.5998C4.74011 12.3431 4.58898 12.109 4.39657 11.9112C3.9695 11.5294 3.41671 11.3183 2.84385 11.3183C2.27098 11.3183 1.71819 11.5294 1.29113 11.9112C1.08596 12.1147 0.925433 12.3587 0.819787 12.6276C0.714141 12.8966 0.665691 13.1846 0.677527 13.4733V32.2786C0.686466 32.7049 0.819188 33.1194 1.05952 33.4716C1.29986 33.8239 1.63743 34.0986 2.03113 34.2624C2.42483 34.4262 2.85767 34.4719 3.27692 34.3941C3.69616 34.3163 4.08373 34.1182 4.39241 33.824C4.58863 33.619 4.74195 33.3769 4.84338 33.1119C4.94482 32.8469 4.99233 32.5643 4.98313 32.2806V20.3581C4.98313 18.7814 5.46222 17.4856 6.42041 16.4706C6.88369 15.9734 7.44757 15.5807 8.07449 15.3185C8.70141 15.0564 9.37699 14.9308 10.0562 14.9501C11.4651 14.9501 12.6056 15.3793 13.4778 16.2376C14.3501 17.096 14.7869 18.4133 14.7882 20.1896V32.2744C14.796 32.7015 14.9281 33.1171 15.1682 33.4703C15.4083 33.8236 15.7462 34.0992 16.1404 34.2636C16.5347 34.428 16.9683 34.4739 17.3883 34.3959C17.8082 34.3178 18.1964 34.1191 18.5052 33.824C18.701 33.6187 18.8541 33.3766 18.9555 33.1116C19.0569 32.8467 19.1047 32.5642 19.0959 32.2806V20.3581C19.0959 18.7814 19.5681 17.4856 20.5124 16.4706C20.9701 15.9725 21.5297 15.5789 22.1532 15.3165C22.7766 15.0542 23.4493 14.9292 24.1254 14.9501C25.5328 14.9501 26.6734 15.3793 27.547 16.2376C28.4206 17.096 28.8574 18.4133 28.8574 20.1896V32.2744C28.8648 32.7019 28.9967 33.118 29.2369 33.4716C29.4772 33.8253 29.8153 34.1013 30.21 34.2657C30.6047 34.4302 31.0387 34.476 31.459 34.3975C31.8793 34.3191 32.2676 34.1198 32.5764 33.824C32.7722 33.6187 32.9253 33.3766 33.0267 33.1116C33.1281 32.8467 33.1759 32.5642 33.1671 32.2806V20.1958C33.1671 18.2545 32.8205 16.5988 32.1271 15.2288C32.0021 14.9799 31.8632 14.7383 31.7111 14.505C31.9112 14.0565 32.1934 13.6495 32.5431 13.3048C33.0387 12.8071 33.6597 12.4528 34.3402 12.2794C34.8026 12.4714 35.3013 12.5606 35.8016 12.5409C36.3018 12.5211 36.7919 12.3928 37.2377 12.165C37.8766 12.3223 38.4668 12.6349 38.9559 13.075C39.445 13.5151 39.8179 14.0692 40.0415 14.688C39.5373 15.2709 39.096 15.9053 38.7249 16.5808C37.7542 18.3419 37.2689 20.3775 37.2689 22.6877C37.2689 24.9687 37.7826 26.9898 38.8102 28.7509C39.827 30.494 41.3045 31.9233 43.0804 32.8818C44.8983 33.8815 46.9783 34.3814 49.3204 34.3814C50.7093 34.3653 52.0863 34.1229 53.3972 33.6638C54.4646 33.3176 55.4799 32.8278 56.4153 32.2078C56.824 32.4029 57.1962 32.6667 57.5156 32.9878C57.829 33.2956 58.0878 33.6543 58.281 34.0486C57.9435 34.5486 57.7423 35.128 57.6972 35.7296C57.6521 36.3312 57.7648 36.9341 58.024 37.4788C58.2833 38.0235 58.6802 38.4911 59.1755 38.8355C59.6708 39.1799 60.2474 39.3891 60.8482 39.4425C61.4491 39.4958 62.0535 39.3915 62.6018 39.1397C63.15 38.888 63.6231 38.4976 63.9742 38.0071C64.3254 37.5166 64.5425 36.9429 64.6041 36.3428C64.6657 35.7427 64.5697 35.1369 64.3255 34.5853C64.4465 33.9552 64.7176 33.3636 65.1159 32.8607C65.5142 32.3577 66.028 31.9583 66.6135 31.6962C67.1197 32.1225 67.661 32.5052 68.2318 32.8402C70.0364 33.8792 72.088 34.4117 74.1702 34.3814C76.2113 34.4171 78.2243 33.9022 79.9977 32.8909C81.771 31.8796 83.2391 30.4093 84.2478 28.6344C85.2896 26.8081 85.8225 24.7359 85.7911 22.6336V3.36448C85.8084 3.07699 85.7645 2.7891 85.6623 2.51982C85.5602 2.25055 85.402 2.00601 85.1984 1.80236C84.9947 1.5987 84.7502 1.44056 84.4809 1.33839C84.2116 1.23621 83.9237 1.19232 83.6362 1.2096H83.6238ZM44.5551 15.6198C45.6977 14.9168 47.0712 14.5646 48.6756 14.5632C50.0845 14.5632 51.2819 14.887 52.2678 15.5346C53.2601 16.1865 54.0521 17.101 54.5558 18.1762C54.9439 18.9972 55.1988 19.8749 55.3108 20.7762H41.2354C41.3714 19.993 41.6143 19.2323 41.9572 18.5152C42.5234 17.3181 43.4262 16.312 44.5551 15.6198ZM80.6639 26.6917C80.051 27.8651 79.1317 28.8506 78.0036 29.5434C76.8392 30.2218 75.5157 30.5792 74.1681 30.5792C72.8205 30.5792 71.497 30.2218 70.3326 29.5434C69.1918 28.8526 68.2578 27.8676 67.6286 26.6917C66.9574 25.4456 66.6159 24.0487 66.6364 22.6336C66.608 21.2188 66.9485 19.8209 67.6244 18.5776C68.2627 17.4192 69.1954 16.4499 70.3284 15.7675C71.4928 15.0891 72.8163 14.7317 74.1639 14.7317C75.5115 14.7317 76.8351 15.0891 77.9995 15.7675C79.1198 16.4517 80.0379 17.4216 80.6598 18.5776C81.3243 19.8247 81.6594 21.2208 81.6332 22.6336C81.6542 24.046 81.3209 25.4412 80.6639 26.6917Z" fill="#3EC4CD"/>
<path d="M133.791 17.8538C133.818 15.5676 133.408 13.2973 132.585 11.1645C131.824 9.1984 130.665 7.41049 129.182 5.91266C127.698 4.41483 125.922 3.23932 123.963 2.45969C119.66 0.826182 114.908 0.826182 110.605 2.45969C108.647 3.23508 106.871 4.40952 105.391 5.90833C103.921 7.41538 102.769 9.20294 102.004 11.1645C100.399 15.4866 100.399 20.2417 102.004 24.5639C102.138 24.9029 102.283 25.2315 102.435 25.556C101.468 26.5606 100.337 27.3927 99.0904 28.0166C97.9288 28.6263 96.6777 29.0476 95.3839 29.2646V13.2486C95.376 12.8238 95.2451 12.4103 95.007 12.0584C94.7689 11.7064 94.4338 11.4311 94.0424 11.2657C93.6509 11.1004 93.22 11.0521 92.8016 11.1268C92.3833 11.2015 91.9956 11.396 91.6856 11.6866C91.4808 11.8902 91.3207 12.1343 91.2154 12.4032C91.1101 12.6722 91.062 12.9601 91.0741 13.2486V32.0539C91.0822 32.4811 91.2147 32.8967 91.4554 33.2498C91.6961 33.6028 92.0345 33.878 92.4293 34.0416C92.824 34.2052 93.2579 34.2501 93.6777 34.1708C94.0976 34.0915 94.4852 33.8915 94.7931 33.5952C95.0258 33.356 95.1958 33.0631 95.2882 32.7424C96.3074 31.249 97.7447 30.0155 99.6187 29.0525C100.888 28.3842 102.265 27.9462 103.687 27.7587C105.38 30.2598 107.791 32.1884 110.603 33.2894C114.906 34.923 119.658 34.923 123.961 33.2894C124.998 32.8697 125.988 32.3419 126.915 31.7149L128.635 33.435C128.82 33.6441 129.047 33.8115 129.301 33.9262C129.556 34.0409 129.831 34.1002 130.11 34.1002C130.39 34.1002 130.665 34.0409 130.92 33.9262C131.174 33.8115 131.401 33.6441 131.586 33.435C131.79 33.2515 131.953 33.0268 132.064 32.7759C132.174 32.5249 132.231 32.2534 132.229 31.979C132.205 31.4302 131.976 30.9103 131.586 30.523L129.999 28.9277C131.092 27.6219 131.965 26.1465 132.583 24.5597C133.405 22.4208 133.815 20.1453 133.791 17.8538ZM122.904 21.8058C122.513 21.4146 121.983 21.1949 121.43 21.1949C120.876 21.1949 120.346 21.4146 119.955 21.8058C119.564 22.1969 119.344 22.7274 119.344 23.2805C119.344 23.8336 119.564 24.3641 119.955 24.7552L123.948 28.7509C123.409 29.0896 122.845 29.3859 122.26 29.637C119.078 30.9396 115.511 30.9396 112.33 29.637C110.856 29.0122 109.527 28.0919 108.423 26.933C107.315 25.7622 106.448 24.3857 105.869 22.8811C104.649 19.6406 104.649 16.0669 105.869 12.8264C106.448 11.3219 107.315 9.94531 108.423 8.77457C109.525 7.62018 110.856 6.70782 112.33 6.09553C115.517 4.82252 119.072 4.82252 122.26 6.09553C123.738 6.71113 125.074 7.62287 126.187 8.77457C127.303 9.93882 128.172 11.3171 128.741 12.8264C129.933 16.0719 129.933 19.6356 128.741 22.8811C128.323 23.9815 127.747 25.015 127.031 25.9491L122.904 21.8058Z" fill="#3EC4CD"/>
<path d="M1.81667 56.6041C1.72841 56.6053 1.64082 56.5887 1.55905 56.5554C1.47729 56.5222 1.40301 56.4729 1.34059 56.4105C1.27818 56.348 1.22888 56.2738 1.19562 56.192C1.16236 56.1102 1.1458 56.0226 1.14691 55.9344V47.215C1.14364 47.1255 1.15916 47.0363 1.19248 46.9532C1.2258 46.8701 1.27618 46.7949 1.34035 46.7325C1.40333 46.6712 1.47789 46.6231 1.55968 46.5909C1.64146 46.5588 1.72882 46.5432 1.81667 46.5452H7.64067C7.7277 46.5412 7.81465 46.5546 7.89643 46.5846C7.97822 46.6146 8.0532 46.6606 8.11699 46.72C8.17752 46.7793 8.2249 46.8507 8.25607 46.9296C8.28725 47.0084 8.30151 47.0929 8.29795 47.1776C8.30108 47.2591 8.28653 47.3404 8.25529 47.4158C8.22405 47.4912 8.17688 47.5589 8.11699 47.6144C7.9863 47.7306 7.81535 47.791 7.64067 47.7829H2.48643V50.9029H6.18259C6.26963 50.8987 6.35661 50.9121 6.43841 50.9421C6.52022 50.9721 6.59519 51.0182 6.65891 51.0776C6.77515 51.1962 6.84026 51.3556 6.84026 51.5217C6.84026 51.6877 6.77515 51.8471 6.65891 51.9657C6.59508 52.0249 6.52005 52.0706 6.43824 52.1003C6.35642 52.1299 6.2695 52.1429 6.18259 52.1384H2.48643V55.9344C2.48813 56.0228 2.47196 56.1106 2.4389 56.1927C2.40585 56.2747 2.35658 56.3492 2.29404 56.4117C2.23151 56.4743 2.157 56.5235 2.07497 56.5566C1.99295 56.5897 1.90509 56.6058 1.81667 56.6041Z" fill="#FF8201"/>
<path d="M10.8715 48.4131C10.6724 48.4151 10.4788 48.3478 10.3238 48.2229C10.1688 48.0979 10.062 47.923 10.0217 47.728C9.98139 47.533 10.0101 47.3301 10.1028 47.1539C10.1956 46.9777 10.3466 46.8392 10.5302 46.7621C10.7138 46.685 10.9184 46.674 11.1092 46.7311C11.2999 46.7882 11.4649 46.9097 11.576 47.075C11.687 47.2402 11.7372 47.4389 11.718 47.6371C11.6987 47.8353 11.6113 48.0206 11.4705 48.1614C11.3932 48.2421 11.3001 48.3061 11.1971 48.3493C11.094 48.3926 10.9832 48.4143 10.8715 48.4131ZM10.8715 56.6042C10.7845 56.6064 10.698 56.591 10.6172 56.5588C10.5365 56.5266 10.4631 56.4782 10.4016 56.4167C10.3401 56.3552 10.2918 56.2819 10.2595 56.2011C10.2273 56.1203 10.2119 56.0338 10.2142 55.9469V50.2165C10.2099 50.1284 10.2244 50.0403 10.2567 49.9582C10.289 49.8761 10.3383 49.8018 10.4014 49.7402C10.4932 49.6445 10.612 49.579 10.7419 49.5523C10.8718 49.5255 11.0068 49.5388 11.1289 49.5905C11.2511 49.6421 11.3547 49.7296 11.4261 49.8413C11.4975 49.9531 11.5333 50.0839 11.5287 50.2165V55.9469C11.5314 56.0333 11.5168 56.1195 11.4857 56.2002C11.4546 56.2809 11.4077 56.3546 11.3478 56.4169C11.2861 56.48 11.2118 56.5294 11.1297 56.5616C11.0476 56.5939 10.9596 56.6084 10.8715 56.6042Z" fill="#FF8201"/>
<path d="M14.8377 56.6167C14.7508 56.619 14.6643 56.6035 14.5835 56.5713C14.5027 56.5391 14.4293 56.4908 14.3678 56.4293C14.3063 56.3678 14.258 56.2944 14.2258 56.2136C14.1936 56.1328 14.1781 56.0463 14.1804 55.9594V50.2165C14.1762 50.1284 14.1907 50.0404 14.2229 49.9583C14.2552 49.8762 14.3045 49.8018 14.3676 49.7402C14.4595 49.6445 14.5782 49.579 14.7081 49.5523C14.838 49.5256 14.973 49.5389 15.0952 49.5905C15.2173 49.6421 15.321 49.7296 15.3923 49.8414C15.4637 49.9532 15.4995 50.084 15.495 50.2165V55.9594C15.4977 56.0459 15.483 56.132 15.452 56.2127C15.4209 56.2934 15.374 56.3671 15.314 56.4295C15.2524 56.4926 15.178 56.5419 15.0959 56.5741C15.0138 56.6064 14.9258 56.6209 14.8377 56.6167ZM20.1313 56.6167C20.0444 56.619 19.9579 56.6035 19.8771 56.5713C19.7963 56.5391 19.7229 56.4908 19.6614 56.4293C19.5999 56.3678 19.5516 56.2944 19.5194 56.2136C19.4872 56.1328 19.4717 56.0463 19.474 55.9594V52.7916C19.4915 52.3753 19.3981 51.9619 19.2036 51.5935C19.0353 51.2963 18.7817 51.0564 18.4756 50.905C18.1507 50.7516 17.7949 50.6747 17.4356 50.6804C17.0971 50.6754 16.7622 50.7503 16.458 50.8988C16.1804 51.0322 15.9414 51.234 15.7633 51.4853C15.5904 51.7317 15.5 52.0267 15.5054 52.3277H14.6942C14.6845 51.8149 14.8208 51.3099 15.0873 50.8717C15.3488 50.4446 15.7202 50.0955 16.1626 49.8608C16.6325 49.6071 17.1596 49.4782 17.6935 49.4864C18.2475 49.4771 18.7949 49.608 19.2847 49.8671C19.7541 50.1223 20.1388 50.509 20.3913 50.9799C20.6774 51.5368 20.817 52.1574 20.7969 52.7832V55.9511C20.7998 56.038 20.7848 56.1246 20.7529 56.2055C20.7211 56.2864 20.6729 56.3599 20.6115 56.4215C20.5501 56.4831 20.4768 56.5315 20.396 56.5636C20.3151 56.5957 20.2286 56.611 20.1417 56.6084L20.1313 56.6167Z" fill="#FF8201"/>
<path d="M26.3628 56.6562C25.7284 56.6647 25.1033 56.5023 24.5532 56.1861C24.023 55.8784 23.5832 55.4365 23.2782 54.9048C22.9616 54.3473 22.7993 53.7155 22.8081 53.0744C22.7981 52.4405 22.9469 51.8141 23.2407 51.2523C23.5141 50.7311 23.9202 50.2913 24.418 49.9773C25.0795 49.5676 25.8674 49.4122 26.6349 49.54C27.4024 49.6678 28.0974 50.0701 28.5905 50.672V47.2026C28.5862 47.1144 28.6007 47.0264 28.633 46.9443C28.6653 46.8622 28.7146 46.7879 28.7777 46.7262C28.8696 46.6306 28.9883 46.5651 29.1182 46.5383C29.2481 46.5116 29.3831 46.5249 29.5052 46.5766C29.6274 46.6282 29.731 46.7157 29.8024 46.8274C29.8738 46.9392 29.9096 47.07 29.905 47.2026V53.0744C29.9148 53.7156 29.7525 54.3477 29.435 54.9048C29.1273 55.4457 28.6797 55.8937 28.1391 56.2019C27.5985 56.51 26.985 56.667 26.3628 56.6562ZM26.3628 55.4955C26.7756 55.5029 27.1821 55.3941 27.5359 55.1814C27.8797 54.97 28.16 54.6696 28.3471 54.312C28.5489 53.9274 28.6505 53.4982 28.6425 53.064C28.6509 52.6337 28.5493 52.2084 28.3471 51.8285C28.1573 51.4761 27.8773 51.1804 27.5359 50.9715C27.1811 50.7645 26.7777 50.6554 26.367 50.6554C25.9562 50.6554 25.5528 50.7645 25.198 50.9715C24.8497 51.1785 24.5626 51.4742 24.366 51.8285C24.1592 52.207 24.0546 52.6328 24.0623 53.064C24.055 53.4991 24.1596 53.9289 24.366 54.312C24.56 54.6714 24.8475 54.9718 25.198 55.1814C25.5496 55.3923 25.9529 55.501 26.3628 55.4955Z" fill="#FF8201"/>
<path d="M36.5113 52.779C36.3947 52.7803 36.2791 52.7575 36.1718 52.7121C36.0644 52.6666 35.9676 52.5995 35.8873 52.5148C35.8019 52.4322 35.7344 52.3329 35.6889 52.223C35.6435 52.1132 35.6211 51.9951 35.6232 51.8763C35.6225 51.7001 35.6744 51.5277 35.7723 51.3811C35.8701 51.2345 36.0094 51.1204 36.1724 51.0535C36.3354 50.9865 36.5147 50.9696 36.6873 51.005C36.86 51.0404 37.0181 51.1265 37.1416 51.2523C37.2253 51.3359 37.2913 51.4356 37.3356 51.5453C37.3799 51.655 37.4017 51.7725 37.3995 51.8908C37.4006 52.0069 37.3784 52.1219 37.3341 52.2291C37.2898 52.3363 37.2243 52.4335 37.1416 52.5148C37.0612 52.601 36.9635 52.6691 36.8548 52.7146C36.7462 52.7602 36.6291 52.7821 36.5113 52.779Z" fill="#FF8201"/>
<path d="M43.9124 56.6042C43.8241 56.6053 43.7365 56.5887 43.6548 56.5554C43.573 56.5222 43.4987 56.4729 43.4363 56.4105C43.3739 56.3481 43.3246 56.2738 43.2913 56.192C43.2581 56.1103 43.2415 56.0227 43.2426 55.9344V47.215C43.2393 47.1255 43.2549 47.0364 43.2882 46.9532C43.3215 46.8701 43.3719 46.7949 43.4361 46.7325C43.4989 46.671 43.5734 46.6228 43.6552 46.5906C43.7371 46.5584 43.8245 46.543 43.9124 46.5453H46.2212C46.8185 46.5369 47.4081 46.6801 47.9351 46.9613C48.4185 47.2186 48.8216 47.6044 49.0999 48.0762C49.3854 48.5774 49.5292 49.1468 49.5159 49.7235C49.5261 50.2722 49.382 50.8128 49.0999 51.2835C48.8182 51.7404 48.4149 52.1099 47.9351 52.3506C47.4035 52.6163 46.8154 52.7491 46.2212 52.7374H44.5738V55.9344C44.576 56.0223 44.5606 56.1097 44.5285 56.1915C44.4963 56.2733 44.4481 56.3479 44.3866 56.4107C44.3251 56.4738 44.2513 56.5236 44.1697 56.5569C44.0881 56.5902 44.0005 56.6063 43.9124 56.6042ZM44.5821 51.4915H46.2295C46.5892 51.4987 46.9455 51.4211 47.2695 51.2648C47.559 51.1262 47.8045 50.9103 47.9788 50.6408C48.1508 50.3646 48.2396 50.0447 48.2346 49.7193C48.241 49.3676 48.1526 49.0206 47.9788 48.7147C47.8095 48.4265 47.5641 48.1904 47.2695 48.0325C46.9486 47.8659 46.591 47.7822 46.2295 47.7891H44.5821V51.4915ZM49.258 56.6042C49.1439 56.6051 49.0312 56.5787 48.9293 56.5272C48.8243 56.4703 48.7372 56.3853 48.6777 56.2817L46.3585 52.5377L47.6605 52.1654L49.7717 55.5642C49.8458 55.6642 49.891 55.7827 49.9023 55.9066C49.9137 56.0306 49.8908 56.1553 49.8362 56.2672C49.784 56.3761 49.7 56.4666 49.5953 56.5268C49.4905 56.5869 49.37 56.6139 49.2497 56.6042H49.258Z" fill="#FF8201"/>
<path d="M54.7588 56.6562C54.0972 56.6678 53.4435 56.5103 52.8598 56.1986C52.3184 55.9055 51.8686 55.4686 51.5598 54.936C51.2392 54.3733 51.0767 53.7344 51.0897 53.0869C51.0762 52.4394 51.2288 51.7992 51.5327 51.2274C51.8196 50.7016 52.2456 50.2648 52.7641 49.9648C53.3133 49.6534 53.9362 49.4953 54.5674 49.5072C55.1727 49.49 55.7705 49.6443 56.2918 49.9523C56.7699 50.2446 57.1529 50.6695 57.3942 51.1754C57.6554 51.7378 57.7849 52.3525 57.7727 52.9725C57.7761 53.0497 57.7629 53.1267 57.7343 53.1984C57.7056 53.2701 57.662 53.3349 57.6063 53.3885C57.4937 53.4938 57.3445 53.5512 57.1903 53.5487H51.9903V52.5191H57.1425L56.6142 52.8789C56.6121 52.4807 56.5241 52.0876 56.3562 51.7266C56.2023 51.3853 55.9496 51.0981 55.6307 50.9019C55.3118 50.7058 54.9415 50.6098 54.5674 50.6263C54.1294 50.6141 53.6968 50.7259 53.3194 50.9487C52.9753 51.1595 52.7 51.4659 52.527 51.8306C52.3414 52.2267 52.2489 52.66 52.2566 53.0973C52.2487 53.5395 52.3601 53.9756 52.579 54.3599C52.79 54.727 53.097 55.0297 53.4671 55.2355C53.8647 55.4551 54.313 55.5662 54.7671 55.5579C55.0467 55.5552 55.3237 55.5053 55.5866 55.4103C55.8275 55.3303 56.0553 55.2154 56.2626 55.0691C56.3823 54.9773 56.5279 54.9256 56.6786 54.9215C56.8222 54.9144 56.9629 54.9628 57.0718 55.0567C57.1362 55.107 57.1898 55.1697 57.2295 55.2412C57.2691 55.3127 57.294 55.3914 57.3026 55.4727C57.3051 55.5515 57.2873 55.6296 57.2509 55.6996C57.2145 55.7695 57.1607 55.8289 57.0946 55.872C56.7673 56.1219 56.3993 56.3133 56.0068 56.4378C55.6057 56.5788 55.184 56.6526 54.7588 56.6562Z" fill="#FF8201"/>
<path d="M61.7792 56.5917C61.6447 56.5905 61.5135 56.5494 61.4023 56.4735C61.2912 56.3975 61.2052 56.2902 61.1552 56.1653L58.4304 50.4099C58.3968 50.3432 58.3777 50.2702 58.3745 50.1956C58.3713 50.121 58.384 50.0466 58.4117 49.9773C58.4421 49.9035 58.4868 49.8365 58.5432 49.7801C58.5996 49.7237 58.6666 49.6791 58.7404 49.6486C58.8072 49.611 58.8814 49.5881 58.9578 49.5817C59.0342 49.5752 59.1112 49.5853 59.1834 49.6112C59.3315 49.661 59.454 49.7671 59.5245 49.9065L62.0746 55.4061H61.4506L63.9757 49.9065C64.0118 49.8361 64.0617 49.7736 64.1224 49.7228C64.1832 49.6721 64.2535 49.6341 64.3293 49.6112C64.4082 49.585 64.4915 49.5748 64.5744 49.5812C64.6572 49.5876 64.738 49.6106 64.8119 49.6486C64.8833 49.6776 64.9477 49.7213 65.0011 49.7769C65.0545 49.8324 65.0957 49.8986 65.1218 49.971C65.1467 50.0423 65.1571 50.1178 65.1525 50.1932C65.1478 50.2686 65.1282 50.3422 65.0948 50.4099L62.3658 56.1653C62.3246 56.2886 62.246 56.396 62.1408 56.4724C62.0357 56.5489 61.9092 56.5906 61.7792 56.5917Z" fill="#FF8201"/>
<path d="M67.4447 48.4131C67.2456 48.4151 67.052 48.3478 66.897 48.2229C66.742 48.0979 66.6352 47.923 66.5949 47.728C66.5546 47.533 66.5833 47.3301 66.6761 47.1539C66.7688 46.9777 66.9199 46.8392 67.1034 46.7621C67.287 46.685 67.4917 46.674 67.6824 46.7311C67.8731 46.7882 68.0382 46.9097 68.1492 47.075C68.2602 47.2402 68.3104 47.4389 68.2912 47.6371C68.272 47.8353 68.1845 48.0206 68.0437 48.1614C67.9664 48.2421 67.8733 48.3061 67.7703 48.3493C67.6673 48.3926 67.5565 48.4143 67.4447 48.4131ZM67.4447 56.6042C67.3578 56.6064 67.2713 56.591 67.1905 56.5588C67.1097 56.5266 67.0363 56.4782 66.9748 56.4167C66.9133 56.3552 66.865 56.2819 66.8328 56.2011C66.8006 56.1203 66.7851 56.0338 66.7874 55.9469V50.2165C66.7832 50.1284 66.7977 50.0403 66.8299 49.9582C66.8622 49.8761 66.9115 49.8018 66.9746 49.7402C67.0665 49.6445 67.1852 49.579 67.3151 49.5523C67.445 49.5255 67.58 49.5388 67.7022 49.5905C67.8243 49.6421 67.928 49.7296 67.9994 49.8413C68.0707 49.9531 68.1065 50.0839 68.102 50.2165V55.9469C68.1047 56.0333 68.09 56.1195 68.059 56.2002C68.0279 56.2809 67.981 56.3546 67.921 56.4169C67.8594 56.48 67.785 56.5294 67.7029 56.5616C67.6208 56.5939 67.5328 56.6084 67.4447 56.6042Z" fill="#FF8201"/>
<path d="M74.0723 56.6562C73.4106 56.6677 72.757 56.5102 72.1732 56.1986C71.6319 55.9054 71.182 55.4685 70.8732 54.936C70.5526 54.3733 70.3902 53.7344 70.4032 53.0869C70.3897 52.4394 70.5422 51.7992 70.8462 51.2274C71.1331 50.7015 71.5591 50.2648 72.0776 49.9648C72.6261 49.6536 73.2483 49.4956 73.8788 49.5072C74.4848 49.4897 75.0833 49.644 75.6052 49.9523C76.0834 50.2446 76.4664 50.6695 76.7076 51.1754C76.9689 51.7378 77.0983 52.3524 77.0862 52.9725C77.0895 53.0497 77.0764 53.1266 77.0477 53.1984C77.019 53.2701 76.9754 53.3349 76.9198 53.3885C76.8071 53.4938 76.658 53.5512 76.5038 53.5486H71.3038V52.519H76.456L75.9276 52.8789C75.9256 52.4807 75.8376 52.0876 75.6697 51.7266C75.5156 51.385 75.2626 51.0975 74.9433 50.9013C74.624 50.7052 74.2532 50.6093 73.8788 50.6262C73.4408 50.614 73.0082 50.7257 72.6308 50.9486C72.2867 51.1595 72.0114 51.4659 71.8384 51.8306C71.6528 52.2266 71.5603 52.6599 71.568 53.0973C71.5601 53.5394 71.6715 53.9756 71.8904 54.3598C72.1014 54.727 72.4085 55.0297 72.7785 55.2355C73.1761 55.455 73.6244 55.5662 74.0785 55.5579C74.3581 55.5552 74.6351 55.5052 74.898 55.4102C75.1389 55.3303 75.3667 55.2154 75.574 55.0691C75.6937 54.9773 75.8393 54.9256 75.99 54.9214C76.1336 54.9143 76.2743 54.9628 76.3832 55.0566C76.4476 55.107 76.5012 55.1697 76.5409 55.2412C76.5805 55.3126 76.6054 55.3914 76.614 55.4726C76.6165 55.5515 76.5987 55.6296 76.5623 55.6995C76.5259 55.7695 76.4721 55.8289 76.406 55.872C76.0787 56.1219 75.7107 56.3133 75.3182 56.4378C74.9177 56.5786 74.4968 56.6524 74.0723 56.6562Z" fill="#FF8201"/>
<path d="M80.3222 56.6041C80.1863 56.604 80.0538 56.5611 79.9437 56.4814C79.8338 56.4081 79.7501 56.3017 79.7045 56.1777L77.7992 50.464C77.7271 50.2537 77.7271 50.0253 77.7992 49.815C77.8431 49.7278 77.9133 49.6566 77.9999 49.6114C78.0865 49.5662 78.1851 49.5494 78.2818 49.5633C78.4324 49.5552 78.5807 49.6034 78.6978 49.6985C78.8266 49.8236 78.918 49.982 78.9619 50.1561L80.5843 55.2293H80.135L81.6618 50.048C81.6993 49.9112 81.776 49.7883 81.8822 49.6944C82 49.6006 82.1478 49.5526 82.2982 49.5592C82.4435 49.5524 82.5865 49.598 82.701 49.6877C82.8155 49.7775 82.894 49.9053 82.9222 50.048L84.1702 54.9173H83.9768L85.5118 50.152C85.6304 49.7568 85.855 49.5592 86.1816 49.5592C86.2788 49.5484 86.377 49.5665 86.464 49.6113C86.5509 49.6561 86.6227 49.7255 86.6704 49.8109C86.7127 49.9141 86.7335 50.025 86.7313 50.1366C86.7292 50.2482 86.7042 50.3582 86.6579 50.4598L84.7506 56.1777C84.7154 56.3013 84.6381 56.4087 84.5322 56.4814C84.4198 56.5629 84.2841 56.6059 84.1453 56.6041C84.0075 56.6037 83.8731 56.5608 83.7605 56.4814C83.6489 56.4114 83.5662 56.3036 83.5275 56.1777L82.2005 51.2731H82.3294L80.9358 56.1777C80.8982 56.3024 80.818 56.4099 80.7091 56.4814C80.5961 56.5617 80.4609 56.6046 80.3222 56.6041Z" fill="#FF8201"/>
<path d="M92.3755 52.779C92.259 52.7799 92.1436 52.7569 92.0363 52.7114C91.9289 52.666 91.8321 52.5991 91.7515 52.5149C91.6665 52.4319 91.5992 52.3325 91.5538 52.2228C91.5084 52.113 91.4858 51.9951 91.4874 51.8763C91.4873 51.7001 91.5397 51.5279 91.6378 51.3815C91.7359 51.2351 91.8753 51.1213 92.0383 51.0544C92.2014 50.9875 92.3806 50.9706 92.5532 51.0058C92.7259 51.0411 92.8841 51.1269 93.0079 51.2523C93.0912 51.3362 93.1569 51.4359 93.2012 51.5456C93.2455 51.6552 93.2675 51.7726 93.2658 51.8909C93.2665 52.0068 93.244 52.1217 93.1997 52.2289C93.1554 52.336 93.0902 52.4332 93.0079 52.5149C92.9267 52.6005 92.8285 52.6683 92.7196 52.7138C92.6107 52.7593 92.4935 52.7815 92.3755 52.779Z" fill="#FF8201"/>
<path d="M99.7561 56.6042C99.6679 56.6056 99.5802 56.5892 99.4984 56.556C99.4167 56.5228 99.3424 56.4735 99.2801 56.411C99.2178 56.3485 99.1687 56.2741 99.1358 56.1922C99.1028 56.1103 99.0867 56.0227 99.0884 55.9344V47.2151C99.0848 47.1257 99.0999 47.0366 99.1329 46.9535C99.1658 46.8703 99.2159 46.795 99.2798 46.7325C99.3428 46.6712 99.4173 46.6231 99.4991 46.591C99.5809 46.5588 99.6683 46.5433 99.7561 46.5453H102.835C103.367 46.5341 103.895 46.6511 104.374 46.8864C104.8 47.1015 105.159 47.4287 105.414 47.8328C105.67 48.2511 105.801 48.7339 105.792 49.2243C105.797 49.6302 105.678 50.0279 105.451 50.3642C105.216 50.7101 104.894 50.9878 104.517 51.1691C105.048 51.2851 105.528 51.5697 105.884 51.9803C106.242 52.4287 106.425 52.9921 106.398 53.5653C106.412 54.111 106.27 54.6495 105.99 55.1179C105.71 55.5864 105.302 55.9655 104.815 56.2111C104.284 56.4807 103.696 56.6157 103.101 56.6042H99.7561ZM100.426 50.672H102.835C103.265 50.69 103.689 50.5625 104.039 50.3101C104.199 50.1789 104.326 50.011 104.408 49.8206C104.49 49.6301 104.524 49.4227 104.509 49.216C104.525 49.0101 104.49 48.8035 104.408 48.614C104.327 48.4244 104.2 48.2577 104.039 48.1282C103.688 47.8803 103.264 47.7559 102.835 47.7746H100.426V50.672ZM100.426 55.3583H103.105C103.462 55.3642 103.817 55.2933 104.145 55.1503C104.435 55.0219 104.681 54.8115 104.852 54.545C105.033 54.2472 105.123 53.903 105.11 53.5549C105.123 53.2302 105.033 52.9097 104.852 52.6397C104.674 52.3934 104.428 52.2036 104.145 52.0927C103.814 51.9625 103.461 51.8989 103.105 51.9055H100.426V55.3583Z" fill="#FF8201"/>
<path d="M111.668 56.6562C111.025 56.6685 110.39 56.5106 109.828 56.1986C109.305 55.8985 108.874 55.4621 108.58 54.936C108.28 54.3637 108.124 53.7275 108.124 53.0817C108.124 52.4359 108.28 51.7997 108.58 51.2274C108.874 50.7013 109.305 50.2649 109.828 49.9648C110.393 49.6643 111.023 49.5072 111.663 49.5072C112.303 49.5072 112.934 49.6643 113.499 49.9648C114.022 50.2641 114.454 50.7007 114.747 51.2274C115.045 51.7999 115.201 52.436 115.201 53.0817C115.201 53.7274 115.045 54.3635 114.747 54.936C114.455 55.4641 114.023 55.9011 113.499 56.1986C112.939 56.5088 112.308 56.6666 111.668 56.6562ZM111.668 55.4955C112.084 55.5041 112.495 55.3975 112.854 55.1877C113.195 54.9832 113.474 54.6889 113.659 54.337C113.858 53.9516 113.957 53.5226 113.948 53.089C113.956 52.6555 113.856 52.2269 113.659 51.841C113.476 51.486 113.197 51.1892 112.854 50.984C112.492 50.7808 112.084 50.6741 111.669 50.6741C111.254 50.6741 110.847 50.7808 110.485 50.984C110.141 51.1901 109.861 51.4865 109.674 51.841C109.472 52.2255 109.369 52.6546 109.376 53.089C109.368 53.5235 109.47 53.953 109.674 54.337C109.863 54.6884 110.143 54.9823 110.485 55.1877C110.843 55.3973 111.253 55.5038 111.668 55.4955Z" fill="#FF8201"/>
<path d="M120.568 56.6562C119.924 56.6685 119.289 56.5106 118.725 56.1986C118.202 55.8992 117.77 55.4627 117.477 54.936C117.177 54.3641 117.02 53.7278 117.02 53.0817C117.02 52.4356 117.177 51.7992 117.477 51.2274C117.77 50.7007 118.202 50.2641 118.725 49.9648C119.29 49.6643 119.921 49.5072 120.561 49.5072C121.201 49.5072 121.831 49.6643 122.396 49.9648C122.919 50.2649 123.35 50.7013 123.644 51.2274C123.943 51.7999 124.099 52.436 124.099 53.0817C124.099 53.7274 123.943 54.3635 123.644 54.936C123.352 55.4634 122.92 55.9003 122.396 56.1986C121.838 56.5085 121.207 56.6663 120.568 56.6562ZM120.568 55.4955C120.983 55.5038 121.393 55.3973 121.752 55.1877C122.093 54.9838 122.372 54.6894 122.557 54.337C122.756 53.9518 122.856 53.5228 122.848 53.089C122.855 52.6554 122.755 52.2267 122.557 51.841C122.374 51.4855 122.095 51.1886 121.752 50.984C121.39 50.7808 120.982 50.6741 120.567 50.6741C120.152 50.6741 119.744 50.7808 119.382 50.984C119.039 51.1901 118.758 51.4865 118.571 51.841C118.37 52.2257 118.268 52.6548 118.276 53.089C118.267 53.5233 118.368 53.9529 118.571 54.337C118.76 54.6884 119.04 54.9823 119.382 55.1877C119.742 55.3975 120.152 55.5041 120.568 55.4955Z" fill="#FF8201"/>
<path d="M126.904 56.6042C126.821 56.608 126.738 56.5945 126.661 56.5645C126.583 56.5345 126.513 56.4887 126.454 56.43C126.395 56.3713 126.35 56.3009 126.32 56.2235C126.29 56.146 126.276 56.0632 126.28 55.9802V47.1776C126.283 47.053 126.322 46.9318 126.392 46.8288C126.462 46.7258 126.561 46.6452 126.676 46.5969C126.791 46.5485 126.917 46.5344 127.04 46.5563C127.163 46.5781 127.277 46.635 127.368 46.72C127.426 46.7807 127.471 46.8526 127.501 46.9312C127.53 47.0098 127.544 47.0937 127.54 47.1776V55.9719C127.544 56.0558 127.53 56.1397 127.501 56.2183C127.471 56.2969 127.426 56.3687 127.368 56.4295C127.306 56.4887 127.234 56.5348 127.154 56.5649C127.074 56.5949 126.989 56.6083 126.904 56.6042ZM127.509 54.0271L126.711 53.1514L130.663 49.6154C130.718 49.5595 130.784 49.5158 130.857 49.4872C130.93 49.4586 131.009 49.4458 131.087 49.4495C131.166 49.4532 131.243 49.4734 131.313 49.5088C131.383 49.5442 131.445 49.594 131.495 49.6549C131.55 49.7089 131.593 49.7737 131.622 49.8453C131.651 49.9169 131.665 49.9937 131.663 50.0709C131.658 50.1506 131.637 50.2285 131.601 50.3C131.565 50.3715 131.516 50.435 131.455 50.4869L127.509 54.0271ZM131.501 56.5397C131.438 56.5931 131.366 56.6336 131.288 56.659C131.21 56.6843 131.127 56.694 131.045 56.6874C130.964 56.6812 130.885 56.6581 130.813 56.6194C130.742 56.5806 130.679 56.5273 130.629 56.4628L128.013 53.2304L128.913 52.3797L131.592 55.6765C131.697 55.8 131.75 55.9597 131.74 56.1216C131.732 56.2042 131.706 56.284 131.665 56.3561C131.624 56.4281 131.568 56.4906 131.501 56.5397Z" fill="#FF8201"/>
</g>
<defs>
<clipPath id="clip0_13482_57070">
<rect width="134" height="57" fill="white"/>
</clipPath>
</defs>
</svg>
