<svg width="49" height="48" fill="none" xmlns="http://www.w3.org/2000/svg"><path d="M48.5 24c0-13.255-10.745-24-24-24S.5 10.745.5 24c0 11.98 8.777 21.908 20.25 23.708v-16.77h-6.094V24h6.094v-5.288c0-6.014 3.583-9.337 9.065-9.337 2.626 0 5.372.469 5.372.469v5.906h-3.026c-2.981 0-3.911 1.85-3.911 3.748V24h6.656l-1.064 6.938H28.25v16.77C39.724 45.908 48.5 35.98 48.5 24z" fill="#1877F2"/><path d="M33.842 30.938L34.906 24H28.25v-4.502c0-1.898.93-3.748 3.911-3.748h3.026V9.844s-2.746-.469-5.372-.469c-5.482 0-9.065 3.322-9.065 9.337V24h-6.094v6.938h6.094v16.77a24.168 24.168 0 007.5 0v-16.77h5.592z" fill="#fff"/></svg>