<svg width="47" height="46" fill="none" xmlns="http://www.w3.org/2000/svg"><g fill-rule="evenodd" clip-rule="evenodd"><path d="M10.417 23.001c0-1.494.248-2.926.69-4.27l-7.751-5.919a22.988 22.988 0 00-2.362 10.19c0 3.662.85 7.115 2.359 10.18l7.747-5.93a13.607 13.607 0 01-.683-4.25z" fill="#FBBC05"/><path d="M24.023 9.41c3.245 0 6.176 1.15 8.48 3.03l6.7-6.69C35.12 2.195 29.885 0 24.023 0A22.964 22.964 0 003.352 12.811l7.75 5.92a13.574 13.574 0 0112.92-9.322z" fill="#EA4335"/><path d="M24.023 36.591c-6.042 0-11.134-3.9-12.92-9.321l-7.751 5.918A22.963 22.963 0 0024.022 46c5.618 0 10.982-1.995 15.007-5.732l-7.358-5.688c-2.076 1.308-4.69 2.011-7.648 2.011z" fill="#34A853"/><path d="M46.005 22.999c0-1.36-.21-2.823-.524-4.182H24.02v8.886h12.354c-.617 3.03-2.298 5.36-4.704 6.875l7.357 5.688c4.229-3.924 6.979-9.77 6.979-17.267z" fill="#4285F4"/></g></svg>