<svg width="17" height="16" fill="none" xmlns="http://www.w3.org/2000/svg"><g clip-path="url(#clip0_15041_65010)"><path d="M1.638 1.014h13.725v.1a.511.511 0 01.47.308L1.638 1.014zm0 0a.612.612 0 00-.448 1.03h0l5.223 5.588-4.775-6.618zm.779.95h12.167L9.766 7.121a.475.475 0 00-.128.324s0 0 0 0v4.102L7.363 13.61V7.445s0 0 0 0a.475.475 0 00-.128-.324s0 0 0 0L2.417 1.964z" fill="#333" stroke="#333" stroke-width=".2"/></g><defs><clipPath id="clip0_15041_65010"><path fill="#fff" transform="translate(.5)" d="M0 0h16v16H0z"/></clipPath></defs></svg>