<svg width="24" height="24" fill="none" xmlns="http://www.w3.org/2000/svg"><path d="M5 4.85h-.15v14.3H11c.467 0 .85.383.85.85 0 .467-.383.85-.85.85H5A1.856 1.856 0 013.15 19V5c0-1.017.833-1.85 1.85-1.85h6c.467 0 .85.383.85.85 0 .467-.383.85-.85.85H5z" fill="#333" stroke="#fff" stroke-width=".3"/><path d="M17.753 8.965h0v.001l2.79 2.79a.342.342 0 01-.006.485h0l-.003.003-2.79 2.79h0l-.002.002a.345.345 0 01-.592-.246v-1.94H10a.853.853 0 01-.85-.85c0-.467.383-.85.85-.85h7.15V9.21v0a.35.35 0 01.603-.245z" fill="#333" stroke="#fff" stroke-width=".3"/></svg>