<svg width="17" height="16" fill="none" xmlns="http://www.w3.org/2000/svg"><mask id="a" maskUnits="userSpaceOnUse" x="1.333" y=".466" width="14" height="15" fill="#000"><path fill="#fff" d="M1.333.466h14v15h-14z"/><path fill-rule="evenodd" clip-rule="evenodd" d="M6.48 1.613a.5.5 0 01.853.37V14a.5.5 0 11-1 0V3.174L3.187 6.32a.5.5 0 11-.707-.707l4-4zm3.686-.08a.5.5 0 01.5.5v10.793l3.147-3.146a.5.5 0 11.707.707l-3.996 3.996a.5.5 0 01-.857-.35v-12a.5.5 0 01.5-.5z"/></mask><path fill-rule="evenodd" clip-rule="evenodd" d="M6.48 1.613a.5.5 0 01.853.37V14a.5.5 0 11-1 0V3.174L3.187 6.32a.5.5 0 11-.707-.707l4-4zm3.686-.08a.5.5 0 01.5.5v10.793l3.147-3.146a.5.5 0 11.707.707l-3.996 3.996a.5.5 0 01-.857-.35v-12a.5.5 0 01.5-.5z" fill="#333"/><path d="M7.187 1.613l-.07.07.07-.07zm-.707 0l.07.07-.07-.07zm.853.37l-.1-.003v.005l.1-.002zm0 .017h.1v-.002l-.1.002zm-1 1.174h.1v-.242l-.17.17.07.072zM3.187 6.32l.07.07-.07-.07zm-.707 0l.07-.07-.07.07zm0-.707l-.071-.07.07.07zm8.186 7.213h-.1v.242l.171-.17-.07-.072zm3.147-3.146l.07.07-.07-.07zm.707 0l-.07.07.07-.07zm-3.996 4.703l-.07-.071h-.001l.071.07zm-.061.053l-.06-.08.06.08zm-.064.04l-.046-.088.046.088zm-.446.01l.043-.09-.043.09zm-.11-.072l.064-.076-.064.076zm-.135-.182l-.092.04.092-.04zm-2.45-12.69a.6.6 0 00-.849 0l.141.142a.4.4 0 01.566 0l.142-.142zm.175.444a.599.599 0 00-.176-.444l-.14.142a.4.4 0 01.116.296l.2.006zm0 .012v-.017l-.2.004v.017l.2-.004zm0 12.002V2h-.2v12h.2zm-.6.6a.6.6 0 00.6-.6h-.2a.4.4 0 01-.4.4v.2zm-.6-.6a.6.6 0 00.6.6v-.2a.4.4 0 01-.4-.4h-.2zm0-10.826V14h.2V3.174h-.2zM3.258 6.39l3.146-3.147-.141-.141-3.147 3.146.142.142zm-.849 0a.6.6 0 00.849 0l-.142-.142a.4.4 0 01-.566 0l-.141.142zm0-.849a.6.6 0 000 .849l.141-.142a.4.4 0 010-.565l-.141-.142zm4-4l-4 4 .141.142 4-4-.141-.142zm4.358.492a.6.6 0 00-.6-.6v.2a.4.4 0 01.4.4h.2zm0 10.792V2.034h-.2v10.792h.2zm-.03.071l3.147-3.146-.142-.142-3.146 3.147.141.141zm3.147-3.146a.4.4 0 01.565 0l.142-.142a.6.6 0 00-.849 0l.142.142zm.565 0a.4.4 0 010 .565l.142.142a.6.6 0 000-.849l-.142.142zm0 .565l-3.995 3.996.141.141 3.996-3.995-.142-.142zm-3.927 4.2a.605.605 0 00.074-.064l-.143-.14a.413.413 0 01-.05.044l.12.16zm-.119-.16a.398.398 0 01-.05.032l.093.177a.583.583 0 00.076-.048l-.119-.161zm-.237.277a.6.6 0 00.28-.068l-.093-.177a.398.398 0 01-.187.046v.2zm-.256-.057a.598.598 0 00.256.057v-.2a.398.398 0 01-.17-.038l-.086.181zm.086-.18a.397.397 0 01-.089-.058l-.13.152a.6.6 0 00.133.086l.086-.18zm-.38-.124c.037.085.092.16.162.219l.13-.153a.401.401 0 01-.109-.146l-.183.08zm-.05-.239c0 .085.018.166.05.239l.183-.08a.399.399 0 01-.032-.159h-.2zm0-12v12h.2v-12h-.2zm.6-.6a.6.6 0 00-.6.6h.2c0-.22.18-.4.4-.4v-.2z" fill="#333" mask="url(#a)"/></svg>