<svg width="75" height="50" fill="none" xmlns="http://www.w3.org/2000/svg"><path d="M28.889 11.24h16.845v27.514H28.89V11.24z" fill="#FF5F00"/><path d="M30.626 25a17.467 17.467 0 016.682-13.754 17.497 17.497 0 100 27.514A17.468 17.468 0 0130.626 25z" fill="#EB001B"/><path d="M63.95 35.844v-.563h.244v-.117h-.579v.117h.229v.564h.106zm1.123 0v-.68h-.175l-.204.486-.204-.486h-.175v.68h.126v-.515l.19.443h.131l.19-.443v.515h.121zm.549-10.842A17.497 17.497 0 0137.31 38.755a17.496 17.496 0 000-27.514 17.497 17.497 0 0128.312 13.755v.005z" fill="#F79E1B"/></svg>