<svg width="60" height="40" fill="none" xmlns="http://www.w3.org/2000/svg"><g clip-path="url(#clip0_14667_57141)"><path d="M18.514 8h9.576c1.337 0 2.168 1.09 1.857 2.43l-4.459 19.143C25.173 30.909 23.834 32 22.498 32h-9.576c-1.335 0-2.168-1.09-1.857-2.427l4.46-19.143C15.838 9.09 17.175 8 18.514 8z" fill="#E21836"/><path d="M27.293 8h11.013c1.336 0 .734 1.09.419 2.43l-4.457 19.143C33.955 30.909 34.052 32 32.712 32H21.7c-1.34 0-2.168-1.09-1.854-2.427l4.459-19.143C24.62 9.09 25.955 8 27.293 8z" fill="#00447C"/><path d="M37.869 8h9.58c1.339 0 2.17 1.09 1.855 2.43l-4.46 19.143C44.529 30.909 43.189 32 41.85 32h-9.57c-1.34 0-2.17-1.09-1.856-2.427L34.88 10.43C35.193 9.09 36.529 8 37.869 8z" fill="#007B84"/><path d="M21.015 14.131c-.985.01-1.277 0-1.369-.021-.035.17-.7 3.236-.702 3.236-.143.62-.247 1.062-.596 1.347a1.07 1.07 0 01-.707.246c-.437 0-.692-.217-.734-.628l-.008-.14.133-.836c0-.004.696-2.79.817-3.159a.259.259 0 00.01-.042c-1.357.012-1.597 0-1.617-.021a3.97 3.97 0 00-.043.202l-.712 3.151-.059.265-.118.874c-.007.226.045.45.152.649.325.567 1.25.652 1.773.652.675 0 1.308-.143 1.735-.405.743-.439.937-1.125 1.107-1.733l.085-.313s.717-2.898.84-3.279a.115.115 0 01.013-.045zm2.444 2.341a1.896 1.896 0 00-.774.182c-.103.052-.2.114-.303.17l.093-.336-.052-.056c-.602.122-.737.14-1.294.218l-.047.03c-.08.672-.2 1.337-.362 1.994-.09.388-.185.78-.28 1.167l.025.05c.57-.03.744-.03 1.24-.022l.04-.044c.063-.323.071-.398.21-1.052.067-.31.204-.99.27-1.234a.915.915 0 01.364-.114c.277 0 .244.243.233.34-.012.164-.113.693-.217 1.148l-.07.294c-.048.217-.1.426-.149.643l.021.042c.562-.03.734-.03 1.215-.022l.056-.043c.085-.504.112-.639.266-1.373l.078-.34c.15-.662.226-.996.112-1.269-.12-.297-.41-.37-.675-.37v-.003zm2.731.691c-.299.058-.49.096-.681.12-.192.026-.37.058-.66.098l-.023.021-.02.017c-.031.215-.052.4-.092.62-.04.218-.085.483-.17.851a3.376 3.376 0 01-.136.481c-.06.155-.11.313-.151.474l.018.025.014.024c.27-.013.447-.022.628-.024h.66l.025-.02.028-.023c.042-.25.048-.319.074-.44.025-.122.07-.313.177-.798.051-.229.107-.455.16-.688.053-.232.113-.46.17-.687l-.007-.028-.014-.023zm.006-.932c-.272-.16-.748-.109-1.069.113-.32.221-.357.524-.085.687.272.163.746.11 1.064-.114.317-.224.358-.524.09-.683v-.003zm1.644 3.714c.549 0 1.113-.151 1.533-.601.326-.364.476-.907.528-1.13.17-.741.037-1.086-.128-1.297-.256-.321-.694-.426-1.153-.426-.277 0-.937.027-1.448.5-.369.341-.54.807-.643 1.252-.103.444-.223 1.27.527 1.573.251.091.517.136.784.132v-.003zm-.044-1.666c.127-.56.277-1.03.659-1.03.3 0 .32.35.188.912-.024.124-.133.588-.281.787-.103.146-.225.234-.36.234-.04 0-.279 0-.283-.355.005-.184.03-.367.077-.545v-.003zm3.483 1.594l.043-.044c.06-.322.07-.398.205-1.051.068-.31.208-.992.273-1.234a.903.903 0 01.365-.114c.276 0 .243.242.232.34-.053.386-.125.769-.218 1.147l-.065.294c-.05.217-.105.426-.153.643l.02.043c.566-.03.73-.03 1.214-.022l.057-.044c.086-.504.109-.64.267-1.373l.076-.34c.15-.66.227-.995.116-1.267-.125-.305-.415-.38-.677-.38a1.89 1.89 0 00-.774.182c-.101.053-.202.114-.302.17l.085-.335-.047-.056c-.603.122-.74.138-1.297.217l-.042.03a17.079 17.079 0 01-.362 1.994c-.091.388-.186.78-.281 1.168l.025.049a17.69 17.69 0 011.24-.015v-.002zm4.147.022c.035-.17.246-1.2.248-1.2.001 0 .18-.753.19-.78a.451.451 0 01.113-.11h.085c.784 0 1.67 0 2.363-.51.483-.37.815-.901.937-1.496a2.26 2.26 0 00.065-.521 1.092 1.092 0 00-.189-.665c-.353-.495-1.058-.504-1.873-.51h-.401c-1.042.012-1.459.008-1.63-.013l-.042.21-.373 1.732c0 .003-.893 3.676-.937 3.85.914-.002 1.289-.002 1.444.015v-.002zm.69-3.07l.396-1.72.012-.085.005-.067.159.016.837.073c.323.124.456.446.364.867a1.262 1.262 0 01-.654.862c-.264.132-.587.143-.92.143H36.1l.017-.09zm2.47 1.486c-.105.447-.226 1.263.521 1.554.21.092.44.134.669.12.238-.025.462-.127.637-.292l-.053.204.034.044a19.83 19.83 0 011.285-.019l.053-.04c.085-.5.165-.984.386-1.94.108-.458.215-.911.326-1.362l-.018-.05c-.596.111-.761.134-1.339.217l-.044.035-.018.136a.823.823 0 00-.42-.347c-.256-.101-.861.03-1.38.502-.365.335-.54.798-.639 1.24v-.002zm1.261.027c.129-.55.277-1.016.66-1.016.242 0 .37.223.34.604-.02.095-.042.196-.069.308-.038.165-.08.326-.12.49a1.206 1.206 0 01-.142.284.66.66 0 01-.468.227c-.038 0-.274 0-.282-.348.006-.185.033-.368.081-.546v-.003zm6.59-1.817l-.046-.054c-.596.121-.703.14-1.248.214l-.04.04c0 .007-.005.016-.007.026v-.01c-.407.937-.395.736-.726 1.475 0-.034 0-.055-.004-.09l-.085-1.601-.052-.054c-.623.121-.638.14-1.213.214l-.045.04a.433.433 0 00-.01.063v.009c.058.285.1.574.128.865.033.284.078.57.111.851.057.47.085.702.158 1.42-.388.64-.48.883-.851 1.448v.005l-.264.416a.195.195 0 01-.096.086.39.39 0 01-.17.024h-.145l-.217.721.744.013c.437 0 .71-.206.859-.48l.467-.801h-.007l.05-.058c.314-.674 2.71-4.78 2.71-4.78v-.002zm-7.85 9.475h-.317l1.169-3.86h.387l.123-.397.012.442c-.015.274.2.517.766.477h.653l.226-.745h-.246c-.142 0-.207-.035-.2-.112l-.011-.45h-1.211c-.391.008-1.56.037-1.797.1a2.13 2.13 0 00-.589.291l.12-.399h-1.133l-.236.793-1.184 3.918h-.23l-.225.738h2.255l-.074.247h1.107l.073-.247h.312l.25-.796zm-.927-3.079a5.04 5.04 0 00-.518.203l.3-.988h.9l-.218.72c-.156.009-.31.031-.464.065zm.018 1.41s-.283.036-.469.078a4.71 4.71 0 00-.527.23l.31-1.026h.904l-.218.719zm-.505 1.677h-.902l.261-.867h.9l-.259.867zm2.174-2.395h1.3l-.181.605h-1.323l-.198.662h1.154l-.874 1.23a.36.36 0 01-.177.148.52.52 0 01-.235.067h-.319l-.22.725h.837a1.023 1.023 0 00.882-.457l.596-.82.129.832a.39.39 0 00.215.282.766.766 0 00.292.125c.132.006.227.01.29.01h.411l.247-.81h-.163c-.092 0-.255-.016-.28-.046a.415.415 0 01-.042-.17l-.13-.834h-.535l.235-.28h1.315l.202-.661h-1.218l.19-.606h1.215l.224-.747H39.57l-.222.745zm-10.985 2.564l.304-1.01h1.247l.229-.751h-1.253l.19-.622H30.3l.226-.728h-3.054l-.222.728h.697l-.185.622h-.696l-.23.766h.693l-.405 1.337c-.054.177.026.245.077.326a.34.34 0 00.223.164c.105.027.212.042.32.044h1.407l.251-.833-.624.086c-.122-.003-.456-.017-.42-.129h.004zm.143-4.835l-.316.571a.65.65 0 01-.184.238.596.596 0 01-.283.043h-.164l-.222.73h.549a1.24 1.24 0 00.563-.144c.104-.055.13-.024.21-.101l.186-.16h1.711l.228-.762h-1.256l.218-.415h-1.24zm2.527 4.854c-.03-.043-.009-.117.036-.27l.468-1.548H33.2c.242 0 .417-.007.531-.015.141-.019.277-.065.4-.135a.745.745 0 00.292-.269 2.3 2.3 0 00.287-.65l.587-1.959-1.726.01c-.26.037-.515.092-.766.165a3.108 3.108 0 00-.574.367l.156-.538h-1.07L29.82 26.3a3.053 3.053 0 00-.097.416c0 .09.115.18.19.247.09.068.222.057.349.068.127.01.322.016.584.016h.82l.251-.852-.734.07a.195.195 0 01-.155-.076l.004.004zm.802-2.863h1.748l-.111.34a1.141 1.141 0 00-.231 0h-1.514l.108-.34zm.35-1.169h1.763l-.124.416s-.83-.009-.963.016c-.34.054-.66.197-.927.414l.25-.846zm1.326 2.683a.188.188 0 01-.07.107.34.34 0 01-.178.032h-.249l.015-.426h-1.036l-.043 2.073c0 .15.013.236.123.305.11.085.446.098.901.098h.65l.233-.776-.565.031-.188.011a.218.218 0 01-.077-.048c-.024-.024-.064-.01-.058-.159l.005-.531.596-.025a.767.767 0 00.574-.203.637.637 0 00.19-.352l.099-.471h-.814l-.108.334z" fill="#FEFEFE"/></g><defs><clipPath id="clip0_14667_57141"><path fill="#fff" transform="translate(11 8)" d="M0 0h38.367v24H0z"/></clipPath></defs></svg>