<svg width="60" height="40" fill="none" xmlns="http://www.w3.org/2000/svg"><path d="M23.585 9.518H36.42V30.48H23.585V9.518z" fill="#FF5F00"/><path d="M24.907 20A13.309 13.309 0 0130 9.522a13.33 13.33 0 100 20.963A13.31 13.31 0 0124.907 20z" fill="#EB001B"/><path d="M50.295 28.262v-.429h.185v-.089h-.44v.089h.174v.43h.081zm.855 0v-.518h-.133l-.155.37-.156-.37h-.133v.518h.096v-.392l.145.337h.1l.144-.337v.392h.092zm.419-8.261a13.331 13.331 0 01-21.57 10.48 13.33 13.33 0 000-20.963 13.331 13.331 0 0121.57 10.48V20z" fill="#F79E1B"/></svg>