<svg width="17" height="19" viewBox="0 0 17 19" fill="none" xmlns="http://www.w3.org/2000/svg">
<g clip-path="url(#clip0_10928_56773)">
<path d="M-3.5 7.99991H-0.5C-0.234784 7.99991 0.0195702 8.10527 0.207107 8.29281C0.394643 8.48034 0.5 8.7347 0.5 8.99991V13.4999V17.9999C0.5 18.2651 0.394643 18.5195 0.207107 18.707C0.0195702 18.8946 -0.234784 18.9999 -0.5 18.9999H-3.5C-3.76522 18.9999 -4.01957 18.8946 -4.20711 18.707C-4.39464 18.5195 -4.5 18.2651 -4.5 17.9999V8.99991C-4.5 8.7347 -4.39464 8.48034 -4.20711 8.29281C-4.01957 8.10527 -3.76522 7.99991 -3.5 7.99991ZM-3.5 8.99991V17.9999H-0.5V8.99991H-3.5ZM12.22 17.0299L15.22 12.0299C15.4 11.7299 15.5 11.3699 15.5 10.9999V9.99991C15.5 9.46948 15.2893 8.96077 14.9142 8.5857C14.5391 8.21063 14.0304 7.99991 13.5 7.99991H7.89L9.35 2.55991V2.53991C9.39735 2.37133 9.39818 2.19307 9.3524 2.02405C9.30663 1.85503 9.21595 1.70156 9.09 1.57991L3.09 7.58991C2.72 7.94991 2.5 8.44991 2.5 8.99991V15.9999C2.5 16.5303 2.71071 17.0391 3.08579 17.4141C3.46086 17.7892 3.96957 17.9999 4.5 17.9999H10.5C11.23 17.9999 11.87 17.6099 12.22 17.0299ZM16.5 10.9999C16.5 11.5899 16.33 12.1499 16.03 12.6099L13.12 17.4499C12.61 18.3799 11.63 18.9999 10.5 18.9999H4.5C3.70435 18.9999 2.94129 18.6838 2.37868 18.1212C1.81607 17.5586 1.5 16.7956 1.5 15.9999V8.99991C1.5 8.16991 1.84 7.41991 2.38 6.87991L9.09 0.159912L9.8 0.869912C10.33 1.39991 10.5 2.15991 10.31 2.83991L9.19 6.99991H13.5C14.2956 6.99991 15.0587 7.31598 15.6213 7.87859C16.1839 8.4412 16.5 9.20426 16.5 9.99991V10.9999Z" fill="#FF8201"/>
<path d="M12.22 17.0299L15.22 12.0299C15.4 11.7299 15.5 11.3699 15.5 10.9999V9.99991C15.5 9.46948 15.2893 8.96077 14.9142 8.5857C14.5391 8.21063 14.0304 7.99991 13.5 7.99991H7.89L9.35 2.55991V2.53991C9.39735 2.37133 9.39818 2.19307 9.3524 2.02405C9.30663 1.85503 9.21595 1.70156 9.09 1.57991L3.09 7.58991C2.72 7.94991 2.5 8.44991 2.5 8.99991V15.9999C2.5 16.5303 2.71071 17.0391 3.08579 17.4141C3.46086 17.7892 3.96957 17.9999 4.5 17.9999H10.5C11.23 17.9999 11.87 17.6099 12.22 17.0299Z" fill="#FF8201"/>
</g>
<defs>
<clipPath id="clip0_10928_56773">
<rect width="16" height="19" fill="white" transform="translate(0.5)"/>
</clipPath>
</defs>
</svg>
