<svg width="60" height="60" fill="none" xmlns="http://www.w3.org/2000/svg"><path d="M46.8 36.9a17.87 17.87 0 001.35-6.9c0-1.8-.275-3.525-.75-5.125a22.613 22.613 0 01-5.1.575 22.676 22.676 0 01-18.55-9.6 23.025 23.025 0 01-11.825 12.2c-.1.625-.1 1.3-.1 1.95A18.175 18.175 0 0030 48.175c2.625 0 5.15-.575 7.425-1.6C38.85 49.3 39.5 50.65 39.45 50.65c-4.1 1.375-7.275 2.05-9.45 2.05-6.05 0-11.825-2.375-16.075-6.65a22.574 22.574 0 01-5.6-9.225H5V25.45h2.725a22.725 22.725 0 0138.325-11.5c3.15 3.138 5.3 7.14 6.175 11.5H55v11.375h-.15L45.95 45 32.7 43.5v-4.175h12.075L46.8 36.9zm-23.625-7.475c.75 0 1.475.3 2 .85a2.84 2.84 0 010 4 2.839 2.839 0 01-2 .825 2.828 2.828 0 01-2.85-2.825 2.849 2.849 0 012.85-2.85zm13.625 0a2.828 2.828 0 012.825 2.85A2.806 2.806 0 0136.8 35.1a2.828 2.828 0 01-2.85-2.825 2.85 2.85 0 012.85-2.85z" fill="#2FA9B5"/></svg>