<svg width="80" height="80" fill="none" xmlns="http://www.w3.org/2000/svg"><path d="M62.4 49.2c1.166-2.834 1.8-5.867 1.8-9.2 0-2.4-.367-4.7-1-6.834a30.15 30.15 0 01-6.8.767 30.233 30.233 0 01-24.734-12.8A30.7 30.7 0 0115.899 37.4c-.133.833-.133 1.733-.133 2.6a24.233 24.233 0 0024.233 24.233c3.5 0 6.867-.767 9.9-2.133 1.9 3.633 2.767 5.433 2.7 5.433-5.466 1.833-9.7 2.733-12.6 2.733-8.066 0-15.766-3.166-21.433-8.866a30.1 30.1 0 01-7.467-12.3H6.666V33.933h3.633A30.301 30.301 0 0161.4 18.6a29.97 29.97 0 018.234 15.333h3.7V49.1h-.2L61.266 60l-17.667-2v-5.567h16.1l2.7-3.233zm-31.5-9.967c1 0 1.966.4 2.666 1.133a3.787 3.787 0 010 5.334c-.7.7-1.667 1.1-2.667 1.1-2.1 0-3.8-1.667-3.8-3.767 0-2.1 1.7-3.8 3.8-3.8zm18.166 0c2.1 0 3.767 1.7 3.767 3.8 0 2.1-1.667 3.767-3.767 3.767-2.1 0-3.8-1.667-3.8-3.767a3.8 3.8 0 013.8-3.8z" fill="#2FA9B5"/></svg>