<svg width="60" height="60" fill="none" xmlns="http://www.w3.org/2000/svg"><g clip-path="url(#clip0_262_3831)" fill="#333"><path d="M9.492.164c-1.57.433-2.707 1.5-3.27 3.058-.245.692-.257.774-.222 7.324l.035 6.622.363.761c.668 1.395 1.711 2.262 3.153 2.637.902.234 7.383.258 7.687.023.305-.234.469-.644.387-.96-.152-.622-.281-.645-3.914-.645-1.91 0-3.527-.047-3.774-.117-.761-.211-1.523-.82-1.874-1.512l-.329-.621V4.03l.305-.61c.164-.328.504-.761.75-.96.95-.75-.34-.704 19.559-.704 18.082 0 18.129 0 18.386-.234.352-.328.352-.96 0-1.29C46.477 0 46.441 0 28.254.012 14.062.023 9.902.058 9.492.164zM49.418.14c-.281.223-.422.692-.293 1.02.187.527.41.586 1.922.598 2.086 0 2.988.422 3.61 1.664l.304.61v6.304c0 6.82.012 6.668-.633 7.512-.164.222-.586.55-.914.738l-.621.34-11.977.058c-11.168.059-12 .07-12.222.258-.352.305-.317.95.07 1.254.316.246.352.246 12.047.246 12.95 0 12.492.023 13.77-.738.796-.48 1.347-1.114 1.816-2.074l.363-.762V3.562l-.445-.89C55.57 1.359 54.562.539 53.145.164c-.774-.211-3.458-.223-3.727-.023z"/><path d="M42.504 5.707c-.492.13-.55.54-.55 4.137v3.41l.292.282c.363.375.867.386 1.207.023.223-.234.258-.41.258-1.195v-.914l1.23 1.195c1.149 1.125 1.254 1.195 1.664 1.16.54-.047.926-.504.81-.973-.048-.187-.68-.89-1.571-1.757L44.355 9.62l.997-.914c1.722-1.57 1.875-1.746 1.875-2.074 0-.422-.48-.89-.914-.89-.27 0-.586.222-1.442 1.019L43.77 7.77l-.058-.844c-.047-.715-.105-.89-.34-1.078-.27-.223-.457-.246-.867-.14zm-26.918.27c-.223.222-.234.386-.234 3.808 0 3.399.011 3.586.234 3.809.34.34.691.386 2.156.328 1.008-.047 1.406-.117 1.781-.305.528-.27 1.172-.937 1.348-1.418.293-.761.059-2.074-.48-2.648-.2-.223-.211-.281-.047-.867.187-.75.093-1.336-.352-2.004-.504-.774-.996-.938-2.707-.938-1.312 0-1.488.024-1.7.235zm2.754 1.547c.164.07.293.175.293.222 0 .047.035.164.07.258.129.34-.375.668-1.008.668h-.586V7.383h.47c.245 0 .597.058.76.14zm.656 3.117c.34.293.352.879.012 1.23-.2.2-.434.258-1.078.293l-.82.047V10.43h.808c.61 0 .867.058 1.078.21zm6.41-4.512c-1.101.316-2.05 1.148-2.59 2.285-.293.633-.351.89-.351 1.664 0 .774.058 1.031.363 1.676a4.162 4.162 0 001.992 2.039c.586.281.809.328 1.723.328 1.277 0 1.863-.234 2.766-1.078.878-.82 1.195-1.512 1.253-2.73.036-.833 0-1.114-.222-1.7-.328-.89-1.195-1.828-2.074-2.238-.774-.363-2.04-.469-2.86-.246zm2.133 1.863c.738.387 1.195 1.008 1.266 1.723.082.844-.059 1.37-.48 1.851-.927 1.043-2.403 1.125-3.4.176-.503-.48-.702-.949-.702-1.664s.199-1.183.703-1.664c.738-.703 1.734-.867 2.613-.422zm7.441-1.864c-.855.293-1.43.657-1.968 1.254-1.406 1.559-1.383 3.88.047 5.45 2.238 2.437 6.187 1.394 6.984-1.852.586-2.437-1.195-4.805-3.75-4.957-.515-.023-1.02.012-1.312.105zm2.122 1.899c1.594.797 1.734 2.977.258 3.996-1.512 1.055-3.61-.082-3.61-1.945 0-1.77 1.758-2.848 3.352-2.051zm-15.071 7.078a3.718 3.718 0 00-2.25 1.946l-.328.703v3.562c0 3.34-.012 3.551-.2 3.469-.562-.234-1.288-.41-1.675-.41-.68 0-1.582.328-2.18.773l-.539.422-.316-.293c-1.184-1.113-3.164-1.172-4.523-.129l-.551.422-.317-.293c-.644-.598-1.289-.844-2.297-.844-1.523 0-2.554.633-3.222 1.957l-.352.715v4.207c0 4.043.012 4.207.235 4.43.316.316.949.305 1.242-.012.21-.234.222-.527.281-4.383.059-3.937.07-4.16.293-4.464a1.774 1.774 0 011.617-.715c.645.058 1.09.34 1.43.914.21.363.234.668.293 3.363.058 2.766.07 2.988.281 3.14.328.235.809.2 1.137-.058.281-.223.281-.246.34-3.27.058-2.835.07-3.081.293-3.374a1.774 1.774 0 011.617-.715c.644.058 1.09.34 1.43.914.21.363.234.668.293 3.363.058 2.766.07 2.988.28 3.14.329.235.81.2 1.137-.058.282-.223.282-.246.34-3.27.059-2.835.07-3.081.293-3.374a1.774 1.774 0 011.617-.715c.645.058 1.09.34 1.43.914.211.363.235.668.293 3.363.059 2.766.07 2.988.281 3.14.34.247.938.212 1.196-.081.21-.235.222-.586.28-7.957.06-7.524.06-7.723.294-8.04a1.774 1.774 0 011.617-.714c.703.058 1.113.351 1.465 1.02l.258.515v9.703c0 9.55 0 9.703.234 9.938a.937.937 0 00.586.234c.398 0 .363.023 3.281-2.695 2.32-2.168 2.39-2.227 2.93-2.227.586 0 1.137.445 1.242.996.059.352-.152.82-1.781 4.02-1.793 3.492-1.84 3.633-1.7 3.972.083.211.294.422.481.504.692.293.82.117 2.766-3.633.984-1.898 1.851-3.703 1.922-4.02.316-1.288-.434-2.788-1.7-3.374-.62-.293-1.828-.293-2.46 0-.258.117-1.266.96-2.25 1.875l-1.782 1.664-.035-8.766c-.035-8.672-.035-8.765-.281-9.304-.61-1.313-1.77-2.11-3.152-2.168-.446-.024-.95 0-1.114.058zm20.907 8.333c-1.336.902-1.688 1.265-1.688 1.699 0 .445.434.879.867.879.246 0 1.594-.914 2.215-1.5.41-.387.422-.868.023-1.254-.386-.399-.62-.375-1.417.175zm8.801-.176c-.293.281-.387.797-.2 1.066.188.293 2.203 1.688 2.438 1.688.434 0 .867-.434.867-.88 0-.433-.352-.796-1.687-1.698-.797-.551-1.032-.575-1.418-.176zM47.46 24.61c-.21.21-.233.386-.233 1.699 0 1.312.023 1.488.234 1.699a.938.938 0 00.586.234c.2 0 .457-.105.586-.234.21-.211.234-.387.234-1.7 0-1.347-.023-1.476-.258-1.699-.328-.304-.843-.304-1.148 0zM3.586 38.215l-.305.234v5.977c0 6.762-.07 6.246 1.031 8.098l.598 1.02.035 2.94c.035 2.942.035 2.954.317 3.176.375.305.855.282 1.16-.046.246-.27.258-.352.258-3.399v-3.117l-.786-1.324-.796-1.325-.059-5.953-.059-5.965-.328-.28c-.398-.34-.656-.352-1.066-.036zm24.691 6.375c-.14.094-.633.902-1.09 1.781-.468.89-.925 1.723-1.03 1.84a277.05 277.05 0 01-2.837 2.684c-1.453 1.347-2.754 2.578-2.894 2.742-.27.281-.27.34-.27 3.035v2.754l.293.281c.153.164.422.293.586.293.164 0 .434-.129.586-.293.293-.281.293-.293.293-2.684v-2.39l2.613-2.426c1.43-1.336 2.778-2.637 3-2.906.211-.27.774-1.266 1.254-2.227.762-1.523.844-1.758.739-2.062-.106-.305-.516-.598-.844-.598-.082 0-.258.082-.399.176z"/></g><defs><clipPath id="clip0_262_3831"><path fill="#fff" d="M0 0h60v60H0z"/></clipPath></defs></svg>