<svg width="26" height="26" fill="none" xmlns="http://www.w3.org/2000/svg"><path d="M25.337 5.471a.708.708 0 00-.544-.254H5.57l-.61-3.361A1.65 1.65 0 003.336.5H1.208a.708.708 0 100 1.415H3.33a.236.236 0 01.236.193l3.008 16.544a2.59 2.59 0 00.736 1.388 3.066 3.066 0 104.498.742h6.158a3.065 3.065 0 102.581-1.415H9.13a1.18 1.18 0 01-1.16-.968l-.425-2.334h13.959a2.594 2.594 0 002.553-2.13L25.49 6.05a.707.707 0 00-.152-.579zm-14.46 16.962a1.651 1.651 0 11-3.301 0 1.651 1.651 0 013.301 0zm11.321 0a1.651 1.651 0 11-3.302 0 1.651 1.651 0 013.302 0zm.465-8.751a1.18 1.18 0 01-1.16.968H7.287L5.829 6.632h18.116l-1.282 7.05z" fill="#333"/></svg>