<svg width="22" height="17" fill="none" xmlns="http://www.w3.org/2000/svg"><path d="M14.794 10.065l-3.869-3.869a.938.938 0 01-.228-.35 1.217 1.217 0 010-.805.955.955 0 01.228-.35l3.87-3.869c.214-.215.465-.322.752-.322.286 0 .537.107.752.322.215.215.322.47.322.767 0 .296-.107.55-.322.765l-2.015 2.015h6.636c.305 0 .56.103.766.31.207.206.31.461.309.765 0 .304-.103.56-.31.766-.206.207-.461.31-.765.309h-6.636l2.015 2.015c.215.215.322.465.322.752s-.107.537-.322.752a1.123 1.123 0 01-.739.35c-.277.018-.532-.09-.766-.323zm-8.598 6.422c.215.215.466.327.753.336a.982.982 0 00.752-.31l3.869-3.868a.938.938 0 00.228-.35 1.217 1.217 0 000-.806.955.955 0 00-.228-.349L7.7 7.27a1.031 1.031 0 00-.752-.321 1.03 1.03 0 00-.752.322c-.215.215-.322.47-.322.766 0 .296.107.551.322.765l2.015 2.016H1.575c-.305 0-.56.103-.767.31-.206.206-.309.46-.308.764 0 .305.103.56.31.767.206.206.461.309.765.308H8.21l-2.015 2.015a1.031 1.031 0 00-.322.753c0 .286.107.537.322.752z" fill="#333"/></svg>