<svg width="42" height="38" fill="none" xmlns="http://www.w3.org/2000/svg"><mask id="a" style="mask-type:luminance" maskUnits="userSpaceOnUse" x="0" y="0" width="42" height="38"><path d="M10 37h22l6-21-10 5-7-14-7 14-10-5 6 21z" fill="#fff" stroke="#fff" stroke-width="2" stroke-linecap="round" stroke-linejoin="round"/><path d="M4 16a3 3 0 100-6 3 3 0 000 6zm17-9a3 3 0 100-6 3 3 0 000 6zm17 9a3 3 0 100-6 3 3 0 000 6z" fill="#fff" stroke="#fff" stroke-width="2"/></mask><g mask="url(#a)"><path d="M-3-5h48v48H-3V-5z" fill="#FFC701"/></g></svg>