<svg width="60" height="60" fill="none" xmlns="http://www.w3.org/2000/svg"><path d="M6.047.13c-1.64.386-2.977 1.78-3.34 3.48-.164.773-.176 8.754-.012 9.61a4.473 4.473 0 002.438 3.21l.785.387 4.805.035c3.27.023 5.004 0 5.414-.094 1.289-.281 2.566-1.43 3.105-2.789.246-.633.258-.867.305-4.805.047-4.535-.035-5.695-.504-6.644-.398-.832-1.265-1.664-2.168-2.086-.703-.34-.879-.375-2.25-.41-1.793-.059-2.027-.012-2.273.457-.153.304-.153.422-.035.703.07.2.234.398.351.457.117.07.774.117 1.465.117 1.512 0 2.016.14 2.684.727.925.808.937.902.937 6.07v4.512l-.363.644c-.258.446-.54.75-.926.996l-.563.352-4.582.035c-3.222.024-4.722 0-5.05-.094-.645-.187-1.172-.609-1.547-1.265l-.328-.551-.035-4.43c-.047-5.015 0-5.332.738-6.094.703-.726.996-.82 2.707-.89 1.3-.059 1.582-.106 1.793-.293.363-.328.328-.926-.059-1.23C9.258.023 9.07 0 7.863.011c-.75.012-1.558.059-1.816.117zm18.656.093C24.34.34 23.86.55 23.637.69c-.61.375-1.36 1.243-1.7 1.98l-.316.669v10.195l.328.715c.422.902 1.324 1.805 2.25 2.238l.703.328h10.196l.703-.328c.926-.433 1.828-1.336 2.25-2.238l.328-.715V3.34l-.316-.668c-.364-.785-1.126-1.64-1.817-2.05C35.25.034 34.863 0 29.941.011c-4.078 0-4.64.023-5.238.21zm10.336 1.78c.703.317 1.031.634 1.36 1.337.28.586.28.61.28 5.039 0 2.578-.046 4.629-.117 4.875-.152.562-.878 1.383-1.453 1.64-.445.2-.867.223-5.109.223s-4.664-.023-5.11-.223c-.574-.257-1.3-1.078-1.453-1.64-.07-.246-.117-2.285-.117-4.875 0-4.23.012-4.477.246-4.98.317-.704.633-1.032 1.336-1.36.586-.281.598-.281 5.098-.281 4.29 0 4.535.012 5.04.246zM43.91.13c-1.16.269-2.425 1.288-2.953 2.39-.164.316-.34.95-.41 1.406-.14.996-.152 7.899-.012 8.989.211 1.57 1.125 2.87 2.532 3.562.668.316.797.34 2.402.375 1.547.035 1.734.023 1.98-.188.375-.292.387-.878.024-1.23-.223-.234-.41-.258-1.817-.316-1.476-.059-1.582-.082-2.12-.41-.387-.247-.669-.551-.926-.997l-.364-.644V8.438c0-4.559 0-4.64.258-5.11.34-.644 1.09-1.277 1.711-1.44.352-.106 1.816-.13 5.004-.106 5.027.035 4.84.011 5.684.879.738.761.785 1.078.738 6.093l-.035 4.43-.328.55c-.633 1.09-1.313 1.384-3.188 1.384-1.148 0-1.36.035-1.629.246-.387.304-.422.925-.058 1.289.234.234.351.246 1.968.199 1.664-.035 1.735-.047 2.496-.422a4.473 4.473 0 002.438-3.21c.164-.845.152-8.837-.012-9.61-.258-1.207-.914-2.168-1.91-2.836C54.27.036 53.93 0 48.867.012c-2.484.012-4.71.059-4.957.117z" fill="#333"/><path d="M11.754 7.406l-1.559 1.547-.68-.668c-.538-.539-.75-.668-1.054-.668-.492 0-.844.352-.844.856 0 .328.153.539 1.09 1.464 1.559 1.547 1.406 1.582 3.867-.89 1.664-1.676 1.957-2.028 1.957-2.32 0-.446-.422-.868-.879-.868-.27 0-.62.293-1.898 1.547zM24.105 19.16c-.68.258-1.289.797-1.675 1.488l-.34.622-.035 6.105-.036 6.105-.433-.152c-1.512-.539-3.235.188-3.973 1.688-.328.668-.328.68-.328 3.047s0 2.39.281 2.613c.328.258.809.293 1.137.058.2-.152.223-.363.281-2.437.07-2.484.14-2.754.762-3.14.48-.305 1.066-.294 1.559 0 .668.41.726.714.726 3.96 0 2.508-.023 2.942-.187 3.082-.54.446-.61 1.23-.13 1.57.364.258.774.212 1.22-.128.855-.657.785.27.855-11.508l.058-10.594.434-.398c.363-.328.527-.399.973-.399.445 0 .61.07.972.399l.434.398.059 9.375c.058 9.012.07 9.387.28 9.621.294.317.927.328 1.243.012.223-.223.234-.387.234-5.367 0-4.64.024-5.157.211-5.52.598-1.183 2.028-1.183 2.625 0 .188.363.211.88.211 5.52 0 4.98.012 5.144.235 5.367.316.316.949.305 1.242-.012.21-.234.222-.527.281-4.37.047-3.036.094-4.184.211-4.372.211-.363.738-.621 1.313-.621.375 0 .562.082.914.398l.433.399.059 4.16c.058 3.879.07 4.172.281 4.406.305.34.89.328 1.219-.023.246-.27.258-.364.258-3.035 0-2.672.011-2.766.27-3.153.644-.949 1.91-.926 2.495.059.211.34.223.715.223 7.687v7.325l-.574 2.285c-.551 2.203-.563 2.355-.633 4.418l-.059 2.144H22.617V56.66c0-1.687-.129-2.543-.492-3.258-.117-.246-.785-1.195-1.465-2.109-.68-.914-1.324-1.852-1.43-2.074-.14-.317-.187-.985-.222-2.953-.047-2.32-.07-2.555-.27-2.743-.316-.28-.879-.257-1.195.059-.246.234-.258.375-.293 2.191-.047 2.297.094 3.575.492 4.371.164.317.867 1.337 1.547 2.25.762 1.02 1.324 1.887 1.418 2.204.105.351.152 1.218.152 2.718v2.203l.305.235c.316.246.375.246 10.066.246h9.75l.235-.258c.222-.258.246-.445.304-2.965.059-2.672.059-2.707.54-4.629.304-1.183.538-2.449.609-3.28.07-.798.105-4.032.082-7.852-.035-5.965-.059-6.551-.258-7.067-.281-.75-1.183-1.64-1.898-1.886-.692-.235-1.676-.247-2.215-.024l-.41.176-.118-.457c-.187-.703-.82-1.535-1.453-1.934-.48-.293-.726-.363-1.476-.387-.621-.035-1.02.012-1.325.141-.375.152-.433.152-.433 0 0-.351-.586-1.3-1.055-1.734-.972-.88-2.168-1.078-3.433-.586-.188.07-.2-.164-.2-2.848v-2.93l-.363-.738a3.315 3.315 0 00-1.781-1.605c-.516-.188-1.688-.176-2.227.023z" fill="#333"/></svg>