<svg width="32" height="32" fill="none" xmlns="http://www.w3.org/2000/svg"><path d="M29.288 8.725a2.937 2.937 0 00-1.813-2.038C23.2 5.037 16.375 5.05 16 5.05S8.8 5.037 4.525 6.687a2.938 2.938 0 00-1.813 2.038C2.387 9.962 2 12.238 2 16c0 3.762.388 6.038.712 7.275a2.938 2.938 0 001.813 2.038c4.1 1.587 10.525 1.637 11.387 1.637h.175c.863 0 7.288-.05 11.388-1.637a2.938 2.938 0 001.813-2.038C29.613 22.038 30 19.763 30 16c0-3.762-.387-6.038-.712-7.275zm-9.013 7.688l-6 4A.45.45 0 0114 20.5a.562.562 0 01-.238-.063A.489.489 0 0113.5 20v-8a.488.488 0 01.262-.438.5.5 0 01.513.026l6 4a.488.488 0 010 .825z" fill="#fff"/></svg>