<svg width="32" height="32" fill="none" xmlns="http://www.w3.org/2000/svg"><path d="M26.177 4H5.823c-.736 0-1.442.27-1.962.753a2.48 2.48 0 00-.813 1.818V25.43c0 .682.292 1.336.813 1.818A2.89 2.89 0 005.823 28h7.936v-8.16h-3.643V16h3.643v-2.927c0-3.33 2.14-5.169 5.417-5.169 1.569 0 3.21.26 3.21.26v3.267h-1.808c-1.782 0-2.337 1.025-2.337 2.075V16h3.977l-.636 3.84H18.24V28h7.936a2.89 2.89 0 001.963-.753 2.48 2.48 0 00.812-1.818V6.57a2.48 2.48 0 00-.813-1.818A2.891 2.891 0 0026.178 4z" fill="#fff"/></svg>