<svg width="26" height="24" fill="none" xmlns="http://www.w3.org/2000/svg"><path d="M23.177 0H2.823C2.087 0 1.381.27.861.753a2.48 2.48 0 00-.813 1.818V21.43c0 .682.292 1.336.813 1.818A2.89 2.89 0 002.823 24h7.937v-8.16H7.117V12h3.643V9.073c0-3.33 2.139-5.169 5.416-5.169 1.57 0 3.21.26 3.21.26V7.43h-1.808c-1.781 0-2.337 1.025-2.337 2.075V12h3.977l-.636 3.84H15.24V24h7.936a2.89 2.89 0 001.963-.753 2.48 2.48 0 00.813-1.818V2.57A2.48 2.48 0 0025.14.753 2.891 2.891 0 0023.177 0z" fill="#A3A3A3"/></svg>