<svg width="28" height="24" fill="none" xmlns="http://www.w3.org/2000/svg"><path d="M14 23.275a1.45 1.45 0 01-1.062-.437L2.55 12.45a7 7 0 01.275-10.162A6.75 6.75 0 017.838.6a7.537 7.537 0 014.875 2.213L14 4.1l1.55-1.55a7 7 0 0110.163.275A6.75 6.75 0 0127.4 7.838a7.537 7.537 0 01-2.212 4.875L15.063 22.838a1.525 1.525 0 01-1.063.437zM7.375 1.588a5.737 5.737 0 00-3.887 1.45 5.987 5.987 0 00-.225 8.7l10.387 10.4a.5.5 0 00.7 0L24.488 12c2.362-2.362 2.575-6.175.475-8.512a5.988 5.988 0 00-8.7-.225l-1.913 1.9a.486.486 0 01-.7 0L12 3.513a6.575 6.575 0 00-4.625-1.925z" fill="#333"/></svg>