<svg width="24" height="24" fill="none" xmlns="http://www.w3.org/2000/svg"><path d="M21.333 0A2.667 2.667 0 0124 2.667v18.666A2.667 2.667 0 0121.333 24H2.667A2.667 2.667 0 010 21.333V2.667A2.667 2.667 0 012.667 0h18.666zm-.666 20.667V13.6a4.347 4.347 0 00-4.347-4.347c-1.133 0-2.453.694-3.093 1.734v-1.48h-3.72v11.16h3.72v-6.574a1.86 1.86 0 011.853-1.866 1.866 1.866 0 011.867 1.866v6.574h3.72zM5.173 7.413a2.24 2.24 0 002.24-2.24c0-1.24-1-2.253-2.24-2.253A2.253 2.253 0 002.92 5.173c0 1.24 1.013 2.24 2.253 2.24zm1.854 13.254V9.507H3.333v11.16h3.694z" fill="#A3A3A3"/></svg>