<svg width="20" height="18" fill="none" xmlns="http://www.w3.org/2000/svg"><path d="M1.977.84c-.075.074-.153.344-.41 1.398C1.143 3.957.972 4.734.948 5.066c-.062.887.52 1.864 1.356 2.274.351.172.8.285 1.132.285.489 0 1.09-.203 1.497-.5.21-.156.523-.496.609-.664.023-.047.059-.086.078-.086.016 0 .086.086.156.195.285.442.946.875 1.512.996a2.47 2.47 0 002.266-.664c.152-.156.308-.336.343-.402.036-.07.079-.125.098-.125.016 0 .086.086.156.195.286.442.946.875 1.512.996a2.47 2.47 0 002.266-.664c.152-.156.308-.336.343-.402.079-.152.122-.156.196-.02.156.31.668.743 1.09.926.257.117.73.219 1.004.219.495 0 1.144-.227 1.542-.535.637-.496 1.047-1.45.926-2.156-.117-.688-1.195-4-1.34-4.118C17.613.754 17.18.75 9.836.75h-7.77l-.09.09zm15.414.855l.105.305H2.273l.079-.313.078-.312 7.43.008 7.425.012.106.3zm.52 1.555c.112.332.276.902.37 1.266.164.625.168.668.13.906-.184 1.07-1.263 1.789-2.29 1.52-.812-.212-1.433-.977-1.433-1.77 0-.125-.024-.192-.098-.262-.211-.215-.527-.058-.527.262 0 .418-.208.906-.536 1.246-.714.75-1.87.773-2.632.047-.344-.328-.582-.856-.582-1.293 0-.125-.024-.192-.098-.262-.211-.215-.528-.058-.528.262 0 .437-.238.965-.582 1.293-.761.726-1.918.703-2.632-.047-.329-.34-.536-.828-.536-1.246 0-.125-.023-.192-.097-.262-.211-.215-.528-.058-.528.262 0 .418-.207.906-.535 1.246-.715.75-1.87.773-2.633.047-.34-.32-.582-.856-.582-1.274 0-.183.13-.808.372-1.816l.183-.75 7.797.008 7.797.012.2.605zM1.969 8.348l-.094.097.008 4.149.012 4.152.125.262c.171.363.39.59.746.765l.296.145h13.876l.296-.145c.356-.175.575-.402.746-.765l.125-.262.012-4.152.008-4.149-.094-.097c-.129-.13-.308-.13-.433 0l-.098.093v4.032c0 3.05-.012 4.07-.047 4.191-.062.215-.387.54-.601.602-.235.066-13.47.066-13.704 0-.214-.063-.539-.387-.601-.602-.035-.121-.047-1.14-.047-4.191V8.44l-.098-.093c-.125-.13-.304-.13-.433 0z" fill="#7C7C7C"/><path d="M4.156 8.348l-.097.097.011 2.274.012 2.277.125.262c.172.363.39.59.746.765l.297.145h9.5l.297-.145a1.5 1.5 0 00.746-.765l.125-.262.012-2.277.011-2.274-.097-.097c-.13-.13-.309-.13-.434 0l-.098.093v2.157c0 1.578-.011 2.199-.046 2.316-.063.215-.387.54-.602.602-.234.066-9.094.066-9.328 0-.215-.063-.54-.387-.602-.602-.035-.117-.046-.738-.046-2.316V8.44l-.098-.093c-.125-.13-.305-.13-.434 0z" fill="#7C7C7C"/></svg>