<svg width="16" height="15" fill="none" xmlns="http://www.w3.org/2000/svg"><path d="M8.786 14.942H7.214a1.99 1.99 0 01-1.988-1.989V10.25l-2.68.024A1.992 1.992 0 01.559 8.286V6.714a1.992 1.992 0 011.989-1.989H5.25l-.024-2.678A1.99 1.99 0 017.214.058h1.572a1.99 1.99 0 011.988 1.989V4.75l2.68-.025a1.992 1.992 0 011.989 1.99v1.57a1.992 1.992 0 01-1.99 1.99H10.75l.023 2.678a1.99 1.99 0 01-1.987 1.989zm-6.24-9.384a1.157 1.157 0 00-1.155 1.156v1.572A1.157 1.157 0 002.547 9.44H5.25a.81.81 0 01.81.809v2.703a1.157 1.157 0 001.155 1.155h1.572a1.157 1.157 0 001.155-1.155V10.25a.81.81 0 01.81-.81h2.702a1.156 1.156 0 001.156-1.154V6.714a1.157 1.157 0 00-1.156-1.156H10.75a.81.81 0 01-.81-.808V2.047A1.157 1.157 0 008.786.892H7.214A1.157 1.157 0 006.06 2.047V4.75a.81.81 0 01-.81.808H2.547z" fill="#7C7C7C"/></svg>