<svg xmlns="http://www.w3.org/2000/svg" width="39" height="38" fill="none"><path d="M15.507 6.556c-6.44 0-11.667 4.184-11.667 9.333 0 2.94 1.68 5.538 4.324 7.249l-1.213 3.64 3.889-2.334c1.384.483 2.909.778 4.527.778a8.12 8.12 0 01-.638-3.11c0-5.15 4.869-9.334 10.889-9.334.295 0 .59 0 .87.046-1.586-3.64-5.88-6.268-10.981-6.268zm-4.667 3.888a1.556 1.556 0 110 3.112 1.556 1.556 0 010-3.112zm7.778 0a1.556 1.556 0 110 3.112 1.556 1.556 0 010-3.112zm7 3.89c-5.15 0-9.334 3.484-9.334 7.777s4.185 7.778 9.334 7.778a10.88 10.88 0 002.97-.389l3.252 1.944-.965-2.909c2.443-1.415 4.076-3.764 4.076-6.424 0-4.293-4.184-7.778-9.333-7.778zm-3.111 3.888a1.556 1.556 0 110 3.112 1.556 1.556 0 010-3.112zm6.222 0a1.556 1.556 0 110 3.112 1.556 1.556 0 010-3.112z" fill="#333"/></svg>