<svg width="28" height="22" fill="none" xmlns="http://www.w3.org/2000/svg"><path d="M27.288 3.725a2.937 2.937 0 00-1.813-2.038C21.2.037 14.375.05 14 .05S6.8.037 2.525 1.687A2.937 2.937 0 00.712 3.725C.389 4.962 0 7.237 0 11c0 3.762.388 6.037.713 7.275a2.937 2.937 0 001.812 2.037c4.1 1.588 10.525 1.638 11.387 1.638h.175c.863 0 7.288-.05 11.388-1.638a2.938 2.938 0 001.813-2.037C27.613 17.037 28 14.762 28 11c0-3.763-.387-6.038-.712-7.275zm-9.013 7.687l-6 4A.45.45 0 0112 15.5a.562.562 0 01-.238-.063A.488.488 0 0111.5 15V7a.488.488 0 01.262-.438.5.5 0 01.513.025l6 4a.488.488 0 010 .825z" fill="#A3A3A3"/></svg>