<svg width="80" height="81" fill="none" xmlns="http://www.w3.org/2000/svg"><g fill="#8F959A"><path d="M35.469 45.5c-.297.297-.313.516-.313 3.203v2.89h-2.89c-2.688 0-2.907.016-3.203.313-.297.297-.313.516-.313 4.438 0 3.828.016 4.14.297 4.484.297.36.375.375 3.203.422l2.906.047v2.797c0 2.5.032 2.812.297 3.14l.297.375h8.5l.297-.375c.266-.328.297-.64.297-3.14v-2.797l2.906-.047c2.828-.047 2.906-.063 3.203-.422.281-.344.297-.656.297-4.484 0-3.922-.016-4.14-.313-4.438-.296-.297-.515-.312-3.203-.312h-2.89v-2.89c0-2.688-.016-2.907-.313-3.204-.297-.297-.515-.313-4.531-.313s-4.234.016-4.531.313zm7.187 4.672c0 3.797-.265 3.516 3.5 3.578l2.907.047v5.296h-2.891c-3.797 0-3.516-.28-3.516 3.516V65.5h-5.312v-2.89c0-2.688-.016-2.907-.313-3.204-.297-.297-.515-.312-3.203-.312h-2.89v-5.297l2.906-.047c3.765-.063 3.5.219 3.5-3.578v-2.797h5.312v2.797z"/><path d="M17.578 4.328c-.39.375-.39.406-.39 3.203v2.813h-3.032c-2.75 0-3.062.031-3.39.297l-.375.296-.047 8.11-.047 8.125-.938.172c-2.593.484-4.671 2.25-5.656 4.843l-.344.891V73.86l.36.735c.484.984 1.594 1.937 2.578 2.234.687.203 4.953.234 33.703.234 28.75 0 33.016-.03 33.703-.234.984-.297 2.094-1.25 2.578-2.234l.36-.735V40.266l-.36-1.016c-.484-1.406-1.36-2.61-2.484-3.438l-.969-.703V19.906l-.016-15.203-.39-.375-.375-.39H17.953l-.375.39zm53.047 15.86V34.25h-4.688V10.985l-.406-.313-.422-.328H19.375V6.125h51.25v14.063zM63.75 23.39v10.86H41.734l-2.843-3.172c-1.563-1.734-3.016-3.312-3.22-3.515l-.374-.344H12.5V12.53h51.25v10.86zm-26.64 9c1.468 1.625 2.89 3.187 3.171 3.468l.516.5 14.953.078 14.953.079.719.359c1.172.578 1.953 1.36 2.516 2.5l.515 1.047v16.516c0 16.453 0 16.515-.328 16.953a2.735 2.735 0 01-.86.703c-.5.265-2.406.281-33.265.281-30.86 0-32.766-.016-33.266-.281a2.735 2.735 0 01-.859-.703c-.328-.438-.328-.47-.328-20.47V33.39l.36-.766c.702-1.531 1.655-2.453 3.046-2.922.75-.265 1.703-.281 13.156-.281h12.344l2.656 2.969z"/><path d="M17.5 16.281c-.423.422-.391 1.032.077 1.485l.375.39h15.063c14.422 0 15.094-.015 15.437-.281.438-.36.47-1.14.063-1.594-.281-.312-.453-.312-15.5-.312-15 0-15.203 0-15.516.312zm0 5.625c-.423.422-.391 1.032.077 1.485l.375.39h15.063c14.422 0 15.094-.015 15.437-.281.438-.36.47-1.14.063-1.594-.281-.312-.453-.312-15.5-.312-15 0-15.203 0-15.516.312z"/></g></svg>