<svg id="eVmbl4PO3N91" xmlns="http://www.w3.org/2000/svg" xmlns:xlink="http://www.w3.org/1999/xlink" viewBox="0 0 133 45" shape-rendering="geometricPrecision" text-rendering="geometricPrecision">
<style><![CDATA[
#eVmbl4PO3N98 {animation: eVmbl4PO3N98__m 7000ms linear infinite normal forwards}@keyframes eVmbl4PO3N98__m { 0% {d: path('M0,0L133,0L133,45L0,45C0,45,-0.6871,34.7096,0,25.4586C0.7891,14.834,0,0,0,0Z')} 7.142857% {d: path('M0,0L133,0L133,45L0,45C0,45,11.3129,33.751,12,24.5C12.7891,13.8754,0,0,0,0Z')} 14.285714% {d: path('M0,0L133,0L133,45L0,45C0,45,11.3129,33.751,12,24.5C12.7891,13.8754,0,0,0,0Z')} 21.428571% {d: path('M41.724301,0L133,0L133,45L0,45C0,45,32.998001,44.5099,29.703601,24.4175C27.717403,12.303767,41.732913,-0.025837,41.724301,0Z')} 28.571429% {d: path('M41.724301,0L133,0L133,45L0,45C0,45,32.998001,44.5099,29.703601,24.4175C27.717403,12.303767,41.732913,-0.025837,41.724301,0Z')} 35.714286% {d: path('M41.724301,0L133,0L133,45L0,45C0,45,54.589601,44.778187,54.589601,24.4175C54.589601,9.12257,41.732913,-0.025837,41.724301,0Z')} 42.857143% {d: path('M41.724301,0L133,0L133,45L0,45C0,45,54.589601,44.778187,54.589601,24.4175C54.589601,9.12257,41.732913,-0.025837,41.724301,0Z')} 50% {d: path('M85.943243,0.638225L133,0L133,45L62.227834,45.289894C62.227834,45.289894,79.618831,44.226792,76.123582,24.168357C73.248982,7.671687,85.951855,0.612388,85.943243,0.638225Z')} 57.142857% {d: path('M85.943243,0.638225L133,0L133,45L62.227834,45.289894C62.227834,45.289894,79.618831,44.226792,76.123582,24.168357C73.248982,7.671687,85.951855,0.612388,85.943243,0.638225Z')} 64.285714% {d: path('M100.379086,-0.694961L133,0L133,45L84.824164,44.823654C84.824164,44.823654,86.778088,30.043428,92.028549,24.192915C97.75931,17.80721,100.387698,-0.720798,100.379086,-0.694961Z')} 71.428571% {d: path('M100.379086,-0.694961L133,0L133,45L84.824164,44.823654C84.824164,44.823654,86.778088,30.043428,92.028549,24.192915C97.75931,17.80721,100.387698,-0.720798,100.379086,-0.694961Z')} 78.571429% {d: path('M123.831994,0.088934L133,0L133,45L99.032376,45.038243C99.032376,45.038243,118.70515,38.957567,115.009053,22.742432C113.102195,14.376861,123.840606,0.063097,123.831994,0.088934Z')} 85.714286% {d: path('M123.831994,0.088934L133,0L133,45L99.032376,45.038243C99.032376,45.038243,118.70515,38.957567,115.009053,22.742432C113.102195,14.376861,123.840606,0.063097,123.831994,0.088934Z')} 92.857143% {d: path('M123.831994,0.088934L133,0L133,45L132.831559,45.590591C132.831559,45.590591,141.055151,37.521889,137.359054,21.306754C135.452196,12.941183,123.840606,0.063097,123.831994,0.088934Z')} 100% {d: path('M123.831994,0.088934L133,0L133,45L132.831559,45.590591C132.831559,45.590591,141.055151,37.521889,137.359054,21.306754C135.452196,12.941183,123.840606,0.063097,123.831994,0.088934Z')}}
]]></style>
<g transform="translate(.000001 0)"><path d="M131.986,20.6177c.026-2.2007-.367-4.3862-1.16-6.4394-.732-1.8926-1.848-3.6138-3.276-5.05573s-3.138-2.57379-5.024-3.32465c-4.143-1.57105-8.717-1.57105-12.86,0-1.885.74705-3.595,1.87744-5.02,3.31958-1.415,1.4513-2.524,3.1724-3.26,5.0608-1.5466,4.1611-1.5466,8.7395,0,12.9006.13.3257.271.6431.417.9554-.931.9674-2.021,1.7682-3.2224,2.3675-1.1182.5873-2.3226.9931-3.5681,1.2023v-15.4142c-.0067-.4093-.1321-.8079-.3608-1.1474s-.551-.6053-.9279-.7653c-.3768-.1599-.7919-.2072-1.195-.1359s-.7769.2579-1.076.5374c-.1984.1968-.3533.4329-.4548.6932-.1015.2602-.1474.5389-.1346.818v18.1024c-.0084.2748.0396.5485.1409.804.1014.2556.2539.4878.4483.6822s.4266.3469.6822.4483.5292.1493.804.1409c.2793.0131.5581-.0328.8185-.1346.2604-.1019.4964-.2574.6927-.4565.23-.2346.3975-.5233.4869-.8395.9806-1.4284,2.3681-2.6037,4.1625-3.5261c1.2196-.645,2.5446-1.0685,3.9126-1.251c1.628,2.4111,3.951,4.2699,6.661,5.3295c4.142,1.5739,8.718,1.5739,12.86,0c.998-.4021,1.951-.9086,2.843-1.5112l1.657,1.6556c.178.2015.396.3629.641.4735s.51.1677.779.1677c.268,0,.534-.0572.779-.1677.244-.1106.463-.272.64-.4735.196-.1762.353-.392.46-.633.107-.2411.161-.502.16-.7657-.023-.5282-.244-1.0284-.62-1.4003l-1.528-1.5347c1.052-1.2553,1.892-2.673,2.489-4.1978.792-2.0689,1.183-4.2696,1.153-6.4847Zm-10.481,3.7998c-.18-.212-.402-.3844-.652-.5062-.251-.1219-.523-.1906-.802-.2017-.278-.0112-.555.0353-.814.1367-.26.1014-.495.2553-.692.4522-.196.1969-.35.4324-.452.6917-.101.2592-.147.5367-.136.8148.012.2781.08.5508.202.801s.295.4724.507.6526l3.847,3.8451c-1.668,1.0082-3.549,1.6108-5.492,1.7593-1.944.1484-3.894-.1614-5.696-.9046-1.418-.601-2.697-1.4862-3.76-2.601-1.064-1.1272-1.897-2.4517-2.453-3.8988-1.172-3.1186-1.172-6.5565,0-9.675.559-1.4481,1.395-2.7731,2.462-3.9006c1.057-1.1127,2.335-1.99276,3.751-2.58415c3.068-1.22684,6.491-1.22684,9.559,0c1.423.59191,2.71,1.46975,3.78,2.57915c1.076,1.1221,1.914,2.4507,2.463,3.9056c1.146,3.1248,1.146,6.5551,0,9.68-.403,1.0585-.958,2.0528-1.647,2.9519l-3.975-3.998Z" fill="#3ec4cd"/><path d="M83.6901,4.59544c-.2728-.00863-.5446.03728-.7995.13502s-.4877.24535-.6848.4342c-.1991.19629-.3546.4323-.4564.69266s-.1477.53926-.1346.81853v10.98465c-.9469-1.1665-2.1441-2.105-3.5029-2.7459-1.3589-.6409-2.8446-.9678-4.347-.9565-1.8822-.0274-3.7324.4879-5.3294,1.4844-1.5741.9919-2.8583,2.3821-3.7226,4.0298-.9101,1.6959-1.3646,3.6146-1.3634,5.756-.0545,2.7496.9109,5.4221,2.71,7.5022-.1758.5617-.4772,1.076-.8813,1.5039s-.9003.7583-1.4509.9661c-.5091-.2989-1.0888-.4565-1.6792-.4565-.5903,0-1.17.1576-1.6791.4565-.4011-.1877-.766-.4446-1.0779-.759-.3017-.2988-.5519-.6455-.7405-1.0259.0883-.1941.1281-.4067.1158-.6196-.0268-.4892-.2709-.9369-.7321-1.3433-.3441-.2951-.7879-.4477-1.2408-.4265-.4782.0148-.94.178-1.3215.4668-.6539.4644-1.3738.8277-2.1358,1.078-.8283.3025-1.7023.461-2.5841.4685-1.4352.0275-2.8523-.3234-4.1088-1.0176-.9833-.5472-1.8286-1.3118-2.4714-2.2354s-1.0662-1.9819-1.2377-3.0941h15.4662c.2461.0094.4917-.0302.7223-.1167s.4417-.2181.621-.387c.1727-.1647.3088-.3639.3996-.5846s.1343-.458.1276-.6965c0-2.1403-.3996-4.0321-1.1989-5.6754-.7622-1.5964-1.9706-2.9378-3.4791-3.8619-1.5179-.9347-3.3347-1.4027-5.4503-1.4038-2.1426,0-4.0411.4814-5.6956,1.4441-.4981.2915-.9716.6234-1.4155.9923-.615-.2731-1.1481-.7021-1.5463-1.2446s-.6477-1.1797-.7238-1.8483c.1933-.5334.2475-1.1073.1573-1.6674s-.3218-1.088-.6728-1.5338c-.351-.44568-.8099-.79454-1.3333-1.01355s-1.0939-.30094-1.6578-.23804-1.1023.26854-1.5646.5975-.8329.77039-1.0771,1.28249-.3537,1.078-.3182,1.6443c.0354.5662.2147,1.1141.5208,1.5917-.1888.5754-.5136,1.0967-.947,1.5196-.2945.2932-.6348.5365-1.0075.7204-.4265-.4312-.9101-.8018-1.4373-1.1015-1.2564-.6944-2.6736-1.0454-4.1088-1.0176-1.763,0-3.3302.3795-4.7015,1.1385-.938.5143-1.7658,1.2081-2.4363,2.0418-.5854-.893-1.3744-1.6342-2.3021-2.1627-1.257-.6944-2.6747-1.0453-4.1104-1.0176-1.4973-.0287-2.973.3603-4.26161,1.1234-.51661.3154-.99498.6895-1.42556,1.1149.00969-.2721-.03772-.5433-.13919-.7959-.10147-.2527-.25474-.4813-.44994-.6711s-.42801-.3367-.68341-.431-.52775-.1342-.79948-.1169c-.27283-.0087-.54465.0372-.79953.135-.25487.0977-.48768.2453-.68479.4342-.19891.1964-.35431.4324-.45613.6928s-.14779.5391-.13492.8184v18.1024c.0075.4113.13487.8116.36649,1.1516s.55742.605.93746.7626.7978.2008,1.20206.1245c.40427-.0764.77747-.269,1.07384-.5544.18908-.1969.33684-.4297.4346-.6846s.14353-.5268.13462-.7997v-11.4717c0-1.5179.46119-2.7654,1.38358-3.7427s2.08881-1.4653,3.49921-1.4642c1.3545,0,2.4527.4137,3.2944,1.2409s1.2622,2.095,1.2611,3.8032v11.6345c.0079.4113.1356.8114.3674,1.1513s.5578.6048.9378.7623c.3801.1575.7978.2008,1.2021.1246s.7776-.2688,1.0742-.5539c.1887-.1971.3363-.43.4341-.6848s.1436-.5267.1351-.7995v-11.4717c0-1.5179.4539-2.7654,1.3618-3.7427s2.0675-1.4653,3.4791-1.4642c1.3544,0,2.4526.4137,3.2944,1.2409.8417.8272,1.2621,2.095,1.261,3.8032v11.6345c.0075.4113.1348.8116.3665,1.1516s.5574.605.9374.7626.7978.2008,1.2021.1245c.4042-.0764.7774-.269,1.0738-.5544.1891-.1969.3369-.4297.4346-.6846.0978-.2549.1435-.5268.1346-.7997v-11.6345c0-1.8728-.3319-3.4663-.9957-4.7804-.1233-.2408-.2589-.4751-.4063-.7019.195-.4296.4676-.8196.8043-1.1502.4771-.4796,1.0754-.8209,1.7311-.9873.4057.1677.8405.2538,1.2795.2535.5257-.0001,1.0437-.1256,1.5112-.366.612.1541,1.1768.4559,1.6452.8789s.8259.9543,1.0414,1.5474c-.4807.5625-.9022,1.173-1.2577,1.8218-.9358,1.6959-1.4037,3.6549-1.4037,5.8769c0,2.1974.4948,4.1435,1.4843,5.8382.9771,1.6868,2.4021,3.07,4.1172,3.9963c1.7485.9638,3.7483,1.4452,5.9994,1.444c1.3374-.0155,2.6633-.2486,3.9258-.6901c1.0278-.3344,2.0055-.8066,2.9065-1.4037.7766.3779,1.4078,1.0003,1.7966,1.7715-.3257.4812-.5202,1.0392-.5641,1.6187s.0641,1.1604.3136,1.6852c.2495.5249.6316.9756,1.1087,1.3075s1.0325.5334,1.6114.5847s1.1611-.0494,1.6891-.2922c.5281-.2427.9836-.6191,1.3215-1.0919s.5465-1.0257.6052-1.6038-.0346-1.1617-.2706-1.6928c.1183-.6053.3799-1.1735.7629-1.6569s.8762-.8682,1.4384-1.122c2.0302,1.7178,4.6166,2.6371,7.2755,2.5858c1.9648.034,3.9024-.4616,5.6095-1.4349c1.7071-.9732,3.1207-2.388,4.0924-4.096c1.0035-1.7583,1.5167-3.7536,1.486-5.7778v-18.55917c.0167-.27681-.0256-.55401-.124-.81327s-.2508-.49468-.4469-.6907c-.1962-.19601-.4317-.34815-.6911-.44636-.2593-.09821-.5366-.14026-.8134-.12336h-.0067ZM46.0815,18.4699c1.0982-.6717,2.4202-1.0103,3.9661-1.0159c1.3545,0,2.5069.3118,3.4573.9353.9526.6289,1.7132,1.5086,2.1979,2.5421.3725.7904.6173,1.6349.7254,2.5019h-13.5437c.1309-.7557.3642-1.4901.6935-2.1828.5463-1.1506,1.4164-2.117,2.5035-2.7806ZM80.839,29.1288c-.5892,1.1306-1.475,2.0797-2.5623,2.7454-1.1213.6539-2.396.9984-3.694.9984s-2.5728-.3445-3.6941-.9984c-1.099-.6639-1.9983-1.6124-2.6026-2.7454-.6457-1.2004-.974-2.546-.9537-3.9089-.0256-1.3627.3036-2.7086.9554-3.9056.6142-1.1151,1.512-2.0483,2.6026-2.7051c1.1213-.6539,2.396-.9984,3.694-.9984c1.2981,0,2.5728.3445,3.6941.9984c1.0789.6585,1.9632,1.5921,2.5623,2.7051.6379,1.2013.9587,2.5456.9319,3.9056.021,1.3591-.2988,2.7018-.9302,3.9056l-.0034.0033Z" fill="#3ec4cd"/><path d="M95.1142,10.1268c-.5002.4315-1.1171.7049-1.7727.7856s-1.3205-.035-1.9103-.3324c-.5899-.2973-1.0783-.76298-1.4033-1.33803-.3251-.57505-.4722-1.23362-.4228-1.89234s.2931-1.28797.7003-1.80809.9596-.90775,1.5872-1.11378s1.3022-.22123,1.9385-.04366c.6362.17758,1.2055.53993,1.6357,1.0412.5756.67069.8618,1.54229.7957,2.42364s-.4791,1.70052-1.1483,2.27786Z" fill="#ff8201"/><g><g transform="translate(-.000001 0)" mask="url(#eVmbl4PO3N99)"><path id="eVmbl4PO3N98" d="M0,0h133v45L0,45c0,0-.6871-10.2904,0-19.5414C0.7891,14.834,0,0,0,0Z" fill="#d9d9d9"/><mask id="eVmbl4PO3N99" mask-type="alpha" x="-150%" y="-150%" height="400%" width="400%"><g transform="translate(.000001 0)"><path d="M95.1142,10.1268c-.5002.4315-1.1171.7049-1.7727.7856s-1.3205-.035-1.9103-.3324c-.5899-.2973-1.0783-.76298-1.4033-1.33803-.3251-.57505-.4722-1.23362-.4228-1.89234s.2931-1.28797.7003-1.80809.9596-.90775,1.5872-1.11378s1.3022-.22123,1.9385-.04366c.6362.17758,1.2055.53993,1.6357,1.0412.5756.67069.8618,1.54229.7957,2.42364s-.4791,1.70052-1.1483,2.27786Z" fill="#ff8201"/><path d="M83.6901,4.59544c-.2728-.00863-.5446.03728-.7995.13502s-.4877.24535-.6848.4342c-.1991.19629-.3546.4323-.4564.69266s-.1477.53926-.1346.81853v10.98465c-.9469-1.1665-2.1441-2.105-3.5029-2.7459-1.3589-.6409-2.8446-.9678-4.347-.9565-1.8822-.0274-3.7324.4879-5.3294,1.4844-1.5741.9919-2.8583,2.3821-3.7226,4.0298-.9101,1.6959-1.3646,3.6146-1.3634,5.756-.0545,2.7496.9109,5.4221,2.71,7.5022-.1758.5617-.4772,1.076-.8813,1.5039s-.9003.7583-1.4509.9661c-.5091-.2989-1.0888-.4565-1.6792-.4565-.5903,0-1.17.1576-1.6791.4565-.4011-.1877-.766-.4446-1.0779-.759-.3017-.2988-.5519-.6455-.7405-1.0259.0883-.1941.1281-.4067.1158-.6196-.0268-.4892-.2709-.9369-.7321-1.3433-.3441-.2951-.7879-.4477-1.2408-.4265-.4782.0148-.94.178-1.3215.4668-.6539.4644-1.3738.8277-2.1358,1.078-.8283.3025-1.7023.461-2.5841.4685-1.4352.0275-2.8523-.3234-4.1088-1.0176-.9833-.5472-1.8286-1.3118-2.4714-2.2354s-1.0662-1.9819-1.2377-3.0941h15.4662c.2461.0094.4917-.0302.7223-.1167s.4417-.2181.621-.387c.1727-.1647.3088-.3639.3996-.5846s.1343-.458.1276-.6965c0-2.1403-.3996-4.0321-1.1989-5.6754-.7622-1.5964-1.9706-2.9378-3.4791-3.8619-1.5179-.9347-3.3347-1.4027-5.4503-1.4038-2.1426,0-4.0411.4814-5.6956,1.4441-.4981.2915-.9716.6234-1.4155.9923-.615-.2731-1.1481-.7021-1.5463-1.2446s-.6477-1.1797-.7238-1.8483c.1933-.5334.2475-1.1073.1573-1.6674s-.3218-1.088-.6728-1.5338c-.351-.44568-.8099-.79454-1.3333-1.01355s-1.0939-.30094-1.6578-.23804-1.1023.26854-1.5646.5975-.8329.77039-1.0771,1.28249-.3537,1.078-.3182,1.6443c.0354.5662.2147,1.1141.5208,1.5917-.1888.5754-.5136,1.0967-.947,1.5196-.2945.2932-.6348.5365-1.0075.7204-.4265-.4312-.9101-.8018-1.4373-1.1015-1.2564-.6944-2.6736-1.0454-4.1088-1.0176-1.763,0-3.3302.3795-4.7015,1.1385-.938.5143-1.7658,1.2081-2.4363,2.0418-.5854-.893-1.3744-1.6342-2.3021-2.1627-1.257-.6944-2.6747-1.0453-4.1104-1.0176-1.4973-.0287-2.973.3603-4.26161,1.1234-.51661.3154-.99498.6895-1.42556,1.1149.00969-.2721-.03772-.5433-.13919-.7959-.10147-.2527-.25474-.4813-.44994-.6711s-.42801-.3367-.68341-.431-.52775-.1342-.79948-.1169c-.27283-.0087-.54465.0372-.79953.135-.25487.0977-.48768.2453-.68479.4342-.19891.1964-.35431.4324-.45613.6928s-.14779.5391-.13492.8184v18.1024c.0075.4113.13487.8116.36649,1.1516s.55742.605.93746.7626.7978.2008,1.20206.1245c.40427-.0764.77747-.269,1.07384-.5544.18908-.1969.33684-.4297.4346-.6846s.14353-.5268.13462-.7997v-11.4717c0-1.5179.46119-2.7654,1.38358-3.7427s2.08881-1.4653,3.49921-1.4642c1.3545,0,2.4527.4137,3.2944,1.2409s1.2622,2.095,1.2611,3.8032v11.6345c.0079.4113.1356.8114.3674,1.1513s.5578.6048.9378.7623c.3801.1575.7978.2008,1.2021.1246s.7776-.2688,1.0742-.5539c.1887-.1971.3363-.43.4341-.6848s.1436-.5267.1351-.7995v-11.4717c0-1.5179.4539-2.7654,1.3618-3.7427s2.0675-1.4653,3.4791-1.4642c1.3544,0,2.4526.4137,3.2944,1.2409.8417.8272,1.2621,2.095,1.261,3.8032v11.6345c.0075.4113.1348.8116.3665,1.1516s.5574.605.9374.7626.7978.2008,1.2021.1245c.4042-.0764.7774-.269,1.0738-.5544.1891-.1969.3369-.4297.4346-.6846.0978-.2549.1435-.5268.1346-.7997v-11.6345c0-1.8728-.3319-3.4663-.9957-4.7804-.1233-.2408-.2589-.4751-.4063-.7019.195-.4296.4676-.8196.8043-1.1502.4771-.4796,1.0754-.8209,1.7311-.9873.4057.1677.8405.2538,1.2795.2535.5257-.0001,1.0437-.1256,1.5112-.366.612.1541,1.1768.4559,1.6452.8789s.8259.9543,1.0414,1.5474c-.4807.5625-.9022,1.173-1.2577,1.8218-.9358,1.6959-1.4037,3.6549-1.4037,5.8769c0,2.1974.4948,4.1435,1.4843,5.8382.9771,1.6868,2.4021,3.07,4.1172,3.9963c1.7485.9638,3.7483,1.4452,5.9994,1.444c1.3374-.0155,2.6633-.2486,3.9258-.6901c1.0278-.3344,2.0055-.8066,2.9065-1.4037.7766.3779,1.4078,1.0003,1.7966,1.7715-.3257.4812-.5202,1.0392-.5641,1.6187s.0641,1.1604.3136,1.6852c.2495.5249.6316.9756,1.1087,1.3075s1.0325.5334,1.6114.5847s1.1611-.0494,1.6891-.2922c.5281-.2427.9836-.6191,1.3215-1.0919s.5465-1.0257.6052-1.6038-.0346-1.1617-.2706-1.6928c.1183-.6053.3799-1.1735.7629-1.6569s.8762-.8682,1.4384-1.122c2.0302,1.7178,4.6166,2.6371,7.2755,2.5858c1.9648.034,3.9024-.4616,5.6095-1.4349c1.7071-.9732,3.1207-2.388,4.0924-4.096c1.0035-1.7583,1.5167-3.7536,1.486-5.7778v-18.55917c.0167-.27681-.0256-.55401-.124-.81327s-.2508-.49468-.4469-.6907c-.1962-.19601-.4317-.34815-.6911-.44636-.2593-.09821-.5366-.14026-.8134-.12336h-.0067ZM46.0815,18.4699c1.0982-.6717,2.4202-1.0103,3.9661-1.0159c1.3545,0,2.5069.3118,3.4573.9353.9526.6289,1.7132,1.5086,2.1979,2.5421.3725.7904.6173,1.6349.7254,2.5019h-13.5437c.1309-.7557.3642-1.4901.6935-2.1828.5463-1.1506,1.4164-2.117,2.5035-2.7806ZM80.839,29.1288c-.5892,1.1306-1.475,2.0797-2.5623,2.7454-1.1213.6539-2.396.9984-3.694.9984s-2.5728-.3445-3.6941-.9984c-1.099-.6639-1.9983-1.6124-2.6026-2.7454-.6457-1.2004-.974-2.546-.9537-3.9089-.0256-1.3627.3036-2.7086.9554-3.9056.6142-1.1151,1.512-2.0483,2.6026-2.7051c1.1213-.6539,2.396-.9984,3.694-.9984c1.2981,0,2.5728.3445,3.6941.9984c1.0789.6585,1.9632,1.5921,2.5623,2.7051.6379,1.2013.9587,2.5456.9319,3.9056.021,1.3591-.2988,2.7018-.9302,3.9056l-.0034.0033Z" fill="#3ec4cd"/><path d="M131.986,20.6177c.026-2.2007-.367-4.3862-1.16-6.4394-.732-1.8926-1.848-3.6138-3.276-5.05573s-3.138-2.57379-5.024-3.32465c-4.143-1.57105-8.717-1.57105-12.86,0-1.885.74705-3.595,1.87744-5.02,3.31958-1.415,1.4513-2.524,3.1724-3.26,5.0608-1.5466,4.1611-1.5466,8.7395,0,12.9006.13.3257.271.6431.417.9554-.931.9674-2.021,1.7682-3.2224,2.3675-1.1182.5873-2.3226.9931-3.5681,1.2023v-15.4142c-.0067-.4093-.1321-.8079-.3608-1.1474s-.551-.6053-.9279-.7653c-.3768-.1599-.7919-.2072-1.195-.1359s-.7769.2579-1.076.5374c-.1984.1968-.3533.4329-.4548.6932-.1015.2602-.1474.5389-.1346.818v18.1024c-.0084.2748.0396.5485.1409.804.1014.2556.2539.4878.4483.6822s.4266.3469.6822.4483.5292.1493.804.1409c.2793.0131.5581-.0328.8185-.1346.2604-.1019.4964-.2574.6927-.4565.23-.2346.3975-.5233.4869-.8395.9806-1.4284,2.3681-2.6037,4.1625-3.5261c1.2196-.645,2.5446-1.0685,3.9126-1.251c1.628,2.4111,3.951,4.2699,6.661,5.3295c4.142,1.5739,8.718,1.5739,12.86,0c.998-.4021,1.951-.9086,2.843-1.5112l1.657,1.6556c.178.2015.396.3629.641.4735s.51.1677.779.1677c.268,0,.534-.0572.779-.1677.244-.1106.463-.272.64-.4735.196-.1762.353-.392.46-.633.107-.2411.161-.502.16-.7657-.023-.5282-.244-1.0284-.62-1.4003l-1.528-1.5347c1.052-1.2553,1.892-2.673,2.489-4.1978.792-2.0689,1.183-4.2696,1.153-6.4847Zm-10.481,3.7998c-.18-.212-.402-.3844-.652-.5062-.251-.1219-.523-.1906-.802-.2017-.278-.0112-.555.0353-.814.1367-.26.1014-.495.2553-.692.4522-.196.1969-.35.4324-.452.6917-.101.2592-.147.5367-.136.8148.012.2781.08.5508.202.801s.295.4724.507.6526l3.847,3.8451c-1.668,1.0082-3.549,1.6108-5.492,1.7593-1.944.1484-3.894-.1614-5.696-.9046-1.418-.601-2.697-1.4862-3.76-2.601-1.064-1.1272-1.897-2.4517-2.453-3.8988-1.172-3.1186-1.172-6.5565,0-9.675.559-1.4481,1.395-2.7731,2.462-3.9006c1.057-1.1127,2.335-1.99276,3.751-2.58415c3.068-1.22684,6.491-1.22684,9.559,0c1.423.59191,2.71,1.46975,3.78,2.57915c1.076,1.1221,1.914,2.4507,2.463,3.9056c1.146,3.1248,1.146,6.5551,0,9.68-.403,1.0585-.958,2.0528-1.647,2.9519l-3.975-3.998Z" fill="#3ec4cd"/></g></mask></g></g></g></svg>
