<svg width="20" height="21" fill="none" xmlns="http://www.w3.org/2000/svg"><path fill-rule="evenodd" clip-rule="evenodd" d="M10.674 6.871H9.292v2.36a2.379 2.379 0 01-1.35-.899 2.239 2.239 0 01-.424-1.182l-1.381.017a3.374 3.374 0 00.358 1.32c.146.291.334.561.555.803a3.729 3.729 0 002.225 1.17v1.08a3.835 3.835 0 00-.62.15 3.756 3.756 0 00-1.596 1.027 3.587 3.587 0 00-.69 1.104 3.472 3.472 0 00-.232 1.029l1.381.017a2.231 2.231 0 01.442-1.202 2.421 2.421 0 011.35-.896v2.36h1.381v-2.36a2.48 2.48 0 011.35.92 2.22 2.22 0 01.424 1.178l1.382-.017a3.467 3.467 0 00-.365-1.32 3.72 3.72 0 00-2.594-1.957 3.826 3.826 0 00-.18-.032v-1.098a3.826 3.826 0 00.586-.138 3.678 3.678 0 002.18-1.836 3.425 3.425 0 00.355-1.32l-1.382-.016a2.08 2.08 0 01-.13.631 2.232 2.232 0 01-.293.545c-.322.439-.8.766-1.35.905V6.871zm2.694 9.781a11.07 11.07 0 01-3.36.524 10.81 10.81 0 01-3.394-.54 7.27 7.27 0 01-1.028-.47 6.952 6.952 0 01-.855-.559C3.271 14.488 2.35 12.84 2.35 11c0-1.853.923-3.507 2.386-4.62.254-.194.524-.37.809-.53a7.163 7.163 0 011.07-.486 10.614 10.614 0 013.377-.54c1.149 0 2.29.182 3.376.54a7.042 7.042 0 011.862 1C16.71 7.478 17.65 9.14 17.65 11v.017c0 1.838-.93 3.495-2.394 4.613a6.9 6.9 0 01-.818.536 7.157 7.157 0 01-1.07.486zM9.992 3.5c1.295 0 2.581.206 3.807.61l.017.005.017.007C16.788 5.184 19 7.805 19 11v.017c0 3.176-2.21 5.815-5.167 6.878l-.023.008-.023.008a12.43 12.43 0 01-3.777.589h-.001c-1.36 0-2.65-.22-3.826-.61l-.02-.007-.02-.007C3.191 16.796 1 14.176 1 11c0-3.19 2.19-5.814 5.15-6.878l.013-.005.013-.005A11.991 11.991 0 019.992 3.5z" fill="#333"/></svg>