<svg width="20" height="21" fill="none" xmlns="http://www.w3.org/2000/svg"><g fill="#32A923" clip-path="url(#clip0_6078_62950)"><path d="M10.16.562c-.465.125-.484.14-3.234 2.883C4.59 5.769 4.3 6.05 4.28 5.965a71.463 71.463 0 01-.183-1.258c-.086-.641-.184-1.239-.215-1.329-.14-.394-.508-.8-.895-.98-.855-.406-1.902-.047-2.316.797-.188.379-.207.562-.164 1.418.02.414.039 1 .039 1.308v.563l-.137.164c-.074.09-.191.285-.262.437-.117.25-.125.297-.125.66.016 2.372.098 6.712.133 6.973.188 1.457.531 2.387 1.239 3.344.34.457 1.164 1.273 1.535 1.52a5.64 5.64 0 001.992.828c.469.097 1.488.097 1.973-.004a5.627 5.627 0 002.109-.914c.39-.278 6.473-6.328 6.66-6.63.344-.55.363-1.273.05-1.812-.14-.242-.386-.5-.585-.617l-.172-.098.57-.582c.493-.5.59-.62.715-.882.14-.297.145-.317.145-.754 0-.426-.008-.465-.125-.715a2.003 2.003 0 00-.707-.79l-.192-.112.102-.22c.09-.19.101-.261.101-.644 0-.406-.007-.445-.129-.699-.164-.352-.335-.559-.62-.75-.126-.082-.231-.152-.235-.152-.004 0 .035-.09.086-.196.41-.836.039-1.91-.8-2.316a1.77 1.77 0 00-1.481-.043 1.11 1.11 0 01-.18.066l-.105-.187c-.125-.219-.47-.55-.688-.66A1.863 1.863 0 0010.16.562zm.7 1.18a.6.6 0 01.257.78c-.098.18-7.285 7.337-7.305 7.274-.007-.03-.07-.453-.136-.937a29.713 29.713 0 00-.145-.973c-.015-.078-.008-.086.051-.062.121.047.356.07.465.043.066-.02 1.172-1.086 3.168-3.063 1.683-1.668 3.11-3.054 3.168-3.082a.54.54 0 01.476.02zm2.535.86c.246.179.335.476.222.714-.082.172-1.98 2.062-2.004 1.996-.058-.152-.383-.516-.574-.633a1.405 1.405 0 01-.219-.156c-.004-.059 1.914-1.918 2.032-1.973a.615.615 0 01.543.051zm-10.797.92a.548.548 0 01.175.25c.02.08.118.724.215 1.435.098.707.188 1.343.2 1.41.023.125.023.125-.2-.09a1.885 1.885 0 00-.992-.492l-.262-.043-.043-1.055c-.027-.68-.027-1.09-.004-1.156a.593.593 0 01.91-.258zm11.605 1.669c.281.262.281.629.008.883l-.094.09-.137-.207a2.237 2.237 0 00-.605-.56c-.066-.038-.066-.05-.016-.112.133-.16.286-.22.516-.203.172.007.25.035.328.109zm-3.848.437a.585.585 0 01.207.743c-.035.07-.656.722-1.382 1.453-.883.886-1.332 1.363-1.352 1.437a.617.617 0 00.27.672.665.665 0 00.558.004c.063-.031.88-.824 1.813-1.762.96-.965 1.754-1.73 1.824-1.761a.577.577 0 01.754.277c.09.184.098.277.035.437-.02.059-.82.891-1.773 1.848-1.715 1.719-1.856 1.879-1.856 2.117 0 .18.152.414.328.496.207.102.336.102.524.008.078-.043.715-.648 1.414-1.351.699-.7 1.316-1.301 1.375-1.332a.667.667 0 01.265-.055c.383 0 .637.312.567.695-.024.125-.215.332-1.367 1.492-.735.743-1.36 1.387-1.383 1.434a.838.838 0 00-.043.285c0 .176.015.215.148.356.16.171.328.222.582.171.125-.023.285-.16 1.106-.976 1.066-1.059 1.086-1.07 1.426-.938.293.11.437.426.335.73-.066.196-6.168 6.278-6.554 6.532a4.138 4.138 0 01-4.45.059c-.425-.262-1.105-.926-1.453-1.422a5.011 5.011 0 01-.867-2.11c-.125-.73-.156-1.445-.156-3.613 0-1.148-.02-2.5-.04-3-.042-.906-.038-.914.048-1.066.11-.192.363-.328.562-.297.172.027.38.156.438.27.027.05.168.937.316 1.976.188 1.316.29 1.914.336 1.984.149.227.516.32.754.196.059-.032 1.406-1.36 2.996-2.953 1.59-1.594 2.961-2.95 3.043-3.012a.564.564 0 01.652-.024zm4.567 1.977a.56.56 0 01.312.5c0 .195-.043.293-.187.45l-.098.105-.105-.168c-.133-.211-.45-.512-.594-.575-.137-.054-.137-.074 0-.203.2-.191.445-.234.672-.109zM17.949.563c-.172.09-1.34 1.257-1.43 1.43a.542.542 0 00.004.538c.09.176.313.313.508.313a.761.761 0 00.265-.074c.176-.094 1.344-1.266 1.43-1.438.238-.477-.305-1.016-.777-.77zm.016 3.617c-.168.093-.309.324-.309.496 0 .199.137.422.313.511.136.07.23.079.86.079.82 0 .952-.04 1.093-.313a.534.534 0 00-.008-.555c-.156-.273-.27-.304-1.094-.304-.656 0-.726.008-.855.086z"/></g><defs><clipPath id="clip0_6078_62950"><path fill="#fff" transform="translate(0 .5)" d="M0 0h20v20H0z"/></clipPath></defs></svg>