<svg width="60" height="60" fill="none" xmlns="http://www.w3.org/2000/svg"><g clip-path="url(#clip0_814_8584)" fill="#fff"><path d="M16.523.117C4.898 1.22-2.46 7.57.773 13.711c1.875 3.574 7.032 6.281 13.875 7.277 2.38.352 7.055.387 9.434.07 9.035-1.206 15.117-5.59 14.79-10.628-.318-4.922-6.189-8.93-14.85-10.15-1.5-.21-5.976-.304-7.5-.164zM0 20.25c0 2.004.164 2.86.773 4.008 2.192 4.183 8.989 7.183 17.133 7.57l1.653.082.457-.984c.879-1.91 2.132-3.774 3.703-5.543.68-.762.773-.914.539-.856-.762.188-4.102.34-5.977.282-7.125-.258-13.148-2.157-17.25-5.461L0 18.528v1.722zm38.52 1.207c-6.563.762-12.329 4.828-15.211 10.71A19.475 19.475 0 0022.03 45.81c2.473 9.011 11.274 15.035 20.567 14.074 8.648-.88 15.515-7.29 17.133-15.973.269-1.5.269-4.992 0-6.492-1.102-5.871-4.477-10.664-9.61-13.605-3.352-1.91-7.746-2.813-11.602-2.356zm3.902 8.813v1.921l.61.282c1.5.691 2.894 2.8 2.906 4.347v.328H44.18c-1.5 0-1.758-.023-1.758-.175 0-.106-.106-.399-.234-.645-.27-.527-.938-.937-1.524-.937-.89 0-1.758.867-1.758 1.757 0 .891.89 1.758 1.793 1.758 1.313 0 2.672.586 3.657 1.57 2.109 2.122 2.085 5.368-.047 7.454-.364.351-.938.773-1.278.925l-.61.282v3.832h-3.514v-3.832l-.61-.282c-1.5-.691-2.894-2.8-2.905-4.359v-.316h1.757c1.5 0 1.758.023 1.758.175 0 .106.106.399.235.645.27.527.937.938 1.523.938.89 0 1.758-.868 1.758-1.758 0-.914-.867-1.758-1.805-1.758-1.289 0-2.648-.598-3.644-1.582-2.11-2.086-2.098-5.356.047-7.442.363-.351.937-.773 1.277-.925l.61-.282V28.36h3.513v1.91zM0 30.785c0 2.027.164 2.871.785 4.043.527.996 1.781 2.367 3.024 3.293 1.09.809 3.492 2.016 5.168 2.59 2.273.773 5.226 1.36 7.78 1.547l1.114.07.012-2.027c.012-1.512.082-2.403.27-3.434.14-.773.222-1.418.187-1.453-.035-.035-.738-.105-1.559-.164-6.457-.434-12.093-2.379-15.926-5.496L0 29.062v1.723zm0 10.547c0 2.016.164 2.871.773 4.02 2.25 4.289 9.247 7.3 17.637 7.582 1.125.035 2.238.035 2.473-.012l.422-.082-.867-1.664c-.774-1.5-1.922-4.489-1.922-5.028 0-.222-.293-.27-2.11-.386-1.664-.106-4.148-.492-5.953-.938-3.879-.949-7.043-2.449-9.598-4.523L0 39.609v1.723z"/></g><defs><clipPath id="clip0_814_8584"><path fill="#fff" d="M0 0h60v60H0z"/></clipPath></defs></svg>