<svg width="60" height="60" fill="none" xmlns="http://www.w3.org/2000/svg"><g clip-path="url(#clip0_814_8668)" fill="#fff"><path d="M30.568.058c-3.401.374-6.39 2.373-7.884 5.266a9.128 9.128 0 00-.662 6.707c1.282 4.43 5.843 7.392 10.66 6.92 4.482-.433 8.042-3.584 8.88-7.854.14-.737.14-2.454 0-3.192-.571-2.887-2.32-5.243-4.98-6.69C34.843.277 32.565-.166 30.567.059zm2.023 4.332v.945l.316.139c.777.34 1.5 1.377 1.506 2.137v.162h-.911c-.778 0-.911-.012-.911-.087 0-.052-.055-.196-.122-.317-.14-.259-.486-.46-.79-.46-.461 0-.91.426-.91.864s.461.864.929.864c.68 0 1.385.288 1.895.772 1.093 1.043 1.081 2.639-.024 3.664-.189.173-.486.38-.662.456l-.316.138v1.885h-1.823v-1.886l-.315-.138c-.778-.34-1.5-1.377-1.507-2.144v-.155h.912c.777 0 .91.011.91.086 0 .052.055.196.122.317.14.26.486.461.79.461.461 0 .91-.426.91-.864 0-.45-.449-.865-.935-.865-.668 0-1.372-.293-1.889-.777-1.093-1.026-1.087-2.634.025-3.66.188-.172.486-.38.662-.454l.316-.139V3.451h1.822v.94zM29.68 22a1 1 0 011-1h2.974a1 1 0 011 1v6.08a1 1 0 001 1h.898a1 1 0 01.773 1.635l-4.385 5.343a1 1 0 01-1.546 0l-4.386-5.343a1 1 0 01.773-1.634h.898a1 1 0 001-1V22zM15.268 3.091c-.274.118-.54.45-.592.73-.052.3.123.77.358.932.09.072.682.378 1.3.685 1.236.612 1.483.671 1.88.43.331-.202.48-.495.448-.88-.039-.554-.13-.632-1.56-1.343-.71-.352-1.373-.645-1.464-.645a1.339 1.339 0 00-.37.091zm30.077.484c-.661.328-1.27.662-1.348.74-.661.617-.266 1.685.622 1.685.389 0 2.65-1.14 2.87-1.448.215-.308.24-.754.046-1.036-.207-.308-.44-.472-.739-.511-.22-.026-.401.04-1.451.57zM16.197 13.64c-1.204.616-1.262.655-1.405.937-.248.48-.124.925.338 1.273.358.275.657.203 2.01-.479 1.366-.682 1.483-.787 1.522-1.345.033-.393-.117-.688-.449-.892-.41-.249-.644-.19-2.016.505zm27.903-.485a.948.948 0 00-.43.897c.046.523.15.608 1.566 1.322 1.149.576 1.337.648 1.558.621.299-.039.532-.202.74-.51.124-.177.15-.288.124-.524-.046-.53-.189-.648-1.546-1.335-1.376-.694-1.604-.746-2.013-.471zm6.091 23.935c-1.43.398-1.617.55-6.773 5.683-4.605 4.582-4.98 4.91-5.8 5.32-1.208.587-2.087.68-6.036.634-3.035-.036-3.316-.059-3.68-.27-1.148-.68-1.242-2.145-.199-2.93.305-.222.54-.234 3.914-.293l3.598-.058.715-.328c.855-.399 1.441-.961 1.886-1.84.27-.551.317-.785.317-1.582-.012-1.395-.586-2.473-1.711-3.176-.996-.633-1.3-.656-8.332-.61-7.125.047-7.031.047-8.637.82-1.16.563-2.508 1.97-3.187 3.317-.282.575-.551 1.172-.586 1.313-.07.258-.117.27-1.43.27h-1.36v12.901l12.868-.047c14.437-.035 13.3.035 15.199-.926.902-.469 1.23-.773 8.05-7.582 7.864-7.863 7.49-7.406 7.067-8.508-.152-.398-.375-.656-.972-1.101-.422-.317-1.067-.703-1.418-.844-.856-.328-2.614-.41-3.493-.164zM1.242 39.61a1.963 1.963 0 00-.633.374c-.62.575-.61.34-.61 9.82 0 8.59 0 8.813.235 9.258.153.305.399.551.703.704.434.222.68.234 3.774.234 3.703 0 3.879-.035 4.394-.809l.27-.398V49.84c0-9.985.035-9.504-.809-10.02-.41-.258-.515-.27-3.703-.293-1.805-.011-3.433.024-3.62.082z"/></g><defs><clipPath id="clip0_814_8668"><path fill="#fff" d="M0 0h60v60H0z"/></clipPath></defs></svg>