<svg width="80" height="81" fill="none" xmlns="http://www.w3.org/2000/svg"><g fill="#66666A" clip-path="url(#clip0_6710_61154)"><path d="M40.76.576c-4.536.5-8.52 3.166-10.513 7.022a12.171 12.171 0 00-.883 8.943c1.71 5.907 7.791 9.856 14.213 9.226 5.977-.576 10.723-4.778 11.84-10.471.187-.983.187-3.273 0-4.256-.76-3.849-3.093-6.991-6.64-8.92C46.46.869 43.424.278 40.759.577zm2.696 5.778v1.26l.421.184c1.037.453 2 1.836 2.009 2.85v.215H44.67c-1.037 0-1.215-.015-1.215-.115 0-.07-.073-.261-.162-.423-.186-.345-.648-.614-1.053-.614-.615 0-1.215.568-1.215 1.152s.616 1.152 1.24 1.152c.907 0 1.846.385 2.526 1.03 1.458 1.39 1.442 3.519-.032 4.886-.251.23-.648.507-.883.607l-.421.184v2.513h-2.43v-2.513l-.42-.184c-1.037-.453-2.001-1.836-2.01-2.858v-.207h1.216c1.036 0 1.214.015 1.214.115 0 .069.073.261.162.422.187.346.648.615 1.053.615.616 0 1.215-.569 1.215-1.152 0-.6-.6-1.153-1.247-1.153-.891 0-1.83-.392-2.519-1.037-1.458-1.367-1.45-3.51.033-4.878.25-.23.648-.507.882-.607l.421-.185V5.101h2.43v1.253zM39.57 29.5a1 1 0 011-1h4.632a1 1 0 011 1v8.774a1 1 0 001 1h2.236a1 1 0 01.773 1.634l-6.553 7.983a1 1 0 01-1.546 0l-6.552-7.983a1 1 0 01.773-1.634h2.236a1 1 0 001-1V29.5zM20.356 4.622c-.364.156-.72.6-.79.973-.068.4.166 1.025.478 1.243.121.095.91.504 1.734.912 1.648.817 1.977.895 2.506.574.442-.27.642-.66.598-1.173-.052-.74-.173-.843-2.08-1.79-.946-.47-1.83-.861-1.952-.861-.13.009-.355.06-.494.122zm40.1.645c-.881.437-1.693.882-1.797.987-.881.822-.354 2.246.83 2.246.518 0 3.533-1.52 3.827-1.931.285-.41.32-1.005.06-1.38-.276-.412-.587-.63-.984-.683-.294-.035-.536.053-1.936.76zM21.595 18.686c-1.605.822-1.683.874-1.874 1.25-.33.639-.165 1.233.451 1.697.477.367.876.27 2.68-.639 1.822-.91 1.978-1.05 2.03-1.792.044-.525-.156-.919-.598-1.19-.547-.332-.859-.253-2.69.674zm37.201-.646c-.407.27-.615.707-.572 1.195.061.698.2.812 2.087 1.763 1.532.768 1.783.864 2.078.829.398-.052.71-.27.986-.68.165-.236.2-.385.165-.699-.06-.707-.251-.864-2.06-1.78-1.836-.925-2.139-.995-2.684-.628zm8.126 31.913c-1.906.531-2.156.734-9.031 7.578-6.141 6.11-6.641 6.547-7.735 7.094-1.61.781-2.781.906-8.047.844-4.047-.047-4.422-.078-4.906-.36-1.531-.906-1.656-2.859-.266-3.906.407-.297.72-.312 5.22-.39l4.796-.079.953-.437c1.14-.531 1.922-1.281 2.516-2.453.36-.735.422-1.047.422-2.11-.016-1.859-.782-3.297-2.282-4.234-1.328-.844-1.734-.875-11.109-.813-9.5.063-9.375.063-11.516 1.094-1.546.75-3.343 2.625-4.25 4.422-.375.766-.734 1.563-.78 1.75-.095.344-.157.36-1.907.36h-1.813v17.203l17.157-.063c19.25-.047 17.734.047 20.265-1.234 1.203-.625 1.641-1.031 10.735-10.11 10.484-10.484 9.984-9.875 9.422-11.343-.204-.532-.5-.875-1.297-1.47-.563-.421-1.422-.937-1.89-1.124-1.141-.438-3.485-.547-4.657-.219zm-65.266 3.36a2.59 2.59 0 00-.843.5c-.829.765-.813.453-.813 13.093C0 78.36 0 78.656.313 79.25c.203.406.53.734.937.938.578.296.906.312 5.031.312 4.938 0 5.172-.047 5.86-1.078l.359-.531V66.953c0-13.312.047-12.672-1.078-13.36-.547-.343-.688-.359-4.938-.39-2.406-.016-4.578.031-4.828.11z"/></g><defs><clipPath id="clip0_6710_61154"><path fill="#fff" transform="translate(0 .5)" d="M0 0h80v80H0z"/></clipPath></defs></svg>