<svg width="60" height="40" fill="none" xmlns="http://www.w3.org/2000/svg"><g fill="#DB0011"><path d="M29.996 11.977c-2.933-.005-5.322 2.371-5.326 5.296-.002 1.438.015 4.986.015 5.022a.302.302 0 00.3.302h.003c.037 0 3.696-.014 4.994-.013 2.932.005 5.322-2.372 5.326-5.296.004-2.925-2.38-5.308-5.312-5.311zm-.014 10c-1.079-.002-3.79.008-4.696.011-.004-.894-.016-3.526-.014-4.714.003-2.59 2.122-4.694 4.723-4.69 2.601.004 4.714 2.114 4.71 4.703-.003 2.59-2.121 4.693-4.723 4.69z"/><path d="M29.998 9.582c-4.22-.006-7.658 3.446-7.664 7.695-.002 1.645.012 5.16.02 6.69l-.003.025-.01 7.059c0 .17.135.308.302.308a.305.305 0 00.302-.308l.008-6.04c1.149-.005 5.38-.02 7.025-.018 4.22.006 7.658-3.446 7.664-7.695.006-4.249-3.423-7.71-7.644-7.716m-.02 14.796c-1.64-.003-5.855.013-7.02.017-.005-1.16-.023-5.292-.02-7.117.005-3.91 3.172-7.086 7.06-7.08 3.887.005 7.046 3.19 7.04 7.1-.005 3.909-3.172 7.085-7.06 7.08z"/><path d="M30.079 7c-5.55-.007-10.07 4.504-10.079 10.058-.003 2.805.03 9.734.03 9.801l-.006 4.167c0 .706.468 2.723 2.561 2.726 2.24.003 2.747-1.934 2.748-2.613 0-.494.037-3.115.049-3.988 1.556-.006 3.113-.008 4.67-.008 5.55.008 10.07-4.504 10.078-10.058C40.138 11.532 35.629 7.008 30.079 7zm-.027 19.526c-.941-.001-2.59.002-4.902.009a.286.286 0 00-.085.012l-.07.02a.308.308 0 00-.218.292c-.002.15-.052 3.683-.053 4.28 0 .02-.094 1.999-2.138 1.996-1.872-.002-1.953-2.087-1.953-2.108l.006-4.169a2472 2472 0 01-.03-9.8c.007-5.213 4.255-9.448 9.469-9.441 5.214.007 9.45 4.254 9.443 9.468-.007 5.213-4.255 9.448-9.469 9.441z"/><path d="M30.069 14.367c-1.574-.002-2.856 1.305-2.858 2.914-.001.78.008 2.695.008 2.695a.23.23 0 00.226.233s1.928-.008 2.616-.007c1.574.002 2.856-1.305 2.858-2.913.002-1.61-1.276-2.92-2.85-2.922zm-.007 5.217c-.51 0-1.748.004-2.245.006-.003-.502-.008-1.734-.007-2.308.002-1.268 1.015-2.299 2.258-2.297 1.243.002 2.253 1.035 2.251 2.303 0 1.268-1.014 2.298-2.257 2.296z"/></g><rect x=".5" y=".5" width="59" height="39" rx="3.5" stroke="#E4E4E4"/></svg>