<svg width="48" height="32" fill="none" xmlns="http://www.w3.org/2000/svg"><path d="M18.87 7.613h10.267v16.77H18.869V7.613z" fill="#FF5F00"/><path d="M19.927 16A10.646 10.646 0 0124 7.614a10.665 10.665 0 100 16.77A10.647 10.647 0 0119.927 16z" fill="#EB001B"/><path d="M40.236 22.61v-.344h.148v-.07h-.353v.07h.14v.344h.065zm.684 0v-.415h-.107l-.124.297-.125-.297h-.106v.415h.077v-.314l.115.27h.08l.116-.27v.314h.074zm.336-6.61A10.664 10.664 0 0124 24.382a10.665 10.665 0 000-16.77 10.665 10.665 0 0117.256 8.383V16z" fill="#F79E1B"/></svg>