<svg width="48" height="32" fill="none" xmlns="http://www.w3.org/2000/svg"><path d="M23 15.832v4.298h-1.363V9.516h3.616a3.27 3.27 0 012.341.92 2.952 2.952 0 01.979 2.24 2.939 2.939 0 01-.979 2.252c-.632.603-1.412.904-2.341.903H23v.001zm0-5.009v3.705h2.287a1.804 1.804 0 001.349-.549 1.808 1.808 0 000-2.594 1.78 1.78 0 00-1.35-.563H23v.001zm8.714 1.808c1.008 0 1.804.27 2.387.808.583.539.874 1.277.874 2.215v4.476H33.67v-1.008h-.06c-.564.83-1.315 1.245-2.252 1.245-.8 0-1.47-.237-2.008-.711a2.272 2.272 0 01-.808-1.779c0-.751.284-1.349.852-1.792.568-.444 1.326-.667 2.274-.668.81 0 1.477.149 2 .445v-.312a1.551 1.551 0 00-.562-1.207 1.931 1.931 0 00-1.316-.497c-.762 0-1.365.322-1.808.964l-1.201-.756c.66-.949 1.638-1.423 2.932-1.423zm-1.764 5.276a1.089 1.089 0 00.453.89c.301.236.675.362 1.06.355a2.174 2.174 0 001.533-.637c.451-.425.677-.924.677-1.496-.425-.339-1.018-.508-1.778-.508-.554 0-1.016.133-1.386.4-.373.271-.559.6-.559.996zm12.511-5.039l-4.553 10.463h-1.407l1.69-3.66-2.994-6.803h1.482l2.163 5.217h.03l2.105-5.217h1.484z" fill="#5F6368"/><path d="M17.492 14.904c0-.416-.035-.83-.105-1.24h-5.75v2.348h3.293a2.823 2.823 0 01-1.218 1.853v1.525h1.966c1.15-1.061 1.814-2.63 1.814-4.486z" fill="#4285F4"/><path d="M11.635 20.864c1.646 0 3.031-.54 4.042-1.472l-1.966-1.524c-.547.37-1.252.583-2.076.583-1.59 0-2.94-1.073-3.423-2.517H6.188v1.57a6.098 6.098 0 005.447 3.36z" fill="#34A853"/><path d="M8.213 15.932a3.653 3.653 0 010-2.334v-1.57H6.188a6.098 6.098 0 000 5.475l2.025-1.57z" fill="#FBBC04"/><path d="M11.635 11.082a3.31 3.31 0 012.34.914l1.74-1.74a5.859 5.859 0 00-4.08-1.588 6.097 6.097 0 00-5.447 3.36l2.024 1.57c.483-1.444 1.833-2.516 3.423-2.516z" fill="#EA4335"/></svg>