<svg width="48" height="32" fill="none" xmlns="http://www.w3.org/2000/svg"><path d="M12.286 10.373c-.433.512-1.125.916-1.818.858-.086-.693.252-1.428.65-1.883.432-.526 1.19-.901 1.802-.93.072.721-.209 1.428-.634 1.955zm.627.995c-1.002-.058-1.86.57-2.337.57-.483 0-1.211-.541-2.005-.527-1.031.014-1.99.599-2.517 1.53-1.082 1.86-.281 4.615.765 6.13.512.75 1.125 1.572 1.933 1.543.764-.029 1.067-.498 1.99-.498.93 0 1.197.498 2.005.484.837-.015 1.363-.75 1.875-1.5.585-.852.823-1.681.837-1.724-.014-.015-1.615-.628-1.63-2.474-.014-1.544 1.262-2.28 1.32-2.322-.721-1.068-1.846-1.183-2.236-1.212zm5.792-2.092V20.52h1.745v-3.844h2.416c2.207 0 3.758-1.514 3.758-3.707 0-2.193-1.522-3.693-3.7-3.693h-4.22zm1.745 1.472h2.012c1.515 0 2.38.807 2.38 2.228 0 1.421-.865 2.236-2.387 2.236H20.45v-4.464zm9.362 9.859c1.096 0 2.113-.555 2.574-1.435h.036v1.348h1.616v-5.596c0-1.623-1.298-2.67-3.296-2.67-1.854 0-3.224 1.061-3.274 2.518h1.572c.13-.692.772-1.147 1.652-1.147 1.067 0 1.666.498 1.666 1.414v.62l-2.178.13c-2.027.123-3.123.952-3.123 2.394 0 1.457 1.132 2.424 2.755 2.424zm.468-1.334c-.93 0-1.521-.448-1.521-1.133 0-.707.57-1.118 1.659-1.183l1.94-.122v.634c0 1.053-.895 1.804-2.077 1.804zm5.915 4.305c1.702 0 2.502-.649 3.202-2.618l3.065-8.597h-1.774l-2.056 6.643h-.036l-2.055-6.643h-1.825l2.957 8.186-.159.498c-.266.844-.7 1.168-1.47 1.168-.138 0-.405-.014-.513-.029v1.35c.101.028.534.042.664.042z" fill="#000"/></svg>