<svg width="62" height="32" fill="none" xmlns="http://www.w3.org/2000/svg"><path d="M7.13 6.398C5.4 6.398 4 7.787 4 9.5v13.156c0 1.713 1.4 3.102 3.13 3.102h13.282c1.729 0 3.129-1.39 3.129-3.102v-.134c-.058-.024-5.079-2.099-7.63-3.314-1.722 2.098-3.942 3.372-6.248 3.372-3.898 0-5.222-3.38-3.376-5.605.402-.486 1.087-.949 2.15-1.208 1.662-.405 4.308.252 6.787 1.063.446-.814.821-1.71 1.1-2.665h-7.64v-.767h3.94v-1.374H7.852v-.768h4.772v-1.96s0-.331.338-.331h1.926v2.291h4.717v.768h-4.717v1.374h3.85a15.522 15.522 0 01-1.63 4.081c1.17.419 2.218.816 3 1.076 2.608.864 3.339.97 3.433.98V9.5c0-1.713-1.4-3.101-3.13-3.101H7.132zm2.143 10.49a5.91 5.91 0 00-.505.027c-.488.048-1.404.262-1.905.701-1.502 1.298-.603 3.67 2.436 3.67 1.768 0 3.533-1.12 4.92-2.911-1.788-.865-3.328-1.506-4.946-1.488z" fill="#00A1E9"/><path d="M57.53 19.844l-.872 1.882-.886-1.882h-.864l1.346 2.602v1.815h.794v-1.815l.005-.01 1.34-2.592h-.863zm-6.387 1.138l.616 1.832h-1.253l.637-1.832zm.805 2.389l.296.89h.831l-1.637-4.418h-.635l-1.632 4.418h.832l.31-.89h1.635zm-6.206-1.416h-.883v-1.51h.883c.444 0 .71.385.71.758 0 .364-.25.752-.71.752m.045-2.111h-1.728v4.417h.8v-1.698h.928c.862 0 1.464-.56 1.464-1.36s-.602-1.36-1.464-1.36m-5.77 4.418h.8v-4.417h-.8v4.417zm-5.624-4.417v4.417h2.691v-.602h-1.892v-3.815h-.8zm-4.556 1.138l.615 1.832H29.2l.637-1.832zm.805 2.389l.296.89h.831l-1.637-4.418h-.635l-1.632 4.418h.832l.309-.89h1.636zm5.629-12.162h-3.43V9.987h3.977v-.76h-3.977V7.679h-1.773a.357.357 0 00-.352.362v1.186h-3.95v.76h3.95v1.222h-3.333v.76h6.64s-.368 1.427-2.19 2.961c-1.632-1.227-2.177-2.205-2.177-2.205h-1.781c.72 1.241 1.744 2.235 2.847 3.023-1.013.654-2.326 1.284-4.025 1.789v.91s2.62-.49 5.153-1.973c2.537 1.471 5.084 1.974 5.084 1.974v-.863c-1.63-.59-2.922-1.238-3.936-1.863 1.47-1.082 2.757-2.55 3.273-4.513zm11.142-3.377h-1.786v1.853h-4.4v.747h4.4v6.664a.308.308 0 01-.288.28h-.907v.772h2.314a.701.701 0 00.667-.692v-7.024h.725v-.747h-.725V7.832zm-3.765 3.857a.398.398 0 00-.354-.225h-1.488l1.16 3.626h1.76l-1.078-3.4zm-4.395-3.945l-2.047 4.813h1.57v5.727h1.719v-7.597h-.623l1.294-2.943h-1.913zM59.176 18.02l-.627-2.106a.326.326 0 00-.31-.232h-1.664l.483 1.618h-1.956v-3.134h3.84v-.746h-3.84v-1.476h3.84V11.2h-9.584v.745h3.84v1.476h-3.84v.746h3.84V17.3h-3.84v.746h9.819l-.009-.026h.008zm-7.821-8.6h5.593v1.1h1.999V9.217l-.001-.007a.53.53 0 00-.517-.535h-3.234V7.648h-2.09v1.026h-3.748v1.847h1.998v-1.1z" fill="#3F3B3A"/></svg>