<svg width="48" height="32" fill="none" xmlns="http://www.w3.org/2000/svg"><mask id="a" style="mask-type:luminance" maskUnits="userSpaceOnUse" x="5" y="10" width="38" height="12"><path d="M24.635 13.85c-.021 1.66 1.48 2.587 2.61 3.138 1.163.566 1.553.928 1.549 1.434-.01.774-.927 1.115-1.787 1.128-1.498.024-2.37-.404-3.063-.728l-.54 2.527c.695.32 1.983.6 3.317.612 3.134 0 5.184-1.547 5.195-3.945.012-3.043-4.21-3.212-4.181-4.572.01-.413.403-.853 1.266-.965.427-.056 1.605-.1 2.941.516l.525-2.445a7.997 7.997 0 00-2.792-.512c-2.95 0-5.024 1.567-5.04 3.811zm12.871-3.602a1.36 1.36 0 00-1.27.846l-4.475 10.687h3.13l.624-1.721h3.826l.361 1.721h2.76l-2.408-11.533h-2.548zm.438 3.116l.904 4.33h-2.475l1.571-4.33zm-17.106-3.116L18.37 21.781h2.984l2.467-11.533h-2.983zm-4.413 0l-3.106 7.85-1.256-6.674c-.148-.746-.73-1.176-1.376-1.176H5.61l-.07.335c1.041.226 2.225.591 2.943.981.439.239.564.447.708 1.014l2.38 9.203h3.153l4.834-11.533h-3.133z" fill="#fff"/></mask><g mask="url(#a)"><path d="M1.672 11.46l36.38-13.398 8.276 22.474-36.38 13.398" fill="url(#paint0_linear_8527_54577)"/></g><defs><linearGradient id="paint0_linear_8527_54577" x1="8.883" y1="21.597" x2="40.001" y2="10.136" gradientUnits="userSpaceOnUse"><stop stop-color="#222357"/><stop offset="1" stop-color="#254AA5"/></linearGradient></defs></svg>