<svg width="60" height="40" fill="none" xmlns="http://www.w3.org/2000/svg"><g fill="#DB0011"><path d="M29.93 11.627c-2.923-.004-5.305 2.364-5.309 5.28-.002 1.432.016 4.97.016 5.005a.302.302 0 00.3.302c.038 0 3.685-.015 4.979-.013 2.923.004 5.305-2.364 5.309-5.28.004-2.915-2.371-5.29-5.295-5.294zm-.014 9.968c-1.075-.001-3.777.009-4.68.012-.005-.891-.017-3.516-.015-4.7.004-2.58 2.116-4.678 4.709-4.674 2.592.003 4.699 2.106 4.695 4.688-.004 2.58-2.116 4.678-4.709 4.674z"/><path d="M29.935 9.243c-4.207-.006-7.634 3.435-7.64 7.67-.002 1.64.012 5.144.02 6.67l-.003.024-.01 7.036c0 .17.134.307.3.307a.304.304 0 00.302-.306l.008-6.022c1.145-.004 5.363-.02 7.002-.017 4.207.005 7.634-3.435 7.64-7.67.006-4.236-3.412-7.686-7.62-7.692m-.02 14.748c-1.634-.002-5.836.013-6.996.018a1613.93 1613.93 0 01-.021-7.095c.005-3.897 3.162-7.063 7.037-7.058 3.875.006 7.024 3.18 7.018 7.078-.005 3.896-3.162 7.062-7.037 7.057z"/><path d="M30.013 6.667c-5.532-.007-10.038 4.49-10.046 10.026-.004 2.796.03 9.702.03 9.77l-.006 4.153c0 .704.466 2.715 2.553 2.718 2.233.003 2.738-1.928 2.739-2.605 0-.492.036-3.106.048-3.976 1.552-.005 3.104-.008 4.655-.008 5.532.008 10.039-4.49 10.046-10.025.008-5.535-4.486-10.045-10.019-10.053zm-.026 19.464c-.939-.002-2.582.001-4.887.008a.288.288 0 00-.084.012l-.07.02a.306.306 0 00-.218.291c-.002.15-.051 3.672-.052 4.266 0 .02-.094 1.993-2.132 1.99-1.865-.002-1.946-2.08-1.946-2.101l.006-4.155c0-.07-.034-6.975-.03-9.77.007-5.196 4.241-9.417 9.438-9.41 5.198.007 9.42 4.24 9.413 9.437-.007 5.197-4.24 9.419-9.438 9.412z"/><path d="M30.003 14.01c-1.569-.002-2.847 1.301-2.849 2.905 0 .777.008 2.687.008 2.687a.23.23 0 00.225.232h.001s1.922-.008 2.607-.007c1.569.002 2.847-1.3 2.849-2.904.002-1.604-1.272-2.91-2.841-2.912zm-.007 5.201c-.509 0-1.742.004-2.238.006-.002-.5-.007-1.728-.007-2.301.002-1.264 1.012-2.291 2.251-2.29 1.24.003 2.246 1.032 2.245 2.296-.002 1.264-1.012 2.291-2.25 2.29z"/></g></svg>