<svg width="29" height="38" fill="none" xmlns="http://www.w3.org/2000/svg"><g fill="#DB0011"><path d="M14.402 7.068c-4.166-.006-7.56 3.37-7.566 7.524-.003 2.042.022 7.083.022 7.133a.43.43 0 00.427.43h.002c.053 0 5.251-.02 7.094-.018 4.166.006 7.56-3.37 7.566-7.524.006-4.154-3.38-7.54-7.545-7.545zm-.02 14.206c-1.533-.002-5.383.011-6.671.016-.006-1.27-.022-5.01-.02-6.697.005-3.678 3.015-6.667 6.71-6.662 3.694.006 6.696 3.003 6.69 6.68-.004 3.68-3.014 6.668-6.709 6.663z"/><path d="M14.405 3.67C8.41 3.663 3.527 8.567 3.518 14.602c-.004 2.338.017 7.33.027 9.504-.001.012-.004.024-.004.035l-.014 10.027c0 .242.192.437.429.438a.433.433 0 00.429-.437l.012-8.58c1.632-.007 7.642-.03 9.978-.026 5.995.008 10.88-4.895 10.888-10.93C25.27 8.595 20.4 3.678 14.405 3.67m-.029 21.017c-2.33-.004-8.317.018-9.97.025a2145.67 2145.67 0 01-.03-10.11C4.383 9.048 8.882 4.536 14.404 4.544c5.522.008 10.009 4.532 10.001 10.085-.007 5.553-4.506 10.065-10.029 10.058z"/><path d="M14.52 0C6.636-.01.215 6.398.204 14.287.198 18.272.245 28.114.246 28.21l-.008 5.92C.237 35.131.902 37.996 3.875 38c3.183.005 3.903-2.747 3.904-3.711 0-.702.052-4.426.07-5.666 2.21-.008 4.421-.011 6.632-.011 7.884.011 14.306-6.398 14.317-14.287C28.808 6.438 22.404.011 14.52 0zm-.038 27.737c-1.337-.002-3.68.002-6.964.012-.04 0-.08.006-.12.018l-.099.029a.437.437 0 00-.31.414c-.003.213-.074 5.232-.075 6.078 0 .029-.134 2.84-3.038 2.837-2.659-.004-2.774-2.965-2.774-2.995l.008-5.922c0-.099-.047-9.938-.042-13.92C1.078 6.881 7.112.865 14.518.875c7.407.01 13.424 6.044 13.415 13.45-.01 7.404-6.044 13.421-13.45 13.41z"/><path d="M14.507 10.465c-2.235-.003-4.057 1.853-4.06 4.139-.001 1.107.011 3.828.011 3.828.002.183.144.33.321.33h.002s2.738-.01 3.715-.009c2.235.003 4.056-1.854 4.06-4.138.002-2.286-1.814-4.147-4.05-4.15zm-.01 7.41c-.725 0-2.483.006-3.19.009a836.37 836.37 0 01-.009-3.28c.003-1.8 1.442-3.264 3.207-3.261 1.767.002 3.201 1.47 3.199 3.27-.002 1.802-1.441 3.265-3.207 3.263z"/></g></svg>