<svg width="150" height="100" fill="none" xmlns="http://www.w3.org/2000/svg"><g fill="#DB0011"><path d="M74.827 29.068c-7.308-.01-13.261 5.91-13.272 13.2-.005 3.581.038 12.425.038 12.514a.754.754 0 00.75.753h.003c.093 0 9.212-.036 12.445-.032 7.31.01 13.263-5.91 13.273-13.2.01-7.287-5.928-13.225-13.237-13.235zm-.034 24.921c-2.689-.003-9.443.02-11.703.03-.01-2.229-.04-8.79-.036-11.75.01-6.452 5.29-11.695 11.772-11.686 6.481.009 11.747 5.266 11.738 11.72-.008 6.452-5.289 11.695-11.77 11.686z"/><path d="M74.834 23.107c-10.516-.014-19.084 8.588-19.099 19.175-.006 4.101.03 12.861.047 16.674-.002.021-.006.04-.006.061l-.024 17.59a.76.76 0 00.751.768.76.76 0 00.753-.766l.02-15.053c2.863-.012 13.408-.05 17.506-.045 10.518.014 19.086-8.587 19.1-19.176.014-10.587-8.53-19.213-19.048-19.228m-.05 36.87a5340.37 5340.37 0 00-17.493.045c-.013-2.89-.058-13.188-.051-17.737.012-9.742 7.905-17.658 17.593-17.644 9.688.014 17.558 7.95 17.545 17.693-.013 9.742-7.906 17.656-17.594 17.644z"/><path d="M75.034 16.668c-13.83-.018-25.096 11.225-25.115 25.064-.01 6.99.073 24.257.074 24.425l-.014 10.384c-.002 1.76 1.165 6.786 6.381 6.794 5.583.007 6.846-4.82 6.848-6.512.002-1.231.091-7.764.122-9.94 3.879-.013 7.758-.02 11.637-.019 13.83.02 25.096-11.224 25.115-25.063.019-13.84-11.217-25.114-25.048-25.133zm-.066 48.66c-2.346-.004-6.456.003-12.217.02a.719.719 0 00-.21.031l-.174.051a.766.766 0 00-.545.727c-.005.374-.128 9.179-.131 10.663 0 .05-.235 4.984-5.33 4.977-4.664-.007-4.866-5.202-4.866-5.255l.015-10.388c-.001-.174-.083-17.435-.074-24.421.017-12.992 10.602-23.546 23.595-23.528 12.995.019 23.55 10.602 23.533 23.594-.017 12.99-10.603 23.546-23.596 23.528z"/><path d="M75.012 35.028c-3.92-.006-7.117 3.25-7.121 7.26-.003 1.944.019 6.717.019 6.717.002.32.253.58.563.58h.003s4.803-.02 6.517-.017c3.921.005 7.116-3.252 7.122-7.26.005-4.01-3.18-7.275-7.103-7.28zm-.017 13c-1.272-.001-4.356.01-5.595.014-.006-1.25-.018-4.32-.017-5.752.005-3.16 2.53-5.727 5.627-5.723 3.099.005 5.616 2.578 5.611 5.739-.003 3.16-2.528 5.727-5.626 5.723z"/></g></svg>