<svg width="20" height="20" fill="none" xmlns="http://www.w3.org/2000/svg"><path d="M10 5.156a2.969 2.969 0 100 5.938 2.969 2.969 0 000-5.938zm0 5a2.031 2.031 0 110-4.063 2.031 2.031 0 010 4.063zm0-8.75a6.727 6.727 0 00-6.719 6.719c0 2.415 1.12 4.98 3.24 7.417a19.707 19.707 0 003.21 2.969.468.468 0 00.538 0 19.706 19.706 0 003.21-2.969c2.12-2.437 3.24-5 3.24-7.417A6.727 6.727 0 0010 1.406zm0 16.134c-1.172-.905-5.781-4.757-5.781-9.415a5.781 5.781 0 1111.562 0c0 4.658-4.61 8.51-5.781 9.415z" fill="#333"/></svg>