<svg width="40" height="40" fill="none" xmlns="http://www.w3.org/2000/svg"><rect width="40" height="40" rx="6" fill="#0077B5"/><path fill-rule="evenodd" clip-rule="evenodd" d="M17.62 17.194h3.438v1.713c.495-.986 1.766-1.87 3.674-1.87 3.659 0 4.527 1.96 4.527 5.558v6.664h-3.704v-5.844c0-2.05-.495-3.205-1.756-3.205-1.75 0-2.476 1.245-2.476 3.204v5.845h-3.704V17.193zm-6.352 11.908h3.704V17.036h-3.704v12.066zm4.234-16a2.342 2.342 0 01-.697 1.668 2.398 2.398 0 01-3.369 0 2.36 2.36 0 01-.695-1.668c0-.627.25-1.227.697-1.67a2.391 2.391 0 013.367 0 2.35 2.35 0 01.697 1.67z" fill="#fff"/></svg>