<svg width="40" height="40" fill="none" xmlns="http://www.w3.org/2000/svg"><rect width="40" height="40" rx="6" fill="#1DA1F2"/><path d="M29.027 14.407a7.424 7.424 0 01-2.13.573 3.692 3.692 0 001.627-2.04 7.306 7.306 0 01-2.348.894 3.69 3.69 0 00-2.704-1.17 3.7 3.7 0 00-3.7 3.703c0 .286.035.573.091.848a10.516 10.516 0 01-7.63-3.873 3.675 3.675 0 00-.504 1.868c0 1.285.654 2.418 1.65 3.084a3.733 3.733 0 01-1.674-.471v.046a3.701 3.701 0 002.967 3.632 3.921 3.921 0 01-.974.126c-.241 0-.47-.024-.7-.056a3.707 3.707 0 003.46 2.567 7.417 7.417 0 01-4.594 1.582 7.3 7.3 0 01-.894-.046 10.478 10.478 0 005.683 1.66c6.806 0 10.53-5.637 10.53-10.531 0-.16 0-.321-.011-.482a7.97 7.97 0 001.855-1.914z" fill="#fff"/></svg>