<svg width="18" height="20" fill="none" xmlns="http://www.w3.org/2000/svg"><path d="M15 20a2.893 2.893 0 01-2.125-.875A2.893 2.893 0 0112 17c0-.117.008-.238.025-.363s.042-.238.075-.337l-7.05-4.1c-.283.25-.6.446-.95.588A2.88 2.88 0 013 13a2.893 2.893 0 01-2.125-.875A2.893 2.893 0 010 10c0-.833.292-1.542.875-2.125A2.893 2.893 0 013 7a2.9 2.9 0 011.1.213c.35.142.667.338.95.587l7.05-4.1a1.843 1.843 0 01-.075-.337A2.734 2.734 0 0112 3c0-.833.292-1.542.875-2.125A2.893 2.893 0 0115 0c.833 0 1.542.292 2.125.875S18 2.167 18 3s-.292 1.542-.875 2.125A2.893 2.893 0 0115 6c-.383 0-.75-.07-1.1-.212a3.273 3.273 0 01-.95-.588L5.9 9.3c.033.1.058.213.075.338a2.747 2.747 0 010 .725 1.813 1.813 0 01-.075.337l7.05 4.1c.283-.25.6-.446.95-.587.35-.141.717-.212 1.1-.213.833 0 1.542.292 2.125.875S18 16.167 18 17s-.292 1.542-.875 2.125A2.893 2.893 0 0115 20zm0-16a.968.968 0 00.713-.288A.964.964 0 0016 3a.968.968 0 00-.288-.713A.964.964 0 0015 2a.968.968 0 00-.713.288A.964.964 0 0014 3c0 .283.096.521.288.713.192.192.43.288.712.287zM3 11a.968.968 0 00.713-.288A.964.964 0 004 10a.968.968 0 00-.288-.713A.964.964 0 003 9a.968.968 0 00-.713.288A.964.964 0 002 10c0 .283.096.521.288.713.192.192.43.288.712.287zm12 7a.968.968 0 00.713-.288A.964.964 0 0016 17a.968.968 0 00-.288-.713A.964.964 0 0015 16a.968.968 0 00-.713.288A.964.964 0 0014 17c0 .283.096.521.288.713.192.192.43.288.712.287z" fill="#333"/></svg>