<svg width="24" height="24" fill="none" xmlns="http://www.w3.org/2000/svg"><g filter="url(#filter0_i_5512_58174)"><path d="M12.5 2.505a10.06 10.06 0 00-7.071 2.896A9.828 9.828 0 002.5 12.39a9.827 9.827 0 002.929 6.989 10.06 10.06 0 007.07 2.895V2.505z" fill="#EE3F25"/></g><g filter="url(#filter1_i_5512_58174)"><path d="M12.501 6.175A6.674 6.674 0 007.87 8.026a6.211 6.211 0 00-1.92 4.47 6.21 6.21 0 001.92 4.47 6.675 6.675 0 004.632 1.852V6.175z" fill="#F9FFFF"/></g><g filter="url(#filter2_i_5512_58174)"><path d="M12.5 22.27a10.06 10.06 0 007.07-2.895 9.828 9.828 0 002.93-6.99 9.827 9.827 0 00-2.93-6.99A10.059 10.059 0 0012.5 2.5v19.77z" fill="#04B2B2"/></g><g filter="url(#filter3_i_5512_58174)"><path d="M12.501 18.825a6.674 6.674 0 004.633-1.852 6.211 6.211 0 001.919-4.47c0-1.676-.69-3.284-1.92-4.47a6.675 6.675 0 00-4.632-1.851v12.643z" fill="#EFAD14"/></g><g filter="url(#filter4_i_5512_58174)"><rect width="3.521" height="8.351" rx=".345" transform="matrix(.75417 -.65668 .66488 .74695 13.374 16.265)" fill="#F9FFFE"/></g><defs><filter id="filter0_i_5512_58174" x="2.5" y="2.333" width="10.345" height="19.942" filterUnits="userSpaceOnUse" color-interpolation-filters="sRGB"><feFlood flood-opacity="0" result="BackgroundImageFix"/><feBlend in="SourceGraphic" in2="BackgroundImageFix" result="shape"/><feColorMatrix in="SourceAlpha" values="0 0 0 0 0 0 0 0 0 0 0 0 0 0 0 0 0 0 127 0" result="hardAlpha"/><feOffset dx=".345" dy="-.172"/><feGaussianBlur stdDeviation=".345"/><feComposite in2="hardAlpha" operator="arithmetic" k2="-1" k3="1"/><feColorMatrix values="0 0 0 0 0.625 0 0 0 0 0.0808457 0 0 0 0 0 0 0 0 1 0"/><feBlend in2="shape" result="effect1_innerShadow_5512_58174"/></filter><filter id="filter1_i_5512_58174" x="5.95" y="5.83" width="6.724" height="12.988" filterUnits="userSpaceOnUse" color-interpolation-filters="sRGB"><feFlood flood-opacity="0" result="BackgroundImageFix"/><feBlend in="SourceGraphic" in2="BackgroundImageFix" result="shape"/><feColorMatrix in="SourceAlpha" values="0 0 0 0 0 0 0 0 0 0 0 0 0 0 0 0 0 0 127 0" result="hardAlpha"/><feOffset dx=".172" dy="-.345"/><feGaussianBlur stdDeviation=".345"/><feComposite in2="hardAlpha" operator="arithmetic" k2="-1" k3="1"/><feColorMatrix values="0 0 0 0 0.720833 0 0 0 0 0.720833 0 0 0 0 0.720833 0 0 0 1 0"/><feBlend in2="shape" result="effect1_innerShadow_5512_58174"/></filter><filter id="filter2_i_5512_58174" x="11.982" y="2.328" width="10.517" height="19.942" filterUnits="userSpaceOnUse" color-interpolation-filters="sRGB"><feFlood flood-opacity="0" result="BackgroundImageFix"/><feBlend in="SourceGraphic" in2="BackgroundImageFix" result="shape"/><feColorMatrix in="SourceAlpha" values="0 0 0 0 0 0 0 0 0 0 0 0 0 0 0 0 0 0 127 0" result="hardAlpha"/><feOffset dx="-.517" dy="-.172"/><feGaussianBlur stdDeviation=".345"/><feComposite in2="hardAlpha" operator="arithmetic" k2="-1" k3="1"/><feColorMatrix values="0 0 0 0 0 0 0 0 0 0.379167 0 0 0 0 0.379167 0 0 0 1 0"/><feBlend in2="shape" result="effect1_innerShadow_5512_58174"/></filter><filter id="filter3_i_5512_58174" x="12.329" y="5.837" width="6.724" height="12.988" filterUnits="userSpaceOnUse" color-interpolation-filters="sRGB"><feFlood flood-opacity="0" result="BackgroundImageFix"/><feBlend in="SourceGraphic" in2="BackgroundImageFix" result="shape"/><feColorMatrix in="SourceAlpha" values="0 0 0 0 0 0 0 0 0 0 0 0 0 0 0 0 0 0 127 0" result="hardAlpha"/><feOffset dx="-.172" dy="-.345"/><feGaussianBlur stdDeviation=".345"/><feComposite in2="hardAlpha" operator="arithmetic" k2="-1" k3="1"/><feColorMatrix values="0 0 0 0 0.7 0 0 0 0 0.489041 0 0 0 0 0 0 0 0 1 0"/><feBlend in2="shape" result="effect1_innerShadow_5512_58174"/></filter><filter id="filter4_i_5512_58174" x="13.517" y="13.921" width="8.052" height="8.44" filterUnits="userSpaceOnUse" color-interpolation-filters="sRGB"><feFlood flood-opacity="0" result="BackgroundImageFix"/><feBlend in="SourceGraphic" in2="BackgroundImageFix" result="shape"/><feColorMatrix in="SourceAlpha" values="0 0 0 0 0 0 0 0 0 0 0 0 0 0 0 0 0 0 127 0" result="hardAlpha"/><feOffset dx=".129" dy="-.172"/><feGaussianBlur stdDeviation=".259"/><feComposite in2="hardAlpha" operator="arithmetic" k2="-1" k3="1"/><feColorMatrix values="0 0 0 0 0.721569 0 0 0 0 0.721569 0 0 0 0 0.721569 0 0 0 1 0"/><feBlend in2="shape" result="effect1_innerShadow_5512_58174"/></filter></defs></svg>