<svg width="24" height="24" fill="none" xmlns="http://www.w3.org/2000/svg"><path d="M19.5 3.375h-2.625V2.25a.375.375 0 10-.75 0v1.125h-8.25V2.25a.375.375 0 10-.75 0v1.125H4.5A1.125 1.125 0 003.375 4.5v15A1.125 1.125 0 004.5 20.625h15a1.125 1.125 0 001.125-1.125v-15A1.125 1.125 0 0019.5 3.375zm-15 .75h2.625V5.25a.375.375 0 10.75 0V4.125h8.25V5.25a.375.375 0 10.75 0V4.125H19.5a.375.375 0 01.375.375v3.375H4.125V4.5a.375.375 0 01.375-.375zm15 15.75h-15a.375.375 0 01-.375-.375V8.625h15.75V19.5a.375.375 0 01-.375.375z" fill="#7C7C7C"/><path fill-rule="evenodd" clip-rule="evenodd" d="M17.098 3.148h2.4a1.35 1.35 0 011.35 1.35v15a1.35 1.35 0 01-1.35 1.35h-15a1.35 1.35 0 01-1.35-1.35v-15a1.35 1.35 0 011.35-1.35h2.4v-.9a.6.6 0 011.2 0v.9h7.8v-.9a.6.6 0 011.2 0v.9zm-10.2 1.2h-2.4a.15.15 0 00-.15.15v3.15h15.3v-3.15a.15.15 0 00-.15-.15h-2.4v.9a.6.6 0 11-1.2 0v-.9h-7.8v.9a.6.6 0 01-1.2 0v-.9zm-2.4 15.3h15a.15.15 0 00.15-.15V8.848h-15.3v10.65a.15.15 0 00.15.15zm15-16.275a1.125 1.125 0 011.125 1.125v15a1.125 1.125 0 01-1.125 1.125h-15a1.125 1.125 0 01-1.125-1.125v-15a1.125 1.125 0 011.125-1.125h2.625V2.248a.375.375 0 01.75 0v1.125h8.25V2.248a.375.375 0 11.75 0v1.125h2.625zm-15 .75a.375.375 0 00-.375.375v3.375h15.75V4.498a.375.375 0 00-.375-.375h-2.625v1.125a.375.375 0 11-.75 0V4.123h-8.25v1.125a.375.375 0 01-.75 0V4.123H4.498zm0 15.75h15a.375.375 0 00.375-.375V8.623H4.123v10.875a.375.375 0 00.375.375z" fill="#7C7C7C"/></svg>