<svg width="22" height="17" fill="none" xmlns="http://www.w3.org/2000/svg"><path d="M11.108.905a.75.75 0 00-.263.206c-.044.066-.21.478-.369.912l-.289.793-.96.022c-1.012.022-1.047.03-1.249.25a.724.724 0 00-.131.833c.074.157.18.245.81.666l.724.482-.136.364c-.355.964-.438 1.24-.412 1.389.061.381.46.693.833.653.149-.017.359-.136.968-.535.43-.28.793-.508.807-.508.017 0 .333.202.705.443.99.653 1.114.692 1.477.517.224-.11.342-.259.408-.526.048-.189.035-.232-.22-.956-.192-.539-.262-.78-.236-.837.022-.048.342-.28.71-.521.588-.386.68-.465.754-.627a.969.969 0 00.088-.311c0-.241-.197-.574-.417-.702-.057-.035-.438-.061-1.052-.074l-.964-.022-.285-.793c-.158-.439-.324-.85-.368-.912-.092-.149-.386-.29-.596-.29-.083 0-.237.04-.337.084zm.508 1c.079.214.189.52.25.692.166.46.324.727.5.833.14.079.24.087 1.108.1.522.01.951.031.951.053 0 .018-.284.224-.63.451-.632.417-.807.583-.9.86-.082.25-.056.394.211 1.122.14.385.241.718.224.736-.018.022-.333-.162-.702-.408-1.205-.806-1.161-.806-2.366 0-.369.246-.684.43-.702.408-.017-.018.084-.36.228-.758.29-.794.325-1.03.184-1.28-.057-.101-.306-.294-.784-.61-.381-.258-.706-.486-.715-.512-.008-.03.32-.048.943-.062 1.091-.017 1.157-.035 1.35-.363.092-.158.28-.64.613-1.591.044-.123.11-.031.237.328zm-7.118.03c-.224.097-.298.232-.526.92l-.22.662-.766.022c-.872.027-.938.048-1.096.368-.215.452-.096.675.631 1.166.303.206.544.39.535.417-.013.022-.114.324-.228.662-.202.596-.206.63-.153.81.11.364.486.592.81.491.08-.022.39-.215.693-.42.302-.21.574-.382.6-.382.031 0 .312.175.627.395.583.398.754.469.995.416.193-.044.425-.276.491-.495.053-.18.044-.215-.158-.815-.118-.347-.201-.658-.188-.693.013-.035.254-.22.534-.412.417-.28.526-.381.6-.535a.684.684 0 00-.047-.688c-.154-.24-.22-.263-1.048-.285l-.762-.022-.215-.63c-.119-.347-.25-.685-.298-.75-.167-.237-.53-.325-.811-.202zm.39 1.021c.153.487.342.938.447 1.061.158.193.438.241 1.13.206.382-.022.562-.018.531.013-.026.022-.25.189-.504.364-.727.508-.789.71-.482 1.573.092.272.167.504.158.513-.009.009-.263-.153-.561-.355-.303-.206-.61-.385-.684-.403-.237-.048-.399.018-.964.403-.298.202-.552.364-.557.355-.009-.009.079-.28.189-.605.293-.872.258-.964-.579-1.507l-.486-.312.7-.021c1-.031 1.018-.044 1.342-.995.1-.298.197-.54.215-.54.013 0 .061.114.105.25zm12.934-1.021c-.223.097-.298.232-.526.92l-.219.662-.767.022c-.872.027-.938.048-1.096.368-.215.452-.096.675.631 1.166.303.206.544.39.535.417-.013.022-.114.324-.228.662-.201.596-.206.63-.153.81.11.364.486.592.81.491.08-.022.39-.215.693-.42.303-.21.574-.382.6-.382.031 0 .312.175.627.395.583.398.754.469.995.416.193-.044.425-.276.491-.495.053-.18.044-.215-.158-.815-.118-.347-.201-.658-.188-.693.013-.035.254-.22.535-.412.416-.28.526-.381.6-.535a.683.683 0 00-.048-.688c-.154-.24-.22-.263-1.048-.285l-.762-.022-.215-.63c-.118-.347-.25-.685-.298-.75-.167-.237-.53-.325-.81-.202zm.39 1.021c.154.487.342.938.447 1.061.158.193.439.241 1.131.206.381-.022.561-.018.53.013-.026.022-.25.189-.504.364-.727.508-.789.71-.482 1.573.092.272.167.504.158.513-.009.009-.263-.153-.561-.355-.302-.206-.61-.385-.684-.403-.236-.048-.399.018-.964.403-.298.202-.552.364-.557.355-.008-.009.08-.28.189-.605.294-.872.258-.964-.579-1.507l-.486-.312.701-.021c1-.031 1.017-.044 1.341-.995.101-.298.198-.54.215-.54.013 0 .061.114.105.25z" fill="#333"/><path d="M1.776 5.783C.826 6.813.51 8.417.974 9.82c.386 1.175 1.298 2.17 2.393 2.617.72.289.522.276 4.751.293l3.84.018.026.315c.057.631.272 1.184.666 1.696.596.772 1.67 1.36 2.705 1.469.276.03.298.026.403-.08.175-.174.153-.34-.088-.635-.381-.469-.543-.911-.543-1.499 0-.412.074-.736.25-1.06l.11-.202 1.367-.022c1.6-.022 1.801-.057 2.59-.447a3.974 3.974 0 001.885-1.884c.337-.684.438-1.105.434-1.885-.005-.67-.114-1.201-.347-1.727-.197-.434-.49-.618-.705-.443-.162.14-.162.254.022.653.227.496.31.811.341 1.32.084 1.407-.78 2.835-2.055 3.414-.583.267-.67.276-2.332.307l-1.525.026-.154.175c-.197.228-.43.715-.512 1.074-.136.574-.057 1.49.17 1.924.036.075.053.136.036.136a4.79 4.79 0 01-.43-.193c-.67-.328-1.197-.885-1.455-1.547-.1-.258-.118-.368-.123-.824-.009-.56-.048-.705-.21-.745-.053-.013-1.902-.026-4.107-.035-4.528-.013-4.23.009-4.997-.368-.355-.175-.477-.268-.832-.623-.548-.552-.798-.981-.995-1.718-.105-.39-.105-1.275 0-1.66.1-.39.425-1.026.666-1.316.11-.131.197-.25.197-.263a2.02 2.02 0 00-.232-.254l-.237-.232-.17.188z" fill="#333"/><path d="M4.016 8.645a.342.342 0 00-.11.241c0 .084.04.176.11.241l.105.11h7.1c5.111 0 7.132-.013 7.206-.048a.333.333 0 00.097-.544l-.105-.11H4.12l-.105.11zm1.754 1.403a.342.342 0 00-.11.24c0 .084.04.176.11.242l.104.11h5.348c3.879 0 5.377-.014 5.456-.049.136-.061.215-.25.176-.407-.066-.259.28-.246-5.597-.246H5.874l-.105.11z" fill="#333"/></svg>