<svg width="7" height="10" fill="none" xmlns="http://www.w3.org/2000/svg"><g clip-path="url(#clip0_2360_32345)"><path d="M6.374 5.354a.865.865 0 01-.229.583L2.312 9.771a.79.79 0 01-.583.229.79.79 0 01-.584-.23.79.79 0 01-.229-.582.79.79 0 01.23-.584l3.25-3.25-3.25-3.25a.79.79 0 01-.23-.583.79.79 0 01.23-.583.79.79 0 01.583-.23.79.79 0 01.583.23L6.145 4.77a.736.736 0 01.178.27.902.902 0 01.051.313z" fill="#333"/></g><defs><clipPath id="clip0_2360_32345"><path fill="#fff" d="M0 0h7v10H0z"/></clipPath></defs></svg>