<svg width="24" height="24" fill="none" xmlns="http://www.w3.org/2000/svg"><g clip-path="url(#clip0_12104_19210)"><path d="M19.526 5.288h0a1.5 1.5 0 01.974 1.405v5.363a8.5 8.5 0 01-4.698 7.602s0 0 0 0l-3.354 1.676h0a1 1 0 01-.895 0h0l-3.354-1.677A8.5 8.5 0 013.5 12.055V6.694h0a1.5 1.5 0 01.973-1.406h0l7-2.625s0 0 0 0a1.5 1.5 0 011.053 0l7 2.625zM12 7.5h0a2.5 2.5 0 00-1.5 4.5v3a1.5 1.5 0 103 0v-3A2.499 2.499 0 0012 7.5z" stroke="#333"/></g><defs><clipPath id="clip0_12104_19210"><path fill="#fff" d="M0 0h24v24H0z"/></clipPath></defs></svg>