<svg width="35" height="32" viewBox="0 0 35 32" fill="none" xmlns="http://www.w3.org/2000/svg">
<path fill-rule="evenodd" clip-rule="evenodd" d="M17.7597 7.37155C19.0885 5.87228 21.0498 5 23.2596 5C25.1843 5.00233 27.0296 5.76795 28.3905 7.12893C29.7515 8.48991 30.5171 10.3351 30.5195 12.2598C30.5195 20.2171 18.8806 26.5749 18.3856 26.8422C18.1933 26.9458 17.9782 27 17.7597 27C17.5413 27 17.3262 26.9458 17.1339 26.8422C16.6389 26.5749 5 20.2171 5 12.2598C5.00233 10.3351 5.76795 8.48991 7.12893 7.12893C8.48991 5.76795 10.3351 5.00233 12.2598 5C14.4697 5 16.431 5.87228 17.7597 7.37155Z" fill="#FF6F6F"/>
</svg>
