<svg width="17" height="16" fill="none" xmlns="http://www.w3.org/2000/svg"><path d="M7.383 2a.55.55 0 00-1.1 0v12a.55.55 0 101.1 0V2z" fill="#333" stroke="#333" stroke-width=".1"/><path d="M2.444 5.578l4-4-4 4zm0 0a.55.55 0 000 .777m0-.777v.777m0 0a.55.55 0 00.778 0m-.778 0h.778m0 0l4-4m-4 4l4-4m0 0a.55.55 0 000-.777v.777zm3.494-.322a.55.55 0 10-1.1 0v12a.55.55 0 101.1 0v-12z" fill="#333" stroke="#333" stroke-width=".1"/><path d="M14.555 10.422a.55.55 0 10-.777-.777l-4 4a.55.55 0 10.777.777l4-4z" fill="#333" stroke="#333" stroke-width=".1"/></svg>