<svg width="85" height="85" fill="none" xmlns="http://www.w3.org/2000/svg"><g fill="#2FA9B5"><path d="M19.36 7.57c.916-.994 2.463-1.31 3.7-.768 1.348.553 2.215 2.064 1.988 3.506-.158 1.322-1.194 2.434-2.466 2.778-.002.828-.003 1.658 0 2.488a7.92 7.92 0 014.129 1.717c.061-.065.184-.196.247-.26-.445-1.02-.235-2.325.651-3.039.921-.818 2.439-.795 3.334.052 1 .858 1.087 2.517.224 3.501-.674.797-1.85 1.106-2.824.72-.213-.166-.352.069-.478.191.87 1.05 1.4 2.338 1.668 3.666.437.14.996.02 1.48.055.416-1.33 1.796-2.294 3.2-2.082 1.504.153 2.71 1.627 2.555 3.133-.084 1.529-1.529 2.807-3.058 2.7-1.24-.034-2.324-.95-2.7-2.11-.466-.003-.932 0-1.399-.003a7.975 7.975 0 01-1.748 4.518l2.532 2.53c.976-.591 2.216-.744 3.29-.334a3.723 3.723 0 01-1.986 7.145c-1.357-.239-2.52-1.306-2.888-2.633-.297-1.012-.111-2.121.422-3.021a451.674 451.674 0 00-2.522-2.527 8.152 8.152 0 01-3.863 1.685c0 .593 0 1.186-.002 1.778.75.27 1.45.749 1.836 1.463.666 1.125.475 2.666-.438 3.6-.892.974-2.442 1.242-3.606.617-1.174-.583-1.866-1.978-1.605-3.264.189-1.14 1.09-2.069 2.18-2.406.001-.576 0-1.154.003-1.73-1.586-.134-3.145-.715-4.371-1.74-.835.772-1.616 1.603-2.43 2.398.522.9.705 2.002.393 3.005-.372 1.285-1.508 2.307-2.824 2.541a3.643 3.643 0 01-3.093-.848c-.96-.825-1.421-2.173-1.179-3.415.257-1.5 1.549-2.75 3.06-2.945.86-.141 1.738.08 2.487.506.8-.81 1.63-1.59 2.4-2.428-.833-.995-1.36-2.217-1.63-3.48-.299.003-.598.006-.895.015-.383 1.11-1.497 1.934-2.686 1.862-1.381-.024-2.596-1.26-2.586-2.643-.067-1.474 1.28-2.814 2.752-2.739 1.144-.003 2.148.82 2.532 1.871.254 0 .508 0 .762.002a7.983 7.983 0 011.75-4.755 46.71 46.71 0 00-.802-.803c-.92.456-2.08.431-2.929-.171-1.084-.713-1.532-2.213-1.017-3.404.579-1.512 2.563-2.214 3.96-1.39 1.339.691 1.837 2.483 1.145 3.802.262.273.53.542.796.81 1.19-.936 2.625-1.553 4.133-1.714.003-.829.003-1.655.001-2.482-.89-.268-1.695-.855-2.12-1.693-.662-1.217-.438-2.838.535-3.827zm1.954.667c-1.132.263-1.629 1.797-.862 2.672.769 1.041 2.641.684 2.925-.596.407-1.197-.866-2.468-2.063-2.076zm-8.147 5.777c-.898.23-1.128 1.55-.363 2.072.682.568 1.81.05 1.884-.814.123-.81-.75-1.529-1.52-1.258zm15.606 1.139c-.52.297-.563 1.112-.062 1.447.513.49 1.446.022 1.423-.67.052-.683-.8-1.167-1.361-.777zM17.99 18.43c.47.558 1.063 1.007 1.503 1.59.413.663-.447 1.513-1.106 1.098-.575-.448-1.036-1.022-1.572-1.514a6.482 6.482 0 00-1.277 3.588c.74.026 1.486-.042 2.223.036.752.17.784 1.352.042 1.56-.694.107-1.403.016-2.1.05.22.84.605 1.628 1.108 2.338.535-.488.997-1.052 1.561-1.505.666-.447 1.557.443 1.109 1.11-.447.566-1.014 1.023-1.5 1.556a6.49 6.49 0 003.231 1.256c.009-1.396-.014-2.794.009-4.19-.012-.395.322-.752.71-.788.45-.073.91.308.907.767.026 1.38 0 2.76.011 4.14a6.542 6.542 0 002.697-1.195c-.494-.528-1.058-.993-1.511-1.558-.428-.668.451-1.54 1.114-1.1.564.448 1.024 1.014 1.554 1.5a6.472 6.472 0 001.276-3.35c-.753-.038-1.517.06-2.264-.05-.724-.21-.706-1.356.021-1.548.708-.095 1.425-.02 2.135-.045a6.73 6.73 0 00-1.167-2.567c-.546.495-1.006 1.084-1.597 1.526-.657.372-1.467-.448-1.087-1.1.45-.58 1.027-1.047 1.526-1.583a6.323 6.323 0 00-2.964-1.233c-.028.73.05 1.467-.043 2.194-.19.734-1.348.742-1.549.014-.101-.73-.016-1.475-.046-2.212-1.07.153-2.08.588-2.954 1.215zm15.408 3.357c-.525.186-.893.74-.837 1.299.019.728.76 1.323 1.476 1.193.747-.091 1.285-.918 1.053-1.635-.183-.702-1.016-1.132-1.692-.857zm-23.186 1.229c-.753.219-.963 1.31-.352 1.796.57.55 1.629.175 1.737-.607.17-.76-.66-1.476-1.385-1.19zm.322 8.963c-.801.326-1.341 1.2-1.236 2.065.076 1.061 1.109 1.93 2.168 1.815 1.132-.058 2.04-1.205 1.833-2.321-.156-1.242-1.614-2.08-2.765-1.559zm21.046.118c-.846.373-1.426 1.326-1.245 2.258.154 1.087 1.275 1.916 2.362 1.721 1.18-.14 2.04-1.422 1.714-2.568-.266-1.202-1.709-1.924-2.83-1.411zm-9.964 2.474c-.667.192-1.114.923-.975 1.605.12.795 1.007 1.351 1.775 1.106.784-.196 1.25-1.14.927-1.881-.25-.678-1.046-1.041-1.727-.83zM7.376 8.236c.843-.328 1.81.522 1.587 1.401-.14.899-1.365 1.307-2.014.671-.7-.57-.44-1.824.427-2.072zm60.693 2.221c1.291-.448 2.815-.11 3.785.855 1.83 1.82 3.652 3.651 5.478 5.476a3.745 3.745 0 011.114 2.958c-.093 1.356-.996 2.615-2.25 3.136-1.3.566-2.913.302-3.949-.667-.78-.75-1.532-1.526-2.3-2.29-2.35 2.356-4.702 4.71-7.06 7.06 1.901 1.899 3.799 3.8 5.698 5.697.445.445.923.878 1.217 1.444a3.746 3.746 0 01-.165 3.795c-.77 1.212-2.287 1.885-3.702 1.637-.826-.114-1.565-.56-2.153-1.137-8.133 8.127-16.258 16.261-24.39 24.386-1.17 1.242-3.132 1.627-4.68.907-.99-.43-1.654-1.312-2.418-2.036-1.006.993-1.982 2.016-2.998 2.997-1.196 1.109-3.101 1.228-4.476.378-4.361 4.368-8.726 8.73-13.09 13.094-.389.516-1.289.347-1.438-.286-.171-.526.305-.891.627-1.213 4.25-4.248 8.505-8.492 12.744-12.75-.849-1.375-.73-3.289.39-4.48.98-1.012 1.992-1.993 2.98-3-.727-.773-1.624-1.444-2.042-2.451-.697-1.544-.307-3.483.928-4.642 8.131-8.122 16.244-16.258 24.383-24.37-.572-.612-1.036-1.354-1.143-2.2-.22-1.329.366-2.742 1.448-3.539 1.084-.833 2.64-.974 3.862-.365.665.31 1.153.875 1.665 1.381 1.87 1.866 3.732 3.737 5.603 5.6 2.35-2.354 4.715-4.695 7.05-7.064-.725-.734-1.464-1.456-2.188-2.193a3.714 3.714 0 01-1.012-3.15c.187-1.35 1.188-2.543 2.482-2.968zm.405 1.596c-1.274.471-1.722 2.268-.797 3.27 1.607 1.66 3.272 3.262 4.889 4.911.483.468.925 1.05 1.605 1.229.945.287 2.037-.211 2.444-1.108.394-.788.201-1.798-.433-2.404a2753.816 2753.816 0 00-5.404-5.405c-.58-.61-1.526-.82-2.304-.493zm-16.265 8.154c-.976.293-1.632 1.369-1.42 2.37.095.625.547 1.104.998 1.512 4.415 4.434 8.85 8.854 13.273 13.278.754.777 2.114.8 2.887.038.845-.754.872-2.198.057-2.983-4.53-4.547-9.076-9.08-13.612-13.62-.543-.586-1.416-.849-2.183-.595zM26.995 50.566c-.932.905-.943 2.552-.027 3.471 2.547 2.55 5.097 5.1 7.647 7.647.95 1.011 2.703.988 3.629-.041 8.128-8.117 16.241-16.25 24.373-24.361-.397-.475-.86-.889-1.29-1.332-3.29-3.284-6.57-6.576-9.863-9.856-8.157 8.158-16.316 16.313-24.47 24.472zm-1.709 9.933c-.732.759-.733 2.102.047 2.827.715.837 2.113.86 2.899.106.98-.956 1.935-1.94 2.901-2.913-.98-.98-1.962-1.96-2.941-2.942-.965.978-1.953 1.932-2.906 2.922zm27.75-49.769c.808-.404 1.836.342 1.715 1.23-.043.881-1.159 1.43-1.881.918-.808-.47-.707-1.81.166-2.148zm-12.308 4.93c.839-.472 1.958.355 1.752 1.295-.105.875-1.258 1.343-1.94.779-.721-.495-.61-1.717.188-2.074z"/><path d="M53.637 38.044c.39-.432 1.173-.236 1.338.315.15.372-.065.746-.339.991-4.96 4.953-9.9 9.925-14.872 14.864-.275.319-.792.386-1.122.113-.363-.266-.431-.852-.106-1.176.71-.745 1.457-1.456 2.178-2.195-.694-.758-1.458-1.447-2.161-2.196-.332-.314-.29-.896.064-1.177a.8.8 0 011.084.04c.75.704 1.445 1.468 2.203 2.165.958-1.003 1.971-1.953 2.924-2.959-.72-.725-1.456-1.436-2.165-2.173-.35-.33-.282-.954.111-1.22a.804.804 0 011.036.078c.742.707 1.446 1.454 2.183 2.165.988-.978 1.968-1.964 2.949-2.947-.717-.732-1.465-1.436-2.168-2.18-.372-.347-.276-1.007.157-1.256.297-.188.72-.155.97.1.752.703 1.452 1.463 2.201 2.172 1.189-1.163 2.344-2.362 3.535-3.524zm-36.486 4.532c.867-.367 1.881.536 1.609 1.44-.171.864-1.356 1.24-1.992.63-.7-.558-.469-1.801.383-2.07zm56.306.036c.864-.45 1.963.44 1.704 1.378-.15.862-1.31 1.267-1.964.688-.7-.52-.55-1.735.26-2.066zm-62.1 9.796c2.157-.55 4.528 1 4.905 3.186.448 1.987-.857 4.15-2.813 4.703-1.43.457-3.09.025-4.12-1.065-1.01-1.016-1.403-2.587-.998-3.96.389-1.413 1.599-2.547 3.027-2.864zm.171 1.65c-1.251.362-2.04 1.83-1.603 3.069.358 1.221 1.773 2.003 2.996 1.621 1.242-.327 2.07-1.731 1.704-2.973-.31-1.308-1.82-2.168-3.097-1.716zm47.422.738c.853-.26 1.751.628 1.49 1.484-.185.897-1.447 1.245-2.058.558-.664-.617-.32-1.858.568-2.042zm3.725 7.41c1.71-.288 3.531.13 4.926 1.168 1.404 1.026 2.38 2.627 2.614 4.353.292 1.94-.362 3.988-1.716 5.406a6.529 6.529 0 01-5.251 2.032c-1.963-.138-3.822-1.23-4.916-2.864a6.55 6.55 0 01-.946-5.143c.564-2.514 2.744-4.556 5.289-4.952zm.15 1.631a4.908 4.908 0 00-2.498 1.31c-1.658 1.554-1.962 4.3-.68 6.18 1.205 1.92 3.826 2.76 5.92 1.874 2.191-.832 3.534-3.372 2.957-5.651-.518-2.497-3.203-4.257-5.7-3.712zM8.866 66.325c.825-.448 1.912.337 1.748 1.26-.08.913-1.295 1.41-1.984.794-.69-.517-.555-1.707.236-2.054zm33.694 6.467c.835-.287 1.753.545 1.548 1.403-.125.885-1.313 1.315-1.976.717-.757-.56-.49-1.897.428-2.12z"/></g><path d="M21.315 8.236c1.197-.391 2.47.88 2.063 2.077-.284 1.28-2.156 1.637-2.925.596-.767-.875-.27-2.409.862-2.673zm-8.148 5.775c.77-.27 1.644.448 1.52 1.259-.074.863-1.201 1.38-1.883.813-.766-.521-.535-1.841.363-2.072zm15.607 1.144c.561-.39 1.413.094 1.361.777.023.692-.91 1.16-1.423.67-.5-.335-.458-1.15.062-1.447zm4.626 6.632c.675-.275 1.508.155 1.69.857.233.717-.305 1.544-1.052 1.635-.715.13-1.457-.465-1.476-1.193-.056-.558.313-1.113.837-1.299zm-23.187 1.231c.724-.287 1.556.43 1.385 1.188-.108.782-1.168 1.158-1.737.608-.61-.486-.402-1.577.352-1.796zm16.782 27.548c8.153-8.16 16.313-16.314 24.47-24.472 3.293 3.28 6.574 6.572 9.862 9.856.43.443.894.857 1.29 1.331-8.131 8.112-16.244 16.245-24.372 24.362-.927 1.029-2.68 1.052-3.63.041-2.55-2.546-5.1-5.096-7.646-7.646-.917-.92-.905-2.567.026-3.472zm26.643-12.52c-1.19 1.161-2.346 2.36-3.535 3.524-.749-.71-1.45-1.47-2.201-2.173a.797.797 0 00-.97-.1c-.433.249-.53.91-.158 1.257.704.743 1.451 1.447 2.169 2.18-.982.982-1.961 1.968-2.949 2.946-.737-.71-1.44-1.457-2.183-2.165a.804.804 0 00-1.036-.078c-.393.266-.461.89-.111 1.22.709.738 1.444 1.448 2.165 2.174-.953 1.006-1.966 1.955-2.924 2.958-.758-.697-1.452-1.46-2.203-2.165a.8.8 0 00-1.084-.04c-.354.281-.397.864-.065 1.177.704.75 1.468 1.438 2.162 2.197-.72.739-1.468 1.45-2.178 2.195-.326.323-.258.91.106 1.175.33.274.847.206 1.122-.113 4.972-4.939 9.911-9.911 14.872-14.863.274-.246.488-.62.339-.991-.165-.551-.948-.747-1.338-.316zm-43.103-6.068c1.15-.522 2.608.317 2.764 1.559.208 1.115-.7 2.262-1.833 2.32-1.059.115-2.092-.753-2.168-1.814-.104-.865.435-1.74 1.237-2.065zm21.046.119c1.122-.513 2.565.21 2.83 1.411.328 1.146-.532 2.429-1.713 2.568-1.087.195-2.208-.634-2.362-1.721-.181-.932.398-1.884 1.245-2.258zm-9.964 2.475c.68-.211 1.478.152 1.727.83.323.742-.143 1.685-.927 1.88-.768.246-1.655-.31-1.774-1.105-.14-.682.307-1.413.974-1.605zM11.53 54.059c1.277-.452 2.787.408 3.096 1.717.367 1.241-.461 2.646-1.703 2.973-1.224.382-2.638-.4-2.997-1.622-.437-1.239.352-2.706 1.604-3.068zm51.294 9.778c2.497-.544 5.181 1.216 5.7 3.713.577 2.279-.766 4.82-2.957 5.65-2.094.887-4.715.047-5.92-1.874-1.282-1.879-.978-4.625.68-6.179a4.9 4.9 0 012.497-1.31z" fill="#F1FAF9"/><path d="M68.475 12.052c.779-.327 1.725-.117 2.304.493 1.803 1.8 3.606 3.6 5.404 5.405.634.606.827 1.616.433 2.404-.406.897-1.499 1.395-2.444 1.108-.68-.178-1.122-.76-1.605-1.229-1.617-1.649-3.282-3.25-4.889-4.91-.925-1.004-.477-2.8.797-3.271zM17.991 18.43a6.71 6.71 0 012.954-1.215c.03.737-.055 1.48.046 2.211.2.729 1.36.72 1.549-.013.093-.727.015-1.464.043-2.195a6.322 6.322 0 012.964 1.234c-.499.536-1.076 1.002-1.526 1.582-.38.652.43 1.472 1.087 1.1.591-.441 1.051-1.03 1.597-1.525a6.73 6.73 0 011.167 2.566c-.71.025-1.427-.05-2.135.045-.727.193-.745 1.338-.021 1.55.747.109 1.51.01 2.264.049a6.471 6.471 0 01-1.276 3.35c-.53-.486-.99-1.052-1.554-1.5-.663-.44-1.543.431-1.114 1.1.453.565 1.017 1.03 1.51 1.557a6.544 6.544 0 01-2.696 1.196c-.011-1.38.015-2.761-.011-4.14.003-.46-.457-.84-.907-.768-.388.037-.722.394-.71.789-.024 1.396 0 2.794-.009 4.19a6.49 6.49 0 01-3.23-1.257c.485-.533 1.052-.99 1.499-1.555.448-.668-.443-1.558-1.11-1.111-.564.453-1.025 1.018-1.56 1.506a7.238 7.238 0 01-1.109-2.34c.698-.033 1.407.059 2.1-.05.743-.207.711-1.389-.041-1.558-.737-.078-1.483-.01-2.223-.037a6.483 6.483 0 011.277-3.587c.536.491.998 1.066 1.572 1.514.659.415 1.519-.435 1.106-1.1-.44-.582-1.033-1.03-1.503-1.588zm34.219 1.776c.767-.254 1.64.009 2.183.595 4.535 4.54 9.08 9.072 13.611 13.62.815.785.789 2.229-.056 2.983-.774.762-2.133.738-2.887-.038-4.425-4.425-8.859-8.844-13.273-13.278-.452-.409-.903-.887-.998-1.513-.212-1 .443-2.077 1.42-2.369zm-26.922 40.29c.953-.99 1.94-1.944 2.905-2.922l2.942 2.942c-.966.973-1.92 1.957-2.902 2.914-.785.753-2.183.73-2.898-.107-.78-.725-.779-2.068-.047-2.827z" fill="#fff"/></svg>