<svg width="39" height="38" fill="none" xmlns="http://www.w3.org/2000/svg"><path fill-rule="evenodd" clip-rule="evenodd" d="M30.363 6.717a2.062 2.062 0 012.834 2.235L30.08 27.859c-.302 1.824-2.303 2.87-3.976 1.961-1.399-.76-3.477-1.931-5.346-3.153-.935-.611-3.797-2.57-3.446-3.963.303-1.192 5.113-5.67 7.862-8.332 1.079-1.046.587-1.65-.688-.687-3.165 2.389-8.243 6.021-9.922 7.044-1.482.901-2.254 1.055-3.178.901-1.685-.28-3.248-.714-4.523-1.244-1.723-.714-1.64-3.084-.001-3.774l23.501-9.895z" fill="#333"/></svg>