<svg width="37" height="66" fill="none" xmlns="http://www.w3.org/2000/svg"><path opacity=".959" fill-rule="evenodd" clip-rule="evenodd" d="M3.079 0H31.37c1.413.448 2.334 1.391 2.765 2.83.086 4.457.086 14.916 0 19.374-.482.777-1.146.97-1.993.578-.41-.248-.603-.613-.579-1.093-.043-4.115-.086-14.23-.128-18.345a1.866 1.866 0 00-.58-.58 702.448 702.448 0 00-26.748-.128c-.635.035-1.042.357-1.222.965-.086 14.96-.086 29.921 0 44.882.107.45.386.728.836.836 1.114.064 2.228.085 3.344.064a10.4 10.4 0 01.192-2.572 196.725 196.725 0 013.215-9.26 4.514 4.514 0 012.701-1.671l.129-13.89c.463-2.035 1.75-3.15 3.858-3.343 2.326.183 3.655 1.426 3.986 3.73.065 3.986.086 7.973.065 11.96 2.031-.446 3.596.197 4.694 1.928 2.36-.906 4.181-.263 5.465 1.93a476.4 476.4 0 00.193-11.06c.34-1.243 1.09-1.565 2.25-.965a.897.897 0 01.322.45c.022 3.86.086 7.717.193 11.574 1.44.604 2.275 1.675 2.508 3.215.085 7.845.085 15.69 0 23.535a1.51 1.51 0 01-.708.9H14.01a1.502 1.502 0 01-.707-.9l-.129-6.56a326.407 326.407 0 00-4.694-6.172 108.343 108.343 0 00-5.272-.193C1.484 51.582.477 50.49.185 48.74a4004.26 4004.26 0 010-45.395C.492 1.644 1.457.53 3.08 0zm13.889 21.348c.798.002 1.291.388 1.479 1.157a533.59 533.59 0 00.257 16.461c.481.483 1.06.634 1.736.45.266-.122.46-.315.579-.578.115-.478.244-.95.386-1.415.685-.686 1.371-.686 2.057 0 .148.913.255 1.834.322 2.765.6 1.089 1.394 1.239 2.379.45.16-.46.29-.932.386-1.415.214-.46.578-.675 1.093-.643.583-.02.99.238 1.221.772l.13 2.958c.1.396.336.675.706.836 1.415.215 2.122-.406 2.122-1.865.73-.857 1.458-.857 2.186 0a633.93 633.93 0 01.193 21.99H15.94a49.707 49.707 0 00-.194-6.044 252.322 252.322 0 01-5.787-7.716 3.738 3.738 0 01-.128-1.8l2.829-8.488.514-.514c.006 2.152.091 4.295.257 6.43.482.483 1.06.633 1.736.45.37-.16.607-.44.708-.836l.128-22.505c.228-.42.55-.72.965-.9z" fill="#333"/><path opacity=".939" fill-rule="evenodd" clip-rule="evenodd" d="M16.711 8.36c3.423-.04 6.36 1.118 8.81 3.472.565 1.14.244 1.912-.965 2.314a4.648 4.648 0 01-2.058-1.35c-3.441-2.257-6.914-2.3-10.416-.128l-1.544 1.286c-.83.323-1.451.087-1.864-.708a2.089 2.089 0 010-1.029 10.515 10.515 0 014.18-3.022 16.38 16.38 0 013.857-.836z" fill="#333"/><path opacity=".931" fill-rule="evenodd" clip-rule="evenodd" d="M16.708 13.503c1.657-.046 3.158.404 4.501 1.35.42.334.741.741.965 1.222.038 1.205-.54 1.74-1.736 1.608a12.494 12.494 0 00-1.8-1.158c-.944-.428-1.887-.428-2.83 0a12.49 12.49 0 00-1.8 1.158c-1.03.171-1.63-.257-1.801-1.286.413-1.1 1.185-1.871 2.315-2.315.73-.257 1.458-.45 2.186-.579z" fill="#333"/></svg>