<svg width="61" height="60" fill="none" xmlns="http://www.w3.org/2000/svg"><path opacity=".953" fill-rule="evenodd" clip-rule="evenodd" d="M33.585.082c8.45-.547 15.456 2.334 21.02 8.645 5.857 7.629 7.08 15.958 3.671 24.987a27.094 27.094 0 01-1.717 3.375l3.493 11.191c.12 1.853-.69 2.425-2.427 1.717a358.5 358.5 0 00-7.224-4.974c-.948-.868-.948-1.737 0-2.605a1.757 1.757 0 011.54 0 31.272 31.272 0 004.026 2.605 121.73 121.73 0 01-2.487-8.17l.06-.652c4.018-6.269 4.729-12.9 2.13-19.895-3.222-7.229-8.728-11.59-16.52-13.086-4.044-.585-7.952-.071-11.723 1.54a57.27 57.27 0 00-3.79 2.013c-1.651-.084-2.144-.893-1.48-2.428A24.892 24.892 0 0133.585.082z" fill="#333"/><path opacity=".954" fill-rule="evenodd" clip-rule="evenodd" d="M22.215 9.557c9.001-.54 16.284 2.697 21.848 9.71 5.137 7.461 6.084 15.435 2.843 23.922-3.953 8.523-10.605 13.398-19.954 14.625-5.769.532-11.058-.79-15.87-3.967a643.781 643.781 0 01-8.644 5.862c-1.52.217-2.171-.434-1.954-1.954l3.494-11.191C-.124 39.406-.697 31.965 2.26 24.241c3.98-8.514 10.631-13.408 19.955-14.684zm2.25 2.842c7.925.26 14.024 3.695 18.296 10.303 3.17 5.454 3.88 11.217 2.131 17.29-2.388 6.967-7.065 11.644-14.033 14.033-6.889 1.95-13.244.845-19.066-3.316-.575-.262-1.127-.223-1.657.118a421.321 421.321 0 00-5.507 3.849 192.54 192.54 0 012.368-7.698 3.612 3.612 0 000-1.302c-4.16-6.594-4.752-13.502-1.776-20.724 3.324-6.786 8.713-10.872 16.165-12.257a550.96 550.96 0 013.079-.296z" fill="#333"/><path opacity=".952" fill-rule="evenodd" clip-rule="evenodd" d="M23.162 19.977c4.067-.423 7.048 1.155 8.94 4.737 1.427 3.656.815 6.913-1.835 9.77a66.173 66.173 0 01-3.849 2.546c-.207.325-.326.68-.355 1.066l-.119 2.842c-.531.835-1.261 1.052-2.19.651a2.11 2.11 0 01-.533-.65 21.657 21.657 0 01.118-4.382 5.652 5.652 0 011.244-1.954l3.552-2.25c1.988-2.12 2.284-4.469.888-7.047-1.98-2.522-4.408-3.055-7.283-1.598-1.678 1.244-2.526 2.922-2.546 5.033-.487.807-1.177 1.064-2.072.77-.548-.334-.824-.827-.829-1.48.385-4.332 2.675-7.016 6.869-8.054z" fill="#333"/><path opacity=".929" fill-rule="evenodd" clip-rule="evenodd" d="M23.992 44.609c1.518-.16 2.17.511 1.954 2.013-.433.778-1.084 1.035-1.954.77-.778-.433-1.035-1.084-.77-1.954.2-.339.457-.615.77-.83z" fill="#333"/></svg>