<svg width="80" height="80" fill="none" xmlns="http://www.w3.org/2000/svg"><g fill="#66666A" clip-path="url(#clip0_6710_61182)"><path d="M15.5.25c-.969.5-1.203 1.031-1.25 2.906l-.063 1.688h-6.17c-6.829 0-6.891.015-7.594 1-.344.484-.344.547-.39 6.765l-.048 6.297h75.188l-.047-6.297c-.047-6.218-.047-6.28-.39-6.765-.704-.985-.782-1-7.532-1h-6.11v-1.5c0-1.719-.218-2.36-1-2.922-.671-.484-2.015-.484-2.687 0-.781.562-1 1.203-1 2.922v1.5h-9.375v-1.5c0-1.719-.218-2.36-1-2.922-.672-.484-2.015-.484-2.687 0-.782.562-1 1.203-1 2.922v1.5H32.97v-1.5c0-1.719-.219-2.36-1-2.922-.672-.484-2.016-.484-2.688 0-.781.562-1 1.203-1 2.922v1.5h-9.375v-1.5c0-1.703-.218-2.36-.984-2.906C17.312 0 16.172-.095 15.5.25zm3.406 8.36c0 4.171-.062 4.515-1 5.187-.36.25-.703.344-1.343.344-.641 0-.985-.094-1.344-.344-.938-.672-1-1.016-1-5.188V4.844h4.687v3.765zm14.063 0c0 4.171-.063 4.515-1 5.187-.36.25-.703.344-1.344.344-.64 0-.984-.094-1.344-.344-.937-.672-1-1.016-1-5.188V4.844h4.688v3.765zm14.062 0c0 4.171-.062 4.515-1 5.187-.36.25-.703.344-1.343.344-.641 0-.985-.094-1.344-.344-.938-.672-1-1.016-1-5.188V4.844h4.686v3.765zm14.063 0c0 4.171-.063 4.515-1 5.187-.36.25-.703.344-1.344.344-.64 0-.984-.094-1.344-.344-.937-.672-1-1.016-1-5.188V4.844h4.688v3.765zM0 46.094c0 22.25 0 22.515.313 23.125.203.406.53.734.937.937.61.313.89.313 17.578.313 9.328 0 16.953-.031 16.953-.063 0-.031-.281-.64-.61-1.375-1.25-2.687-1.983-5.86-2.14-9.187-.11-2.344.032-3.89.657-6.703l.406-1.766-.407-.422c-.765-.812-.906-1.703-.406-2.672.36-.718 1.266-1.25 2.078-1.25.5 0 .563-.078 1.266-1.343.422-.735 1.063-1.75 1.438-2.266.374-.5.687-.953.687-1 0-.047-.875-.078-1.953-.078-2.344 0-3-.235-3.516-1.25-.39-.782-.39-1.407 0-2.188.563-1.093 1.094-1.25 4.313-1.25 2.5 0 2.843.032 3.453.328.375.188.766.5.875.72l.203.374.781-.594c1.922-1.53 3.985-2.703 6.36-3.672 2.25-.906 4.187-1.359 7.375-1.734.265-.031-.328-.078-1.297-.094-2.125-.015-2.813-.28-3.313-1.265-.39-.782-.39-1.407 0-2.188.563-1.093 1.094-1.25 4.375-1.25 2.516 0 2.89.032 3.438.313.703.36 1.25 1.25 1.25 2.031 0 .75-.547 1.672-1.219 2.016-.531.28-.547.312-.188.328 1.141.031 4.172.5 5.5.843 3.172.813 6.36 2.344 8.907 4.266.484.375.922.672.969.672.046 0 .093-3.406.093-7.578v-7.578H0v22.5zm22.344-17.5c.703.36 1.25 1.25 1.25 2.031 0 .781-.547 1.672-1.25 2.031-.547.282-.922.313-3.438.313-3.281 0-3.812-.157-4.375-1.25-.39-.782-.39-1.407 0-2.188.563-1.093 1.031-1.234 4.344-1.25 2.563 0 2.922.032 3.469.313zm18.75 0c.703.36 1.25 1.25 1.25 2.031 0 .781-.547 1.672-1.25 2.031-.547.282-.922.313-3.438.313-3.281 0-3.812-.157-4.375-1.25-.39-.782-.39-1.407 0-2.188.563-1.093 1.032-1.234 4.344-1.25 2.563 0 2.922.032 3.469.313zm-18.75 9.375c.703.36 1.25 1.25 1.25 2.031 0 .781-.547 1.672-1.25 2.031-.547.282-.922.313-3.438.313-3.281 0-3.812-.157-4.375-1.25-.39-.782-.39-1.407 0-2.188.563-1.093 1.031-1.234 4.344-1.25 2.563 0 2.922.032 3.469.313zm0 9.375c.703.36 1.25 1.25 1.25 2.031 0 .781-.547 1.672-1.25 2.031-.547.282-.922.313-3.438.313-3.281 0-3.812-.157-4.375-1.25-.39-.782-.39-1.407 0-2.188.563-1.093 1.031-1.234 4.344-1.25 2.563 0 2.922.032 3.469.313zm0 9.375c.703.36 1.25 1.25 1.25 2.031 0 .781-.547 1.672-1.25 2.031-.547.282-.922.313-3.438.313-3.281 0-3.812-.157-4.375-1.25-.39-.782-.39-1.407 0-2.188.563-1.093 1.031-1.234 4.344-1.25 2.563 0 2.922.032 3.469.313z"/><path d="M55.94 38.047c-7.093 1-13.5 5.875-16.312 12.422-2.875 6.672-2.234 14.078 1.734 20.078 1.375 2.078 3.828 4.531 5.907 5.906a21.088 21.088 0 0023.28 0c2.079-1.375 4.532-3.828 5.907-5.906a21.088 21.088 0 000-23.281c-1.375-2.078-3.828-4.532-5.906-5.907-4.344-2.859-9.485-4.03-14.61-3.312zm4.063 9.453c.406.203.734.531.937.938.282.562.313.906.313 4.374v3.75h3.75c3.469 0 3.812.032 4.375.313.703.36 1.25 1.25 1.25 2.031 0 .782-.547 1.672-1.25 2.032-.578.296-.906.312-5.781.312s-5.203-.016-5.782-.313a2.094 2.094 0 01-.937-.937c-.297-.578-.313-.906-.313-5.781s.016-5.203.313-5.782c.578-1.14 1.937-1.546 3.125-.937z"/></g><defs><clipPath id="clip0_6710_61182"><path fill="#fff" d="M0 0h80v80H0z"/></clipPath></defs></svg>