<svg width="60" height="60" fill="none" xmlns="http://www.w3.org/2000/svg"><g clip-path="url(#clip0_814_8848)" fill="#fff"><path d="M11.625.188c-.727.374-.902.773-.938 2.18l-.046 1.265H6.01c-5.12 0-5.167.012-5.695.75-.257.363-.257.41-.293 5.074l-.035 4.723H56.38l-.035-4.723c-.035-4.664-.035-4.71-.293-5.074-.528-.738-.586-.75-5.649-.75H45.82V2.508c0-1.29-.164-1.77-.75-2.192-.504-.363-1.511-.363-2.015 0-.586.422-.75.903-.75 2.192v1.125h-7.032V2.508c0-1.29-.164-1.77-.75-2.192-.504-.363-1.511-.363-2.015 0-.586.422-.75.903-.75 2.192v1.125h-7.031V2.508c0-1.29-.165-1.77-.75-2.192-.504-.363-1.512-.363-2.016 0-.586.422-.75.903-.75 2.192v1.125H14.18V2.508c0-1.278-.164-1.77-.739-2.18C12.984 0 12.13-.07 11.625.188zm2.555 6.269c0 3.129-.047 3.387-.75 3.89-.27.188-.528.258-1.008.258s-.738-.07-1.008-.257c-.703-.504-.75-.762-.75-3.891V3.633h3.516v2.824zm10.547 0c0 3.129-.047 3.387-.75 3.89-.27.188-.528.258-1.008.258s-.739-.07-1.008-.257c-.703-.504-.75-.762-.75-3.891V3.633h3.516v2.824zm10.546 0c0 3.129-.046 3.387-.75 3.89-.27.188-.527.258-1.007.258-.48 0-.739-.07-1.008-.257-.703-.504-.75-.762-.75-3.891V3.633h3.515v2.824zm10.547 0c0 3.129-.047 3.387-.75 3.89-.27.188-.527.258-1.008.258-.48 0-.738-.07-1.007-.257-.703-.504-.75-.762-.75-3.891V3.633h3.515v2.824zM0 34.57c0 16.688 0 16.887.234 17.344.153.305.399.55.704.703.457.235.667.235 13.183.235 6.996 0 12.715-.024 12.715-.047 0-.024-.211-.48-.457-1.032-.938-2.015-1.488-4.394-1.606-6.89-.082-1.758.024-2.918.493-5.028l.304-1.324-.304-.316c-.575-.61-.68-1.278-.305-2.004.27-.54.95-.938 1.559-.938.375 0 .421-.058.949-1.007.316-.551.797-1.313 1.078-1.7.281-.375.515-.714.515-.75 0-.035-.656-.058-1.464-.058-1.758 0-2.25-.176-2.637-.938-.293-.586-.293-1.054 0-1.64.422-.82.82-.938 3.234-.938 1.875 0 2.133.024 2.59.246.281.14.574.375.656.54l.153.28.586-.445c1.441-1.148 2.988-2.027 4.77-2.754 1.687-.68 3.14-1.02 5.53-1.3.2-.024-.246-.059-.972-.07-1.594-.012-2.11-.212-2.485-.95-.293-.586-.293-1.055 0-1.64.422-.82.82-.938 3.282-.938 1.886 0 2.168.023 2.578.234.527.27.937.938.937 1.524 0 .562-.41 1.254-.914 1.511-.398.211-.41.235-.14.247.855.023 3.129.375 4.125.632 2.379.61 4.77 1.758 6.68 3.2.363.28.69.503.726.503.035 0 .07-2.554.07-5.683v-5.684H0V34.57zm16.758-13.125c.527.27.937.938.937 1.524 0 .586-.41 1.254-.937 1.523-.41.211-.692.235-2.578.235-2.461 0-2.86-.118-3.282-.938-.293-.586-.293-1.055 0-1.64.422-.82.774-.926 3.258-.938 1.922 0 2.192.023 2.602.234zm14.062 0c.528.27.938.938.938 1.524 0 .586-.41 1.254-.938 1.523-.41.211-.691.235-2.578.235-2.46 0-2.86-.118-3.281-.938-.293-.586-.293-1.055 0-1.64.422-.82.773-.926 3.258-.938 1.922 0 2.191.023 2.601.234zm-14.062 7.032c.527.27.937.937.937 1.523 0 .586-.41 1.254-.937 1.523-.41.211-.692.235-2.578.235-2.461 0-2.86-.117-3.282-.938-.293-.586-.293-1.054 0-1.64.422-.82.774-.926 3.258-.938 1.922 0 2.192.024 2.602.235zm0 7.03c.527.27.937.938.937 1.524 0 .586-.41 1.254-.937 1.524-.41.21-.692.234-2.578.234-2.461 0-2.86-.117-3.282-.937-.293-.586-.293-1.055 0-1.641.422-.82.774-.926 3.258-.938 1.922 0 2.192.024 2.602.235zm0 7.032c.527.27.937.938.937 1.523 0 .586-.41 1.254-.937 1.524-.41.21-.692.234-2.578.234-2.461 0-2.86-.117-3.282-.937-.293-.586-.293-1.055 0-1.64.422-.821.774-.927 3.258-.938 1.922 0 2.192.023 2.602.234z"/><path d="M41.953 28.535c-5.32.75-10.125 4.406-12.234 9.317-2.157 5.004-1.676 10.558 1.3 15.058 1.032 1.559 2.872 3.399 4.43 4.43a15.816 15.816 0 0017.461 0c1.559-1.031 3.399-2.871 4.43-4.43a15.816 15.816 0 000-17.46c-1.031-1.56-2.871-3.4-4.43-4.43-3.258-2.145-7.113-3.024-10.957-2.485zM45 35.625c.305.152.55.398.703.703.211.422.234.68.234 3.281v2.813h2.813c2.602 0 2.86.023 3.281.234.528.27.938.938.938 1.524 0 .586-.41 1.254-.938 1.523-.433.223-.68.234-4.336.234s-3.902-.011-4.336-.234a1.57 1.57 0 01-.703-.703c-.222-.434-.234-.68-.234-4.336s.012-3.902.234-4.336c.434-.855 1.453-1.16 2.344-.703z"/></g><defs><clipPath id="clip0_814_8848"><path fill="#fff" d="M0 0h60v60H0z"/></clipPath></defs></svg>