<svg width="112" height="70" fill="none" xmlns="http://www.w3.org/2000/svg"><g clip-path="url(#clip0_1116_11438)"><path d="M21.915 0h27.93c3.9 0 6.324 3.177 5.415 7.089L42.257 62.92c-.919 3.898-4.823 7.08-8.723 7.08H5.606C1.71 70-.719 66.818.19 62.921L13.199 7.089C14.11 3.177 18.009 0 21.915 0z" fill="#E21836"/><path d="M47.522 0h32.122c3.897 0 2.14 3.177 1.222 7.089l-13 55.832C66.953 66.818 67.235 70 63.33 70H31.21c-3.906 0-6.323-3.182-5.407-7.079L38.806 7.089C39.728 3.177 43.623 0 47.523 0z" fill="#00447C"/><path d="M78.369 0h27.941c3.904 0 6.329 3.177 5.412 7.089L98.712 62.92c-.921 3.898-4.827 7.08-8.729 7.08H62.065c-3.907 0-6.33-3.182-5.415-7.079L69.653 7.089C70.564 3.177 74.462 0 78.369 0z" fill="#007B84"/><path d="M29.212 17.883c-2.874.03-3.726 0-3.992-.062-.104.497-2.042 9.438-2.05 9.438-.417 1.809-.72 3.098-1.738 3.93-.578.48-1.31.734-2.061.718-1.275 0-2.017-.634-2.141-1.833l-.023-.41s.388-2.424.388-2.437c0-.012 2.029-8.137 2.384-9.212a.744.744 0 00.03-.125c-3.96.035-4.66 0-4.72-.062-.027.087-.124.591-.124.591l-2.076 9.19-.171.773-.346 2.549a3.743 3.743 0 00.445 1.892c.946 1.654 3.644 1.903 5.171 1.903 1.967 0 3.813-.417 5.06-1.182 2.166-1.28 2.732-3.28 3.229-5.055l.248-.912s2.09-8.452 2.45-9.563a.336.336 0 01.037-.131zm7.128 6.828a5.526 5.526 0 00-2.258.53c-.3.153-.583.332-.884.496l.27-.979-.148-.164c-1.759.355-2.151.405-3.776.634l-.136.09a47.875 47.875 0 01-1.056 5.814 323.507 323.507 0 01-.82 3.405l.075.144a41.357 41.357 0 013.617-.064l.116-.127c.184-.941.209-1.163.616-3.07.192-.904.591-2.889.788-3.597a2.668 2.668 0 011.058-.333c.81 0 .713.708.68.994-.035.474-.33 2.02-.633 3.346l-.201.857c-.142.633-.296 1.242-.437 1.875l.062.124a39.745 39.745 0 013.542-.064l.164-.127c.248-1.47.328-1.863.777-4.004l.226-.994c.44-1.927.658-2.903.328-3.698-.353-.867-1.195-1.08-1.97-1.08v-.008zm7.966 2.014c-.872.17-1.428.281-1.987.353-.559.072-1.08.166-1.925.283l-.067.062-.06.048c-.09.628-.149 1.17-.266 1.808-.116.638-.248 1.41-.496 2.484a9.86 9.86 0 01-.398 1.403c-.174.451-.32.912-.44 1.381l.053.075.042.07c.787-.038 1.301-.065 1.83-.07.53-.005 1.079 0 1.928 0l.072-.06.08-.067c.124-.73.141-.929.216-1.284.074-.355.203-.912.516-2.328.15-.665.313-1.326.467-2.004.154-.678.328-1.341.497-2.005l-.022-.081-.04-.068zm.017-2.717c-.792-.467-2.183-.318-3.117.328-.934.646-1.04 1.53-.248 2.004.792.475 2.176.32 3.102-.332.926-.654 1.046-1.528.263-1.992v-.008zm4.794 10.832c1.602 0 3.247-.442 4.471-1.753.951-1.064 1.389-2.646 1.54-3.297.497-2.16.11-3.166-.373-3.782-.745-.937-2.024-1.242-3.363-1.242-.807 0-2.732.08-4.222 1.46-1.076.994-1.575 2.352-1.876 3.649-.3 1.297-.65 3.703 1.538 4.588a6.4 6.4 0 002.285.385v-.008zm-.127-4.858c.37-1.635.808-3.008 1.92-3.008.875 0 .937 1.02.55 2.663-.07.362-.388 1.716-.82 2.295-.3.424-.656.683-1.05.683-.118 0-.813 0-.826-1.036.015-.537.091-1.07.226-1.59v-.007zm10.157 4.647l.127-.127c.176-.941.206-1.162.598-3.067.199-.904.606-2.891.798-3.6a2.64 2.64 0 011.063-.332c.805 0 .708.708.675.993a32.372 32.372 0 01-.633 3.346l-.191.857c-.147.634-.306 1.242-.447 1.875l.062.125a39.695 39.695 0 013.537-.065l.169-.127c.248-1.47.315-1.865.777-4.004l.221-.993c.44-1.925.663-2.901.338-3.696-.363-.89-1.21-1.105-1.975-1.105a5.509 5.509 0 00-2.258.529c-.293.154-.588.332-.879.496l.248-.976-.136-.166c-1.759.358-2.159.405-3.783.633l-.124.09a49.418 49.418 0 01-1.056 5.814 321.641 321.641 0 01-.82 3.406l.075.144a51.55 51.55 0 013.614-.043v-.007zm12.096.065c.102-.497.718-3.5.723-3.5.005 0 .524-2.196.556-2.275.09-.125.201-.234.328-.32h.249c2.287 0 4.868 0 6.892-1.491a7.344 7.344 0 002.733-4.362 6.595 6.595 0 00.188-1.52 3.187 3.187 0 00-.548-1.937c-1.031-1.446-3.088-1.47-5.465-1.49h-1.17c-3.037.037-4.255.024-4.754-.035-.042.22-.122.613-.122.613s-1.087 5.042-1.087 5.05c0 .007-2.606 10.72-2.733 11.227 2.665-.003 3.758-.003 4.21.047v-.007zm2.015-8.957l1.152-5.013.038-.248.014-.196.462.047 2.442.211c.941.363 1.331 1.302 1.06 2.529a3.68 3.68 0 01-1.907 2.516c-.77.385-1.711.417-2.68.417h-.628l.047-.263zm7.203 4.337c-.306 1.304-.658 3.683 1.52 4.533a4.247 4.247 0 001.95.35 3.197 3.197 0 001.858-.852l-.154.594.1.129c1.564-.067 2.05-.067 3.747-.055l.154-.117c.249-1.458.482-2.871 1.126-5.658.315-1.336.628-2.658.95-3.974l-.051-.147c-1.739.326-2.22.393-3.905.634l-.13.104-.051.395A2.4 2.4 0 0086.348 25c-.745-.296-2.511.084-4.024 1.462-1.063.979-1.575 2.328-1.863 3.62v-.008zm3.678.08c.376-1.605.808-2.964 1.923-2.964.708 0 1.078.65.994 1.761-.06.278-.125.571-.202.9-.111.479-.233.95-.35 1.425-.1.294-.24.574-.415.832a1.923 1.923 0 01-1.363.66c-.112 0-.8 0-.825-1.015a7.072 7.072 0 01.239-1.592v-.008zm19.221-5.301l-.135-.157c-1.738.353-2.049.407-3.64.624l-.118.116c0 .02-.012.047-.02.075v-.027c-1.187 2.732-1.152 2.145-2.116 4.301 0-.099 0-.16-.012-.263l-.249-4.67-.151-.156c-1.816.353-1.86.407-3.537.624l-.132.116c-.013.06-.022.122-.027.184v.025c.168.834.292 1.676.37 2.524.097.83.229 1.664.325 2.483.167 1.371.249 2.047.462 4.141-1.132 1.868-1.4 2.576-2.483 4.223v.014l-.77 1.215a.568.568 0 01-.279.248 1.119 1.119 0 01-.496.072h-.425l-.631 2.104 2.168.038c1.275 0 2.074-.602 2.507-1.401l1.363-2.338h-.022l.144-.166c.919-1.967 7.904-13.942 7.904-13.942v-.007zm-22.9 27.635h-.92l3.407-11.257h1.13l.358-1.16.035 1.292c-.042.797.586 1.505 2.235 1.388h1.906l.658-2.17h-.718c-.413 0-.604-.105-.581-.329l-.035-1.314h-3.532c-1.14.025-4.55.11-5.241.294a6.21 6.21 0 00-1.717.85l.348-1.163H74.49l-.688 2.312-3.453 11.426h-.67l-.656 2.153H75.6l-.218.72h3.228l.214-.72h.912l.725-2.322zm-2.699-8.98c-.515.17-1.02.367-1.513.592l.875-2.881h2.625l-.633 2.099a8.463 8.463 0 00-1.354.19zm.05 4.114s-.825.104-1.366.226c-.526.193-1.04.418-1.538.673l.904-2.995h2.638l-.638 2.096zm-1.47 4.89h-2.634l.763-2.528h2.625l-.755 2.529zm6.34-6.986h3.793l-.531 1.766h-3.858l-.578 1.93h3.365l-2.548 3.586c-.12.197-.302.349-.517.433a1.518 1.518 0 01-.683.196h-.931l-.644 2.114h2.442a2.982 2.982 0 002.573-1.334l1.739-2.392.375 2.429a1.135 1.135 0 00.628.822c.256.18.546.304.852.365.385.018.661.03.845.03h1.2l.72-2.367h-.475c-.27 0-.745-.045-.817-.132a1.213 1.213 0 01-.124-.497l-.38-2.431H87.57l.683-.815h3.837l.589-1.93h-3.552l.554-1.766h3.542l.656-2.178H83.327l-.645 2.17zM50.64 53.005l.886-2.946h3.64l.665-2.191h-3.654l.557-1.813h3.559l.66-2.124h-8.909l-.646 2.124h2.032l-.539 1.813h-2.03l-.672 2.235h2.022l-1.18 3.9c-.16.514.074.713.223.951a.993.993 0 00.651.477c.305.08.619.122.934.127h4.103l.733-2.427-1.82.249c-.358-.008-1.332-.05-1.225-.375h.01zm.417-14.104l-.921 1.667c-.123.27-.306.507-.537.693-.26.108-.543.152-.825.127h-.479l-.646 2.13h1.6a3.622 3.622 0 001.642-.422c.303-.16.382-.069.616-.295l.539-.467h4.992l.663-2.22h-3.663l.636-1.213h-3.617zm7.37 14.158c-.085-.124-.025-.34.106-.787l1.364-4.516h4.854c.707 0 1.217-.02 1.55-.042a3.23 3.23 0 001.167-.395c.349-.18.642-.45.85-.782a6.706 6.706 0 00.836-1.898l1.714-5.713-5.034.03c-.756.107-1.503.268-2.236.482a9.077 9.077 0 00-1.672 1.068l.455-1.568h-3.122l-4.364 14.434a8.882 8.882 0 00-.284 1.212c0 .264.333.524.554.723.261.196.646.164 1.016.196.37.033.942.048 1.704.048h2.392l.733-2.484-2.141.203a.565.565 0 01-.452-.22l.01.01zm2.34-8.35h5.099l-.326.993a3.335 3.335 0 00-.673 0h-4.414l.313-.993zm1.02-3.408h5.142l-.36 1.212s-2.422-.025-2.81.047a5.73 5.73 0 00-2.704 1.207l.732-2.466zm3.868 7.824a.549.549 0 01-.201.313.994.994 0 01-.522.092h-.725l.042-1.242h-3.02l-.125 6.048c0 .435.038.688.358.89.318.248 1.301.285 2.628.285h1.893l.683-2.263-1.65.09-.546.032a.638.638 0 01-.226-.142c-.07-.07-.186-.027-.169-.462l.015-1.55 1.739-.072a2.235 2.235 0 001.674-.593c.29-.274.484-.634.554-1.026l.288-1.374H65.97l-.315.974z" fill="#FEFEFE"/></g><defs><clipPath id="clip0_1116_11438"><path fill="#fff" d="M0 0h111.905v70H0z"/></clipPath></defs></svg>