<svg width="56" height="36" fill="none" xmlns="http://www.w3.org/2000/svg"><g clip-path="url(#clip0_3843_48856)"><path d="M10.957.5h13.966c1.95 0 3.162 1.588 2.707 3.544l-6.5 27.916c-.46 1.95-2.412 3.54-4.362 3.54H2.803C.855 35.5-.36 33.91.095 31.96L6.6 4.044C7.055 2.088 9.005.5 10.957.5z" fill="#E21836"/><path d="M23.761.5h16.06c1.95 0 1.071 1.588.612 3.544l-6.5 27.916c-.456 1.95-.315 3.54-2.268 3.54h-16.06c-1.953 0-3.162-1.59-2.703-3.54l6.501-27.916C19.864 2.088 21.811.5 23.761.5z" fill="#00447C"/><path d="M39.184.5h13.97c1.953 0 3.165 1.588 2.707 3.544L49.356 31.96c-.46 1.95-2.413 3.54-4.364 3.54h-13.96c-1.953 0-3.164-1.59-2.707-3.54l6.502-27.916C35.282 2.088 37.23.5 39.184.5z" fill="#007B84"/><path d="M14.606 9.441c-1.437.015-1.863 0-1.996-.03-.052.248-1.02 4.719-1.025 4.719-.208.904-.36 1.548-.869 1.964-.29.24-.655.368-1.03.36-.638 0-1.01-.317-1.071-.917l-.011-.205.193-1.218c0-.007 1.015-4.069 1.193-4.607a.364.364 0 00.014-.062c-1.98.018-2.33 0-2.36-.03a6.772 6.772 0 00-.061.295l-1.039 4.595-.085.386-.173 1.274c-.01.33.066.656.222.947.474.827 1.822.951 2.586.951.984 0 1.907-.209 2.53-.591 1.083-.64 1.366-1.64 1.614-2.527l.125-.456s1.044-4.227 1.224-4.782a.167.167 0 01.019-.066zm3.564 3.414a2.78 2.78 0 00-1.129.265c-.15.077-.292.167-.442.248l.136-.489-.075-.082c-.88.178-1.076.203-1.888.317l-.068.044a23.89 23.89 0 01-.528 2.908c-.133.566-.27 1.137-.41 1.703l.037.072a20.638 20.638 0 011.809-.033l.058-.063c.092-.47.104-.581.308-1.535.096-.452.296-1.444.394-1.798.163-.092.343-.149.529-.167.405 0 .356.354.34.497-.017.237-.165 1.01-.317 1.673l-.1.428c-.07.317-.148.621-.219.938l.031.062c.82-.043 1.07-.043 1.771-.032l.082-.064c.124-.735.164-.931.389-2.002l.113-.496c.22-.964.33-1.452.164-1.85-.176-.433-.597-.54-.985-.54v-.004zm3.983 1.008c-.436.084-.714.14-.994.176-.279.036-.54.083-.962.142l-.034.03-.03.024c-.044.315-.074.585-.132.904-.059.32-.125.706-.249 1.242a4.92 4.92 0 01-.198.702c-.087.226-.16.456-.22.69l.026.038.021.035c.394-.02.65-.033.915-.035.265-.003.54 0 .964 0l.036-.03.04-.034c.062-.365.07-.464.108-.642.037-.177.102-.455.258-1.163.075-.333.157-.664.234-1.002.077-.34.164-.671.248-1.003l-.011-.04-.02-.034zm.009-1.359c-.396-.233-1.092-.159-1.559.164-.467.323-.52.765-.124 1.002s1.088.16 1.551-.166c.463-.327.523-.764.132-.996v-.004zm2.397 5.416c.8 0 1.623-.221 2.235-.877.476-.531.694-1.322.77-1.648.248-1.08.055-1.583-.186-1.891-.373-.468-1.012-.621-1.682-.621-.403 0-1.366.04-2.111.73-.538.497-.788 1.176-.938 1.825-.15.648-.325 1.851.769 2.293a3.2 3.2 0 001.143.193v-.004zm-.064-2.43c.185-.816.404-1.503.96-1.503.437 0 .469.51.275 1.331-.035.182-.194.858-.41 1.148-.15.212-.328.341-.525.341-.059 0-.407 0-.413-.518.008-.268.046-.535.113-.794v-.004zm5.078 2.324l.064-.063c.088-.47.103-.581.3-1.534.098-.452.302-1.445.398-1.8a1.32 1.32 0 01.531-.166c.403 0 .354.354.338.497a16.186 16.186 0 01-.317 1.673l-.095.428c-.073.317-.153.622-.224.938l.031.062a19.81 19.81 0 011.769-.032l.084-.063c.125-.736.158-.933.389-2.002l.11-.497c.22-.963.332-1.45.17-1.848-.182-.445-.605-.553-.988-.553a2.76 2.76 0 00-1.129.265c-.146.077-.294.166-.44.248l.125-.488-.069-.083c-.879.179-1.079.202-1.891.317l-.062.044c-.118.98-.294 1.95-.528 2.908-.133.566-.27 1.137-.41 1.702l.038.072a25.84 25.84 0 011.806-.02v-.005zm6.049.033c.05-.249.359-1.75.361-1.75.003 0 .262-1.098.278-1.138a.658.658 0 01.164-.16h.124c1.144 0 2.435 0 3.447-.745a3.673 3.673 0 001.366-2.18 3.3 3.3 0 00.094-.76 1.593 1.593 0 00-.274-.97c-.516-.722-1.544-.735-2.732-.745h-.585c-1.52.019-2.128.013-2.377-.017l-.061.307-.544 2.524c0 .004-1.303 5.36-1.366 5.614 1.332-.001 1.879-.001 2.105.023v-.003zm1.007-4.479l.576-2.506.019-.124.007-.098.231.024 1.221.105c.47.181.666.65.53 1.264a1.839 1.839 0 01-.953 1.258c-.386.193-.856.21-1.34.21h-.315l.024-.133zm3.602 2.169c-.153.652-.33 1.842.76 2.266.306.135.64.195.974.175.348-.036.675-.186.93-.426l-.078.297.05.065a28.65 28.65 0 011.874-.027l.077-.059c.124-.729.241-1.436.563-2.829.157-.668.314-1.329.475-1.987l-.026-.073c-.869.162-1.11.196-1.952.316l-.065.053-.026.197a1.2 1.2 0 00-.613-.505c-.373-.148-1.256.042-2.012.731-.532.49-.788 1.164-.931 1.81v-.004zm1.839.04c.187-.803.403-1.482.961-1.482.354 0 .539.325.497.88-.03.14-.062.286-.1.45-.057.24-.117.476-.176.713-.05.147-.12.287-.207.416a.963.963 0 01-.682.33c-.056 0-.4 0-.413-.508.01-.269.05-.536.12-.796v-.003zm9.61-2.65l-.067-.079c-.87.176-1.025.204-1.82.312l-.06.058c0 .01-.005.024-.01.037v-.013c-.593 1.366-.575 1.073-1.057 2.15 0-.049 0-.08-.007-.13l-.124-2.336-.075-.078c-.908.176-.93.204-1.769.312l-.066.058a.617.617 0 00-.014.092v.012c.085.418.146.839.186 1.262.048.415.114.832.162 1.242.083.686.124 1.023.231 2.07-.566.934-.7 1.288-1.242 2.112v.007l-.385.607a.284.284 0 01-.139.125.565.565 0 01-.248.036h-.212l-.316 1.052 1.084.018c.637 0 1.037-.3 1.253-.7l.682-1.169h-.011l.072-.083c.46-.984 3.952-6.971 3.952-6.971v-.004zM40.23 26.743h-.46l1.704-5.628h.565l.179-.58.017.645c-.021.399.293.753 1.118.695h.952l.33-1.086h-.36c-.206 0-.301-.052-.29-.164l-.018-.657h-1.766c-.57.013-2.275.055-2.62.147-.306.096-.596.24-.858.425l.174-.582h-1.652l-.344 1.157-1.726 5.712h-.336l-.328 1.077H37.8l-.11.36h1.615l.107-.36h.456l.362-1.161zm-1.35-4.49c-.257.085-.51.184-.756.296l.437-1.44h1.313l-.317 1.049a4.22 4.22 0 00-.677.095zm.025 2.057s-.412.052-.683.113c-.263.096-.52.209-.769.337l.453-1.498h1.319l-.32 1.048zm-.735 2.445h-1.316l.38-1.264h1.314l-.378 1.264zm3.17-3.493h1.897l-.266.883h-1.928l-.29.965h1.683l-1.274 1.793a.526.526 0 01-.258.216.758.758 0 01-.342.098h-.466l-.321 1.057h1.22a1.49 1.49 0 001.287-.667l.87-1.196.187 1.215a.568.568 0 00.314.411c.128.09.273.152.426.183.193.008.33.014.422.014h.6l.36-1.183h-.237c-.135 0-.372-.022-.408-.066a.605.605 0 01-.062-.248l-.19-1.216h-.78l.342-.407h1.92l.294-.965h-1.776l.276-.883h1.771l.328-1.09h-5.275l-.323 1.086zm-16.02 3.74l.443-1.474h1.82l.333-1.095h-1.827l.278-.907h1.78l.33-1.062h-4.455l-.323 1.062h1.016l-.27.907h-1.014l-.337 1.118h1.011l-.59 1.95c-.08.257.038.356.112.475a.499.499 0 00.326.239c.152.04.309.06.466.063h2.052l.366-1.213-.91.124c-.179-.004-.665-.025-.612-.188h.005zm.209-7.052l-.461.833a.948.948 0 01-.269.347.87.87 0 01-.412.063h-.24l-.322 1.065h.8c.286-.004.567-.076.82-.21.152-.081.192-.035.308-.148l.27-.234h2.496l.332-1.11h-1.832l.318-.606h-1.808zm3.684 7.079c-.042-.063-.012-.17.054-.394l.682-2.258h2.426c.354 0 .609-.01.775-.021a1.63 1.63 0 00.584-.197 1.09 1.09 0 00.425-.392 3.35 3.35 0 00.418-.948l.857-2.857-2.517.015a7.943 7.943 0 00-1.118.24 4.537 4.537 0 00-.836.535l.227-.784h-1.56l-2.183 7.217a4.45 4.45 0 00-.141.606c0 .132.166.262.277.362.13.098.323.081.508.098.185.016.47.023.852.023h1.196l.366-1.242-1.07.102a.284.284 0 01-.227-.11l.005.005zm1.17-4.176h2.55l-.163.497a1.674 1.674 0 00-.336 0h-2.207l.156-.497zm.51-1.704h2.572l-.18.606s-1.211-.012-1.405.024c-.496.08-.963.287-1.353.604l.367-1.234zm1.934 3.912a.274.274 0 01-.1.157.497.497 0 01-.261.046h-.363l.021-.621h-1.51l-.062 3.024c0 .217.019.344.179.445.159.124.65.142 1.314.142h.946l.342-1.131-.825.045-.273.016a.32.32 0 01-.113-.07c-.035-.036-.093-.015-.084-.232l.007-.775.87-.036a1.12 1.12 0 00.836-.297.927.927 0 00.277-.513l.144-.686h-1.187l-.158.486z" fill="#FEFEFE"/></g><defs><clipPath id="clip0_3843_48856"><path fill="#fff" transform="translate(0 .5)" d="M0 0h55.953v35H0z"/></clipPath></defs></svg>