<svg width="21" height="20" fill="none" xmlns="http://www.w3.org/2000/svg"><path d="M10.499 13.333a.807.807 0 01-.594-.24.803.803 0 01-.24-.593V6.542L8.103 8.104a.8.8 0 01-.583.25c-.223 0-.424-.09-.605-.27a.774.774 0 01-.239-.594.82.82 0 01.24-.573l3-3a.726.726 0 01.27-.177.944.944 0 01.625 0 .74.74 0 01.271.177l3 3a.777.777 0 01.24.594.808.808 0 01-.24.572.852.852 0 01-.594.261.771.771 0 01-.593-.24l-1.563-1.562V12.5c0 .236-.08.434-.24.594a.803.803 0 01-.593.24zm-5 3.334c-.459 0-.851-.164-1.178-.49A1.602 1.602 0 013.832 15v-1.667c0-.236.08-.434.24-.594.16-.16.358-.24.593-.239.236 0 .435.08.595.24.16.16.24.358.239.593V15h10v-1.667c0-.236.08-.434.24-.594a.8.8 0 01.593-.239c.236 0 .434.08.594.24.16.16.24.358.24.593V15c0 .458-.164.85-.49 1.177-.327.327-.72.49-1.177.49h-10z" fill="#333"/></svg>