<svg width="24" height="24" fill="none" xmlns="http://www.w3.org/2000/svg"><g fill="#333"><path d="M12 1.5A10.5 10.5 0 1022.5 12 10.512 10.512 0 0012 1.5zM5.791 19.394a7.14 7.14 0 0112.418 0 9.64 9.64 0 01-12.418 0zm13.052-.583a7.94 7.94 0 00-4.674-3.57 4.62 4.62 0 10-4.338 0 7.94 7.94 0 00-4.674 3.57 9.66 9.66 0 1113.686 0zM12 14.94a3.78 3.78 0 110-7.56 3.78 3.78 0 010 7.56z"/><path fill-rule="evenodd" clip-rule="evenodd" d="M12 1.2a10.812 10.812 0 0110.8 10.799A10.8 10.8 0 1112 1.2zM22.5 12A10.5 10.5 0 1112 1.5 10.512 10.512 0 0122.5 12zM5.79 19.392a9.639 9.639 0 0012.418 0 7.14 7.14 0 00-12.417 0zm12.029-.069a6.842 6.842 0 00-11.639 0 9.339 9.339 0 0011.639 0zm.86-.775c.056.086.11.173.163.262a9.66 9.66 0 10-13.686 0 7.94 7.94 0 014.674-3.57 4.62 4.62 0 114.339 0 7.941 7.941 0 014.51 3.308zm.212-.223a9.36 9.36 0 10-13.783 0 8.24 8.24 0 014.016-3.172 4.92 4.92 0 115.75 0 8.24 8.24 0 014.017 3.172zm-8.825-4.273a3.48 3.48 0 103.867-5.787 3.48 3.48 0 00-3.867 5.787zm-.167.25a3.78 3.78 0 104.2-6.287 3.78 3.78 0 00-4.2 6.286z"/></g></svg>