<svg width="24" height="24" fill="none" xmlns="http://www.w3.org/2000/svg"><g fill-rule="evenodd" clip-rule="evenodd" fill="#333"><path d="M2.8 4.35c-.884 0-1.6.806-1.6 1.8v1.086C3.047 7.824 4.4 9.734 4.4 12s-1.353 4.176-3.2 4.764v1.086c0 .994.716 1.8 1.6 1.8h18.4c.884 0 1.6-.806 1.6-1.8v-1.086c-1.847-.588-3.2-2.498-3.2-4.764s1.353-4.176 3.2-4.764V6.15c0-.994-.716-1.8-1.6-1.8H2.8zM24 8.4V6.15C24 4.41 22.746 3 21.2 3H2.8C1.254 3 0 4.41 0 6.15V8.4c1.767 0 3.2 1.612 3.2 3.6S1.767 15.6 0 15.6v2.25C0 19.59 1.254 21 2.8 21h18.4c1.546 0 2.8-1.41 2.8-3.15V15.6c-1.767 0-3.2-1.612-3.2-3.6s1.433-3.6 3.2-3.6z"/><path d="M7.877 7.877a1.286 1.286 0 111.818 1.818 1.286 1.286 0 01-1.818-1.818zm8.435-.189a.643.643 0 010 .91l-7.715 7.714a.643.643 0 11-.909-.91l7.715-7.714a.643.643 0 01.909 0zm-2.007 6.617a1.286 1.286 0 111.818 1.82 1.286 1.286 0 01-1.818-1.82z"/></g></svg>