<svg width="24" height="24" fill="none" xmlns="http://www.w3.org/2000/svg"><g fill-rule="evenodd" clip-rule="evenodd" fill="#333"><path d="M11.76 2.35L9.82 6.063c-.264.507-.75.86-1.313.955l-4.131.697 2.932 2.992c.4.409.586.98.502 1.545l-.613 4.144 3.752-1.864a1.825 1.825 0 011.624 0l3.752 1.864-.614-4.144a1.825 1.825 0 01.502-1.545l2.932-2.992-4.13-.697a1.825 1.825 0 01-1.315-.955L11.76 2.35zm.515-1.702a.58.58 0 00-1.029 0l-2.528 4.84a.58.58 0 01-.418.303L2.916 6.7a.58.58 0 00-.318.979l3.822 3.9a.58.58 0 01.16.49l-.8 5.402a.58.58 0 00.833.605l4.89-2.43a.581.581 0 01.516 0l4.89 2.43a.58.58 0 00.833-.605l-.8-5.401a.58.58 0 01.16-.492l3.821-3.9a.58.58 0 00-.318-.978l-5.384-.91a.58.58 0 01-.418-.303L12.275.647z"/><path d="M12.382 17.621c.343 0 .622.279.622.622v4.646a.622.622 0 11-1.244 0v-4.646c0-.343.278-.622.622-.622zm-7.011-5.358a.622.622 0 01-.213.854l-3.983 2.39a.622.622 0 01-.64-1.067l3.983-2.39a.622.622 0 01.853.213zM6.845 4.48a.622.622 0 01-.88.007L2.756 1.323A.622.622 0 013.63.437L6.839 3.6a.622.622 0 01.006.88zm9.941 0a.622.622 0 00.88.007l3.209-3.164A.622.622 0 0020 .437L16.792 3.6a.622.622 0 00-.006.88zm1.476 7.783a.622.622 0 00.213.854l3.983 2.39a.622.622 0 00.64-1.067l-3.983-2.39a.622.622 0 00-.853.213z"/></g></svg>