<svg width="24" height="24" fill="none" xmlns="http://www.w3.org/2000/svg"><g fill="#333"><path d="M12 20.456a1.088 1.088 0 01-.798-.329l-7.79-7.79a5.25 5.25 0 01.206-7.622 5.063 5.063 0 013.76-1.266 5.653 5.653 0 013.656 1.66l.965.965 1.163-1.162a5.25 5.25 0 017.622.206 5.06 5.06 0 011.265 3.76 5.653 5.653 0 01-1.66 3.656l-7.593 7.593c-.213.21-.498.327-.797.329zM7.03 4.19a4.303 4.303 0 00-2.915 1.087 4.49 4.49 0 00-.169 6.525l7.79 7.8a.375.375 0 00.526 0L19.865 12c1.772-1.772 1.931-4.631.356-6.384a4.49 4.49 0 00-6.525-.169l-1.434 1.425a.366.366 0 01-.525 0l-1.238-1.237A4.931 4.931 0 007.03 4.19z"/><path fill-rule="evenodd" clip-rule="evenodd" d="M12.797 20.128a1.144 1.144 0 01-1.229.247 1.088 1.088 0 01-.364-.247l-7.791-7.79a5.25 5.25 0 01.206-7.622A5.062 5.062 0 017.38 3.45a5.653 5.653 0 013.656 1.66l.965.965 1.163-1.162a5.25 5.25 0 017.622.206 5.064 5.064 0 011.265 3.76 5.653 5.653 0 01-1.659 3.656l-1.807 1.807-4.166 4.166-1.62 1.62zm7.805-7.38l-7.594 7.595a1.444 1.444 0 01-1.004.414m-1.014-.418L3.2 12.55a5.55 5.55 0 01.219-8.057 5.368 5.368 0 013.98-1.342 5.953 5.953 0 013.848 1.747l.753.753.95-.95a5.55 5.55 0 018.058.218 5.367 5.367 0 011.342 3.98 5.955 5.955 0 01-1.748 3.849M7.031 4.49h-.003a4.003 4.003 0 00-2.712 1.011 4.19 4.19 0 00-.157 6.089l7.789 7.798a.075.075 0 00.104 0l7.602-7.6c1.67-1.671 1.803-4.35.345-5.972a4.192 4.192 0 00-6.09-.158v.001l-1.433 1.423a.665.665 0 01-.952 0l-1.236-1.236A4.631 4.631 0 007.031 4.49zm3.47 1.144l1.237 1.237a.366.366 0 00.525 0l1.434-1.425a4.49 4.49 0 016.525.169c1.575 1.753 1.416 4.613-.356 6.384l-6.322 6.322-1.281 1.282a.375.375 0 01-.525 0l-7.79-7.8a4.49 4.49 0 01.168-6.525A4.303 4.303 0 017.032 4.19 4.931 4.931 0 0110.5 5.635z"/><path d="M13.544 18.322l-1.71 1.35a.375.375 0 00.429-.069l1.281-1.28zm5.04-3.98l-4.166 4.166 6.184-5.76-2.018 1.594zm-6.175 6.038a1.145 1.145 0 01-.84-.005 1.088 1.088 0 01-.342-.223l-.237.187c.194.162.668.472 1.014.418l.405-.378z"/></g></svg>