<svg xmlns="http://www.w3.org/2000/svg" width="24" height="24" fill="none"><path d="M10.65.352C10.2.45 2.461 3.22 2.086 3.412 1.396 3.764.792 4.548.581 5.345.46 5.804.478 6.487.62 6.96c.253.825 4.51 12.675 4.645 12.937.225.436.811.994 1.284 1.233a3.14 3.14 0 002.363.188l.36-.117.076.285c.14.493.389.91.802 1.318.412.412.73.61 1.289.782l.351.108h4.594c4.336 0 4.608-.004 4.875-.084.91-.281 1.542-.82 1.94-1.65.329-.68.31-.173.31-7.852 0-7.626.019-7.157-.286-7.818-.356-.779-.975-1.336-1.824-1.636l-.375-.132-3.065-.023-3.061-.023-.431-1.196c-.235-.656-.492-1.312-.567-1.453-.193-.351-.82-.97-1.172-1.158-.638-.333-1.463-.46-2.077-.318zm1.186.75c.15.042.38.13.51.201.32.169.784.633.938.938.099.196.825 2.17.825 2.24 0 .01-.464.019-1.026.019-.713 0-1.14.023-1.397.07-1.12.211-2.067 1.12-2.358 2.255-.089.352-.094.548-.094 6.98v6.623l-.267.094c-.614.22-.928.262-1.369.197-.675-.108-1.382-.596-1.682-1.163C5.77 19.28 1.355 6.928 1.27 6.558c-.21-.919.286-2.035 1.107-2.47.304-.16.36-.183 4.162-1.533 1.495-.535 3.014-1.074 3.37-1.2.357-.132.727-.253.82-.272.277-.066.812-.056 1.107.019zm9.206 4.218c.844.225 1.538.961 1.692 1.8.066.343.066 13.636 0 13.978-.117.629-.6 1.28-1.176 1.585-.549.295-.352.286-5.175.286-4.814 0-4.683.004-5.199-.272a2.381 2.381 0 01-1.2-1.744c-.06-.469-.06-13.219 0-13.687.09-.699.591-1.435 1.186-1.744.544-.281.3-.267 5.166-.267 3.717-.005 4.495.01 4.706.065z" fill="#333"/><path d="M14.002 10.547a2.194 2.194 0 00-1.402.83c-.525.693-.6 1.565-.197 2.367.094.192.54.665 1.936 2.067.994 1.003 1.86 1.842 1.917 1.866.08.028.155.023.263-.029.084-.042.947-.872 1.908-1.842 1.832-1.842 1.959-1.997 2.104-2.531.08-.314.066-.886-.042-1.219a2.177 2.177 0 00-2.372-1.504c-.558.08-.876.248-1.406.754l-.352.333-.403-.39c-.46-.44-.815-.627-1.317-.702-.356-.052-.328-.052-.637 0zm.923.834c.15.07.403.277.755.619.698.68.66.68 1.354.01.647-.629.844-.732 1.364-.737.32 0 .418.02.643.132.52.257.81.717.806 1.298 0 .614 0 .614-1.847 2.461l-1.64 1.64-1.594-1.593c-1.829-1.824-1.875-1.89-1.875-2.494 0-.366.065-.576.262-.862.145-.211.483-.455.74-.54.263-.088.75-.056 1.032.066z" fill="#333"/></svg>