<svg width="24" height="24" fill="none" xmlns="http://www.w3.org/2000/svg"><path fill-rule="evenodd" clip-rule="evenodd" d="M9.36 3.404H3.78a.375.375 0 00-.376.375v5.58c0 .208.168.376.375.376h5.58a.375.375 0 00.376-.375V3.78a.375.375 0 00-.375-.376zM3.78 2.28a1.5 1.5 0 00-1.5 1.5v5.58a1.5 1.5 0 001.5 1.5h5.58a1.5 1.5 0 001.5-1.5V3.78a1.5 1.5 0 00-1.5-1.5H3.78zM19.5 3.404h-5.58a.375.375 0 00-.375.375v5.58c0 .208.168.376.375.376h5.58a.375.375 0 00.375-.375V3.78a.375.375 0 00-.375-.376zM13.92 2.28a1.5 1.5 0 00-1.5 1.5v5.58a1.5 1.5 0 001.5 1.5h5.58a1.5 1.5 0 001.5-1.5V3.78a1.5 1.5 0 00-1.5-1.5h-5.58zM9.36 13.545H3.78a.375.375 0 00-.376.375v5.58c0 .207.168.375.375.375h5.58a.375.375 0 00.376-.375v-5.58a.375.375 0 00-.375-.375zM3.78 12.42a1.5 1.5 0 00-1.5 1.5v5.58a1.5 1.5 0 001.5 1.5h5.58a1.5 1.5 0 001.5-1.5v-5.58a1.5 1.5 0 00-1.5-1.5H3.78z" fill="#333"/><g clip-path="url(#clip0_7707_19805)"><path fill-rule="evenodd" clip-rule="evenodd" d="M14.856 12.597a4.174 4.174 0 014.92 6.383l1.589 1.59a.563.563 0 01-.796.795l-1.59-1.59a4.175 4.175 0 11-4.123-7.178zm1.597.807a3.049 3.049 0 100 6.098 3.049 3.049 0 000-6.098z" fill="#333"/></g><defs><clipPath id="clip0_7707_19805"><path fill="#fff" transform="translate(12.03 12.03)" d="M0 0h8.938v8.938H0z"/></clipPath></defs></svg>