<svg width="24" height="24" fill="none" xmlns="http://www.w3.org/2000/svg"><g fill="#333"><path d="M19.5 3.375h-2.625V2.25a.375.375 0 10-.75 0v1.125h-8.25V2.25a.375.375 0 10-.75 0v1.125H4.5A1.125 1.125 0 003.375 4.5v15A1.125 1.125 0 004.5 20.625h15a1.125 1.125 0 001.125-1.125v-15A1.125 1.125 0 0019.5 3.375zm-15 .75h2.625V5.25a.375.375 0 10.75 0V4.125h8.25V5.25a.375.375 0 10.75 0V4.125H19.5a.375.375 0 01.375.375v3.375H4.125V4.5a.375.375 0 01.375-.375zm15 15.75h-15a.375.375 0 01-.375-.375V8.625h15.75V19.5a.375.375 0 01-.375.375z"/><path fill-rule="evenodd" clip-rule="evenodd" d="M17.1 3.15h2.4a1.35 1.35 0 011.35 1.35v15a1.35 1.35 0 01-1.35 1.35h-15a1.35 1.35 0 01-1.35-1.35v-15A1.35 1.35 0 014.5 3.15h2.4v-.9a.6.6 0 111.2 0v.9h7.8v-.9a.6.6 0 111.2 0v.9zM6.9 4.35H4.5a.15.15 0 00-.15.15v3.15h15.3V4.5a.15.15 0 00-.15-.15h-2.4v.9a.6.6 0 11-1.2 0v-.9H8.1v.9a.6.6 0 11-1.2 0v-.9zm-2.4 15.3h15a.15.15 0 00.15-.15V8.85H4.35V19.5a.15.15 0 00.15.15zm15-16.275A1.125 1.125 0 0120.625 4.5v15a1.125 1.125 0 01-1.125 1.125h-15A1.125 1.125 0 013.375 19.5v-15A1.125 1.125 0 014.5 3.375h2.625V2.25a.375.375 0 11.75 0v1.125h8.25V2.25a.375.375 0 11.75 0v1.125H19.5zm-15 .75a.375.375 0 00-.375.375v3.375h15.75V4.5a.375.375 0 00-.375-.375h-2.625V5.25a.375.375 0 11-.75 0V4.125h-8.25V5.25a.375.375 0 01-.75 0V4.125H4.5zm0 15.75h15a.375.375 0 00.375-.375V8.625H4.125V19.5a.375.375 0 00.375.375z"/><path fill-rule="evenodd" clip-rule="evenodd" d="M15.29 11.589c.227.212.24.568.028.795l-3.938 4.219a.563.563 0 01-.809.013l-1.969-1.968a.562.562 0 11.796-.796l1.557 1.557 3.54-3.793a.563.563 0 01.795-.027z"/></g></svg>