<svg width="24" height="24" fill="none" xmlns="http://www.w3.org/2000/svg"><g fill-rule="evenodd" clip-rule="evenodd" fill="#333"><path d="M11.667 1.875a.708.708 0 00-.709.708v6.5a.709.709 0 00.709.709h7.583c.1 0 .195.04.265.11l2.61 2.61v-9.93a.708.708 0 00-.708-.708h-9.75zm-1.031-.323a1.458 1.458 0 011.03-.427h9.75a1.458 1.458 0 011.459 1.458v10.834a.375.375 0 01-.64.265l-3.14-3.14h-7.428a1.458 1.458 0 01-1.459-1.459v-6.5c0-.386.154-.757.428-1.03zM4.083 9.458a.708.708 0 00-.708.709v9.928l2.61-2.61c.07-.07.166-.11.265-.11h7.583a.708.708 0 00.709-.708V14.5a.375.375 0 01.75 0v2.167a1.459 1.459 0 01-1.459 1.458H6.405l-3.14 3.14a.375.375 0 01-.64-.265V10.167a1.458 1.458 0 011.458-1.459H6.25a.375.375 0 010 .75H4.083z"/><path d="M10.477 1.393A1.683 1.683 0 0111.667.9h9.75A1.683 1.683 0 0123.1 2.584v10.833a.6.6 0 01-1.024.424l-3.074-3.074h-7.335a1.683 1.683 0 01-1.683-1.683v-6.5c0-.447.177-.875.493-1.19zm1.19-.043a1.233 1.233 0 00-1.233 1.234v6.5a1.233 1.233 0 001.233 1.233h7.428c.06 0 .117.024.16.066l3.14 3.14a.15.15 0 00.255-.106V2.584a1.233 1.233 0 00-1.233-1.234h-9.75zm0 .75a.483.483 0 00-.483.484v6.5a.483.483 0 00.483.483h7.583a.6.6 0 01.425.176l2.225 2.226V2.584a.483.483 0 00-.483-.484h-9.75zm-.66-.176a.933.933 0 01.66-.274h9.75a.933.933 0 01.933.934v9.928a.225.225 0 01-.384.159l-2.61-2.61a.15.15 0 00-.106-.044h-7.583a.933.933 0 01-.933-.933v-6.5c0-.248.098-.485.273-.66zM2.893 8.977a1.683 1.683 0 011.19-.493H6.25a.6.6 0 010 1.2H4.084a.483.483 0 00-.484.483v9.385l2.226-2.226.16.16-.16-.16a.6.6 0 01.424-.176h7.584a.483.483 0 00.483-.483V14.5a.6.6 0 111.2 0v2.167a1.683 1.683 0 01-1.683 1.683H6.499l-3.074 3.075-.16-.16.16.16A.6.6 0 012.4 21V10.167c0-.446.178-.875.493-1.19zm1.19-.043a1.233 1.233 0 00-1.233 1.233V21a.15.15 0 00.256.107l3.14-3.14a.225.225 0 01.16-.067h7.428a1.233 1.233 0 001.233-1.233V14.5a.15.15 0 10-.3 0v2.167a.933.933 0 01-.933.933H6.25a.15.15 0 00-.106.044l-2.61 2.61a.225.225 0 01-.384-.159v-9.928a.933.933 0 01.934-.933H6.25a.15.15 0 100-.3H4.084z"/></g></svg>