<svg width="80" height="80" fill="none" xmlns="http://www.w3.org/2000/svg"><g fill="#66666A" clip-path="url(#clip0_6710_61170)"><path d="M76.563.313c-.297.156-3.704 3.453-7.579 7.328l-7.015 7.03-1.11-1.077c-1.765-1.688-2.718-1.688-4.453.078l-1.015 1.015 4.968 4.954 4.953 4.968 1.016-1.015c1.766-1.735 1.766-2.688.078-4.453l-1.078-1.11 7.031-7.015c3.875-3.875 7.172-7.297 7.344-7.61.375-.75.375-1.39-.016-2.156-.578-1.125-2-1.547-3.124-.937zM47.969 15.797c-.375.125-1.313.922-3.203 2.797l-2.657 2.64 2.688 2.703c2.953 3 3.203 3.375 2.875 4.61-.219.781-1.031 1.547-1.797 1.687-1.094.22-1.578-.109-4.438-2.937l-2.687-2.672-1.64 1.625-1.641 1.64 2.64 2.657c1.453 1.453 2.72 2.812 2.813 3 .094.187.172.64.172 1.016 0 1.718-1.797 2.828-3.328 2.062-.282-.14-1.657-1.406-3.078-2.813l-2.579-2.562-1.64 1.64-1.625 1.641 2.75 2.782c2.328 2.343 2.765 2.859 2.86 3.374.233 1.235-.548 2.485-1.735 2.75-1.172.266-1.5.047-4.36-2.812-1.453-1.453-2.718-2.656-2.812-2.656-.203 0-3.203 3-3.203 3.203 0 .203 16.281 16.484 16.484 16.484.094 0 5.797-5.64 12.688-12.547 13.765-13.78 13.14-13.062 12.718-14.53-.171-.563-1.156-1.61-6.937-7.423-3.719-3.718-6.953-6.89-7.219-7.062a2.77 2.77 0 00-2.11-.297zm9.811 27.031c-1.157.61-1.516 2.234-.985 4.5.422 1.75 1.11 2.906 2.765 4.656.829.875 1.547 1.72 1.61 1.907.156.484-.313 1.218-1.703 2.672-2.157 2.265-2.907 4.203-2.907 7.53v1.844h23.439v-1.765c-.016-3.484-.719-5.313-3.047-7.766-.797-.843-1.5-1.672-1.547-1.843-.172-.532.188-1.141 1.469-2.438 2.031-2.094 2.875-3.844 3.063-6.406.093-1.11.062-1.36-.235-1.938a2.198 2.198 0 00-.953-.968c-.594-.297-.89-.313-10.5-.313-9.531.016-9.906.031-10.469.328zm-40.599 3.344l-1.625 1.625-1.109-1.063c-1.453-1.422-2.36-1.61-3.547-.781-.86.625-1.172 1.984-.687 2.922.281.515 20.5 20.703 20.984 20.953 1.016.516 2.469 0 3.031-1.078.594-1.11.313-1.985-1.093-3.36l-.953-.937 1.671-1.672 1.688-1.688-8.281-8.28c-4.547-4.563-8.313-8.282-8.36-8.282-.047 0-.812.734-1.718 1.64zm-8.2 14.922l-3.266 3.265-.968-.937c-1.47-1.406-2.25-1.64-3.422-1.078C.185 62.89-.3 64.25.23 65.375c.125.266 3.39 3.64 7.234 7.469 6.188 6.187 7.047 6.984 7.579 7.094 1.234.218 2.437-.5 2.796-1.672.282-.954-.03-1.688-1.203-2.922l-1-1.047 3.282-3.281 3.265-3.282-4.969-4.968-4.953-4.953-3.281 3.28zm47.582 13.281c0 3.469.03 3.813.312 4.375.203.406.531.734.938.938.593.296.906.312 10.468.312 9.563 0 9.875-.016 10.469-.313.406-.203.734-.53.938-.937.28-.563.312-.906.312-4.375v-3.75H56.562v3.75z"/></g><defs><clipPath id="clip0_6710_61170"><path fill="#fff" d="M0 0h80v80H0z"/></clipPath></defs></svg>