<svg width="60" height="60" fill="none" xmlns="http://www.w3.org/2000/svg"><g clip-path="url(#clip0_814_8760)" fill="#fff"><path d="M57.422.234c-.223.118-2.777 2.59-5.684 5.496l-5.261 5.274-.832-.809c-1.325-1.265-2.04-1.265-3.34.059l-.762.762 3.727 3.714 3.714 3.727.762-.762c1.324-1.3 1.324-2.015.059-3.34l-.809-.832 5.273-5.261c2.907-2.907 5.38-5.473 5.508-5.707.282-.563.282-1.043-.011-1.617-.434-.844-1.5-1.16-2.344-.704zM35.977 11.848c-.282.093-.985.691-2.403 2.097l-1.992 1.98 2.016 2.028c2.215 2.25 2.402 2.531 2.156 3.457-.164.586-.773 1.16-1.348 1.266-.82.164-1.183-.082-3.328-2.203l-2.015-2.004-1.231 1.218-1.23 1.231 1.98 1.992c1.09 1.09 2.04 2.11 2.11 2.25.07.14.128.48.128.762a1.724 1.724 0 01-2.496 1.547c-.21-.106-1.242-1.055-2.308-2.11l-1.934-1.922-1.23 1.231-1.22 1.23 2.063 2.086c1.746 1.758 2.075 2.145 2.145 2.532.176.925-.41 1.863-1.3 2.062-.88.2-1.126.035-3.27-2.11-1.09-1.09-2.04-1.991-2.11-1.991-.152 0-2.402 2.25-2.402 2.402 0 .152 12.21 12.363 12.363 12.363.07 0 4.348-4.23 9.516-9.41 10.324-10.336 9.855-9.797 9.539-10.898-.13-.422-.867-1.207-5.203-5.567-2.79-2.789-5.215-5.168-5.414-5.297a2.077 2.077 0 00-1.582-.222zm7.359 20.273c-.867.457-1.137 1.676-.738 3.375.316 1.313.832 2.18 2.074 3.492.621.657 1.16 1.29 1.207 1.43.117.363-.234.914-1.277 2.004-1.618 1.7-2.18 3.152-2.18 5.648v1.383H60V48.13c-.012-2.613-.54-3.984-2.285-5.824-.598-.633-1.125-1.254-1.16-1.383-.13-.399.14-.856 1.101-1.828 1.524-1.57 2.157-2.883 2.297-4.805.07-.832.047-1.02-.176-1.453a1.648 1.648 0 00-.715-.727c-.445-.222-.667-.234-7.874-.234-7.149.012-7.43.023-7.852.246zM12.89 34.629l-1.218 1.219-.832-.797c-1.09-1.067-1.77-1.207-2.66-.586-.645.469-.88 1.488-.516 2.191.211.387 15.375 15.528 15.738 15.715.762.387 1.852 0 2.274-.809.445-.832.234-1.488-.82-2.52l-.715-.702 1.254-1.254 1.265-1.266-6.21-6.21c-3.41-3.422-6.235-6.212-6.27-6.212-.035 0-.61.551-1.29 1.23zM6.738 45.82L4.29 48.27l-.726-.704c-1.102-1.054-1.688-1.23-2.567-.808a1.716 1.716 0 00-.82 2.273c.094.2 2.543 2.73 5.426 5.602 4.64 4.64 5.285 5.238 5.683 5.32.926.164 1.828-.375 2.098-1.254.21-.715-.024-1.265-.902-2.191l-.75-.785 2.46-2.461 2.45-2.461-3.727-3.727L9.2 43.36l-2.46 2.46zm35.684 9.961c0 2.602.023 2.86.234 3.282.153.304.399.55.703.703.446.222.68.234 7.852.234 7.172 0 7.406-.012 7.852-.234a1.57 1.57 0 00.703-.703c.21-.422.234-.68.234-3.282V52.97H42.422v2.812z"/></g><defs><clipPath id="clip0_814_8760"><path fill="#fff" d="M0 0h60v60H0z"/></clipPath></defs></svg>