<svg xmlns="http://www.w3.org/2000/svg" width="80" height="81" fill="none"><g clip-path="url(#clip0_9495_44221)"><path d="M3.795 1.351C1.887 2.355 1.6 3.215 1.682 7.6c.062 3.359.062 3.38.656 4.137.8 1.065 1.641 1.516 3.036 1.68l1.19.143v4.792l-1.395.103c-2.318.163-4.04 1.352-4.882 3.338-.246.594-.287 2.97-.287 14.87 0 10.53.062 14.38.246 15.015.328 1.127 2.03 2.827 3.159 3.154.636.185 4.78.246 16.348.246h15.486l1.087-.573c1.231-.635 2.318-1.905 2.646-3.073.123-.491.206-5.694.206-14.604 0-15.752.061-15.096-1.642-16.796-1.107-1.106-2.46-1.618-4.245-1.618h-1.087v-4.855l1.23-.123c1.498-.164 2.195-.491 3.036-1.454.82-.942.902-1.454.82-5.387l-.061-3.298-.615-.778C35.28.9 36.407 1.003 19.486 1.003c-13.332.02-15.138.062-15.691.348zm30.213 2.97c.267.267.37 4.957.124 5.572-.123.287-1.58.327-14.523.327-10.933 0-14.46-.061-14.645-.245-.349-.349-.349-5.305 0-5.654.349-.348 28.696-.348 29.044 0zm-4.881 11.635v2.458H9.846v-4.916h19.28v2.458zm6.133 6.165c.246.225.533.655.656.942.103.287.185 4.609.185 10.119v9.606H3.056l.062-10.057.061-10.057.575-.491.574-.492h15.24c15.179 0 15.22 0 15.692.43zm.636 25.993c0 2.52-.226 3.236-1.129 3.646-.39.184-4.307.246-15.404.246H4.472l-.698-.697-.697-.696V45.86h32.819v2.253z" fill="#8F959A"/><path d="M18.612 26.087c-.622.487-.808 1.187-.808 2.882v1.717h-1.866c-2.178 0-2.696.318-2.696 1.568 0 1.208.726 1.61 2.82 1.61h1.742v1.781c0 2.077.414 2.882 1.472 2.882 1.389 0 1.845-.805 1.845-3.2v-1.462h1.762c1.618 0 1.825-.043 2.281-.53.622-.636.663-1.356.083-2.098-.394-.53-.518-.551-2.26-.551h-1.825l-.082-1.929c-.083-1.801-.125-1.992-.664-2.437-.622-.55-1.285-.636-1.804-.233z" fill="#8F959A"/><rect x="33.789" y="71.387" width="17.104" height="27.202" rx="4" transform="rotate(-135 33.79 71.387)" fill="#fff"/><path d="M13.163 80.44c.317.299.745.56.97.56.465 0 3.896-3.188 9.862-9.21l4.009-4.01 1.398 1.343c.783.746 1.753 1.51 2.163 1.716 1.044.503 2.983.596 4.232.186.933-.298 1.697-1.025 13.387-12.678l12.4-12.38.726.652c.765.671 2.182 1.193 3.189 1.193 1.305 0 2.573-.56 3.542-1.547 1.063-1.1 1.398-1.958 1.398-3.617 0-1.622-.615-2.704-2.535-4.512-.858-.802-1.566-1.53-1.566-1.623 0-.093 1.883-2.05 4.176-4.344l4.195-4.195 1.697 1.622c1.734 1.66 2.181 1.865 2.983 1.436.56-.298.783-1.25.466-1.94-.168-.335-3.617-3.933-7.7-7.998-7.085-7.066-7.458-7.402-8.11-7.402-.896 0-1.436.522-1.436 1.399 0 .578.205.876 1.584 2.293l1.567 1.64-4.27 4.27-4.288 4.289-1.716-1.716c-2.032-1.995-2.61-2.312-4.27-2.442-2.088-.15-3.84.895-4.754 2.853-.82 1.734-.466 4.027.82 5.37l.485.503-12.324 12.361c-13.666 13.704-12.92 12.81-12.92 15.4 0 1.66.577 2.872 2.18 4.513l1.25 1.305-6.544 6.563c-4.307 4.307-6.6 6.73-6.675 7.066-.112.41-.019.616.429 1.082zM25.58 58.665c.15-.28 3.71-3.934 7.887-8.11l7.626-7.608 4.94 4.848 4.923 4.829-4.102 4.139c-6.545 6.6-11.746 11.522-12.287 11.671-.261.056-.802.056-1.193-.018-.578-.094-1.25-.671-4.382-3.785l-3.673-3.692v-.876c0-.503.112-1.119.261-1.398zM54.685 39.05l4.847 4.848-3.319 3.3-3.3 3.319-4.847-4.848-4.848-4.847 3.3-3.3 3.319-3.32 4.847 4.848zm-5.37-12.212c.298-.28.727-.597.988-.69 1.119-.429 1.25-.317 9.472 7.924l7.868 7.887v.839c0 1.324-.914 2.219-2.275 2.219-.56 0-1.305-.709-8.577-7.98l-7.98-7.962v-.857c0-.69.094-.97.504-1.38zm20.975-3.3l2.48 2.46-4.195 4.196c-2.312 2.312-4.27 4.195-4.382 4.195-.093 0-1.249-1.063-2.554-2.368l-2.387-2.386 4.289-4.289 4.288-4.288 2.461 2.48z" fill="#8F959A"/></g><defs><clipPath id="clip0_9495_44221"><path fill="#fff" transform="translate(0 .5)" d="M0 0h80v80H0z"/></clipPath></defs></svg>