<svg width="150" height="100" fill="none" xmlns="http://www.w3.org/2000/svg"><mask id="a" style="mask-type:luminance" maskUnits="userSpaceOnUse" x="17" y="31" width="116" height="38"><path d="M76.983 43.281c-.066 5.19 4.625 8.087 8.16 9.81 3.63 1.766 4.85 2.9 4.836 4.48-.027 2.418-2.896 3.485-5.582 3.526-4.684.073-7.407-1.264-9.573-2.276l-1.687 7.896c2.172 1.002 6.195 1.875 10.367 1.913 9.791 0 16.197-4.833 16.232-12.328.038-9.51-13.156-10.037-13.066-14.289.032-1.289 1.262-2.664 3.957-3.014 1.334-.177 5.017-.312 9.192 1.611l1.639-7.64c-2.245-.817-5.131-1.6-8.724-1.6-9.217 0-15.7 4.899-15.751 11.911zm40.223-11.253c-1.788 0-3.295 1.043-3.968 2.643L99.251 68.07h9.785l1.947-5.381h11.957l1.129 5.38h8.624l-7.525-36.04h-7.962zm1.368 9.736l2.824 13.533h-7.733l4.909-13.533zm-53.455-9.736l-7.712 36.04h9.324l7.709-36.04h-9.32zm-13.793 0l-9.705 24.53L37.696 35.7c-.461-2.328-2.28-3.672-4.3-3.672H17.53l-.221 1.046c3.256.707 6.957 1.847 9.199 3.067 1.372.744 1.763 1.396 2.214 3.166l7.435 28.762h9.854l15.106-36.041h-9.791z" fill="#fff"/></mask><g mask="url(#a)"><path d="M5.227 35.82L118.915-6.05l25.863 70.231L31.091 106.05" fill="url(#paint0_linear_1116_11375)"/></g><defs><linearGradient id="paint0_linear_1116_11375" x1="27.762" y1="67.498" x2="125.006" y2="31.684" gradientUnits="userSpaceOnUse"><stop stop-color="#222357"/><stop offset="1" stop-color="#254AA5"/></linearGradient></defs></svg>