<svg width="75" height="50" fill="none" xmlns="http://www.w3.org/2000/svg"><mask id="a" style="mask-type:luminance" maskUnits="userSpaceOnUse" x="10" y="16" width="56" height="18"><path d="M38.614 21.712c-.032 2.488 2.218 3.877 3.912 4.703 1.741.847 2.326 1.39 2.32 2.148-.014 1.16-1.39 1.672-2.677 1.691-2.246.035-3.552-.606-4.59-1.091l-.81 3.786c1.042.48 2.971.899 4.971.917 4.695 0 7.767-2.317 7.784-5.91.018-4.561-6.309-4.814-6.265-6.852.015-.618.604-1.278 1.897-1.446.64-.084 2.406-.15 4.408.773l.785-3.664c-1.076-.392-2.46-.767-4.183-.767-4.42 0-7.527 2.35-7.552 5.712zM57.9 16.316c-.857 0-1.58.5-1.902 1.267l-6.707 16.014h4.692l.934-2.58h5.733l.541 2.58h4.135l-3.608-17.281H57.9zm.657 4.668l1.353 6.49h-3.708l2.355-6.49zm-25.632-4.668l-3.698 17.281h4.47l3.697-17.281h-4.469zm-6.614 0l-4.653 11.762-1.883-10.001c-.22-1.117-1.093-1.761-2.061-1.761h-7.608l-.106.501c1.562.34 3.336.886 4.41 1.47.659.358.847.67 1.063 1.52l3.565 13.79h4.725l7.243-17.281h-4.695z" fill="#fff"/></mask><g mask="url(#a)"><path d="M4.205 18.133L58.718-1.942 71.12 31.733 16.607 51.809" fill="url(#paint0_linear_3843_48836)"/></g><defs><linearGradient id="paint0_linear_3843_48836" x1="15.011" y1="33.323" x2="61.639" y2="16.15" gradientUnits="userSpaceOnUse"><stop stop-color="#222357"/><stop offset="1" stop-color="#254AA5"/></linearGradient></defs></svg>