<svg width="60" height="40" fill="none" xmlns="http://www.w3.org/2000/svg"><mask id="a" style="mask-type:luminance" maskUnits="userSpaceOnUse" x="6" y="12" width="48" height="16"><path d="M30.793 17.313c-.026 2.076 1.85 3.234 3.264 3.923 1.452.707 1.94 1.16 1.934 1.792-.01.968-1.158 1.394-2.232 1.411-1.874.03-2.963-.506-3.83-.91l-.674 3.158c.869.4 2.478.75 4.146.765 3.917 0 6.48-1.933 6.493-4.931.016-3.804-5.262-4.015-5.226-5.716.012-.515.504-1.065 1.583-1.205.533-.071 2.007-.125 3.677.644l.655-3.056c-.898-.327-2.052-.64-3.49-.64-3.686 0-6.28 1.96-6.3 4.765zm16.089-4.502a1.7 1.7 0 00-1.587 1.058L39.7 27.227h3.914l.779-2.152h4.783l.451 2.152h3.45l-3.01-14.416h-3.185zm.547 3.895l1.13 5.413h-3.093l1.963-5.413zM26.047 12.81l-3.085 14.416h3.73l3.084-14.416h-3.729zm-5.517 0l-3.882 9.813-1.57-8.344c-.184-.931-.912-1.469-1.72-1.469H7.012l-.089.419c1.303.282 2.783.738 3.68 1.226.549.298.705.559.885 1.267l2.975 11.504h3.941l6.043-14.416H20.53z" fill="#fff"/></mask><g mask="url(#a)"><path d="M2.09 14.328L47.565-2.42l10.346 28.093L12.436 42.42" fill="url(#paint0_linear_14667_57116)"/></g><defs><linearGradient id="paint0_linear_14667_57116" x1="11.104" y1="26.999" x2="50.002" y2="12.674" gradientUnits="userSpaceOnUse"><stop stop-color="#222357"/><stop offset="1" stop-color="#254AA5"/></linearGradient></defs></svg>