<svg width="187" height="193" fill="none" xmlns="http://www.w3.org/2000/svg"><g filter="url(#filter0_d_3193_47734)"><rect x="20" y="22" width="140" height="140" rx="19.31" fill="#013A65"/></g><path d="M36.296 104V92.512h4.656c.736 0 1.403.133 2 .4a4.11 4.11 0 011.536 1.152c.416.49.736 1.083.96 1.776.224.683.336 1.435.336 2.256 0 .693-.085 1.387-.256 2.08a5.915 5.915 0 01-.816 1.904 4.164 4.164 0 01-1.52 1.392c-.64.352-1.408.528-2.304.528h-4.592zm1.552-10.16v8.832h3.008c1.024 0 1.835-.389 2.432-1.168.597-.789.896-1.893.896-3.312 0-1.419-.304-2.496-.912-3.232-.608-.747-1.45-1.12-2.528-1.12h-2.896zm11.435 0v3.536h2.8c.79 0 1.386-.139 1.792-.416.405-.288.608-.768.608-1.44 0-.555-.187-.97-.56-1.248-.373-.288-.982-.432-1.824-.432h-2.816zM47.73 104V92.512h5.056c1.024 0 1.819.277 2.384.832.576.544.864 1.232.864 2.064 0 .47-.112.923-.336 1.36-.224.427-.624.773-1.2 1.04h.016c.277.117.517.235.72.352.213.107.421.261.624.464.213.203.384.47.512.8.139.33.208.725.208 1.184 0 .96-.347 1.765-1.04 2.416-.683.651-1.638.976-2.864.976H47.73zm1.552-5.36v4.032h3.312c.79 0 1.392-.187 1.808-.56.416-.373.624-.885.624-1.536 0-.384-.08-.704-.24-.96a1.545 1.545 0 00-.608-.592 2.516 2.516 0 00-.848-.304 5.666 5.666 0 00-.992-.08h-3.056zm17.536-2.768h-1.456c-.022-.427-.118-.79-.288-1.088a2.037 2.037 0 00-.672-.736 2.595 2.595 0 00-.896-.384 3.835 3.835 0 00-.992-.128 4.85 4.85 0 00-.88.08 2.7 2.7 0 00-.832.304 1.705 1.705 0 00-.656.608c-.17.267-.256.608-.256 1.024 0 .437.122.768.368.992.256.213.586.368.992.464l3.28.752c.8.192 1.434.539 1.904 1.04.47.49.704 1.168.704 2.032 0 .64-.134 1.189-.4 1.648a2.996 2.996 0 01-1.072 1.088 4.987 4.987 0 01-1.44.56 7.088 7.088 0 01-1.584.176c-.502 0-.944-.037-1.328-.112a4.74 4.74 0 01-.976-.256 4.207 4.207 0 01-.656-.336 5.568 5.568 0 01-.512-.4c-.459-.405-.768-.837-.928-1.296-.16-.469-.24-1.008-.24-1.616h1.456c0 .491.09.912.272 1.264.181.352.426.635.736.848.31.203.645.352 1.008.448.373.085.757.128 1.152.128.33 0 .661-.027.992-.08.341-.053.661-.149.96-.288.31-.139.56-.336.752-.592.202-.267.304-.592.304-.976 0-.309-.043-.565-.128-.768a1.228 1.228 0 00-.384-.528 2.371 2.371 0 00-.736-.384 9.028 9.028 0 00-1.2-.352l-2.352-.544a8.152 8.152 0 01-.784-.24 3.276 3.276 0 01-.768-.464 2.41 2.41 0 01-.64-.8c-.17-.33-.256-.73-.256-1.2 0-.459.074-.901.224-1.328.16-.427.4-.805.72-1.136a3.25 3.25 0 011.232-.8c.512-.192 1.104-.288 1.776-.288.938 0 1.706.123 2.304.368.608.245 1.061.555 1.36.928.31.373.517.757.624 1.152.106.395.17.8.192 1.216zm3.184.912h-1.408c0-.853.133-1.552.4-2.096.277-.555.618-.97 1.024-1.248a3.39 3.39 0 011.232-.544 5.61 5.61 0 011.232-.144c.49 0 .949.08 1.376.24.426.15.8.368 1.12.656.682.619 1.024 1.44 1.024 2.464 0 .48-.075.907-.224 1.28-.15.373-.358.704-.624.992a5.575 5.575 0 01-.896.752c-.331.224-.752.47-1.264.736l-1.168.64c-.672.373-1.152.752-1.44 1.136-.288.373-.454.715-.496 1.024h6.112V104h-7.696c.042-1.099.288-1.995.736-2.688.448-.704 1.082-1.296 1.904-1.776l1.488-.864.08-.048c.362-.203.65-.373.864-.512a3.7 3.7 0 00.576-.496c.17-.192.304-.41.4-.656.096-.256.144-.56.144-.912a2.09 2.09 0 00-.128-.72 1.656 1.656 0 00-.384-.64 1.73 1.73 0 00-.688-.48c-.288-.128-.63-.192-1.024-.192-.491 0-.891.096-1.2.288a1.81 1.81 0 00-.688.736 3.43 3.43 0 00-.288.848 9.767 9.767 0 00-.096.864v.032zm10.362 2.032V97.6c.32.021.566.032.736.032.619 0 1.13-.144 1.536-.432.406-.288.608-.757.608-1.408 0-.192-.032-.39-.096-.592a1.598 1.598 0 00-.336-.576 1.514 1.514 0 00-.64-.432c-.277-.117-.613-.176-1.008-.176-.47 0-.853.085-1.152.256-.288.16-.506.368-.656.624a2.67 2.67 0 00-.288.72 7.482 7.482 0 00-.096.816h-1.376c0-.459.054-.896.16-1.312.107-.427.294-.816.56-1.168.278-.363.656-.65 1.136-.864.48-.224 1.072-.336 1.776-.336 1.067 0 1.91.277 2.528.832.63.544.944 1.253.944 2.128 0 .65-.15 1.173-.448 1.568-.288.384-.618.635-.992.752v.032c.587.192 1.046.501 1.376.928.33.416.496.981.496 1.696 0 .469-.08.923-.24 1.36-.16.427-.405.811-.736 1.152-.32.341-.741.608-1.264.8-.512.203-1.114.304-1.808.304-.757 0-1.45-.165-2.08-.496-.576-.299-.986-.725-1.232-1.28-.245-.555-.394-1.211-.448-1.968h1.456c.022.331.059.635.112.912.064.267.176.523.336.768.17.235.416.427.736.576.32.149.726.224 1.216.224.726 0 1.312-.203 1.76-.608.459-.405.688-.928.688-1.568 0-.448-.085-.811-.256-1.088a1.642 1.642 0 00-.656-.64 2.628 2.628 0 00-.832-.272 5.785 5.785 0 00-.88-.064h-.32c-.181.01-.288.016-.32.016zm12.939 1.84h-4.608l-1.2 3.344h-1.6l4.32-11.488h1.76L96.136 104H94.44l-1.136-3.344zm-4.128-1.376h3.568l-1.696-5.056h-.032l-1.84 5.056zm10.096-5.44v3.984h3.088c.746 0 1.322-.16 1.728-.48.405-.32.608-.848.608-1.584 0-.683-.203-1.173-.608-1.472-.406-.299-.96-.448-1.664-.448h-3.152zm0 5.312V104H97.72V92.512h5.168c1.045 0 1.872.304 2.48.912.618.597.928 1.37.928 2.32 0 .427-.064.843-.192 1.248a3.24 3.24 0 01-.608 1.088c-.267.32-.619.581-1.056.784-.438.192-.955.288-1.552.288h-3.616zm10.704-.08V104h-1.552V92.512h5.312c.501 0 .976.053 1.424.16.448.096.848.261 1.2.496s.629.555.832.96c.213.395.32.885.32 1.472 0 .405-.048.757-.144 1.056a2.348 2.348 0 01-.368.768c-.15.203-.315.379-.496.528a4.415 4.415 0 01-.592.4c.213.085.389.17.528.256.138.075.272.192.4.352.128.15.229.352.304.608.085.245.133.56.144.944l.096 2.08c.01.331.048.576.112.736.074.149.229.288.464.416V104h-1.904a4.027 4.027 0 01-.144-.64 22.471 22.471 0 01-.08-.816l-.032-.816a15.76 15.76 0 01-.016-.608c0-.277-.022-.528-.064-.752a1.458 1.458 0 00-.288-.64c-.139-.203-.347-.363-.624-.48-.278-.117-.635-.176-1.072-.176h-3.76zm0-5.232v3.904h3.6a4.5 4.5 0 00.88-.08c.266-.053.512-.15.736-.288.224-.139.4-.341.528-.608.128-.267.192-.603.192-1.008 0-.416-.07-.752-.208-1.008a1.344 1.344 0 00-.512-.592 1.836 1.836 0 00-.64-.256 3.757 3.757 0 00-.704-.064h-3.872zm14.331-1.088V104h-1.504v-7.984h-2.624v-1.12c.522-.032.938-.08 1.248-.144.309-.064.576-.165.8-.304a1.76 1.76 0 00.576-.608c.16-.267.293-.63.4-1.088h1.104zm5.978 1.616l-.48 3.088a3.5 3.5 0 01.944-.512 3.688 3.688 0 011.232-.192c.459 0 .907.08 1.344.24.448.16.848.395 1.2.704.352.31.629.688.832 1.136.213.448.32.955.32 1.52 0 .384-.053.795-.16 1.232a3.885 3.885 0 01-.608 1.28c-.288.416-.709.763-1.264 1.04-.544.267-1.227.4-2.048.4-.405 0-.805-.048-1.2-.144a3.736 3.736 0 01-1.104-.48 3.077 3.077 0 01-.88-.96c-.235-.416-.384-.923-.448-1.52h1.456c.075.629.325 1.104.752 1.424.427.309.971.464 1.632.464.715 0 1.285-.245 1.712-.736.437-.501.656-1.115.656-1.84 0-.779-.235-1.387-.704-1.824-.469-.448-1.067-.672-1.792-.672a2.43 2.43 0 00-1.152.288 2.81 2.81 0 00-.928.784l-1.216-.064.848-6.032h5.824v1.376h-4.768zm12.859 4.16c0-1.44-.198-2.55-.592-3.328-.384-.79-.971-1.184-1.76-1.184-.79 0-1.382.395-1.776 1.184-.384.779-.576 1.888-.576 3.328s.192 2.555.576 3.344c.394.779.986 1.168 1.776 1.168.789 0 1.376-.389 1.76-1.168.394-.789.592-1.904.592-3.344zm1.504 0c0 .661-.054 1.323-.16 1.984a6.414 6.414 0 01-.592 1.84 3.627 3.627 0 01-1.184 1.408c-.512.363-1.152.544-1.92.544s-1.408-.181-1.92-.544a3.619 3.619 0 01-1.184-1.408 7.099 7.099 0 01-.592-1.84 12.402 12.402 0 01-.16-1.984c0-.661.053-1.317.16-1.968.117-.661.314-1.28.592-1.856a3.617 3.617 0 011.184-1.408c.512-.363 1.152-.544 1.92-.544s1.408.181 1.92.544c.512.363.906.832 1.184 1.408.288.576.485 1.195.592 1.856.106.65.16 1.307.16 1.968z" fill="#fff"/><path d="M131.551 78.033c.536 0 .961-.198 1.274-.593.317-.396.475-.958.475-1.688 0-.726-.158-1.287-.475-1.683-.313-.398-.738-.597-1.274-.597s-.964.197-1.283.593c-.32.395-.479.958-.479 1.687 0 .73.159 1.292.479 1.688.319.395.747.593 1.283.593zm3.102-2.28c0 1.162-.326 2.053-.98 2.671-.489.504-1.196.756-2.122.756-.926 0-1.634-.252-2.123-.756-.656-.618-.984-1.509-.984-2.672 0-1.186.328-2.077.984-2.671.489-.504 1.197-.756 2.123-.756.926 0 1.633.252 2.122.756.654.594.98 1.485.98 2.671zm1.037-3.222h4.593v1.138h-3.248v1.49h2.843v1.125h-2.843V79h-1.345v-6.469zm5.502 0h4.593v1.138h-3.248v1.49h2.843v1.125h-2.843V79h-1.345v-6.469zm-94.559 2.634c1.08-.137 1.866-.383 2.358-.738.861-.63 1.292-1.716 1.292-3.261 0-1.176-.403-2.105-1.21-2.789-.478-.396-1.292-.807-2.44-1.23v8.018zm-1.948-21.43c-1.19.027-2.072.348-2.646.963-.574.602-.861 1.429-.861 2.482 0 1.148.43 2.057 1.292 2.727.478.37 1.217.711 2.215 1.026v-7.199zm1.989 30.125h-1.99v-4.08c-2.693-.302-4.703-.89-6.029-1.764-2.338-1.573-3.486-4.252-3.445-8.04h5.537c.191 1.723.458 2.879.8 3.466.533.916 1.579 1.511 3.138 1.785V66.47l-1.662-.492c-2.61-.766-4.457-1.832-5.537-3.2-1.066-1.367-1.6-3.014-1.6-4.942 0-1.271.206-2.427.616-3.466a8.051 8.051 0 011.764-2.686c.97-.971 2.05-1.641 3.24-2.01.724-.233 1.784-.404 3.179-.513v-2.727h1.948v2.768c2.228.178 3.978.725 5.25 1.64 2.31 1.464 3.507 3.836 3.589 7.117h-5.394c-.11-1.217-.314-2.106-.615-2.666-.52-.97-1.463-1.504-2.83-1.6v7.814c3.254 1.12 5.441 2.112 6.562 2.974 1.846 1.435 2.769 3.459 2.769 6.07 0 3.445-1.265 5.947-3.794 7.506-1.545.957-3.377 1.517-5.496 1.681v4.122zM60.29 58.492v-3.978c1.846-.082 3.138-.205 3.876-.37 1.176-.26 2.133-.779 2.871-1.558.506-.533.889-1.244 1.148-2.133.15-.533.226-.93.226-1.19h4.86V79h-5.988V58.492H60.29zm27.398 12.551c.233 1.271.677 2.256 1.334 2.953.656.684 1.613 1.026 2.87 1.026 1.45 0 2.55-.506 3.302-1.518.766-1.026 1.149-2.31 1.149-3.856 0-1.517-.356-2.795-1.067-3.834-.71-1.053-1.818-1.58-3.322-1.58-.71 0-1.326.09-1.846.267-.916.328-1.606.936-2.07 1.825l-5.25-.246 2.09-16.427h16.387v4.963H89.104l-1.066 6.501c.902-.588 1.606-.977 2.112-1.169.848-.314 1.88-.471 3.097-.471 2.461 0 4.608.827 6.44 2.481 1.832 1.654 2.748 4.06 2.748 7.219 0 2.748-.882 5.202-2.646 7.362-1.764 2.16-4.402 3.24-7.916 3.24-2.83 0-5.154-.758-6.973-2.276-1.818-1.518-2.83-3.671-3.035-6.46h5.825zm23.728-6.624c0 3.418.28 6.036.841 7.854.56 1.805 1.709 2.708 3.445 2.708 1.736 0 2.871-.903 3.404-2.708.547-1.818.821-4.436.821-7.854 0-3.582-.274-6.234-.821-7.957-.533-1.723-1.668-2.584-3.404-2.584s-2.885.861-3.445 2.584c-.561 1.723-.841 4.375-.841 7.957zm4.286-15.36c3.787 0 6.44 1.333 7.957 3.999 1.531 2.666 2.297 6.453 2.297 11.36 0 4.91-.766 8.69-2.297 11.342-1.517 2.652-4.17 3.978-7.957 3.978s-6.446-1.326-7.977-3.978c-1.518-2.653-2.277-6.433-2.277-11.341 0-4.908.759-8.695 2.277-11.361 1.531-2.666 4.19-4 7.977-4zM34 86h112v2H34zm0 21h112v2H34zm6.695 17H147l-5.695 20H35l5.695-20z" fill="#FCF102"/><path d="M38.695 122H145l-5.695 20H33l5.695-20z" fill="#fff"/><path d="M65.335 129.17H63.31c.015-1.005-.075-1.995-1.23-1.995-.705 0-1.155.285-1.155 1.05 0 .855.54 1.185 1.2 1.605.69.435 1.965 1.275 2.55 1.845.72.705.945 1.38.945 2.355 0 2.13-1.41 3.24-3.465 3.24-2.52 0-3.42-1.41-3.42-3.42v-.825h2.1v.66c-.045 1.095.285 1.89 1.32 1.89.885 0 1.305-.465 1.305-1.32 0-.66-.3-1.11-.84-1.485-1.095-.855-2.46-1.47-3.315-2.595a3.125 3.125 0 01-.54-1.725c0-1.92 1.08-2.97 3.3-2.97 3.345 0 3.255 2.58 3.27 3.69zm7.87 7.83h-5.91v-11.25h5.91v1.65h-3.81v2.835h3.51v1.65h-3.51v3.465h3.81V137zm7.5 0h-5.91v-11.25h5.91v1.65h-3.81v2.835h3.51v1.65h-3.51v3.465h3.81V137zm7.485-3.54V137h-2.1v-11.25h3.345l1.125 5.22c.18.855.3 1.725.39 2.595h.03c.105-1.11.18-1.86.33-2.595l1.125-5.22h3.33V137h-2.1v-3.54c0-2.235.045-4.47.18-6.705h-.03L91.565 137H90.29l-2.205-10.245h-.075c.135 2.235.18 4.47.18 6.705zm9.485-1.38v-1.605c.09-2.865.315-4.995 3.675-4.995s3.585 2.13 3.675 4.995v1.605c0 3-.225 5.19-3.675 5.19-3.45 0-3.675-2.19-3.675-5.19zm2.16-2.07v3.12c0 .93.075 2.445 1.515 2.445 1.5 0 1.515-1.545 1.515-2.625v-2.88c0-.9.045-2.895-1.515-2.895-1.65 0-1.515 1.965-1.515 2.835zm9.56 2.145h-.375V137h-2.1v-11.25h3.975c1.815 0 3.195.63 3.195 2.7 0 1.23-.315 2.52-1.725 2.715v.03c1.245.165 1.62.96 1.62 2.04 0 .465-.06 3.225.45 3.555v.21h-2.31c-.255-.72-.21-2.1-.225-2.85-.015-.69 0-1.635-.72-1.845-.57-.165-1.185-.15-1.785-.15zm-.375-4.755v3.105h1.65c.69-.045 1.23-.495 1.23-1.62 0-1.26-.525-1.47-1.32-1.485h-1.56zm12.95 9.6h-5.91v-11.25h5.91v1.65h-3.81v2.835h3.51v1.65h-3.51v3.465h3.81V137z" fill="#333"/><mask id="a" style="mask-type:luminance" maskUnits="userSpaceOnUse" x="126" y="129" width="14" height="14"><path d="M133.5 130.25v2.5" stroke="#fff" stroke-width="1.667" stroke-linecap="round" stroke-linejoin="round"/><path fill-rule="evenodd" clip-rule="evenodd" d="M132.875 135.875l6.25 1.25-1.875 1.25 1.875 1.875-1.875 1.875-1.875-1.875-1.25 1.875-1.25-6.25z" fill="#fff" stroke="#fff" stroke-width="1.667" stroke-linecap="round" stroke-linejoin="round"/><path d="M137.919 132.081l-1.767 1.767m-7.071 7.071l1.767-1.767m-3.598-2.652h2.5m-.669-4.419l1.767 1.767" stroke="#fff" stroke-width="1.667" stroke-linecap="round" stroke-linejoin="round"/></mask><g mask="url(#a)"><path d="M126 129h15v15h-15v-15z" fill="#013A65"/></g><defs><filter id="filter0_d_3193_47734" x="-6.069" y=".759" width="192.138" height="192.138" filterUnits="userSpaceOnUse" color-interpolation-filters="sRGB"><feFlood flood-opacity="0" result="BackgroundImageFix"/><feColorMatrix in="SourceAlpha" values="0 0 0 0 0 0 0 0 0 0 0 0 0 0 0 0 0 0 127 0" result="hardAlpha"/><feMorphology radius="2.897" operator="dilate" in="SourceAlpha" result="effect1_dropShadow_3193_47734"/><feOffset dy="4.828"/><feGaussianBlur stdDeviation="11.586"/><feComposite in2="hardAlpha" operator="out"/><feColorMatrix values="0 0 0 0 0 0 0 0 0 0 0 0 0 0 0 0 0 0 0.08 0"/><feBlend in2="BackgroundImageFix" result="effect1_dropShadow_3193_47734"/><feBlend in="SourceGraphic" in2="effect1_dropShadow_3193_47734" result="shape"/></filter></defs></svg>