<svg width="75" height="40" viewBox="0 0 75 40" fill="none" xmlns="http://www.w3.org/2000/svg">
<path d="M68.98 24.3756L69.8281 26.6645C69.9164 26.921 70.0124 27.2249 70.076 27.4566H70.0921C70.1643 27.2249 70.2441 26.9286 70.34 26.6484L71.1084 24.3756H71.853L70.7959 27.1375C70.2916 28.4672 69.9478 29.1472 69.4662 29.5632C69.2579 29.7507 69.0132 29.8933 68.7473 29.982C68.6893 29.8785 68.4253 29.4264 68.4253 29.4264C68.6508 29.3521 68.86 29.2354 69.0417 29.0826C69.2975 28.8707 69.5005 28.6021 69.6343 28.2981C69.6628 28.2458 69.6818 28.1889 69.6904 28.13C69.6839 28.0664 69.6676 28.0043 69.6419 27.9458L68.2088 24.3756H68.98ZM52.7571 24.2873C53.9415 24.2873 54.2302 25.0955 54.2302 25.8724V27.3218C54.2249 27.6326 54.2462 27.9434 54.2938 28.2506H53.6537L53.5976 27.7624H53.5748C53.4374 27.9457 53.2583 28.0935 53.0523 28.1938C52.8464 28.294 52.6195 28.3438 52.3905 28.339C51.606 28.339 51.2061 27.7862 51.2061 27.2258C51.2061 26.2894 52.0381 25.7774 53.5359 25.785V25.7053C53.5359 25.3852 53.4476 24.8087 52.6555 24.8087C52.3311 24.8104 52.0123 24.8926 51.7276 25.048L51.4854 24.632C51.869 24.4012 52.3094 24.2821 52.7571 24.2882V24.2873ZM65.9388 24.2873C67.1232 24.2873 67.4119 25.0955 67.4119 25.8724V27.3218C67.4066 27.6326 67.4279 27.9434 67.4755 28.2506H66.8354L66.7794 27.7624H66.7556C66.6182 27.9457 66.439 28.0935 66.2331 28.1938C66.0271 28.294 65.8003 28.3438 65.5713 28.339C64.7868 28.339 64.3869 27.7862 64.3869 27.2258C64.3869 26.2894 65.2199 25.7774 66.7167 25.785V25.7053C66.7167 25.3852 66.6284 24.8087 65.8363 24.8087C65.5119 24.8103 65.193 24.8926 64.9083 25.048L64.668 24.632C65.0514 24.4014 65.4915 24.2823 65.9388 24.2882V24.2873ZM44.4657 22.7677C45.1381 22.7677 45.5627 22.912 45.746 23.0079C45.746 23.0079 45.5332 23.3784 45.4458 23.5189C45.1399 23.4053 44.8157 23.349 44.4894 23.3527C43.2244 23.3527 42.3838 24.161 42.3838 25.578C42.3838 26.8991 43.1436 27.7473 44.4571 27.7473C44.7958 27.7492 45.1324 27.6936 45.4525 27.5829C45.5161 27.6941 45.7374 28.0759 45.7374 28.0759C45.481 28.2041 44.9691 28.3323 44.3128 28.3323C42.7932 28.3323 41.6468 27.3721 41.6468 25.6027C41.6478 23.914 42.7922 22.7667 44.4657 22.7667V22.7677ZM39.2316 24.2873C40.4966 24.2873 40.8329 25.4004 40.8329 26.1127C40.8317 26.2226 40.8238 26.3324 40.8091 26.4413H38.0871C38.1032 27.3911 38.7111 27.7862 39.4168 27.7862C39.7325 27.7944 40.0471 27.7458 40.3456 27.6428C40.4102 27.7492 40.6097 28.0901 40.6097 28.0901C40.2018 28.2602 39.7626 28.3421 39.3208 28.3304C38.1279 28.3304 37.4156 27.5459 37.4156 26.3767C37.4156 25.2076 38.1023 24.2882 39.2335 24.2882L39.2316 24.2873ZM56.4222 23.2625V24.3756H57.4309V24.9122H56.4241V27.0017C56.4241 27.4823 56.5599 27.7539 56.9522 27.7539C57.0101 27.7539 57.0624 27.7539 57.1108 27.7473C57.1934 27.8869 57.3957 28.2335 57.3957 28.2335C57.1953 28.3032 56.9838 28.3354 56.7717 28.3285C56.4431 28.3285 56.1791 28.224 56.0119 28.0322C55.8115 27.8242 55.7393 27.4804 55.7393 27.0235V24.9122H55.1391V24.3756H55.7393V23.2634L56.4222 23.2625ZM61.7608 22.8142C62.4494 22.8142 62.9537 22.9747 63.2738 23.2625C63.5701 23.5189 63.7487 23.9112 63.7487 24.3908C63.7487 24.8704 63.6043 25.2636 63.3327 25.5438C62.9642 25.9361 62.3639 26.1365 61.6839 26.1365C61.4959 26.1423 61.3078 26.126 61.1235 26.088V28.2497H60.4274V22.9187C60.8682 22.8474 61.3142 22.8127 61.7608 22.8151V22.8142ZM31.2194 22.8541L31.8595 25.5837C32.02 26.2561 32.1634 26.9286 32.2594 27.449H32.2755C32.3638 26.9124 32.532 26.2723 32.7162 25.5761L33.4399 22.855H34.1684L34.8247 25.5922C34.9766 26.2324 35.121 26.8725 35.2046 27.4414H35.2207C35.3328 26.8488 35.4848 26.2485 35.6529 25.5761L36.3652 22.8541H37.0775L35.5484 28.2497H34.8199L34.1399 25.4403C33.9901 24.8603 33.8725 24.2724 33.7875 23.6794H33.7714C33.6609 24.2736 33.5186 24.8614 33.3449 25.4403L32.5851 28.2497H31.8567L30.4881 22.8541H31.2194ZM47.5306 22.5692V24.9863H47.5467C47.666 24.7775 47.8405 24.6056 48.051 24.4896C48.2697 24.3609 48.5182 24.2918 48.7719 24.2892C49.2924 24.2892 50.1244 24.6092 50.1244 25.9465V28.2516H49.4196V26.0253C49.4196 25.4013 49.1879 24.8723 48.5231 24.8723C48.3117 24.8763 48.1068 24.9464 47.9373 25.0728C47.7678 25.1992 47.6422 25.3755 47.5781 25.5771C47.5396 25.6848 47.5231 25.7991 47.5296 25.9133V28.2506H46.8249V22.5673L47.5306 22.5692ZM51.908 27.1432C51.908 27.5991 52.2119 27.8156 52.5729 27.8156C52.7776 27.821 52.9788 27.7611 53.1472 27.6444C53.3155 27.5278 53.4424 27.3605 53.5093 27.1669C53.5342 27.0948 53.5476 27.0191 53.5492 26.9428V26.2704C52.7808 26.2571 51.908 26.3929 51.908 27.1432ZM65.0897 27.1432C65.0897 27.5991 65.3937 27.8156 65.7546 27.8156C65.9593 27.821 66.1605 27.7611 66.3289 27.6444C66.4973 27.5278 66.6241 27.3605 66.691 27.1669C66.7159 27.0948 66.7294 27.0191 66.7309 26.9428V26.2704C65.9626 26.2571 65.0897 26.3929 65.0897 27.1432ZM39.1755 24.7925C38.4632 24.7925 38.1507 25.4488 38.0947 25.937H40.1519C40.1595 25.4887 39.9676 24.7925 39.1755 24.7925ZM61.7798 23.3679C61.5597 23.3618 61.3395 23.3806 61.1235 23.4239V25.521C61.3126 25.5635 61.5063 25.5823 61.7 25.5771C62.5406 25.5771 63.0525 25.1687 63.0525 24.424C63.0497 23.7117 62.5453 23.367 61.777 23.367L61.7798 23.3679ZM57.0367 11.2043V12.6214H61.229V13.3574H57.0367V14.896H60.4207C60.4207 14.896 59.9867 17.1071 57.4508 18.9686C58.4766 19.509 59.8252 19.8918 61.4759 20.1501C61.4759 20.1501 61.209 20.625 60.9811 20.9907C59.1765 20.6772 57.7699 20.1283 56.6663 19.4843C55.5541 20.1444 54.1162 20.719 52.2566 21.0419C52.1274 20.852 51.7741 20.2251 51.7741 20.2251C53.4599 19.9611 54.8475 19.5347 55.8847 18.9781C53.3355 17.1498 52.8454 14.8941 52.8454 14.8941H56.2199V13.3555H51.8653V12.6214H56.2199V11.2043H57.0367ZM32.2052 13.913L32.8587 14.2597C32.5481 14.9977 32.2594 15.5001 32.1796 15.6578V21.0125H31.4454V16.8146C31.0237 17.3844 30.7806 17.676 30.6533 17.8156L30.2383 17.0966C31.0247 16.2618 31.7218 15.1154 32.2052 13.913ZM64.6025 11.2338L65.4573 11.4237L65.4307 11.494C65.0831 12.4029 64.7573 13.177 64.4629 13.7943V21.0125H63.6423V15.3491C63.3435 15.8338 63.0178 16.3015 62.6669 16.75L62.2177 15.9598C63.1807 14.6491 63.9909 13.0573 64.5807 11.2889L64.6025 11.2338ZM43.1037 11.2338L43.8778 11.4237C43.8778 11.4237 43.3849 12.9766 43.0078 13.7981V21.0163H42.1901V15.3776C41.8624 15.9949 41.643 16.4005 41.3657 16.7633L40.9231 15.9968C42.0694 14.5494 43.1009 11.2319 43.1009 11.2319L43.1037 11.2338ZM37.8981 11.1948L38.6342 11.342L38.6171 11.4085C38.4651 11.9907 38.297 12.5625 38.1175 13.1095H40.32V13.8057H39.7891C39.6523 15.7822 39.3018 17.3132 38.7491 18.3579C39.1879 19.2127 40.0332 20.0124 40.2687 20.2289C40.2155 20.3306 39.847 20.9612 39.847 20.9612C39.847 20.9612 38.6228 19.7075 38.3454 19.1006C38.0339 19.624 37.4593 20.3021 36.6805 21.0002L36.2892 20.3049C36.2892 20.3049 37.3548 19.4207 37.9589 18.3532C37.5772 17.3688 37.3278 16.3382 37.2171 15.2883C37.088 15.5153 37.0177 15.6378 36.8876 15.8325C36.8876 15.8325 36.5437 15.2351 36.4735 15.123C37.0918 14.0356 37.5552 12.7543 37.8858 11.2566L37.8981 11.1948ZM70.5813 11.2784V13.5958H72.0002V14.3727H70.5756V19.4179C70.5753 19.8035 70.4223 20.1734 70.1499 20.4464C69.8775 20.7195 69.5081 20.8735 69.1224 20.8748H68.1727V20.02H69.1224C69.2831 20.0197 69.437 19.9558 69.5506 19.8422C69.6642 19.7287 69.7281 19.5747 69.7284 19.4141V14.3708H65.1857V13.5939H69.7274V11.2765L70.5813 11.2784ZM50.2184 17.4433V20.833H44.4571V17.4414L50.2184 17.4433ZM36.067 17.0387V18.9107C36.2047 18.7939 36.6264 18.4235 36.7679 18.2971L37.1069 18.8841L35.5531 20.1957C35.5531 20.1957 35.2245 19.6258 35.158 19.5204C35.253 19.4188 35.3717 19.2089 35.3717 18.8081V17.732H33.9594C33.9594 19.3333 33.8949 19.9165 32.8273 20.7475C32.8273 20.7475 32.5699 20.2935 32.455 20.1036C33.3725 19.3789 33.2633 18.3883 33.2633 17.0368L36.067 17.0387ZM49.4405 18.1784H45.2749V20.1359H49.4386L49.4405 18.1784ZM59.2734 15.6226H54.0117C54.3128 16.2495 55.0565 17.4594 56.6711 18.5118C58.2705 17.4433 58.9942 16.221 59.2734 15.6226ZM66.8401 15.5723L68.3256 17.9305L67.5515 18.3532L66.1611 15.9788L66.8401 15.5723ZM39.091 13.8038H37.8791C37.8668 13.8532 37.7528 14.14 37.7271 14.1961C37.8782 15.6454 38.1013 16.7604 38.392 17.5022C38.7519 16.6379 38.9875 15.3956 39.091 13.8038ZM50.2982 15.8211V16.5173H44.3764V15.8211H50.2982ZM36.4317 15.4564V16.1526H33.1075V15.4611L36.4317 15.4564ZM50.2982 14.2008V14.897H44.3764V14.2008H50.2982ZM35.1742 11.3667V13.9187H35.9264V12.0952H36.5817V14.5731H33.0315V12.137H33.7249V13.9187H34.4761V11.3667H35.1742ZM32.2404 11.1977L32.8824 11.6184C32.3598 12.7107 31.6365 13.695 30.7502 14.5199L30.3627 13.8466C31.0655 13.1684 31.7304 12.212 32.2413 11.1967L32.2404 11.1977ZM47.3321 11.2328L47.9095 12.5416H50.8633V13.2767H43.8502V12.5406H47.0908L46.6701 11.5196L47.3321 11.2328Z" fill="#4D4D4D"/>
<path d="M12.2601 22.6793C12.0858 22.7664 11.8848 22.7832 11.6985 22.7263C11.5122 22.6693 11.3549 22.5431 11.259 22.3735L11.2096 22.2652L9.14295 17.7254C9.11992 17.6753 9.10763 17.6209 9.10686 17.5658C9.10794 17.496 9.12821 17.4279 9.16543 17.3689C9.20265 17.31 9.2554 17.2623 9.31789 17.2313C9.38038 17.2003 9.4502 17.1871 9.51969 17.1932C9.58919 17.1993 9.65567 17.2243 9.71186 17.2657L12.1518 19.0028C12.2991 19.0997 12.4671 19.1607 12.6423 19.1808C12.8175 19.2009 12.995 19.1796 13.1604 19.1187L24.6345 14.008C22.5773 11.5842 19.1905 10 15.3572 10C9.08882 10 4 14.2378 4 19.4653C4 22.3146 5.53006 24.8846 7.92441 26.6199C8.02265 26.6903 8.10268 26.7831 8.15785 26.8906C8.21302 26.9981 8.24174 27.1173 8.24163 27.2382C8.23943 27.32 8.226 27.4012 8.20174 27.4794L7.68982 29.3884C7.65789 29.4776 7.63747 29.5705 7.62903 29.6648C7.62903 29.7655 7.66906 29.8622 7.74031 29.9334C7.81155 30.0047 7.90818 30.0447 8.00894 30.0447C8.0868 30.0416 8.16234 30.0173 8.22738 29.9744L10.7139 28.5393C10.8957 28.4282 11.1039 28.3679 11.317 28.3646C11.43 28.3647 11.5423 28.3817 11.6503 28.4149C12.8548 28.7596 14.1016 28.9341 15.3544 28.9335C21.6228 28.9335 26.7126 24.6956 26.7126 19.4682C26.7073 17.913 26.2596 16.3915 25.4218 15.0812L12.3446 22.6318L12.2601 22.6793Z" fill="#1AAD19"/>
</svg>
