<svg width="40" height="40" fill="none" xmlns="http://www.w3.org/2000/svg"><rect width="40" height="40" rx="6" fill="#4DC247"/><g clip-path="url(#clip0_1542_30180)"><path fill-rule="evenodd" clip-rule="evenodd" d="M25.014 22.205c-.276-.138-1.629-.802-1.88-.895-.253-.092-.436-.137-.62.139-.184.274-.71.894-.87 1.078-.162.184-.322.206-.597.07-.275-.14-1.162-.43-2.213-1.367-.818-.73-1.37-1.63-1.53-1.906-.16-.275-.018-.424.12-.561.124-.123.275-.322.413-.482.138-.16.183-.276.275-.46.092-.183.046-.343-.023-.481-.069-.138-.619-1.493-.848-2.044-.224-.536-.45-.463-.619-.472a11.91 11.91 0 00-.528-.01c-.183 0-.481.07-.733.345-.253.275-.963.94-.963 2.295 0 1.354.985 2.662 1.123 2.847.138.183 1.94 2.963 4.7 4.154.657.284 1.17.453 1.569.58.659.21 1.259.18 1.733.108.528-.078 1.628-.665 1.857-1.308.229-.643.229-1.194.16-1.308-.068-.115-.251-.184-.527-.322zm-5.02 6.855h-.004a9.14 9.14 0 01-4.66-1.276l-.333-.198-3.465.91.925-3.379-.217-.346a9.13 9.13 0 01-1.4-4.87c.002-5.047 4.108-9.152 9.157-9.152 2.444 0 4.743.954 6.47 2.683a9.099 9.099 0 012.678 6.475c-.002 5.046-4.107 9.153-9.152 9.153zm7.788-16.942a10.941 10.941 0 00-7.79-3.23c-6.068 0-11.009 4.94-11.01 11.012a10.985 10.985 0 001.469 5.504l-1.562 5.707 5.837-1.532a10.995 10.995 0 005.263 1.341h.004c6.069 0 11.01-4.94 11.011-11.012a10.945 10.945 0 00-3.222-7.79z" fill="#fff"/></g><defs><clipPath id="clip0_1542_30180"><path fill="#fff" transform="translate(8.889 8.889)" d="M0 0h22.222v22.222H0z"/></clipPath></defs></svg>