<svg width="65" height="64" fill="none" xmlns="http://www.w3.org/2000/svg"><path opacity=".944" fill-rule="evenodd" clip-rule="evenodd" d="M29.787 0h5.651C46.69 1.336 55.125 6.878 60.743 16.625c3.618 6.974 4.623 14.307 3.014 22-2.99 11.684-10.21 19.497-21.663 23.438-8.43 2.418-16.571 1.689-24.426-2.188A1099.089 1099.089 0 002.409 64H1.154c-.596-.48-.785-1.105-.566-1.875a1287.57 1287.57 0 014.208-14.813c-4.948-9.25-5.429-18.73-1.445-28.437a26.327 26.327 0 013.705-6.063c1.1-.348 1.77.048 2.01 1.188a3.64 3.64 0 01-.315.875c-5.175 7.487-6.64 15.654-4.395 24.5a41.257 41.257 0 003.202 7.688 1301.28 1301.28 0 01-3.893 13.75c4.717-1.238 9.447-2.467 14.191-3.688 1.155.407 2.285.887 3.391 1.438 10.982 4.117 21.071 2.575 30.266-4.626 8.744-7.944 11.905-17.715 9.482-29.312-2.792-9.778-8.925-16.55-18.398-20.313-9.778-3.222-18.903-1.93-27.378 3.875-1.174.124-1.739-.397-1.695-1.562.13-.38.36-.692.69-.938C18.92 2.467 24.11.572 29.787 0z" fill="#333"/><path opacity=".944" fill-rule="evenodd" clip-rule="evenodd" d="M29.952 4.989c10.024-.63 18.108 2.987 24.253 10.848 5.575 8.232 6.573 17.002 2.993 26.31a27.026 27.026 0 01-2.556 4.552c-1.385.628-2.113.192-2.183-1.31 4.661-7.284 5.451-14.973 2.37-23.068C51.12 14.21 44.865 9.367 36.062 7.794c-9.5-.994-17.17 2.269-23.006 9.789-4.812 7.112-5.768 14.718-2.868 22.82a96.328 96.328 0 002.93 5.86c-.627 2.4-1.292 4.79-1.995 7.17l.125.187a139.39 139.39 0 017.42-1.995c1.531.672 3.049 1.4 4.55 2.182 8.032 3.113 15.68 2.365 22.944-2.245 1.301-.278 1.904.242 1.808 1.559a2.24 2.24 0 01-1.184 1.185c-9.436 5.382-18.892 5.402-28.368.062-2.85.76-5.697 1.528-8.542 2.307-1.368.333-2.013-.186-1.933-1.559.773-2.88 1.584-5.747 2.432-8.604-4.958-7.987-5.769-16.383-2.432-25.188 2.534-5.775 6.545-10.202 12.033-13.28a28.387 28.387 0 019.976-3.055z" fill="#333"/><path opacity=".942" fill-rule="evenodd" clip-rule="evenodd" d="M20.712 14.95a19.33 19.33 0 013.576.186c.63.233 1.119.627 1.469 1.181a298.675 298.675 0 012.81 6.343c.345 1.134.217 2.212-.384 3.233a22.459 22.459 0 00-1.852 2.176c2.447 3.73 5.767 6.445 9.961 8.146a21.044 21.044 0 002.107-2.612c.907-1.01 2.035-1.363 3.385-1.057 2.244.968 4.458 2.005 6.64 3.109.54.448.901 1.008 1.086 1.679.428 4.68-1.722 7.479-6.45 8.394a15.093 15.093 0 01-6.385-.498c-9.815-3.133-16.733-9.33-20.751-18.59-.882-2.973-.584-5.833.893-8.58a7.492 7.492 0 013.895-3.11zm.511 2.61a5.385 5.385 0 00-1.723 1.37c-1.761 2.747-1.889 5.566-.383 8.456 3.852 7.232 9.705 12.269 17.56 15.11 2.169.8 4.383.965 6.64.497 2.736-.773 3.886-2.514 3.448-5.223l-5.747-2.674c-.37.174-.69.423-.957.746a15.173 15.173 0 01-2.108 2.55c-.855.461-1.749.544-2.681.248-4.595-1.82-8.277-4.742-11.047-8.767-.776-1.079-.861-2.198-.255-3.357.68-.747 1.362-1.493 2.043-2.239a1.12 1.12 0 000-.746l-2.618-5.845a9.584 9.584 0 00-2.17-.124z" fill="#333"/></svg>